<svg width="1243" height="1505" viewBox="0 0 1243 1505" fill="none" xmlns="http://www.w3.org/2000/svg">
<g filter="url(#filter0_d_403_13702)">
<path d="M889.022 1392.57C884.839 1396.59 880.9 1400.38 877.762 1403.94L877.095 1404.69C871.665 1410.88 870.308 1412.88 870.486 1414.46C870.552 1414.97 870.931 1415.66 871.354 1415.95C872.043 1416.44 872.8 1416.6 879.32 1417.02C881.212 1417.15 882.925 1417.24 883.57 1417.35C893.762 1419.07 904.488 1420.69 915.414 1422.18C919.509 1422.76 923.848 1423.12 928.031 1423.45C930.346 1423.65 932.66 1423.83 934.974 1424.08C935.041 1424.08 935.108 1424.08 935.152 1424.08C935.753 1424.08 936.332 1423.76 936.666 1423.27C937.044 1422.72 937.066 1422.01 936.755 1421.4C929.656 1408.28 924.36 1393.81 919.242 1379.84C917.706 1375.65 916.193 1371.51 914.657 1367.49C914.413 1366.84 913.812 1366.4 913.122 1366.33C912.41 1366.26 911.765 1366.62 911.409 1367.2C905.89 1376.34 896.944 1384.98 889.022 1392.57Z" fill="#FFEFE6"/>
<path d="M882.815 1283.55C882.592 1282.92 882.058 1282.48 881.413 1282.39C880.746 1282.28 880.1 1282.55 879.7 1283.06C877.608 1285.68 875.116 1288.2 872.712 1290.65C871.266 1292.11 869.797 1293.58 868.418 1295.1C867.416 1296.19 865.947 1297.72 864.189 1299.5C858.827 1305.04 851.483 1312.61 847.923 1317.88C847.633 1318.31 847.544 1318.82 847.656 1319.31C847.767 1319.8 848.078 1320.22 848.501 1320.46C859.583 1326.96 872.757 1332.1 884.395 1336.64L886.665 1337.53C889.291 1338.58 893.118 1339.34 897.146 1340.14C898.57 1340.43 900.039 1340.71 901.507 1341.03C901.641 1341.05 901.752 1341.07 901.886 1341.07C902.397 1341.07 902.909 1340.85 903.265 1340.43C903.688 1339.91 903.822 1339.22 903.577 1338.6C896.723 1320.6 889.602 1301.99 882.815 1283.55Z" fill="#FFEFE6"/>
<path d="M862.076 1224.64C858.76 1214.68 855.689 1204.66 853.375 1197.03C853.197 1196.41 852.685 1195.94 852.062 1195.78C851.439 1195.63 850.772 1195.83 850.326 1196.27C849.036 1197.59 847.701 1198.88 846.343 1200.19C844.496 1201.99 842.605 1203.79 840.825 1205.71C834.794 1212.16 829.431 1219.33 824.446 1227.65C824.179 1228.09 824.113 1228.65 824.291 1229.14C824.447 1229.65 824.825 1230.05 825.314 1230.25C836.552 1234.88 846.633 1239.69 856.068 1244.94L859.873 1247.03C862.521 1248.48 865.258 1249.99 867.928 1251.57C868.218 1251.75 868.529 1251.82 868.863 1251.82C869.286 1251.82 869.686 1251.68 870.02 1251.39C870.621 1250.9 870.844 1250.1 870.577 1249.39C867.684 1241.16 864.835 1232.9 862.076 1224.64Z" fill="#FFEFE6"/>
<path d="M840.936 1153.46L840.646 1152.39C837.954 1142.35 834.26 1128.62 825.692 1120.95C825.292 1120.59 824.736 1120.41 824.201 1120.5C823.667 1120.59 823.2 1120.9 822.911 1121.39C820.641 1125.33 817.837 1128.94 814.9 1132.76C814.01 1133.92 813.12 1135.08 812.252 1136.23C811.495 1137.24 810.36 1138.48 809.092 1139.86C806.911 1142.24 804.441 1144.94 802.816 1147.52C802.305 1148.34 802.505 1149.43 803.306 1149.99C803.996 1150.45 804.775 1151.08 805.732 1151.9C805.821 1151.99 805.932 1152.06 806.043 1152.1L807.334 1152.81C808.691 1153.57 810.026 1154.3 811.362 1155.02C821.709 1160.67 832.257 1166.1 842.716 1171.17C842.961 1171.31 843.228 1171.35 843.517 1171.35C843.94 1171.35 844.34 1171.19 844.674 1170.93C845.23 1170.46 845.453 1169.73 845.253 1169.04L844.162 1165.14C843.072 1161.22 841.981 1157.35 840.936 1153.46Z" fill="#FFEFE6"/>
<path d="M481.619 1156.44C481.952 1156.44 482.286 1156.35 482.598 1156.15C485.557 1154.26 489.229 1152.86 492.478 1151.61L494.904 1150.68C501.579 1148.01 507.677 1145.42 513.574 1142.78C514.597 1142.31 515.755 1141.84 516.978 1141.37C519.248 1140.48 521.829 1139.46 524.032 1138.15C524.789 1137.68 525.123 1136.75 524.789 1135.92C523.432 1132.52 520.628 1128.96 518.158 1125.84C516.845 1124.17 515.599 1122.59 514.775 1121.3C512.795 1118.19 511.393 1115.69 510.458 1112.96C510.147 1112.07 509.234 1111.56 508.344 1111.78C501.913 1113.25 496.795 1115.63 492.656 1119.08C482.687 1127.44 481.062 1140.86 479.616 1152.68L479.46 1153.95C479.393 1154.5 479.638 1155.13 480.017 1155.51C480.061 1155.57 480.306 1155.86 480.373 1155.91C480.684 1156.26 481.151 1156.44 481.619 1156.44Z" fill="#FFEFE6"/>
<path d="M476.724 1178.63C476.012 1178.78 475.478 1179.36 475.344 1180.07C472.474 1196.65 469.736 1210.16 466.688 1222.55C465.753 1226.38 464.774 1230.21 463.728 1234.01C463.528 1234.73 463.795 1235.5 464.373 1235.95C464.685 1236.19 465.086 1236.33 465.464 1236.33C465.775 1236.33 466.109 1236.24 466.398 1236.06C469.914 1233.92 473.697 1232.19 477.703 1230.34C479.283 1229.61 480.885 1228.87 482.487 1228.09C483.756 1227.49 485.758 1226.76 487.917 1225.98C494.793 1223.51 499.778 1221.55 501.58 1218.81C506.231 1211.78 500.712 1205.62 496.685 1201.12C495.883 1200.23 495.127 1199.39 494.482 1198.56C492.612 1196.23 490.543 1193.85 488.451 1191.4C485.091 1187.53 481.642 1183.5 478.615 1179.32C478.17 1178.74 477.414 1178.45 476.724 1178.63Z" fill="#FFEFE6"/>
<path d="M457.677 1263.3C457.321 1262.7 456.676 1262.34 455.942 1262.41C455.252 1262.47 454.651 1262.94 454.406 1263.61C447.308 1283.41 438.696 1301.66 428.793 1317.86C428.415 1318.48 428.437 1319.26 428.86 1319.84C429.194 1320.33 429.75 1320.62 430.351 1320.62C430.462 1320.62 430.596 1320.6 430.707 1320.58C433.533 1320 436.382 1319.49 439.23 1318.95C442.924 1318.26 446.618 1317.57 450.312 1316.79C457.21 1315.32 463.396 1313.92 469.338 1311.88L475.324 1309.83C477.571 1309.47 480.531 1308.74 481.288 1306.36C481.955 1304.31 480.487 1302.46 479.574 1301.48C478.973 1297.5 475.457 1292.43 472.32 1287.91C470.962 1285.95 469.672 1284.1 468.915 1282.7C466 1277.49 463.018 1272.31 459.947 1267.12C459.191 1265.88 458.434 1264.61 457.677 1263.3Z" fill="#FFEFE6"/>
<path d="M425.252 1394.21C425.919 1382.44 423.027 1370.69 420.223 1359.32C418.776 1353.42 417.285 1347.35 416.351 1341.45C416.239 1340.74 415.705 1340.16 415.015 1339.98C414.326 1339.8 413.569 1340.05 413.124 1340.63C399.995 1357.47 384.907 1373.25 366.972 1388.85C366.504 1389.27 366.282 1389.89 366.371 1390.52L366.482 1391.14C366.638 1391.98 367.35 1392.63 368.218 1392.65C375.628 1392.83 383.149 1393.61 390.448 1394.34C398.949 1395.21 407.694 1396.1 416.529 1396.1C418.865 1396.1 421.202 1396.03 423.516 1395.9C424.473 1395.86 425.207 1395.12 425.252 1394.21Z" fill="#FFEFE6"/>
<path d="M352.688 1402.07C352.065 1401.78 351.353 1401.87 350.819 1402.29C332.994 1416.37 312.544 1430.48 288.244 1445.41C287.599 1445.81 287.265 1446.59 287.421 1447.33C287.576 1448.06 288.2 1448.64 288.956 1448.75C292.383 1449.22 295.788 1449.8 299.192 1450.38C304.155 1451.22 309.273 1452.09 314.191 1452.56C325.117 1453.54 336.421 1454.03 348.46 1454.03C352.777 1454.03 357.205 1453.96 361.723 1453.85C362.279 1453.83 362.813 1453.56 363.125 1453.11C363.458 1452.67 363.57 1452.09 363.414 1451.56C358.919 1435.67 354.491 1418.87 353.756 1403.62C353.712 1402.96 353.289 1402.36 352.688 1402.07Z" fill="#FFEFE6"/>
<path d="M555.879 66.2121C555.924 66.2121 555.946 66.2121 555.991 66.2121C580.335 64.8324 605.058 64.0091 629.469 63.7198C630.159 63.7198 630.782 63.3193 631.094 62.6962C631.383 62.0732 631.316 61.3388 630.871 60.7824C623.617 51.5698 616.696 41.7786 609.998 32.2767C607.595 28.8498 605.169 25.4451 602.766 22.0627C602.477 21.6621 602.032 21.3951 601.542 21.3283C601.053 21.2616 600.563 21.395 600.163 21.7066C589.236 30.4519 578.933 39.3753 569.543 48.2541C567.05 50.5907 564.647 53.083 562.31 55.4863C559.84 58.0454 557.281 60.6712 554.678 63.0745C554.122 63.5863 553.943 64.4096 554.233 65.1217C554.5 65.767 555.145 66.2121 555.879 66.2121Z" fill="#5EAB47"/>
<path d="M462.037 86.5727C462.371 86.5727 462.727 86.4837 463.016 86.2834C477.881 76.7593 496.061 71.3074 521.964 68.5481C522.698 68.4813 523.299 67.9694 523.521 67.2573C523.722 66.5453 523.477 65.7887 522.921 65.3214C520.45 63.3409 518.069 61.2937 515.755 59.2909C513.641 57.4884 511.616 55.7304 509.68 54.1727C500 46.4732 491.433 39.1076 483.511 31.653C483.066 31.2524 482.465 31.0744 481.886 31.2079C481.308 31.3414 480.818 31.7197 480.596 32.276C477.391 39.8197 474.454 47.8307 471.606 55.5747C468.134 65.0544 464.552 74.8678 460.39 83.9914C460.056 84.7257 460.234 85.5936 460.858 86.1054C461.169 86.417 461.614 86.5727 462.037 86.5727Z" fill="#5EAB47"/>
<path d="M372.47 162.097C386.311 169.953 398.327 180.033 407.206 191.293C407.562 191.738 408.074 191.983 408.63 191.983C408.786 191.983 408.942 191.961 409.098 191.916C409.81 191.738 410.321 191.137 410.433 190.425C414.26 165.012 421.159 132.501 441.075 106.376C441.231 106.221 441.364 106.043 441.498 105.865C441.876 105.353 441.943 104.685 441.676 104.084C441.431 103.506 440.897 103.083 440.251 102.994C433.064 101.993 426.01 101.058 418.822 100.524C417.643 100.435 415.796 100.235 413.57 99.9676C399.195 98.3432 384.798 97.0748 380.659 100.924C378.1 103.328 376.831 111.116 375.607 122.888C375.474 124.156 375.362 125.158 375.296 125.736C374.517 131.678 374.116 137.731 373.716 143.561L373.604 145.074C373.493 146.543 373.449 147.922 373.382 149.235C373.204 153.419 373.048 156.712 371.691 159.739C371.335 160.629 371.668 161.652 372.47 162.097Z" fill="#5EAB47"/>
<path d="M101.875 1428.15C122.86 1444.88 149.986 1469.4 177.068 1473.77C203.548 1478.02 231.609 1455.76 253.572 1443.03C274.112 1431.11 294.362 1418.69 313.855 1405.07C355.045 1376.41 393.142 1341.56 417.976 1297.48C429.035 1277.81 437.024 1256.85 443.122 1235.24C443.077 1234.95 442.966 1234.7 442.943 1234.39C442.543 1232.43 443.344 1230.88 444.568 1229.96C450.042 1209.31 453.936 1188.2 457.185 1167.19C460.746 1144.18 462.637 1118.28 482.487 1102.55C506.119 1083.79 539.899 1093 567.448 1094.6C602.696 1096.63 637.922 1098.18 673.17 1099.94C696.825 1101.1 720.903 1102.7 744.557 1101.66C770.615 1100.52 796.74 1091.69 822.909 1095.8C856.555 1101.14 869.462 1172.44 875.159 1198.57C875.315 1199.14 875.315 1199.7 875.226 1200.19C893.562 1253.42 910.763 1307.18 930.813 1359.68C946.39 1400.42 957.917 1441.01 1005.27 1451.94C1046.24 1461.37 1092.19 1459.55 1133.38 1452.63C1151.72 1449.53 1170.59 1445.77 1188.03 1439.23C1211.51 1430.44 1221.92 1416.49 1217.27 1390.9C1210.26 1352.07 1197.18 1313.86 1184.2 1276.7C1157.32 1199.48 1127.73 1123.11 1099.29 1046.47C1040.96 889.253 982.573 732.126 924.07 574.977C895.364 497.893 865.835 421.032 839.043 343.237C826.314 306.141 814.297 268.779 803.661 230.994C793.002 192.964 787.327 153.109 775.822 115.48C763.561 75.269 703.902 83.8809 670.879 83.4358C631.402 82.9017 591.881 83.7696 552.471 85.9726C515.599 88.0866 476.234 88.732 453.536 122.512C437.647 146.166 423.027 189.515 423.673 218.421C423.962 231.417 428.546 242.165 425.876 255.828C424.718 261.925 415.929 260.79 414.438 255.605C402.644 215.35 384.419 181.392 341.538 168.286C323.201 162.7 302.195 161.499 283.614 166.683C262.34 172.558 250.301 188.491 242.869 208.496C231.32 239.517 231.409 276.723 248.388 305.785C268.304 339.788 311.385 350.869 342.116 372.41C345.387 374.702 343.162 379.442 339.357 378.663C301.839 370.763 263.43 356.277 239.531 326.881C219.459 334.781 202.191 358.925 193.623 375.971C182.052 399.024 179.716 426.529 190.041 450.473C201.078 476.13 224.622 489.015 250.68 495.357C267.926 499.54 304.242 507.774 320.754 494.845C332.303 477.087 346.122 460.865 362.856 446.712C366.26 443.842 372.246 447.914 369.287 451.875C341.604 489.215 320.464 530.516 306.4 574.465C334.483 549.32 376.586 535.59 409.03 547.139C412.702 548.474 413.125 554.326 408.875 555.239C385.064 560.424 361.076 563.695 339.379 575.444C322.512 584.635 309.293 597.808 296.342 611.449C296.276 611.783 296.186 612.072 296.12 612.362C289.221 643.493 285.238 675.07 282.19 706.758C303.174 684.26 336.308 670.753 364.302 675.292C367.996 675.871 366.95 680.922 364.191 681.902C344.297 689.022 320.798 696.744 305.355 711.231C295.919 720.087 287.575 729.522 279.297 739.18C277.85 757.005 276.493 774.851 274.913 792.631C274.067 802.022 273.088 811.435 272.087 820.826C277.272 815.418 282.968 810.545 288.71 806.317C311.274 789.738 335.018 783.463 362.566 788.181C366.639 788.871 366.35 795.591 362.411 796.281C340.536 800.064 316.859 808.876 298.679 821.76C286.262 830.617 277.094 842.077 268.193 853.96C264.699 881.62 260.582 909.147 255.597 936.584C279.92 910.571 315.925 894.482 349.771 899.244C354.333 899.89 355.624 906.209 350.75 907.589C323.936 915.289 296.565 924.279 275.447 943.305C263.942 953.652 255.13 965.914 247.431 978.909C238.062 1023.95 226.669 1063.78 187.148 1092.87C168.1 1106.88 146.514 1118.19 130.782 1136.24C112.557 1157.13 104.902 1184.35 106.393 1211.65C106.727 1217.9 100.83 1222.13 95.2441 1222.4C65.0471 1223.85 40.2353 1246.79 30.8001 1274.8C20.6751 1304.85 29.1312 1338.25 44.3298 1365.02C58.5938 1389.96 79.5559 1410.39 101.875 1428.15ZM510.124 887.027C521.184 827.323 538.096 767.552 544.483 707.247C549.089 663.476 550.758 606.175 586.185 574.51C613.066 550.477 651.541 557.486 677.955 578.359C708.33 602.348 718.455 640.422 726.555 676.561C731.495 698.524 737.77 719.82 744.669 740.894C745.648 741.873 746.16 743.408 745.982 744.877C752.502 764.548 759.556 784.108 766.588 803.847C774.576 826.233 781.964 848.886 786.615 872.207C789.552 887.05 792.601 903.272 788.529 918.226C778.471 955.321 732.652 951.182 702.411 952.228C653.966 953.941 604.387 953.652 556.232 947.733C541.278 945.886 524.923 942.081 515.198 929.597C505.474 917.135 507.432 901.581 510.124 887.027ZM295.63 420.231C293.605 434.495 282.59 446.979 268.882 451.43C261.049 454.011 252.037 454.011 244.849 449.916C238.752 446.423 234.546 440.303 231.965 433.761C220.616 404.944 244.204 366.469 277.45 383.87C279.964 385.183 282.234 386.808 284.281 388.699C292.782 396.488 297.277 408.682 295.63 420.231ZM363.457 286.826C352.286 310.881 321.065 325.613 297.41 313.596C282.412 306.008 273.177 289.43 272.042 272.651C269.238 231.394 313.343 190.271 351.017 222.427C356.959 227.5 361.432 233.976 364.369 241.141C370.288 255.494 370.066 272.629 363.457 286.826ZM172.684 1201.3C184.3 1195.36 203.237 1196.3 215.186 1200.72C227.314 1205.22 235.792 1216.08 238.441 1228.56C243.269 1251.51 223.932 1284.37 197.429 1278.5C168.923 1272.13 138.17 1218.97 172.684 1201.3ZM92.9076 1299.91C116.073 1287.15 136.501 1314.46 142.042 1333.91C148.428 1356.18 132.673 1381.13 107.683 1373.29C97.4917 1370.09 88.3012 1359.94 83.9842 1348.46C79.6671 1342.07 77.2639 1334.71 77.5977 1326.21C77.9982 1315.73 83.5837 1305.05 92.9076 1299.91Z" fill="#72B84C"/>
<path d="M546.263 806.962C546.53 806.962 546.797 806.896 547.042 806.784C550.647 805.049 554.497 803.536 558.213 802.067C560.394 801.221 562.552 800.353 564.644 799.485C575.192 794.946 585.806 790.562 596.421 786.156L601.784 783.931C602.34 783.686 602.763 783.197 602.874 782.573C602.986 781.973 602.785 781.349 602.34 780.927C596.888 775.786 590.212 771.002 583.136 765.928C574.613 759.831 565.779 753.511 559.281 746.502C558.814 746.012 558.124 745.812 557.456 745.99C556.811 746.168 556.299 746.724 556.166 747.392C552.271 767.241 548.132 787.18 544.483 804.782C544.349 805.471 544.594 806.161 545.151 806.584C545.462 806.829 545.863 806.962 546.263 806.962Z" fill="#FFEFE6"/>
<path d="M527.526 910.346C527.704 910.413 527.904 910.435 528.082 910.435C528.505 910.435 528.95 910.28 529.284 909.99C534.625 905.34 541.256 901.735 547.665 898.263C549.645 897.195 551.604 896.127 553.517 895.036C555.72 893.768 558.413 892.522 561.239 891.187C567.114 888.427 573.189 885.579 577.172 881.863C581.622 880.55 584.137 879.304 584.026 877.078C583.915 874.898 581.222 874.097 578.529 873.585C575.236 870.024 572.477 867.132 569.851 864.506C564.755 859.343 558.902 854.603 553.273 850.041C548.933 846.526 544.416 842.876 540.344 839.093C539.854 838.648 539.186 838.492 538.563 838.692C537.94 838.893 537.473 839.427 537.34 840.05L535.381 849.708C534.558 853.869 533.267 858.809 531.865 864.016C527.86 879.037 523.343 896.082 526.324 908.989C526.458 909.634 526.903 910.146 527.526 910.346Z" fill="#FFEFE6"/>
<path d="M724.531 877.413C722.773 879.438 716.32 885.647 714.784 885.914C714.028 885.736 713.249 886.047 712.848 886.693C712.425 887.338 712.448 888.161 712.915 888.784C714.851 891.343 719.88 895.571 724.531 899.354L725.688 900.311C735.947 908.834 747.585 915.243 759.601 921.607C760.536 922.097 761.27 922.787 761.804 923.632C762.094 924.1 762.583 924.411 763.139 924.478C763.206 924.478 763.273 924.478 763.34 924.478C763.807 924.478 764.274 924.3 764.63 923.944C774.333 914.242 773.198 898.598 770.55 883.155C768.636 872.095 765.899 860.457 762.16 847.572C761.982 846.994 761.537 846.526 760.959 846.348C760.38 846.17 759.757 846.282 759.267 846.66C758.333 847.394 757.376 848.151 756.397 848.907C754.973 849.998 753.526 851.133 752.035 852.334C742.6 860.101 733.365 868.49 724.531 877.413Z" fill="#FFEFE6"/>
<path d="M697.517 723.247C705.995 728.9 714.762 734.73 721.928 741.45C722.284 741.784 722.729 741.94 723.174 741.94C723.508 741.94 723.842 741.851 724.131 741.65C724.821 741.205 725.154 740.36 724.91 739.559C719.524 722.468 714.94 706.046 710.935 689.379C710.779 688.689 710.223 688.155 709.533 688.021C708.843 687.865 708.131 688.155 707.708 688.733C702.034 696.5 694.312 703.42 686.835 710.14L684.899 711.876C684.499 712.254 684.276 712.766 684.298 713.323C684.321 713.879 684.61 714.368 685.055 714.702C689.083 717.617 693.378 720.466 697.517 723.247Z" fill="#FFEFE6"/>
<path d="M705.993 796.882C706.082 797.416 706.394 797.883 706.861 798.173C716.897 804.203 726.377 809.388 735.812 813.994C738.015 815.062 740.307 816.064 742.599 817.043C745.136 818.133 747.762 819.268 750.187 820.514C750.454 820.648 750.721 820.715 751.011 820.715C751.433 820.715 751.856 820.559 752.212 820.27C752.769 819.78 752.969 819.001 752.724 818.311C749.03 807.786 745.114 797.171 741.308 786.913L738.994 780.66C737.481 776.521 735.99 772.426 734.499 768.287C734.276 767.686 733.765 767.241 733.142 767.13C732.519 766.997 731.873 767.219 731.451 767.686L729.87 769.422C729.025 770.357 728.157 771.314 727.245 772.315L706.461 795.391C706.082 795.814 705.904 796.348 705.993 796.882Z" fill="#FFEFE6"/>
<path d="M564.801 713.298C565.113 713.298 565.447 713.209 565.714 713.054C570.431 710.272 575.327 707.913 580.512 705.421L581.936 704.731C584.184 703.641 586.453 702.572 588.723 701.504C592.373 699.791 596.022 698.077 599.582 696.275L601.541 695.318C602.809 694.717 604.078 694.094 605.346 693.449C606.214 693.137 608.15 692.358 608.061 690.534C607.972 688.865 606.236 688.153 604.968 687.797C603.187 685.527 599.315 683.591 595.577 681.722C593.73 680.809 591.994 679.941 590.993 679.229C587.165 676.626 583.516 673.933 580.089 671.196C577.797 669.393 575.572 667.636 573.413 665.766C572.924 665.344 572.211 665.21 571.588 665.433C570.965 665.655 570.52 666.211 570.431 666.857C568.273 680.987 565.847 695.474 562.999 711.117C562.865 711.807 563.155 712.519 563.733 712.942C564.067 713.187 564.445 713.298 564.801 713.298Z" fill="#FFEFE6"/>
<path d="M177.869 1238.15C180.873 1245.16 184.857 1250.97 189.374 1254.95C194.092 1259.14 198.564 1261.23 202.792 1261.23C205.663 1261.23 208.4 1260.25 211.004 1258.31C216.789 1254.04 220.884 1246.34 221.462 1238.69C221.996 1231.21 218.77 1224.6 212.339 1220.02C204.061 1214.14 191.844 1212.81 182.654 1216.77C176.579 1219.37 174.442 1225.36 176.289 1234.57C176.312 1234.72 176.378 1234.86 176.445 1234.99L176.734 1235.59C177.135 1236.53 177.558 1237.35 177.869 1238.15Z" fill="#5EAB47"/>
<path d="M103.922 1351.06C107.771 1355.47 111.821 1357.07 115.271 1357.07C117.029 1357.07 118.631 1356.65 119.966 1355.98C124.995 1353.42 127.176 1347.15 125.574 1339.98C122.725 1327.23 116.428 1318.97 108.751 1317.91C103.966 1317.24 99.4933 1319.62 97.0678 1324.07C93.9746 1329.79 94.1526 1339.89 103.922 1351.06Z" fill="#5EAB47"/>
<path opacity="0.1" d="M1238.35 1395.92C1233.01 1351.68 1216.07 1307.09 1201.34 1265.32C1186.54 1223.29 1170.68 1181.67 1155.19 1139.9C1089.83 963.507 1024.48 787.065 959.297 610.578C927.387 524.216 894.564 438.053 864.434 351.022C849.347 307.407 835.083 263.48 822.799 218.952C817.325 198.947 812.162 178.853 807.556 158.647C803.083 139.154 801.392 117.235 793.047 98.943C787.573 86.9933 779.206 79.0045 769.17 73.6416C778.85 244.498 806.755 414.443 847.967 580.292C873.068 681.276 902.575 781.591 923.626 883.531C933.707 932.287 941.273 981.799 943.787 1031.56C945.479 1065.07 942.43 1099.81 929.657 1131.11C906.336 1188.24 859.338 1215.85 804.841 1227.07C804.618 1227.51 804.352 1227.98 804.129 1228.43C801.147 1234.28 803.595 1240.29 809.603 1242.62C830.142 1250.5 847.611 1261.89 866.971 1271.75C867.26 1271.91 867.527 1272.04 867.816 1272.15C863.143 1275.74 859.027 1280.36 854.821 1284.77C846.61 1293.4 833.703 1304.58 829.052 1315.72C825.492 1324.18 829.297 1329.77 836.707 1333.95C849.258 1341.07 863.277 1346.94 876.517 1352.64C878.809 1353.62 887.288 1356.49 896.255 1358.29C895.21 1359.74 894.186 1361.21 893.029 1362.57C886.82 1370.11 879.521 1376.67 872.712 1383.68C864.723 1391.92 848.545 1405.6 851.327 1418.73C854.999 1435.89 882.792 1435.18 895.521 1437.16C911.587 1439.67 932.639 1445.84 950.24 1444.06C955.069 1449.42 960.544 1454.25 966.93 1458.25C996.259 1476.59 1036.65 1477.75 1070.07 1477.75C1111.02 1477.75 1154.37 1472.52 1193.02 1458.59C1221.9 1448.17 1242.26 1428.55 1238.35 1395.92Z" fill="#592639"/>
<path opacity="0.1" d="M364.459 1190.95C324.004 1195.89 285.128 1210.87 253.44 1236.84C224.846 1260.27 203.082 1291.02 181.697 1320.86C152.346 1361.79 123.017 1408.27 82.6504 1440.09C91.4625 1447.48 100.542 1454.47 109.665 1461.08C134.01 1478.75 161.336 1499.95 193.269 1495.53C220.484 1491.74 247.054 1472.85 270.686 1458.23C281.679 1463.75 294.964 1464.44 307.225 1465.84C328.788 1468.38 350.373 1468.89 372.003 1467.84C377.121 1467.6 381.394 1463.13 379.947 1457.76C376.209 1443.97 373.093 1430.08 371.024 1415.93C370.512 1412.3 370.223 1408.61 369.934 1404.94C388.581 1412.84 412.436 1412.48 430.928 1410.57C434.333 1410.21 438.628 1408.38 439.318 1404.42C443.457 1380.44 437.026 1355.71 431.329 1331.66C440.875 1332.17 450.533 1330.9 460.102 1328.72C469.982 1326.43 489.609 1323.87 494.949 1313.41C500.179 1303.24 489.386 1290.22 484.535 1282.19C478.193 1271.82 472.563 1260.03 465.732 1249.28C475.011 1247.68 483.868 1242.96 492.702 1239.26C503.383 1234.77 519.984 1230.7 520.718 1216.54C520.985 1211.07 518.782 1205.88 515.711 1201.06C465.665 1191.49 414.973 1184.79 364.459 1190.95Z" fill="#592639"/>
<path opacity="0.15" d="M75.4169 1433.84C77.0637 1425.05 79.912 1416.42 84.1846 1408.05C95.6447 1385.71 115.183 1369.04 135.01 1354.33C157.485 1337.64 181.874 1323.18 201.902 1303.42C211.448 1293.99 219.993 1283.33 225.623 1271.06C235.036 1250.55 232.499 1226.98 241.311 1206.2C247.119 1192.51 256.821 1179.94 268.949 1171.33C283.859 1160.74 301.906 1154.82 315.302 1142.04C339.891 1118.57 344.542 1082.94 357.003 1052.88C367.685 1027.15 386.666 1005.21 414.46 997.69C426.365 994.463 438.671 994.619 450.888 994.975C459.01 995.22 470.893 997.333 477.368 991.125C488.784 980.177 483.533 952.784 477.702 940.567C470.715 925.924 459.233 913.797 449.352 901.113C428.702 874.632 419.333 851.378 423.94 817.687C429.125 779.635 443.856 743.585 456.295 707.514C469.269 669.929 475.833 632.099 481.997 592.912C488.384 552.256 494.881 510.799 511.037 472.68C523.899 442.305 544.639 418.584 565.245 393.394C576.46 379.686 586.429 365.088 592.371 348.265C598.112 331.976 599.358 314.797 602.162 297.885C607.102 268.133 614.802 238.826 626.395 210.943C646.89 161.631 679.958 119.284 724.041 88.8869C734.9 81.41 746.204 74.801 757.842 68.8595C737.37 62.0946 712.803 62.6954 692.197 62.1613C679.201 61.872 666.25 61.7163 653.254 61.694C640.481 41.3328 624.081 22.4402 609.773 3.34734C606.546 -0.969696 600.115 0.343169 596.599 3.12476C583.203 13.6058 570.252 24.5764 558.057 36.3926C551.671 42.6011 544.327 48.921 539.142 56.3534C520.227 43.3133 502.915 28.1146 485.58 13.1608C481.953 10.0454 475.099 9.37776 472.584 14.6072C462.237 36.2368 448.596 62.0723 445.48 87.1957C433.442 85.2597 421.091 84.3919 409.119 83.8578C398.06 83.346 379.434 79.4962 370.066 87.5517C361.276 95.0954 361.432 111.874 360.208 122.489C359.184 131.1 356.803 143.184 358.539 153.153C314.812 134.728 261.673 138.199 235.481 178.365C212.939 212.946 208.667 261.657 223.687 299.865C225.245 303.849 227.092 307.587 229.05 311.214C211.381 319.626 192.333 342.546 185.902 351.603C165.029 381.221 157.441 419.763 170.525 454.077C183.921 489.17 215.276 507.817 250.724 515.294C267.191 518.788 289.778 523.862 306.868 518.921C271.998 587.66 264.521 672.911 258.157 746.723C252.705 810.077 245.918 873.052 234.235 935.627C228.894 964.221 224.043 993.751 214.808 1021.46C205.596 1049.07 187.549 1066.63 163.938 1082.65C142.153 1097.38 120.323 1111.6 105.302 1133.74C91.6837 1153.88 84.8076 1177.63 84.4071 1201.75C34.2271 1210.54 1.49329 1260.18 5.07598 1310.83C8.70318 1361.63 38.7667 1401.49 75.4169 1433.84Z" fill="#FFFCFC"/>
<path opacity="0.3" d="M939.895 694.606C966.553 776.251 991.12 861.746 1017.2 944.816C1043.08 1027.24 1074.26 1108.31 1092.04 1193.05C1104.72 1253.51 1118.65 1346.9 1060.66 1389.34C1044.84 1400.91 1025.12 1407.54 1005.36 1406.92C938.137 1404.78 892.986 1264.05 866.527 1214.63C865.659 1213.03 864.836 1211.4 863.968 1209.8C881.904 1269.06 903.044 1327.5 923.049 1385.87C928.924 1403 936.935 1417.18 947.794 1428.12C948.239 1432.35 949.997 1436.62 953.358 1440.45C970.648 1460.12 996.773 1462.99 1021.76 1457.61C1022.61 1458.21 1023.5 1458.77 1024.5 1459.26C1063.26 1478.48 1123.84 1472.81 1160.6 1449.64C1162.07 1448.71 1163.49 1447.71 1164.87 1446.68C1175.2 1448.37 1184.94 1444.79 1193.18 1438.36C1211.18 1437.69 1224.46 1422.23 1228.09 1404.45C1230.8 1391.18 1228.13 1377.97 1221.73 1366.77C1215.56 1339 1208.37 1311.45 1197.89 1284.95C1193.64 1274.18 1185.23 1250.08 1172.46 1239.87C1170.43 1231.21 1168.12 1222.57 1165.63 1213.99C1155.01 1177.27 1143.15 1141.64 1128.82 1106.19C1117.49 1078.15 1106.59 1043.8 1088.43 1018.25C1038.63 833.374 969.29 653.95 903.734 474.259C864.458 366.622 826.873 258.318 793.694 148.634C790.779 139.021 776.604 143.005 778.718 152.773C818.639 337.293 881.392 515.449 939.895 694.606Z" fill="#592642"/>
<path opacity="0.3" d="M184.366 1476.66C243.091 1473.52 291.935 1434.58 334.238 1397.37C379.411 1357.63 423.338 1316.42 440.25 1256.76C448.15 1228.85 451.532 1199.94 458.141 1171.75C462.725 1152.26 469.023 1112.16 494.324 1112.11C512.238 1112.07 530.085 1114.78 548.02 1114.69C566.468 1114.61 583.981 1114.2 602.317 1112.07C607.012 1111.51 611.752 1111.13 616.492 1110.89C619.162 1111.29 621.833 1111.67 624.525 1112C648.848 1114.94 674.505 1115.54 699.183 1114.29C707.395 1114.89 715.561 1115.41 723.661 1115.7C726.332 1115.78 728.557 1114.85 730.315 1113.34C752.078 1113.74 773.686 1116.05 795.56 1115.45C807.154 1115.14 809.98 1098.05 798.342 1094.93C736.613 1078.42 672.969 1071.48 609.638 1064.51C562.284 1059.31 492.099 1039.01 450.041 1070.34C428.189 1086.63 417.308 1114.61 409.697 1139.88C392.095 1198.34 384.574 1266.66 346.855 1316.59C293.226 1387.6 168.366 1493.7 82.4035 1408.92C75.5052 1402.11 65.7807 1410.68 69.6082 1418.8C88.6343 1459.28 141.863 1478.93 184.366 1476.66Z" fill="#592642"/>
<path opacity="0.3" d="M545.663 944.259C555.21 943.102 560.484 930.685 550.871 925.032C540.234 918.779 525.057 912.304 520.318 899.531C517.469 891.876 520.829 881.751 522.432 874.096C524.59 863.837 526.593 853.557 528.551 843.276C536.673 800.951 545.152 758.693 553.875 716.48C562.82 673.22 585.54 523.904 660.421 578.312C668.054 583.853 680.805 574.507 677.088 565.517C658.952 521.612 604.967 516.45 571.632 546.179C533.536 580.182 522.498 639.797 512.396 687.262C500.312 744.073 488.407 801.218 478.994 858.519C475.1 882.196 470.516 910.279 488.652 929.661C503.072 945.015 525.925 946.662 545.663 944.259Z" fill="#592642"/>
<path opacity="0.3" d="M210.781 498.202C227.314 504.567 242.023 507.593 258.468 504.656C286.618 526.441 364.058 476.484 361.365 438.632C359.14 407.233 322.267 411.617 307.558 430.532C294.696 447.088 278.941 465.446 259.826 475.571C256.377 475.505 252.571 477.018 250.457 479.733C239.776 483.56 228.116 484.651 215.409 481.491C204.372 478.754 200.544 494.264 210.781 498.202Z" fill="#592642"/>
<path opacity="0.3" d="M275.469 350.465C275.936 351.823 276.738 353.113 277.984 354.204C310.517 383.221 392.541 377.947 392.496 321.87C392.474 300.129 368.686 297.392 354.021 308.185C342.25 316.841 334.15 325.186 319.285 328.88C305.488 332.307 284.214 338.404 272.087 329.102C264.543 323.317 255.464 335.667 262.051 342.098C266.101 346.059 270.64 348.707 275.469 350.465Z" fill="#592642"/>
<path opacity="0.5" d="M20.1186 1327.54C21.3202 1338.65 24.7249 1348.84 30.7554 1357.14C35.9181 1364.24 46.0653 1361.57 46.8887 1352.75C49.0694 1329.79 47.178 1309.32 57.0359 1288.2C70.3431 1268.82 91.6389 1255.58 116.451 1256.16C126.264 1256.4 133.986 1246.83 132.451 1237.42C132.762 1236.44 132.896 1235.33 132.762 1234.1C124.662 1165.23 204.193 1147.21 250.279 1120.5C302.595 1090.19 326.072 1034.9 327.34 976.015C328.364 928.305 318.372 881.33 311.608 834.02C315.569 830.393 319.507 826.744 323.201 822.783C329.877 815.595 323.335 803.579 313.521 806.182C311.719 806.65 309.983 807.295 308.314 807.985C306.957 795.189 306 782.372 305.777 769.487C305.599 759.696 305.666 749.905 305.933 740.114C306.067 739.936 306.2 739.735 306.334 739.557C314.367 728.32 324.069 718.484 330.945 706.423C335.819 697.856 326.005 687.731 317.349 692.827C314.211 694.674 311.229 696.765 308.403 699.057C309.471 687.642 310.829 676.248 312.587 664.9C315.301 647.253 319.062 629.562 322.222 611.804C325.426 608.133 328.675 604.461 331.991 600.901C339.846 592.467 348.369 585.168 354.711 575.466C359.874 567.544 350.06 560.312 342.85 563.605C337.376 566.119 332.236 569.546 327.429 573.596C327.718 570.058 327.986 566.542 328.097 563.004C328.097 562.871 328.074 562.782 328.074 562.648C328.809 560.245 329.543 557.864 330.322 555.483C340.269 524.93 354.867 497.136 369.487 468.675C373.915 460.063 362.143 449.359 355.29 457.704C345.276 469.921 336.508 483.295 328.742 497.381C326.472 497.18 324.158 497.937 322.356 500.185C289.399 541.174 277.249 592.066 270.106 643.248C261.606 704.087 253.394 763.835 250.591 825.364C248.387 874.231 249.589 923.254 249.011 972.166C244.805 971.498 240.198 973.345 237.995 977.172C228.983 992.972 234.301 1014.13 229.94 1031.71C225.489 1049.63 216.944 1066.38 205.662 1080.94C199.298 1084.25 192.822 1087.41 186.369 1090.59C174.219 1095.82 162.047 1101.01 150.809 1108.04C113.691 1131.21 94.5096 1170.59 95.7558 1211.92C64.5352 1214.05 37.8318 1245.72 26.06 1280.88C19.8515 1295.01 17.3815 1310.85 20.0741 1327.34C20.0964 1327.41 20.1186 1327.48 20.1186 1327.54Z" fill="#FFF7F7"/>
<path opacity="0.5" d="M200.879 447.713C206.153 430.133 204.929 411.174 210.893 393.505C217.635 373.478 231.165 361.906 243.783 346.085C255.198 331.754 241.379 311.971 224 320.449C184.635 339.653 155.239 415.202 184.924 451.919C189.641 457.793 198.988 453.988 200.879 447.713Z" fill="#FFF7F7"/>
<path opacity="0.5" d="M234.815 270.29C235.816 284.777 239.265 299.152 245.073 312.659C248.923 321.627 261.407 316.064 261.918 308.097C263.877 278.345 263.587 245.567 279.164 218.953C294.786 192.272 318.262 186.108 345.945 178.386C359.252 174.67 356.982 158.136 345.945 153.552C330.501 147.143 314.168 149.279 299.17 156.111C296.811 154.086 293.673 153.04 290.402 154.086C251.193 166.503 213.14 223.07 228.762 264.215C229.897 267.152 232.189 269.222 234.815 270.29Z" fill="#FFF7F7"/>
<path opacity="0.5" d="M415.949 246.28C418.219 253.001 427.32 256.561 431.793 248.639C442.096 230.437 450.24 211.01 458.185 191.672C466.018 172.579 473.072 151.061 488.248 136.33C491.608 133.058 495.414 130.41 499.508 128.207C508.098 125.092 517.6 123.089 527.947 121.109C557.632 115.412 587.273 110.338 616.78 103.685C648.49 96.5417 680.957 95.0952 712.867 89.3985C727.577 86.7726 723.46 64.4754 709.441 64.1194C672.612 63.1848 635.139 68.4587 598.355 70.5949C588.386 71.1735 578.238 72.0413 568.024 73.1762C577.17 66.4114 585.804 59.6911 594.238 51.9471C602.716 44.1809 612.396 35.5246 614.355 23.7529C615.69 15.7419 609.504 7.59732 600.714 10.1119C588.986 13.472 581.866 22.9963 574.811 32.4759C567.691 42.0669 561.704 51.8136 555.83 62.1611C553.404 66.4336 555.763 71.9301 559.613 74.1331C536.025 77.1373 512.348 81.6991 490.229 88.1969C426.074 107.023 401.729 183.327 414.881 243.61C415.103 244.678 415.459 245.546 415.949 246.28Z" fill="#FFF7F7"/>
<path opacity="0.5" d="M396.969 101.147C396.769 88.7079 379.523 86.7497 375.696 98.2767C367.573 122.799 366.171 156.957 372.981 181.88C376.719 195.588 397.214 192.606 397.503 178.565C397.77 165.68 395.678 152.774 395.723 139.823C395.79 126.916 397.192 114.009 396.969 101.147Z" fill="#FFF7F7"/>
<path opacity="0.5" d="M473.719 89.776C489.207 72.3966 490.386 51.9019 487.338 29.9161C486.181 21.5491 472.873 22.2834 471.116 29.9161C466.999 47.9186 459.967 64.7194 457.63 83.1225C456.585 91.2447 468.623 95.495 473.719 89.776Z" fill="#FFF7F7"/>
<path opacity="0.5" d="M705.369 635.079C727.911 704.597 750.742 774.426 776.8 842.698C786.302 867.576 800.055 904.427 779.337 927.725C761.157 948.198 723.55 940.565 699.205 942.702C688.145 943.681 681.603 959.213 693.086 965.266C723.082 981.065 760.845 986.339 791.265 968.381C822.908 949.711 832.633 911.392 827.47 877.056C821.284 835.91 799.075 795.611 781.407 758.404C760.912 715.256 740.885 671.863 720.034 628.893C716.073 620.726 702.565 626.445 705.369 635.079Z" fill="#FFF7F7"/>
<path opacity="0.5" d="M817.704 1099.47C844.118 1094.76 853.776 1124.08 857.136 1144.45C861.164 1168.72 863.523 1193.47 866.505 1217.9C867.706 1227.69 883.283 1232.23 885.531 1220.48C892.296 1185.01 891.94 1144.4 877.052 1110.78C866.149 1086.14 836.552 1066.43 811.028 1083.65C802.684 1089.28 808.024 1101.21 817.704 1099.47Z" fill="#FFF7F7"/>
<path d="M109.687 1461.06C134.032 1478.73 161.358 1499.93 193.291 1495.5C220.506 1491.72 247.076 1472.83 270.708 1458.21C281.701 1463.73 294.986 1464.42 307.247 1465.82C328.81 1468.36 350.396 1468.87 372.025 1467.82C377.143 1467.58 381.416 1463.1 379.969 1457.74C376.231 1443.95 373.115 1430.06 371.046 1415.91C370.534 1412.28 370.245 1408.59 369.956 1404.91C388.603 1412.81 412.458 1412.46 430.95 1410.54C434.355 1410.19 438.65 1408.36 439.34 1404.4C443.479 1380.41 437.048 1355.69 431.351 1331.64C440.898 1332.15 450.555 1330.88 460.124 1328.7C470.004 1326.41 489.631 1323.85 494.972 1313.39C500.201 1303.22 489.409 1290.2 484.557 1282.17C478.215 1271.8 472.585 1260 465.754 1249.26C475.033 1247.65 483.89 1242.94 492.724 1239.24C503.405 1234.75 520.006 1230.67 520.74 1216.52C521.274 1205.53 511.884 1195.69 505.43 1187.75C500.312 1181.47 495.773 1174.29 491.1 1167.39C495.483 1166.16 499.778 1164.23 503.227 1162.85C513.397 1158.87 525.725 1155.37 534.715 1149.1C541.102 1144.6 541.858 1137.64 538.632 1130.92C535.917 1125.22 531.8 1117.92 526.904 1111.91C534.671 1111.91 542.326 1112.53 548.868 1112.65C590.236 1113.34 631.537 1116.43 672.838 1118.68C696.559 1119.99 720.303 1121.04 744.069 1121.04C763.985 1120.99 785.949 1116.25 805.843 1116.65C800.88 1122.5 796.563 1129.14 792.202 1134.77C786.394 1142.29 779.317 1150.52 786.683 1159.67C794.694 1169.61 812.385 1175.6 823.489 1181.25C827.072 1183.05 830.81 1185.28 834.705 1187.35C821.286 1197.94 810.605 1215.92 804.107 1228.47C801.125 1234.32 803.573 1240.33 809.581 1242.67C830.12 1250.55 847.589 1261.94 866.949 1271.8C867.238 1271.95 867.505 1272.09 867.794 1272.2C863.121 1275.78 859.005 1280.41 854.799 1284.82C846.588 1293.45 833.681 1304.62 829.03 1315.77C825.47 1324.23 829.275 1329.81 836.685 1333.99C849.236 1341.12 863.255 1346.99 876.495 1352.69C878.787 1353.67 887.266 1356.54 896.233 1358.34C895.188 1359.79 894.164 1361.25 893.007 1362.61C886.798 1370.15 879.499 1376.72 872.69 1383.73C864.701 1391.96 848.523 1405.65 851.305 1418.78C854.977 1435.93 882.77 1435.22 895.499 1437.2C911.566 1439.72 932.617 1445.88 950.219 1444.1C955.047 1449.46 960.522 1454.29 966.908 1458.3C996.237 1476.63 1036.63 1477.79 1070.05 1477.79C1110.99 1477.79 1154.34 1472.56 1193 1458.63C1221.88 1448.22 1242.24 1428.59 1238.33 1395.97C1232.98 1351.73 1216.05 1307.14 1201.32 1265.37C1186.52 1223.33 1170.65 1181.72 1155.17 1139.95C1089.81 963.553 1024.45 787.11 959.276 610.624C927.365 524.261 894.542 438.098 864.412 351.068C849.325 307.452 835.061 263.525 822.777 218.997C817.303 198.992 812.14 178.898 807.534 158.693C803.061 139.199 801.37 117.28 793.025 98.9884C775.468 60.6024 727.891 63.1392 692.22 62.2268C679.225 61.9375 666.273 61.7818 653.278 61.7595C640.505 41.3982 624.104 22.5056 609.796 3.41273C606.569 -0.904305 600.138 0.408646 596.622 3.19024C583.226 13.6713 570.275 24.6419 558.081 36.4581C551.694 42.6666 544.35 48.9864 539.166 56.4188C520.251 43.3787 502.938 28.1801 485.603 13.2262C481.976 10.1109 475.122 9.44324 472.608 14.6726C462.26 36.3023 448.619 62.1378 445.504 87.2612C433.465 85.3252 421.115 84.4573 409.143 83.9232C398.083 83.4114 379.458 79.5617 370.089 87.6172C361.299 95.1609 361.455 111.939 360.231 122.554C359.207 131.166 356.827 143.249 358.562 153.218C314.836 134.793 261.696 138.264 235.505 178.431C212.962 213.012 208.69 261.723 223.711 299.931C225.268 303.914 227.115 307.653 229.073 311.28C211.405 319.691 192.356 342.612 185.925 351.668C165.052 381.287 157.464 419.829 170.549 454.142C183.945 489.235 215.299 507.883 250.748 515.36C267.215 518.853 289.801 523.927 306.891 518.987C272.021 587.726 264.544 672.976 258.18 746.789C252.728 810.142 245.941 873.117 234.258 935.692C228.918 964.287 224.067 993.816 214.832 1021.52C205.619 1049.14 187.572 1066.69 163.962 1082.72C142.176 1097.45 120.346 1111.67 105.326 1133.81C91.7071 1153.95 84.831 1177.69 84.4305 1201.81C34.2505 1210.6 1.51673 1260.25 5.09942 1310.9C9.7725 1376.88 59.2181 1424.47 109.687 1461.06ZM314.324 1450.8C306.202 1450.04 297.657 1448.15 289.178 1446.99C310.763 1433.71 331.993 1419.49 351.931 1403.73C352.688 1419.78 357.628 1437.8 361.655 1452.07C345.856 1452.49 330.123 1452.2 314.324 1450.8ZM423.451 1394.1C404.737 1395.23 386.623 1391.27 368.287 1390.83C368.242 1390.61 368.22 1390.43 368.175 1390.2C385.043 1375.52 400.731 1359.47 414.55 1341.72C417.287 1358.9 424.43 1376.5 423.451 1394.1ZM467.334 1283.59C469.937 1288.31 477.57 1297.17 477.859 1302.31C481.019 1305.35 480.04 1307.29 474.922 1308.05C472.897 1308.74 470.827 1309.47 468.78 1310.16C462.683 1312.28 456.23 1313.68 449.954 1315.01C443.412 1316.39 436.847 1317.48 430.35 1318.8C440.875 1301.55 449.287 1283.24 456.118 1264.21C456.875 1265.52 457.632 1266.79 458.41 1268.06C461.437 1273.22 464.419 1278.41 467.334 1283.59ZM493.058 1199.7C497.019 1204.64 504.741 1210.74 500.068 1217.81C497.753 1221.33 486.093 1224.35 481.709 1226.45C476.168 1229.14 470.538 1231.45 465.487 1234.5C466.533 1230.7 467.512 1226.85 468.469 1223C471.918 1208.91 474.677 1194.69 477.147 1180.41C482.087 1187.26 488.162 1193.6 493.058 1199.7ZM512.796 1141.13C506.654 1143.89 500.468 1146.49 494.215 1149.01C490.299 1150.56 485.514 1152.17 481.62 1154.64C481.464 1154.48 481.353 1154.3 481.219 1154.17C482.71 1142.02 484.023 1128.67 493.77 1120.46C497.976 1116.94 503.138 1114.8 508.679 1113.54C509.659 1116.43 511.105 1119.01 513.174 1122.28C515.578 1126.09 521.074 1131.67 523.032 1136.61C519.872 1138.5 515.8 1139.75 512.796 1141.13ZM812.229 1153.39C810.449 1152.46 808.713 1151.48 806.933 1150.5C805.91 1149.63 805.086 1148.96 804.352 1148.47C806.866 1144.51 811.673 1140.02 813.72 1137.32C817.459 1132.36 821.442 1127.56 824.491 1122.3C832.947 1129.89 836.44 1143.71 839.177 1153.95C840.557 1159.13 842.048 1164.32 843.494 1169.52C832.947 1164.38 822.532 1159.02 812.229 1153.39ZM856.98 1243.36C846.966 1237.82 836.574 1232.94 826.026 1228.58C830.677 1220.86 835.928 1213.63 842.182 1206.95C845.275 1203.66 848.613 1200.68 851.661 1197.56C854.465 1206.78 857.313 1216.03 860.362 1225.22C863.121 1233.5 865.992 1241.78 868.885 1250.01C864.879 1247.63 860.74 1245.45 856.98 1243.36ZM887.355 1335.82C875.383 1331.15 861.119 1325.74 849.436 1318.86C854.087 1312.01 865.792 1300.62 869.753 1296.3C873.447 1292.27 877.697 1288.47 881.102 1284.17C887.889 1302.57 894.898 1320.89 901.908 1339.22C896.322 1338.04 890.715 1337.15 887.355 1335.82ZM915.682 1420.42C905.046 1418.98 894.453 1417.38 883.883 1415.6C882.103 1415.31 873.068 1414.97 872.423 1414.5C871.399 1413.77 876.606 1408.05 879.143 1405.14C888.178 1394.86 904.4 1382.3 912.968 1368.15C919.688 1385.75 925.874 1405.14 935.176 1422.29C928.567 1421.65 921.935 1421.29 915.682 1420.42ZM570.765 49.5427C580.556 40.2856 590.77 31.5179 601.273 23.0841C610.486 35.9685 619.565 49.3647 629.445 61.8707C604.923 62.16 580.378 63.0056 555.877 64.363C560.996 59.6677 565.669 54.3048 570.765 49.5427ZM482.243 33.0089C490.655 40.9087 499.444 48.3856 508.524 55.6177C512.596 58.8889 517.046 62.9834 521.764 66.7663C500.179 69.0584 479.551 73.5534 462.038 84.7688C469.626 68.1015 475.122 49.743 482.243 33.0089ZM375.43 145.252C375.875 138.821 376.253 132.412 377.099 126.025C377.566 122.754 378.812 105.241 381.928 102.304C386.69 97.8757 412.258 101.903 418.734 102.371C425.877 102.905 432.953 103.862 440.03 104.841C439.852 105.086 439.629 105.286 439.451 105.531C420.915 129.875 413.148 160.228 408.653 190.202C399.329 178.408 387.135 168.35 373.383 160.562C375.341 156.178 375.007 151.572 375.43 145.252ZM30.8681 1274.78C40.3033 1246.76 65.1374 1223.82 95.3121 1222.37C100.898 1222.13 106.772 1217.88 106.461 1211.63C104.97 1184.34 112.625 1157.11 130.85 1136.21C146.56 1118.16 168.145 1106.86 187.216 1092.84C226.737 1063.78 238.13 1023.92 247.499 978.885C255.198 965.889 264.01 953.628 275.515 943.28C296.633 924.277 324.004 915.264 350.818 907.565C355.669 906.185 354.401 899.865 349.839 899.22C315.993 894.458 279.988 910.547 255.665 936.56C260.65 909.122 264.767 881.573 268.261 853.935C277.162 842.075 286.33 830.592 298.747 821.736C316.927 808.851 340.582 800.039 362.479 796.256C366.395 795.567 366.684 788.846 362.634 788.156C335.086 783.439 311.364 789.714 288.778 806.292C283.036 810.543 277.34 815.394 272.155 820.801C273.178 811.41 274.158 801.998 274.981 792.607C276.583 774.827 277.918 756.958 279.365 739.156C287.643 729.498 295.987 720.063 305.423 711.206C320.844 696.72 344.365 688.998 364.259 681.877C367.018 680.898 368.064 675.847 364.37 675.268C336.354 670.728 303.22 684.236 282.258 706.733C285.306 675.046 289.289 643.469 296.188 612.337C296.254 612.048 296.344 611.759 296.41 611.425C309.361 597.784 322.579 584.61 339.447 575.42C361.144 563.67 385.132 560.399 408.942 555.214C413.193 554.302 412.748 548.472 409.098 547.115C376.654 535.565 334.552 549.295 306.469 574.441C320.555 530.492 341.672 489.19 369.355 451.85C372.337 447.889 366.351 443.839 362.924 446.688C346.19 460.841 332.371 477.063 320.822 494.82C304.31 507.749 267.993 499.493 250.748 495.332C224.69 488.99 201.146 476.106 190.109 450.448C179.806 426.504 182.12 398.978 193.692 375.946C202.259 358.901 219.527 334.756 239.599 326.857C263.521 356.252 301.907 370.739 339.425 378.639C343.23 379.44 345.455 374.678 342.184 372.386C311.453 350.823 268.372 339.763 248.456 305.761C231.477 276.699 231.41 239.492 242.937 208.472C250.369 188.467 262.43 172.556 283.682 166.659C302.263 161.474 323.269 162.676 341.606 168.261C384.509 181.368 402.712 215.326 414.506 255.581C415.997 260.766 424.786 261.901 425.944 255.804C428.592 242.118 424.03 231.37 423.741 218.397C423.095 189.468 437.715 146.142 453.604 122.487C476.279 88.7076 515.667 88.04 552.54 85.9482C591.949 83.7229 631.47 82.8551 670.947 83.4114C703.97 83.8565 763.629 75.2446 775.89 115.455C787.395 153.085 793.047 192.94 803.729 230.969C814.365 268.755 826.382 306.117 839.111 343.212C865.903 421.008 895.432 497.891 924.138 574.953C982.641 732.102 1041.03 889.228 1099.36 1046.44C1127.82 1123.08 1157.39 1199.45 1184.27 1276.67C1197.22 1313.83 1210.33 1352.04 1217.34 1390.87C1221.99 1416.46 1211.58 1430.44 1188.1 1439.21C1170.65 1445.75 1151.78 1449.51 1133.45 1452.6C1092.26 1459.54 1046.31 1461.35 1005.34 1451.91C957.985 1440.99 946.436 1400.42 930.881 1359.65C910.809 1307.14 893.608 1253.39 875.294 1200.17C875.36 1199.65 875.36 1199.12 875.227 1198.54C869.53 1172.42 856.601 1101.1 822.977 1095.78C796.808 1091.64 770.683 1100.5 744.625 1101.63C720.971 1102.68 696.893 1101.1 673.238 1099.92C637.99 1098.18 602.764 1096.62 567.516 1094.58C539.967 1092.97 506.187 1083.76 482.555 1102.52C462.705 1118.23 460.814 1144.13 457.253 1167.17C453.982 1188.17 450.11 1209.29 444.636 1229.94C443.39 1230.85 442.611 1232.41 443.011 1234.37C443.056 1234.66 443.167 1234.92 443.19 1235.21C437.092 1256.8 429.104 1277.78 418.044 1297.46C393.21 1341.54 355.113 1376.39 313.923 1405.05C294.43 1418.67 274.18 1431.06 253.641 1443.01C231.677 1455.74 203.639 1477.99 177.135 1473.74C150.054 1469.38 122.928 1444.86 101.943 1428.12C79.6239 1410.37 58.6396 1389.94 44.4646 1364.97C29.1992 1338.22 20.7431 1304.84 30.8681 1274.78Z" fill="#3D2938"/>
<path d="M556.233 947.733C604.388 953.653 653.967 953.942 702.412 952.228C732.631 951.182 778.472 955.321 788.53 918.226C792.602 903.272 789.553 887.05 786.616 872.208C781.965 848.864 774.555 826.233 766.589 803.847C759.557 784.109 752.503 764.549 745.983 744.877C746.161 743.386 745.649 741.873 744.67 740.894C737.771 719.798 731.496 698.502 726.556 676.561C718.456 640.423 708.331 602.348 677.956 578.36C651.542 557.487 613.067 550.477 586.186 574.51C550.759 606.198 549.09 663.499 544.484 707.248C538.097 767.553 521.185 827.324 510.125 887.028C507.433 901.581 505.475 917.158 515.199 929.597C524.924 942.081 541.279 945.886 556.233 947.733ZM760.402 848.085C763.785 859.746 766.678 871.54 768.747 883.467C771.217 897.776 772.619 913.375 763.34 922.654C762.694 921.609 761.737 920.652 760.447 919.962C748.72 913.753 737.082 907.367 726.845 898.866C725.621 897.82 716.831 890.922 714.361 887.651C716.765 888.23 725.176 879.417 725.911 878.572C734.589 869.826 743.691 861.504 753.192 853.715C755.685 851.713 758.11 849.91 760.402 848.085ZM728.581 773.539C730.072 771.87 731.452 770.379 732.787 768.888C734.278 773.027 735.768 777.121 737.282 781.26C741.888 793.744 746.561 806.272 750.989 818.89C746.339 816.531 741.265 814.64 736.592 812.348C726.712 807.519 717.143 802.223 707.775 796.593C714.717 788.938 721.638 781.238 728.581 773.539ZM723.174 740.115C712.314 729.946 698.25 722.001 686.123 713.234C694.111 706.046 702.901 698.436 709.177 689.824C713.271 706.847 717.944 723.537 723.174 740.115ZM576.528 636.484C578.642 627.85 581.09 619.349 584.739 611.183C600.85 574.822 638.413 571.372 667.475 595.583C689.639 614.053 698.206 642.915 704.637 670.353C688.637 677.473 676.398 694.875 664.471 706.892C661.066 710.296 660.109 717.195 664.226 720.622C678.846 732.861 697.605 749.84 717.454 754.846C705.549 766.129 695.313 780.949 685.655 791.719C681.449 796.481 681.694 803.736 687.391 807.296C700.787 815.686 714.495 823.229 728.937 829.66C733.788 831.796 738.617 834.2 743.446 835.802C738.728 839.652 734.344 844.035 730.205 847.707C719.635 857.031 699.786 870.761 695.535 884.714C692.242 895.751 703.146 904.051 710.534 910.438C720.258 918.894 730.828 925.814 742.355 931.088C727.179 933.403 710.556 932.601 695.691 933.046C656.794 934.204 617.851 933.269 579.065 930.287C565.936 929.263 546.687 930.042 535.761 921.319C546.865 918.093 557.502 910.86 567.271 905.787C576.995 900.669 598.202 894.46 600.405 881.576C602.475 869.671 586.653 857.632 579.643 850.622C571.187 842.166 556.923 833.31 547.599 822.962C555.076 821.249 562.375 817.51 569.474 814.751C586.63 808.031 603.654 800.932 620.744 794.034C625.217 792.209 626.708 785.221 624.26 781.394C615.292 767.352 602.185 759.408 589.523 748.994C582.091 742.852 575.504 733.751 567.849 726.852C579.421 723.47 590.28 717.529 601.317 712.522C610.931 708.138 625.996 703.843 626.396 690.936C626.752 678.497 612.822 673.668 604.144 667.972C594.174 661.363 585.518 650.837 575.437 644.161C575.838 641.602 576.194 639.021 576.528 636.484ZM572.233 667.17C574.414 669.062 576.661 670.842 578.976 672.645C582.536 675.471 586.208 678.163 589.968 680.745C593.24 682.992 602.007 686.197 603.876 689.379C606.792 690.113 607.036 690.914 604.633 691.782C602.675 692.761 600.716 693.696 598.803 694.653C592.995 697.59 587.009 700.283 581.156 703.109C575.504 705.823 570.008 708.405 564.778 711.498C567.493 696.744 569.985 681.991 572.233 667.17ZM557.947 747.748C569.874 760.632 589.056 770.868 601.095 782.262C588.678 787.424 576.283 792.543 563.933 797.839C558.281 800.242 552.027 802.378 546.264 805.16C550.225 786.067 554.164 766.93 557.947 747.748ZM537.14 850.088C537.786 846.884 538.453 843.657 539.099 840.431C548.534 849.176 559.594 856.72 568.561 865.799C571.655 868.892 574.659 872.074 577.596 875.278C584.161 876.435 583.693 878.082 576.216 880.241C570.586 885.715 559.482 889.52 552.584 893.459C544.417 898.11 535.204 902.382 528.039 908.635C524.167 891.59 534.07 865.91 537.14 850.088Z" fill="#3D2938"/>
<path d="M197.431 1278.5C223.912 1284.37 243.272 1251.51 238.443 1228.56C235.795 1216.08 227.295 1205.22 215.189 1200.73C203.239 1196.3 184.302 1195.36 172.686 1201.3C138.172 1218.97 168.926 1272.13 197.431 1278.5ZM183.368 1218.46C198.321 1212.01 220.953 1220.58 219.662 1238.58C219.15 1245.36 215.478 1252.77 209.937 1256.87C203.217 1261.88 196.363 1258.72 190.6 1253.6C185.726 1249.33 182.099 1243.36 179.562 1237.44C179.162 1236.46 178.628 1235.37 178.071 1234.24C176.67 1227.38 177.27 1221.09 183.368 1218.46Z" fill="#3D2938"/>
<path d="M107.685 1373.27C132.697 1381.1 148.43 1356.18 142.043 1333.88C136.48 1314.44 116.052 1287.13 92.909 1299.88C83.5851 1305.02 77.9996 1315.7 77.5991 1326.18C77.2653 1334.69 79.6686 1342.05 83.9856 1348.44C88.3026 1359.92 97.4931 1370.09 107.685 1373.27ZM123.796 1340.36C126.889 1354.05 114.761 1360.68 105.282 1349.86C81.8048 1323.03 115.318 1302.46 123.796 1340.36Z" fill="#3D2938"/>
<path d="M277.453 383.87C244.207 366.49 220.619 404.965 231.968 433.76C234.549 440.28 238.755 446.422 244.852 449.916C252.04 454.01 261.03 454.01 268.886 451.429C282.593 446.956 293.608 434.472 295.633 420.231C297.258 408.682 292.763 396.487 284.284 388.699C282.259 386.807 279.967 385.16 277.453 383.87Z" fill="#3D2938"/>
<path d="M351.02 222.45C313.346 190.295 269.264 231.418 272.045 272.675C273.18 289.431 282.415 306.032 297.413 313.62C321.068 325.636 352.289 310.905 363.46 286.85C370.069 272.653 370.291 255.54 364.372 241.187C361.435 233.977 356.962 227.524 351.02 222.45Z" fill="#3D2938"/>
</g>
<defs>
<filter id="filter0_d_403_13702" x="0.808594" y="0.558594" width="1242.02" height="1503.56" filterUnits="userSpaceOnUse" color-interpolation-filters="sRGB">
<feFlood flood-opacity="0" result="BackgroundImageFix"/>
<feColorMatrix in="SourceAlpha" type="matrix" values="0 0 0 0 0 0 0 0 0 0 0 0 0 0 0 0 0 0 127 0" result="hardAlpha"/>
<feOffset dy="4"/>
<feGaussianBlur stdDeviation="2"/>
<feComposite in2="hardAlpha" operator="out"/>
<feColorMatrix type="matrix" values="0 0 0 0 0 0 0 0 0 0 0 0 0 0 0 0 0 0 0.25 0"/>
<feBlend mode="normal" in2="BackgroundImageFix" result="effect1_dropShadow_403_13702"/>
<feBlend mode="normal" in="SourceGraphic" in2="effect1_dropShadow_403_13702" result="shape"/>
</filter>
</defs>
</svg>
