<svg width="1471" height="1773" viewBox="0 0 1471 1773" fill="none" xmlns="http://www.w3.org/2000/svg">
<g filter="url(#filter0_d_403_13834)">
<path d="M775.984 1743.05C776.139 1743.65 776.584 1744.14 777.163 1744.34C781.413 1745.79 785.953 1746.48 790.604 1746.48C802.375 1746.48 814.814 1741.98 824.784 1733.7C842.853 1718.64 854.358 1696.45 860.833 1680.52C868.666 1661.2 871.136 1642.35 873.339 1621.5C873.762 1617.68 874.541 1614.07 875.676 1610.78C875.876 1610.2 875.765 1609.53 875.387 1609.06C875.008 1608.57 874.407 1608.31 873.762 1608.4C829.768 1613.16 782.17 1613.92 732.324 1610.64C703.751 1608.8 678.628 1606.55 655.485 1603.79C654.617 1603.68 653.771 1604.24 653.526 1605.1C653.326 1605.79 653.081 1606.44 652.748 1607.04C637.571 1636.06 623.997 1669.93 638.372 1701.04C642.823 1710.63 649.721 1717.41 657.821 1720.15C664.92 1722.55 672.686 1721.73 680.274 1717.77C695.072 1709.98 706.176 1690.58 714.276 1676.38C715.055 1675.02 716.546 1675.36 716.969 1675.49C718.015 1675.82 718.994 1676.71 718.883 1677.98C716.88 1699.54 710.694 1714.34 699.412 1724.53C698.722 1725.16 698.61 1726.2 699.167 1726.96C711.361 1743.52 732.991 1749.23 750.637 1740.53C769.842 1731.05 779.143 1709.69 787.354 1690.84C788.423 1688.37 789.491 1685.95 790.537 1683.59C791.026 1682.5 792.384 1681.96 793.363 1682.1C794.142 1682.21 794.542 1682.65 794.653 1683.52C797.613 1704.66 790.804 1726.29 776.406 1741.36C775.983 1741.8 775.828 1742.45 775.984 1743.05Z" fill="#FFB88F"/>
<path d="M1099.65 1658.96C1099.94 1659.42 1100.45 1659.73 1101.01 1659.8C1110.77 1660.76 1119.56 1657.84 1127.13 1651.17C1143.15 1637.04 1150.96 1607.89 1151.59 1585.28C1152.12 1567.16 1149.01 1549.12 1142.6 1533.12C1140.39 1527.64 1137.3 1522.55 1134.32 1517.61C1133.5 1516.23 1132.67 1514.87 1131.85 1513.49C1131.58 1513.04 1131.16 1512.73 1130.65 1512.62C1130.13 1512.53 1129.62 1512.64 1129.2 1512.96C1079.06 1550.38 1019.09 1578.42 955.718 1594.07C955.161 1594.22 954.605 1594.36 954.026 1594.47L953.025 1594.69C952.113 1594.91 951.512 1595.8 951.645 1596.74C952.758 1603.84 952.914 1611.38 953.07 1618.7C953.381 1633.21 953.715 1648.21 961.214 1661.34C965.375 1668.61 971.851 1673.15 979.395 1674.15C987.406 1675.22 995.684 1672.13 1002.07 1665.68C1008.23 1659.49 1011.93 1650.59 1015.51 1642C1016.93 1638.59 1018.27 1635.35 1019.74 1632.39C1020.58 1630.65 1022.34 1630 1023.59 1630.16C1024.48 1630.27 1025.59 1630.76 1026.01 1632.59C1029.11 1646.05 1025.26 1661.09 1015.67 1672.84C1015.07 1673.58 1015.13 1674.67 1015.82 1675.31C1025.04 1683.97 1034.76 1688.31 1044.28 1688.31C1052.7 1688.31 1060.95 1684.9 1068.52 1678.09C1081.22 1666.63 1084.49 1651.55 1087.65 1636.97C1089.41 1628.85 1091.24 1620.46 1094.66 1612.76C1095.38 1611.18 1096.76 1610.29 1098.2 1610.38C1099.4 1610.44 1100.92 1611.22 1101.56 1613.2C1105.79 1626.24 1105.03 1641.93 1099.47 1657.4C1099.29 1657.91 1099.36 1658.49 1099.65 1658.96Z" fill="#FFB88F"/>
<path d="M1041.15 767.841L1036.25 767.218C1035.41 767.107 1034.58 767.596 1034.29 768.42C1034.01 769.243 1034.34 770.133 1035.1 770.578C1110.2 814.483 1177.18 890.142 1218.84 978.13C1225.42 992.105 1231.61 1006.21 1237.2 1020.1C1237.37 1020.54 1237.71 1020.9 1238.15 1021.08C1244.41 1023.79 1250.21 1025.13 1256 1025.13C1257.91 1025.13 1259.83 1024.97 1261.74 1024.7C1276.32 1022.59 1288.76 1013.56 1295.01 1000.49C1295.28 999.96 1295.25 999.337 1294.94 998.825C1294.65 998.313 1294.12 997.979 1293.54 997.913C1291.09 997.668 1288.51 997.289 1285.91 996.778C1277.18 995.086 1248.48 987.966 1245.25 967.738C1245.16 967.204 1245.36 966.558 1245.76 966.158C1246.16 965.735 1246.59 965.78 1246.72 965.802C1253.57 966.67 1259.63 969.807 1266.01 973.145C1270.57 975.526 1275.29 977.974 1280.37 979.554C1296.03 984.428 1312.25 983.582 1327.27 977.062C1343.47 970.03 1355.78 957.769 1361.03 943.438C1363.97 935.449 1362.95 928.395 1361.97 921.563C1361.77 920.161 1361.57 918.759 1361.39 917.358C1361.32 916.868 1361.08 916.423 1360.7 916.134C1360.32 915.844 1359.81 915.711 1359.34 915.778C1328.01 920.339 1298.37 914.554 1275.92 899.444C1274.69 898.621 1274.89 897.441 1275.05 896.974C1275.31 896.151 1275.96 895.105 1277.43 895.194C1287.93 895.35 1298.48 896.663 1308.69 897.931C1323.36 899.756 1338.53 901.647 1353.89 900.156C1381.33 897.53 1404.96 887.138 1422.21 870.07C1437.56 854.894 1453.34 827.612 1447.31 800.731C1442.9 781.082 1427.48 775.741 1412.57 770.578C1410.81 769.978 1409.05 769.355 1407.32 768.732C1406.58 768.464 1405.74 768.709 1405.27 769.332C1390.94 787.913 1372.11 800.909 1350.8 806.873C1349.1 807.34 1348.24 806.116 1347.95 805.56C1347.37 804.469 1347.26 802.867 1348.39 801.844L1352.11 798.55C1374.34 778.812 1397.3 758.406 1408.36 729.656C1420.36 698.368 1416 662.386 1397.26 638.019C1377.45 612.295 1342.21 601.524 1313.41 612.428C1287.38 622.264 1272.31 647.699 1259 670.129L1257.47 672.711C1244.92 693.829 1230.7 717.773 1209.11 734.507C1189.98 749.349 1166.77 759.875 1140.08 765.816C1111.78 772.136 1079.4 772.781 1041.15 767.841ZM1243.98 814.706C1242.63 814.928 1241.4 814.06 1240.96 813.148C1240.53 812.302 1240.71 811.501 1241.47 810.767C1244.14 808.23 1247.16 805.871 1250.1 803.601C1253.82 800.709 1257.67 797.727 1260.98 794.233C1266.15 788.781 1270.13 779.68 1267.73 772.848C1266.61 769.688 1263.7 765.705 1256.02 764.637C1254.71 764.459 1253.42 764.37 1252.1 764.37C1241.65 764.37 1231.59 769.844 1221.82 775.162C1214.52 779.146 1207.64 782.884 1200.77 784.397C1199.79 784.62 1199.32 784.108 1199.14 783.819C1198.88 783.351 1198.74 782.55 1199.37 781.816C1208.91 770.156 1234.06 753.177 1254.57 753.043C1263.01 753.088 1269.91 755.869 1274.74 761.61C1281.12 769.199 1282.79 777.877 1279.59 786.667C1274.25 801.287 1257.29 812.391 1243.98 814.706ZM1205.33 896.841C1208.85 895.327 1212.56 894.215 1216.17 893.124C1226.71 889.92 1237.6 886.627 1243.16 873.564C1245.47 868.112 1245.7 863.84 1243.89 860.48C1240.87 854.872 1233.06 853.448 1225.51 852.068C1221.51 851.334 1217.72 850.644 1214.99 849.398C1214.76 849.287 1214.52 849.108 1214.48 848.641C1214.43 848.018 1214.76 847.284 1215.23 846.972C1219.15 844.346 1223.87 843.033 1228.72 843.033C1233.9 843.033 1239.24 844.524 1243.89 847.484C1252.04 852.647 1256.11 860.925 1254.8 869.648C1253.06 881.308 1242.22 894.704 1229.59 900.802C1223.4 903.783 1214.21 906.298 1205.53 901.291C1204.73 900.824 1204.17 899.644 1204.26 898.532C1204.28 897.953 1204.51 897.197 1205.33 896.841Z" fill="#92C7F0"/>
<path d="M991.567 476.22C1002.85 492.998 1021.76 502.433 1042.86 502.433C1047.22 502.433 1051.67 502.033 1056.19 501.21C1074.39 497.894 1092.46 490.684 1108.37 480.381C1117.05 474.773 1125.15 468.186 1132.49 460.798L1134.61 458.707C1141.88 451.519 1148.76 444.732 1141.19 433.984C1130.07 418.229 1111.31 405.634 1094.75 394.53L1090.26 391.503C1074.08 380.555 1056.52 369.851 1036.63 358.792C1022.83 351.137 1012.37 349.49 1002.72 364.845C982.688 396.755 970.672 445.244 991.567 476.22Z" fill="#FFB88F"/>
<path d="M337.693 362.665C340.697 362.665 343.724 362.465 346.706 362.086C368.536 359.238 383.49 345.664 397.954 332.557C400.09 330.621 402.226 328.685 404.407 326.771C404.785 326.437 405.008 325.97 405.03 325.458C405.475 308.858 406.254 289.209 408.613 269.159C408.991 265.888 409.325 262.416 409.681 258.834C411.417 240.364 413.397 219.446 425.258 206.451C438.276 192.142 460.974 187.781 481.001 183.931C484.917 183.174 488.723 182.44 492.306 181.661C509.663 177.878 527.42 174.585 545.067 171.892C545.578 171.803 546.046 171.514 546.335 171.069C572.349 129.656 570.212 62.4306 525.595 32.1446C506.28 19.06 476.217 12.8292 452.584 28.3839C433.536 40.9345 424.145 63.343 428.685 85.6626C429.464 88.2439 429.998 90.2688 430.421 92.2493C431.6 97.6568 428.529 100.55 425.28 101.462C421.208 102.597 415.867 100.883 414.02 95.4982C413.375 93.6067 412.797 91.5596 412.218 89.045C406.254 71.0648 392.769 58.67 374.232 54.1304C350.511 48.3002 322.294 56.2889 304.025 73.9798C281.638 95.6763 270.935 132.015 278.568 160.365C282.529 175.074 293.077 194.056 320.781 200.954C325.588 202.134 326.1 206.161 326.122 207.852C326.122 211.457 323.852 215.841 319.624 216.887C293.878 223.34 273.027 243.857 265.194 270.45C257.962 295.039 263.414 319.383 280.17 337.252C295.28 353.363 316.664 362.665 337.693 362.665Z" fill="#92C7F0"/>
<path d="M106.642 994.866C107.243 994.932 107.844 994.732 108.244 994.287C129.206 971.344 166.124 950.382 197.678 958.527C198.034 958.616 198.168 959.016 198.19 959.195C198.279 959.595 198.19 960.018 197.945 960.218C189.667 967.094 180.076 970.721 169.951 974.549C166.101 975.995 162.14 977.508 158.246 979.2C140.244 986.988 126.024 997.714 115.944 1011.04C94.492 1039.39 90.3754 1078.85 105.151 1113.98C122.086 1154.33 156.956 1174.8 198.457 1168.75C226.295 1164.7 252.865 1151.44 279.902 1137.02C280.236 1136.84 280.503 1136.55 280.681 1136.22C293.165 1110.91 312.547 1091.67 333.909 1083.39C334.466 1083.16 334.755 1083.41 334.844 1083.52C335.044 1083.74 335.044 1084.05 334.844 1084.41C329.147 1094.71 321.826 1104.22 314.728 1113.38C300.797 1131.41 286.422 1150.03 284.264 1175.25C282.662 1193.96 287.869 1210.96 298.973 1223.16C309.521 1234.73 324.23 1240.89 341.565 1241.03C341.809 1241.03 342.032 1241.03 342.277 1241.03C421.808 1241.03 472.945 1157.38 491.281 1121.33C492.549 1118.86 494.419 1118.92 495.776 1119.44C498.157 1120.3 500.249 1123.11 499.581 1125.87C495.531 1142.74 487.431 1160.6 476.149 1177.49C475.993 1177.72 475.904 1177.98 475.86 1178.25C474.302 1189.71 473.189 1200.15 475.148 1211.59C477.15 1223.13 480.266 1235.62 488.166 1240.87C496.421 1246.37 510.686 1243.54 520.41 1239.42C550.206 1226.76 565.205 1195.14 578.445 1167.26C580.67 1162.56 582.873 1157.93 585.076 1153.51C585.766 1152.1 587.435 1152.1 588.659 1152.5C589.66 1152.84 591.285 1153.86 590.996 1155.53C586.501 1180.52 566.673 1261.97 500.249 1260.07C473.145 1259.32 459.326 1231.21 457.946 1205.4C457.902 1204.66 457.435 1204.04 456.767 1203.8C456.077 1203.55 455.321 1203.73 454.831 1204.26C444.061 1215.7 432.156 1225.69 419.494 1233.99C419.026 1234.31 418.737 1234.79 418.693 1235.33C415.6 1267.35 410.281 1299.71 405.118 1330.97C404.139 1336.89 403.16 1342.83 402.203 1348.75L401.803 1351.27C395.439 1390.5 388.829 1431.04 407.566 1468.67C443.616 1541.15 527.442 1564.74 596.448 1577.22C665.498 1589.68 729.163 1595.91 788.066 1595.91C868.643 1595.91 940.23 1584.23 1004.3 1560.82C1047.89 1544.89 1088.46 1522.41 1124.88 1494C1125.04 1493.88 1125.17 1493.73 1125.28 1493.57C1125.84 1492.75 1126.71 1492.08 1127.84 1491.59C1128 1491.53 1128.13 1491.44 1128.27 1491.35C1186.77 1444.71 1228.78 1386.16 1249.81 1322.03C1268.12 1266.26 1268.06 1203.62 1249.59 1124.89C1233.63 1056.93 1210.07 996.001 1179.6 943.796C1108.26 821.672 994.015 747.994 866.262 741.629C865.394 741.562 864.705 741.451 864.059 741.229C863.859 741.162 863.636 741.14 863.414 741.14C852.732 741.651 842.029 741.073 831.592 739.426C830.925 739.315 830.413 738.981 830.079 738.402C829.723 737.824 829.568 737.023 829.59 736.244C886.201 725.607 986.027 694.142 1028.53 602.527C1039.79 578.16 1046.6 551.479 1048.76 523.196C1048.8 522.662 1048.6 522.15 1048.25 521.794C1047.87 521.416 1047.38 521.238 1046.84 521.26C1029.53 522.328 1014.15 519.079 1001.09 511.558C942.856 478.112 966.778 403.565 979.751 373.079C984.113 362.843 989.654 351.271 997.62 343.193C998.221 342.57 998.31 341.613 997.821 340.901C959.969 285.826 900.71 240.541 830.925 213.415C752.684 182.951 662.672 174.339 563.336 187.758C540.482 190.851 516.738 195.101 492.794 200.442C489.812 201.11 486.408 201.71 482.803 202.378C465.824 205.449 444.706 209.254 436.005 222.65C430.798 230.661 429.685 242.856 428.684 253.626C428.372 256.986 428.083 260.191 427.683 262.994L427.26 265.754C426.993 267.445 426.726 269.114 426.481 270.961C425.502 287.139 423.9 303.45 422.208 320.117C422.164 320.473 422.253 320.852 422.431 321.163C423.522 323.166 423.499 325.547 422.32 327.817C422.03 328.306 421.719 328.818 421.429 329.352C421.296 329.575 421.229 329.82 421.207 330.064C419.827 343.972 418.604 356.523 417.78 369.207C414.62 418.052 412.284 467.075 410.192 512.804C409.547 527.068 409.191 542 408.857 556.42C407.344 620.663 405.764 687.088 379.439 744.077C358.788 788.783 311.568 839.43 246.367 834.957C227.408 833.644 209.027 827.681 191.247 821.917C173.178 816.043 154.486 809.99 135.014 808.721C103.527 806.696 71.4828 819.581 49.2745 843.258C26.7102 867.335 19.7452 900.403 30.6713 931.712C42.3317 965.47 71.4827 989.681 106.642 994.866ZM304.447 872.631C298.528 877.927 290.984 881.377 283.685 884.715C271.491 890.278 258.896 895.997 253.177 910.483C249.171 920.608 249.416 928.575 253.911 934.182C264.97 947.957 299.151 942.483 310.388 940.68C311.946 940.435 313.059 941.326 313.437 942.305C313.615 942.794 313.904 944.04 312.369 945.019C297.17 954.989 278.878 964.068 258.272 955.768C244.809 950.338 236.064 938.277 235.463 924.324C234.862 910.016 241.827 895.396 254.534 884.203C268.687 871.741 287.423 865.688 303.401 868.381C304.469 868.559 304.87 869.605 305.003 870.028C305.226 870.851 305.159 871.986 304.447 872.631ZM359.322 967.116C356.273 971.144 352.246 974.972 347.973 978.999C337.537 988.88 325.72 1000.05 328.791 1016.25C330.149 1023.48 333.398 1028.4 338.382 1030.85C350.31 1036.7 369.559 1026.95 382.287 1020.48C384.913 1019.14 387.272 1017.94 389.23 1017.05C390.632 1016.43 391.922 1016.65 392.724 1017.63C393.347 1018.41 393.658 1019.88 392.501 1021.35C382.599 1034.1 362.326 1046.94 344.235 1045.67C333.62 1044.91 325.387 1039.53 319.757 1029.67C312.747 1017.43 314.928 1005.41 317.999 997.514C324.118 981.692 339.161 967.517 355.384 962.265C355.628 962.176 355.873 962.154 356.118 962.154C357.275 962.154 358.432 962.933 359.1 963.868C359.5 964.424 360.279 965.826 359.322 967.116ZM625.131 416.004C628.469 387.321 631.941 357.658 661.782 348.601C691.311 339.655 725.091 349.268 752.217 356.99C784.728 366.314 809.585 378.553 828.21 394.486C849.907 413.045 862.946 438.458 864.905 466.029C866.885 493.6 857.584 520.57 838.758 542C820.911 562.294 796.433 579.562 765.991 593.292C727.361 610.694 695.828 616.19 669.637 610.138C639.017 603.039 630.071 577.537 627.957 557.421C626.489 543.557 625.577 530.873 625.154 518.434C620.547 487.28 620.28 455.881 624.352 422.458C624.619 420.322 624.864 418.185 625.131 416.004ZM841.206 301.203C836.733 323.277 817.417 337.831 796.277 335.071C794.163 334.826 792.072 334.292 790.291 333.825C790.158 333.781 790.024 333.758 789.869 333.758C786.353 333.647 782.926 333.068 779.677 332C768.84 328.395 760.25 320.696 755.488 310.304C750.682 299.801 750.459 287.606 754.909 276.858C763.9 255.162 787.932 244.057 810.853 251C833.039 257.698 845.79 278.816 841.206 301.203ZM912.615 1358.32C873.584 1377.59 821.401 1387.07 765.68 1385C723.088 1383.44 668.68 1372.87 651.234 1331.46C642.934 1311.77 643.913 1289 645.492 1269.24C647.54 1243.41 648.986 1216.64 650.366 1190.73C652.814 1145.09 655.328 1097.87 661.337 1053.84C662.004 1048.92 662.494 1043.69 662.983 1038.17C664.808 1018.03 666.878 995.199 679.918 981.158C696.073 963.734 723.578 961.175 743.65 959.306C753.975 958.349 764.3 957.859 774.581 957.859C794.364 957.859 814.013 959.64 833.306 963.156C890.963 973.726 934.534 994.977 962.862 1026.29C989.654 1055.97 1007.12 1098.56 1012.04 1146.25C1019.98 1223.42 992.324 1318.98 912.615 1358.32ZM633.164 846.929C633.164 846.907 633.164 846.907 633.164 846.929C633.342 846.662 633.587 846.595 633.765 846.595C633.832 846.595 633.899 846.618 633.943 846.618C634.055 846.662 634.188 846.729 634.211 847.063C634.3 850.824 634.166 854.918 634.01 859.257C633.432 875.702 632.786 894.372 644.58 906.055C650.766 912.152 656.552 914.021 661.804 911.574C673.086 906.3 677.425 881.621 676.513 870.384C676.402 869.093 676.847 868.27 677.87 867.869C679.228 867.335 681.431 867.713 682.521 869.137C691.622 881.02 683.078 901.36 680.252 907.323C674.599 919.184 663.94 925.059 652.436 922.656C638.483 919.718 631.562 908.747 628.224 900.047C621.593 882.734 623.707 859.903 633.164 846.929ZM1016.27 834.023C1018.29 830.996 1018.83 827.369 1017.8 823.831C1016.13 817.978 1011.37 814.329 1007.41 811.792C1006.28 811.08 1005.79 809.945 1006.1 808.744C1006.34 807.764 1007.23 806.585 1008.9 806.474C1016.65 805.917 1023.06 809.678 1026.44 816.732C1030.58 825.322 1029.13 836.025 1022.92 842.768C1017.96 848.131 1012.02 850.712 1005.28 850.512C992.769 850.067 980.552 840.187 973.877 831.842C973.12 830.885 973.298 829.839 973.81 829.216C974.01 828.971 974.388 828.637 974.967 828.637C975.256 828.637 975.59 828.727 975.969 828.927C977.103 829.528 978.327 830.195 979.618 830.907C987.718 835.336 997.776 840.877 1006.34 839.942C1010.46 839.475 1014.07 837.316 1016.27 834.023ZM1023.88 938.143C1031.58 930.867 1029.02 919.295 1027.55 914.645C1025.21 907.257 1020.65 900.225 1016.22 893.46C1014.33 890.545 1012.53 887.808 1010.95 885.071C1010.15 883.713 1010.77 882.356 1011.55 881.599C1011.91 881.243 1013.24 880.153 1014.82 881.132C1027.35 888.987 1042.35 902.539 1042.64 922.633C1042.79 934.805 1036.52 949.937 1022.39 954.455C1011.13 958.037 997.598 954.188 984.291 943.617C966.689 929.665 954.339 907.257 955.563 891.502C955.607 890.968 956.052 890.545 956.43 890.411C956.742 890.3 956.965 890.367 957.209 890.611C961.994 895.885 966.155 901.604 970.161 907.145C977.793 917.693 985.67 928.619 998.176 936.319C1005.36 940.769 1015.85 945.798 1023.88 938.143ZM1082.58 1297.86C1082.51 1297.26 1082.43 1296.66 1082.38 1296.06C1082.27 1294.92 1082.65 1294.08 1083.49 1293.45C1084.74 1292.56 1086.79 1292.39 1088.28 1293.05C1090.86 1294.17 1092.66 1296.17 1093.66 1299.02C1095.06 1303.07 1094.55 1308.34 1092.35 1312.5C1088.1 1320.45 1080.09 1324.74 1071.37 1323.72C1062.53 1322.67 1054.3 1316.33 1049.91 1307.16C1044.6 1296.1 1046.6 1285.15 1049.76 1271.98C1050.16 1270.38 1051.41 1270.15 1052.14 1270.15C1052.3 1270.15 1052.41 1270.15 1052.5 1270.18C1053.43 1270.29 1055.03 1270.96 1055.03 1272.76V1273.2C1055.1 1285.06 1055.21 1301.31 1066.11 1309.12C1071.79 1313.24 1077.44 1312.95 1080.87 1308.38C1083.47 1304.94 1083 1301.18 1082.58 1297.86ZM1019.32 1400.29C1019.43 1400.13 1019.65 1400 1019.96 1400C1020.14 1400 1020.36 1400.04 1020.59 1400.18C1021.21 1403.92 1021.23 1409.21 1021.28 1414.8C1021.36 1428.44 1021.45 1445.44 1030.15 1453.74C1033.89 1457.32 1038.92 1459.01 1045.13 1458.77C1051.96 1458.5 1057.28 1455.99 1060.93 1451.23C1071.59 1437.34 1064.8 1407.74 1061.55 1393.52L1061.13 1391.7C1060.84 1390.36 1061.66 1389.52 1062.44 1389.21C1062.8 1389.05 1064.04 1388.7 1064.85 1390.05C1074.79 1406.48 1084.03 1424.17 1078.06 1444.08C1074.26 1456.7 1063.49 1470.23 1047.98 1472.01C1031.73 1473.88 1022.83 1465.2 1018.23 1457.61C1008.55 1441.72 1009.06 1415.47 1019.32 1400.29ZM570.3 1402.25C570.968 1401.4 571.702 1401.11 572.414 1401.11C572.971 1401.11 573.483 1401.29 573.928 1401.51C575.552 1402.31 576.954 1404.25 576.465 1406.14C575.908 1408.3 575.33 1410.46 574.773 1412.64C571.102 1426.59 567.319 1441.01 568.031 1455.97C568.431 1464.69 571.369 1475.93 578.334 1481.27C582.139 1484.18 586.701 1485.09 591.908 1483.94C601.855 1481.71 607.44 1470.72 609.221 1461.95C609.599 1460.08 611.045 1459.7 611.891 1459.66C613.337 1459.57 615.295 1460.42 615.852 1462.15C619.791 1474.32 616.03 1485.83 605.772 1492.97C596.403 1499.47 580.559 1501.89 567.897 1491.86C543.753 1472.72 552.587 1425.06 570.3 1402.25ZM593.377 668.195C587.502 677.497 576.509 681.346 566.028 677.786C556.125 674.426 549.383 667.194 546.535 656.891C541.506 638.755 549.094 616.747 558.796 605.242C558.885 605.331 559.085 605.531 559.085 605.531C554.234 623.534 548.604 655.266 565.338 665.391C570.234 668.351 574.618 668.885 578.378 666.927C585.165 663.388 589.06 652.329 590.306 633.058C590.372 631.834 591.285 631.612 591.574 631.567C591.841 631.523 592.82 631.478 593.243 632.68C598.628 648.145 598.673 659.761 593.377 668.195ZM526.196 409.729C526.641 409.729 527.13 409.93 527.464 410.219C527.909 410.597 528.043 410.998 527.865 411.443C526.218 415.559 524.304 419.609 522.435 423.504C518.006 432.85 513.445 442.53 512.132 453.634L512.02 454.48C511.598 457.951 511.019 462.735 512.555 466.229C515.203 472.148 518.83 473.706 521.411 473.973C526.73 474.552 531.87 470.279 534.941 466.073C537.634 462.357 539.659 458.129 541.595 454.034C542.618 451.876 543.642 449.74 544.754 447.67C545.422 446.424 546.601 446.557 547.091 446.669C548.07 446.891 549.049 447.692 549.071 448.961C549.272 459.776 546.935 474.195 534.518 481.561C525.995 486.657 513.578 486.924 506.324 477.533C500.939 470.59 499.158 460.376 501.339 448.783C504.366 432.627 514.312 416.605 525.55 409.863C525.773 409.774 525.973 409.729 526.196 409.729ZM466.825 574.199C481.668 555.863 494.285 546.116 503.053 546.116C504.41 546.116 505.678 546.361 506.858 546.829C507.169 546.94 507.214 546.962 507.236 547.363C507.948 553.638 502.964 557.777 497.668 562.161C496.555 563.073 495.465 563.985 494.441 564.92C486.185 572.397 476.861 581.298 470.742 592.269L470.564 592.603C467.916 597.365 462.975 606.243 464.756 612.229C466.069 616.68 468.427 619.64 471.787 621.086C478.975 624.179 488.678 619.172 494.463 616.19L495.643 615.59C506.413 610.182 515.492 603.106 524.282 593.292C524.927 592.58 525.995 592.936 526.485 593.226C526.774 593.404 527.664 594.027 527.286 595.006C520.543 612.563 507.793 626.137 492.282 632.257C481.824 636.396 471.12 636.908 463.665 633.592C458.414 631.255 454.631 627.116 452.45 621.264C445.663 603.128 460.238 582.299 466.825 574.199ZM512.288 925.281C525.639 906.99 543.263 895.819 558.618 895.819C559.085 895.819 559.53 895.841 559.975 895.841C560.999 895.885 561.466 896.419 561.666 896.864C561.933 897.443 561.978 898.378 561.288 899.223C555.814 905.988 549.383 911.529 543.152 916.892C533.45 925.259 523.392 933.893 516.938 947.222C513.334 954.677 509.662 965.114 512.755 972.524C515.158 978.265 518.541 981.647 522.791 982.538C531.202 984.318 540.326 975.773 545.222 971.189L545.578 970.855C554.234 962.777 562.134 953.498 568.053 946.288C569.166 944.93 570.545 945.353 571.257 945.709C572.548 946.377 573.705 947.935 573.282 949.537C568.654 967.317 556.148 988.857 534.919 995.956C519.809 1000.99 504.744 993.53 499.114 978.243C493.84 963.956 498.869 943.64 512.288 925.281ZM543.33 1043.04C543.798 1041.82 544.866 1041.31 545.823 1041.31C545.978 1041.31 546.112 1041.33 546.267 1041.35C546.913 1041.46 547.959 1041.89 548.003 1043.55C548.026 1044.91 548.026 1046.51 548.003 1048.29C547.936 1059.91 547.825 1077.49 556.326 1085.23C559.508 1088.13 563.58 1089.33 568.431 1088.84C584.409 1087.19 587.813 1070.08 590.551 1056.31C591.352 1052.23 592.13 1048.41 593.132 1045.33C593.621 1043.84 594.979 1043.27 596.203 1043.27C596.804 1043.29 598.25 1043.51 598.717 1045.25C602.589 1060.11 599.14 1078.25 590.373 1089.35C584.275 1097.05 575.953 1100.97 566.362 1100.79C556.771 1100.61 547.313 1094.09 542.24 1084.21C536.587 1073.28 536.944 1059.82 543.33 1043.04ZM600.92 348.512C593.288 363.043 583.941 371.855 573.127 374.726C562.913 377.441 549.494 375.549 542.551 365.224C536.499 356.234 536.654 343.082 542.974 332.512C550.295 320.206 562.534 316.379 575.463 312.307L577.043 311.817C577.065 311.839 577.154 311.995 577.154 312.218C577.154 312.329 577.11 312.574 576.909 312.729C568.298 319.294 550.407 332.935 548.649 346.821C548.07 351.293 549.25 355.388 552.098 359.037C563.447 373.435 582.673 358.392 594.178 349.402C595.891 348.067 597.427 346.865 598.717 345.931C599.073 345.664 599.63 345.396 600.319 345.997C600.943 346.554 601.365 347.666 600.92 348.512ZM586.612 240.141C582.028 241.854 576.821 240.653 571.324 239.362C568.142 238.605 564.871 237.849 561.711 237.715C548.604 237.159 537.389 241.209 530.001 249.131C524.037 255.518 521.3 263.707 522.858 270.538C523.748 274.477 526.485 279.818 534.385 282.911C542.195 285.982 551.03 285.114 559.552 284.29C564.092 283.845 568.387 283.423 572.437 283.578C573.238 283.601 574.083 284.313 574.373 285.181C574.64 285.982 574.262 286.382 573.972 286.627C561.044 297.019 540.704 304.118 522.39 292.88C508.994 284.669 504.454 267.957 511.353 252.224C517.895 237.27 532.493 226.878 550.407 224.453C552.387 224.186 554.835 224.03 557.505 224.03C565.984 224.03 576.776 225.677 582.762 230.795C585.61 233.243 587.035 236.158 587.101 239.74C587.079 239.874 586.812 240.052 586.612 240.141ZM501.295 311.172C496.844 314.22 491.281 316.312 485.896 318.337C474.614 322.565 462.953 326.949 458.992 340.278C457.19 346.242 457.724 352.317 460.417 356.501C462.597 359.905 466.091 362.019 470.475 362.62C477.907 363.688 486.007 360.306 493.15 357.324C495.643 356.278 498.001 355.299 500.204 354.542C501.384 354.142 502.118 354.765 502.496 355.366C503.075 356.278 503.231 357.68 502.341 358.615C493.395 368.361 478.73 377.24 464.355 372.923C453.852 369.786 446.887 360.15 446.598 348.378C446.331 337.541 451.293 327.194 460.55 319.249C469.74 311.372 482.135 306.855 493.751 306.855C496.243 306.855 498.691 307.055 501.05 307.478C501.45 307.567 502.029 307.767 502.207 308.59C502.43 309.547 502.029 310.682 501.295 311.172ZM494.953 808.988C489.478 812.86 483.626 816.376 477.974 819.759C463.153 828.638 447.821 837.828 438.297 854.406C431.51 866.178 431.132 880.308 437.363 888.008C442.258 894.061 450.648 895.552 460.928 892.191C474.124 887.874 486.341 877.638 496.154 869.427C497.267 868.492 498.38 868.715 499.047 869.249C499.693 869.761 500.182 870.762 499.581 872.03C489.679 892.347 461.039 909.437 441.813 906.544C429.618 904.697 421.875 895.44 419.427 879.752C416.89 863.53 424.812 844.682 440.589 829.394C454.898 815.553 472.277 807.653 487.632 807.653C490.213 807.653 492.728 807.876 495.175 808.321C495.22 808.477 495.131 808.855 494.953 808.988ZM429.307 1021.5C429.53 1021.5 429.752 1021.57 429.997 1021.72C430.754 1022.21 431.243 1023.28 431.087 1024.19C430.575 1027.38 428.929 1031.87 427.148 1036.63C422.943 1047.98 418.181 1060.87 422.943 1069.41C425.079 1073.26 428.996 1075.78 434.536 1076.89C447.643 1079.54 465 1064.56 477.684 1053.64C480.377 1051.3 482.803 1049.23 484.783 1047.65C485.74 1046.89 486.853 1047.12 487.454 1047.65C487.854 1048.01 488.233 1048.63 487.654 1049.65C480.222 1063.14 462.352 1084.81 443.504 1089.17C435.827 1090.95 428.751 1089.62 422.453 1085.21C414.131 1079.38 409.591 1069.97 409.658 1058.69C409.747 1044.18 417.313 1029.36 428.462 1021.79C428.773 1021.59 429.04 1021.5 429.307 1021.5ZM525.328 1319.82C521.3 1331.42 512.777 1341.14 504.544 1350.55C498.736 1357.19 492.727 1364.06 488.21 1371.6C480.934 1383.82 470.185 1406.52 479.865 1421.32C483.559 1426.97 488.856 1430.2 495.175 1430.69C505.256 1431.46 515.759 1425.12 521.678 1418.49C523.303 1416.67 525.239 1417.42 525.995 1417.82C527.486 1418.63 528.844 1420.41 528.31 1422.5C523.525 1440.86 508.927 1446.84 496.844 1446.37C481.69 1445.77 464.578 1435.05 461.173 1415.73C454.987 1380.68 489.189 1328.19 524.26 1318.89C524.304 1318.87 524.371 1318.87 524.438 1318.87C524.705 1318.87 525.016 1319 525.216 1319.22C525.439 1319.51 525.35 1319.73 525.328 1319.82ZM1159.58 1013.83C1159.11 1012.13 1158.71 1010.69 1158.53 1009.71C1158.26 1008.26 1158.97 1007.28 1159.71 1006.86C1160.62 1006.33 1161.71 1006.48 1162.62 1007.26C1169.12 1012.89 1172.99 1022.48 1172.06 1030.6C1171.57 1034.74 1169.59 1040.39 1162.91 1043.87C1149.9 1050.65 1141.22 1038.88 1133.58 1028.51C1131.76 1026.02 1130.02 1023.68 1128.31 1021.68C1127.44 1020.66 1127.71 1019.57 1128.22 1018.94C1128.42 1018.7 1128.89 1018.25 1129.6 1018.25C1129.91 1018.25 1130.25 1018.34 1130.65 1018.54C1133.65 1020.14 1136.39 1023.02 1139.28 1026.06C1143.29 1030.29 1147.43 1034.65 1152.77 1035.83C1156.02 1036.57 1158.53 1036.03 1160.18 1034.28C1164.12 1030.18 1161.49 1020.72 1159.58 1013.83ZM1110.53 1334.47C1110.66 1334.09 1111.02 1333.91 1111.31 1333.86C1111.33 1333.86 1111.35 1333.86 1111.38 1333.86C1111.67 1333.86 1111.8 1334.02 1111.89 1334.18C1113.94 1337.78 1115.85 1343.37 1117.85 1349.29C1122.66 1363.39 1128.13 1379.42 1139.39 1383.75C1144.69 1385.78 1150.74 1384.96 1157.37 1381.28C1181.29 1368.02 1171.19 1336.53 1164.49 1315.71C1163.56 1312.81 1162.69 1310.05 1161.93 1307.54C1161.38 1305.65 1162.49 1304.8 1163.23 1304.45C1164.49 1303.85 1166.3 1304 1167.3 1305.45C1177.51 1320.45 1188.68 1340.47 1184.21 1362.39C1181.14 1377.5 1171.04 1390.21 1158.49 1394.79C1146.22 1399.24 1134.1 1396.48 1124.35 1386.98C1110.84 1373.83 1104.9 1351.24 1110.53 1334.47ZM1180.74 1270.91C1166.54 1267.84 1153.88 1254.11 1149.94 1237.58C1149.92 1237.49 1149.96 1237.29 1150.27 1237C1155.48 1238.87 1158.29 1242.07 1161.85 1246.14C1162.89 1247.32 1163.96 1248.57 1165.14 1249.82C1172.57 1257.69 1181.83 1261.16 1189.91 1259.12C1197.61 1257.16 1203.32 1250.64 1205.97 1240.71C1212.03 1218.04 1194.82 1190.76 1182.27 1170.82C1180.32 1167.7 1178.45 1164.74 1176.76 1161.96C1176.31 1161.25 1176.71 1160.29 1177.31 1159.76C1177.87 1159.25 1178.42 1159.16 1178.94 1159.56C1195.85 1172.02 1215.72 1197.23 1219.35 1223.18C1221.24 1236.71 1218.37 1248.5 1210.85 1258.23C1202.61 1268.84 1191.93 1273.34 1180.74 1270.91ZM1148.81 1130.41C1150.9 1120.15 1147.14 1109.78 1143.49 1099.74C1141.22 1093.49 1139.06 1087.57 1138.28 1081.76C1138.06 1080.12 1139.35 1078.58 1140.68 1078.18C1141.71 1077.87 1142.46 1078.27 1143.02 1079.38C1143.84 1081.07 1144.73 1082.83 1145.65 1084.66C1155.84 1104.91 1169.81 1132.68 1149.34 1150.39C1139.75 1158.69 1130.74 1157.16 1124.88 1154.37C1112.44 1148.48 1102.63 1131.96 1103.03 1117.57C1103.05 1116.97 1103.28 1116.61 1103.72 1116.48C1103.83 1116.43 1103.99 1116.41 1104.14 1116.41C1104.59 1116.41 1105.12 1116.61 1105.5 1117.1C1107.44 1119.61 1109.06 1122.66 1110.8 1125.89C1113.8 1131.48 1116.9 1137.26 1121.92 1140.87C1127.64 1144.96 1133.63 1146.12 1138.75 1144.11C1143.82 1142.05 1147.4 1137.19 1148.81 1130.41Z" fill="#92C7F0"/>
<path opacity="0.1" d="M1417.42 753.846C1418.98 750.997 1420.38 748.06 1421.71 745.1C1382.68 809.01 1327.96 870.873 1254.93 883.602C1207.29 891.924 1162.49 873.899 1124.51 845.994C1080.73 813.839 1045.31 766.174 994.194 746.035C991.546 745.657 988.876 745.279 986.25 744.856C966.934 737.312 946.907 731.615 926.256 728.055C968.781 709.696 1005.88 676.451 1030.62 638.354C1054.1 602.238 1066.18 561.382 1068.72 519.68C1087.66 515.007 1105.93 506.328 1120.79 496.315C1136.43 485.789 1155.99 470.813 1163.87 453.122C1172.51 433.784 1154.61 418.319 1141.71 406.525C1123.3 389.791 1102.74 375.571 1081.6 362.531C1069.16 354.876 1057.66 345.686 1044.6 339.054C1030.38 331.8 1017.43 333.469 1007.1 319.628C995.351 303.873 982.178 289.208 967.914 275.723C966.267 274.165 964.553 272.674 962.884 271.161C962.261 321.986 957.566 372.611 946.039 422.191C934.223 472.949 914.64 522.217 885.578 565.61C861.122 602.082 828.366 628.051 797.724 658.871C766.437 690.359 746.276 728.389 778.231 767.576C806.359 802.068 848.973 824.587 887.47 845.371C925.099 865.688 965.132 883.201 1000.49 907.457C1038.99 933.871 1076.13 966.538 1103.25 1004.72C1150.12 1070.68 1152.06 1158.22 1125.75 1232.88C1105.08 1291.58 1065.45 1340.74 1016.27 1378.26C905.695 1462.6 757.514 1492.39 621.126 1494.37C545.311 1495.49 463.354 1488.79 387.139 1467.02C409.08 1521.05 460.951 1556.81 514.937 1575.48C553.367 1588.81 594.423 1597.34 635.791 1603.06C611.046 1636.26 603.102 1695.27 633.61 1726.45C647.541 1740.76 668.169 1743.65 686.127 1735.35C687.64 1734.61 689.109 1733.9 690.488 1733.1C696.007 1754.22 720.307 1766.17 743.717 1761.41C752.396 1759.67 760.184 1756.27 767.016 1751.64C773.625 1759.63 783.572 1763.99 795.655 1764.19C817.173 1764.59 835.643 1750.5 849.084 1735.04C864.839 1716.9 876.588 1694.89 883.731 1671.97C887.692 1659.38 890.073 1646.27 891.386 1633.14C892.143 1625.15 892.076 1616.23 893.1 1607.77C908.476 1605.66 923.809 1603.01 938.963 1599.76C930.974 1629.38 938.518 1677.54 967.424 1688.86C981.911 1694.51 996.197 1691.29 1007.39 1683.21C1013.6 1702.33 1043.42 1709.09 1061.8 1701.92C1076.13 1696.34 1088.03 1684.26 1095.87 1669.77C1105.55 1676.02 1118.77 1675.62 1129.8 1669.64C1149.01 1659.27 1159.27 1636.03 1164.43 1615.92C1170.08 1593.82 1170.57 1570.66 1165.52 1548.34C1162.36 1534.36 1156.71 1514.87 1146.76 1501.56C1189.28 1466.58 1225.04 1423.61 1250.12 1373.34C1302.31 1268.6 1286.64 1147.07 1246.61 1039.26C1255.62 1040.77 1264.9 1040.42 1272.89 1038.12C1288.18 1033.7 1310.87 1016.5 1310.56 999.539C1322.58 998.27 1334.26 994.42 1344.83 988.101C1361.3 978.22 1374.58 962.888 1379.77 944.151C1382.28 935.006 1383.46 922.633 1379.88 913.153C1407.27 905.165 1432.11 889.41 1447.71 867.691C1463.35 845.906 1471.85 815.842 1463.02 789.695C1456.32 770.224 1437.54 757.228 1417.42 753.846Z" fill="#592639"/>
<path opacity="0.15" d="M532.405 1581.14C526.753 1565.98 521.791 1550.54 517.652 1534.69C495.466 1449.51 497.291 1360.52 512.534 1274.34C528.311 1184.97 563.604 1096.96 529.913 1007.17C518.564 976.885 499.115 941.325 505.302 907.945C509.997 882.644 525.262 861.059 542.975 842.99C563.871 821.672 588.416 804.381 611.225 785.221C630.918 768.665 652.504 749.595 660.826 724.405C680.987 663.343 605.016 622.109 571.837 583.411C525.106 528.937 530.491 457.216 550.252 392.104C570.346 325.925 607.152 268.134 671.574 238.516C733.192 210.188 804.134 207.696 870.558 215.195C875.988 215.818 881.418 216.508 886.825 217.242C881.084 214.127 875.298 211.078 869.423 208.252C779.322 164.659 677.783 154.979 579.181 165.504C573.506 166.128 567.854 166.84 562.202 167.574C602.19 122.979 576.243 36.6388 525.663 10.8701C498.492 -2.99341 464.156 -3.3272 439.033 15.1871C425.792 24.9116 416.268 38.953 411.751 54.3742C380.73 24.7557 325.054 28.0269 291.808 60.0709C251.353 99.08 242.63 178.01 291.808 208.719C246.19 235.534 226.519 299.288 261.945 344.127C296.993 388.41 362.283 390.435 402.204 355.788C398.355 400.494 395.662 445.288 393.303 490.128C390.9 535.679 389.431 581.409 385.715 626.871C382.333 668.573 375.946 712.433 354.361 749.105C336.804 778.857 308.743 805.026 274.273 812.748C232.972 822.005 193.785 798.484 154.197 790.874C94.4264 779.324 27.8017 812.615 8.77563 872.452C-10.028 931.711 33.1647 1005.06 96.5183 1006.5C74.5548 1040.1 72.3073 1082.83 87.2389 1119.79C103.417 1159.94 137.686 1188.75 182.036 1188.89C216.372 1188.95 244.633 1175.09 270.869 1156.44C258.518 1198.61 269.133 1244.3 319.357 1257.07C347.44 1264.19 376.413 1258.78 402.827 1245.61C395.974 1277.19 390.922 1309.07 385.47 1340.92C379.217 1377.32 371.562 1415.49 381.91 1451.89C399.667 1514.47 456.056 1555.14 514.959 1575.51C520.7 1577.49 526.53 1579.36 532.405 1581.14Z" fill="#FFFCFC"/>
<path opacity="0.3" d="M1130.92 884.759C1157.22 945.153 1180.34 1012.91 1182.81 1079.31C1183.99 1110.87 1181.16 1143.16 1179.63 1174.73C1178.03 1207.31 1172.93 1239.49 1163.96 1270.87C1132.08 1382.62 1054.35 1468.85 955.522 1527C900.58 1559.33 839.54 1583.67 777.544 1598.54C776.431 1598.81 775.497 1599.27 774.718 1599.9C763.747 1599.29 752.799 1600.05 742.629 1602.01C734.062 1603.66 734.952 1616.3 742.629 1618.45C769.8 1626.11 810.946 1626.69 824.809 1655.71C839.741 1686.99 816.264 1711.18 809.855 1740.47C808.186 1748.12 815.619 1753.24 822.383 1750.1C846.083 1739.13 857.721 1711.98 858.766 1685.08C875.79 1666.23 876.725 1637.28 876.391 1613.07C876.324 1608.93 874.744 1605.59 872.341 1603.17C919.272 1600.05 967.538 1584.21 1009.77 1566.54C1010.86 1566.07 1011.95 1565.63 1013.05 1565.18C1014.69 1567.74 1017.5 1569.68 1020.54 1569.9C1047.34 1571.92 1081.25 1551.47 1106.71 1566.94C1131.76 1582.16 1125.04 1616.56 1124.51 1641C1124.26 1652.1 1139.71 1655.95 1145.16 1646.6C1159.85 1621.48 1160.25 1588.72 1145.29 1564.22C1146.54 1563.33 1147.61 1562.2 1148.25 1560.86C1151.15 1554.94 1150.9 1549.96 1149.28 1544.73C1148.74 1540.79 1146.92 1537.01 1143.96 1534.18C1143.91 1534.14 1143.85 1534.12 1143.8 1534.05C1146.27 1528.2 1146.61 1521.12 1143.45 1513.73C1140.46 1506.75 1138.06 1499.49 1136.28 1492.1C1141.18 1487.85 1146.01 1483.51 1150.72 1479.06C1189.26 1442.57 1219.46 1398.29 1239.67 1349.24C1240.67 1346.79 1241.63 1344.32 1242.56 1341.85C1257.78 1316.02 1268.91 1288.87 1272.31 1258.34C1276.34 1222.24 1274.78 1184.19 1268.89 1148.39C1262.97 1112.36 1250.99 1078 1238.93 1043.69C1226.52 1008.37 1208.69 977.686 1192.31 944.352C1189.06 937.742 1180.23 940.012 1177.78 945.531C1168.99 921.476 1159.13 897.776 1148.05 874.634C1142.51 863.062 1125.91 873.254 1130.92 884.759Z" fill="#592642"/>
<path opacity="0.3" d="M833.932 742.029C887.361 743.832 941.724 713.212 978.486 676.562C1015.07 640.112 1037.01 592.402 1043.8 541.732C1045.89 537.437 1046.85 532.341 1046.02 526.623C1045.73 524.019 1045.29 521.438 1044.67 518.879C1043.29 512.114 1039.9 507.552 1035.56 504.837C1050.23 507.485 1065.61 507.174 1082.05 503.524C1110.89 497.093 1154.42 472.793 1161.09 441.372C1164.34 426.085 1147.96 410.441 1133.19 419.921C1122.26 426.93 1115.81 438.123 1105.95 446.513C1096.18 454.857 1083.81 461.756 1071.77 466.273C1046.45 475.753 1012.73 475.775 987.542 465.895C978.486 462.334 974.547 475.664 981.356 480.559C994.819 490.262 1008.62 497.494 1023.06 501.855C1011.31 502.478 999.069 511.357 998.001 525.198C994.485 570.55 977.306 615.3 948.355 650.615C917.09 688.756 876.145 708.049 831.729 726.274C823.762 729.568 824.296 741.695 833.932 742.029Z" fill="#592642"/>
<path opacity="0.3" d="M635.945 593.693C646.203 598.21 655.171 589.109 650.765 578.873C643.133 561.204 639.083 541.978 636.947 522.239C636.346 512.315 635.656 502.368 635.01 492.443C634.432 471.793 635.099 451.142 635.344 431.648C635.522 416.361 630.181 374.615 646.982 366.003C655.283 361.752 667.878 364.957 676.734 364.423C688.35 363.733 701.568 362.91 712.494 359.238C714.208 358.659 715.499 357.747 716.567 356.701C726.313 359.194 735.571 362.264 743.537 365.246C773.2 376.328 797.589 395.154 824.582 410.887C833.594 416.138 842.851 405.835 838.356 397.112C821.155 363.689 784.46 342.17 750.169 330.354C721.017 320.296 682.142 312.863 650.899 322.298C642.91 323.01 635.122 324.969 627.889 328.44C597.27 343.171 594.8 377.196 593.531 407.215C591.929 444.466 593.086 481.717 597.181 518.79C600.252 546.918 607.395 581.12 635.945 593.693Z" fill="#592642"/>
<path opacity="0.3" d="M669.547 1051.14C674.065 1033.9 679.138 1016.92 684.902 1000.49C686.771 995.153 688.863 990.146 691.199 985.54C704.261 969.14 723.888 967.048 744.339 969.251C768.572 971.855 793.94 974.814 817.662 980.333C844.209 986.519 869.889 995.977 897.104 998.892C900.242 999.226 902.779 998.38 904.692 996.822C907.385 998.647 910.055 1000.52 912.681 1002.47C935.223 1019.41 958.522 1037.83 971.54 1063.27C976.279 1072.53 992.145 1066.1 988.541 1056.1C980.641 1034.32 970.828 1012.51 956.541 994.13C942.277 975.771 918.467 961.552 897.927 951.382C871.914 938.498 844.009 929.886 815.503 924.657C788.266 919.672 758.625 914.91 730.92 917.625C728.406 917.869 725.958 918.248 723.577 918.671C664.095 921.808 634.633 968.784 624.218 1023.15C614.071 1076.11 611.712 1129.94 611.935 1183.72C610.778 1205.35 610.956 1227.54 613.381 1249.39C614.294 1266.86 616.118 1284.37 620.524 1301.06C623.395 1311.94 627.824 1322.83 634.121 1332.19C636.925 1336.38 640.285 1340.72 644.157 1344.12C645.915 1346.9 647.717 1349.66 649.631 1352.38C653.859 1358.3 662.137 1358.56 666.988 1354.91C675.578 1355.56 683.389 1343.63 675.4 1337.11C670.593 1333.17 665.942 1320.58 663.628 1314.66C660.068 1305.6 658.376 1295.5 657.464 1285.86C655.261 1262.63 657.776 1238.89 658.065 1215.61C658.71 1160.78 660.268 1105.3 669.547 1051.14Z" fill="#592642"/>
<path opacity="0.3" d="M451.025 203.713C460.482 201.198 469.606 197.816 478.307 193.655C479.753 194.7 481.578 195.301 483.803 195.257C501.005 194.789 517.027 184.842 532.492 177.9C544.82 172.359 553.21 166.751 558.194 153.644C568.675 126.051 573.371 88.6437 561.354 60.7832C561.287 59.4481 561.176 58.1351 561.042 56.8C553.343 47.1645 546.534 36.7725 540.503 26.0244C538.412 27.6266 536.898 30.0077 536.832 32.8338C535.986 66.7247 538.501 97.5226 520.965 128.454C504.721 157.093 477.706 177.61 446.552 187.513C436.294 190.762 440.521 206.517 451.025 203.713Z" fill="#592642"/>
<path opacity="0.3" d="M101.301 1064.27C97.3624 1054.75 84.211 1058.22 85.8355 1068.54C88.083 1082.92 92.8007 1095.22 99.343 1105.71C98.3638 1107.64 98.0523 1109.87 98.8089 1112.18C119.838 1177.11 215.079 1188.86 260.631 1142.89C268.175 1140.26 275.451 1137.17 282.349 1133.63C272.892 1155.04 269.777 1178.38 279.59 1197.94C279.613 1198.05 279.613 1198.17 279.657 1198.28C285.22 1216.08 293.743 1234.08 311.367 1242.67C325.854 1249.7 343.701 1249.3 354.182 1237.04C378.949 1237.62 404.117 1230.23 422.097 1214.9C435.694 1212.21 446.753 1202.73 457.746 1194.14C458.013 1193.94 458.28 1193.71 458.547 1193.49C458.947 1211.23 467.337 1228.81 481.957 1239.49C510.196 1260.12 540.905 1246.01 561.355 1222.49C568.498 1214.25 559.686 1203.06 549.939 1207.69C534.184 1215.14 513.622 1228.27 496.822 1217.44C480.555 1206.96 480.8 1188.24 481.89 1171.24C482.602 1170.42 483.248 1169.53 483.915 1168.66C482.002 1158.73 483.047 1148.68 485.918 1138.68C482.38 1137.13 478.196 1136.97 474.324 1139.11C430.664 1163.27 383.6 1221.31 326.276 1201.3C286.667 1187.48 299.729 1143.6 313.147 1114.45C313.793 1113.03 314.06 1111.69 314.082 1110.42C317.798 1102.63 310.166 1091.62 300.886 1094.73C262.723 1107.55 227.43 1127.02 185.728 1123.28C149.901 1120.06 115.254 1097.98 101.301 1064.27Z" fill="#592642"/>
<path opacity="0.3" d="M50.9656 964.936C55.5497 968.586 61.1574 972.48 67.3214 976.13C67.4995 976.441 67.6553 976.753 67.8778 977.064C79.3602 992.908 104.484 1002.3 121.151 989.414C124.311 988.636 127.337 987.434 130.186 985.743C131.187 985.142 132.01 984.408 132.722 983.584C136.861 983.05 141 982.204 145.117 980.981C158.536 977.042 155.153 958.483 141.935 957.459C115.209 955.39 92.7342 954.633 70.2811 937.432C49.141 921.254 38.5486 897.555 32.4736 872.276C30.1815 862.774 15.8731 865.044 15.7173 874.546C15.6728 877.639 15.8285 880.71 16.1178 883.781C13.3362 884.871 11.3113 887.386 11.5783 891.436C13.4698 920.72 28.0453 946.711 50.9656 964.936Z" fill="#592642"/>
<path opacity="0.5" d="M60.9359 845.038C93.3136 814.307 137.819 829.862 173.713 844.282C208.449 858.234 242.185 870.74 280.103 872.164C327.702 873.922 366.4 854.162 392.435 820.961C395.128 818.491 397.798 815.932 400.357 813.217C432.713 778.703 443.083 731.705 446.22 685.797C449.803 633.036 448 579.607 448.356 526.735C448.601 489.105 448 450.564 445.174 412.489C445.308 409.552 445.441 406.614 445.552 403.677C447.377 359.149 446.821 313.776 451.205 269.448C453.475 246.572 464.779 238.895 486.053 233.488C510.108 227.391 534.675 223.452 559.086 219.046C581.539 214.996 603.659 209.544 625.911 204.537C651.613 198.774 678.561 198.195 704.73 195.391C717.081 194.078 717.592 176.321 704.73 175.764C682.789 174.83 661.249 176.343 639.33 176.944C616.387 177.567 593.778 176.387 570.836 178.056C549.629 179.592 528.578 183.686 507.705 187.692C488.901 191.297 469.385 194.323 451.784 202.2C413.13 219.513 410.371 257.632 408.524 295.039C406.254 340.902 403.94 386.765 401.759 432.628C397.598 519.836 396.552 607.779 388.875 694.765C387.273 713.013 384.736 731.927 379.662 749.93C379.284 750.353 378.928 750.82 378.616 751.332C353.56 792.277 320.759 818.402 270.957 818.179C264.371 818.157 261.7 823.987 263.102 828.905C192.005 820.427 105.152 767.777 47.9849 832.087C40.1519 840.832 52.3018 853.205 60.9359 845.038Z" fill="#FFF7F7"/>
<path opacity="0.5" d="M277.813 339.967C284.689 345.285 293.078 340.39 291.854 331.778C288.427 307.478 281.529 288.652 294.48 265.309C303.626 248.82 320.427 239.741 334.78 228.369C338.674 225.276 339.498 220.759 338.385 216.576C346.418 212.948 350.557 201.755 342.924 194.523C322.519 175.23 310.057 143.297 321.963 116.527C334.558 88.1549 373.255 76.3386 400.938 69.3735C409.438 67.2372 410.662 55.3097 403.341 50.9704C356.365 23.199 299.02 55.065 279.682 102.063C264.261 139.581 276.055 187.113 309.367 208.476C288.183 215.418 271.693 234.645 263.371 255.34C253.246 280.463 254.626 322.054 277.813 339.967Z" fill="#FFF7F7"/>
<path opacity="0.5" d="M437.807 92.2507C443.371 79.2774 444.083 65.3472 453.807 54.2208C463.309 43.3614 478.841 39.9345 492.282 36.5744C503.297 33.8373 501.295 19.7513 492.282 16.1686C471.253 7.8238 447.888 17.437 433.335 33.726C420.339 48.2571 409.858 74.3595 422.186 92.2285C425.591 97.1686 434.892 99.0378 437.807 92.2507Z" fill="#FFF7F7"/>
<path opacity="0.5" d="M974.277 443.131C975.968 451.431 987.718 450.341 989.988 443.131C995.484 425.751 1002.34 408.95 1017.65 398.002C1033.45 386.698 1050.54 388.901 1068.74 387.343C1078.89 386.475 1082.85 373.947 1073.95 368.117C1065.96 362.865 1057.44 360.284 1048.85 359.772C1050.69 355.633 1049.47 350.025 1045.24 347.844C1026.3 338.164 1004.76 354.498 995.484 370.297C993.17 374.236 994.661 378.397 997.553 380.845C980.352 397.312 969.738 420.967 974.277 443.131Z" fill="#FFF7F7"/>
<path opacity="0.5" d="M1042.26 760.39C1032.33 758.343 1026.84 770.982 1035.38 776.679C1068.12 798.464 1107.35 811.705 1147.05 808.612C1184.74 805.674 1215.94 789.318 1243.53 764.084C1267.54 742.12 1284.72 713.659 1308.33 691.273C1320.62 679.635 1335.06 670.288 1351.99 667.418C1370.31 664.302 1391.56 674.249 1407.78 662.811C1412.72 659.34 1414.59 654.6 1413.52 648.703C1410.92 634.239 1400.66 626.651 1387.46 623.357C1353.6 580.12 1288.71 626.895 1263.09 657.137C1246.96 676.185 1232.36 696.369 1214.72 714.104C1196.22 732.663 1174.64 744.724 1153.28 759.366C1149.27 762.103 1147.91 766.754 1148.83 770.782C1113.71 775.811 1076.06 767.355 1042.26 760.39Z" fill="#FFF7F7"/>
<path opacity="0.5" d="M695.85 617.838C754.441 625.248 826.407 610.85 865.95 563.697C883.374 542.913 895.323 514.763 891.785 487.258C888.648 462.758 877.499 432.005 854.134 420.366C847.035 416.828 835.285 422.948 838.979 432.027C847.458 452.922 857.939 468.544 856.47 492.043C855.58 506.262 851.975 518.724 845.366 529.872C844.899 530.651 844.387 531.43 843.897 532.187C843.007 533.589 842.072 534.991 841.071 536.348C840.604 536.993 840.092 537.639 839.58 538.284C838.267 539.975 836.91 541.644 835.419 543.291C835.308 543.402 835.196 543.536 835.085 543.647C833.238 545.65 831.28 547.608 829.188 549.522C791.158 584.325 739.843 583.68 693.068 597.053C680.762 600.569 684.634 616.413 695.85 617.838Z" fill="#FFF7F7"/>
<path opacity="0.5" d="M706.956 1368.67C695.674 1366.09 691.446 1382.07 702.216 1385.87C753.731 1404.01 806.337 1406.83 860.322 1398.75C908.833 1391.48 955.786 1379.11 990.367 1342.12C1061.11 1266.53 1056.08 1155.47 1003.56 1071.53C995.196 1058.15 970.317 1066.77 976.771 1082.83C1006.34 1156.4 1018.43 1251.49 958.479 1313.97C929.483 1344.19 890.274 1354.78 850.442 1362.91C803.8 1372.39 754.11 1379.48 706.956 1368.67Z" fill="#FFF7F7"/>
<path opacity="0.5" d="M594.2 1574.24C568.075 1560.51 541.483 1551.47 517.339 1533.71C492.839 1515.69 471.765 1492.64 455.743 1466.8C440.478 1442.19 429.552 1414.97 424.166 1386.49C416.489 1346.03 422.475 1305.87 422.097 1265.21C422.008 1255.73 407.722 1253.44 405.341 1262.94C397.152 1295.57 393.925 1329.61 396.44 1363.08C396.173 1363.39 395.95 1363.73 395.727 1364.08C375.322 1398.91 387.605 1451.16 405.897 1484.22C424.812 1518.47 455.409 1548.31 494.263 1556.1C497.734 1556.79 500.694 1556.1 502.986 1554.61C527.464 1572.63 558.729 1590.24 589.393 1592.02C598.806 1592.57 602.456 1578.58 594.2 1574.24Z" fill="#FFF7F7"/>
<path opacity="0.5" d="M648.566 1632.18C648.009 1623.46 636.483 1619.59 631.721 1627.62C618.391 1650.03 619.57 1684.43 634.324 1706C647.587 1725.38 674.335 1739.42 696.365 1726.38C699.636 1724.44 701.416 1720.64 701.572 1716.83C705.177 1737.42 725.961 1755.11 747.346 1750.06C754.667 1748.32 756.714 1736.71 749.549 1733.3C734.996 1726.38 724.826 1717.72 719.797 1701.95C717.126 1693.54 704.487 1692.91 702.106 1701.95C701.127 1705.66 700.882 1709.42 701.149 1713.14C700.237 1709.69 697.811 1706.8 693.694 1706.15C678.095 1703.68 664.009 1700.14 655.33 1685.68C645.205 1668.72 649.745 1650.61 648.566 1632.18Z" fill="#FFF7F7"/>
<path opacity="0.5" d="M1014.24 1678.29C1015.56 1677.49 1016.58 1676.33 1017.36 1675.02C1020.43 1681.9 1026.22 1687.59 1033.34 1691.51C1046.18 1698.59 1059.51 1698.56 1071.9 1690.8C1082.29 1684.28 1075.04 1670.59 1064.05 1672.17C1049.94 1674.2 1039.3 1663.56 1030.16 1654.93C1025.71 1650.72 1016.74 1652.01 1015.47 1658.8C1015.31 1659.58 1015.22 1660.36 1015.14 1661.11C1014.2 1660.51 1013.11 1660.07 1011.82 1659.89C1000.72 1658.29 989.166 1653.93 981.4 1645.49C977.439 1641.2 974.457 1635.99 971.787 1630.83C968.382 1624.29 964.977 1619.01 960.771 1612.98C956.121 1606.3 943.592 1607.93 944.149 1617.48C945.284 1636.52 951.448 1654.57 965.2 1668.63C978.04 1681.79 997.511 1688.48 1014.24 1678.29Z" fill="#FFF7F7"/>
<path opacity="0.5" d="M245.455 970.744C194.207 948.558 119.193 980.335 96.94 1030.83C93.2906 1039.1 102.659 1047.67 109.936 1040.86C128.027 1023.93 145.896 1008.28 169.862 1000.34C193.428 992.529 215.191 993.152 239.514 992.618C250.195 992.351 256.759 975.639 245.455 970.744Z" fill="#FFF7F7"/>
<path d="M96.5179 1006.5C74.5544 1040.11 72.3069 1082.83 87.2385 1119.79C103.416 1159.94 137.685 1188.75 182.035 1188.89C216.371 1188.95 244.632 1175.09 270.868 1156.44C258.518 1198.61 269.133 1244.3 319.357 1257.07C347.44 1264.19 376.413 1258.78 402.827 1245.61C395.973 1277.19 390.922 1309.08 385.47 1340.92C379.217 1377.32 371.562 1415.49 381.909 1451.89C399.667 1514.47 456.056 1555.15 514.959 1575.51C553.389 1588.84 594.445 1597.36 635.813 1603.08C611.068 1636.28 603.124 1695.29 633.633 1726.47C647.563 1740.78 668.191 1743.67 686.149 1735.37C687.662 1734.64 689.131 1733.92 690.511 1733.12C696.029 1754.24 720.329 1766.19 743.739 1761.43C752.418 1759.69 760.206 1756.29 767.038 1751.66C773.647 1759.65 783.594 1764.01 795.677 1764.21C817.196 1764.61 835.666 1750.53 849.106 1735.06C864.861 1716.92 876.61 1694.92 883.754 1672C887.715 1659.4 890.096 1646.29 891.409 1633.16C892.165 1625.18 892.098 1616.25 893.122 1607.8C908.499 1605.68 923.831 1603.03 938.985 1599.79C930.996 1629.4 938.54 1677.56 967.446 1688.89C981.933 1694.54 996.219 1691.31 1007.41 1683.23C1013.62 1702.35 1043.44 1709.11 1061.82 1701.95C1076.15 1696.36 1088.06 1684.28 1095.89 1669.79C1105.57 1676.05 1118.79 1675.64 1129.82 1669.66C1149.03 1659.29 1159.29 1636.06 1164.45 1615.94C1170.1 1593.84 1170.59 1570.68 1165.54 1548.36C1162.38 1534.38 1156.73 1514.89 1146.78 1501.58C1189.31 1466.6 1225.07 1423.63 1250.15 1373.36C1302.33 1268.62 1286.66 1147.1 1246.63 1039.28C1255.64 1040.8 1264.92 1040.44 1272.91 1038.15C1288.2 1033.72 1310.9 1016.52 1310.58 999.562C1322.6 998.293 1334.28 994.443 1344.85 988.124C1361.32 978.243 1374.6 962.911 1379.79 944.174C1382.3 935.029 1383.48 922.656 1379.9 913.176C1407.29 905.188 1432.13 889.433 1447.73 867.714C1463.37 845.929 1471.87 815.865 1463.04 789.718C1456.41 770.202 1437.6 757.207 1417.49 753.824C1446.3 700.663 1437.78 626.45 1376.3 598.166C1333.26 578.362 1289.64 594.695 1262.05 630.856C1247.85 649.437 1237.84 670.71 1224.67 689.937C1209.18 712.59 1188.44 729.057 1162.94 739.293C1131.23 752 1096.36 754.136 1062.55 752C1037.88 750.442 1011.6 748.884 986.317 744.812C967.001 737.268 946.974 731.572 926.323 728.011C968.848 709.653 1005.94 676.407 1030.69 638.31C1054.17 602.194 1066.25 561.338 1068.79 519.636C1087.72 514.963 1105.99 506.285 1120.86 496.271C1136.5 485.745 1156.06 470.769 1163.94 453.078C1172.57 433.741 1154.68 418.275 1141.77 406.481C1123.37 389.747 1102.81 375.528 1081.67 362.487C1069.23 354.832 1057.73 345.642 1044.66 339.011C1030.44 331.756 1017.49 333.425 1007.17 319.584C995.418 303.829 982.244 289.165 967.98 275.679C938.94 248.219 905.406 225.611 869.49 208.209C779.388 164.616 677.849 154.936 579.247 165.461C573.573 166.085 567.92 166.797 562.268 167.531C602.256 122.937 576.31 36.5958 525.729 10.8271C498.559 -3.03634 464.222 -3.37021 439.099 15.1441C425.859 24.8685 416.335 38.9101 411.817 54.3312C380.797 24.7128 325.12 27.984 291.875 60.0279C251.419 99.037 242.696 177.968 291.875 208.676C246.257 235.491 226.585 299.245 262.012 344.084C297.06 388.367 362.349 390.392 402.271 355.745C398.421 400.451 395.729 445.245 393.37 490.085C390.966 535.636 389.498 581.365 385.782 626.828C382.399 668.53 376.013 712.39 354.427 749.062C336.87 778.814 308.809 804.984 274.339 812.705C233.038 821.962 193.851 798.441 154.264 790.831C94.4927 779.282 27.8681 812.572 8.84195 872.409C-10.0284 931.713 33.1643 1005.06 96.5179 1006.5ZM871.515 1621.3C869.379 1641.62 866.909 1660.71 859.142 1679.85C851.421 1698.9 839.582 1719.02 823.605 1732.32C811.188 1742.63 793.074 1747.81 777.742 1742.63C792.362 1727.32 799.549 1705.24 796.478 1683.3C795.9 1679.09 790.336 1679.63 788.89 1682.85C779.811 1703.04 770.932 1728.52 749.837 1738.93C731.945 1747.74 711.74 1741 700.636 1725.91C713.765 1714.05 718.927 1697.27 720.708 1678.18C721.108 1673.98 714.9 1671.68 712.719 1675.49C704.886 1689.2 693.737 1708.67 679.451 1716.17C662.472 1725.05 647.452 1716.23 640.041 1700.28C625.777 1669.39 639.93 1635.5 654.372 1607.89C654.773 1607.13 655.062 1606.37 655.285 1605.59C681.12 1608.69 706.955 1610.82 732.212 1612.45C779.321 1615.54 826.92 1615.27 873.963 1610.2C872.739 1613.67 871.938 1617.39 871.515 1621.3ZM1149.79 1585.23C1148.98 1614.09 1135.39 1661.34 1101.19 1658C1106.59 1642.98 1107.84 1626.64 1103.3 1612.65C1101.68 1607.57 1095.24 1607.06 1093.02 1612.02C1083.34 1633.81 1086.57 1659.42 1067.32 1676.76C1050.07 1692.29 1031.58 1687.62 1017.09 1674C1026.46 1662.54 1031.2 1647.01 1027.8 1632.19C1026.59 1626.93 1020.19 1627.36 1018.12 1631.61C1012.95 1642.09 1009.13 1656.06 1000.8 1664.41C989.076 1676.2 971.407 1675.44 962.818 1660.45C951.78 1641.13 956.765 1617.63 953.449 1596.47C954.362 1596.25 955.296 1596.07 956.209 1595.82C1018.69 1580.4 1078.75 1552.9 1130.29 1514.42C1134.03 1520.77 1138.17 1526.97 1140.93 1533.81C1147.43 1550.03 1150.3 1567.81 1149.79 1585.23ZM1040.9 769.646C1073.7 773.896 1107.99 774.831 1140.48 767.621C1165.58 762.036 1189.84 751.799 1210.22 735.978C1231.61 719.399 1245.43 696.568 1259.02 673.67C1272.67 650.705 1287.62 624.135 1314.03 614.166C1342.89 603.24 1377.36 615.212 1395.79 639.178C1415.17 664.391 1417.82 699.884 1406.65 729.079C1395.14 759.009 1370.4 779.883 1347.17 800.578C1343.79 803.559 1346.59 810.013 1351.26 808.7C1374.2 802.269 1392.92 788.383 1406.67 770.514C1423.41 776.567 1440.83 780.35 1445.5 801.223C1451.02 825.768 1437.96 852.004 1420.89 868.871C1402.78 886.807 1378.83 896.064 1353.69 898.445C1327.85 900.96 1303.06 893.839 1277.4 893.483C1273.4 893.438 1271.37 898.668 1274.87 901.026C1298.9 917.182 1329.74 922.011 1359.56 917.649C1360.54 925.816 1362.68 933.716 1359.32 942.862C1353.84 957.86 1340.91 969.209 1326.54 975.462C1311.99 981.782 1296.01 982.605 1280.88 977.887C1269.08 974.216 1259.2 965.626 1246.92 964.069C1244.63 963.779 1243.11 966.094 1243.43 968.096C1246.36 986.566 1269.31 995.467 1285.53 998.605C1288.11 999.117 1290.71 999.517 1293.34 999.762C1287.42 1012.09 1275.51 1020.92 1261.43 1022.95C1253.13 1024.2 1245.76 1022.48 1238.82 1019.46C1233.06 1005.12 1226.89 991.083 1220.42 977.398C1181.18 894.551 1116.58 816.199 1035.96 769.045C1037.65 769.246 1039.28 769.424 1040.9 769.646ZM1035.72 360.351C1053.94 370.476 1071.95 381.291 1089.21 392.974C1106.13 404.412 1127.71 418.053 1139.7 434.987C1147.03 445.401 1139.24 451.387 1131.2 459.487C1123.97 466.786 1116.01 473.284 1107.39 478.825C1091.75 488.95 1074.19 496.071 1055.86 499.409C1031.98 503.792 1006.95 495.826 993.082 475.198C972.097 444.088 985.827 395.132 1004.23 365.781C1013.18 351.539 1022.26 352.874 1035.72 360.351ZM346.461 360.284C322.65 363.4 297.727 353.319 281.461 335.962C244.521 296.552 269.911 231.152 320.047 218.601C329.037 216.354 331.485 201.689 321.204 199.152C262.879 184.643 269.644 109.807 305.271 75.2488C336.113 45.3411 395.484 44.4065 410.482 89.5796C410.994 91.7604 411.572 93.8966 412.284 96.0329C416.379 108.049 435.027 105.001 432.178 91.8272C431.667 89.5129 431.043 87.2875 430.398 85.1068C426.081 63.9221 434.938 42.1367 453.541 29.8755C474.926 15.7895 504.01 19.7059 524.527 33.6139C567.965 63.0766 570.947 128.322 544.733 170.068C526.975 172.783 509.351 176.054 491.86 179.859C469.986 184.621 439.9 187.558 423.856 205.183C409.236 221.227 409.147 248.731 406.766 268.915C404.563 287.74 403.673 306.544 403.183 325.392C386.138 340.479 370.85 357.102 346.461 360.284ZM50.4769 844.46C71.8173 821.718 103.572 808.455 134.77 810.502C173.134 813.017 207.648 834.09 246.101 836.738C306.228 840.833 356.919 796.817 380.952 744.812C413.553 674.226 408.435 588.754 411.884 512.849C414.065 464.984 416.379 417.118 419.472 369.297C420.318 356.412 421.586 343.35 422.877 330.199C423.21 329.62 423.522 329.086 423.856 328.53C425.369 325.592 425.169 322.588 423.9 320.252C425.569 303.896 427.194 287.384 428.173 271.006C428.529 268.403 428.974 265.821 429.375 263.196C431.044 251.58 430.866 233.688 437.43 223.563C447.555 207.987 476.506 205.806 493.107 202.156C516.405 196.971 539.837 192.677 563.514 189.495C652.859 177.411 745.586 182.084 830.214 215.041C896.015 240.631 956.209 283.557 996.286 341.881C988.008 350.271 982.311 362.287 978.039 372.323C958.523 418.186 947.619 482.942 1000.14 513.094C1014.4 521.283 1030.56 524.065 1046.91 523.041C1044.84 550.078 1038.41 576.715 1026.84 601.749C990.545 679.99 909.122 719.689 828.011 734.687C827.21 737.113 828.077 740.717 831.282 741.207C842.052 742.921 852.845 743.455 863.481 742.943C864.283 743.188 865.128 743.343 866.107 743.41C999.824 750.042 1111.58 830.953 1178.02 944.686C1210.71 1000.67 1233.01 1062.23 1247.81 1125.27C1263.12 1190.6 1269.28 1256.76 1248.05 1321.43C1226.02 1388.61 1182.12 1446.02 1127.09 1489.88C1125.71 1490.46 1124.51 1491.33 1123.71 1492.53C1087.34 1520.9 1046.33 1543.49 1003.63 1559.08C874.074 1606.44 730.388 1599.52 596.738 1575.42C525.239 1562.49 444.106 1538.12 409.147 1467.85C390.277 1429.97 397.464 1389.07 403.962 1349.04C410.104 1311.3 416.802 1273.56 420.473 1235.49C433.402 1227.03 445.441 1216.84 456.145 1205.47C457.636 1233.59 472.656 1261.1 500.205 1261.85C558.352 1263.48 584.209 1203.51 592.777 1155.82C593.645 1150.95 585.656 1148.23 583.453 1152.66C568.098 1183.37 553.767 1223.25 519.698 1237.73C511.532 1241.18 497.246 1244.7 489.19 1239.34C481.29 1234.06 478.442 1219.82 476.951 1211.25C474.993 1199.86 476.216 1189.18 477.685 1178.47C488.901 1161.67 497.179 1143.78 501.384 1126.25C502.987 1119.62 493.329 1113.32 489.702 1120.48C461.641 1175.65 410.037 1239.62 341.61 1239.18C305.204 1238.93 283.063 1210.72 286.134 1175.38C289.316 1138.04 319.557 1115.97 336.514 1085.28C337.782 1083.03 335.668 1080.74 333.309 1081.7C310.345 1090.6 291.074 1111.2 279.124 1135.41C253.645 1148.99 226.385 1162.85 198.28 1166.95C156.622 1173 123.021 1151.66 106.91 1113.27C92.9351 1080.07 95.4051 1041.31 117.48 1012.13C128.25 997.87 142.804 987.901 159.07 980.847C172.934 974.817 187.42 971.412 199.214 961.621C200.772 960.308 200.305 957.348 198.235 956.792C166.658 948.625 129.207 968.764 106.999 993.086C37.2365 982.783 0.252438 898.067 50.4769 844.46Z" fill="#3D2938"/>
<path d="M626.156 557.601C628.982 584.482 641.733 605.511 669.237 611.898C701.815 619.441 737.242 608.226 766.749 594.941C794.187 582.568 820.178 565.901 840.139 543.181C879.816 498.03 874.942 432.028 829.391 393.086C807.516 374.394 780.079 363.067 752.708 355.234C724.046 347.067 690.734 337.922 661.249 346.845C627.892 356.97 626.223 392.419 622.573 422.215C618.59 454.904 618.657 486.815 623.375 518.681C623.798 531.877 624.799 544.939 626.156 557.601ZM641.221 436.724C642.779 419.411 643.58 398.182 650.1 381.96C657.978 362.333 680.742 362.222 699.212 364.18C752.952 369.832 829.279 392.953 845.39 451.744C864.906 522.842 788.134 572.154 730.121 589.311C713.209 594.318 694.517 597.767 676.915 594.785C655.174 591.114 647.052 576.538 644.337 556.31C644.048 554.174 643.869 551.993 643.647 549.812C643.758 549.122 643.803 548.388 643.691 547.565C643.18 543.248 642.757 538.886 642.312 534.503C640.999 514.431 640.932 494.225 639.486 474.153C639.575 461.602 640.131 449.096 641.221 436.724Z" fill="#3D2938"/>
<path d="M743.472 957.437C721.22 959.506 694.739 962.443 678.583 979.867C661.56 998.226 662.717 1030.36 659.535 1053.55C650.1 1122.75 649.343 1197.83 643.669 1269.06C642 1290.05 641.199 1312.32 649.544 1332.13C667.724 1375.32 724.09 1385.25 765.592 1386.78C814.503 1388.58 869.134 1381.77 913.395 1359.92C991.858 1321.2 1022.3 1228.52 1013.8 1145.98C1009.3 1102.39 993.883 1057.91 964.153 1025C930.885 988.19 881.262 970.054 833.574 961.309C803.867 955.879 773.603 954.655 743.472 957.437ZM933.956 1024.95C965.555 1050.36 983.313 1089.04 990.901 1128.12C1005.01 1200.84 986.028 1290.25 920.538 1333.15C883.821 1357.21 836.423 1364.73 793.297 1366.91C755.155 1368.82 689.576 1367.73 669.104 1328.03C658.734 1307.85 661.961 1283.04 663.874 1261.34C670.372 1189.15 680.386 1116.21 681.254 1043.75C682.678 1034.61 684.08 1025.46 685.638 1016.32C689.843 991.283 704.441 984.318 727.74 980.468C753.397 976.218 779.811 975.884 805.647 978.51C850.13 982.983 898.574 996.49 933.956 1024.95Z" fill="#3D2938"/>
<path d="M779.123 333.715C782.683 334.872 786.266 335.451 789.827 335.562C791.852 336.118 793.921 336.608 796.08 336.875C819.134 339.879 838.493 323.746 843.011 301.56C847.795 278.194 834.265 256.164 811.389 249.266C788.046 242.189 762.656 253.449 753.243 276.147C743.741 299.179 755.157 325.771 779.123 333.715Z" fill="#3D2938"/>
<path d="M575.041 950.047C576.198 945.552 569.99 941.145 566.652 945.173C559.753 953.563 552.277 962.152 544.332 969.562C537.901 975.593 522.346 990.68 514.424 971.854C511.443 964.734 515.559 954.252 518.564 948.044C528.933 926.592 548.583 917.847 562.691 900.401C564.694 897.886 563.447 894.192 560.043 894.059C525.462 892.545 485.318 946.175 497.401 978.931C503.276 994.908 519.098 1003.16 535.476 997.734C556.26 990.791 569.834 970.141 575.041 950.047Z" fill="#3D2938"/>
<path d="M501.206 872.853C503.164 868.758 498.491 865.153 494.997 868.069C484.983 876.458 473.011 886.36 460.372 890.499C434.136 899.022 429.529 873.254 439.855 855.34C452.739 832.954 476.083 824.609 495.999 810.478C497.334 809.544 497.445 806.985 495.487 806.629C459.415 799.797 411.727 842.522 417.602 880.085C425.635 931.533 486.029 903.984 501.206 872.853Z" fill="#3D2938"/>
<path d="M681.897 908.079C687.26 896.797 692.312 878.906 683.967 868.024C681.319 864.575 674.242 865.02 674.71 870.517C675.911 885.07 667.411 926.037 645.87 904.741C631.606 890.633 636.48 865.042 636.035 846.995C635.968 844.57 633.03 844.014 631.718 845.838C615.384 868.225 620.146 917.692 652.079 924.413C665.341 927.172 676.29 919.806 681.897 908.079Z" fill="#3D2938"/>
<path d="M465.426 573.066C455.123 585.773 444.441 605.044 450.717 621.844C457.504 639.98 477.531 639.98 492.93 633.883C510.02 627.141 522.459 612.498 528.957 595.586C530.27 592.181 525.219 589.422 522.905 592.026C514.671 601.238 505.881 608.359 494.822 613.9C487.523 617.594 471.011 627.074 466.471 611.653C464.869 606.29 469.965 597.344 472.324 593.116C478.154 582.635 486.833 574.201 495.667 566.235C501.587 560.939 510.042 555.887 509.063 547.142C508.952 546.096 508.485 545.473 507.506 545.117C493.576 539.442 473.125 563.542 465.426 573.066Z" fill="#3D2938"/>
<path d="M557.415 604.041C540.458 624.113 533.649 668.685 565.426 679.5C576.641 683.305 588.547 679.211 594.889 669.153C601.854 658.093 598.961 643.651 594.933 632.102C593.709 628.541 588.68 629.209 588.48 632.97C587.745 644.118 584.897 675.139 566.271 663.856C549.715 653.843 556.948 620.441 560.82 605.999C561.287 604.152 558.795 602.417 557.415 604.041Z" fill="#3D2938"/>
<path d="M529.536 412.109C530.671 409.306 526.955 406.924 524.641 408.326C505.147 420.054 489.437 458.662 504.947 478.645C512.357 488.236 525.442 489.126 535.5 483.118C547.65 475.886 551.188 462.178 550.921 448.938C550.854 444.954 545.18 443.085 543.199 446.824C539.973 452.765 537.503 459.53 533.497 465.004C528.379 472.014 519.233 476.687 514.227 465.471C512.78 462.178 513.537 457.238 513.937 453.833C515.762 438.457 523.929 426.084 529.536 412.109Z" fill="#3D2938"/>
<path d="M1022.92 956.166C1037.03 951.671 1044.62 936.761 1044.44 922.609C1044.15 903.293 1031.11 889.229 1015.78 879.594C1011.75 877.124 1007.08 882.02 1009.39 885.981C1014.76 895.193 1022.61 904.962 1025.84 915.198C1028.02 922.097 1028.55 931.243 1022.63 936.828C1015.6 943.548 1006.01 939.053 999.112 934.803C980.464 923.299 972.587 904.829 958.545 889.408C956.765 887.494 953.939 889.118 953.761 891.366C951.447 920.673 991.813 966.046 1022.92 956.166Z" fill="#3D2938"/>
<path d="M1024.26 843.993C1036.96 830.175 1029.78 803.204 1008.77 804.651C1004.18 804.94 1002.38 810.792 1006.45 813.329C1010.66 816.022 1014.67 819.382 1016.07 824.322C1018.07 831.176 1012.97 837.34 1006.17 838.119C996.886 839.142 984.891 831.554 976.836 827.304C973.053 825.301 969.982 829.841 972.474 832.956C984.357 847.843 1007.88 861.751 1024.26 843.993Z" fill="#3D2938"/>
<path d="M520.323 1417.27C510.666 1428.04 491.328 1435.52 481.381 1420.32C472.346 1406.5 482.494 1384.71 489.77 1372.52C500.585 1354.38 520.034 1340.59 527.044 1320.4C527.734 1318.4 525.62 1316.62 523.773 1317.11C488.502 1326.48 452.965 1379.88 459.351 1416.05C465.804 1452.7 519.879 1462.02 530.048 1422.94C531.428 1417.56 524.329 1412.82 520.323 1417.27Z" fill="#3D2938"/>
<path d="M591.529 1482.13C575.774 1485.63 570.411 1467.51 569.855 1455.85C569.054 1438.9 574.105 1422.79 578.244 1406.56C579.513 1401.6 572.503 1396.48 568.876 1401.11C551.563 1423.39 540.793 1472.68 566.762 1493.22C590.194 1511.8 627.445 1491.99 617.565 1461.53C616.074 1456.92 608.53 1456.17 607.44 1461.53C605.793 1469.78 600.631 1480.09 591.529 1482.13Z" fill="#3D2938"/>
<path d="M1160.2 1308.07C1166.37 1329.06 1182.23 1365.44 1156.51 1379.71C1127.29 1395.88 1122.28 1348.86 1113.47 1333.29C1112.34 1331.28 1109.51 1331.86 1108.82 1333.86C1098.96 1363.33 1123.82 1409.35 1159.11 1396.51C1173.33 1391.32 1183.05 1377.24 1185.99 1362.75C1190.35 1341.36 1180.43 1321.51 1168.79 1304.42C1165.9 1300.24 1158.6 1302.71 1160.2 1308.07Z" fill="#3D2938"/>
<path d="M1204.22 1240.25C1198.74 1260.79 1180.27 1263.15 1166.47 1248.57C1161.22 1243.01 1158.17 1237.91 1150.9 1235.29C1149.23 1234.71 1147.85 1236.49 1148.18 1237.98C1155.33 1268.13 1189.8 1288.31 1212.27 1259.36C1237.42 1226.87 1207.38 1178.25 1180 1158.11C1177.11 1155.98 1173.46 1160.12 1175.22 1162.94C1187.77 1183.7 1210.96 1214.97 1204.22 1240.25Z" fill="#3D2938"/>
<path d="M1150.5 1151.7C1173.91 1131.45 1155.04 1099.74 1144.62 1078.54C1142.15 1073.6 1135.83 1077.45 1136.46 1081.98C1138.59 1097.58 1150.25 1114.18 1147.03 1130.03C1144.45 1142.56 1133.9 1147.16 1122.93 1139.31C1115.45 1133.95 1112.29 1122.95 1106.88 1115.9C1105.1 1113.61 1101.3 1114.16 1101.19 1117.41C1100.54 1141.11 1126.91 1172.13 1150.5 1151.7Z" fill="#3D2938"/>
<path d="M1163.76 1045.49C1179.63 1037.26 1175.09 1015.63 1163.83 1005.9C1160.53 1003.08 1155.99 1005.84 1156.75 1010.04C1157.77 1015.78 1166.3 1037.01 1153.17 1034.1C1144.76 1032.25 1139.13 1020.99 1131.49 1016.96C1127.62 1014.89 1124.17 1019.66 1126.91 1022.88C1135.97 1033.41 1146.05 1054.7 1163.76 1045.49Z" fill="#3D2938"/>
<path d="M1071.14 1325.5C1080.69 1326.63 1089.44 1321.76 1093.93 1313.35C1097.74 1306.2 1097.34 1295.01 1088.99 1291.38C1085.54 1289.87 1080.13 1291.49 1080.58 1296.21C1080.94 1300.06 1082 1303.87 1079.42 1307.27C1076.15 1311.63 1071.14 1310.5 1067.18 1307.63C1056.88 1300.26 1056.9 1284.11 1056.84 1272.71C1056.79 1267.75 1049.23 1266.46 1047.98 1271.51C1045.04 1283.77 1042.51 1295.9 1048.27 1307.92C1052.61 1316.97 1060.97 1324.29 1071.14 1325.5Z" fill="#3D2938"/>
<path d="M1059.35 1392.12C1063.2 1409.1 1074.95 1455.85 1045.04 1456.97C1016.69 1458.06 1025.13 1416.47 1022.37 1399.89C1022.01 1397.57 1018.92 1397.66 1017.83 1399.26C1000.85 1424.34 1008.86 1478.37 1048.16 1473.83C1063.53 1472.05 1075.48 1458.84 1079.78 1444.62C1085.92 1424.19 1076.73 1406.19 1066.38 1389.14C1064.11 1385.33 1058.39 1387.85 1059.35 1392.12Z" fill="#3D2938"/>
<path d="M257.585 957.435C277.791 965.557 296.283 957.724 313.373 946.509C317.512 943.816 314.753 938.12 310.102 938.854C289.318 942.192 240.139 948.4 254.87 911.127C263.727 888.763 289.718 888.296 305.674 873.965C307.988 871.851 306.986 867.133 303.715 866.555C271.315 861.081 232.217 890.143 233.641 924.368C234.287 939.321 243.833 951.894 257.585 957.435Z" fill="#3D2938"/>
<path d="M318.2 1030.6C336.136 1062.02 377.014 1044.29 393.927 1022.5C397.086 1018.43 393.304 1013.25 388.475 1015.43C373.565 1022.21 336.292 1046.25 330.551 1015.94C326.478 994.575 349.822 982.67 360.748 968.228C363.507 964.556 358.901 959.26 354.828 960.573C328.281 969.162 302.178 1002.63 318.2 1030.6Z" fill="#3D2938"/>
<path d="M421.432 1086.7C446.934 1104.6 478.088 1070.84 489.259 1050.52C491.328 1046.78 486.744 1043.8 483.674 1046.2C472.814 1054.73 449.961 1078.14 434.895 1075.09C410.084 1070.13 430.712 1038.04 432.87 1024.46C433.338 1021.59 430.4 1018.3 427.463 1020.28C407.102 1034.12 398.757 1070.86 421.432 1086.7Z" fill="#3D2938"/>
<path d="M600.458 1044.8C599.234 1040.15 592.759 1040.55 591.379 1044.8C586.951 1058.22 587.351 1085.08 568.236 1087.04C547.229 1089.17 550.056 1055.79 549.811 1043.53C549.7 1038.64 543.269 1038.17 541.644 1042.4C536.504 1055.97 533.633 1071.46 540.62 1085.03C545.56 1094.69 555.174 1102.39 566.322 1102.59C595.451 1103.26 606.555 1068.23 600.458 1044.8Z" fill="#3D2938"/>
<path d="M521.412 294.416C538.947 305.164 559.887 300.268 575.085 288.029C577.734 285.893 575.419 281.865 572.459 281.754C560.599 281.287 546.401 285.67 535.008 281.198C520.455 275.501 522.057 260.258 531.314 250.355C539.08 242.01 550.54 239.029 561.622 239.496C569.856 239.852 579.269 244.837 587.235 241.81C588.148 241.454 588.904 240.675 588.86 239.629C588.504 223.073 561.979 221.004 550.096 222.606C532.738 224.965 516.783 235.134 509.64 251.468C502.875 266.978 506.391 285.203 521.412 294.416Z" fill="#3D2938"/>
<path d="M553.503 357.881C541.197 342.238 567.611 322.054 578.003 314.155C579.85 312.775 578.915 309.326 576.334 310.127C562.626 314.444 549.364 318.227 541.42 331.579C535.256 341.926 534.165 355.99 541.063 366.248C548.095 376.707 562.003 379.556 573.619 376.485C587.082 372.924 596.384 361.13 602.548 349.381C604.105 346.444 600.768 342.193 597.652 344.441C587.861 351.473 565.341 372.88 553.503 357.881Z" fill="#3D2938"/>
<path d="M463.866 374.66C478.753 379.133 493.885 370.565 503.721 359.862C506.413 356.991 503.832 351.45 499.648 352.852C491.014 355.79 480.155 362.176 470.764 360.841C460.528 359.417 458.125 349.492 460.751 340.813C466.336 322.01 488.589 322.121 502.341 312.686C504.766 311.017 504.922 306.366 501.429 305.721C475.816 301.115 444.128 320.563 444.818 348.446C445.107 360.463 452.094 371.144 463.866 374.66Z" fill="#3D2938"/>
<path d="M1201.17 786.157C1218.92 782.285 1236.9 763.837 1255.77 766.419C1271.66 768.622 1267.52 784.666 1259.65 792.989C1253.79 799.13 1246.32 803.648 1240.2 809.456C1236.9 812.571 1240.42 817.155 1244.27 816.487C1267.81 812.415 1296.34 784.488 1276.14 760.411C1256.62 737.156 1212.23 763.17 1197.96 780.616C1195.91 783.131 1197.78 786.869 1201.17 786.157Z" fill="#3D2938"/>
<path d="M1214.19 845.439C1212.38 846.685 1211.83 849.934 1214.19 851.025C1225.25 855.987 1250.08 852.516 1241.47 872.832C1234.44 889.388 1218.64 889.166 1204.6 895.152C1201.41 896.487 1201.95 901.316 1204.6 902.851C1225.02 914.645 1253.55 890.145 1256.56 869.895C1259.89 847.909 1231.88 833.623 1214.19 845.439Z" fill="#3D2938"/>
</g>
<defs>
<filter id="filter0_d_403_13834" x="0.339844" y="0.797852" width="1470.27" height="1771.42" filterUnits="userSpaceOnUse" color-interpolation-filters="sRGB">
<feFlood flood-opacity="0" result="BackgroundImageFix"/>
<feColorMatrix in="SourceAlpha" type="matrix" values="0 0 0 0 0 0 0 0 0 0 0 0 0 0 0 0 0 0 127 0" result="hardAlpha"/>
<feOffset dy="4"/>
<feGaussianBlur stdDeviation="2"/>
<feComposite in2="hardAlpha" operator="out"/>
<feColorMatrix type="matrix" values="0 0 0 0 0 0 0 0 0 0 0 0 0 0 0 0 0 0 0.25 0"/>
<feBlend mode="normal" in2="BackgroundImageFix" result="effect1_dropShadow_403_13834"/>
<feBlend mode="normal" in="SourceGraphic" in2="effect1_dropShadow_403_13834" result="shape"/>
</filter>
</defs>
</svg>
