<svg width="1346" height="1622" viewBox="0 0 1346 1622" fill="none" xmlns="http://www.w3.org/2000/svg">
<g filter="url(#filter0_d_403_13891)">
<path d="M1261.46 1277.99C1258.37 1252.94 1251.32 1230.15 1241.04 1212.1C1240.1 1210.46 1239.12 1208.9 1238.1 1207.36C1237.77 1206.87 1237.21 1206.54 1236.61 1206.52C1236.01 1206.5 1235.43 1206.72 1235.05 1207.19C1225.48 1218.47 1222.25 1231.95 1225.99 1245.19C1227.22 1249.53 1229.24 1253.43 1231.22 1257.21C1234.89 1264.24 1238.39 1270.92 1235.81 1279.31C1232.38 1290.32 1220.7 1295.31 1215.82 1296.95C1211.13 1298.56 1206.46 1299.16 1201.96 1299.71C1190.55 1301.16 1179.77 1302.54 1176.3 1320.96C1173.43 1336.21 1175.92 1351.61 1178.33 1366.52C1180.82 1381.98 1183.42 1398 1179.93 1413.74C1178.24 1421.35 1175.03 1429.18 1171.16 1435.23C1170.72 1435.92 1171.01 1436.72 1171.52 1437.37C1171.87 1437.81 1172.52 1438.04 1173.14 1438.04C1173.41 1438.04 1173.66 1437.99 1173.9 1437.92C1193.88 1431.07 1211.73 1419.25 1226.93 1402.81C1254.99 1372.37 1267.56 1326.88 1261.46 1277.99Z" fill="#FFBC57"/>
<path d="M1222.5 1191.32C1222.43 1190.78 1222.14 1190.32 1221.72 1190C1210.61 1182.08 1196.79 1178.21 1179.44 1178.21C1179.35 1178.21 1179.26 1178.21 1179.17 1178.21C1148.82 1178.26 1123.85 1182.84 1102.86 1192.23C1084.28 1200.53 1070.15 1213.01 1057.05 1232.69C1056.49 1233.51 1056.67 1234.62 1057.45 1235.24C1089.98 1261.15 1115.1 1304.63 1126.39 1354.52C1132.86 1383.25 1132.51 1412.71 1125.32 1442.11C1125.16 1442.69 1125.32 1443.31 1125.7 1443.78C1126.05 1444.22 1126.61 1444.49 1127.16 1444.49H1127.23C1129.57 1444.4 1131.93 1444.4 1134.26 1444.4C1137.58 1444.42 1141.01 1444.42 1144.48 1444.13L1146.41 1443.91C1146.99 1443.84 1147.5 1443.51 1147.79 1443.02C1149.08 1440.93 1150.42 1438.88 1151.75 1436.85C1156.2 1430.07 1160.83 1423.06 1163.26 1414.25C1167.66 1398.22 1165.28 1381.96 1162.97 1366.22L1161.63 1357.26C1158.25 1335.09 1153.6 1304.76 1172.27 1290.88C1178.17 1286.49 1184.6 1285.87 1191.43 1285.18C1196.5 1284.69 1201.73 1284.18 1206.81 1282.04C1211.64 1280.02 1214.66 1277.39 1216 1274.01C1218.18 1268.51 1215.49 1262.46 1212.64 1256.05C1211.01 1252.4 1209.34 1248.64 1208.65 1245.04C1205.43 1228.28 1209.88 1211.46 1221.14 1197.68C1221.52 1197.21 1221.67 1196.57 1221.52 1195.99C1221.29 1195.12 1221.21 1193.88 1222.1 1192.81C1222.41 1192.39 1222.56 1191.85 1222.5 1191.32Z" fill="#72B84C"/>
<path d="M1030.64 1545.72C1030.84 1545.78 1031.06 1545.83 1031.28 1545.83C1031.68 1545.83 1032.1 1545.7 1032.44 1545.45C1048.35 1533.39 1062.28 1519.5 1073.81 1504.15C1074.27 1503.53 1074.32 1502.66 1073.89 1501.99C1072.89 1500.37 1072.09 1498.54 1071.27 1496.61C1070.2 1494.09 1069.09 1491.51 1067.37 1489.2C1058.76 1477.6 1047.24 1476.31 1034.17 1475.89C1032.19 1475.82 1029.19 1475.2 1026.01 1474.55C1021.04 1473.53 1015.93 1472.48 1012.83 1473.11C1009.87 1473.66 1007.51 1475.49 1006.07 1478.36C1002.22 1485.92 1005.02 1499.25 1008.14 1505.86C1010.14 1510.11 1013.21 1514.79 1016.48 1519.73C1021.6 1527.47 1027.41 1536.26 1029.41 1544.41C1029.57 1545.01 1030.03 1545.52 1030.64 1545.72Z" fill="#FFBC57"/>
<path d="M943.562 1585.7C943.695 1584.95 943.339 1584.17 942.694 1583.77C932.658 1577.49 925.537 1569.53 920.886 1559.36C919.506 1556.33 918.505 1553.06 917.525 1549.92C915.389 1543.02 913.186 1535.88 906.978 1530.69C903.595 1527.85 899.746 1526.13 896.03 1524.49C892.38 1522.86 888.909 1521.33 885.86 1518.79C882.967 1516.39 880.608 1513.38 878.138 1510.22C875.535 1506.88 872.82 1503.44 869.415 1500.74C865.076 1497.32 860.492 1495.98 855.774 1496.71C845.516 1498.36 837.037 1509.62 831.563 1517.92C823.886 1529.49 819.369 1541.67 815.964 1552.04C815.497 1553.41 815.096 1554.75 814.696 1556.06C813.405 1560.25 812.314 1563.87 810.289 1567.12C809.778 1567.95 809.978 1569.04 810.735 1569.64C821.127 1577.76 832.453 1583.52 845.382 1587.28C859.335 1591.36 874.444 1593.4 890.555 1593.4C906.733 1593.4 923.957 1591.36 942.071 1587.24C942.849 1587.08 943.428 1586.46 943.562 1585.7Z" fill="#FFBC57"/>
<path d="M953.863 1569.86C957.423 1571.49 960.761 1573.04 962.831 1575.54C963.788 1576.72 964.477 1577.85 964.967 1579.03C965.278 1579.76 965.991 1580.21 966.747 1580.21C966.947 1580.21 967.17 1580.16 967.37 1580.1C984.839 1574.11 1001.59 1566.03 1017.19 1556.07C1017.88 1555.62 1018.22 1554.8 1018.02 1554C1015.5 1543.63 1009.56 1534.79 1003.82 1526.25C997.278 1516.5 990.513 1506.44 988.933 1494.14C987.108 1479.76 990.201 1457.51 1006.16 1455.19C1011.12 1454.46 1016.37 1455.93 1021.91 1457.46C1025.87 1458.55 1029.97 1459.69 1033.97 1459.96C1036.2 1460.11 1038.33 1460.18 1040.4 1460.27C1048.68 1460.58 1055.8 1460.87 1063.9 1464.92C1071.71 1468.86 1079.72 1476.04 1084.35 1483.21C1084.71 1483.77 1085.31 1484.08 1085.96 1484.08H1086C1086.67 1484.06 1087.27 1483.7 1087.6 1483.12C1113.64 1437.48 1118.36 1387.03 1101.24 1337.16C1085.33 1290.9 1052.24 1234.05 984.928 1226.03C960.027 1223.05 932.344 1225.41 902.637 1233.09C879.984 1238.94 865.364 1250.31 848.296 1263.57C847.695 1264.04 847.428 1264.84 847.628 1265.58C872.574 1358.93 845.47 1466.48 780.18 1533.19C779.535 1533.86 779.446 1534.88 779.98 1535.61C785.654 1543.69 790.661 1550.01 795.735 1555.55C796.247 1556.11 797.048 1556.33 797.76 1556.07C798.472 1555.82 798.984 1555.15 799.05 1554.4C800.586 1533.86 817.542 1508.78 826.288 1498.39C835.478 1487.5 846.894 1480.9 857.619 1480.29C866.076 1479.83 873.953 1482.92 880.963 1489.53C883.166 1491.62 885.057 1494 887.06 1496.54C889.641 1499.79 892.289 1503.15 895.672 1505.82C899.099 1508.51 903.038 1509.91 906.865 1511.25C909.847 1512.32 912.673 1513.3 915.254 1514.88C924.2 1520.35 928.116 1530.16 931.744 1540.84C934.592 1549.19 937.284 1557.07 943.76 1563.61C946.631 1566.52 950.302 1568.22 953.863 1569.86Z" fill="#72B84C"/>
<path d="M777.109 1127.21C770.745 1128.77 764.692 1131.35 758.818 1133.86C757.126 1134.6 755.435 1135.31 753.722 1136.02C753.032 1136.31 752.587 1136.96 752.542 1137.69C752.498 1138.43 752.898 1139.12 753.544 1139.47C771.368 1149.06 787.613 1162.08 801.832 1178.15C802.188 1178.57 802.722 1178.79 803.256 1178.79C803.412 1178.79 803.568 1178.77 803.724 1178.73C804.413 1178.55 804.947 1178.01 805.126 1177.3C805.726 1174.74 806.617 1171.87 807.885 1168.51C809.064 1165.46 813.226 1160.01 817.231 1154.74C825.976 1143.25 831.161 1135.98 829.537 1131.53C824.04 1116.6 784.898 1125.32 777.109 1127.21Z" fill="#72B84C"/>
<path d="M680.422 1540.69C675.504 1526.62 665.379 1520.33 654.675 1513.65L652.784 1512.47C652.339 1512.18 651.782 1512.12 651.271 1512.25C650.759 1512.38 650.314 1512.74 650.069 1513.21C642.97 1526.85 629.152 1532.61 614.843 1527.87C607.188 1525.36 598.888 1519.9 590.832 1512.09C590.276 1511.56 589.497 1511.4 588.785 1511.69C588.696 1511.74 588.473 1511.87 588.407 1511.91C586.983 1512.29 585.625 1512.32 584.201 1512.34C583.066 1512.36 581.953 1512.38 580.774 1512.56C575.723 1513.34 572.496 1514.9 568.758 1516.7C567.467 1517.32 566.087 1517.99 564.507 1518.68C559.767 1520.77 554.56 1522.57 548.619 1521.57C544.48 1520.88 540.875 1519.39 537.403 1517.97C531.751 1515.63 525.943 1513.23 517.977 1514.34C507.073 1515.9 498.06 1521.71 489.604 1532.65C489.271 1533.08 489.137 1533.61 489.226 1534.15C489.315 1534.68 489.627 1535.15 490.072 1535.44C535.111 1564.54 582.51 1579.87 626.214 1579.87C635.049 1579.87 643.749 1579.25 652.228 1577.98C665.446 1576 678.575 1572.62 691.237 1567.95C691.838 1567.72 692.305 1567.21 692.438 1566.57C692.572 1565.94 692.394 1565.28 691.926 1564.81C686.808 1559.58 684.249 1552.01 681.557 1544L680.422 1540.69Z" fill="#FFBC57"/>
<path d="M418.217 1470.1C418.262 1470.1 418.306 1470.1 418.351 1470.1C418.84 1470.1 419.33 1469.9 419.686 1469.55C422.312 1466.94 425.316 1463.85 427.496 1460.02C435.285 1446.45 431.302 1433.94 425.805 1422.46L425.071 1420.88C419.263 1408.73 413.789 1397.27 416.148 1383.67C416.993 1378.87 419.396 1373.39 421.933 1367.61C428.075 1353.61 435.04 1337.77 419.931 1327.89C408.114 1320.14 395.586 1324.41 383.481 1328.53C379.831 1329.78 376.071 1331.05 372.466 1331.96C371.642 1332.16 371.041 1332.89 371.019 1333.76C369.617 1381.43 385.483 1428.31 416.837 1469.32C417.171 1469.79 417.661 1470.08 418.217 1470.1Z" fill="#FFBC57"/>
<path d="M696.085 1537.82C698.221 1544.94 700.646 1552.99 707.656 1555.49C709.036 1555.97 710.215 1556.75 711.216 1557.82C711.595 1558.22 712.107 1558.42 712.618 1558.42C712.908 1558.42 713.219 1558.36 713.486 1558.22C756.234 1536.5 791.371 1500.21 812.489 1456.04C843.798 1390.53 846.402 1308.57 819.276 1242.14C804.344 1205.61 780.69 1176.92 750.871 1159.19C715.177 1137.93 679.907 1140.89 645.771 1143.79C645.326 1143.83 644.903 1144.03 644.57 1144.34C644.369 1144.54 644.191 1144.83 644.102 1145.14C628.503 1182.84 592.031 1212.24 561.99 1233.64C527.008 1258.52 488.778 1275.43 451.438 1282.51C427.739 1287.03 403.839 1287.81 380.407 1284.82C379.45 1284.74 378.582 1285.29 378.315 1286.2C375.645 1295.64 373.642 1305.54 372.374 1315.62C372.285 1316.36 372.619 1317.09 373.264 1317.47C373.887 1317.87 374.688 1317.85 375.311 1317.47C392.69 1306.25 417.347 1306.72 432.679 1318.56C444.539 1327.73 448.122 1341.81 442.715 1358.26C441.491 1361.93 440.178 1365.31 438.909 1368.58C433.947 1381.38 429.652 1392.42 437.196 1408.68C438.086 1410.62 439.021 1412.56 439.955 1414.45C443.983 1422.73 447.788 1430.51 448.456 1439.64C449.502 1453.7 442.959 1473.48 430.231 1482.21C429.764 1482.52 429.474 1483.01 429.407 1483.56C429.341 1484.12 429.519 1484.65 429.897 1485.08C436.039 1491.84 442.403 1498.23 448.857 1504.04C457.402 1511.69 466.548 1519.06 476.049 1525.93C476.494 1526.27 477.095 1526.38 477.629 1526.25C478.163 1526.11 478.631 1525.73 478.876 1525.24C486.286 1510.29 501.818 1500.14 519.42 1498.76C525.406 1498.3 531.347 1499.76 537.066 1501.17C544.454 1502.99 552.109 1504.88 560.231 1502.84C563.458 1502.01 566.173 1500.97 568.799 1499.94C570.98 1499.1 573.027 1498.3 575.163 1497.74C575.764 1497.58 576.254 1497.14 576.476 1496.56C576.699 1495.98 576.609 1495.31 576.253 1494.8C562.256 1474.53 549.995 1443.15 561.455 1421.46C561.567 1421.26 561.923 1421.23 561.923 1421.23C562.101 1421.23 562.345 1421.3 562.434 1421.5C566.44 1428.73 569.066 1436.79 571.647 1444.6C573.917 1451.5 576.253 1458.62 579.525 1465.29C590.428 1487.53 601.065 1501.1 612.036 1506.8C619.001 1510.42 624.742 1511 629.059 1508.53C637.538 1503.68 638.339 1488.64 638.984 1476.58C639.184 1472.97 639.363 1469.57 639.741 1467.07C642.411 1449.72 650.266 1435.1 657.565 1423.06C658.433 1421.63 659.568 1421.79 660.169 1422.01C661.192 1422.39 662.171 1423.5 661.882 1425.06C659.924 1436.39 659.256 1448.36 658.611 1459.93C657.899 1472.82 657.165 1486.15 654.628 1498.58C654.516 1499.12 654.65 1499.68 654.961 1500.1C655.273 1500.52 655.763 1500.81 656.319 1500.88C667.023 1501.95 676.102 1508.62 681.799 1514.05C686.672 1518.7 690.789 1524.6 693.726 1531.1C694.616 1532.92 695.328 1535.3 696.085 1537.82Z" fill="#72B84C"/>
<path d="M640.319 953.815C639.607 953.548 638.806 953.749 638.272 954.305C637.76 954.861 637.605 955.662 637.916 956.374C644.08 970.705 648.575 986.393 651.245 1002.99C652.18 1008.94 652.936 1015.19 653.604 1022.11C653.671 1022.75 654.027 1023.31 654.606 1023.62C654.895 1023.78 655.206 1023.84 655.518 1023.84C655.83 1023.84 656.119 1023.78 656.408 1023.62C659.056 1022.22 661.927 1020.97 664.953 1019.91C666.6 1019.31 668.58 1018.66 670.717 1017.97C681.977 1014.3 697.42 1009.25 699.623 999.411C700.758 994.338 698.176 988.752 691.946 982.833C680.396 971.907 664.775 964.341 649.777 957.509C646.728 956.13 643.479 954.973 640.319 953.815Z" fill="#72B84C"/>
<path d="M129.355 1255.5C116.604 1255.27 105.634 1259.83 99.2473 1268.11C90.9693 1278.84 90.5909 1293.3 98.2681 1306.79C106.524 1321.27 121.522 1330.66 135.786 1330.66C137.077 1330.66 138.345 1330.6 139.614 1330.44C152.988 1328.77 163.647 1321.05 168.854 1309.26C174.15 1297.2 172.548 1283.29 164.537 1272.03C157.638 1262.26 143.82 1255.78 129.355 1255.5Z" fill="#FFBC57"/>
<path d="M37.3149 995.429C42.0325 998.277 47.5734 999.702 53.4704 999.702C58.7665 999.702 64.3742 998.544 69.9596 996.252C83.3335 990.711 93.8371 979.674 96.7077 968.103C100.068 954.662 96.5074 941.11 87.1612 931.808C78.0376 922.707 65.3311 919.414 52.2687 922.729C37.2703 926.557 24.9647 941.8 22.3166 959.78C20.0914 975.112 25.6767 988.442 37.3149 995.429Z" fill="#FFBC57"/>
<path d="M174.614 1262.28C175.171 1262.28 175.682 1262.06 176.038 1261.66C183.493 1253.41 198.959 1248.06 210.263 1244.17C212.889 1243.26 215.27 1242.43 217.228 1241.7C220.099 1240.61 223.303 1239.27 226.73 1237.83C236.143 1233.91 247.87 1229.04 258.841 1226.59C259.509 1226.43 260.043 1225.95 260.243 1225.3C260.443 1224.65 260.287 1223.94 259.842 1223.43C255.948 1219.16 252.321 1214.77 249.05 1210.41C247.114 1207.83 245.289 1205.18 243.464 1202.51C243.175 1202.07 242.685 1201.78 242.174 1201.71C241.662 1201.65 241.106 1201.78 240.705 1202.11C235.676 1206.14 229.645 1209.46 223.815 1212.68C219.52 1215.04 215.07 1217.49 211.087 1220.2C199.293 1228.3 188.389 1237.65 177.841 1246.68C174.859 1249.24 171.855 1251.8 168.829 1254.36C168.406 1254.72 168.161 1255.23 168.139 1255.79C168.139 1256.34 168.361 1256.88 168.762 1257.23C170.119 1258.46 171.521 1259.88 173.19 1261.66C173.568 1262.06 174.08 1262.28 174.614 1262.28Z" fill="#5EAB47"/>
<path d="M111.175 973.532C110.685 973.287 110.128 973.265 109.617 973.465C109.105 973.666 108.727 974.066 108.526 974.556C107.748 976.603 106.924 978.472 106.034 980.23C105.789 980.72 105.767 981.298 105.967 981.81C106.19 982.322 106.59 982.723 107.124 982.901C110.818 984.169 114.49 985.46 118.162 986.728C131.313 991.334 144.91 996.119 158.907 999.345C163.624 1000.44 168.698 1001.1 173.593 1001.73C178.979 1002.44 184.542 1003.15 189.727 1004.46C189.838 1004.49 189.949 1004.51 190.061 1004.51C190.528 1004.51 190.973 1004.29 191.351 1004.02C191.818 1003.66 192.085 1002.99 192.108 1002.42C192.174 999.479 192.264 996.519 192.375 993.604C192.597 988.797 192.953 983.969 193.332 979.095C193.376 978.539 193.176 978.005 192.798 977.604C192.397 977.204 191.863 977.004 191.307 977.048C182.895 977.582 174.283 977.404 166.673 977.248C163.09 977.182 159.752 977.115 156.748 977.115C154.679 977.137 152.164 977.226 149.405 977.337C138.167 977.805 121.166 978.494 111.175 973.532Z" fill="#5EAB47"/>
<path d="M407.201 1268.2C410.717 1268.2 414.233 1268.11 417.793 1267.93C418.795 1267.89 419.574 1267.09 419.596 1266.09L419.685 1263.97C419.996 1256.87 420.308 1249.53 412.764 1241.5C410.784 1239.36 408.803 1237.54 406.89 1235.78C402.372 1231.62 398.478 1228.01 395.83 1221.92C393.827 1217.33 392.915 1212.41 392.025 1207.67C390.756 1200.84 389.443 1193.77 384.926 1187.29C379.697 1179.77 372.287 1175.63 365.121 1171.62L362.206 1169.98C361.361 1169.49 360.292 1169.73 359.714 1170.49L358.623 1171.98C357.911 1172.98 357.177 1173.98 356.398 1174.94C350.902 1181.68 343.803 1185.51 336.415 1185.69C329.25 1185.93 322.351 1182.66 316.654 1176.39C314.474 1173.98 312.538 1171.25 310.758 1168C310.268 1167.08 309.111 1166.73 308.199 1167.22C302.813 1170.04 296.583 1171.98 290.53 1173.83C287.348 1174.81 284.344 1175.74 281.562 1176.76L281.117 1176.92C273.239 1179.84 264.316 1183.13 255.949 1183.53C255.259 1183.57 254.659 1183.95 254.347 1184.58C254.035 1185.18 254.08 1185.91 254.436 1186.49C258.642 1192.94 262.692 1198.59 266.831 1203.73C300.076 1245.06 350.768 1268.2 407.201 1268.2Z" fill="#FFBC57"/>
<path d="M239.727 880.18C238.904 880.068 238.081 880.491 237.725 881.248C218.965 920.813 209.753 966.298 210.354 1016.46C210.643 1044.29 213.491 1071.13 218.854 1096.19C218.988 1096.81 219.411 1097.3 219.989 1097.54C220.234 1097.66 220.479 1097.7 220.724 1097.7C221.08 1097.7 221.435 1097.59 221.747 1097.39C234.921 1088.91 238.593 1076.45 242.353 1059.76L242.509 1059.05C244.645 1049.55 246.314 1042.02 254.948 1037.51C256.595 1036.64 258.509 1036.26 260.556 1035.86C262.67 1035.44 264.851 1035.01 266.854 1033.99C278.714 1027.83 279.471 1016.26 278.625 1005.75C277.624 993.135 273.418 980.629 269.368 968.523C268.411 965.653 267.454 962.827 266.564 960C263.783 951.389 260.423 942.621 257.174 934.143C250.654 917.164 243.933 899.584 241.307 881.782C241.196 880.959 240.551 880.313 239.727 880.18Z" fill="#FFBC57"/>
<path d="M583.556 913.825C582.911 913.291 581.954 913.247 581.264 913.736C571.718 920.301 561.459 925.998 550.755 930.648C441.762 977.98 333.413 908.039 278.871 823.012C278.537 822.5 278.004 822.188 277.403 822.144C276.757 822.077 276.223 822.344 275.823 822.811C270.66 828.775 265.586 835.273 260.713 842.082C260.557 842.305 260.446 842.527 260.401 842.794C260.001 844.619 259.556 846.444 259.111 848.269C257.753 853.787 256.351 859.506 256.374 865.381C256.44 882.538 262.783 898.76 268.902 914.448L270.638 918.921C272.507 923.728 274.532 928.735 276.602 933.853C286.971 959.377 298.721 988.305 297.43 1014.32C297.029 1022 294.915 1033.03 286.971 1041.96C283.389 1046.01 279.227 1048.9 273.909 1051.1L272.485 1051.68C264.54 1054.91 263.695 1055.46 260.379 1064.72C259.178 1068.04 258.065 1071.42 256.952 1074.78C250.855 1093.25 245.092 1110.67 225.509 1115.41C224.997 1115.52 224.575 1115.86 224.308 1116.3C224.041 1116.75 223.974 1117.28 224.13 1117.79C229.315 1136.06 236.102 1153.27 244.268 1168.91C244.691 1169.71 245.603 1170.11 246.493 1169.87C249.72 1168.95 252.924 1168.09 256.129 1167.22C265.72 1164.61 275.645 1161.92 285.414 1158.18C287.394 1157.43 289.375 1156.56 291.4 1155.69C295.094 1154.11 298.899 1152.49 302.659 1151.37C303.616 1151.11 304.217 1150.11 303.995 1149.13C300.835 1134.91 300.835 1119.95 301.391 1109.92C302.615 1087.82 306.175 1061.38 322.932 1053.17C323.599 1052.86 324.423 1052.84 325.046 1053.15C325.468 1053.35 325.736 1053.68 325.847 1054.17C327.894 1063.21 325.157 1072.98 322.487 1082.41C321.018 1087.6 319.505 1092.98 318.793 1098.21C316.924 1111.76 315.01 1137.09 323.355 1154.6C327.672 1163.63 331.699 1167.95 336.017 1168.2C341.468 1168.46 345.452 1162.12 349.279 1155.94C350.28 1154.33 351.259 1152.73 352.283 1151.26C356.222 1145.54 360.495 1139.8 365.323 1133.66C375.827 1120.51 386.352 1110.83 399.481 1102.28C401.595 1100.93 404.11 1101.97 405.578 1103.53C406.179 1104.18 407.982 1106.45 406.202 1108.83C397.835 1120.02 389.223 1130.52 380.856 1140.65C376.806 1145.59 373.223 1150.93 370.174 1155.53C369.818 1156.07 369.752 1156.74 369.996 1157.32C370.241 1157.89 370.753 1158.34 371.354 1158.45C389.312 1162.32 403.22 1186.09 408.538 1206.52C410.986 1215.84 416.883 1222.2 422.602 1228.37C428.165 1234.38 433.439 1240.03 435.776 1248.28C437.289 1253.65 437.867 1258.97 437.422 1263.64C437.378 1264.22 437.578 1264.8 438.023 1265.22C438.379 1265.55 438.846 1265.73 439.336 1265.73C439.447 1265.73 439.536 1265.73 439.625 1265.71C446.39 1264.62 452.532 1263.37 458.384 1261.88C492.275 1253.36 525.699 1236.94 557.743 1213.1C587.495 1190.98 619.272 1163.63 629.53 1128.34C642.17 1084.57 635.872 1030.03 632.557 1008.62C628.128 979.916 616.023 940.173 583.556 913.825Z" fill="#72B84C"/>
<path d="M664.601 791.926C664.156 791.303 663.4 790.969 662.666 791.125C661.909 791.258 661.33 791.837 661.152 792.594C655.834 816.604 646.51 839.124 633.403 859.508C633.092 859.975 633.025 860.576 633.18 861.11C633.358 861.644 633.737 862.089 634.271 862.312C638.722 864.159 643.083 866.851 647.111 869.499C648.268 870.256 649.803 871.502 651.561 872.948C656.946 877.332 663.845 882.984 670.142 882.984C671.967 882.984 673.725 882.517 675.394 881.404C682.114 876.865 682.159 863.647 682.203 855.747V854.078C682.359 836.343 678.331 818.34 670.543 801.984C669.096 798.913 667.249 795.82 664.601 791.926Z" fill="#72B84C"/>
<path d="M103.027 826.217C105.386 826.618 107.745 826.84 110.037 826.84C120.607 826.84 130.242 822.523 137.14 814.512C145.752 804.521 148.267 790.724 143.883 777.572C140.1 766.268 128.773 756.054 115.021 751.559C102.894 747.598 91.055 748.8 82.5545 754.852C71.4949 762.73 66.933 776.46 70.3599 791.614C74.3654 809.327 87.8061 823.569 103.027 826.217Z" fill="#FFBC57"/>
<path d="M155.169 770.208C155.391 770.697 155.836 771.075 156.348 771.231C156.526 771.298 156.726 771.32 156.904 771.32C157.26 771.32 157.594 771.231 157.883 771.053C167.452 765.312 184.498 764.689 195.78 764.266C198.539 764.177 201.009 764.088 203.079 763.932C206.061 763.71 209.421 763.376 213.004 763.02C223.373 761.996 235.1 760.817 246.071 761.484C246.694 761.507 247.317 761.24 247.718 760.728C248.096 760.216 248.207 759.548 248.007 758.948C245.27 750.848 242.889 742.369 240.909 733.735C240.775 733.179 240.419 732.711 239.907 732.444C239.395 732.2 238.795 732.177 238.283 732.4C232.007 735.115 224.797 736.628 217.832 738.075C213.026 739.076 208.063 740.122 203.479 741.546C189.95 745.796 176.954 751.515 164.381 757.034C160.643 758.681 156.904 760.305 153.121 761.929C152.609 762.152 152.231 762.575 152.053 763.087C151.875 763.598 151.942 764.177 152.231 764.644C153.322 766.536 154.279 768.338 155.169 770.208Z" fill="#5EAB47"/>
<path d="M282.876 749.336C283.588 742.949 284.255 736.896 287.638 731.311C289.084 728.952 291.51 726.727 294.069 724.39C298.274 720.54 302.614 716.579 303.437 711.127C305.084 700.424 295.448 687.05 289.084 678.216L288.15 676.925C285.568 673.365 282.386 669.359 279.026 665.131C272.795 657.276 265.719 648.397 259.955 639.14C259.533 638.45 258.709 638.094 257.93 638.272C257.152 638.428 256.551 639.095 256.439 639.874C253.235 663.44 252.679 685.893 254.815 706.61C257.04 727.684 262.47 748.802 270.97 769.341C271.082 769.586 271.215 769.808 271.393 769.986C271.482 770.075 271.883 770.387 271.994 770.453C272.328 770.654 272.684 770.765 273.04 770.765C273.619 770.765 274.175 770.52 274.553 770.031C275.221 769.185 275.821 768.428 276.378 767.761C279.738 763.622 281.273 761.753 282.319 754.009C282.542 752.429 282.72 750.871 282.876 749.336Z" fill="#FFBC57"/>
<path d="M407.38 474.648C402.463 486.487 395.052 497.168 387.887 507.494C383.837 513.346 379.653 519.399 375.915 525.652C366.88 540.739 365.523 554.981 364.099 570.091C363.609 575.298 363.097 580.705 362.252 586.291C359.915 601.712 350.68 613.795 337.551 618.646C324.734 623.364 310.714 620.315 299.098 610.257C288.662 601.222 280.517 587.247 276.133 570.936C275.911 570.113 275.177 569.534 274.331 569.512C273.508 569.49 272.729 570.024 272.462 570.847C268.657 582.708 265.363 594.635 262.671 606.251C262.604 606.563 262.604 606.897 262.693 607.208C264.651 613.995 266.654 619.18 269.191 624.009C274.554 634.245 281.919 643.124 289.062 651.691L291.621 654.785C303.749 669.427 317.501 686.027 320.083 705.454C321.218 713.754 320.194 719.852 316.723 725.192C315.387 727.284 313.607 728.975 311.738 730.755C310.514 731.913 309.29 733.092 308.177 734.383C302.147 741.281 300.7 748.335 299.588 756.168C297.496 770.677 293.557 781.358 281.185 786.298C280.673 786.499 280.295 786.899 280.095 787.411C279.917 787.923 279.939 788.479 280.184 788.946C298.52 824.306 325.401 856.328 357.935 881.607C396.343 911.448 438.423 926.624 479.279 926.624C508.452 926.624 537.003 918.88 563.105 903.192C619.694 869.19 651.716 803.388 646.642 731.49C646.575 730.711 646.064 730.043 645.307 729.799C572.629 706.745 519.868 632.754 496.77 576.41C469.354 509.652 465.504 433.125 486.489 371.685C486.667 371.173 486.622 370.595 486.333 370.105C486.044 369.615 485.599 369.282 485.042 369.193C456.626 363.652 427.497 369.816 398.457 387.484C397.945 387.796 397.611 388.352 397.545 388.953C397.478 389.554 397.723 390.155 398.168 390.555C418.173 408.335 416.994 451.506 407.38 474.648ZM369.929 663.93C368.171 670.339 366.346 676.97 365.189 683.602C361.717 703.229 361.072 722.233 363.231 740.035C364.01 746.599 366.813 751.829 370.908 754.388C374.112 756.391 377.984 756.702 382.101 755.278C384.638 754.41 387.308 751.762 389.667 749.425C390.757 748.357 391.759 747.356 392.649 746.666C398.479 741.993 404.354 737.565 410.118 733.47C424.048 723.612 436.643 717.871 455.023 712.953C456.425 712.575 457.805 713.599 458.406 714.756C458.74 715.379 459.096 716.58 457.938 717.56C445.9 727.507 433.327 737.031 421.133 746.221C411.608 753.409 401.773 760.841 392.204 768.474C383.926 775.061 375.425 778.065 368.26 776.885C362.519 775.951 357.601 772.39 353.64 766.293C340.822 746.577 345.674 711.462 348.01 694.595C350.747 674.723 356.533 646.662 374.802 632.22C374.936 632.109 375.069 632.065 375.225 632.065C375.425 632.065 375.648 632.176 375.848 632.421C375.67 642.991 372.755 653.65 369.929 663.93Z" fill="#72B84C"/>
<path d="M286.281 533.506C286.17 533.773 286.125 534.04 286.125 534.329C287.393 561.344 291.555 588.114 313.029 600.931C317.969 603.869 322.486 605.36 326.514 605.36C329.028 605.36 331.365 604.781 333.501 603.624C344.16 597.861 346.475 579.435 346.897 568.954C347.431 555.558 348.611 545.122 352.816 534.418C357.556 522.335 365.167 511.475 372.51 500.972C380.299 489.868 388.354 478.363 393.183 465.279C398.591 450.57 398.946 434.192 394.162 419.171C392.716 414.609 390.78 410.47 388.911 406.487C387.753 404.039 386.618 401.591 385.595 399.077C385.372 398.52 384.905 398.098 384.326 397.942C383.77 397.786 383.147 397.897 382.657 398.253C353.106 420.729 324.823 455.354 305.062 493.25C298.208 506.402 291.889 519.931 286.281 533.506Z" fill="#FFBC57"/>
<path d="M289.485 346.517C288.973 346.316 288.417 346.361 287.927 346.606C286.147 347.518 284.3 348.386 282.23 349.209C281.719 349.41 281.318 349.832 281.14 350.344C280.962 350.856 281.006 351.435 281.273 351.924C283.232 355.396 285.145 358.867 287.059 362.316C293.757 374.444 300.7 386.995 308.934 398.7C311.715 402.638 315.053 406.51 318.28 410.271C321.573 414.098 324.978 418.037 327.826 422.109C328.16 422.577 328.694 422.888 329.295 422.91C329.34 422.91 329.362 422.91 329.406 422.91C329.962 422.91 330.474 422.666 330.853 422.265C335.993 416.39 341.356 410.738 346.764 405.509C347.164 405.131 347.364 404.596 347.342 404.04C347.32 403.484 347.053 402.972 346.63 402.638C340.555 397.743 334.769 392.357 329.651 387.573C326.958 385.059 324.444 382.722 322.174 380.697C320.594 379.295 318.614 377.671 316.433 375.868C307.242 368.302 294.648 357.91 290.553 347.563C290.397 347.118 289.997 346.717 289.485 346.517Z" fill="#5EAB47"/>
<path d="M244.713 337.08C250.254 339.016 256.04 339.973 261.625 339.973C269.814 339.973 277.558 337.926 283.411 333.965C294.871 326.198 301.257 313.715 300.501 300.563C299.766 287.679 292.467 276.731 280.518 270.477C266.81 263.357 247.495 266.494 233.52 278.155C221.615 288.102 216.897 301.765 220.903 314.738C223.996 324.708 232.674 332.852 244.713 337.08Z" fill="#FFBC57"/>
<path d="M925.912 106.765C925.69 106.275 925.267 105.919 924.733 105.764C922.552 105.096 920.616 104.428 918.858 103.716C918.347 103.516 917.768 103.538 917.279 103.783C916.789 104.028 916.433 104.473 916.299 105.007C915.298 108.968 914.252 112.907 913.206 116.823C909.69 130.13 906.041 143.882 903.949 157.924C903.214 162.708 902.947 167.849 902.703 172.833C902.369 178.997 902.035 185.384 900.833 191.259C900.722 191.77 900.833 192.282 901.123 192.705C901.412 193.128 901.857 193.417 902.369 193.506C911.537 195.153 919.837 196.866 927.759 198.758C927.915 198.802 928.049 198.802 928.205 198.802C928.694 198.802 929.184 198.602 929.54 198.246C930.007 197.779 930.207 197.111 930.074 196.466C927.782 185.918 927.136 174.391 926.558 164.222C926.358 160.528 926.157 157.056 925.89 154.008C925.712 151.916 925.423 149.401 925.089 146.62C923.687 134.781 921.774 118.581 925.957 108.278C926.157 107.811 926.157 107.254 925.912 106.765Z" fill="#5EAB47"/>
<path d="M760.108 284.742C749.405 276.397 734.94 275.952 721.433 283.562C705.589 292.486 695.775 309.465 697.6 324.819C699.18 338.193 706.835 348.874 718.607 354.126C723.347 356.24 728.398 357.286 733.45 357.286C741.216 357.286 749.048 354.816 755.902 350.009C765.649 343.155 772.191 329.381 772.57 314.916C772.881 302.188 768.342 291.173 760.108 284.742Z" fill="#FFBC57"/>
<path d="M858.467 248.848C863.006 260.397 865.565 272.013 868.258 284.319C868.814 286.833 869.37 289.37 869.949 291.907L870.083 292.508C871.997 300.853 874.889 313.492 888.241 311.067C891.668 310.466 895.273 308.196 898.767 306.016C901.415 304.369 904.152 302.655 906.533 301.854C920.597 297.114 935.995 296.981 949.859 301.454C957.67 303.946 965.035 308.04 972.134 312.001C979.544 316.14 987.221 320.413 995.566 322.994C1000.95 324.663 1006.49 325.509 1012.06 325.509C1022.74 325.509 1033.51 322.46 1043.52 316.474C1052.11 311.334 1057.05 304.102 1061.83 297.114C1063.19 295.134 1064.55 293.153 1066 291.217C1066.6 290.416 1066.46 289.304 1065.71 288.636C1063.24 286.477 1060.77 284.386 1058.23 282.361C1026.36 256.459 988.112 236.676 944.518 223.613C909.626 213.155 872.642 207.28 834.567 206.123C833.722 206.056 833.01 206.59 832.72 207.369C832.431 208.148 832.676 208.993 833.299 209.527C845.137 219.163 853.504 236.231 858.467 248.848Z" fill="#FFBC57"/>
<path d="M930.253 93.4999C932.567 93.8782 934.859 94.0785 937.129 94.0785C948.255 94.0785 958.603 89.4944 965.701 81.1496C974.046 71.3361 976.36 58.4072 972.043 45.6342C967.059 30.9918 950.903 19.91 932.767 18.6861C917.302 17.618 904.439 24.2493 898.364 36.3771C893.691 45.7455 894.337 57.6507 900.122 69.0219C906.687 81.9062 918.503 91.5194 930.253 93.4999Z" fill="#FFBC57"/>
<path d="M449.527 199.871C452.798 200.805 456.158 201.273 459.473 201.273C468.998 201.273 478.388 197.534 485.865 190.502C494.566 182.335 499.083 167.76 497.392 153.385C495.901 140.723 489.848 130.487 480.769 125.302C468.975 118.559 454.6 120.183 442.272 129.663C427.852 140.745 420.576 158.926 424.581 173.857C428.053 186.853 437.132 196.355 449.527 199.871Z" fill="#FFBC57"/>
<path d="M496.861 199.112C496.928 199.646 497.239 200.136 497.684 200.425C506.875 206.678 514.262 221.231 519.648 231.868C520.916 234.361 522.073 236.63 523.074 238.477C524.543 241.125 526.279 244.063 528.126 247.223C533.578 256.458 540.365 267.962 544.237 278.933C544.459 279.534 544.949 280.001 545.594 280.157C545.75 280.201 545.906 280.223 546.039 280.223C546.506 280.223 546.974 280.045 547.33 279.712C553.961 273.57 561.082 267.628 568.492 262.065C568.96 261.709 569.249 261.153 569.249 260.552C569.249 259.951 568.982 259.395 568.515 259.017C562.506 254.277 557.544 247.601 552.715 241.125C549.778 237.164 546.729 233.07 543.502 229.509C533.956 218.984 523.253 209.504 512.883 200.358C509.879 197.688 506.852 195.018 503.848 192.325C503.447 191.947 502.891 191.791 502.335 191.858C501.779 191.925 501.289 192.236 500.977 192.703C499.932 194.283 498.752 195.841 497.239 197.643C496.928 198.044 496.772 198.578 496.861 199.112Z" fill="#5EAB47"/>
<path d="M515.504 352.793C512.589 358.623 509.896 364.809 507.27 371.707C507.226 371.841 507.181 371.997 507.159 372.153C505.913 382.01 504.689 392.603 504.044 403.217C504.021 403.573 501.974 439.578 515.281 446.655C516.75 447.434 518.33 447.834 519.999 447.834C523.292 447.834 526.964 446.299 530.947 443.25C539.604 436.597 542.608 423.979 545.256 412.83C546.524 407.534 547.703 402.505 549.395 398.411C554.424 386.061 560.988 378.183 569.489 374.378C573.917 372.375 578.301 372.152 582.952 371.908C585.422 371.774 587.981 371.641 590.629 371.24C608.32 368.548 613.861 355.174 617.688 342.823C618.823 339.129 619.825 335.48 620.826 331.853C624.476 318.679 627.903 306.218 636.225 294.691C641.766 287.036 648.464 280.071 654.94 273.328C659.613 268.455 664.464 263.426 668.87 258.129C676.503 248.983 682.155 239.259 688.23 228.377C688.608 227.71 688.541 226.842 688.052 226.241C687.562 225.618 686.739 225.373 686.005 225.618C604.604 250.408 544.032 295.581 515.504 352.793Z" fill="#FFBC57"/>
<path d="M783.454 395.828C784.344 398.476 785.168 400.879 785.902 402.837C786.993 405.752 788.328 409.023 789.774 412.517C793.802 422.331 798.364 433.479 800.745 444.294C800.878 444.939 801.368 445.474 801.991 445.696C802.191 445.763 802.392 445.807 802.614 445.807C803.059 445.807 803.504 445.652 803.838 445.362C810.625 439.643 817.701 434.191 824.844 429.162C825.267 428.873 825.556 428.383 825.645 427.872C825.712 427.36 825.579 426.826 825.245 426.403C821.329 421.44 818.08 415.499 814.964 409.758C812.583 405.374 810.113 400.857 807.398 396.851C799.454 385.102 790.264 374.242 781.363 363.739C778.737 360.624 776.089 357.531 773.485 354.393C773.129 353.97 772.617 353.725 772.061 353.703C771.505 353.725 770.97 353.926 770.592 354.326C769.257 355.795 767.811 357.219 766.164 358.71C765.764 359.066 765.541 359.578 765.541 360.112C765.541 360.646 765.764 361.158 766.164 361.536C774.375 369.057 779.627 384.523 783.454 395.828Z" fill="#5EAB47"/>
<path d="M635.874 334.051L635.362 336.01C630.711 353.656 625.927 371.926 609.971 381.539C604.519 384.81 599.246 385.188 593.66 385.566C590.278 385.789 586.784 386.034 583.023 386.902C566.823 390.64 563.241 403.969 559.769 416.876L559.302 418.59C554.896 434.923 549.444 451.524 535.38 459.49C523.52 466.255 509.033 463.651 500.154 453.193C498.596 451.346 497.261 449.499 496.082 447.541C495.637 446.828 494.791 446.472 493.968 446.695C493.144 446.917 492.566 447.63 492.544 448.475C491.164 492.313 500.666 538.866 519.291 579.566C541.989 629.123 590.634 693.656 652.964 712.437C653.164 712.504 653.364 712.549 653.543 712.526C655.723 712.393 658.038 713.105 659.885 714.24C660.063 714.351 660.241 714.418 660.441 714.462C669.831 716.71 679.267 717.845 688.591 717.845C692.307 717.845 696.023 717.667 699.695 717.311C700.229 717.266 700.696 716.999 701.03 716.576C701.341 716.154 701.497 715.619 701.408 715.108C694.821 675.075 697.269 632.617 708.44 592.317C721.08 546.81 745.624 503.951 779.426 468.369C781.34 466.389 783.231 464.408 785.167 462.472C785.702 461.938 785.857 461.159 785.613 460.469C784.322 456.976 783.543 453.237 782.698 449.276C782.119 446.517 781.518 443.646 780.717 440.776C776.867 427.001 772.127 413.004 766.186 397.939C765.941 397.316 765.362 396.092 764.584 394.423C761.913 388.749 756.929 378.201 754.57 369.478C754.414 368.944 754.058 368.476 753.546 368.254C753.035 368.009 752.456 368.009 751.944 368.254C741.641 372.994 730.826 373.862 719.789 370.858C699.561 365.272 683.606 346.046 681.826 325.15C680.624 310.397 685.831 295.198 696.112 283.426C708.84 268.851 728.979 261.04 747.382 263.532C751.232 264.044 754.793 264.823 758.286 265.936C771.682 270.23 781.229 278.664 785.902 290.302C791.71 304.856 789.685 323.593 780.495 340.416C780.228 340.905 780.183 341.506 780.383 342.04C780.583 342.574 781.028 342.975 781.562 343.153C782.43 343.442 783.187 343.865 783.877 344.466C799.098 357.595 811.582 374.396 819.615 385.878C820.727 387.458 821.907 389.105 823.153 390.796C828.983 398.829 835.592 407.93 838.975 417.21C839.175 417.744 839.598 418.167 840.132 418.367C840.688 418.545 841.267 418.501 841.756 418.189C857.311 408.732 873.645 400.854 890.312 394.757C929.788 380.248 979.879 373.817 1039.21 375.686C1068 376.576 1096.17 381.027 1122.94 388.904C1123.59 389.082 1124.26 388.949 1124.74 388.504C1125.23 388.081 1125.48 387.413 1125.37 386.768C1122.01 364.738 1115.73 347.759 1104.98 331.715C1099.04 322.858 1091.81 313.979 1083.47 305.368C1083.04 304.923 1082.42 304.7 1081.82 304.811C1081.22 304.9 1080.68 305.279 1080.39 305.813C1070.71 324.416 1043.41 339.125 1023.67 342.085C1009.16 344.265 995.033 342.085 980.502 335.431C975.963 333.339 971.49 331.003 967.173 328.711C950.416 319.876 934.572 311.554 913.833 317.362C908.871 318.764 904.242 321.234 899.791 323.615C890.201 328.755 881.9 333.184 871.486 327.442C860.493 321.39 856.265 306.881 854.04 296.511C853.528 294.108 853.039 291.704 852.527 289.279C849.322 273.746 846.006 257.68 839.019 242.904C835.125 234.626 829.384 227.928 823.843 221.475C819.882 216.868 815.81 212.128 812.561 206.944C812.205 206.365 811.515 205.987 810.914 206.054C778.87 206.699 746.804 210.638 715.605 217.781L714.804 217.981C713.536 218.293 712.267 218.604 710.977 218.893C710.309 219.049 709.775 219.539 709.553 220.184C702.81 241.547 687.901 258.481 673.481 274.859C658.06 292.305 642.127 310.397 635.874 334.051ZM590.055 452.77C590.055 452.77 590.122 452.748 590.166 452.748C590.344 452.748 590.612 452.837 590.856 453.037C591.101 453.237 591.212 453.46 591.19 453.593C590.144 463.206 584.937 471.195 579.441 479.651C577.683 482.344 575.925 485.059 574.3 487.796C565.154 503.439 556.075 522.265 558.056 543.138C558.901 551.995 559.925 558.982 564.465 561.497C567.513 563.188 571.63 562.609 577.416 559.694C581.466 557.647 585.249 554.843 588.898 552.151C591.902 549.925 594.996 547.656 598.155 545.853C610.995 538.577 621.343 536.396 636.185 537.798C637.61 537.931 638.878 539.467 639.078 540.757C639.212 541.647 638.856 542.226 637.921 542.626H637.899C627.173 547.233 615.891 553.998 605.944 559.984L603.63 561.363C599.891 563.611 596.175 566.459 592.57 569.241C586.962 573.558 581.177 578.008 575.191 580.278C569.405 582.481 564.153 582.437 559.591 580.122C550.712 575.627 546.373 563.878 544.571 557.291C539.608 538.999 542.368 517.37 552.337 496.43C563.953 472.241 576.615 457.554 590.055 452.77Z" fill="#72B84C"/>
<path d="M990.935 428.695C998.568 453.729 1016.84 449.813 1036.2 445.674L1038.4 445.206C1055.49 441.602 1080.26 438.308 1097.75 451.638C1101.4 454.419 1104.14 458.625 1107.03 463.075C1111.06 469.284 1115.24 475.693 1122.23 478.118C1128.28 480.21 1135.09 479.72 1141.65 479.253C1146.97 478.875 1152.45 478.474 1157.3 479.52C1164.82 481.122 1170.65 485.217 1176.81 489.534C1181.55 492.85 1186.45 496.277 1192.19 498.524C1195.88 499.948 1199.6 500.66 1203.16 500.66C1212.19 500.66 1220.32 496.21 1225.06 488.11C1226.97 484.794 1227.91 481.256 1228.82 477.851L1229.42 475.648C1229.6 475.025 1229.44 474.335 1229 473.846C1226.5 471.087 1223.88 468.349 1221.01 465.479C1167.49 412.629 1079.5 385.947 985.595 394.136C984.994 394.181 984.46 394.515 984.148 395.027C983.837 395.538 983.77 396.161 983.992 396.718C986.062 402.058 986.952 407.733 987.909 413.741C988.621 418.659 989.422 423.755 990.935 428.695Z" fill="#FFBC57"/>
<path d="M1266.78 350.12C1273.41 354.437 1280.82 356.618 1288.15 356.618C1293.64 356.618 1299.12 355.394 1304.17 352.902C1315.74 347.227 1322.99 336.257 1324.11 322.816C1325.4 307.417 1315.01 290.816 1298.85 282.449C1285.05 275.328 1270.63 276.263 1260.24 285.009C1252.23 291.729 1248.09 302.878 1248.85 315.606C1249.74 330.048 1256.79 343.6 1266.78 350.12Z" fill="#FFBC57"/>
<path d="M1223.26 442.09C1223.61 442.402 1224.06 442.558 1224.5 442.558C1224.7 442.558 1224.9 442.535 1225.1 442.469C1225.73 442.268 1226.22 441.734 1226.37 441.089C1228.6 431.587 1232.11 422.018 1235.23 413.585C1236.52 410.113 1237.7 406.886 1238.68 403.971C1239.34 401.991 1240.06 399.61 1240.86 396.962C1244.28 385.524 1249 369.836 1256.95 362.003C1257.32 361.624 1257.55 361.09 1257.52 360.556C1257.5 360.022 1257.26 359.51 1256.83 359.177C1255.23 357.841 1253.7 356.417 1252.27 354.948C1251.89 354.548 1251.38 354.325 1250.8 354.37C1250.25 354.392 1249.74 354.659 1249.4 355.104C1247.07 358.108 1244.71 361.09 1242.35 364.072C1233.65 375.087 1224.63 386.458 1216.98 398.742C1214.44 402.814 1212.17 407.376 1209.99 411.782C1207.86 416.077 1205.65 420.505 1203.16 424.533C1202.63 425.401 1202.87 426.536 1203.72 427.114C1210.75 431.988 1217.34 437.039 1223.26 442.09Z" fill="#5EAB47"/>
<path d="M1232.2 620.089C1224.92 626.275 1221.41 631.816 1221.12 637.513C1220.83 643.343 1223.9 649.262 1231.11 656.717C1231.96 657.607 1232.8 658.431 1233.6 659.254C1237.99 663.66 1241.48 667.154 1242.97 673.852C1243.46 676.033 1243.79 678.347 1244.13 680.572C1245.53 690.23 1247 700.221 1260.59 703.114C1262.6 703.537 1264.58 703.715 1266.51 703.715C1271.94 703.715 1277.11 702.291 1282.14 700.911C1287.43 699.465 1292.44 698.107 1297.69 698.263C1298.76 698.33 1299.58 697.506 1299.67 696.483C1301.14 675.721 1300.16 653.913 1296.78 631.66C1294.37 615.661 1291.06 600.017 1286.99 585.197C1286.79 584.507 1286.23 583.973 1285.52 583.817C1284.81 583.661 1284.07 583.951 1283.63 584.529L1282.09 586.465C1274.55 595.567 1264.82 600.685 1254.52 606.092C1246.91 610.098 1239.05 614.237 1232.2 620.089Z" fill="#FFBC57"/>
<path d="M717.984 644.145C720.654 644.969 723.302 645.903 725.95 646.838C734.206 649.731 742.707 652.69 751.674 652.69C752.876 652.69 754.078 652.646 755.301 652.535C773.838 650.799 784.987 638.649 785.899 619.178C786.188 613.459 786.099 607.896 786.01 602.533C785.766 586.622 785.521 571.601 795.29 556.759C801.098 547.88 808.864 540.27 816.385 532.904C825.175 524.314 834.254 515.413 840.485 504.309C853.058 481.989 850.41 462.674 845.626 439.754C845.492 439.153 845.091 438.641 844.513 438.396C843.957 438.152 843.289 438.196 842.755 438.508C829.336 446.608 817.142 455.553 806.505 465.077C756.236 510.117 723.48 574.65 716.648 642.12C716.537 643.033 717.116 643.856 717.984 644.145Z" fill="#FFBC57"/>
<path d="M715.448 658.077C712.822 720.719 732.293 780.489 768.899 822.035C803.324 861.111 853.526 888.438 918.104 903.258C948.968 910.334 982.904 914.562 1017.6 914.562C1103.58 914.562 1194.15 888.593 1253.76 815.938C1276.89 787.722 1291.57 754.32 1297.42 716.624C1297.54 715.912 1297.22 715.178 1296.62 714.755C1296.02 714.332 1295.24 714.288 1294.62 714.644C1277.24 724.146 1252.83 722.632 1239.06 711.217C1230.64 704.207 1228.73 696.485 1226.95 686.316C1225.3 676.836 1220.23 671.696 1215.31 666.756C1211.88 663.284 1208.32 659.724 1205.97 654.561C1197.29 635.535 1210.17 614.195 1227.42 602.912C1232.31 599.708 1237.72 597.038 1242.95 594.456C1251.01 590.495 1259.35 586.401 1266.27 580.126C1270.28 576.476 1273.28 571.692 1276.17 567.085C1277.15 565.55 1278.11 564.015 1279.11 562.524C1279.44 562.012 1279.53 561.389 1279.33 560.81C1270.63 536.354 1259.42 514.302 1246.04 495.254C1245.66 494.72 1245.02 494.408 1244.37 494.452C1243.71 494.497 1243.13 494.853 1242.79 495.432C1234.03 511.053 1211.42 521.757 1194.35 518.285C1185.76 516.55 1178.75 512.01 1171.99 507.604C1163.4 502.018 1154.52 496.255 1142.32 495.966C1140.23 495.921 1138.14 495.921 1136.03 495.899C1124.05 495.877 1112.77 495.832 1103.87 487.554C1100.8 484.728 1098.75 481.079 1096.59 477.251C1093.79 472.289 1090.9 467.171 1085.62 463.788C1076.9 458.203 1065.24 458.425 1056.05 459.204C1049.64 459.76 1043.16 461.274 1036.91 462.765C1025.61 465.435 1013.95 468.194 1002.6 465.079C979.744 458.759 966.882 423.911 971.088 398.165C971.177 397.564 970.999 396.963 970.576 396.518C970.153 396.095 969.574 395.873 968.951 395.962C930.432 401.035 893.337 412.14 861.671 428.05C860.736 428.518 860.358 429.675 860.825 430.609C871.885 453.04 867.39 484.15 858.044 505.045C852.414 517.595 841.977 528.032 831.897 538.135C818.412 551.664 804.437 565.639 801.588 584.954C800.409 592.943 800.342 601.11 800.275 608.987C800.075 631.908 799.875 651.713 775.241 663.306C757.016 671.896 733.695 669.159 718.563 656.675C718.007 656.208 717.228 656.119 716.561 656.408C715.915 656.697 715.47 657.343 715.448 658.077ZM1040.36 577.344C1053.29 561.011 1073.96 551.753 1094.59 551.753C1102.31 551.753 1110.06 553.044 1117.36 555.759C1132.33 561.278 1145.53 573.027 1153.58 587.981C1159.39 598.84 1162.24 610.701 1161.82 622.272C1160.68 651.468 1141.01 675.657 1111.68 683.868C1082.42 692.057 1053.09 681.62 1036.96 657.276C1021.16 633.399 1022.58 599.775 1040.36 577.344ZM885.237 595.858C895.918 582.373 912.986 574.718 930.031 574.718C936.418 574.718 942.805 575.786 948.835 578.034C961.208 582.596 972.111 592.298 978.72 604.648C983.549 613.594 985.886 623.363 985.53 632.931C984.595 657.053 968.328 677.014 944.139 683.779C919.995 690.522 895.784 681.91 882.477 661.816C869.415 642.1 870.572 614.373 885.237 595.858ZM1056.18 787.321C1059.08 779.088 1057.58 771.232 1056.16 763.644C1055.6 760.707 1055.03 757.658 1054.71 754.654C1054.56 753.007 1056 751.984 1056.47 751.717C1057.76 750.938 1059.23 750.893 1060.23 751.561C1074.03 761.041 1074.18 782.181 1066.35 797.135C1058.01 813.134 1040.43 823.994 1021.58 824.839C1002.86 825.707 984.64 817.006 975.071 802.698C966.014 789.213 961.652 768.896 973.558 756.145C973.847 755.833 974.136 755.678 974.47 755.678C974.604 755.678 974.737 755.7 974.871 755.744C975.605 755.989 976.25 756.768 976.339 757.569C976.629 760.418 976.762 763.266 976.896 766.092C977.318 774.948 977.741 784.117 982.971 792.573C990.336 804.456 1004.56 812.177 1019.22 811.866C1035.64 811.688 1051.22 801.363 1056.18 787.321Z" fill="#72B84C"/>
<path opacity="0.1" d="M1204.74 532.171C1182.78 537.356 1160.21 541.272 1137.58 541.317C1112.17 541.384 1086.73 538.468 1061.32 540.093C1013.7 543.186 973.221 569.912 963.341 617.911C955.641 655.385 958.957 693.993 944.048 730.043C931.274 760.929 912.249 796.578 879.759 810.286C854.836 820.789 828.289 813.468 806.08 799.916C751.405 766.537 717.047 708.702 675.813 661.526C650.556 632.62 609.589 608.854 570.046 620.492C541.25 628.97 523.559 657.432 523.27 686.583C523.003 714.154 534.174 740.613 538.802 767.494C551.064 838.725 509.629 892.31 463.811 941.043C443.939 962.183 422.777 984.28 412.741 1012.12C399.523 1048.77 410.159 1087.51 426.56 1121.34C446.164 1161.79 474.759 1197.26 492.495 1238.7C510.074 1279.8 512.633 1323.97 497.68 1366.38C481.502 1412.25 448.99 1459.07 407.533 1491.53C463.321 1558 550.53 1603.15 631.285 1600.79C685.404 1599.19 731.445 1579.12 767.717 1547.68C786.276 1601.19 860.956 1617.71 911.069 1613.08C975.09 1607.18 1038.89 1579.5 1081.53 1530.39C1099.46 1509.69 1113.15 1485.99 1121.87 1460.67C1139.12 1467.74 1162.86 1463.12 1179.28 1457.84C1203.65 1450.01 1226.68 1434.9 1243.68 1415.76C1245.51 1413.71 1247.2 1411.6 1248.89 1409.49C1248.93 1404.61 1248.82 1399.76 1248.47 1394.91C1246.08 1361.95 1228.84 1337.3 1195.33 1331.02C1146.12 1321.79 1096.72 1343.44 1054.55 1366.4C1017.64 1386.5 979.296 1412.91 935.948 1414.94C885.278 1417.32 847.849 1380.56 817.229 1344.82C797.981 1322.37 779.355 1303.76 750.426 1294.55C726.549 1286.96 702.071 1288.45 677.482 1285.23C640.342 1280.35 602.423 1258.9 607.23 1216.8C611.257 1181.57 632.464 1148.13 653.226 1118.82C655.184 1107.18 655.964 1095.3 656.431 1083.51C656.92 1071.31 657.165 1059.09 656.854 1046.9C662.817 1043.49 667.98 1039.02 674.9 1036.69C684.202 1033.55 693.749 1031.59 702.249 1026.4C715.912 1017.99 723.523 1002.55 717.559 986.906C710.171 967.591 688.141 956.398 670.717 948.008C658.901 942.312 642.478 933.433 627.947 933.166C620.537 921.305 611.503 910.446 600.799 900.899C609.522 893.133 617.466 884.566 624.632 875.42C629.995 879.47 636.025 882.919 641.232 886.902C648.731 892.666 656.03 899.609 665.755 901.322C684.202 904.571 695.596 889.239 699.112 873.061C703.851 851.342 699.868 826.241 692.235 805.635C687.14 791.972 679.573 774.081 667.379 764.067C668.113 755.121 668.336 746.131 667.913 737.097C679.685 738.899 691.857 739.344 704.296 738.165C708.19 753.341 713.353 768.228 720.007 782.537C746.933 840.528 797.491 881.094 855.86 904.816C976.759 953.994 1136.85 949.254 1238.9 861.223C1286.58 820.077 1317 763.266 1321.5 700.202C1326.08 635.49 1310.37 563.481 1278.17 506.291C1254.74 517.573 1230.04 526.207 1204.74 532.171Z" fill="#592639"/>
<path opacity="0.15" d="M17.5773 1001.75C41.2987 1031.28 77.2818 1020.17 97.9991 995.784C98.6889 996.629 99.5565 997.341 100.602 997.92C116.713 1006.53 134.872 1012.18 152.54 1016.59C163.4 1019.3 177.597 1023.89 190.126 1023.44C191.283 1079.54 203.21 1138 231.048 1186.56C219.343 1190.76 207.905 1200.09 198.893 1206.47C184.006 1217.02 169.186 1228.88 157.325 1242.77C156.568 1243.68 156.012 1244.68 155.678 1245.7C127.462 1230.48 89.9436 1233.27 78.5724 1269.43C77.4598 1272.88 76.6586 1276.61 76.1246 1280.66C73.61 1300.25 82.0437 1320.63 96.9753 1333.56C108.747 1343.73 124.635 1349.42 140.168 1348.04C161.976 1346.13 181.669 1329.58 187.366 1308.46C190.615 1296.33 189.124 1284.98 184.495 1274.99C195.978 1271.85 210.42 1264.24 213.112 1263.17C227.065 1257.59 241.196 1252.58 255.682 1248.49C263.181 1246.35 270.725 1245.57 277.223 1242.74C295.292 1257.79 315.765 1269.11 337.639 1276.7C327.648 1262.71 323.62 1244.79 325.912 1224.74C329.517 1192.99 350.234 1167.11 369.75 1143.16C389.466 1118.97 414.389 1092.36 416.658 1059.56C419.663 1016.3 382.901 982.543 357.043 952.635C332.899 924.731 321.661 895.335 335.592 859.307C352.237 816.204 388.22 786.096 411.407 747.087C432.992 710.77 421.198 671.182 408.336 633.731C397.9 603.378 376.581 562.545 387.596 529.811C392.67 514.768 404.976 504.042 418.416 496.432C439.823 484.304 453.732 483.836 476.607 490.423C493.074 495.163 508.896 495.853 520.112 480.677C526.454 472.087 530.837 462.229 537.38 453.773C552.245 434.547 577.435 419.793 599.265 409.957C687.786 370.08 780.847 424.711 825.62 502.039C863.049 566.661 909.135 698.197 1007.58 664.262C1049.15 649.931 1081.33 612.658 1104.11 576.564C1130.86 534.195 1144.9 490.401 1148.8 440.599C1149.93 426.113 1150.82 411.515 1151.42 396.851C1149.31 395.983 1147.19 395.115 1145.06 394.291C1151.29 355.505 1123.29 315.272 1097.44 288.88C1067.53 258.282 1030.86 234.606 991.581 217.849C978.852 212.42 965.834 207.746 952.638 203.696C951.837 197.888 949.924 191.992 948.811 185.716C946.207 170.874 944.561 156.009 943.493 141.01C943.292 138.14 943.871 121.762 941.735 110.079C952.705 109.923 963.565 106.341 973.066 98.1516C989.622 83.8431 995.942 58.8755 988.221 38.403C982.68 23.8274 970.663 12.0112 956.355 5.84716C938.219 -1.98581 916.189 -0.695192 899.677 10.0974C896.272 12.3227 893.246 14.6815 890.62 17.1738C863.004 43.1428 876.846 78.1464 902.815 96.9055C902.013 97.662 901.368 98.5967 900.856 99.6648C893.513 116.421 889.307 134.935 886.281 152.893C884.567 163.174 881.43 176.526 882.142 188.387C833.186 182 783.05 183.647 734.472 192.103C681.934 201.249 627.615 219.874 581.997 250.116C577.479 236.964 564.328 224.903 555.493 215.513C542.987 202.25 529.213 189.165 513.836 179.285C512.813 178.662 511.767 178.262 510.699 178.061C521.869 148.042 513.992 111.236 476.63 104.939C473.069 104.338 469.242 104.049 465.147 104.093C445.409 104.293 426.361 115.42 415.613 131.976C407.112 145.06 403.685 161.55 407.156 176.771C412.052 198.067 431.167 215.312 452.864 218.072C465.303 219.607 476.341 216.581 485.598 210.617C490.293 221.565 499.817 234.873 501.241 237.343C508.696 250.427 515.594 263.69 521.625 277.464C524.384 283.74 526.142 290.126 529.013 295.667C520.779 304.924 513.213 314.782 506.493 325.397C500.952 334.031 496.168 343.066 492.006 352.389C445.609 339.127 399.724 358.553 362.429 388.995C361.828 388.617 361.205 388.194 360.604 387.771C348.476 378.87 336.994 369.213 325.867 359.132C323.775 357.218 312.872 344.979 303.236 338.014C311.047 330.337 316.432 320.19 317.611 307.728C319.636 285.92 306.975 263.556 287.237 254.099C273.128 247.401 256.283 247.178 241.685 252.608C223.171 259.462 208.172 275.64 203.677 294.866C202.765 298.849 202.231 302.632 202.03 306.259C200.05 344.089 234.23 359.8 265.985 355.416C265.941 356.529 266.096 357.641 266.519 358.754C272.75 375.933 282.497 392.222 292.755 407.287C299.031 416.544 306.552 429.362 316.165 437.395C313.495 440.911 310.958 444.427 308.51 447.943C285.834 480.988 269.456 518.284 257.151 556.291C243.777 597.682 232.895 641.653 233.296 685.402C233.362 695.26 234.141 705.207 235.588 715.154C222.348 714.842 207.238 721.073 195.844 724.878C178.554 730.664 160.885 737.651 145.509 747.509C144.507 748.155 143.706 748.956 143.105 749.846C120.541 727.082 83.7796 718.826 62.4169 750.068C60.3919 753.05 58.5225 756.411 56.8313 760.127C48.7313 778.152 50.8232 800.093 61.3487 816.76C69.6935 829.956 83.1785 840.014 98.4439 843.219C119.873 847.736 143.528 837.633 155.122 819.074C161.776 808.393 163.644 797.111 162.131 786.229C174.037 786.585 190.081 783.47 192.952 783.247C207.905 781.979 222.904 781.289 237.924 781.601C243.888 781.667 249.629 782.558 255.17 782.602C258.642 790.591 262.469 798.446 266.72 806.123C223.727 843.53 202.209 900.008 194.042 956.285C192.773 956.485 191.483 956.663 190.17 956.774C175.172 958.221 160.218 958.688 145.152 958.577C142.282 958.577 126.037 956.73 114.221 957.954C114.911 946.983 112.152 935.857 104.742 925.754C91.7682 908.152 67.3791 899.896 46.3725 906.06C31.3742 910.422 18.6901 921.482 11.4134 935.278C2.2008 952.725 1.77791 974.777 11.2576 992.112C13.1713 995.717 15.2853 998.921 17.5773 1001.75Z" fill="#FFFCFC"/>
<path opacity="0.15" d="M455.801 1386.03C457.47 1362.89 446.366 1341.81 429.565 1326.46C413.076 1311.42 391.869 1308.59 371.597 1301.38C365.945 1299.38 360.826 1296.86 356.198 1293.95C338.329 1356.21 355.441 1418.88 392.002 1471.21C424.002 1453.46 453.131 1423.04 455.801 1386.03Z" fill="#FFFCFC"/>
<path opacity="0.3" d="M925.512 921.148C942.958 926.555 961.027 928.469 979.252 928.469C1084.71 947.985 1198.11 900.765 1262.49 815.336C1296.11 770.719 1311.78 713.864 1308.64 658.187C1306.95 628.19 1301.21 597.526 1291.39 569.176C1281.38 540.225 1273.68 505.711 1250.54 483.993C1245.02 478.83 1232.93 480.054 1231.69 488.977C1228.04 515.013 1237.03 538.69 1243.06 563.613C1249.42 589.871 1253.54 617.954 1254.67 644.969C1256.74 694.459 1249.49 742.592 1219.23 783.203C1187.4 825.951 1140.3 854.724 1089.2 874.106C1036.84 890.039 983.325 901.187 928.005 902.7C917.368 902.99 915.32 917.988 925.512 921.148Z" fill="#592642"/>
<path opacity="0.3" d="M550.69 643.879C555.764 667.356 578.973 683.178 598.534 695.083C604.275 698.577 610.172 701.803 616.202 704.829C610.617 706.966 605.699 711.528 603.095 718.804C593.727 744.84 590.99 771.432 577.905 796.6C565.399 820.677 548.443 842.752 526.702 859.197C484.31 891.241 420.2 906.684 369.041 888.103C359.405 884.61 354.332 898.918 362.32 904.059C391.227 922.617 419.376 932.653 454.358 931.429C462.992 931.118 471.559 930.205 480.038 928.67C480.883 929.315 481.795 929.827 482.841 930.139C503.603 936.191 523.675 934.322 542.078 927.224C544.593 931.452 547.196 935.724 549.444 940.197C558.879 958.889 565.243 979.05 569.204 999.567C576.926 1039.56 573.032 1081.68 559.435 1119.98C546.662 1155.94 527.347 1187.27 498.196 1212.24C483.264 1225.03 466.575 1236.54 449.217 1245.88C432.639 1254.81 412.233 1258.3 397.013 1269.12C390.938 1273.43 390.404 1285.14 399.327 1286.78C419.555 1290.52 441.473 1281 459.832 1273.23C463.771 1271.56 467.643 1269.78 471.448 1267.96C472.917 1268.76 474.563 1269.2 476.299 1269.05C511.837 1265.67 547.085 1237.98 574.389 1216.84C607.279 1191.36 629.198 1158.21 637.409 1116.95C645.509 1076.16 641.882 1033.88 629.754 994.271C619.785 961.738 606.033 927.023 585.182 899.074C591.368 893.177 597.132 886.768 602.383 880.025C618.027 859.976 629.643 837.078 637.476 812.911C643.818 793.306 649.47 772.5 643.885 753.007C645.709 743.282 646.533 733.691 645.843 724.612C645.62 721.719 644.953 719.138 643.996 716.801C655.211 720.896 666.694 724.278 678.309 726.86C693.441 730.22 709.196 719.872 709.018 703.472C708.774 679.884 708.529 656.296 708.284 632.708C708.084 613.259 688.413 604.603 672.257 612.035C616.024 637.849 550.646 611.145 516.666 562.478C510.813 554.089 497.083 558.985 499.731 569.622C507.965 602.534 526.568 627.434 550.69 643.879Z" fill="#592642"/>
<path opacity="0.3" d="M667.337 1434.65C663.598 1424.64 648.11 1428.47 651.025 1439.15C651.07 1439.33 651.114 1439.53 651.159 1439.7C650.002 1440.82 649.156 1442.26 648.889 1444.07C646.798 1458.73 648.555 1470.72 650.558 1485.32C652.272 1497.87 652.539 1518.39 634.447 1511.47C626.614 1508.47 619.382 1518.12 622.475 1525.13C539.428 1535.64 457.605 1496.6 398.256 1439.79C391.225 1433.05 378.607 1441.86 384.348 1450.52C404.665 1481.18 431.88 1506.66 463.057 1525.82C463.568 1526.56 464.191 1527.27 465.015 1527.94C481.571 1540.87 501.22 1551.95 522.204 1559.76C519.912 1564.25 522.716 1571.31 527.767 1573.38C562.192 1587.46 604.362 1585.06 641.123 1576.29C664.689 1602.46 735.319 1554.62 754.078 1539.91C758.172 1536.7 762.334 1533.21 766.473 1529.58C792.375 1577.94 851.189 1599.39 903.973 1598.01C905.196 1597.97 906.465 1597.92 907.711 1597.88C908.067 1600.97 910.092 1603.86 913.675 1605.13C938.843 1614.14 969.084 1595.85 989.134 1580.16C993.273 1578.38 997.323 1576.43 1001.24 1574.33C1003.26 1574.76 1005.38 1574.69 1007.25 1573.8C1038.38 1559 1062.95 1528.11 1081.06 1499.52C1095.84 1476.18 1111.39 1445.42 1114.04 1416.16C1116.09 1417.61 1118.31 1418.74 1120.65 1419.74C1117.55 1424.1 1117.62 1430.54 1121.69 1434.39C1144.15 1455.59 1185.69 1437.88 1208.01 1424.39C1221.23 1416.41 1233.65 1406.32 1243.82 1394.71C1256.86 1379.82 1259.91 1368.94 1261.35 1349.78C1261.46 1348.36 1261.33 1347.04 1261 1345.84C1282.69 1311.22 1294.73 1269.89 1267.67 1235.8C1262.75 1229.62 1251.49 1233.18 1249.94 1240.48C1246.13 1258.48 1242.73 1275.23 1236.56 1292.68C1229.84 1311.68 1217.2 1328.69 1203.87 1343.55C1191.63 1357.19 1180.33 1369.03 1162.22 1374.01C1154.34 1376.17 1146.15 1378.15 1138.07 1379.27C1133.35 1379.93 1119.02 1382.07 1114.28 1379.51C1113.17 1378.91 1112.06 1378.53 1110.95 1378.33C1112.97 1347.31 1104.63 1319.29 1093.81 1288.52C1089.56 1276.41 1071.22 1281.15 1074.38 1293.88C1080.21 1317.27 1076.7 1343.66 1071.27 1368.47C1063.84 1388.7 1056.74 1408.77 1044.9 1427.69C1027.56 1455.35 1003.29 1478.25 974.87 1494.27C944.918 1511.16 910.559 1519.95 876.424 1522.95C846.382 1525.6 813.849 1524.95 787.168 1509.76C810.912 1484.3 830.182 1452.86 829.715 1419.16C832.608 1411.93 834.722 1404.61 835.768 1397.4C838.038 1391.1 840.107 1384.72 841.954 1378.26C848.252 1356.12 851.723 1333.65 849.943 1310.62C848.296 1289.19 846.583 1265.09 834.9 1246.59C830.961 1240.34 820.258 1240.9 818.455 1248.75C814.138 1267.45 815.852 1286.67 812.581 1305.59C809.243 1324.95 805.371 1344.71 800.141 1363.67C789.504 1402.21 769.9 1438.44 742.328 1467.5C740.214 1469.72 738.011 1471.81 735.808 1473.93C719.475 1488.66 700.538 1500.45 680.288 1509.22C682.602 1484.25 675.57 1456.79 667.337 1434.65Z" fill="#592642"/>
<path opacity="0.3" d="M327.849 1210.86C338.642 1219 352.616 1218.2 363.965 1211.52C377.473 1203.58 383.414 1188.67 388.71 1174.74C394.808 1158.7 408.382 1136.47 403.865 1119.33C402.44 1113.95 395.186 1110.32 390.268 1113.79C386.463 1116.48 383.37 1120.11 380.788 1124.27C369.707 1136.15 367.615 1151.71 359.604 1165.31C353.173 1176.23 342.202 1181.13 332.122 1171.94C330.43 1170.4 328.45 1169.69 326.492 1169.53C324.845 1165.93 323.332 1162.55 321.952 1159.96C317.19 1151.2 301.88 1157.21 305.507 1166.89C310.915 1181.31 314.831 1201.04 327.849 1210.86Z" fill="#592642"/>
<path opacity="0.3" d="M385.349 805.457C398.278 802.364 407.179 792.328 414.967 782.292C426.828 767.026 439.957 751.249 446.366 732.824C449.504 723.789 437.176 717.647 430.878 723.811C428.519 726.126 426.338 728.574 424.224 731.088C423.29 731.533 422.378 732.112 421.576 732.891C410.116 743.906 401.571 757.591 389.799 768.428C387.886 770.186 384.993 773.769 382.567 774.703C381.788 777.574 380.787 777.819 379.563 775.46C378.584 774.392 377.605 773.324 376.626 772.278C370.373 765.024 366.612 757.702 364.209 748.423C363.408 745.308 361.071 743.461 358.378 742.704C358.156 741.881 357.934 741.08 357.689 740.256C354.685 729.731 339.152 734.159 341.377 744.751C346.518 768.962 348.743 814.202 385.349 805.457Z" fill="#592642"/>
<path opacity="0.5" d="M718.631 739.678C720.144 745.352 726.175 747.244 730.937 745.842C742.553 789.747 766.163 830.625 800.899 860.154C808.376 866.519 822.574 857.862 815.653 848.761C744.578 755.366 739.215 629.148 810.735 534.174C889.176 430.008 1019.82 410.203 1142.03 424.089C1151.05 425.113 1155.23 410.159 1146.77 406.576C1121.54 395.895 1098.37 388.284 1071 385.058C1066.6 384.546 1062.19 384.19 1057.81 383.901C970.287 361.982 867.213 401.747 803.57 460.562C727.332 531.058 691.794 638.806 718.631 739.678Z" fill="#FFF7F7"/>
<path opacity="0.5" d="M99.5537 1264.04C91.0086 1278.97 87.96 1298.35 96.149 1313.93C100.533 1322.25 112.46 1317.83 112.905 1309.39C113.551 1296.84 115.042 1286.09 122.786 1275.77C129.706 1266.53 142.301 1263.42 146.262 1252.36C147.731 1248.26 145.283 1243.23 141.7 1241.14C126.057 1231.95 106.786 1251.38 99.5537 1264.04Z" fill="#FFF7F7"/>
<path opacity="0.5" d="M41.7901 995.339C47.331 983.723 47.1307 970.772 52.3824 958.978C58.1013 946.138 67.9369 937.86 75.2358 926.333C80.7767 917.565 71.3639 903.346 60.8161 907.596C33.5565 918.589 8.23293 968.368 26.0129 995.361C29.4843 1000.61 38.6525 1001.93 41.7901 995.339Z" fill="#FFF7F7"/>
<path opacity="0.5" d="M93.6388 813.201C91.8141 800.54 92.0587 787.655 97.3994 775.817C101.472 766.782 109.104 761.553 114.934 753.875C121.833 744.796 110.484 734.471 101.427 736.318C87.0741 739.255 77.4833 754.276 72.9215 767.316C67.1803 783.761 69.9173 802.142 74.7239 818.431C78.4178 830.826 95.3968 825.351 93.6388 813.201Z" fill="#FFF7F7"/>
<path opacity="0.5" d="M245.515 327.024C246.873 316.053 245.715 307.753 252.169 297.85C258.155 288.66 266.655 285.055 275.467 279.269C284.324 273.439 280.452 260.844 270.26 259.998C239.841 257.506 210.534 306.128 228.781 331.563C234.211 339.174 244.402 335.969 245.515 327.024Z" fill="#FFF7F7"/>
<path opacity="0.5" d="M441.291 192.46C446.453 180.332 448.212 167.648 455.911 156.566C463.343 145.885 475.649 139.009 485.418 130.731C490.937 126.036 488.422 114.509 480.856 113.441C459.827 110.503 444.406 122.008 432.612 138.831C422.42 153.362 415.611 176.349 425.981 192.438C429.185 197.445 438.509 199.003 441.291 192.46Z" fill="#FFF7F7"/>
<path opacity="0.5" d="M713.065 340.485C718.473 328.001 723.457 315.027 732.915 304.925C742.372 294.822 755.212 290.193 765.76 281.537C773.615 275.084 766.271 264.58 758.349 263.668C724.859 259.774 691.391 304.658 693.794 335.277C694.506 344.29 708.592 350.832 713.065 340.485Z" fill="#FFF7F7"/>
<path opacity="0.5" d="M911.425 70.5569C914.852 66.0173 916.143 60.2761 919.236 55.4472C921.995 51.1747 925.466 47.2359 929.316 43.9202C937.549 36.8216 948.164 34.2181 957.065 28.2321C964.097 23.4923 963.185 12.6106 954.684 10.0738C925.4 1.28396 887.125 38.8466 891.019 67.8865C892.488 78.6345 906.507 77.0992 911.425 70.5569Z" fill="#FFF7F7"/>
<path opacity="0.5" d="M1258.04 325.909C1265.65 318.522 1270.05 308.463 1278.95 302.121C1288.17 295.557 1300.2 296.447 1308.99 289.749C1316.18 284.252 1316.34 275.507 1308.99 270.033C1294.95 259.552 1273.92 270.545 1262.17 279.824C1249.42 289.882 1238.16 305.059 1242.33 321.77C1244.06 328.758 1253.07 330.716 1258.04 325.909Z" fill="#FFF7F7"/>
<path opacity="0.5" d="M364.879 639.495C357.18 664.774 348.523 710.86 363.944 737.563C364.167 740.679 364.523 743.772 365.168 746.754C366.192 751.338 369.107 755.566 373.558 757.39C379.299 759.727 383.95 758.125 388.645 754.453C392.116 751.716 392.784 745.952 391.427 741.991C392.183 739.099 392.117 736.005 390.826 733.335C377.318 705.208 383.349 672.34 383.06 641.965C382.971 631.44 367.928 629.504 364.879 639.495Z" fill="#FFF7F7"/>
<path opacity="0.5" d="M317.48 1056.91C306.265 1090.36 307.912 1135.2 331.255 1163.42C338.798 1172.54 354.62 1162.75 351.015 1151.91C346.431 1138.14 339.332 1125.79 336.417 1111.37C333.146 1095.26 333.213 1078.12 335.616 1061.88C337.33 1050.17 321.397 1045.19 317.48 1056.91Z" fill="#FFF7F7"/>
<path opacity="0.5" d="M579.482 466.014C563.26 493.074 555.272 525.006 560.323 556.45C562.437 569.712 584.6 566.664 583.799 553.268C582.153 525.808 583.577 500.506 594.548 474.804C598.842 464.768 585.446 456.09 579.482 466.014Z" fill="#FFF7F7"/>
<path opacity="0.5" d="M394.629 1363.09C396.476 1351.47 399.236 1339.86 402.796 1327.84C407.647 1311.46 420.509 1283.05 395.787 1275.68C370.418 1268.11 362.474 1297.71 359.915 1315.96C356.377 1341.26 357.668 1361.58 366.68 1383.9C367.681 1395.31 370.419 1406.42 375.715 1417.01C379.698 1424.97 393.873 1421.48 392.983 1412.33C392.048 1402.79 391.915 1393.62 392.36 1384.61C393.116 1377.35 393.94 1370.23 394.629 1363.09Z" fill="#FFF7F7"/>
<path opacity="0.5" d="M219.146 1094.85C227.135 1135.64 242.734 1174.78 266.121 1209.5C272.908 1219.56 287.662 1210.9 282.344 1200.02C253.103 1140 241.665 1073.47 248.742 1007.15C252.235 974.509 260.958 941.775 274.688 911.912C284.591 890.393 304.418 867.673 304.908 843.24C310.983 848.625 320.663 840.858 318.86 833.337C307.489 786.094 297.119 740.543 298.766 691.498C300.301 645.991 312.362 600.773 333.503 560.474C350.125 528.808 371.777 500.436 397.323 475.668C412.522 463.029 429.034 452.103 446.725 443.202C456.761 438.15 468.733 435.168 480.148 431.43C479.703 434.456 479.236 437.46 478.902 440.509C478.101 447.563 484.866 451.057 490.763 450.1C487.67 468.659 486.869 487.707 488.76 507.022C489.762 517.192 506.251 521.62 508.276 509.671C523.608 419.302 572.831 336.188 650.671 286.275C693.018 259.127 741.218 242.66 790.775 234.893C842.201 226.838 894.517 229.709 946.255 227.728C957.069 227.305 957.982 213.531 948.68 209.792C886.818 185.025 813.717 185.381 745.891 202.849C712.845 199.823 679.911 212.307 650.159 225.347C619.05 239.01 590.01 256.879 564.219 279.043C527.858 310.264 501.667 351.231 488.026 396.471C486.802 396.56 485.578 396.649 484.354 396.827C488.226 389.55 491.03 381.428 492.187 372.015C493.789 359.153 478.212 349.428 467.019 352.855C403.265 372.349 351.461 416.432 314.677 471.307C273.331 532.969 246.361 609.363 249.676 684.021C249.899 688.939 254.438 692.766 258.956 693.278C258.11 735.158 265.877 776.904 284.992 813.065C279.34 812.108 273.442 813.643 268.903 818.828C208.843 887.901 171.814 1002.77 212.915 1090.2C214.295 1093.09 216.609 1094.52 219.146 1094.85Z" fill="#FFF7F7"/>
<path opacity="0.5" d="M1215.91 1171.51C1193.77 1167.09 1168.31 1169.91 1144.14 1178.12C1142.88 1177.5 1141.5 1177.05 1140 1176.92C1107.76 1174.27 1070.49 1199.69 1055.93 1227.84C1022.98 1212.3 978.939 1213.84 944.759 1219.38C907.93 1225.34 859.798 1240.56 837.167 1272.41C832.761 1278.62 840.148 1288.3 847.314 1285.63C862.935 1279.82 876.999 1270.03 892.131 1262.99C910.044 1254.67 929.449 1248.95 948.92 1245.73C967.412 1242.66 986.416 1242.12 1005.09 1243.9C1023.85 1245.7 1041.76 1251.65 1060.45 1253.8C1061.12 1253.87 1061.72 1253.89 1062.32 1253.85C1065.55 1257.52 1071.6 1258.72 1076.47 1254.74C1096.17 1238.58 1114.24 1222.7 1137.71 1211.95C1162.19 1200.75 1186.22 1199.75 1212.44 1197.1C1225.9 1195.75 1231.49 1174.63 1215.91 1171.51Z" fill="#FFF7F7"/>
<path opacity="0.5" d="M833.723 1137.49C842.179 1134.93 843.626 1120.58 833.723 1118.84C807.932 1114.33 779.293 1120.82 757.53 1135.4C752.812 1138.56 752.145 1143.52 754.014 1147.33C726.02 1132.86 694.243 1126.05 664.647 1131.82C662.51 1132.24 660.975 1133.31 659.951 1134.71C657.036 1135.15 654.143 1135.67 651.317 1136.31C640.97 1138.67 644.263 1152.87 653.676 1153.71C680.424 1156.14 706.193 1159.5 731.249 1169.78C736.189 1171.8 740.796 1174.16 745.268 1176.63C762.514 1189.21 777.068 1205.14 795.849 1215.51C797.207 1216.27 798.63 1216.69 800.077 1216.89C810.669 1222.52 826.157 1212.68 818.146 1200.15C806.953 1182.64 789.974 1167.98 770.214 1156.87C768.033 1155.45 765.852 1154.05 763.627 1152.69C764.005 1152.67 764.383 1152.67 764.784 1152.58C787.549 1148.75 811.626 1144.21 833.723 1137.49Z" fill="#FFF7F7"/>
<path opacity="0.5" d="M645.683 944.469C639.207 945.159 632.286 952.591 637.226 959.223C644.503 968.992 656.119 973.042 666.2 979.495C676.569 986.126 685.604 995.517 697.732 998.677C707.501 1001.21 713.954 991.066 710.015 982.699C704.474 970.928 691.879 964.185 681.042 957.843C670.761 951.835 658.011 943.156 645.683 944.469Z" fill="#FFF7F7"/>
<path d="M1061.3 749.977C1057.94 747.685 1052.4 750.667 1052.8 754.828C1053.91 765.643 1058.18 775.835 1054.35 786.694C1049.3 800.958 1033.77 809.793 1019.13 809.948C1005.51 810.104 991.779 803.295 984.524 791.545C977.938 780.909 979.362 769.137 978.183 757.365C977.871 754.494 974.355 752.358 972.107 754.828C959.535 768.336 963.963 789.632 973.442 803.74C983.924 819.384 1003.13 827.573 1021.64 826.727C1040.69 825.881 1059.12 815.067 1068.04 797.999C1075.98 782.822 1076.45 760.369 1061.3 749.977Z" fill="#3D2938"/>
<path d="M987.423 632.976C987.802 622.806 985.198 612.659 980.392 603.713C973.738 591.274 962.767 581.104 949.482 576.209C926.696 567.753 898.835 575.564 883.748 594.634C868.683 613.683 867.459 642.544 880.877 662.817C911.163 708.59 985.265 687.673 987.423 632.976Z" fill="#3D2938"/>
<path d="M1118.02 553.953C1090.56 543.783 1057.03 553.196 1038.85 576.139C1020.65 599.126 1019.2 633.885 1035.38 658.318C1071.87 713.394 1161.17 688.181 1163.73 622.335C1164.2 610.052 1161.06 597.857 1155.28 587.065C1147.2 572.089 1134 559.85 1118.02 553.953Z" fill="#3D2938"/>
<path d="M393.383 769.938C415.191 752.536 437.667 736.737 459.118 719.001C462.901 715.863 458.762 709.944 454.489 711.079C437.043 715.752 423.847 721.36 408.983 731.886C403.019 736.136 397.166 740.564 391.425 745.148C388.71 747.284 384.661 752.336 381.434 753.448C372.065 756.697 366.257 749.354 365.1 739.785C362.853 721.16 363.809 702.334 367.058 683.908C370.085 666.729 377.473 649.906 377.762 632.393C377.806 630.057 375.158 629.411 373.601 630.68C355.443 645.033 349.123 672.448 346.096 694.278C343.159 715.619 339.51 748.063 352.016 767.29C363.053 784.291 379.876 780.686 393.383 769.938Z" fill="#3D2938"/>
<path d="M575.923 582.035C586.093 578.163 595.239 568.639 604.652 562.987C615.355 556.556 627.261 549.257 638.698 544.361C643.327 542.403 640.345 536.261 636.406 535.861C621.252 534.437 610.616 536.595 597.242 544.161C590.121 548.211 583.823 554.286 576.591 557.958C563.128 564.723 561.37 557.312 559.99 542.937C558.121 523.288 566.332 505.219 575.968 488.752C582.577 477.47 591.656 467.055 593.103 453.793C593.325 451.968 591.078 450.344 589.387 450.967C571.495 457.353 558.477 479.183 550.644 495.561C541.587 514.61 537.137 537.018 542.767 557.758C547.173 573.846 557.609 589.045 575.923 582.035Z" fill="#3D2938"/>
<path d="M17.5758 1001.74C41.2972 1031.27 77.2802 1020.17 97.9976 995.78C98.6874 996.625 99.555 997.338 100.601 997.916C116.712 1006.53 134.87 1012.18 152.539 1016.59C163.398 1019.3 177.596 1023.89 190.124 1023.44C191.281 1079.54 203.208 1138 231.047 1186.55C219.342 1190.76 207.904 1200.08 198.892 1206.47C184.004 1217.02 169.184 1228.88 157.323 1242.76C156.567 1243.68 156.01 1244.68 155.677 1245.7C127.46 1230.48 89.942 1233.26 78.5709 1269.42C77.4582 1272.87 76.6571 1276.61 76.1231 1280.66C73.6085 1300.24 82.0422 1320.63 96.9738 1333.55C108.746 1343.72 124.634 1349.42 140.166 1348.04C161.974 1346.13 181.668 1329.57 187.364 1308.45C190.613 1296.33 189.122 1284.98 184.494 1274.99C195.976 1271.85 210.418 1264.24 213.111 1263.17C227.063 1257.58 241.194 1252.58 255.681 1248.48C263.18 1246.35 270.724 1245.57 277.221 1242.74C301.232 1262.75 329.537 1276.16 359.69 1283.02C303.813 1440.75 479.098 1605.19 631.351 1600.77C685.47 1599.16 731.511 1579.09 767.783 1547.65C786.342 1601.17 861.022 1617.68 911.136 1613.05C975.157 1607.15 1038.96 1579.47 1081.59 1530.36C1099.53 1509.66 1113.21 1485.96 1121.94 1460.64C1139.18 1467.72 1162.93 1463.09 1179.35 1457.81C1203.71 1449.98 1226.75 1434.87 1243.75 1415.73C1281.38 1373.43 1290.52 1313.99 1280.2 1259.76C1275.37 1234.37 1266.58 1207.63 1250.33 1187.13C1232.24 1164.3 1207.61 1156.58 1179.24 1156.65C1129.26 1156.8 1063.46 1171.96 1039.13 1220.67C1030.9 1216.15 1022.15 1212.46 1012.83 1209.81C977.805 1199.79 939.975 1202.66 904.816 1210.56C884.543 1215.1 856.483 1223.49 841.818 1241.01C836.032 1225.7 828.556 1211.3 819.677 1198.06C823.838 1188.62 823.615 1178.3 829 1169.11C834.653 1159.43 844.689 1153.08 849.05 1142.54C854.324 1129.61 850.074 1116.08 837.301 1109.91C811.376 1097.48 756.523 1105.55 735.272 1128.96C709.993 1119.39 682.066 1116.35 652.803 1121.78C655.184 1109.2 655.986 1096.27 656.475 1083.46C656.965 1071.26 657.209 1059.04 656.898 1046.85C662.862 1043.45 668.024 1038.97 674.945 1036.64C684.246 1033.5 693.793 1031.54 702.293 1026.36C715.956 1017.94 723.567 1002.5 717.603 986.857C710.215 967.541 688.185 956.348 670.761 947.959C658.945 942.262 642.523 933.383 627.992 933.116C620.581 921.255 611.547 910.396 600.843 900.85C609.566 893.083 617.51 884.516 624.676 875.37C630.039 879.42 636.069 882.869 641.276 886.853C648.776 892.616 656.074 899.559 665.799 901.273C684.246 904.521 695.64 889.189 699.156 873.011C703.896 851.293 699.912 826.192 692.28 805.586C687.184 791.922 679.618 774.031 667.423 764.018C668.158 755.072 668.38 746.082 667.957 737.047C679.729 738.85 691.901 739.295 704.341 738.115C708.235 753.292 713.398 768.179 720.051 782.487C746.977 840.478 797.535 881.045 855.904 904.766C976.803 953.945 1136.89 949.205 1238.94 861.173C1286.63 820.028 1317.05 763.216 1321.54 700.152C1326.44 631.146 1308.24 553.862 1271.59 495.071C1263.4 481.941 1254.03 469.947 1243.77 458.999C1245.15 453.636 1245.73 447.873 1247.13 442.065C1250.65 427.467 1255.05 413.158 1260.06 398.961C1261.02 396.246 1268.05 381.492 1270.72 369.899C1280.87 374.105 1292.26 375.128 1304.23 371.39C1325.1 364.847 1340.84 344.464 1341.86 322.634C1342.59 307.035 1336.27 291.436 1325.62 280.064C1312.11 265.689 1291.39 258.101 1271.92 261.394C1267.91 262.084 1264.2 263.086 1260.79 264.31C1225.14 277.127 1223.92 314.756 1240.25 342.328C1239.23 342.706 1238.27 343.285 1237.38 344.086C1223.96 356.525 1212.75 371.813 1202.8 387.122C1197.84 394.8 1190.9 404.213 1186.56 413.982C1173.36 406.327 1159.48 399.762 1145.1 394.332C1151.33 355.546 1123.34 315.313 1097.48 288.921C1067.57 258.323 1030.9 234.647 991.624 217.89C978.895 212.461 965.877 207.787 952.681 203.737C951.88 197.93 949.967 192.032 948.854 185.757C946.25 170.915 944.604 156.05 943.536 141.051C943.335 138.181 943.914 121.803 941.778 110.12C952.748 109.964 963.607 106.382 973.109 98.1927C989.665 83.8841 995.985 58.9165 988.263 38.444C982.723 23.8684 970.706 12.0522 956.398 5.88815C938.262 -1.94483 916.232 -0.654125 899.72 10.1385C896.315 12.3637 893.289 14.7226 890.663 17.2149C863.047 43.1838 876.888 78.1874 902.857 96.9465C902.056 97.7031 901.411 98.6376 900.899 99.7058C893.556 116.462 889.35 134.976 886.324 152.934C884.61 163.215 881.473 176.567 882.185 188.428C833.229 182.041 783.093 183.688 734.515 192.144C681.977 201.29 627.658 219.915 582.04 250.157C577.522 237.005 564.371 224.944 555.536 215.554C543.03 202.291 529.256 189.206 513.879 179.326C512.856 178.703 511.81 178.303 510.741 178.102C521.912 148.083 514.035 111.277 476.673 104.98C473.112 104.379 469.285 104.09 465.19 104.134C445.452 104.334 426.404 115.461 415.656 132.017C407.155 145.101 403.728 161.591 407.199 176.812C412.095 198.107 431.21 215.353 452.907 218.113C465.346 219.648 476.383 216.622 485.641 210.658C490.336 221.606 499.86 234.914 501.284 237.384C508.739 250.468 515.637 263.731 521.668 277.505C524.427 283.781 526.185 290.167 529.055 295.708C520.822 304.965 513.256 314.823 506.536 325.438C500.995 334.072 496.211 343.107 492.049 352.43C445.652 339.168 399.767 358.594 362.471 389.036C361.871 388.658 361.248 388.235 360.647 387.812C348.519 378.911 337.036 369.254 325.91 359.173C323.818 357.259 312.915 345.02 303.279 338.055C311.09 330.378 316.475 320.231 317.654 307.769C319.679 285.961 307.018 263.597 287.279 254.14C273.171 247.442 256.326 247.219 241.728 252.649C223.214 259.503 208.215 275.681 203.72 294.907C202.808 298.89 202.274 302.673 202.073 306.3C200.093 344.13 234.273 359.841 266.028 355.457C265.984 356.569 266.139 357.682 266.562 358.795C272.793 375.974 282.54 392.263 292.798 407.328C299.073 416.585 306.595 429.403 316.208 437.436C313.538 440.952 311.001 444.468 308.553 447.984C285.877 481.029 269.499 518.325 257.194 556.333C243.82 597.723 232.938 641.694 233.339 685.443C233.406 695.301 234.184 705.248 235.631 715.195C222.39 714.883 207.281 721.114 195.887 724.919C178.597 730.705 160.928 737.692 145.552 747.55C144.55 748.196 143.749 748.997 143.148 749.887C120.584 727.122 83.8226 718.867 62.4599 750.11C60.4349 753.091 58.5655 756.451 56.8743 760.168C48.7743 778.192 50.8661 800.134 61.3917 816.801C69.7365 829.997 83.2215 840.055 98.4869 843.26C119.916 847.777 143.571 837.674 155.165 819.115C161.818 808.434 163.687 797.152 162.174 786.27C174.079 786.626 190.124 783.511 192.995 783.288C207.948 782.02 222.947 781.33 237.967 781.642C243.931 781.708 249.672 782.599 255.213 782.643C258.684 790.632 262.512 798.487 266.763 806.164C223.77 843.571 202.252 900.049 194.085 956.326C192.816 956.526 191.526 956.704 190.213 956.815C175.215 958.262 160.26 958.729 145.195 958.618C142.325 958.618 126.08 956.771 114.264 957.995C114.954 947.024 112.195 935.898 104.784 925.795C91.8111 908.193 67.4221 899.937 46.4155 906.101C31.4171 910.463 18.7331 921.523 11.4564 935.319C2.24377 952.765 1.82088 974.818 11.3006 992.153C13.1698 995.713 15.2838 998.918 17.5758 1001.74ZM103.36 824.323C75.2107 819.427 58.1203 774.565 83.6665 756.407C102.67 742.9 135.137 757.431 142.058 778.17C150.67 804.006 130.553 829.062 103.36 824.323ZM202.941 762.015C191.971 762.771 169.162 762.015 156.9 769.403C155.988 767.444 154.987 765.575 153.874 763.706C170.519 756.585 186.697 748.863 204.054 743.389C215.114 739.94 228.198 738.872 239.058 734.177C241.016 742.699 243.375 751.2 246.201 759.567C231.18 758.655 214.379 761.169 202.941 762.015ZM139.388 1328.53C111.015 1332 81.6416 1294.06 100.757 1269.29C115.021 1250.82 150.314 1255.29 162.976 1273.12C178.731 1295.28 166.759 1325.12 139.388 1328.53ZM216.516 1239.91C206.235 1243.85 184.205 1249.75 174.592 1260.39C173.145 1258.81 171.654 1257.29 170.052 1255.83C183.893 1244.17 197.178 1232.08 212.154 1221.78C221.367 1215.5 232.96 1210.76 241.884 1203.62C243.731 1206.29 245.555 1208.98 247.514 1211.59C250.963 1216.17 254.635 1220.58 258.418 1224.74C243.375 1228.08 227.508 1235.69 216.516 1239.91ZM268.342 1202.53C263.936 1197.06 259.886 1191.31 256.059 1185.44C264.893 1185.02 274.084 1181.57 282.25 1178.56C290.195 1175.63 300.676 1173.36 309.087 1168.93C310.845 1172.13 312.87 1175.09 315.251 1177.7C328.091 1191.89 346.272 1190.42 357.888 1176.16C359.067 1174.71 360.135 1173.13 361.247 1171.64C369.347 1176.27 377.692 1180.26 383.345 1188.4C390.733 1198.99 389.086 1211.34 394.048 1222.71C398.032 1231.86 404.752 1235.8 411.339 1242.83C419.038 1251.02 417.925 1258.1 417.658 1266.04C361.181 1268.89 305.037 1248.17 268.342 1202.53ZM425.847 1459.08C423.867 1462.55 421.152 1465.42 418.348 1468.18C388.507 1429.17 371.506 1382.33 372.908 1333.82C388.285 1330.04 404.351 1319.98 418.882 1329.5C438.42 1342.28 417.235 1366.38 414.254 1383.36C411.694 1398.15 417.925 1410.35 424.089 1423.28C429.786 1435.23 432.924 1446.78 425.847 1459.08ZM651.913 1576.09C596.726 1584.34 538.847 1564.69 491.092 1533.83C498.08 1524.77 506.402 1517.92 518.218 1516.23C530.413 1514.51 537.111 1521.61 548.282 1523.46C554.402 1524.48 559.72 1522.88 565.261 1520.43C571.381 1517.76 574.585 1515.47 581.06 1514.47C583.708 1514.09 586.112 1514.51 588.893 1513.78C589.116 1513.69 589.316 1513.56 589.516 1513.47C597.438 1521.15 605.961 1526.98 614.262 1529.69C630.217 1534.96 644.703 1527.71 651.779 1514.09C663.128 1521.21 673.654 1527.09 678.616 1541.33C681.821 1550.65 684.38 1559.89 690.544 1566.16C678.149 1570.72 665.22 1574.11 651.913 1576.09ZM845.935 1585.46C832.539 1581.56 821.524 1575.62 811.933 1568.12C814.737 1563.6 815.871 1558.44 817.785 1552.63C821.679 1540.73 826.197 1529.45 833.162 1518.96C840.705 1507.53 853.812 1490.81 868.232 1502.21C874.552 1507.17 878.379 1515.03 884.632 1520.23C891.175 1525.62 899.431 1526.82 905.75 1532.14C914.251 1539.26 914.696 1550.34 919.147 1560.13C924.198 1571.19 931.986 1579.34 941.666 1585.37C910.468 1592.47 876.844 1594.49 845.935 1585.46ZM1031.28 1543.93C1027.92 1530.31 1014.99 1515.94 1009.87 1505.03C1005.84 1496.51 1002.79 1476.95 1013.19 1474.97C1017.82 1474.06 1028.88 1477.62 1034.1 1477.8C1046.83 1478.22 1057.67 1479.33 1065.86 1490.35C1068.68 1494.18 1069.84 1499.07 1072.29 1503.01C1060.76 1518.3 1046.92 1532.07 1031.28 1543.93ZM1236.52 1208.43C1237.52 1209.92 1238.47 1211.45 1239.39 1213.06C1250.56 1232.68 1256.83 1255.94 1259.59 1278.23C1264.98 1321.49 1255.81 1368.69 1225.54 1401.49C1211.13 1417.09 1193.5 1429.17 1173.3 1436.12C1173.14 1436.16 1172.98 1436.18 1172.81 1436.27C1177.23 1429.35 1180.26 1421.21 1181.84 1414.18C1188.76 1382.84 1172.43 1352.02 1178.21 1321.36C1182.69 1297.53 1199.29 1304.65 1216.47 1298.8C1225.52 1295.75 1234.67 1289.47 1237.65 1279.9C1241.9 1266.11 1231.31 1257.01 1227.86 1244.72C1224.03 1231.26 1228.06 1218.37 1236.52 1208.43ZM1103.64 1193.96C1127.1 1183.48 1153.67 1180.17 1179.19 1180.12C1195.64 1180.08 1209.37 1183.53 1220.6 1191.56C1219.43 1192.98 1219.18 1194.74 1219.65 1196.46C1208.59 1209.96 1203.27 1227.25 1206.76 1245.37C1209.32 1258.76 1224.05 1272.72 1206.07 1280.26C1194.64 1285.09 1182.06 1281.22 1171.16 1289.32C1150.04 1305.03 1157.32 1340.52 1160.52 1362.53C1162.97 1379.55 1166.11 1396.8 1161.43 1413.73C1158.39 1424.79 1151.84 1432.82 1146.17 1441.99C1145.57 1442.06 1144.9 1442.15 1144.26 1442.21C1138.6 1442.68 1132.82 1442.33 1127.17 1442.55C1134.17 1413.91 1134.93 1383.76 1128.23 1354.09C1118.13 1309.43 1095.08 1262.77 1058.63 1233.73C1070.24 1216.3 1083.44 1203 1103.64 1193.96ZM849.495 1265.11C866.63 1251.8 880.827 1240.74 903.147 1234.97C929.539 1228.17 957.577 1224.72 984.725 1227.99C1045.16 1235.18 1080.79 1283.55 1099.46 1337.83C1117.35 1389.97 1109.85 1440.32 1085.95 1482.2C1080.63 1473.95 1072.02 1466.89 1064.77 1463.22C1054.24 1457.95 1045.39 1458.79 1034.1 1458.06C1024.89 1457.46 1015.06 1451.98 1005.89 1453.32C988.019 1455.92 985.282 1480.47 987.04 1494.4C990.066 1518.03 1010.87 1532.67 1016.15 1554.48C1000.88 1564.23 984.281 1572.3 966.723 1578.31C966.189 1577.02 965.41 1575.71 964.32 1574.33C959.758 1568.83 950.523 1567.74 945.16 1562.31C938.929 1555.99 936.281 1548.16 933.499 1540.02C930.028 1529.73 926 1519.21 916.298 1513.29C910.09 1509.51 902.635 1508.86 896.916 1504.34C891.219 1499.83 887.592 1493.13 882.34 1488.17C863.337 1470.23 840.149 1479.11 824.906 1497.2C815.115 1508.82 798.737 1533.87 797.224 1554.3C791.705 1548.29 786.631 1541.68 781.624 1534.56C847.537 1467.12 874.708 1359.43 849.495 1265.11ZM777.552 1129.07C788.367 1126.43 823.17 1119.77 827.732 1132.21C830.024 1138.49 809.307 1159.56 806.08 1167.86C804.923 1170.91 803.944 1173.94 803.254 1176.9C789.146 1160.94 772.701 1147.63 754.454 1137.8C762.064 1134.66 769.563 1131.01 777.552 1129.07ZM749.87 1160.81C781.202 1179.43 803.833 1209.41 817.496 1242.85C844.755 1309.63 841.774 1390.3 810.753 1455.19C789.992 1498.67 755.144 1534.9 712.619 1556.51C711.551 1555.35 710.126 1554.32 708.302 1553.68C699.89 1550.7 698.777 1537.46 695.528 1530.27C692.591 1523.77 688.385 1517.61 683.178 1512.64C675.724 1505.57 666.578 1499.94 656.564 1498.96C661.415 1475.17 659.702 1449.16 663.841 1425.37C664.642 1420.74 658.633 1417.69 656.008 1422.05C647.44 1436.12 640.431 1450.38 637.916 1466.76C635.78 1480.8 639.941 1519.08 612.971 1505.08C599.041 1497.85 588.003 1478.09 581.305 1464.42C574.34 1450.27 571.781 1434.32 564.17 1420.56C563.28 1418.92 560.699 1418.87 559.809 1420.56C548.95 1441.1 558.207 1471.92 574.718 1495.87C569.934 1497.13 565.661 1499.45 559.809 1500.96C545.923 1504.48 533.373 1495.71 519.309 1496.82C501.373 1498.25 485.084 1508.44 477.207 1524.35C467.683 1517.47 458.626 1510.15 450.169 1502.59C443.56 1496.62 437.285 1490.3 431.366 1483.76C444.606 1474.7 451.527 1454.43 450.414 1439.48C449.569 1427.82 443.761 1418.18 438.977 1407.86C429.92 1388.34 438.509 1377.15 444.562 1358.83C459.404 1313.59 406.042 1295.39 374.31 1315.84C375.534 1306.12 377.448 1296.41 380.207 1286.69C403.684 1289.67 427.939 1288.92 451.839 1284.35C492.005 1276.74 529.968 1258.76 563.125 1235.18C595.413 1212.19 630.439 1183.3 645.927 1145.79C645.927 1145.74 645.927 1145.72 645.972 1145.67C683.201 1142.54 715.823 1140.53 749.87 1160.81ZM648.976 959.263C663.284 965.761 679.15 973.371 690.633 984.231C713.13 1005.57 678.082 1013.07 664.308 1018.12C661.281 1019.19 658.344 1020.46 655.518 1021.95C654.917 1015.52 654.138 1009.11 653.137 1002.7C650.489 986.323 646.061 970.456 639.674 955.614C642.856 956.771 646.016 957.906 648.976 959.263ZM668.825 802.76C676.391 818.67 680.441 836.406 680.308 854.008C680.241 860.35 680.73 875.459 674.344 879.799C666.4 885.161 653.849 871.565 648.175 867.893C644.013 865.179 639.607 862.464 635.023 860.55C648.219 840.011 657.699 817.068 663.017 793.013C665.153 796.128 667.178 799.355 668.825 802.76ZM1283.56 587.687C1284.05 587.041 1284.58 586.396 1285.12 585.706C1289.32 600.972 1292.53 616.504 1294.86 631.947C1298.16 653.599 1299.22 675.207 1297.73 696.347C1285.16 695.924 1273.88 703.957 1260.97 701.242C1245.66 697.993 1247.4 684.909 1244.84 673.426C1242.92 664.904 1238.1 661.232 1232.49 655.379C1220.4 642.829 1219.02 633.817 1233.44 621.533C1249.09 608.159 1269.94 604.109 1283.56 587.687ZM1244.46 496.361C1258.46 516.278 1269.27 538.352 1277.5 561.451C1273.52 567.37 1270.09 574.023 1264.95 578.696C1253.74 588.821 1238.79 593.116 1226.32 601.305C1209.19 612.521 1194.7 634.573 1204.18 655.357C1210.1 668.242 1222.34 671.201 1225.03 686.645C1226.9 697.281 1229.08 705.426 1237.81 712.68C1252.56 724.919 1278.15 725.809 1295.51 716.307C1290.01 751.712 1276.39 785.269 1252.25 814.709C1172.74 911.62 1034.35 927.954 918.524 901.384C863.181 888.677 808.484 864.088 770.32 820.762C731.356 776.501 714.911 716.352 717.358 658.139C733.113 671.134 757.48 673.782 776.061 665.015C810.753 648.681 799.004 615.592 803.477 585.194C808.328 552.26 846.424 535.504 859.776 505.796C869.456 484.189 873.706 452.368 862.536 429.714C894.78 413.492 931.408 402.788 969.193 397.826C965.054 423.15 977.137 460.022 1002.08 466.899C1020.24 471.905 1038.31 462.626 1056.2 461.091C1065.46 460.289 1076.43 460.178 1084.57 465.363C1093.34 470.949 1095.12 482.075 1102.55 488.929C1113.64 499.254 1128.3 497.496 1142.25 497.83C1163.48 498.319 1174.07 516.122 1193.97 520.127C1211.73 523.754 1235.25 512.806 1244.46 496.361ZM772.011 355.613C783.605 369.543 795.644 382.85 805.813 397.915C812.044 407.083 816.717 418.677 823.749 427.6C816.45 432.718 809.396 438.148 802.609 443.889C799.316 428.935 791.816 413.136 787.699 402.165C783.805 391.84 778.019 369.81 767.472 360.13C769.029 358.728 770.565 357.215 772.011 355.613ZM754.788 348.469C732.49 364.113 702.739 351.985 699.49 324.614C696.129 296.198 734.226 266.98 758.927 286.251C777.33 300.626 772.657 335.919 754.788 348.469ZM807.771 466.498C818.675 456.751 830.759 447.984 843.732 440.151C848.271 461.959 851.187 481.385 838.792 503.371C827.398 523.71 806.347 536.261 793.663 555.687C780.267 576.071 785.096 596.143 783.983 619.063C783.138 637.088 773.168 648.926 755.099 650.617C742.371 651.797 730.576 646.078 718.538 642.317C725.303 575.492 757.747 511.315 807.771 466.498ZM1261.48 286.473C1285.47 266.312 1324.59 294.173 1322.21 322.656C1319.96 350.161 1290.66 363.356 1267.82 348.514C1249.51 336.564 1243.59 301.494 1261.48 286.473ZM1218.58 399.762C1228.22 384.319 1239.76 370.589 1250.89 356.28C1252.38 357.815 1253.96 359.262 1255.61 360.642C1245.39 370.7 1240.39 392.93 1236.87 403.367C1233.53 413.225 1227.68 427.088 1224.52 440.663C1218.2 435.277 1211.59 430.27 1204.78 425.553C1209.86 417.23 1213.64 407.662 1218.58 399.762ZM1219.65 466.787C1222.36 469.502 1225.01 472.262 1227.57 475.088C1226.43 479.182 1225.59 483.299 1223.41 487.104C1216.87 498.275 1204.4 501.168 1192.9 496.695C1180.13 491.733 1171.67 480.606 1157.72 477.602C1146.64 475.243 1133.4 479.894 1122.87 476.267C1111.81 472.44 1108.14 457.063 1098.93 450.076C1081.75 436.991 1057.94 439.105 1038.04 443.311C1018.04 447.561 1000.19 452.368 992.803 428.134C989.554 417.497 989.665 406.104 985.771 396.001C1072.56 388.435 1163.04 410.888 1219.65 466.787ZM900.098 37.2201C914.095 9.22608 961.026 19.173 970.239 46.2546C979.073 72.3794 957.466 96.1231 930.584 91.6058C909.044 87.9786 889.662 58.1376 900.098 37.2201ZM905.839 158.231C908.51 140.228 913.672 123.049 918.145 105.492C920.125 106.293 922.151 106.982 924.198 107.583C918.813 120.89 923.085 143.277 923.997 154.203C924.954 165.574 925.021 182.308 928.203 196.928C919.747 194.903 911.269 193.19 902.702 191.654C904.905 180.839 904.237 168.823 905.839 158.231ZM943.958 225.434C984.77 237.673 1023.85 256.877 1057.02 283.825C1059.54 285.85 1061.99 287.92 1064.43 290.056C1057.89 298.846 1053.11 308.459 1042.52 314.801C1028.52 323.168 1011.85 326.039 996.119 321.143C979.986 316.181 966.59 304.765 950.412 299.602C936.036 294.974 920.237 295.196 905.884 300.025C900.12 301.983 893.422 308.17 887.881 309.171C876.021 311.307 873.684 299.803 871.77 291.458C868.432 276.771 865.762 262.24 860.221 248.132C855.392 235.848 846.758 218.024 834.475 208.01C871.592 209.145 908.51 214.797 943.958 225.434ZM484.55 189.095C464.701 207.765 433.524 199.999 426.426 173.34C419.038 145.68 452.617 111.389 479.81 126.943C500.082 138.537 500.461 174.141 484.55 189.095ZM524.738 237.562C519.42 227.926 510.586 206.92 498.725 198.864C500.105 197.217 501.395 195.526 502.597 193.746C516.06 205.874 529.901 217.334 542.096 230.797C550.507 240.098 557.383 252.671 567.33 260.504C559.92 266.09 552.799 272.009 546.034 278.284C540.805 263.486 530.635 248.176 524.738 237.562ZM505.98 403.3C506.603 392.975 507.782 382.694 509.073 372.347C511.476 366.005 514.168 359.729 517.217 353.61C549.773 288.365 617.911 248.31 686.561 227.392C680.864 237.562 675.078 247.62 667.401 256.833C656.92 269.428 644.303 280.198 634.667 293.505C623.852 308.503 621.138 324.859 615.841 342.194C611.547 356.08 605.939 366.895 590.34 369.276C582.774 370.433 575.875 369.32 568.688 372.569C558.14 377.309 551.82 387.3 547.614 397.626C542.251 410.755 541.806 432.474 529.79 441.686C506.803 459.333 505.179 416.385 505.98 403.3ZM494.453 448.562C495.721 450.632 497.123 452.568 498.703 454.459C508.116 465.541 523.648 468.412 536.332 461.202C551.331 452.701 556.983 434.61 561.144 419.122C564.816 405.548 567.686 392.419 583.441 388.792C593.299 386.499 601.733 388.747 610.946 383.206C628.192 372.814 632.976 352.542 637.716 334.561C649.643 289.277 697.309 265.333 711.372 220.694C712.93 220.36 714.465 219.96 716.045 219.581C747.021 212.505 778.954 208.566 810.931 207.921C818.764 220.472 830.736 229.729 837.279 243.681C845.245 260.504 848.338 278.863 852.166 296.887C854.68 308.659 859.242 322.856 870.569 329.087C887.125 338.233 899.252 323.435 914.362 319.185C939.752 312.064 958.044 327.218 979.719 337.165C993.916 343.663 1008.45 346.311 1023.96 343.974C1042.78 341.148 1071.64 326.728 1082.1 306.679C1089.94 314.779 1097.17 323.48 1103.4 332.759C1114.99 350.094 1120.53 367.718 1123.47 387.033C1096.23 379 1067.75 374.594 1039.24 373.726C990.066 372.191 936.125 375.818 889.639 392.93C872.616 399.161 856.238 407.128 840.75 416.518C836.544 404.969 827.443 393.642 821.168 384.741C810.687 369.788 798.937 354.9 785.096 342.973C784.184 342.172 783.182 341.638 782.159 341.282C797.535 313.177 794.932 275.614 758.86 264.065C755.389 262.952 751.672 262.106 747.622 261.572C728.04 258.947 707.612 267.269 694.661 282.112C684.38 293.883 678.639 309.683 679.907 325.26C681.732 347.023 698.177 366.828 719.25 372.636C731.333 375.929 742.727 374.505 752.718 369.921C755.811 381.403 763.355 395.935 764.423 398.605C769.92 412.602 774.815 426.755 778.887 441.241C780.801 448.117 781.558 454.971 783.827 461.091C781.869 463.049 779.955 465.029 778.064 467.01C744.752 502.08 719.584 545.073 706.61 591.781C695.484 631.903 692.814 674.428 699.534 715.395C686.271 716.708 673.387 715.595 660.903 712.614C658.633 711.234 656.052 710.589 653.515 710.633C593.856 692.653 545.345 631.88 521.022 578.808C502.953 539.287 493.051 493.468 494.453 448.562ZM222.724 314.156C213.467 284.248 254.278 258.969 279.624 272.165C304.102 284.938 304.904 317.071 282.339 332.358C264.292 344.597 229.645 336.453 222.724 314.156ZM310.534 397.604C300.053 382.716 291.864 366.783 282.962 350.984C284.943 350.183 286.901 349.293 288.815 348.314C294.089 361.665 312.67 374.861 320.948 382.16C327.557 388.013 336.124 396.647 345.47 404.146C339.84 409.575 334.5 415.228 329.449 421.013C323.685 412.824 316.03 405.459 310.534 397.604ZM306.751 494.136C323.729 461.58 350.744 424.952 383.812 399.784C386.482 406.393 390.043 412.513 392.335 419.745C396.919 434.209 396.629 450.343 391.378 464.607C382.076 489.841 360.847 508.622 351.033 533.724C346.516 545.228 345.493 556.599 344.981 568.861C344.247 586.463 338.55 613.923 314.005 599.258C292.665 586.53 289.215 559.248 288.036 534.191C293.822 520.261 300.142 506.842 306.751 494.136ZM274.284 571.398C278.556 587.353 286.678 601.995 297.849 611.675C324.286 634.551 359.111 619.619 364.14 586.552C367.434 564.744 365.676 546.475 377.559 526.625C387.884 509.379 401.347 494.114 409.158 475.377C418.571 452.768 420.662 407.996 399.478 389.125C425.402 373.326 454.331 365.137 484.684 371.078C462.164 437.058 469.196 514.275 495.009 577.139C521.467 641.694 575.898 709.788 644.748 731.617C649.443 798.309 620.959 866.202 562.145 901.54C494.675 942.084 418.994 926.596 359.134 880.088C327.624 855.61 300.498 823.9 281.917 788.073C295.713 782.576 299.474 770.471 301.499 756.451C302.678 748.24 304.169 741.876 309.643 735.645C312.469 732.396 315.986 729.948 318.367 726.232C322.572 719.734 323.04 712.703 321.994 705.203C319.346 685.309 305.46 668.486 293.11 653.577C285.076 643.853 276.776 634.373 270.879 623.135C268.053 617.75 266.139 612.276 264.537 606.691C267.274 594.808 270.568 582.991 274.284 571.398ZM256.726 706.405C254.501 684.909 255.28 662.567 258.328 640.114C267.274 654.489 279.291 667.93 286.59 678.01C292.397 686.11 303.146 700.352 301.543 710.833C300.364 718.711 290.039 723.718 286.011 730.305C281.583 737.648 281.538 745.525 280.426 753.714C279.269 762.17 277.666 762.927 273.038 768.824C272.926 768.757 272.815 768.668 272.726 768.601C264.515 748.752 258.974 727.857 256.726 706.405ZM262.267 843.171C266.94 836.628 271.903 830.242 277.266 824.055C336.347 916.16 446.053 978.222 551.531 932.404C562.502 927.62 572.805 921.879 582.351 915.314C610.768 938.368 625.188 973.327 630.706 1008.91C636.358 1045.63 638.116 1091.82 627.724 1127.81C617.466 1163.08 585.088 1190.42 556.627 1211.57C527.053 1233.55 493.785 1251 457.958 1260.03C451.794 1261.61 445.608 1262.81 439.377 1263.81C439.866 1258.5 439.11 1252.87 437.664 1247.75C432.657 1230.19 415.032 1223.58 410.426 1206.02C405.597 1187.51 392.023 1160.94 371.796 1156.58C375.133 1151.53 378.516 1146.52 382.343 1141.85C391.066 1131.25 399.522 1120.97 407.734 1109.96C411.873 1104.46 403.906 1097.12 398.432 1100.66C384.635 1109.65 374.11 1119.55 363.829 1132.43C359.267 1138.2 354.883 1144.09 350.7 1150.15C343.312 1160.9 336.859 1178.36 325.065 1153.73C317.565 1138.02 318.344 1115.26 320.659 1098.43C322.639 1083.81 331.028 1068.32 327.69 1053.73C327.112 1051.17 324.219 1050.43 322.105 1051.43C303.368 1060.6 300.498 1091.2 299.474 1109.8C298.829 1121.55 299.118 1136.08 302.122 1149.55C296.18 1151.26 290.35 1154.22 284.72 1156.4C271.88 1161.34 258.952 1164.34 245.978 1168.02C237.611 1151.99 230.98 1134.9 225.973 1117.26C250.295 1111.36 254.323 1087.04 262.201 1065.36C265.539 1056.11 265.872 1056.46 274.662 1052.86C280.047 1050.63 284.52 1047.63 288.437 1043.22C295.513 1035.28 298.851 1024.91 299.385 1014.43C300.965 982.718 283.675 947.224 272.459 918.229C265.917 901.317 258.395 883.804 258.306 865.379C258.24 857.791 260.687 850.447 262.267 843.171ZM239.436 882.068C243.419 909.083 256.459 934.807 264.759 960.576C269.433 975.196 275.508 990.573 276.732 1005.9C277.577 1016.45 276.732 1026.71 265.984 1032.3C262.379 1034.12 257.772 1033.88 254.056 1035.81C244.421 1040.86 242.707 1049.45 240.482 1059.33C237.011 1074.82 233.561 1087.53 220.699 1095.78C215.069 1069.44 212.51 1042.4 212.243 1016.43C211.664 968.387 220.009 923.036 239.436 882.068ZM110.326 975.241C123.165 981.627 145.819 979.113 156.789 979.024C166.113 978.979 178.975 979.758 191.437 978.957C191.058 983.852 190.702 988.704 190.48 993.532C190.369 996.559 190.28 999.607 190.213 1002.63C180.155 1000.12 169.095 999.763 159.348 997.516C141.635 993.421 124.879 986.968 107.766 981.115C108.701 979.179 109.547 977.221 110.326 975.241ZM52.7576 924.571C79.4609 917.762 101.491 941.216 94.8598 967.63C89.5859 988.815 58.2987 1005.84 38.2934 993.799C11.4566 977.644 25.0307 931.647 52.7576 924.571Z" fill="#3D2938"/>
</g>
<defs>
<filter id="filter0_d_403_13891" x="0.324219" y="0.833008" width="1345.59" height="1620.98" filterUnits="userSpaceOnUse" color-interpolation-filters="sRGB">
<feFlood flood-opacity="0" result="BackgroundImageFix"/>
<feColorMatrix in="SourceAlpha" type="matrix" values="0 0 0 0 0 0 0 0 0 0 0 0 0 0 0 0 0 0 127 0" result="hardAlpha"/>
<feOffset dy="4"/>
<feGaussianBlur stdDeviation="2"/>
<feComposite in2="hardAlpha" operator="out"/>
<feColorMatrix type="matrix" values="0 0 0 0 0 0 0 0 0 0 0 0 0 0 0 0 0 0 0.25 0"/>
<feBlend mode="normal" in2="BackgroundImageFix" result="effect1_dropShadow_403_13891"/>
<feBlend mode="normal" in="SourceGraphic" in2="effect1_dropShadow_403_13891" result="shape"/>
</filter>
</defs>
</svg>
