<svg width="1189" height="1517" viewBox="0 0 1189 1517" fill="none" xmlns="http://www.w3.org/2000/svg">
<g filter="url(#filter0_d_403_13964)">
<path d="M849.957 1422.57C850.603 1405.71 846.998 1386.7 839.765 1369.06C834.269 1355.55 825.88 1346.87 816.979 1337.68L815.666 1336.32C815.177 1335.81 814.42 1335.63 813.752 1335.88C805.385 1338.86 797.641 1341.44 790.097 1343.76C742.009 1358.49 689.115 1368.06 623.647 1373.91C622.98 1373.97 622.378 1374.4 622.133 1375.02C620.776 1378.34 619.33 1381.65 617.861 1384.97C609.183 1404.73 600.237 1425.18 611.608 1446.81C617.483 1457.98 625.049 1464.19 634.106 1465.26C651.129 1467.28 668.575 1450.66 677.454 1440.56C679.791 1437.91 683.819 1438.04 686.578 1439.29C687.735 1439.8 691.451 1441.82 690.917 1445.98C688.513 1464.92 699.24 1486.62 721.292 1490.18C723.095 1490.47 724.875 1490.62 726.633 1490.62C734.733 1490.62 742.477 1487.6 748.863 1481.86C757.853 1473.8 763.038 1461.29 762.393 1449.21C762.126 1443.96 765.931 1441.89 769.269 1441.69C773.519 1441.45 778.059 1444.03 778.415 1449.41C778.993 1458.98 784.045 1466.7 792.59 1471.15C802.626 1476.36 815.911 1475.85 825.613 1469.86C840.055 1461.01 849.156 1443.31 849.957 1422.57Z" fill="#FF7A52"/>
<path d="M1098.43 1244.58C1115.03 1242.91 1128.63 1233.76 1135.72 1219.47C1143.34 1204.16 1142.24 1185.09 1132.85 1169.72C1124.29 1155.65 1110.56 1145.08 1094.18 1139.94C1088.97 1138.3 1083.72 1137.72 1078.65 1137.16C1075.8 1136.85 1072.88 1136.52 1070.06 1136C1069.35 1135.87 1068.66 1136.16 1068.23 1136.76C1030.18 1191.77 983.872 1238.37 930.598 1275.28C929.909 1275.77 929.642 1276.66 929.953 1277.44C932.824 1284.7 933.247 1292.84 933.692 1301.45C934.337 1313.76 934.983 1326.51 943.305 1336.81C951.984 1347.56 967.872 1358.06 984.428 1358.06C985.029 1358.06 985.608 1358.04 986.209 1358.02C995.755 1357.55 1004.48 1352.81 1009.55 1345.31C1014 1338.73 1014.98 1330.89 1012.33 1323.24C1010.57 1318.21 1013.87 1315.38 1015.36 1314.43C1018.52 1312.36 1023.5 1311.87 1026.89 1314.98C1044.2 1330.94 1071.26 1331.43 1087.19 1316.07C1104.59 1299.29 1102.12 1273.95 1090.68 1257.55C1088.73 1254.72 1089.22 1252.16 1089.97 1250.49C1091.4 1247.38 1094.89 1244.93 1098.43 1244.58Z" fill="#FF7A52"/>
<path d="M44.806 913.098C54.2189 919.04 65.7236 920.62 78.0961 917.616C100.794 912.119 117.728 894.028 132.682 878.073L134.485 876.159C138 872.443 142.162 873.199 144.899 875.157C148.17 877.516 150.262 882.212 147.881 886.64C128.388 923.135 124.983 973.515 161.344 1003.82C178.167 1017.82 201.132 1022.03 221.293 1014.82C239.429 1008.32 251.913 993.609 255.562 974.427C256.586 969.02 261.481 968.397 262.972 968.33C266.711 968.107 271.317 970.266 272.541 974.583C276.68 989.314 287.562 1000.75 303.161 1006.78C321.853 1013.99 344.351 1012.12 360.462 1002.02C395.911 979.723 401.229 928.965 390.748 888.554C389.502 883.68 392.439 880.921 395.332 880.031C398.736 878.985 403.187 880.031 404.9 884.815C422.458 933.705 411.242 998.148 362.108 1021.34C329.73 1036.6 287.918 1027.92 266.889 1001.6C266.51 1001.13 265.954 1000.89 265.353 1000.93C264.752 1000.97 264.218 1001.29 263.907 1001.8C257.275 1012.79 247.284 1021.8 235.001 1027.86C234.333 1028.19 233.932 1028.9 233.999 1029.64C235.802 1050.51 237.315 1071.76 238.783 1092.32C240.208 1112.26 241.677 1132.89 243.412 1153.16C244.08 1160.88 244.659 1168.65 245.259 1176.46C247.707 1208.46 250.222 1241.55 257.61 1272.79C267.111 1312.96 291.589 1339.15 330.353 1350.61C368.272 1361.78 409.284 1363.21 444.755 1363.65C451.431 1363.74 458.107 1363.78 464.783 1363.78C527.135 1363.78 589.865 1360.25 651.505 1353.28C732.416 1344.07 798.93 1326.58 854.873 1299.76C955.968 1251.32 1041.71 1163.73 1096.25 1053.18C1152.08 940.113 1174.38 802.346 1160.74 654.766C1148.05 517.066 1104.3 394.075 1034.16 299.056C1033.85 298.633 1033.38 298.366 1032.87 298.321C1032.36 298.277 1031.85 298.455 1031.47 298.789C1022.86 306.778 1013.62 313.609 1004.01 319.083C976.173 334.883 941.926 336.641 914.689 323.69C891.056 312.452 875.591 291.735 871.118 265.343C870.54 261.938 870.138 258.155 869.693 254.172C868.024 238.684 866.111 221.127 853.227 212.248C848.22 208.821 843.146 206.729 838.228 204.704C830.195 201.388 822.629 198.273 816.888 189.639C805.873 172.972 806.029 150.875 817.4 128.778C818.535 125.64 819.803 122.658 821.138 119.876C821.361 119.431 821.383 118.942 821.205 118.475C821.049 118.007 820.693 117.651 820.248 117.429C819.87 117.251 819.469 117.073 819.113 116.85L815.953 114.736C785.156 94.2191 756.071 74.837 722.18 60.4394C689.824 46.7095 654.354 36.3396 616.814 29.5971C551.769 17.8476 482.985 17.4693 412.377 28.5289C379.399 33.6916 344.707 40.1226 314.932 56.8567C286.671 72.7674 265.954 98.5584 253.337 133.451C242.455 163.648 238.183 196.092 235.179 226.645C231.262 267.034 228.414 307.912 226.723 348.101C225.098 386.843 224.453 427.81 224.831 469.846C224.92 481.439 225.521 493.478 226.122 505.116C227.101 524.498 228.102 544.526 226.878 563.819C226.834 564.464 227.146 565.087 227.702 565.444C228.258 565.8 228.948 565.844 229.527 565.533C236.581 561.928 243.145 559.391 249.643 557.766C250.177 557.611 250.756 557.967 251.023 558.345C251.312 558.745 251.334 559.124 251.089 559.502C241.476 574.345 227.791 584.425 213.304 595.084C210.144 597.421 206.962 599.757 203.825 602.161C179.814 620.519 161.834 635.295 145.5 650.049C106.558 685.097 77.696 719.566 57.2457 755.415C28.7177 805.462 17.8582 848.209 25.0014 882.456C27.8497 895.919 34.8812 906.823 44.806 913.098ZM1000.76 561.282C1027.11 539.519 1005.39 504.827 989.547 479.481C986.766 475.053 984.162 470.869 982.093 467.22C981.514 466.196 982.003 464.906 982.782 464.216C983.294 463.748 984.073 463.348 985.03 464.015C1011.98 482.93 1024.82 501.467 1028 526.012C1030.85 547.819 1022.35 567.624 1005.81 577.683C990.593 586.962 972.301 584.87 955.567 571.986C938.455 558.79 924.614 533.822 931.223 511.614L931.423 511.436C931.423 511.436 931.445 511.436 931.49 511.436C931.579 511.436 931.712 511.458 931.824 511.614C933.693 514.507 935.807 518.246 938.255 522.585C948.268 540.298 961.998 564.576 979.734 567.847C986.832 569.182 993.886 566.957 1000.76 561.282ZM1030.87 424.428C1034.59 422.915 1036.77 420.022 1037.21 416.083C1038.44 405.046 1025.69 388.579 1019.97 384.595C1019.3 384.128 1018.9 383.371 1018.92 382.637C1018.94 382.214 1019.12 381.636 1019.86 381.213C1022.88 379.41 1026.09 378.921 1029.45 379.811C1035.83 381.48 1041.2 387.51 1044.09 392.606C1047.16 397.992 1056.42 416.55 1046.29 429.501C1039.93 437.668 1027.78 440.761 1016.74 437.001C1007.75 433.952 992.173 423.315 994.465 413.858C994.554 413.457 994.977 413.034 995.333 412.945C995.978 412.812 996.623 412.745 997.269 412.745C1001.47 412.745 1005.35 415.638 1009.42 418.664C1015.36 423.07 1022.04 428.055 1030.87 424.428ZM1082.5 670.009C1089.68 654.188 1081.25 635.629 1073.82 619.273C1071.57 614.333 1069.43 609.66 1067.88 605.343C1067.5 604.319 1067.9 603.874 1068.28 603.607C1069.08 603.029 1070.64 602.873 1071.59 603.629C1089.93 617.982 1098.92 632.424 1100.74 650.471C1102.44 667.161 1096.96 682.293 1086.15 690.927C1076.04 698.916 1059.31 702.565 1046.83 694.087C1032.43 684.296 1028.85 663.245 1030.27 646.844C1030.29 646.533 1030.51 646.31 1030.71 646.243C1030.76 646.243 1030.83 646.221 1030.83 646.221C1030.89 646.221 1030.98 646.266 1031.09 646.355C1037.17 652.407 1040.02 657.748 1043.6 664.513C1044.8 666.783 1046.09 669.186 1047.56 671.767C1051.85 679.2 1058.62 683.45 1065.63 683.094C1072.73 682.76 1078.87 677.998 1082.5 670.009ZM930.555 1077.64C930.689 1077.59 930.778 1077.57 930.867 1077.57C931.089 1077.57 931.178 1077.68 931.223 1077.72C934.227 1081.2 936.742 1085.29 939.412 1089.63C945.287 1099.2 951.384 1109.08 963.2 1112.19C968.674 1113.64 973.948 1112.82 978.043 1109.86C982.449 1106.68 985.208 1101.22 985.586 1094.9C986.165 1085.33 981.914 1077.68 977.931 1071.29C977.152 1069.98 978.02 1068.93 978.287 1068.65C978.888 1068.02 979.978 1067.53 981.091 1068.18C992.44 1074.68 999.116 1087.87 997.669 1101.02C996.423 1112.42 989.347 1120.94 978.243 1124.43C965.715 1128.37 955.79 1123.74 949.67 1119.18C937.765 1110.3 929.598 1093.55 929.843 1078.48C929.843 1078.1 930.199 1077.77 930.555 1077.64ZM950.582 892.314C944.641 874.223 948.491 850.012 959.551 835.97C959.662 835.837 959.706 835.792 959.795 835.792C959.84 835.792 959.884 835.815 959.951 835.815C960.396 835.948 960.885 836.504 960.93 836.927C961.486 842.557 961.063 848.654 960.618 855.13C959.728 868.237 958.794 881.789 965.982 892.826C969.409 898.122 975.127 901.75 981.269 902.528C986.632 903.196 991.773 901.594 995.711 897.966C1004.55 889.8 1002.1 875.002 1001.14 870.64C1000.67 868.593 1001.85 867.102 1003.01 866.457C1003.54 866.145 1005.46 865.299 1007.26 867.057C1016.67 876.226 1018.41 887.841 1012.07 898.923C1005.52 910.317 989.792 920.019 973.48 915.524C959.595 911.696 953.364 900.793 950.582 892.314ZM1015.87 813.295C1016.36 808.933 1017.94 805.395 1019.63 801.679C1020.41 799.943 1021.19 798.185 1021.9 796.316L1022.46 796.16C1022.24 803.481 1024.73 812.761 1026.93 820.037C1028.82 826.224 1032.32 834.858 1040.88 838.463C1049.07 841.956 1058.95 839.798 1064.41 833.322C1069.03 827.804 1072.53 814.808 1069.99 807.509C1069.48 805.974 1070.26 805.217 1071.01 804.839C1072.26 804.216 1074.11 804.349 1075.02 805.684L1076.24 807.442C1079.78 812.449 1082.85 816.788 1082.67 823.153C1082.5 829.027 1080.65 834.791 1077.29 839.798C1070.26 850.145 1057.31 855.575 1044.33 853.617C1031.92 851.703 1021.97 843.225 1017.72 830.941C1015.85 825.445 1015.18 819.214 1015.87 813.295ZM625.96 96.6446C631.923 97.0229 637.776 98.4916 643.406 100.984C665.325 110.597 680.189 133.963 678.765 156.549C677.497 176.799 667.417 192.621 650.415 201.055C631.211 210.579 606.332 209.043 588.508 197.205C572.731 186.724 564.742 169.767 566.032 149.45C567.924 119.943 596.564 94.7754 625.96 96.6446ZM581.721 268.503C581.832 268.458 581.988 268.414 582.122 268.414C582.433 268.414 582.789 268.547 583.079 268.926C582.901 271.084 582.589 273.354 582.277 275.69C580.697 287.596 578.716 302.438 593.937 308.491C599.946 310.872 605.598 309.915 609.849 305.754C615.123 300.569 616.925 291.356 614.121 283.857C613.743 282.833 614.366 282.121 614.788 281.788C615.523 281.164 616.725 280.831 617.592 281.343C627.183 287.017 629.942 297.965 624.446 308.558C619.172 318.749 608.157 324.201 596.43 322.488C583.657 320.574 573.221 311.206 570.506 299.167C567.947 287.818 571.017 273.22 581.721 268.503ZM607.756 1284.41C607.957 1283.58 608.38 1283.16 609.114 1283.12C610.071 1283.05 611.25 1283.61 611.673 1284.67L612.162 1285.9C614.877 1292.64 617.237 1298.45 615.212 1305.64C613.721 1310.91 610.427 1315.72 605.91 1319.17C597.988 1325.22 586.617 1327.04 576.247 1323.91C565.699 1320.7 557.287 1311.73 554.327 1300.45C551.39 1289.48 553.015 1274.08 561.804 1267.14C562.249 1266.78 562.806 1266.61 563.362 1266.61C563.696 1266.61 564.007 1266.67 564.297 1266.81C564.875 1267.1 565.143 1267.58 565.143 1268.32C565.121 1270.81 564.942 1273.53 564.742 1276.42C563.83 1289.37 562.695 1305.48 578.405 1311.33C585.059 1313.85 593.158 1312.87 598.054 1308.91C603.506 1304.46 605.642 1294.4 607.2 1287.08L607.756 1284.41ZM567.946 1064.77C538.461 1061.3 518.99 1043.41 511.691 1012.99C505.327 986.488 503.903 957.76 502.545 929.988C502.078 920.687 501.611 911.096 500.966 901.839C495.024 818.814 491.642 734.654 490.885 651.695C490.729 634.004 490.351 615.913 489.973 598.4C489.016 554.072 488.059 508.232 490.662 463.882C491.019 457.874 491.219 451.799 491.441 445.679C491.953 431.148 492.465 416.127 494.957 401.952C501.299 365.747 537.282 360.696 573.577 358.626C578.227 358.359 582.901 358.226 587.596 358.226C653.464 358.226 723.226 384.373 781.105 431.126C876.303 508.054 929.888 629.331 920.987 747.627C912.375 861.539 841.566 967.84 736.244 1025.05C678.988 1056.12 617.659 1070.6 567.946 1064.77ZM481.472 1182.71C479.358 1201.14 477.178 1220.21 493.088 1233.89C500.12 1239.92 508.509 1241.97 516.12 1239.52C523.953 1236.99 529.983 1229.89 532.231 1220.54C535.102 1208.64 534.901 1195.04 534.234 1182.13C534.167 1180.93 534.678 1180.22 535.724 1179.98C537.015 1179.69 538.662 1180.29 539.218 1181.76C547.118 1202.43 552.636 1221.1 539.774 1240.26C530.473 1254.12 513.649 1259.62 497.917 1253.94C482.718 1248.45 472.015 1236.07 467.787 1219.1C462.469 1197.82 468.254 1173.17 482.184 1157.66C482.295 1157.68 482.562 1157.9 482.585 1158.15C483.408 1165.82 482.451 1174.03 481.472 1182.71ZM676.651 1191.57C675.405 1177.59 668.284 1162.44 661.475 1149.47C660.518 1147.66 661.386 1146.11 662.41 1145.35C663.411 1144.59 665.013 1144.26 666.415 1145.64C680.701 1159.48 694.898 1176.95 691.783 1201.45C689.736 1217.54 679.188 1231.98 665.525 1237.41C653.998 1241.95 643.65 1241.22 634.749 1235.21C613.898 1221.08 605.954 1182.33 605.865 1161.22C605.865 1160.1 606.844 1158.92 608.135 1158.48C608.402 1158.39 608.713 1158.32 609.025 1158.32C609.537 1158.32 610.093 1158.5 610.538 1159.08C615.456 1165.42 618.193 1174.9 621.086 1184.94C626.026 1202.12 631.144 1219.87 648.19 1224.1C654.599 1225.71 660.696 1224.28 665.747 1219.96C673.914 1213 677.408 1200.4 676.651 1191.57ZM368.584 1174.43C367.761 1149.62 379.955 1122.5 396.979 1111.3C397.134 1111.19 397.335 1111.15 397.557 1111.15C397.846 1111.15 398.18 1111.24 398.469 1111.42C398.647 1111.53 399.204 1111.88 399.159 1112.46C398.269 1121.81 395.065 1131.09 391.972 1140.08C387.877 1151.94 383.649 1164.18 384.428 1177.17C384.962 1185.78 389.479 1193.82 396.222 1198.13C401.941 1201.78 408.661 1202.41 415.204 1199.87C426.686 1195.42 431.604 1181.82 432.36 1170.59C432.516 1168.56 434.119 1167.29 435.565 1166.96C436.411 1166.78 438.035 1166.71 439.103 1168.6C446.224 1181.4 444.355 1195.13 434.074 1205.34C423.704 1215.65 404.723 1221.28 388.567 1212.13C376.239 1205.19 369.163 1191.79 368.584 1174.43ZM370.342 1249.96C370.698 1249.96 371.01 1250.07 371.299 1250.27C371.922 1250.74 372.233 1251.59 372.1 1252.54C371.276 1258.53 368.339 1264.51 365.491 1270.32C360.15 1281.2 354.632 1292.46 361.485 1305.1C364.668 1310.96 368.695 1314.25 373.48 1314.89C384.228 1316.34 395.977 1303.99 404.567 1294.98C406.681 1292.75 408.684 1290.66 410.308 1289.15C411.398 1288.12 412.466 1288.55 412.844 1288.77C413.534 1289.15 414.225 1290.06 413.98 1291.35C410.775 1307.62 397.602 1323.17 383.36 1327.53C373.48 1330.56 364 1327.93 355.989 1319.97C347.555 1311.58 344.017 1298.67 346.309 1284.54C348.801 1269.19 357.591 1256.04 369.274 1250.25C369.675 1250.05 370.008 1249.96 370.342 1249.96ZM438.747 253.927C439.904 261.026 443.821 266.7 448.694 268.369C451.498 269.348 455.97 269.482 461.2 264.653C465.294 260.826 468.476 255.574 471.57 250.5C472.927 248.253 474.285 246.05 475.642 244.069C476.555 242.756 478.046 242.534 479.114 242.868C479.781 243.068 480.871 243.669 480.894 245.382C481.005 261.805 475.353 273.265 464.093 279.451C452.922 285.593 440.038 283.479 432.783 274.333C423.927 263.184 424.104 246.561 426.953 235.702C430.268 223.018 436.789 215.764 449.451 210.646C449.495 210.668 449.651 210.779 449.762 211.335C446.424 216.876 435.787 236.303 438.747 253.927ZM192.186 672.123C168.287 679.756 146.346 702.632 141.138 725.352C139.336 733.229 141.027 740.484 145.9 745.78C151.619 751.988 161.233 754.993 171.002 753.613C184.398 751.721 195.124 742.909 204.114 734.809C207.986 731.293 212.08 732.05 214.617 733.919C217.51 736.055 219.446 740.306 217.243 745.023C211.168 758.108 206.428 778.313 213.126 792.221C216.487 799.187 222.316 803.748 230.439 805.729C253.315 811.314 266.844 781.629 270.449 772.394C272.519 767.098 277.08 765.696 280.663 766.675C284.312 767.677 287.561 771.215 286.627 776.889C284.557 789.64 280.241 816.165 298.11 826.402C303.918 829.717 309.458 830.34 314.643 828.271C328.24 822.819 335.138 799.765 337.408 792.177C338.632 788.06 342.593 786.747 345.819 787.304C348.623 787.771 351.539 789.751 351.338 793.935C350.515 811.826 341.369 830.007 328.618 839.175C319.495 845.739 308.88 847.542 297.909 844.426C282.444 840.043 272.986 828.338 269.782 809.645C269.67 808.978 269.181 808.421 268.536 808.221C268.358 808.177 268.179 808.132 268.001 808.132C267.512 808.132 267.045 808.332 266.711 808.688C257.365 818.302 242.099 828.271 222.45 821.261C193.143 810.847 192.253 782.096 194.323 765.896C194.412 765.229 194.123 764.561 193.566 764.183C193.01 763.805 192.298 763.738 191.697 764.049C181.549 769.234 171.869 771.437 162.034 770.725C144.81 769.457 130.146 758.731 125.562 744.022C120.533 727.955 126.808 706.504 141.94 688.034C156.315 670.521 175.007 660.685 190.74 662.354C193.878 662.688 195.547 665.091 195.747 667.183C195.969 669.475 194.656 671.322 192.186 672.123ZM270.716 360.006C274.833 351.639 289.898 324.246 311.239 322.733C312.018 322.688 312.663 323 313.108 323.667C313.708 324.58 313.798 325.87 313.33 326.783C310.415 332.39 306.009 336.975 301.336 341.803C297.731 345.52 294.015 349.391 291.033 353.753C282.977 365.458 277.837 377.83 275.746 390.515C274.7 396.79 272.118 417.997 282.154 427.388C286.449 431.393 292.346 432.572 299.689 430.859C309.414 428.589 317.135 421.224 324.612 414.08C327.616 411.21 330.465 408.495 333.358 406.203C334.76 405.09 337.007 405.29 338.253 406.203C339.188 406.893 339.411 407.805 338.943 409.051C334.27 421.468 322.944 442.764 299.333 446.08C281.464 448.617 266.399 438.692 261.904 421.401C257.209 403.377 260.413 381.013 270.716 360.006ZM368.361 580.82C368.74 579.685 369.83 579.552 370.386 579.641C370.854 579.708 371.655 580.019 371.632 581.154C371.41 606.277 362.019 626.394 345.819 636.341C325.658 648.713 310.527 629.042 306.366 622.7C296.819 608.147 292.679 578.105 301.959 558.3C307.032 547.486 315.177 541.388 326.036 540.12C326.148 540.164 326.304 540.365 326.348 540.298C324.523 544.637 322.454 548.798 320.473 552.826C313.575 566.779 307.055 579.952 310.638 597.755C311.839 603.763 315.711 618.249 325.703 622.789C330.821 625.103 336.651 624.436 343.015 620.786C355.365 613.71 365.491 589.543 368.361 580.82ZM359.883 416.417C360.195 416.016 360.55 415.816 360.951 415.816C361.107 415.816 361.241 415.838 361.419 415.883C362.42 416.172 363.354 417.285 363.443 418.286C363.911 422.648 364.066 427.12 364.222 431.46C364.712 444.656 365.224 458.296 373.969 470.246C378.665 476.677 383.582 479.526 388.611 478.658C400.138 476.744 408.327 455.448 412.177 442.92C412.844 440.739 414.514 440.695 415.204 440.761C416.539 440.917 417.963 441.896 418.118 443.81C419.298 457.874 419.521 472.561 408.417 483.665C400.673 491.431 387.543 496.571 375.638 490.585C364.867 485.178 356.412 472.694 353.052 457.184C349.647 441.518 352.273 425.896 359.883 416.417ZM414.291 139.303C408.906 146.024 401.852 151.208 395.065 156.238C385.63 163.203 375.86 170.413 369.785 181.962C366.447 188.326 363.154 200.721 368.45 206.885C370.564 209.333 374.859 211.625 383.449 208.687C390.859 206.15 399.181 198.028 408.928 183.853C409.774 182.607 411.042 182.585 411.866 182.941C412.266 183.097 413.49 183.786 413.09 185.544C408.394 205.728 403.587 220.37 384.584 225.288C376.84 227.291 369.007 226.245 362.465 222.35C356.39 218.746 352.095 212.893 350.359 205.906C346.932 192.131 353.341 173.728 367.071 157.884C379.911 143.086 395.777 134.274 409.285 134.274C410.308 134.274 411.309 134.319 412.288 134.43C413.534 134.541 414.491 135.164 414.892 136.143C415.337 137.145 415.092 138.302 414.291 139.303ZM854.74 1122.67C855.14 1122.01 855.785 1121.76 856.364 1121.76C856.564 1121.76 856.765 1121.78 856.943 1121.83C857.254 1121.92 858.323 1122.32 858.345 1123.59C858.367 1125.7 858.322 1127.86 858.3 1130.06C858.122 1141.77 857.944 1153.85 864.642 1163.91C871.563 1174.35 884.982 1181.09 897.198 1173.79C915.557 1162.89 910.639 1140.79 906.7 1123.05C905.61 1118.11 904.564 1113.42 904.052 1109.32C904.007 1108.9 904.03 1108.34 904.787 1107.97C905.677 1107.5 906.967 1107.59 907.612 1108.19C921.12 1120.14 927.106 1141.77 922.165 1160.79C919.829 1169.78 912.975 1185.52 893.237 1189.88C878.773 1193.06 866.089 1188.19 857.477 1176.13C846.64 1160.91 845.438 1137.94 854.74 1122.67Z" fill="#FFBC57"/>
<path d="M840.875 188.216C844.102 189.929 847.506 191.131 850.822 192.288C854.76 193.69 858.499 195.003 861.926 197.072C880.507 208.421 883.645 229.628 886.693 250.123C887.205 253.528 887.695 256.888 888.251 260.159C893.302 289.599 910.882 308.025 939.121 313.432C943.794 314.322 948.467 314.767 953.185 314.767C975.816 314.767 998.602 304.575 1018.59 285.26C1069.54 235.97 1089.5 157.729 1091.17 100.918C1091.75 80.5569 1090.44 59.8841 1077 46.5992C1060.26 30.0654 1039.44 38.7884 1025.53 52.4739C1017.27 60.5961 1010.71 70.0536 1004.37 79.1994C994.752 93.0629 985.651 106.17 971.009 115.293C950.937 127.777 924.968 131.872 901.58 126.242C896.173 124.951 890.721 122.236 884.957 119.388C876.257 115.071 867.244 110.62 858.187 111.221C846.794 111.933 839.072 121.613 832.953 131.137C828.769 139.215 824.475 148.94 824.475 159.665C824.452 172.817 829.949 182.43 840.875 188.216Z" fill="#FF7A52"/>
<path opacity="0.1" d="M1119.01 1129.91C1109.58 1124.32 1096.18 1118.51 1083.39 1117.13C1157.73 999.194 1187.44 858.068 1184.57 719.767C1181.39 566.267 1141.76 408.072 1047.69 284.436C1085.5 239.574 1104.75 174.619 1109.96 120.366C1111.8 100.917 1112.6 78.0861 1106.44 58.4814C1092.64 102.764 1069.21 143.932 1036.97 178.379C1006.9 210.512 971.722 231.519 932.691 250.901C907.678 263.318 869.515 283.524 876.747 317.236C881.843 340.98 900.691 362.143 914.999 380.924C936.585 409.296 958.059 437.802 975.193 469.201C1012.91 538.34 1029.13 618.027 1030.96 696.29C1032.81 775.71 1019.94 857.133 989.546 930.723C961.664 998.238 917.737 1060.46 867.846 1113.51C713.145 1277.93 486.567 1351.37 265.842 1334.5C267.555 1336.46 269.336 1338.39 271.227 1340.22C293.213 1361.49 323.81 1370.88 353.273 1375.93C426.618 1388.42 502.722 1383.66 576.602 1379.23C585.124 1378.72 593.625 1378.14 602.103 1377.51C586.971 1405.2 582.654 1441.09 603.483 1466.06C625.647 1492.63 653.018 1485.11 674.937 1467.48C680.923 1488.87 699.503 1506.47 722.557 1508.32C744.521 1510.1 763.681 1496.99 773.427 1478.7C780.437 1485.95 789.872 1491 800.642 1492.67C824.675 1496.34 847.195 1480.43 858.455 1460.07C872.074 1435.5 869.782 1404.95 862.55 1378.74C858.077 1362.67 849.843 1342.09 836.558 1328.94C863.774 1317.61 889.765 1303.92 914.354 1288.26C914.911 1294.49 915.556 1300.74 915.778 1306.95C916.179 1316.83 917.002 1326.73 921.03 1335.83C929.13 1354.13 948 1368.41 966.87 1374.09C994.197 1382.32 1026.89 1367.08 1032.49 1340.84C1053.48 1349.81 1078.45 1347.96 1097.09 1332.79C1118.48 1315.41 1123.95 1285.05 1114.01 1260.42C1147.72 1249.14 1169.06 1214.07 1157.51 1177.51C1151.17 1157.41 1137.13 1140.57 1119.01 1129.91Z" fill="#592639"/>
<path opacity="0.15" d="M117.263 916.947C109.341 957.625 120.156 1000.55 158.008 1025.12C176.233 1036.98 198.063 1040.07 217.957 1035.71C218.535 1109.48 224.166 1185.16 235.158 1257.9C239.698 1287.83 248.799 1318.5 271.185 1340.17C293.171 1361.45 323.769 1370.84 353.232 1375.89C380.313 1380.49 407.773 1382.74 435.367 1383.54C435.411 1380.87 435.367 1378.2 435.255 1375.51C433.987 1344.58 422.616 1315.32 410.866 1287.08C396.624 1252.9 382.071 1219.07 373.014 1183.05C363.023 1143.37 369.609 1105.69 381.003 1067.04C392.774 1027.03 405.57 988.801 408.218 946.832C410.866 905.063 408.04 863.095 402.366 821.682C391.262 740.682 370.032 661.44 359.039 580.418C349.359 508.92 344.241 432.237 375.061 365.056C400.474 309.669 452.568 250.654 514.675 237.347C551.949 229.358 590.135 234.677 627.853 232.941C668.709 231.072 699.128 216.741 726.989 187.323C746.104 167.14 763.372 145.176 789.497 133.783C821.185 119.942 853.829 127.129 885.54 136.898C918.073 146.934 949.472 156.392 983.141 145.176C1007.57 137.032 1026.09 119.074 1038.59 96.9545C1052.21 72.8103 1059.6 45.5951 1063.34 17.6902C1038.86 13.974 1015.32 31.5536 1000.39 51.5589C986.234 70.5405 975.641 92.0589 953.099 102.429C930.535 112.798 908.638 109.461 886.831 99.4246C871.921 92.5707 856.789 87.0743 841.079 95.1075C836.895 97.2215 833.424 99.9364 830.375 103.007L830.086 102.718C780.15 56.9663 709.854 29.7066 644.631 15.0866C575.247 -0.44584 503.06 -2.62662 432.585 5.9852C368.03 13.8849 296.687 26.8584 256.721 83.6029C215.776 141.66 214.619 222.838 210.347 290.932C207.254 339.71 205.673 388.666 206.252 437.533C206.497 462.567 207.298 487.646 208.566 512.658C209.59 532.441 210.012 552.825 214.196 572.318C200.733 581.175 188.138 591.878 175.988 601.247C151.644 619.961 128.056 639.61 106.449 661.44C69.1084 699.181 37.3981 743.308 18.9505 793.399C5.13155 830.962 -8.04176 887.573 23.3124 920.529C52.2187 950.882 88.1566 938.242 117.263 916.947Z" fill="#FFFCFC"/>
<path opacity="0.3" d="M137.313 883.08C142.075 875.937 134.22 867.014 126.52 869.039C109.875 873.423 95.767 884.549 79.1219 889.712C67.417 893.339 36.9524 903.442 28.7856 888.866C24.0903 880.477 9.7373 886.084 12.964 895.542C29.1862 943.185 117.752 912.499 137.313 883.08Z" fill="#592642"/>
<path opacity="0.3" d="M126.432 973.914C134.421 997.524 153.893 1012.95 178.682 1015.95C179.906 1016.11 181.13 1016.17 182.353 1016.26C181.419 1021.91 184.379 1028.28 190.609 1029.75C210.169 1034.37 229.24 1024.54 243.66 1011.65C249.69 1006.25 257.079 997.969 260.595 989.202C260.795 990.937 261.507 992.651 262.953 994.097C286.341 1017.77 323.236 1021.45 352.944 1007.6C380.937 994.542 410.734 962.12 410.556 929.787C410.511 921.064 398.517 914.944 392.287 922.221C376.309 940.913 369.544 964.301 348.382 978.876C325.528 994.631 296.867 995.922 273.746 980.122C269.385 977.141 264.845 979.054 262.375 982.548C263.131 976.851 261.774 971.199 256.745 966.237C240.545 950.215 226.348 972.112 213.775 979.722C189.72 994.298 158.232 991.382 140.875 967.839C135.979 961.208 123.317 964.746 126.432 973.914Z" fill="#592642"/>
<path opacity="0.3" d="M891.524 277.136C902.339 314.877 944.374 326.27 983.472 318.393C983.873 320.618 984.763 322.933 986.232 325.247C1036.23 404.266 1067.72 492.81 1083.99 584.692C1100.14 675.95 1104.79 774.219 1085.28 865.255C1049.07 1034.11 932.825 1176.01 783.487 1259.28C695.099 1308.57 599.657 1336.66 501.478 1358.49C491.62 1360.67 493.845 1376.2 503.859 1376C549.5 1375.13 595.117 1368.7 639.712 1357.44C642.204 1359.22 645.32 1360.07 648.435 1359.18C682.927 1349.36 718.91 1347.23 754.069 1341.04C769.735 1358 793.857 1367.19 805.117 1387.86C816.889 1409.47 818.602 1446.56 807.587 1468.79C803.159 1477.72 810.457 1488.09 820.538 1485.64C865.266 1474.76 858.746 1417.84 847.375 1384.12C844.727 1376.29 840.588 1368.75 835.403 1361.74C835.336 1361.05 835.203 1360.36 834.936 1359.67C830.018 1347.05 823.142 1334.7 814.04 1324.53C847.063 1311.98 878.217 1294.47 906.79 1273.75C920.008 1264.16 932.714 1254.05 944.997 1243.51C968.363 1231.51 989.325 1217.38 1007.71 1196.95C1013.6 1190.41 1019.32 1183.69 1024.95 1176.88C1042.84 1178.95 1064.58 1173.37 1079.74 1179.29C1101.86 1187.94 1119.37 1214.31 1125.47 1236.12C1127.4 1243.02 1137.8 1244.95 1141.29 1238.19C1160.78 1200.47 1141.38 1157.3 1104.44 1139.52C1090.04 1132.6 1075.04 1130.29 1059.78 1130.33C1061.6 1127.66 1063.49 1125.01 1065.25 1122.32C1100.5 1068.67 1127.27 1008.72 1143.38 946.566C1180.48 803.503 1187.6 651.851 1144.83 509.411C1133.37 471.269 1119.06 435.131 1099.85 400.261C1080.38 364.857 1064.56 329.186 1032.92 302.571C1031.18 301.125 1029.25 300.212 1027.27 299.701C1044.58 287.217 1056.64 269.637 1057.51 248.141C1074.95 228.514 1088.73 204.904 1094.98 180.47C1104.75 142.329 1111.09 96.1769 1098.07 58.0579C1094.89 48.7562 1082.12 50.7145 1081.32 60.3277C1078.67 91.9266 1078.34 123.459 1065.74 153.277C1054.41 180.092 1038.01 209.421 1016.94 229.782C995.578 250.433 966.783 262.85 936.675 259.757C906.611 256.664 888.72 237.304 876.414 211.491C872.654 203.591 861.772 208.286 861.216 215.607C859.458 239.24 873.143 261.671 891.524 277.136Z" fill="#592642"/>
<path opacity="0.3" d="M497.629 991.963C500.388 1001.75 516.611 1000.24 515.899 989.493C511.826 928.476 503.036 867.682 497.54 806.731C498.386 805.24 498.898 803.482 498.831 801.435C497.807 774.91 495.449 748.54 492.534 722.193C491.265 681.114 491.354 639.902 491.376 599.046C491.376 567.202 491.398 535.403 492.266 503.56C493.134 472.584 492.289 439.36 503.615 409.987C513.073 385.464 531.409 366.661 558.179 362.855C571.152 361.008 584.304 362.766 597.21 363.968C611.363 365.303 625.405 365.17 639.291 368.574C673.248 376.897 704.157 390.449 733.197 407.517C780.329 441.563 815.555 485.935 852.294 531.287C858.858 539.387 873.078 530.663 869.762 521.117C835.693 423.316 739.383 357.492 644.52 326.561C588.198 308.203 514.675 299.524 474.175 352.018C454.726 377.231 447.605 409.764 444.089 441.408C432.963 541.634 448.495 647.735 459.688 747.383C468.879 829.006 475.22 912.654 497.629 991.963Z" fill="#592642"/>
<path opacity="0.5" d="M26.9798 880.987C50.0114 865.054 58.5564 829.828 70.9067 805.15C80.6312 791.576 90.5781 778.18 101.882 765.54C121.865 743.221 143.785 723.794 168.04 706.259C212.746 673.903 261.079 640.146 286.492 589.365C362.018 438.38 218.755 233.187 325.056 97.6456C356.544 57.5017 414.089 52.6729 460.619 44.5061C492.018 38.9874 526.421 34.6481 558.332 35.2266C592.623 35.872 626.447 41.5465 660.583 43.5269C670.575 44.1055 671.62 29.6858 662.853 26.7707C633.969 17.1797 602.281 13.4635 572.039 11.0379C541.064 8.54563 510.488 4.49564 479.312 5.14097C424.281 6.25361 365.756 11.0601 319.203 43.883C274.297 75.5709 252.222 127.42 240.206 179.469C225.608 242.6 221.714 307.267 219.422 371.844C218.131 408.227 217.53 444.633 216.44 481.016C215.884 499.597 215.061 518.356 215.127 536.937C215.172 546.261 216.24 557.833 219.11 568.18C198.415 580.753 179.233 601.315 163.945 616.602C139.49 641.036 115.879 667.072 95.1621 694.776C74.7341 722.08 56.8432 751.565 41.0215 781.762C27.6476 807.286 2.96909 844.471 10.4905 874.356C12.1817 880.921 21.0383 885.104 26.9798 880.987Z" fill="#FFF7F7"/>
<path opacity="0.5" d="M174.296 856.955C140.271 872.888 115.037 920.976 131.037 957.248C134.464 965.014 145.568 961.81 147.793 955.067C152.667 940.358 153.445 925.337 160.522 911.185C167.709 896.832 175.765 884.548 186.023 872.153C193.1 863.608 184.465 852.193 174.296 856.955Z" fill="#FFF7F7"/>
<path opacity="0.5" d="M307.078 1341.66C328.574 1361.74 355.011 1374.75 385.274 1371.71C400.206 1370.22 402.164 1352.06 388.701 1346.43C364.423 1336.28 340.391 1323.2 322.455 1303.63C304.319 1283.83 292.992 1259.42 284.514 1234.21C264.998 1176.26 257.432 1115.93 249.065 1055.63C247.686 1045.7 233.221 1049.06 232.554 1057.85C229.639 1095.64 231.886 1133.51 236.581 1171.05C239.207 1192.02 242.122 1212.91 247.107 1233.32C245.994 1276.69 260.637 1338.24 307.078 1341.66Z" fill="#FFF7F7"/>
<path opacity="0.5" d="M587.195 1054.07C572.575 1054.16 556.241 1054.98 541.843 1052.82C531.407 1051.27 526.734 1065.86 537.371 1069.05C561.292 1076.17 583.211 1082.8 608.535 1084.02C633.414 1085.22 658.292 1084.67 682.904 1080.71C730.903 1072.96 778.502 1051.98 817.466 1023.07C898.044 963.301 958.727 861.628 948.869 758.709C943.484 702.521 930.332 647.201 902.717 597.577C897.776 588.698 885.181 596.487 889.298 605.41C902.138 633.315 910.016 662.689 914.266 693.064C918.338 722.126 912.953 749.163 908.636 777.735C900.202 833.39 878.973 891.002 843.302 934.996C808.81 977.543 761.567 1010.1 710.431 1029.44C684.907 1039.09 657.669 1046.7 630.744 1051.2C616.48 1053.6 601.659 1053.98 587.195 1054.07Z" fill="#FFF7F7"/>
<path opacity="0.5" d="M848.312 179.759C852.918 168.521 848.579 146.224 864.623 143.42C875.839 141.462 890.036 155.081 898.492 160.844C919.677 175.242 942.352 185.278 967.676 173.862C991.865 162.936 1003.88 139.059 1012.23 115.27C1016.94 101.852 1019.88 86.9204 1027.71 74.9262C1034.92 63.8666 1045.03 53.9641 1054.13 44.4399C1059.89 38.4094 1056.13 26.1037 1046.83 26.8158C1016.34 29.1523 993.779 50.8933 980.827 77.7746C975.798 88.2111 972.283 102.386 967.142 114.18C963.493 115.671 959.932 117.54 956.283 119.565C949.829 123.17 944.266 124.572 937.813 120.455C930.58 115.871 922.036 123.037 923.282 130.758C899.627 119.142 874.926 99.8048 847.733 112.489C823.189 123.927 811.996 164.382 833.203 183.742C838.632 188.705 845.731 186.057 848.312 179.759Z" fill="#FFF7F7"/>
<path opacity="0.5" d="M626.25 1376.98C624.803 1370.39 616.28 1368.9 611.763 1373.15C582.434 1400.9 607.758 1477.36 651.662 1472.82C660.363 1471.91 667.951 1460.45 659.673 1453.46C649.058 1444.49 637.198 1438.53 630.945 1425.36C623.312 1409.25 629.855 1393.25 626.25 1376.98Z" fill="#FFF7F7"/>
<path opacity="0.5" d="M744.611 1489.47C753.045 1482.14 743.743 1470.86 734.686 1472.44C713.546 1476.09 706.024 1455.37 696.144 1441.53C692.161 1435.97 681.324 1435.39 679.855 1443.67C673.78 1477.52 713.969 1516.1 744.611 1489.47Z" fill="#FFF7F7"/>
<path opacity="0.5" d="M1009.42 1340.3C976.106 1341.33 945.286 1328.64 941.57 1291.37C940.68 1282.45 927.595 1279.33 925.058 1289.15C912.307 1338.19 968.318 1392.73 1014.76 1360.02C1022.77 1354.37 1020.68 1339.97 1009.42 1340.3Z" fill="#FFF7F7"/>
<path opacity="0.5" d="M1024.29 1309.93C1016.63 1310 1012.11 1319.88 1017.9 1325.38C1040.04 1346.38 1079.03 1335.03 1094.03 1311.16C1099.35 1302.68 1088.64 1291.62 1080.07 1297.2C1071.44 1302.83 1063.34 1306.66 1053.24 1309.09C1043.51 1311.4 1034.08 1309.84 1024.29 1309.93Z" fill="#FFF7F7"/>
<path d="M117.261 916.948C109.339 957.626 120.153 1000.55 158.005 1025.12C176.23 1036.98 198.06 1040.07 217.954 1035.71C218.533 1109.48 224.163 1185.16 235.156 1257.9C239.695 1287.83 248.797 1318.5 271.183 1340.17C293.169 1361.45 323.766 1370.84 353.229 1375.89C426.574 1388.37 502.679 1383.61 576.558 1379.18C585.081 1378.67 593.581 1378.09 602.06 1377.47C586.928 1405.15 582.61 1441.05 603.439 1466.01C625.603 1492.58 652.974 1485.06 674.892 1467.44C680.878 1488.82 699.46 1506.42 722.514 1508.27C744.477 1510.05 763.637 1496.94 773.384 1478.65C780.393 1485.91 789.828 1490.96 800.599 1492.63C824.632 1496.3 847.151 1480.39 858.411 1460.03C872.03 1435.46 869.738 1404.91 862.505 1378.69C858.033 1362.63 849.799 1342.04 836.514 1328.89C863.729 1317.56 889.721 1303.88 914.31 1288.21C914.866 1294.44 915.512 1300.7 915.734 1306.91C916.135 1316.79 916.958 1326.69 920.986 1335.79C929.086 1354.08 947.957 1368.37 966.827 1374.04C994.153 1382.28 1026.84 1367.03 1032.45 1340.8C1053.43 1349.76 1078.4 1347.92 1097.05 1332.74C1118.43 1315.36 1123.91 1285.01 1113.96 1260.38C1147.68 1249.09 1169.02 1214.02 1157.47 1177.46C1151.12 1157.37 1137.06 1140.52 1118.97 1129.84C1109.53 1124.25 1096.14 1118.45 1083.34 1117.07C1157.69 999.128 1187.4 858 1184.53 719.7C1181.34 566.2 1141.71 408.005 1047.65 284.369C1085.46 239.507 1104.7 174.551 1109.91 120.299C1113.07 87.2761 1113.29 44.3505 1081.27 24.412C1050.85 5.49713 1018.97 26.6596 1000.41 51.5159C986.254 70.4975 975.661 92.0159 953.119 102.386C930.555 112.755 908.658 109.418 886.851 99.3816C871.941 92.5278 856.809 87.0313 841.099 95.0646C836.915 97.1786 833.444 99.8934 830.395 102.964L830.106 102.675C780.17 56.9233 709.874 29.6637 644.651 15.0436C575.267 -0.488809 503.079 -2.66959 432.604 5.94223C368.049 13.842 296.707 26.8153 256.741 83.5598C215.796 141.617 214.639 222.795 210.366 290.889C207.273 339.667 205.693 388.623 206.272 437.49C206.517 462.524 207.318 487.603 208.586 512.615C209.61 532.398 210.032 552.781 214.216 572.275C200.753 581.132 188.158 591.835 176.008 601.204C151.664 619.918 128.076 639.567 106.468 661.397C69.1283 699.138 37.418 743.265 18.9704 793.356C5.15147 830.919 -8.02253 887.53 23.3316 920.486C52.2157 950.884 88.1541 938.244 117.261 916.948ZM838.095 1369.75C844.815 1386.15 848.843 1404.77 848.153 1422.51C847.463 1440.22 840.342 1458.69 824.676 1468.35C807.831 1478.72 781.55 1471.35 780.215 1449.32C779.414 1436.79 759.921 1436.66 760.588 1449.32C761.723 1470.49 744.322 1492.12 721.579 1488.4C701.552 1485.17 690.336 1465.14 692.739 1446.23C693.785 1437.89 681.391 1433.39 676.117 1439.38C658.559 1459.34 630.543 1478.9 613.23 1445.99C600.39 1421.55 614.543 1398.48 623.823 1375.73C680.256 1370.68 736.466 1362.09 790.652 1345.51C798.663 1343.04 806.54 1340.4 814.395 1337.59C823.764 1347.32 832.465 1355.91 838.095 1369.75ZM1093.65 1141.66C1109.13 1146.53 1122.82 1156.72 1131.32 1170.65C1149.28 1200.09 1134.66 1239.1 1098.25 1242.75C1091.11 1243.49 1084.17 1251.38 1089.17 1258.57C1101.01 1275.53 1101.59 1299.65 1085.9 1314.74C1069.9 1330.16 1043.78 1328.07 1028.09 1313.63C1020.9 1307.02 1006.97 1313.38 1010.6 1323.82C1016.41 1340.55 1002.77 1355.39 986.098 1356.2C970.499 1356.93 954.232 1347.49 944.685 1335.66C931.156 1318.86 938.833 1294.98 931.623 1276.75C985.341 1239.52 1031.96 1192.3 1069.7 1137.76C1077.6 1139.19 1085.7 1139.16 1093.65 1141.66ZM834.579 132.004C840.498 122.814 847.908 113.712 858.322 113.067C872.653 112.132 887.162 124.683 901.181 128.065C924.925 133.762 951.183 129.801 971.989 116.895C997.024 101.295 1006.57 73.7464 1026.82 53.8302C1040.51 40.3673 1060.18 32.5565 1075.73 47.9555C1089.37 61.4629 1089.88 83.0481 1089.37 100.939C1087.48 165.072 1064.45 238.484 1017.34 284.035C996.512 304.174 968.852 317.303 939.501 311.717C911.217 306.31 894.817 287.662 890.077 259.935C886.094 236.748 885.359 209.31 862.906 195.602C856.275 191.575 848.531 190.262 841.744 186.679C831.085 181.027 826.279 171.614 826.323 159.753C826.301 149.74 830.039 140.727 834.579 132.004ZM58.8248 756.216C81.6561 716.184 112.61 682.003 146.723 651.295C165.371 634.449 184.976 618.783 204.937 603.496C222.183 590.322 240.652 578.862 252.624 560.392C254.115 558.078 251.645 555.274 249.175 555.919C242.099 557.699 235.312 560.459 228.702 563.819C230.705 532.71 226.922 500.465 226.677 469.712C226.321 429.168 226.856 388.601 228.569 348.078C230.283 307.578 233.108 267.078 237.025 226.734C240.118 195.425 244.391 163.692 255.094 133.985C266.554 102.274 286.115 75.1261 315.889 58.3475C345.285 41.7914 379.732 35.3826 412.711 30.22C479.914 19.6944 549.521 19.1604 616.546 31.2659C652.484 37.7192 687.888 47.7329 721.534 61.997C756.449 76.8396 786.78 97.3343 818.179 118.252C818.624 118.541 819.091 118.764 819.558 118.986C818.134 121.924 816.865 124.972 815.753 128.065C805.561 147.848 802.824 171.503 815.419 190.551C825.01 204.993 839.118 204.659 852.247 213.672C867.713 224.309 866.578 249.054 869.382 265.565C880.241 329.609 951.984 350.638 1004.97 320.574C1015.03 314.833 1024.28 307.912 1032.76 300.035C1108.71 402.954 1147.32 528.259 1158.98 654.855C1171.42 789.573 1155.06 930.01 1094.67 1052.31C1043.06 1156.9 960.062 1247.29 854.139 1298.07C790.741 1328.45 720.845 1343.51 651.349 1351.41C583.122 1359.13 513.493 1362.63 444.821 1361.78C406.969 1361.31 367.449 1359.6 330.91 1348.83C292.034 1337.32 268.713 1311.6 259.411 1272.32C250.265 1233.67 248.641 1192.48 245.259 1152.96C241.743 1111.82 239.406 1070.54 235.868 1029.44C247.906 1023.49 258.365 1014.53 265.508 1002.69C287.494 1030.24 330.353 1038.29 362.909 1022.94C413.757 998.95 423.904 932.28 406.636 884.17C402.675 873.244 386.03 877.449 388.989 888.999C398.647 926.272 395.665 977.72 359.482 1000.48C331.021 1018.33 284.067 1009.01 274.276 974.093C271.584 964.547 255.806 963.434 253.759 974.093C245.57 1017.13 194.166 1028.81 162.5 1002.44C127.697 973.448 129.7 924.536 149.46 887.508C154.823 877.427 141.517 866.034 133.127 874.913C117.528 891.535 100.682 910.25 77.6508 915.858C51.5483 922.177 31.9879 906.956 26.7808 881.989C18.0354 840.042 38.508 791.865 58.8248 756.216Z" fill="#3D2938"/>
<path d="M161.9 772.504C172.959 773.305 183.173 770.435 192.519 765.65C189.47 789.416 195.902 813.739 221.849 822.951C240.252 829.516 256.006 822.261 268 809.911C270.826 826.378 278.994 840.909 297.441 846.139C329.886 855.396 351.871 822.106 353.184 794C353.651 783.72 338.498 782.206 335.694 791.642C331.443 805.839 320.673 837.149 299.043 824.821C283.066 815.675 286.003 792.131 288.451 777.177C290.587 764.137 273.564 759.397 268.779 771.725C262.971 786.613 249.798 808.554 230.883 803.947C204.424 797.494 210.477 763.892 218.911 745.779C223.695 735.431 211.835 725.395 202.911 733.451C193.721 741.729 183.395 750.029 170.756 751.809C154.578 754.101 138.779 743.82 142.918 725.751C148.214 702.608 170.711 680.89 192.742 673.858C200.352 671.432 198.394 661.329 190.917 660.551C154.6 656.679 112.855 709.618 123.825 744.555C128.966 761.044 145.054 771.28 161.9 772.504Z" fill="#3D2938"/>
<path d="M680.594 156.661C682.13 132.494 666.086 108.928 644.167 99.3152C638.47 96.7784 632.372 95.2207 626.097 94.8202C595.655 92.9064 566.171 118.875 564.257 149.339C559.539 224.109 675.921 231.096 680.594 156.661Z" fill="#3D2938"/>
<path d="M499.141 901.973C501.723 938.445 501.366 977.699 509.911 1013.41C517.121 1043.46 536.481 1062.93 567.724 1066.58C624.669 1073.25 687.555 1053.54 737.09 1026.65C839.786 970.867 913.888 865.233 922.789 747.761C931.868 627.195 875.724 505.273 782.241 429.724C724.472 383.06 648.479 352.507 573.465 356.824C540.398 358.716 499.942 362.966 493.155 401.641C489.595 421.847 490.04 443.254 488.838 463.771C485.166 525.834 488.504 589.477 489.061 651.718C489.817 735.166 493.178 818.68 499.141 901.973ZM511.269 523.742C511.825 490.207 513.627 456.561 513.004 423.004C513.984 405.224 514.963 390.026 535.836 384.218C552.681 379.544 570.706 378.165 588.085 378.298C651.038 378.921 712.456 404.022 762.147 441.874C848.843 507.965 902.984 616.937 901.716 726.109C900.448 834.903 839.653 935.93 748.75 994.41C704.111 1023.07 652.552 1041.88 599.345 1045.15C584.903 1046.01 567.813 1047.28 554.239 1041.34C536.815 1033.73 531.697 1015.06 528.982 997.949C523.464 963.212 522.351 927.229 519.948 892.159C514.362 810.046 511.313 727.733 510.735 645.465C510.468 604.854 510.601 564.287 511.269 523.742Z" fill="#3D2938"/>
<path d="M299.625 447.904C320.409 445.011 333.693 428.277 340.659 409.718C342.661 404.466 335.696 402.063 332.247 404.822C322.167 412.856 312.353 426.096 299.29 429.144C275.436 434.685 274.968 406.491 277.55 390.847C279.686 377.852 285.094 365.635 292.526 354.82C299.18 345.051 309.594 338.019 314.957 327.65C316.381 324.846 314.667 320.684 311.107 320.929C291.88 322.309 276.949 343.204 269.071 359.204C259.925 377.83 254.785 401.373 260.148 421.868C264.954 440.249 280.932 450.552 299.625 447.904Z" fill="#3D2938"/>
<path d="M410.49 442.387C406.307 455.917 392.844 493.012 375.464 469.157C364.204 453.803 367.119 435.689 365.272 418.087C364.983 415.083 360.889 412.279 358.485 415.261C341.64 436.201 350.363 479.905 374.863 492.188C386.724 498.174 400.699 494.013 409.734 484.934C421.238 473.429 421.238 458.743 419.97 443.633C419.525 438.359 412.159 436.935 410.49 442.387Z" fill="#3D2938"/>
<path d="M312.465 597.421C307.97 575.101 319.986 560.147 328.064 541.032C328.531 539.831 327.263 538.206 325.994 538.34C288.766 542.546 289.478 600.225 304.876 623.701C314.601 638.499 330.067 648.157 346.801 637.899C366.205 625.971 373.282 602.65 373.482 581.176C373.526 577.148 367.852 576.614 366.65 580.264C363.067 591.19 353.187 612.886 342.15 619.228C323.969 629.687 315.291 611.596 312.465 597.421Z" fill="#3D2938"/>
<path d="M1006.77 579.241C1025.13 568.07 1032.5 546.441 1029.83 525.79C1026.09 496.951 1008.75 478.436 986.101 462.548C982.608 460.122 978.669 464.795 980.538 468.133C993.957 492.01 1029.36 535.381 999.631 559.904C968.833 585.316 945.624 529.64 933.362 510.658C932.383 509.123 930.024 509.345 929.513 511.126C917.741 550.535 967.831 602.963 1006.77 579.241Z" fill="#3D2938"/>
<path d="M1016.17 438.715C1027.11 442.453 1040.4 440.028 1047.74 430.615C1056.6 419.288 1052.21 403.133 1045.67 391.717C1040.49 382.616 1029.52 373.314 1018.92 379.678C1016.34 381.169 1016.63 384.507 1018.92 386.109C1026.25 391.228 1044.4 416.93 1030.16 422.76C1015.61 428.746 1007.6 408.451 994.959 411.188C993.913 411.411 992.956 412.39 992.711 413.436C990.041 424.429 1007.17 435.666 1016.17 438.715Z" fill="#3D2938"/>
<path d="M1049.12 670.877C1043.27 660.708 1040.73 653.431 1032.34 645.064C1030.83 643.573 1028.6 644.775 1028.42 646.666C1026.98 663.356 1030.67 685.319 1045.76 695.578C1058.31 704.101 1075.78 701.43 1087.24 692.351C1099.77 682.36 1104.08 665.759 1102.53 650.294C1100.41 629.309 1088.71 614.734 1072.68 602.205C1069.97 600.091 1064.67 601.871 1066.14 605.988C1072.86 624.525 1089.77 649.537 1080.81 669.275C1073.8 684.808 1057.42 685.275 1049.12 670.877Z" fill="#3D2938"/>
<path d="M999.363 871.083C1001.19 879.295 1001.19 890.465 994.468 896.674C986.012 904.485 973.194 900.702 967.497 891.89C957.239 876.068 964.426 854.104 962.735 836.792C962.557 834.767 959.731 832.831 958.128 834.878C940.415 857.331 939.548 908.067 972.971 917.302C1002.26 925.402 1033.39 890.087 1008.51 865.809C1004.48 861.871 998.162 865.809 999.363 871.083Z" fill="#3D2938"/>
<path d="M1068.23 808.088C1070.48 814.585 1067.3 827.002 1062.98 832.143C1057.82 838.285 1048.79 839.865 1041.58 836.794C1034.32 833.745 1030.83 826.669 1028.65 819.526C1026.58 812.672 1024.04 803.415 1024.26 796.227C1024.33 793.757 1020.97 793.579 1020.19 795.693C1017.94 801.679 1014.83 806.396 1014.05 813.117C1013.36 819.17 1014 825.779 1015.96 831.52C1020.32 844.115 1030.76 853.372 1044.02 855.397C1057.24 857.4 1071.13 852.015 1078.76 840.799C1082.23 835.614 1084.28 829.517 1084.46 823.197C1084.68 815.476 1080.61 810.602 1076.47 804.661C1073.75 800.722 1066.5 802.969 1068.23 808.088Z" fill="#3D2938"/>
<path d="M386.21 1177.04C384.875 1154.61 398.872 1134.51 400.942 1112.62C401.164 1110.15 397.937 1108.48 395.979 1109.79C366.761 1128.99 351.985 1193.55 387.634 1213.69C417.386 1230.53 459.043 1200.74 440.662 1167.71C437.903 1162.73 430.893 1165.31 430.537 1170.43C429.803 1181.07 425.308 1193.97 414.538 1198.16C399.673 1203.94 387.078 1191.28 386.21 1177.04Z" fill="#3D2938"/>
<path d="M480.807 1156.5C455.372 1184.69 457.219 1241.17 497.274 1255.63C513.741 1261.6 531.433 1255.92 541.268 1241.26C554.664 1221.3 548.811 1201.78 540.912 1181.09C539.287 1176.84 532.122 1176.99 532.411 1182.2C533.034 1194.33 533.323 1208.21 530.453 1220.1C526.18 1237.99 508.49 1244.73 494.27 1232.51C471.884 1213.29 487.038 1182.47 484.368 1157.94C484.19 1156.32 482.165 1155.01 480.807 1156.5Z" fill="#3D2938"/>
<path d="M667.665 1144.35C663.526 1140.36 657.25 1145.37 659.854 1150.33C666.24 1162.48 673.606 1177.88 674.852 1191.75C676.054 1205.79 666.062 1226.71 648.616 1222.34C622.959 1216 625.651 1175.61 611.966 1157.97C609.384 1154.67 604.066 1157.52 604.066 1161.24C604.222 1192.84 621.045 1256.92 666.196 1239.12C681.283 1233.14 691.608 1217.45 693.589 1201.72C696.637 1177.59 683.932 1160.1 667.665 1144.35Z" fill="#3D2938"/>
<path d="M409.109 1287.83C398.406 1297.74 376.042 1328.16 363.091 1304.24C353.032 1285.72 371.502 1270.12 373.905 1252.76C374.372 1249.56 371.591 1247.07 368.498 1248.58C344.042 1260.73 334.74 1301.39 354.746 1321.24C379.068 1345.45 410.623 1317.83 415.785 1291.71C416.542 1287.83 412.158 1285.03 409.109 1287.83Z" fill="#3D2938"/>
<path d="M605.979 1283.99C604.466 1290.73 602.53 1302.9 596.878 1307.51C592.116 1311.36 584.572 1311.76 579.031 1309.64C561.362 1303.08 566.881 1282.32 566.948 1268.34C566.992 1264.85 563.031 1263.85 560.672 1265.74C550.992 1273.39 549.613 1289.79 552.573 1300.94C555.621 1312.49 564.21 1322.17 575.715 1325.66C586.174 1328.82 598.213 1327.33 607.003 1320.61C611.765 1316.99 615.303 1311.93 616.949 1306.13C619.264 1297.89 616.371 1291.51 613.367 1283.99C612.076 1280.83 606.914 1279.96 605.979 1283.99Z" fill="#3D2938"/>
<path d="M908.818 1106.83C906.637 1104.87 901.808 1105.96 902.253 1109.55C904.567 1128.77 918.341 1159.15 896.267 1172.25C885.207 1178.86 872.857 1173.06 866.137 1162.93C858.527 1151.47 860.262 1136.63 860.151 1123.59C860.106 1119.89 855.1 1118.58 853.186 1121.74C835.651 1150.51 854.521 1200.27 893.641 1191.64C931.872 1183.2 934.564 1129.57 908.818 1106.83Z" fill="#3D2938"/>
<path d="M981.982 1066.62C978.511 1064.6 974.171 1068.65 976.352 1072.25C980.736 1079.28 984.252 1086.27 983.762 1094.81C983.073 1105.87 974.795 1113.4 963.646 1110.46C947.424 1106.19 942.462 1087.96 932.581 1076.57C931.024 1074.79 928.042 1076.28 927.997 1078.46C927.597 1104.05 950.361 1135.11 978.778 1126.19C1007.06 1117.31 1005.13 1079.86 981.982 1066.62Z" fill="#3D2938"/>
<path d="M385.052 227.046C405.881 221.683 410.576 204.504 414.893 185.968C415.939 181.361 410.02 179.025 407.461 182.852C402.121 190.619 392.329 203.748 382.894 206.974C363.512 213.628 365.982 193.222 371.434 182.808C381.67 163.314 402.743 156.639 415.739 140.461C418.32 137.234 416.607 133.051 412.512 132.65C381.002 129.423 340.881 175.153 348.647 206.351C352.675 222.685 369.03 231.163 385.052 227.046Z" fill="#3D2938"/>
<path d="M464.964 281.032C478.583 273.555 482.811 259.914 482.722 245.361C482.677 240.576 476.669 239.419 474.154 243.046C469.726 249.477 465.654 258 459.957 263.341C450.41 272.197 442.244 264.03 440.553 253.661C438.305 240.242 444.424 223.753 451.323 212.293C452.257 210.757 450.677 208.265 448.808 209C436.146 214.073 428.781 221.483 425.176 235.28C421.794 248.164 422.773 264.72 431.34 275.491C439.507 285.749 453.637 287.24 464.964 281.032Z" fill="#3D2938"/>
<path d="M581.011 266.856C569.039 272.108 566.102 287.863 568.75 299.546C571.732 312.675 583.014 322.31 596.187 324.269C608.426 326.093 620.354 320.463 626.095 309.382C631.725 298.5 629.322 286.15 618.552 279.763C615.659 278.05 611.141 280.965 612.454 284.481C616.882 296.319 608.76 312.386 594.63 306.8C578.007 300.191 583.771 282.522 584.905 269.104C585.084 266.923 582.613 266.167 581.011 266.856Z" fill="#3D2938"/>
</g>
<defs>
<filter id="filter0_d_403_13964" x="0.0351562" y="0.94043" width="1188.72" height="1515.54" filterUnits="userSpaceOnUse" color-interpolation-filters="sRGB">
<feFlood flood-opacity="0" result="BackgroundImageFix"/>
<feColorMatrix in="SourceAlpha" type="matrix" values="0 0 0 0 0 0 0 0 0 0 0 0 0 0 0 0 0 0 127 0" result="hardAlpha"/>
<feOffset dy="4"/>
<feGaussianBlur stdDeviation="2"/>
<feComposite in2="hardAlpha" operator="out"/>
<feColorMatrix type="matrix" values="0 0 0 0 0 0 0 0 0 0 0 0 0 0 0 0 0 0 0.25 0"/>
<feBlend mode="normal" in2="BackgroundImageFix" result="effect1_dropShadow_403_13964"/>
<feBlend mode="normal" in="SourceGraphic" in2="effect1_dropShadow_403_13964" result="shape"/>
</filter>
</defs>
</svg>
