<svg width="1152" height="1599" viewBox="0 0 1152 1599" fill="none" xmlns="http://www.w3.org/2000/svg">
<g filter="url(#filter0_d_418_70965)">
<path d="M1121.07 1453.32C1116.04 1454.7 1109.92 1455.24 1102.87 1454.92C1102.67 1454.9 1102.47 1454.95 1102.29 1454.99C1100.86 1455.41 1099.39 1455.9 1097.93 1456.46C1086.4 1460.91 1066.59 1472.95 1065.41 1489.82C1064.97 1496.09 1066.88 1501.65 1071.07 1506.33C1079.23 1515.43 1094.5 1519.12 1105.11 1519.52C1105.76 1519.55 1106.38 1519.57 1107.03 1519.57C1110.03 1519.57 1112.9 1519.3 1115.68 1519.06C1119.04 1518.74 1122.2 1518.46 1125.27 1518.68C1125.79 1518.72 1126.3 1518.52 1126.65 1518.17C1127.03 1517.81 1127.23 1517.3 1127.21 1516.79C1127.05 1513.09 1126.79 1509.42 1126.52 1505.9C1126.39 1504.08 1126.23 1502.3 1126.12 1500.61C1125.32 1486.66 1124.43 1472.7 1123.56 1458.71L1123.36 1455.59V1455.08C1123.36 1454.52 1123.09 1453.99 1122.65 1453.63C1122.2 1453.3 1121.62 1453.19 1121.07 1453.32Z" fill="#FFEFE6"/>
<path d="M1115.47 1363.18C1111.1 1364.58 1106.01 1365.05 1101.07 1365.49C1097.53 1365.8 1094.19 1366.11 1091.14 1366.74C1074.92 1369.96 1047.91 1379.04 1049.44 1403.48C1050.98 1428.27 1080.26 1436.54 1097.35 1437.5C1098.38 1437.57 1099.38 1437.59 1100.4 1437.59C1103.18 1437.59 1105.96 1437.41 1108.68 1437.23C1112.71 1436.97 1116.51 1436.72 1120.18 1437.03C1120.7 1437.08 1121.23 1436.9 1121.61 1436.52C1121.99 1436.14 1122.19 1435.63 1122.14 1435.12C1120.72 1411.69 1119.32 1388.28 1117.87 1364.82C1117.82 1364.27 1117.54 1363.76 1117.07 1363.44C1116.6 1363.09 1116 1363 1115.47 1363.18Z" fill="#FFEFE6"/>
<path d="M1034.87 1321.87C1035.67 1328.93 1039.5 1334.91 1045.93 1339.14C1056.79 1346.22 1070.47 1347.53 1082.93 1347.53C1084.11 1347.53 1085.27 1347.51 1086.43 1347.51C1089.77 1347.46 1093.01 1347.15 1096.15 1346.86C1102.49 1346.26 1108.5 1345.68 1114.33 1347.31C1114.89 1347.46 1115.51 1347.33 1115.96 1346.98C1116.4 1346.6 1116.65 1346.04 1116.63 1345.44C1115.18 1324.39 1111.95 1302.87 1098.2 1287.87C1093.55 1282.78 1087.87 1278.9 1080.87 1275.99C1080.51 1275.83 1080.09 1275.81 1079.71 1275.9C1067.16 1279.17 1056.03 1282.69 1046.75 1292.37C1038.36 1301.07 1033.8 1312.37 1034.87 1321.87Z" fill="#FFEFE6"/>
<path d="M910.07 840.926C916.568 840.614 922.109 841.282 926.137 842.839C926.359 842.928 926.582 842.973 926.804 842.973C927.183 842.973 927.583 842.839 927.894 842.617C928.384 842.238 928.673 841.638 928.607 841.015C927.049 823.546 925.113 808.503 922.709 794.974C919.26 775.903 909.692 765.845 892.535 763.308L890.576 763.085C890.287 763.041 889.998 763.085 889.731 763.197L888.885 763.53C872.507 769.806 852.124 777.594 847.718 798.579C842.177 825.171 876.513 834.784 887.795 837.944C893.247 839.457 899.3 839.991 905.174 840.525C906.688 840.636 908.245 840.77 910.07 840.926Z" fill="#FFEFE6"/>
<path d="M865.77 905.105C872.224 915.074 886.176 918.902 897.058 919.191C897.392 919.191 897.726 919.191 898.037 919.191C902.777 919.191 907.873 918.434 912.791 917.678C919.088 916.721 925.631 915.742 931.416 916.365C931.928 916.431 932.44 916.253 932.84 915.897C933.219 915.541 933.441 915.052 933.419 914.518C933.285 907.33 932.796 900.254 932.328 893.4L931.928 887.436C931.349 877.956 930.726 868.432 930.036 858.886C929.992 858.285 929.636 857.729 929.102 857.439C928.568 857.15 927.923 857.128 927.389 857.417C921.403 860.555 913.08 861.133 901.998 859.131C901.797 859.086 901.597 859.086 901.375 859.131C882.26 862.246 870.31 870.079 864.902 883.052C861.453 891.308 861.765 898.941 865.77 905.105Z" fill="#FFEFE6"/>
<path d="M438.336 117.799C459.454 114.995 480.66 115.017 501.333 117.866C534.868 122.494 567.78 134.466 596.508 152.491C610.461 161.236 623.568 171.406 635.451 182.71C636.764 183.956 638.166 185.247 639.59 186.56C646.688 193.058 654.766 200.446 657.348 208.991C657.57 209.77 658.371 210.326 659.128 210.281C671.055 210.014 682.983 210.726 693.531 212.373C717.987 216.134 741.129 223.522 760.556 230.264C760.756 230.331 760.957 230.376 761.157 230.376C761.513 230.376 761.846 230.264 762.158 230.086C762.625 229.775 762.937 229.285 762.982 228.707C763.115 227.171 763.271 225.636 763.449 224.078C763.916 219.806 764.406 215.4 764.005 210.971C762.781 198.465 758.464 187.094 751.165 177.169C738.748 160.168 718.943 151.2 701.341 144.102C698.07 142.789 694.755 141.476 691.439 140.185C662.266 128.747 632.113 116.887 617.404 87.0456C614.511 81.1931 612.353 74.7844 610.083 67.9973C605.521 54.4676 600.826 40.4929 589.944 31.0799C568.915 12.8327 532.354 17.9508 507.275 30.4346C485.557 41.205 467.175 58.7179 452.644 82.5061C447.126 91.5852 441.963 102.044 436.444 115.373C436.2 115.974 436.288 116.664 436.689 117.176C437.045 117.621 437.69 117.888 438.336 117.799Z" fill="#B7ADCC"/>
<path d="M59.7069 621.426C71.4341 623.762 82.2041 620.424 90.0593 611.99C91.7728 610.143 94.9103 609.253 97.9145 609.765C100.429 610.21 102.343 611.567 103.188 613.526C114.426 639.65 135.655 673.185 173.062 684.623C206.197 694.793 242.09 680.484 256.554 651.333C258.757 646.883 264.21 646.749 268.349 648.507C286.552 656.206 306.111 656.051 324.87 648.04C348.681 637.893 369.71 615.35 379.723 589.203C398.282 540.893 390.784 485.283 382.283 436.95C381.882 434.747 383.373 433.367 384.931 433.011C385.532 432.878 387.557 432.633 388.202 435.103C405.826 501.772 417.754 561.432 385.154 616.441C362.3 655.005 319.797 676.078 279.519 668.935C278.985 668.846 278.407 669.002 278.006 669.358C277.584 669.736 277.361 670.27 277.405 670.804C279.052 702.603 280.365 734.447 281.433 761.44C283.058 801.962 284.549 842.507 286.04 883.029C289.199 968.591 292.448 1057.07 296.854 1144.05C300.125 1208.43 303.797 1272.76 307.78 1335.23C309.783 1366.25 311.986 1399.49 314.345 1432.54C315.903 1454.46 317.661 1479.27 324.804 1502.95C333.549 1531.96 349.638 1551.19 372.581 1560.11C394.611 1568.68 419.111 1568.84 442.832 1568.99C447.706 1569.04 452.535 1569.06 457.297 1569.17C512.662 1570.42 568.739 1571.06 624.348 1571.06C632.604 1571.06 640.86 1571.04 649.116 1571.02C776.691 1570.55 905.712 1566.72 1032.58 1559.65C1049.42 1558.71 1066.29 1557.73 1083.13 1556.66C1084.47 1556.58 1085.8 1556.51 1087.16 1556.44C1100.85 1555.69 1116.36 1554.86 1123.54 1540.24C1123.74 1539.82 1123.95 1539.35 1124.12 1538.86L1124.37 1538.24C1124.63 1537.62 1124.52 1536.9 1124.08 1536.39C1123.66 1535.88 1122.97 1535.64 1122.32 1535.77C1106.97 1538.95 1086.72 1534.19 1077.21 1529.81C1062.71 1523.09 1048.66 1507.8 1050 1488.79C1050.89 1475.95 1059.55 1462.78 1073.77 1452.66C1074.32 1452.25 1074.61 1451.59 1074.5 1450.9C1074.39 1450.23 1073.92 1449.65 1073.28 1449.45C1070.94 1448.69 1069.05 1447.98 1067.47 1447.29C1048.13 1439.04 1034.73 1422.24 1033.33 1404.54C1032.06 1389.17 1040.16 1373.9 1054.98 1363.69C1055.56 1363.29 1055.85 1362.6 1055.74 1361.91C1055.63 1361.22 1055.14 1360.66 1054.45 1360.46C1044.95 1357.72 1027.97 1350.72 1021.16 1334.43C1011.17 1310.53 1026.63 1286.03 1045.21 1273.36C1045.88 1272.92 1046.15 1272.1 1045.93 1271.34C1045.7 1270.58 1044.99 1270.07 1044.19 1270.05C1038.03 1270.03 1032.04 1270.25 1026.19 1270.47C1022.27 1270.61 1018.44 1270.76 1014.77 1270.81C984.888 1271.32 954.98 1271.81 925.072 1272.3L921.178 1272.36C858.603 1273.43 796.028 1274.48 733.476 1275.5L730.361 1275.55C725.198 1275.63 719.901 1275.92 714.271 1276.21C694.733 1277.26 672.593 1278.44 655.369 1270.38C635.43 1261.01 631.335 1241.83 628.621 1221.34C624.682 1191.16 622.769 1160.83 622.947 1131.19L622.968 1123.65C623.035 1099.57 623.102 1074.67 629.266 1052.17C640.838 1009.94 686.99 1007.15 727.735 1004.73C735.835 1004.24 743.467 1003.79 750.588 1003.04C781.942 999.656 813.319 996.295 844.695 992.958C848.234 992.579 851.927 992.268 855.71 991.934C881.368 989.731 910.452 987.239 924.137 963.05C928.365 955.573 931.08 946.939 932.415 936.658C932.482 936.079 932.282 935.501 931.859 935.123C931.436 934.722 930.835 934.544 930.301 934.655C926.007 935.412 921.356 935.568 916.861 935.723C914.391 935.812 911.943 935.901 909.54 936.08C899.081 936.836 886.82 937.103 875.159 933.12C855.799 926.555 844.139 910.088 845.474 891.173C846.587 875.596 855.221 861.889 869.796 852.587C870.375 852.209 870.686 851.563 870.619 850.874C870.553 850.184 870.108 849.605 869.463 849.36C850.926 842.128 839.243 832.115 833.747 818.763C827.004 802.296 833.28 781.49 849.769 765.757C850.303 765.245 850.481 764.444 850.191 763.754C849.924 763.064 849.301 762.664 848.5 762.619C819.683 762.908 790.843 763.153 761.982 763.42C756.062 763.487 749.832 763.687 743.467 763.91C703.59 765.312 658.395 766.87 635.386 731.465C621.211 709.635 617.851 680.996 624.838 641.275C624.971 640.563 624.637 639.829 624.037 639.428C623.436 639.027 622.635 639.05 622.034 639.472C610.552 647.394 598.29 653.447 585.561 657.497C543.682 670.871 498.598 661.77 467.756 633.575C467.756 633.531 467.845 633.353 468.089 633.219C468.201 633.153 468.49 633.019 468.779 633.153C520.339 655.739 572.255 653.38 611.197 626.699C631.936 612.502 644.421 593.432 655.458 575.117C665.672 558.139 675.686 545.432 691.441 538.489C708.842 530.812 730.65 529.188 749.876 527.786L755.995 527.319C781.475 525.36 807.466 525.205 832.634 525.027L836.818 525.004C861.118 524.871 886.219 524.715 910.942 522.935C920.176 522.267 929.656 520.887 938.846 519.552C951.686 517.683 964.949 515.769 977.811 515.725C978.59 515.725 979.258 515.235 979.525 514.501C979.792 513.767 979.547 512.965 978.946 512.498C976.921 510.874 974.963 509.205 973.116 507.491C966.418 501.327 959.876 494.83 953.556 488.554C935.798 470.886 917.417 452.638 893.785 440.622C892.405 439.91 892.939 438.396 893.072 438.107C893.139 437.907 893.874 436.238 895.454 436.728C925.273 446.408 945.545 458.157 963.213 476.004C964.971 477.784 966.774 479.631 968.576 481.5C986.045 499.592 1005.89 520.109 1033.84 512.075C1059.59 504.688 1074.79 480.699 1070 455.064C1068.47 446.83 1065.87 438.864 1063.33 431.164C1058.81 417.368 1054.56 404.328 1055.78 389.685C1056.74 378.136 1060.5 367.032 1064.13 356.284C1068.51 343.311 1073.05 329.892 1072.9 315.339C1072.52 283.517 1055.38 258.283 1029.26 251.05C1008.45 245.309 993.455 255.501 978.968 265.381C973.316 269.231 967.486 273.192 961.277 276.307C946.457 283.74 930.969 283.718 914.747 283.718C908.137 283.718 901.306 283.695 894.541 284.252C866.125 286.499 833.925 312.602 833.346 344.201C833.124 357.397 840.734 367.432 848.1 377.135C854.308 385.324 860.739 393.78 862.319 404.06C862.698 406.62 861.073 408.6 859.248 409.245C858.425 409.535 856.378 409.935 854.909 407.421C850.592 400.077 844.717 394.025 839.065 388.194C833.146 382.119 827.027 375.822 822.91 368.167C816.946 357.129 815.9 343.466 819.994 329.692C825.046 312.624 836.194 296.335 850.592 285.03C851.215 284.541 851.46 283.695 851.171 282.961C850.881 282.227 850.125 281.693 849.368 281.804C839.599 282.36 828.073 283.428 816.79 287.167C798.743 293.13 783.344 303.923 769.77 320.168C769.703 320.257 769.592 320.39 769.236 320.19C768.969 320.056 768.635 319.722 768.724 319.411C774.154 301.319 788.863 285.921 809.091 277.175C812.874 275.506 816.946 274.104 821.53 272.881C822.309 272.68 822.843 271.99 822.865 271.189C822.887 270.388 822.375 269.676 821.619 269.409C813.964 266.894 805.841 264.024 796.762 260.619C796.495 260.53 796.206 260.486 795.939 260.508C792.913 260.82 789.909 261.042 786.882 261.287C776.334 262.088 765.453 262.911 754.727 267.473C734.388 276.174 718.923 291.595 707.707 304.079C707.574 304.212 707.507 304.257 707.307 304.146C707.039 304.012 706.817 303.678 706.862 303.389C711.401 282.649 726.644 265.671 749.765 255.635C753.904 253.81 758.11 252.252 762.293 250.984C763.05 250.761 763.561 250.094 763.584 249.315C763.606 248.536 763.139 247.824 762.405 247.557C754.127 244.441 744.38 240.859 734.722 237.832L730.805 236.631C730.605 236.564 730.405 236.542 730.183 236.564L726.355 236.742C714.406 237.254 702.055 237.788 690.016 242.283C678.511 246.555 667.474 253.432 658.128 262.177C643.931 275.44 636.476 285.542 635.363 293.064C635.341 293.197 635.319 293.286 635.074 293.331C634.607 293.442 634.051 293.22 633.873 292.953C631.113 288.747 630.312 283.94 631.513 278.622C635.141 262.666 655.658 245.332 668.565 237.588C673.594 234.583 678.957 231.958 684.52 229.821C685.299 229.51 685.766 228.731 685.655 227.908C685.544 227.084 684.898 226.439 684.074 226.328C662.423 223.657 643.085 224.637 624.971 229.31C598.156 236.297 576.015 250.828 550.936 277.91C550.78 278.065 550.291 278.577 549.512 278.177C548.934 277.865 548.399 277.131 548.555 276.352C558.369 229.176 608.682 215.78 637.789 211.997C638.457 211.908 639.013 211.463 639.258 210.818C639.48 210.194 639.346 209.482 638.901 208.971C637.299 207.19 635.742 205.321 634.229 203.474C631.914 200.67 629.511 197.777 626.952 195.285C615.47 184.092 602.741 174.078 589.122 165.533C562.597 148.888 532.667 137.673 502.537 133.089C469.87 128.104 435.089 130.93 401.954 141.278C385.554 146.374 369.777 153.272 355.023 161.795C351.018 164.109 347.057 166.779 343.229 169.361C338.912 172.276 334.439 175.302 329.9 177.794C329.41 178.061 329.076 178.529 328.987 179.063C328.876 179.597 329.032 180.153 329.388 180.576C345.521 199.558 353.488 220.386 353.021 242.461C352.954 244.864 351.084 245.332 350.506 245.421C349.126 245.643 347.502 245.042 346.901 243.24C325.739 181.666 272.021 143.303 206.664 143.169C206.553 143.169 206.419 143.169 206.308 143.169C147.983 143.169 96.6016 172.098 72.1236 218.739C59.7288 242.372 54.0767 269.587 56.213 295.356C58.2602 319.901 68.6971 338.771 79.7567 358.732C82.0487 362.893 84.3854 367.099 86.6774 371.438C99.2725 395.248 100.941 416.567 91.8623 438.486C84.7192 455.776 73.3702 471.264 62.3996 486.24C57.504 492.916 52.4526 499.814 47.824 506.802C24.9704 541.338 18.183 569.821 27.0619 593.854C32.0243 607.384 45.1981 618.51 59.7069 621.426ZM509.724 194.484C511.816 181.889 522.319 170.028 538.742 170.028C539.943 170.028 541.19 170.095 542.481 170.228C547.888 170.785 553.14 172.81 557.234 175.947C559.17 177.438 560.839 179.152 562.196 181.088C565.957 186.362 567.515 193.349 566.447 200.27C565.267 207.813 560.594 214.845 553.607 219.585C546.62 224.325 538.364 226.061 530.931 224.347C512.328 220.119 507.877 205.61 509.724 194.484ZM497.374 292.975C495.483 305.258 487.872 316.718 476.523 324.44C465.13 332.184 451.645 335.032 439.517 332.273C411.122 325.798 401.688 303.1 404.936 283.473C408.586 261.42 428.034 240.747 458.276 243.885C467.088 244.82 475.633 248.135 482.331 253.276C485.514 255.724 488.228 258.55 490.453 261.643C496.595 270.277 499.11 281.693 497.374 292.975ZM1025.57 330.382L1025.74 332.918C1026.32 340.507 1027.01 349.964 1024.39 356.351C1022.94 359.844 1021.12 361.803 1018.96 362.159C1013.19 363.16 1004.92 353.613 1000.93 349.029L1000.13 348.117C998.573 346.359 996.748 344.512 994.834 342.576C986.133 333.786 976.253 323.862 983.797 313.358C992.409 301.431 1001.31 296.023 1008.9 298.204C1017.91 300.808 1024.45 313.425 1025.57 330.382ZM908.739 343.622C909.673 331.405 925.161 328.29 936.71 326.999C954.712 324.996 963.324 329.002 965.505 340.418C968.131 354.437 964.659 371.104 961.166 385.613C960.454 388.55 958.584 389.774 957.138 390.286C954.534 391.198 951.152 390.553 948.727 388.662C947.725 387.883 946.591 387.015 945.322 386.058C933.106 376.734 907.648 357.374 908.739 343.622Z" fill="#B7ADCC"/>
<path opacity="0.1" d="M1143.46 1455.59C1141.45 1423.21 1139.54 1390.86 1137.51 1358.48C1136.14 1336.27 1134.53 1313.08 1124.92 1292.66C1100.42 1240.58 1037.09 1250.38 989.601 1251.18C923.599 1252.31 857.575 1253.42 791.574 1254.52C759.174 1255.05 726.751 1256.01 694.351 1256.14C680.487 1256.21 661.461 1257.07 653.606 1242.9C646.062 1229.28 646.775 1207.87 645.484 1192.85C642.769 1162.12 642.213 1131.17 643.815 1100.35C644.571 1085.51 644.616 1069.11 649.333 1054.91C655.275 1036.95 669.806 1032.08 687.186 1029.83C750.228 1021.6 813.848 1017.59 876.868 1009.29C899.143 1006.35 921.441 999.966 935.727 981.429C949.234 963.894 952.705 941.219 953.039 919.656C953.507 889.926 950.169 859.818 946.986 830.311C944.672 808.748 945.028 781.132 931.565 762.952C917.813 744.326 894.292 742.479 872.929 742.479C841.731 742.524 810.555 743.058 779.379 743.347C749.649 743.636 717.605 747.33 688.209 742.301C660.438 737.539 645.35 717.912 642.057 690.83C639.231 667.309 643.793 643.187 649.267 620.378C649.6 619.11 649.623 617.953 649.512 616.818C659.971 603.911 667.514 589.425 677.127 575.494C694.151 550.749 721.255 548.969 749.16 546.432C778.266 543.784 807.551 543.74 836.768 543.562C863.65 543.406 890.576 543.272 917.413 541.025C941.869 539 969.284 536.886 989.734 522.11C1003.66 530.121 1019.31 533.681 1036.26 529.542C1058.54 524.135 1078.61 506.889 1085.84 484.859C1095.64 454.885 1075.87 430.095 1073.29 401.1C1071.87 385.078 1078.41 370.435 1083.33 355.57C1078.97 359.887 1074.23 363.893 1069.02 367.476C1056.18 376.31 1043.19 378.936 1027.72 377.423C1007.69 375.442 991.848 373.306 972.31 379.848C950.146 387.281 933.724 406.841 913.452 418.19C824.485 468.058 716.07 458.779 622.742 496.475C571.983 516.992 532.106 553.798 512.88 605.691C500.73 638.425 495.767 677.256 522.226 704.36C544.902 727.57 579.104 737.45 609.501 745.706C642.791 754.74 677.061 760.927 709.527 772.765C734.005 781.688 760.53 794.84 771.078 820.319C784.519 852.831 768.986 882.716 741.704 901.319C700.626 929.313 649.934 938.237 608.233 964.473C589.83 976.044 561.302 1000.41 561.613 1024.58C561.88 1044.47 575.899 1064.57 582.33 1082.97C601.201 1136.91 578.703 1180.37 557.096 1229.24C548.373 1248.93 538.181 1273.67 551.154 1293.81C566.397 1317.45 599.777 1327.21 625.857 1331.87C679.352 1341.43 739.368 1334.45 788.391 1361.86C823.751 1381.62 847.516 1423.99 845.202 1464.69C842.242 1516.43 805.17 1557.55 761.977 1589.53C812.402 1588.62 862.805 1587.17 913.185 1585.21C946.942 1583.9 980.655 1582.39 1014.39 1580.61C1043.79 1579.05 1074.16 1579.23 1103.29 1574.95C1161.79 1566.41 1146.04 1497.87 1143.46 1455.59Z" fill="#592639"/>
<path opacity="0.15" d="M353.51 1070.35C348.881 957.331 364.347 846.157 408.741 741.658C429.881 691.878 453.892 638.227 450.064 582.862C447.305 542.874 424.785 482.012 375.317 492.672C338.222 500.638 303.774 513.144 265.878 499.726C236.593 489.378 217.835 464.811 215.186 433.924C207.91 348.963 287.886 279.535 365.058 266.205C427.433 255.435 489.807 269.432 551.715 276.931C579.486 280.291 607.414 283.073 635.385 283.74C656.614 284.252 681.426 285.342 701.476 276.975C718.722 269.766 713.136 256.792 703.657 244.108C681.07 213.889 647.023 191.347 618.651 166.98C569.517 124.833 517.312 71.182 518.046 6.18164C512.884 7.78384 507.832 9.69759 503.003 11.8784C478.392 22.938 458.231 41.4078 442.943 63.4825C434.888 75.0985 415.951 102.069 417.286 119.76C411.589 121.028 405.893 122.452 400.307 124.121C375.673 131.554 337.354 145.128 319.263 167.447C297.344 147.487 268.415 133.734 241.422 128.216C182.208 116.088 115.205 134.38 75.2164 181.155C37.2532 225.616 25.2814 291.707 50.3158 345.291C58.1265 361.959 70.7216 376.646 76.5073 394.247C83.4502 415.365 74.4373 434.102 63.1997 451.726C44.2848 481.412 19.1171 507.87 9.12564 542.406C0.625088 571.98 3.49547 608.052 29.6202 627.946C47.7562 641.698 73.0354 645.103 92.2618 633.977C109.597 667.845 138.859 697.842 177.356 704.918C207.375 710.437 239.62 701.046 260.093 679.038C259.692 706.587 262.496 734.492 264.476 761.952C265.099 862.846 269.149 963.829 273.667 1064.55C279.474 1195.24 283.569 1327.11 296.698 1457.28C298.323 1473.46 300.904 1490.42 305.599 1506.53C276.648 1521.11 236.26 1517.79 207.509 1499.79C200.967 1493.4 195.559 1486.21 190.953 1478.49C183.365 1461.62 180.005 1442.89 178.224 1423.68C197.028 1412.13 215.498 1391.13 227.626 1374.95C243.447 1353.85 248.788 1329.73 241.378 1304.19C228.672 1260.46 190.218 1208.92 144.044 1198.11C140.127 1197.19 135.344 1198.68 133.385 1202.47C111.511 1244.46 82.2484 1297.04 88.2789 1346.02C92.8184 1382.56 121.08 1408.8 155.816 1416.49C156.039 1427.06 157.774 1437.68 159.599 1446.69C160.244 1449.92 161.023 1453.12 161.891 1456.28C166.853 1479.25 176.288 1500.74 191.175 1517.97C208.154 1537.64 231.208 1551.72 255.909 1559.34C278.94 1566.46 314.945 1572.69 338.4 1562.14C341.515 1564.85 344.742 1567.48 348.346 1569.79C358.071 1576.11 368.797 1580.16 379.923 1582.81C371.089 1518.32 367.395 1452.94 364.903 1388.23C360.808 1282.31 357.871 1176.32 353.51 1070.35ZM125.886 1381.62C121.747 1378.06 118.365 1373.97 115.605 1369.47C119.7 1375.06 124.529 1380.13 129.802 1384.67C128.467 1383.74 127.154 1382.72 125.886 1381.62Z" fill="#FFFCFC"/>
<path opacity="0.3" d="M887.976 907.107C874.58 933.365 854.909 952.191 825.112 957.532C761.247 969.014 698.361 932.141 634.273 949.543C608.66 956.486 585.094 972.285 574.746 997.431C563.598 1024.47 566.268 1058.4 568.694 1086.84C572.944 1136.73 586.473 1190.72 614.423 1233.93C620.053 1247.42 628.22 1258.95 640.414 1266.18C647.134 1270.16 655.925 1263.55 653.699 1255.96C642.751 1218.67 634.206 1183.15 631.046 1144.1C629.332 1122.96 629.021 1102.04 630.089 1080.88C630.445 1074 630.512 1066.79 630.846 1059.58C631.58 1058.85 632.27 1058.05 632.871 1057.02C637.655 1049.03 643.619 1041.29 649.382 1033.97C651.941 1030.72 660.82 1018.1 665.448 1018.86C671.234 1019.82 675.908 1016.86 677.532 1012.41C696.603 1014.41 715.607 1017.44 734.789 1017.77C776.757 1018.53 818.837 1016.48 860.36 1010.56C865.545 1009.83 867.081 1005.55 866.146 1001.55C874.269 1000.39 882.257 998.566 889.935 995.517C925.494 981.476 939.135 946.828 942.562 911.201C947.079 864.382 939.069 814.202 926.273 769.162C925.116 765.068 922.246 763.154 919.219 762.953C916.772 755.387 903.442 757.257 904.198 765.757C906.246 788.789 907.047 811.976 906.068 835.097C902.441 859.642 899.725 884.053 887.976 907.107Z" fill="#592642"/>
<path opacity="0.3" d="M1067.49 1271.87C1064.33 1286.58 1068.34 1300.94 1070.01 1315.73C1071.74 1331.2 1073.3 1346.49 1073.61 1362.06C1073.7 1366.45 1073.74 1370.88 1073.74 1375.28C1070.49 1403.32 1064.8 1434.18 1052.74 1459.73C1028.17 1511.78 957.807 1517.5 907.493 1523.22C843.561 1530.49 779.273 1535.35 715.251 1541.93C681.672 1545.38 648.092 1548.7 614.535 1552.28C583.27 1555.62 549.135 1556.69 518.938 1565.77C509.948 1568.46 512.729 1579.92 521.007 1581.03C543.371 1584.03 566.848 1583.17 590.147 1581.61C656.037 1585.48 722.328 1584.79 788.329 1584.32C859.449 1583.83 930.903 1584.35 1001.47 1574.29C1018.49 1571.86 1035 1568.57 1049.87 1561.96C1064.33 1561.23 1082.56 1561.43 1097.24 1556.02C1099.53 1558.44 1102.69 1560.11 1106.39 1560.25C1106.83 1560.27 1107.28 1560.29 1107.72 1560.29C1112.49 1560.47 1116.96 1557.58 1119.36 1553.62C1128.93 1537.9 1127.71 1517.12 1125.68 1498.92C1125.75 1497.94 1125.81 1496.96 1125.88 1496C1126.97 1482.01 1126.84 1469.54 1122.3 1456.79C1121.97 1442.17 1122.63 1427.55 1124.59 1412.89C1124.97 1410.04 1124.01 1407.82 1122.39 1406.24C1123.12 1391.48 1123.19 1376.71 1122.72 1362.02C1121.74 1331.64 1121.34 1286.65 1099.07 1263.51C1089.57 1253.69 1070.49 1257.94 1067.49 1271.87Z" fill="#592642"/>
<path opacity="0.3" d="M268.794 688.027C266.101 693.346 266.346 700.044 271.309 704.494C290.78 721.918 317.928 713.952 340.337 706.542C365.148 698.33 387.602 686.002 403.846 665.085C429.971 631.438 436.068 576.051 412.524 538.978C407.117 530.478 396.124 534.817 394.967 543.74C390.761 575.962 390.405 608.563 369.354 635.8C359.251 648.862 343.563 657.474 328.387 663.149C320.243 666.197 311.497 668.2 302.863 670.492C302.018 666.086 299.592 662.548 296.298 659.232C292.248 655.16 286.574 655.961 282.413 659.232C279.742 661.324 277.829 663.66 276.494 666.331C270.485 668.534 265.879 674.987 266.791 681.708C267.081 683.933 267.748 686.069 268.794 688.027Z" fill="#592642"/>
<path opacity="0.3" d="M482.02 651.955C515.466 678.97 550.825 691.432 590.368 706.185C620.276 717.334 640.994 772.632 678.757 759.481C688.793 755.987 688.77 742.591 678.757 739.075C660.109 732.555 650.184 724.522 637.122 709.813C634.273 706.608 631.38 703.604 628.376 700.778C629.556 699.042 630.29 696.973 630.268 694.725C630.201 687.716 627.286 682.175 626.173 675.41C624.927 667.866 626.507 660.745 629.178 653.736C631.87 646.659 627.508 640.473 621.522 637.78C627.286 631.861 632.493 625.007 637.411 617.708C651.92 608.562 658.306 592.986 663.469 576.541C676.264 557.826 691.062 542.004 713.182 537.287C753.125 528.786 797.341 530.967 838.042 528.964C860.962 527.829 883.838 526.962 906.78 526.739C926.608 526.539 951.063 529.387 968.643 519.218C980.949 512.097 976.343 496.431 965.061 491.736C961.322 490.178 957.272 489.243 953.089 488.731C953.356 476.604 940.026 463.719 925.495 470.996C856.734 505.399 780.674 483.546 707.73 488.487C678.801 490.445 654.501 503.396 644.91 531.991C640.616 544.786 639.303 558.538 636.744 571.823C620.076 601.308 605.278 633.263 568.45 640.273C561.218 641.652 560.505 649.174 563.888 653.98C560.238 653.513 556.522 652.801 552.739 651.911C545.307 650.153 538.03 657.496 539.254 664.239C522.72 657.43 506.965 648.862 491.989 639.116C484.267 634.175 474.743 646.081 482.02 651.955Z" fill="#592642"/>
<path opacity="0.3" d="M1022.98 530.833C1046.88 533.192 1064.55 505.977 1071.34 486.439C1079.37 463.252 1076.57 438.863 1064.73 417.589C1063.7 415.742 1062.57 413.917 1061.41 412.115C1064.44 403.903 1064.93 395.047 1065.46 386.146C1066.09 375.687 1067.31 364.383 1064.62 354.146C1067.82 347.96 1070.76 341.618 1072.87 334.742C1080.97 308.328 1080.22 278.264 1063.21 255.611C1056.74 246.977 1044.12 254.142 1048.71 264.089C1061.84 292.617 1052.56 320.878 1037.47 346.514C1025.67 366.541 1014.57 382.163 1023.32 406.084C1030.57 425.867 1046.21 441.711 1043.32 464.142C1040.41 486.684 1022.71 495.14 1012.9 513.209C1008.32 521.554 1014.17 529.965 1022.98 530.833Z" fill="#592642"/>
<path opacity="0.3" d="M636.007 134.29C663.846 153.739 717.52 169.071 720.68 209.371C721.37 218.094 726.02 224.102 734.165 227.062C748.028 232.113 765.519 239.257 774.398 222.166C782.965 205.677 770.793 183.647 757.753 173.789C754.214 171.119 749.007 171.297 744.712 173.322C732.429 154.362 712.78 140.521 691.106 130.263C674.127 122.229 655.791 115.665 640.57 104.405C620.453 89.4955 614.734 69.4681 610.417 46.0582C608.837 37.4909 596.064 38.381 593.95 46.0582C584.07 81.9074 607.969 114.708 636.007 134.29Z" fill="#592642"/>
<path opacity="0.3" d="M577.791 216.735C570.915 227.15 582.22 238.966 593.035 236.563C607.21 233.425 643.549 232.134 643.549 210.972C643.549 194.282 618.981 175.123 604.851 170.783C603.093 170.249 601.335 170.249 599.711 170.628C589.742 154.116 573.23 140.431 556.028 133.043C547.194 129.237 538.716 138.851 545.525 146.639C561.837 165.309 596.595 188.252 577.791 216.735Z" fill="#592642"/>
<path opacity="0.5" d="M346.941 1557.73C365.656 1575.42 388.175 1584.41 413.722 1582.28C429.365 1580.96 432.547 1560.33 417.415 1554.99C393.716 1546.6 380.097 1515.36 374.067 1492.82C365.5 1460.71 364.788 1425.77 361.605 1392.82C354.818 1322.63 348.209 1252.42 341.444 1182.24C327.737 1040.29 314.986 898.293 297.785 756.743C296.517 746.262 281.296 745.617 280.984 756.743C277.468 877.131 279.849 997.607 286.68 1117.93C293.423 1236.96 299.965 1356.9 315.476 1475.17C319.147 1503.3 325.378 1537.35 346.941 1557.73Z" fill="#FFF7F7"/>
<path opacity="0.5" d="M71.0061 450.902C39.9189 490.334 14.6394 536.331 24.4306 588.224C27.813 606.16 41.1429 637.736 65.2649 629.191C89.7652 620.513 71.3618 589.848 69.6261 573.648C63.9962 521.488 108.391 480.32 137.564 442.891C153.408 422.574 165.647 399.543 159.193 373.107C153.519 349.852 135.227 332.629 128.796 309.642C116.624 266.115 134.182 214.378 174.148 191.457C195.733 179.062 220.278 175.502 244.845 176.926C255.927 177.572 268.099 178.751 278.691 182.289C293.022 183.58 305.461 190.256 316.276 200.114C322.307 200.114 325.422 192.036 323.108 186.806C315.23 168.915 294.602 156.454 277.935 147.553C258.731 137.294 236.433 132.732 214.736 133.8C183.004 135.336 153.697 146.774 130.354 166.445C127.172 164.198 123.011 163.152 118.382 164.131C77.5928 172.743 61.9267 222.589 59.9462 259.083C58.6778 282.337 63.3065 305.681 68.981 328.111C75.4788 353.791 80.886 385.19 97.2417 406.619C98.9997 408.934 101.27 410.313 103.606 410.959C101.915 413.117 100.224 415.142 98.7106 417.056C89.6315 428.449 80.0407 439.442 71.0061 450.902Z" fill="#FFF7F7"/>
<path opacity="0.5" d="M166.607 649.818C143.709 641.785 130.246 626.386 113.401 610.164C108.661 605.602 98.1356 608.473 99.0479 616.105C106.547 678.257 198.495 713.995 245.671 672.783C254.06 665.462 247.652 648.884 236.214 649.93C212.426 652.11 190.084 658.052 166.607 649.818Z" fill="#FFF7F7"/>
<path opacity="0.5" d="M342.384 205.008C339.313 211.261 337.265 217.67 336.42 224.168C339.424 228.685 342.272 233.358 344.943 238.143C348.013 238.454 351.307 237.631 353.821 235.606C365.126 226.505 372.18 211.573 381.816 200.558C392.831 188.007 405.425 177.059 419.534 168.113C446.949 150.756 477.703 144.881 508.211 135.313C516.712 132.642 517.646 119.335 508.211 117.132C497.619 114.662 486.893 114.173 476.256 115.196C485.113 102.356 493.079 88.6709 502.937 76.7657C517.691 58.9635 536.205 44.0097 555.431 31.2589C565.467 24.6053 562.286 7.15909 549.001 7.51514C519.649 8.29398 497.864 23.6261 478.949 45.0778C460.279 66.2402 441.097 93.3885 432.574 120.47C431.795 122.962 431.728 125.344 432.129 127.547C431.973 127.613 431.795 127.68 431.639 127.769C429.414 125.766 426.187 124.787 422.16 125.766C407.184 129.46 393.543 135.869 379.613 142.367C367.129 148.197 353.354 153.493 342.094 161.549C328.164 171.563 319.486 200.18 342.384 205.008Z" fill="#FFF7F7"/>
<path opacity="0.5" d="M877.85 1272.54C852.793 1273.1 827.536 1273.1 802.48 1272.25C788.817 1271.78 775.198 1272.18 761.579 1270.94C747.894 1269.67 734.742 1267.33 720.99 1268.38C713.112 1268.98 708.017 1280.69 716.562 1284.76C739.46 1295.68 768.5 1299.6 793.579 1303.12C821.64 1307.03 849.522 1309.21 877.872 1308.86C932.08 1308.17 990.582 1305.92 1039.92 1281.66C1050.42 1276.5 1044.83 1260.75 1034.2 1260.52C981.97 1259.5 930.233 1271.38 877.85 1272.54Z" fill="#FFF7F7"/>
<path opacity="0.5" d="M861.451 774.745C872.266 770.873 870.953 754.45 858.67 754.228C835.282 753.782 811.828 758.545 788.44 759.457C765.03 760.392 741.442 759.323 718.077 758.1C708.664 757.61 706.594 772.519 715.852 774.611C760.468 784.692 817.524 790.5 861.451 774.745Z" fill="#FFF7F7"/>
<path opacity="0.5" d="M547.463 271.211C543.213 277.797 550.244 286.409 557.543 284.317C570.805 280.49 582.622 272.724 595.773 268.251C609.548 263.578 623.968 260.173 638.454 258.638C644.017 258.037 649.581 257.814 655.166 257.792C646.799 264.179 639.789 272.19 635.94 280.824C632.824 287.833 639.656 297.313 647.444 292.329C655.099 287.433 661.731 281.336 669.141 276.084C676.484 270.877 684.606 266.894 692.15 261.976C701.251 264.134 710.175 267.072 718.765 270.944C722.481 272.613 726.152 274.415 729.78 276.262C723.082 280.957 717.274 286.988 712.445 294.131C707.06 302.12 718.653 309.93 725.24 304.011C732.828 297.18 741.64 292.017 750.741 287.522C760.711 293.041 770.658 298.604 780.938 303.499C778.557 306.37 776.51 309.552 774.841 313.001C769.634 323.861 783.587 331.516 790.685 322.258C793.734 318.275 797.561 314.96 801.745 312.133C808.665 314.581 816.098 316.806 823.686 318.364C823.264 319.388 822.818 320.389 822.44 321.435C811.358 352.767 833.655 369.39 846.829 394.202C850.767 401.612 864.008 398.541 863.207 389.773C861.36 369.301 845.605 351.721 859.002 331.983C872.665 311.889 904.13 324.773 923.357 326.753C946.277 329.112 965.726 322.704 983.305 308.039C990.894 301.697 997.28 294.198 1004.58 287.566C1011.68 281.113 1020.02 277.063 1028.01 271.878C1040.16 263.979 1037.49 246.71 1024.12 242.059C997.947 232.958 977.808 256.702 960.874 272.79C951.038 282.137 942.716 287.344 928.719 286.788C913.409 286.187 898.433 281.58 883.057 281.58C881.833 281.58 880.609 281.647 879.385 281.692C878.005 280.735 876.469 279.956 874.756 279.466C859.157 274.905 842.556 277.286 826.712 273.681C811.959 270.32 798.363 264.067 784.744 257.659C756.483 244.374 728.333 229.976 697.157 225.103C669.875 220.83 641.102 221.72 614.532 229.709C590.944 236.763 561.304 249.826 547.463 271.211Z" fill="#FFF7F7"/>
<path d="M29.6237 627.99C47.7597 641.743 73.0388 645.147 92.2652 634.021C109.6 667.89 138.863 697.886 177.36 704.963C207.379 710.481 239.624 701.091 260.096 679.083C259.696 706.632 262.499 734.536 264.48 761.996C265.103 862.89 269.153 963.873 273.67 1064.59C279.478 1195.28 283.573 1327.15 296.702 1457.33C298.326 1473.51 300.907 1490.46 305.603 1506.57C276.652 1521.15 236.263 1517.83 207.513 1499.83C200.97 1493.44 195.562 1486.26 190.956 1478.54C183.368 1461.67 180.008 1442.93 178.228 1423.73C197.031 1412.18 215.501 1391.17 227.629 1374.99C243.451 1353.9 248.792 1329.78 241.381 1304.23C228.675 1260.5 190.222 1208.97 144.047 1198.15C140.131 1197.24 135.347 1198.73 133.389 1202.51C111.514 1244.5 82.2518 1297.09 88.2823 1346.06C92.8219 1382.6 121.083 1408.84 155.82 1416.54C156.042 1427.11 157.777 1437.72 159.602 1446.74C160.247 1449.96 161.026 1453.17 161.894 1456.33C166.856 1479.29 176.292 1500.79 191.179 1518.01C208.158 1537.68 231.212 1551.77 255.912 1559.38C278.944 1566.5 314.949 1572.73 338.403 1562.18C341.519 1564.9 344.745 1567.52 348.35 1569.84C368.778 1583.12 393.612 1586.46 417.423 1587.66C449.978 1589.33 482.668 1589.44 515.224 1589.95C647.895 1591.98 780.61 1590.42 913.192 1585.28C946.95 1583.97 980.662 1582.46 1014.4 1580.68C1043.79 1579.12 1074.17 1579.3 1103.3 1575.02C1161.82 1566.46 1146.09 1497.92 1143.51 1455.64C1141.51 1423.26 1139.59 1390.9 1137.57 1358.53C1136.19 1336.32 1134.59 1313.13 1124.97 1292.7C1100.47 1240.63 1037.14 1250.42 989.652 1251.22C923.651 1252.36 857.627 1253.47 791.625 1254.56C759.225 1255.1 726.803 1256.05 694.403 1256.19C680.54 1256.25 661.513 1257.12 653.658 1242.95C646.114 1229.33 646.827 1207.92 645.536 1192.9C642.821 1162.17 642.265 1131.21 643.867 1100.39C644.624 1085.55 644.668 1069.15 649.386 1054.95C655.327 1037 669.858 1032.12 687.237 1029.88C750.279 1021.64 813.9 1017.64 876.92 1009.34C899.195 1006.4 921.492 1000.01 935.779 981.475C949.286 963.94 952.758 941.265 953.092 919.702C953.559 889.972 950.221 859.864 947.039 830.357C944.724 808.794 945.081 781.178 931.618 762.998C917.866 744.372 894.344 742.525 872.982 742.525C841.783 742.57 810.607 743.104 779.431 743.393C749.701 743.682 717.657 747.376 688.261 742.347C660.49 737.585 645.403 717.958 642.109 690.877C639.283 667.355 643.845 643.233 649.319 620.424C649.653 619.156 649.675 617.999 649.564 616.864C660.022 603.957 667.566 589.471 677.179 575.541C694.203 550.796 721.306 549.015 749.211 546.479C778.318 543.83 807.603 543.786 836.821 543.608C863.702 543.452 890.628 543.319 917.465 541.071C941.92 539.046 969.336 536.932 989.786 522.156C1003.72 530.167 1019.36 533.728 1036.32 529.589C1058.59 524.181 1078.66 506.935 1085.9 484.905C1095.69 454.931 1075.93 430.141 1073.35 401.146C1071.79 383.611 1079.78 367.722 1084.74 351.389C1089.41 336.079 1091.57 320.212 1089.79 304.257C1086.96 278.333 1073.63 254.099 1050.56 241.082C1027.42 228.064 1001.67 229.243 979.461 243.396C964.73 252.787 952.824 263.891 934.644 266.072C934.11 266.116 933.598 266.138 933.086 266.183C892.408 265.448 854.333 260.887 815.213 247.713C804.109 243.974 793.072 239.947 782.034 235.964C788.087 221.277 783.881 200.337 778.852 186.718C770.841 165.133 754.752 149.089 734.725 138.274C713.829 127.014 690.486 121.406 669.324 110.792C642.331 97.262 634.12 78.5252 623.773 51.5326C615.139 29.0795 602.499 11.6556 578.422 4.5125C553.699 -2.85317 526.172 1.46387 503.073 11.9227C478.462 22.9823 458.301 41.4521 443.014 63.5268C434.958 75.1428 416.021 102.113 417.356 119.804C411.659 121.072 405.963 122.497 400.377 124.166C375.743 131.598 337.424 145.172 319.333 167.492C297.414 147.531 268.485 133.779 241.493 128.26C182.278 116.132 115.275 134.424 75.2864 181.199C37.3232 225.66 25.3514 291.751 50.3858 345.336C58.1965 362.003 70.7916 376.69 76.5773 394.292C83.5202 415.41 74.508 434.147 63.2704 451.771C44.3555 481.456 19.1871 507.914 9.19564 542.451C0.628322 572.025 3.47666 608.096 29.6237 627.99ZM125.89 1381.62C121.751 1378.06 118.368 1373.97 115.609 1369.47C119.703 1375.06 124.532 1380.13 129.806 1384.67C128.471 1383.74 127.158 1382.71 125.89 1381.62ZM1124.3 1500.7C1124.64 1505.71 1125.17 1511.27 1125.39 1516.85C1119.07 1516.41 1112.47 1518.01 1105.19 1517.72C1090.01 1517.14 1065.85 1509.78 1067.23 1489.95C1068.27 1474.89 1085.98 1463.03 1098.58 1458.15C1100 1457.62 1101.41 1457.13 1102.79 1456.73C1109.46 1457.02 1115.96 1456.57 1121.54 1455.06V1455.57C1122.5 1470.66 1123.44 1485.68 1124.3 1500.7ZM1120.32 1435.19C1113 1434.56 1105.12 1436.1 1097.47 1435.65C1079.11 1434.61 1052.65 1425.66 1051.27 1403.32C1049.89 1381.29 1073.66 1372.03 1091.53 1368.47C1098.82 1366.98 1108.39 1367.34 1116.05 1364.89C1117.49 1388.34 1118.9 1411.75 1120.32 1435.19ZM1080.18 1277.62C1086.39 1280.2 1092.08 1283.82 1096.87 1289.05C1110.37 1303.74 1113.44 1325.35 1114.82 1345.53C1105.68 1342.99 1096.4 1345.53 1086.41 1345.69C1073.23 1345.91 1058.32 1345.06 1046.93 1337.63C1030.06 1326.57 1036.12 1306.01 1048.07 1293.61C1057.21 1284.05 1068.25 1280.75 1080.18 1277.62ZM930.126 887.569C930.683 896.136 931.44 905.304 931.618 914.561C920.669 913.404 907.918 917.61 897.103 917.365C878.233 916.898 857.36 905.861 866.573 883.764C872.737 868.988 886.979 863.335 901.665 860.932C911.345 862.668 920.981 862.846 928.235 859.041C928.925 868.587 929.548 878.111 930.126 887.569ZM849.46 798.914C853.733 778.553 873.671 771.254 890.361 764.867C891.006 764.934 891.674 765.023 892.319 765.09C909.921 767.715 917.865 778.441 920.914 795.287C923.606 810.352 925.409 825.728 926.789 841.149C922.116 839.347 916.13 838.835 909.988 839.125C902.555 838.368 894.923 838.012 888.247 836.143C871.357 831.425 844.698 821.701 849.46 798.914ZM454.184 83.3763C467.358 61.8133 485.249 43.3213 508.081 31.9947C530.912 20.6458 567.562 13.9921 588.747 32.3952C604.502 46.0361 606.972 69.8911 615.784 87.8046C632.473 121.696 668.078 132.622 700.678 145.751C718.97 153.116 737.773 161.862 749.701 178.195C756.844 187.92 761.028 199.135 762.185 211.107C762.741 216.915 761.651 222.79 761.161 228.531C739.176 220.921 716.923 214.133 693.802 210.573C683.321 208.949 671.416 208.17 659.066 208.459C655.794 197.644 644.557 188.899 636.679 181.377C624.707 169.984 611.467 159.703 597.447 150.936C568.408 132.711 535.54 120.739 501.56 116.066C480.509 113.173 459.147 113.195 438.096 115.999C442.747 104.806 447.865 93.7683 454.184 83.3763ZM49.251 507.692C64.2049 485.128 83.0305 464.321 93.4448 439.064C103.325 415.187 100.054 392.912 88.1709 370.481C74.886 345.403 60.3331 324.329 57.9075 295.111C55.7712 269.12 61.5346 242.528 73.6178 219.474C99.2085 170.696 152.66 144.749 206.556 144.861C270.822 145.016 324.273 183.18 345.079 243.707C346.815 248.87 354.581 248.091 354.737 242.395C355.249 218.295 345.702 196.954 330.682 179.286C339.36 174.524 347.371 168.137 355.828 163.286C370.514 154.785 386.158 147.976 402.38 142.925C434.468 132.911 468.871 129.707 502.139 134.802C532.625 139.453 561.955 150.624 588.035 167.002C601.565 175.503 614.137 185.361 625.553 196.509C629.647 200.537 633.364 205.611 637.414 210.128C596.157 215.491 555.323 234.228 546.645 275.93C546.021 278.911 549.76 281.626 552.119 279.089C572.947 256.592 595.044 238.879 625.286 231.001C644.557 226.039 664.228 225.66 683.722 228.064C678.092 230.245 672.662 232.893 667.499 235.964C651.967 245.287 618.588 273.192 632.229 293.887C633.319 295.556 636.657 295.668 637.013 293.264C638.46 283.54 652.033 270.144 659.221 263.446C668.189 255.056 678.959 248.202 690.509 243.93C703.549 239.057 716.811 238.968 730.141 238.345C731.454 238.745 732.744 239.146 734.057 239.546C742.958 242.328 752.171 245.688 761.629 249.226C757.156 250.561 752.838 252.208 748.9 253.944C727.604 263.201 710.025 279.779 704.951 302.967C704.484 305.103 707.243 307.106 708.912 305.259C722.13 290.572 736.884 276.998 755.287 269.12C768.705 263.379 782.324 263.713 795.965 262.288C804.198 265.382 812.521 268.341 820.888 271.101C816.571 272.258 812.32 273.682 808.181 275.484C789.133 283.718 772.866 298.672 766.814 318.855C766.168 321.147 769.35 323.239 770.997 321.28C783.592 306.215 798.39 295.044 817.193 288.836C827.652 285.387 838.468 284.185 849.305 283.562C834.573 295.134 823.291 311.578 818.106 329.136C814.19 342.309 814.546 356.751 821.155 368.991C829.366 384.189 844.498 393.446 853.199 408.289C856.781 414.431 864.926 410.025 863.969 403.749C860.409 380.695 834.618 367.744 835.018 344.201C835.575 313.87 866.483 288.235 894.522 286.032C917.487 284.207 940.474 288.68 961.948 277.91C984.401 266.695 1000.82 245.109 1028.64 252.787C1056.66 260.553 1070.63 287.879 1070.94 315.361C1071.23 341.642 1055.99 363.85 1053.85 389.53C1051.85 413.051 1063.87 432.967 1068.07 455.398C1072.72 480.299 1057.59 503.33 1033.2 510.34C1003.45 518.863 983.043 493.65 964.351 474.736C944.524 454.708 922.36 443.604 895.879 434.992C891.674 433.657 888.848 440.177 892.831 442.202C924.541 458.313 946.148 485.283 971.761 508.805C973.675 510.585 975.678 512.276 977.68 513.878C955.428 513.945 932.708 519.508 910.7 521.11C886.066 522.891 861.388 523.046 836.709 523.18C809.739 523.358 782.702 523.425 755.776 525.494C734.725 527.119 710.203 528.187 690.642 536.821C673.664 544.298 663.183 558.673 653.836 574.161C641.82 594.122 629.669 611.79 610.109 625.187C567.606 654.293 515.113 651.467 469.45 631.462C467.247 630.483 464.51 633.175 466.646 635.089C498.757 664.418 544.842 672.318 586.032 659.189C599.161 655.005 611.622 648.775 622.971 640.942C617.497 672.118 616.541 705.897 633.787 732.423C661.113 774.48 718.993 765.601 761.94 765.201C790.78 764.956 819.642 764.689 848.459 764.4C833.149 779.02 824.292 800.538 832.014 819.409C838.579 835.408 853.199 844.955 868.731 851.007C854.868 859.864 844.809 873.794 843.585 890.996C842.139 911.824 855.224 928.269 874.495 934.789C885.888 938.661 897.726 938.706 909.587 937.838C916.419 937.326 923.785 937.593 930.527 936.391C929.325 945.537 926.9 954.283 922.472 962.116C907.229 988.997 871.379 988.218 844.409 991.111C813.055 994.449 781.656 997.831 750.302 1001.19C707.488 1005.78 641.686 999.567 627.422 1051.68C620.524 1076.83 621.192 1105.29 621.036 1131.15C620.858 1161.37 622.816 1191.56 626.732 1221.54C629.492 1242.37 633.876 1262.28 654.482 1271.99C676.935 1282.51 706.441 1277.73 730.296 1277.33C793.873 1276.28 857.493 1275.21 921.114 1274.12C952.312 1273.61 983.533 1273.1 1014.71 1272.56C1023.79 1272.41 1033.87 1271.76 1044.06 1271.81C1023.28 1285.96 1009.41 1311.26 1019.34 1335.05C1025.37 1349.42 1039.3 1357.95 1053.81 1362.13C1039.83 1371.74 1029.93 1387.03 1031.38 1404.63C1032.98 1424.71 1048.8 1441.28 1066.62 1448.92C1068.36 1449.67 1070.36 1450.41 1072.57 1451.14C1059.97 1460.11 1049.09 1473.35 1048.04 1488.64C1046.73 1507.29 1060.02 1523.89 1076.3 1531.43C1086.76 1536.26 1107.41 1540.64 1122.55 1537.53C1122.28 1538.15 1122.08 1538.84 1121.79 1539.42C1114.38 1554.44 1097.51 1553.91 1082.89 1554.84C1066.05 1555.89 1049.18 1556.87 1032.33 1557.82C904.67 1564.94 776.805 1568.7 648.963 1569.17C585.053 1569.39 521.121 1568.77 457.211 1567.32C429.551 1566.7 399.376 1568.59 373.117 1558.4C348.261 1548.74 333.886 1527.2 326.409 1502.41C319.555 1479.69 317.708 1455.99 316.039 1432.41C313.725 1400.01 311.567 1367.56 309.475 1335.12C305.403 1271.43 301.775 1207.7 298.549 1143.97C292.095 1016.48 288.201 888.882 283.127 761.351C281.925 731.11 280.657 700.89 279.099 670.693C321.602 678.237 364.06 655.406 386.625 617.354C420.738 559.786 405.852 495.164 389.852 434.636C388.227 428.428 379.282 431.12 380.372 437.24C388.94 485.973 396.127 541.093 377.902 588.536C361.679 630.883 315.238 666.376 268.93 646.816C264.056 644.747 257.537 645.036 254.822 650.51C240.224 679.951 204.375 692.345 173.488 682.888C140.243 672.718 117.967 643.545 104.749 612.814C102.168 606.761 92.6882 606.361 88.6382 610.745C69.7233 631.039 37.1452 616.196 28.5778 593.098C17.7853 563.658 33.2068 531.925 49.251 507.692Z" fill="#3D2938"/>
<path d="M947.615 390.063C952.689 394.024 961.144 393.401 962.925 385.991C966.307 371.905 970.001 354.525 967.286 340.039C964.305 324.506 949.862 323.683 936.51 325.152C925.451 326.376 908.027 329.402 906.937 343.444C905.668 359.621 936.177 381.207 947.615 390.063Z" fill="#3D2938"/>
<path d="M1026.08 357.039C1029.2 349.496 1027.93 338.124 1027.39 330.269C1025.37 299.382 1005.19 280.668 982.354 312.311C972.118 326.531 990.008 339.393 998.798 349.318C1004.87 356.238 1019.2 373.707 1026.08 357.039Z" fill="#3D2938"/>
<path d="M439.118 334.029C465.598 340.06 495.039 320.054 499.178 293.24C500.914 281.958 498.555 269.897 491.924 260.573C489.521 257.235 486.649 254.342 483.423 251.827C476.28 246.353 467.446 243.015 458.456 242.058C398.396 235.828 378.79 320.277 439.118 334.029Z" fill="#3D2938"/>
<path d="M530.533 226.105C547.155 229.911 565.625 217.36 568.229 200.515C569.319 193.394 567.828 185.85 563.645 180.02C562.154 177.906 560.352 176.059 558.304 174.501C553.832 171.096 548.29 168.982 542.638 168.404C504.942 164.465 492.636 217.516 530.533 226.105Z" fill="#3D2938"/>
</g>
<defs>
<filter id="filter0_d_418_70965" x="0.847656" y="0.833008" width="1150.5" height="1597.98" filterUnits="userSpaceOnUse" color-interpolation-filters="sRGB">
<feFlood flood-opacity="0" result="BackgroundImageFix"/>
<feColorMatrix in="SourceAlpha" type="matrix" values="0 0 0 0 0 0 0 0 0 0 0 0 0 0 0 0 0 0 127 0" result="hardAlpha"/>
<feOffset dy="4"/>
<feGaussianBlur stdDeviation="2"/>
<feComposite in2="hardAlpha" operator="out"/>
<feColorMatrix type="matrix" values="0 0 0 0 0 0 0 0 0 0 0 0 0 0 0 0 0 0 0.25 0"/>
<feBlend mode="normal" in2="BackgroundImageFix" result="effect1_dropShadow_418_70965"/>
<feBlend mode="normal" in="SourceGraphic" in2="effect1_dropShadow_418_70965" result="shape"/>
</filter>
</defs>
</svg>
