<svg width="948" height="1562" viewBox="0 0 948 1562" fill="none" xmlns="http://www.w3.org/2000/svg">
<g filter="url(#filter0_d_403_14037)">
<path d="M91.4524 429.646C106.918 464.649 124.809 517.878 122.228 572.931C125.499 616.903 126.612 661.875 127.702 705.38C128.169 724.294 128.659 743.877 129.304 763.036C132.108 843.502 134.934 923.991 137.783 1004.46C141.922 1121.82 147.351 1276.43 152.447 1431.6L154.427 1491.04C154.494 1492.59 154.472 1494.26 154.472 1496.02C154.45 1501.25 154.405 1507.19 156.163 1511.89C160.525 1523.61 170.049 1524.75 179.262 1525.86C180.397 1525.99 181.554 1526.13 182.711 1526.31C216.179 1531.05 251.628 1533.6 288.078 1533.96C291.571 1534.01 295.021 1534.01 298.425 1534.01C333.073 1534.01 363.626 1532.25 391.531 1528.64C402.591 1527.26 412.16 1526.06 416.944 1513.13C418.791 1508.13 418.813 1501.87 418.813 1496.35C418.813 1494.57 418.813 1492.82 418.879 1491.19C419.502 1473.28 419.97 1455.25 420.326 1439.97C422.017 1368.91 422.329 1297.48 421.261 1227.67C421.061 1215.03 420.704 1202.37 420.371 1189.73C419.77 1167.73 419.147 1144.98 419.325 1122.62L419.369 1116.3C419.503 1089.55 419.681 1056.28 431.564 1033.34C441.466 1014.29 467.68 1014.36 488.575 1014.31C493.293 1014.31 497.766 1014.31 501.86 1014.11C512.853 1013.58 523.846 1013.11 534.839 1012.65C557.87 1011.67 581.681 1010.67 605.091 1009.11C648.016 1006.28 680.861 1002.34 711.525 996.334C713.039 996.045 714.574 995.778 716.065 995.533C724.054 994.198 732.332 992.819 737.138 984.785C740.988 978.421 740.877 971.434 740.81 964.691C740.788 963.022 740.766 961.331 740.81 959.662L741.589 926.772C741.611 926.194 741.344 925.637 740.877 925.259C740.41 924.903 739.831 924.77 739.252 924.925C717.4 930.755 686.825 929.576 672.561 907.101C672.25 906.611 671.716 906.278 671.115 906.233C670.536 906.211 669.935 906.433 669.557 906.901C648.083 932.603 610.543 944.73 576.14 937.031C563.167 934.116 548.791 926.127 536.73 915.134C536.263 914.711 535.595 914.556 534.972 914.711C534.349 914.889 533.882 915.357 533.681 915.957C529.476 929.71 518.105 941.148 501.638 948.113C480.453 957.103 455.53 953.765 434.924 939.189C413.539 924.102 399.119 899.09 395.336 870.54C391.665 843.013 393.889 804.338 412.159 785.935C412.537 785.556 413.094 785.556 413.472 785.668C413.717 785.734 414.14 785.935 414.251 786.402C416.81 797.729 414.54 810.457 412.359 822.741C410.957 830.663 409.489 838.874 409.356 846.596C408.911 871.741 414.985 893.527 426.891 909.615C440.376 927.841 460.715 937.654 481.165 935.852C500.236 934.183 516.347 922.789 525.381 904.609C525.693 903.963 525.626 903.207 525.181 902.65C508.269 880.754 505.821 857.633 518.461 839.274C518.772 838.852 519.462 838.585 519.974 838.696C520.33 838.785 520.441 838.963 520.486 839.252C521.22 842.902 521.843 846.529 522.444 850.089C524.87 864.242 527.162 877.616 535.484 890.545C545.81 906.634 563.389 917.871 583.728 921.343C625.319 928.486 655.048 900.314 679.638 873.321C680.951 871.897 682.442 872.453 683.02 872.765C684.2 873.388 685.29 874.857 684.889 876.548C683.331 882.957 680.928 889.143 677.724 894.929C677.234 895.819 677.546 896.954 678.436 897.443C704.761 912.174 726.301 914.066 746.551 903.251C746.618 903.229 747.063 903.006 747.152 902.962C774.457 887.763 783.424 853.805 780.197 826.902C773.143 768.622 714.975 725.719 667.332 706.715C628.167 691.093 585.798 685.797 544.852 680.701C530.321 678.877 515.301 677.007 500.703 674.693C455.841 667.639 408.866 654.087 400.588 607.089C396.894 586.083 397.317 563.607 397.717 541.889C397.851 535.302 397.962 528.759 397.984 522.328V519.703C398.051 496.204 398.118 471.926 399.119 448.093C399.141 447.581 398.941 447.07 398.585 446.714C398.229 446.335 397.65 446.113 397.205 446.157C364.805 446.958 336.388 436.833 317.295 417.74C317.051 417.496 317.184 417.028 317.318 416.828C317.518 416.494 317.674 416.561 317.807 416.606C341.529 424.817 367.32 432.138 395.336 430.113C408.977 429.134 422.062 426.308 434.256 421.679C438.351 420.121 445.227 415.871 452.526 411.376C456.309 409.04 460.136 406.681 463.608 404.678C464.475 404.188 464.787 403.076 464.32 402.208C463.919 401.451 463.563 400.695 463.207 399.894C459.491 391.883 456.131 383.538 452.904 375.46C448.765 365.157 444.493 354.498 439.375 344.351C436.192 338.053 430.006 331.021 423.464 323.567C413.784 312.552 403.77 301.158 403.258 291.945C402.613 280.085 415.942 267.779 426.668 257.899C430.918 253.982 434.946 250.266 437.772 246.928C443.446 240.252 448.921 233.265 454.195 226.5C461.227 217.488 468.525 208.164 476.425 199.463L478.762 196.325C492.069 178.412 505.821 159.875 522.021 145.211C522.555 144.744 522.755 144.009 522.555 143.319C496.43 51.5713 390.53 29.5633 346.224 24.3339C317.118 20.9292 277.241 16.3006 242.749 24.7789C212.396 32.3004 187.473 52.7284 163.351 72.4888C159.234 75.8712 155.14 79.2314 151.046 82.4803C146.15 86.3968 141.098 90.3578 135.936 94.4078C89.6498 130.702 37.1777 171.825 25.3393 230.15C14.2351 284.936 40.9831 334.092 66.8853 381.624C75.9422 398.18 84.4428 413.779 91.4524 429.646ZM127.524 152.577C130.417 152.02 133.71 151.62 137.204 151.62C145.126 151.62 154.116 153.667 162.016 160.499C162.283 160.743 162.305 161.166 162.216 161.5C162.127 161.856 161.882 162.234 161.548 162.301C156.809 163.28 152.025 164.014 147.418 164.704C132.22 167.019 117.867 169.177 104.604 179.836C100.443 183.196 95.9031 187.202 93.7668 191.43C90.3399 198.128 89.9613 204.27 92.6762 208.72C95.1907 212.837 100.198 215.107 106.74 215.107C119.758 215.107 131.352 211.68 143.635 208.053L144.125 207.919C145.037 207.652 145.66 207.875 146.016 208.587C146.461 209.455 146.328 210.767 145.349 211.524C127.724 225.031 108.61 236.358 88.3374 227.702C81.439 224.764 76.5873 219.913 74.3398 213.66C71.7362 206.428 72.6487 197.861 76.9434 189.538C85.9558 172.025 107.252 156.493 127.524 152.577ZM115.307 277.593C119.224 261.86 138.005 246.372 151.49 243.568C151.891 243.501 152.247 243.702 152.403 243.924C152.559 244.124 152.514 244.28 152.403 244.458C149.688 248.998 146.305 253.226 143.012 257.32C141.81 258.811 140.631 260.302 139.452 261.815L138.851 262.594C134.2 268.58 126.411 278.572 129.327 285.359C130.684 288.519 134.045 290.388 139.363 290.922C146.595 291.634 154.761 286.894 161.371 283.089L163.908 281.643C169.538 278.483 174.789 274.677 179.885 270.983L182.933 268.78C183.534 268.358 183.979 268.358 184.469 268.758C185.159 269.337 185.648 270.627 185.225 271.54C179.039 284.736 163.329 300.802 146.394 304.607C137.36 306.61 129.349 304.785 122.562 299.178C115.619 293.392 113.171 286.138 115.307 277.593ZM201.092 478.223C197.398 484.832 192.681 491.175 187.696 497.895C175.435 514.384 162.772 531.43 165.576 553.126C166.845 562.917 171.74 569.86 179.373 572.664C188.808 576.136 201.381 572.775 210.616 564.364C219.139 556.575 226.171 545.471 232.379 535.68C233.425 534.011 234.471 532.364 235.494 530.807C236.607 529.115 238.565 529.004 239.9 529.649C240.457 529.917 242.215 530.918 241.525 533.254C235.583 553.905 227.239 574.311 206.677 583.768C192.302 590.399 172.408 590.667 160.347 576.358C150.667 564.853 148.82 546.984 155.274 527.38C163.351 502.879 182.378 481.962 200.558 477.6C200.825 477.534 200.958 477.689 201.047 477.778C201.203 477.979 201.114 478.179 201.092 478.223ZM370.546 306.276C362.98 316.735 351.008 322.476 335.921 322.832C310.82 323.455 285.585 306.121 277.218 282.577C270.698 264.241 276.329 246.505 292.618 233.888C302.654 226.1 315.248 221.961 327.843 221.961C333.562 221.961 339.281 222.806 344.778 224.564C360.444 229.549 371.637 240.764 376.31 256.163C381.829 274.499 379.626 293.704 370.546 306.276ZM367.253 1101.46C367.187 1100.83 367.231 1099.94 368.388 1099.52C369.545 1099.08 371.348 1099.36 372.127 1100.5C379.737 1111.47 383.097 1133.46 375.932 1148.72C373.083 1154.8 367.275 1162.23 355.771 1163.23C340.438 1164.57 329.735 1149.7 325.885 1143.25C319.477 1132.5 317.896 1122.04 320.389 1107.15C320.433 1107.13 320.5 1107.11 320.567 1107.11C320.722 1107.11 320.923 1107.15 320.99 1107.24C324.239 1120.42 336.455 1146.27 351.209 1149.26C354.769 1149.97 357.862 1149.17 360.399 1146.85C370.791 1137.39 367.654 1105.11 367.253 1101.46ZM340.839 1241.4C355.059 1237.73 353.768 1218.04 352.9 1205C352.722 1202.31 352.567 1199.88 352.567 1197.92C352.567 1196.92 353.256 1196.59 353.679 1196.48C354.257 1196.32 355.125 1196.39 355.615 1197.17C361.245 1206.11 367.142 1219.55 363.27 1232.88C360.332 1242.92 352.121 1251.11 342.842 1253.26C334.809 1255.16 326.62 1252.75 319.833 1246.48C310.865 1238.22 305.747 1224.71 307.393 1213.63C307.393 1213.63 307.46 1213.59 307.594 1213.59C307.705 1213.59 307.905 1213.61 308.172 1213.7C315.605 1227.27 327.109 1244.9 340.839 1241.4ZM356.483 1018.63C351.365 1030.69 338.525 1042.6 322.637 1040.19C309.196 1038.19 297.58 1027.87 291.527 1012.56C285.029 996.067 286.654 978.087 295.644 966.761C295.799 966.783 296.178 966.983 296.222 967.094C295.688 978.799 294.064 1014.43 318.475 1024.91C324.105 1027.31 329.624 1026.98 334.43 1023.95C340.706 1019.97 344.978 1011.73 345.312 1002.94C345.579 996.579 344.4 990.193 343.265 984.029C342.62 980.468 341.929 976.797 341.573 973.236C341.395 971.567 342.798 970.366 344.044 969.854C345.423 969.275 347.248 969.253 348.227 970.477C359.71 984.585 362.958 1003.48 356.483 1018.63ZM195.039 676.295C195.039 676.295 195.061 676.295 195.106 676.295C195.239 676.295 195.439 676.362 195.484 676.295C194.327 679.099 193.103 681.881 191.879 684.707C183.29 704.4 174.41 724.784 182.444 747.17C185.804 756.45 193.103 762.525 201.982 763.393C211.106 764.283 220.006 759.409 225.236 750.709C232.29 738.959 231.089 724.094 229.998 710.987L229.776 708.183C229.687 706.982 230.599 706.492 231.156 706.336C232.135 706.047 233.381 706.225 233.937 707.182C244.819 726.141 244.062 747.682 232.001 762.035C221.275 774.853 203.005 779.57 189.476 772.984C176.302 766.53 168.469 752.155 168.002 733.574C167.379 709.43 178.75 685.33 195.039 676.295ZM190.455 1081.36C193.615 1058.35 206.945 1037.68 222.9 1031.12C223.011 1031.07 223.122 1031.05 223.233 1031.05C223.478 1031.05 223.745 1031.16 224.012 1031.4C224.524 1031.87 224.814 1032.63 224.636 1033.16C222.611 1040.13 219.272 1047.05 216.068 1053.72C209.859 1066.63 203.428 1079.98 205.209 1095.34C206.076 1102.75 210.104 1108.82 216.291 1111.96C222.455 1115.1 229.709 1114.81 236.207 1111.16C240.457 1108.78 244.418 1105.6 248.312 1101.46C254.632 1094.83 263.221 1083.21 267.16 1073.4C267.805 1071.77 269.319 1071.24 270.498 1071.46C271.166 1071.59 272.323 1072.06 272.345 1073.93C272.79 1093.69 266.648 1107.09 251.828 1118.7C238.454 1129.18 218.872 1136.28 204.029 1124.73C192.836 1115.99 187.874 1100.17 190.455 1081.36ZM231.467 1253.4C231.734 1253.15 232.135 1253.02 232.58 1253.02C232.891 1253.02 233.225 1253.09 233.514 1253.24C234.271 1253.6 234.204 1254.13 234.182 1254.31C233.937 1256.47 233.536 1259.03 233.113 1261.9C230.399 1279.43 225.882 1308.79 246.287 1315.06C251.227 1316.6 255.833 1316.17 259.95 1313.81C272.189 1306.83 277.419 1284.73 281.246 1268.62C282.247 1264.37 283.115 1260.7 283.961 1258.12C284.362 1256.85 285.43 1256.51 286.298 1256.65C286.698 1256.71 288.011 1257.03 288.055 1258.65C288.122 1261.41 288.256 1264.17 288.367 1266.95C289.101 1283.6 289.858 1300.8 279.199 1314.79C269.586 1327.46 255.099 1333.13 242.304 1329.26C230.977 1325.81 222.944 1316.55 219.65 1303.2C215.289 1285.38 220.251 1264.46 231.467 1253.4ZM327.999 627.317C320.767 639.979 305.212 650.526 289.479 646.098C274.837 642.048 263.511 626.115 260.596 605.531C257.77 585.638 264.022 567.791 276.528 560.114C276.528 560.114 276.595 560.091 276.64 560.091C276.773 560.091 276.996 560.158 277.307 560.447C276.84 565.365 275.928 570.461 275.06 575.357C272.078 592.024 268.985 609.27 281.825 624.691C287.232 631.167 293.93 634.015 300.717 632.658C308.639 631.078 315.671 623.868 318.653 614.277C322.503 601.837 320.144 587.418 318.074 574.689L317.585 571.707C317.362 570.305 318.364 569.081 319.454 568.703C320.389 568.392 321.101 568.725 321.635 569.727C330.491 586.238 339.215 607.712 327.999 627.317ZM291.994 75.137C291.838 75.4707 291.46 76.0048 290.926 75.938C288.033 75.6043 284.718 75.0924 281.18 74.5138C265.558 72.0215 246.109 68.9284 234.605 77.5625C230.288 80.8114 228.507 84.2383 229.264 87.732C230.955 95.3647 244.574 101.729 272.167 107.737L272.79 107.871C273.413 108.004 273.747 108.405 273.769 109.095C273.791 109.807 273.413 110.652 272.634 110.897C258.437 115.214 230.287 113.634 218.516 101.351C212.997 95.5872 211.795 88.1325 214.955 79.1424C219.116 67.2594 229.152 62.4529 236.852 60.5169C240.924 59.4932 245.374 59.0037 249.959 59.0037C265.313 59.0037 282.181 64.4556 291.883 73.3567C292.283 73.7795 292.239 74.5584 291.994 75.137Z" fill="#FF94A4"/>
<path d="M740.836 318.562C743.373 315.535 745.353 312.198 746.733 308.615C747.022 307.858 746.799 306.99 746.154 306.479C720.096 286.095 692.703 274.301 664.731 271.431C625.233 267.336 587.759 281.311 551.487 294.84C536.111 300.582 520.2 306.501 504.556 310.862C491.271 314.556 465.636 320.253 443.406 316.893C442.649 316.782 441.914 317.138 441.514 317.783C441.135 318.428 441.18 319.252 441.625 319.853C450.393 331.513 457.247 345.488 462.788 357.593C465.013 362.467 467.149 367.407 469.285 372.324L472.312 379.29C473.046 380.981 473.736 382.672 474.381 384.319C477.808 392.886 481.035 401.008 491.561 403.3C493.363 403.701 495.187 403.857 497.057 403.857C503.265 403.857 509.719 401.987 515.994 400.14C519.599 399.095 523.003 398.093 526.23 397.492C534.575 395.935 543.432 394.822 552.578 394.177C572.672 392.664 593.233 393.709 613.105 394.711C623.23 395.223 633.689 395.734 643.97 395.935C644.526 395.913 645.015 395.734 645.371 395.334C651.001 389.237 658.034 384.986 665.466 380.491C667.758 379.112 670.05 377.732 672.297 376.285C685.626 367.763 698.355 358.328 710.149 348.292C720.72 339.257 731.757 329.443 740.836 318.562Z" fill="#FFCC99"/>
<path d="M488.802 212.415C468.953 238.139 448.414 264.754 425.137 287.852C424.714 288.275 424.537 288.853 424.604 289.432C424.67 290.011 425.026 290.522 425.538 290.812C436.976 297.243 449.415 299.757 462.255 299.757C488.914 299.757 517.241 288.898 541.564 279.596C546.771 277.593 551.822 275.658 556.674 273.9C607.788 255.296 650.914 245.683 695.375 259.302C711.909 264.375 728.22 272.186 743.864 282.534C744.509 282.956 745.332 282.934 745.978 282.489C746.601 282.044 746.89 281.265 746.712 280.509C745.577 276.014 744.108 271.452 742.706 267.046L741.638 263.663C732.381 233.756 718.919 204.916 701.628 177.968C696.265 169.601 690.145 161.79 684.204 154.224C680.554 149.573 676.794 144.767 673.278 139.916C672.21 138.402 670.986 136.622 670.029 134.887C669.539 133.996 668.404 133.663 667.514 134.13C658.435 139.026 648.6 143.921 638.03 146.636C623.721 150.263 611.081 147.682 597.708 144.923C589.118 143.165 580.239 141.34 570.737 141.206C546.259 140.761 529.302 161.59 516.908 176.744C507.339 188.404 497.904 200.599 488.802 212.415Z" fill="#FFCC99"/>
<path d="M700.09 147.348C703.673 151.532 707.077 155.471 709.525 159.053C718.938 172.806 727.438 187.225 734.782 201.957C747.755 227.97 763.021 261.839 765.803 293.26C765.981 294.84 766.025 296.509 765.936 298.2C765.913 298.778 766.136 299.312 766.581 299.691C775.571 307.39 784.161 315.869 792.127 324.836C792.238 324.948 792.35 325.059 792.483 325.148C793.284 325.682 793.908 326.416 794.353 327.307C794.419 327.44 794.508 327.596 794.619 327.707C796.266 329.576 797.869 331.468 799.449 333.426C812.199 348.936 824.638 366.761 837.456 387.945C844.198 399.049 850.719 410.509 856.749 421.213C857.439 422.459 858.129 423.772 858.819 425.085C862.357 431.828 866.007 438.793 872.148 439.816C872.638 439.906 873.15 439.95 873.661 439.95C877.044 439.95 880.649 438.103 884.632 434.365C913.561 407.105 917.076 355.323 919.658 317.515C919.902 313.799 920.148 310.216 920.415 306.767C923.775 261.883 927.936 206.007 899.987 160.611C871.37 114.103 814.447 107.204 768.05 106.403C738.231 105.914 713.375 110.676 691.878 121.023C689.72 122.047 687.584 123.137 685.47 124.272C684.557 124.762 684.223 125.875 684.691 126.787C688.452 133.796 694.371 140.695 700.09 147.348Z" fill="#705F61"/>
<path d="M681.959 394.442C682.026 394.442 682.092 394.442 682.159 394.442C684.14 394.242 686.098 393.997 688.078 393.752L688.568 393.686C711.199 390.503 730.648 383.405 746.38 372.59C760.711 362.643 769.256 349.113 776.8 337.164C777.245 336.452 777.178 335.539 776.6 334.916C772.194 330.087 767.342 325.169 762.202 320.318C761.779 319.94 761.223 319.74 760.644 319.829C760.088 319.918 759.576 320.251 759.309 320.741C750.853 335.65 735.899 348.001 722.704 358.905L715.538 364.868C705.769 373.057 693.642 383.227 681.002 390.971C680.268 391.416 679.934 392.328 680.201 393.152C680.445 393.953 681.158 394.442 681.959 394.442Z" fill="#705F61"/>
<path opacity="0.1" d="M893.936 261.194C845.914 282.424 796.358 260.193 746.801 263.353C702.829 266.157 666.134 300.203 627.281 317.939C553.224 351.741 466.282 327.174 394.406 366.851C322.129 406.728 282.897 509.936 316.654 586.619C353.193 669.599 450.416 669.266 522.982 700.508C559.922 716.419 592.989 742.9 610.146 780.129C627.214 817.18 616.889 853.785 590.586 883.359C562.725 914.669 527.878 926.819 486.821 928.444C447.056 930.023 402.439 925.239 367.791 949.139C338.262 969.522 330.852 1006.19 329.583 1039.86C328.159 1077.36 331.764 1115.3 333.211 1152.75C338.44 1288.09 348.209 1432.71 289.328 1553.86C307.931 1554.04 326.557 1553.61 345.16 1552.54C369.26 1551.16 411.518 1554.81 428.831 1533.81C445.543 1513.56 439.49 1474.93 440.113 1450.83C441.114 1413 441.448 1375.19 441.782 1337.4C442.45 1261.14 437.242 1184.42 439.913 1108.22C440.358 1096.16 441.136 1084.06 442.894 1072.11C444.007 1064.52 444.274 1052.37 448.369 1045.96C459.028 1029.16 502.509 1034.41 519.6 1033.7C561.056 1031.87 602.603 1030.49 643.948 1026.51C662.596 1024.69 681.221 1022.37 699.736 1019.32C715.112 1016.76 735.029 1015.56 748.047 1005.88C758.817 997.872 760.664 985.989 761.22 973.438C762.066 954.635 762.111 935.787 762.444 916.983C765.048 915.381 767.473 913.623 769.676 911.732C808.93 878.33 808.173 819.004 784.43 777.08C756.013 726.945 701.761 693.877 647.62 678.256C587.182 660.787 520.823 665.994 461.653 644.921C444.741 638.891 428.252 628.832 422.355 610.874C416.436 592.85 418.661 570.686 418.439 551.994C418.06 516.5 419.329 481.118 419.819 445.714C440.669 442.109 463.679 433.987 476.875 419.278C482.571 422.749 489.425 424.352 497.725 423.595C508.073 422.66 518.02 418.566 528.212 416.675C542.988 413.871 558.052 413.203 573.051 413.203C623.209 413.203 675.947 422.994 724.57 405.86C748.803 397.337 778.221 379.312 790.749 354.589C793.642 358.306 796.446 362.066 799.117 365.827C815.25 388.502 828.98 412.736 842.51 436.991C851.455 452.969 862.181 471.594 883.388 461.492C901.858 452.657 914.519 428.869 921.885 410.8C930.897 388.792 934.881 365.293 937.574 341.749C942.158 301.116 947.008 256.9 940.377 215.487C929.139 235.203 913.83 252.405 893.936 261.194Z" fill="#592639"/>
<path opacity="0.15" d="M89.536 481.514C97.8363 509.041 101.82 536.79 104.89 564.784C104.112 627.092 108.095 689.755 110.142 751.841C112.746 829.814 115.238 907.832 117.73 985.806C122.648 1139.35 127.677 1292.87 132.973 1446.37C133.641 1465.4 133.53 1484.65 135.021 1503.61C135.911 1514.93 138.292 1526.82 147.059 1534.8C156.005 1543.04 168.667 1544.22 180.127 1545.8C185.512 1546.53 190.92 1547.2 196.327 1547.84C257.545 1412.12 245.817 1253.86 238.919 1104.55C235.181 1023.64 235.002 943.704 244.371 863.171C254.14 779.211 267.536 695.163 266.601 610.402C265.689 527.466 248.933 447.044 199.687 378.84C178.681 349.755 152.622 321.116 145.057 284.955C137.758 250.041 151.087 214.392 173.785 187.844C216.978 137.353 299.379 115.723 362.6 135.039C433.297 156.646 480.45 241.251 561.851 218.642C600.17 208.005 634.773 186.376 674.561 180.701C714.104 175.071 749.976 194.943 788.785 197.613C846.708 201.597 862.219 154.376 866.269 105.353C856.611 100.636 846.152 97.0086 834.87 94.6275C784.823 84.0797 729.214 81.8545 682.194 104.53C668.708 111.006 656.203 119.462 642.228 124.891C624.381 131.812 609.761 128.763 591.625 124.958C572.287 120.908 555.464 122.021 539.576 130.321C519.437 71.5959 465.919 33.1654 407.528 16.142C371.657 5.68325 333.671 1.98929 296.442 0.832151C259.836 -0.324993 225.612 4.85988 194.302 24.8206C163.504 44.4475 135.288 69.3929 107.16 92.6026C79.9671 115.011 53.0862 138.332 32.5024 167.194C-10.4009 227.254 0.814057 295.192 31.7676 357.9C51.8841 398.912 76.1621 437.409 89.536 481.514Z" fill="#FFFCFC"/>
<path opacity="0.3" d="M321.772 434.899C377.582 459.199 360.225 534.057 367.012 581.99C371.841 616.215 400.147 685.109 446.677 667.507C453.665 664.859 456.246 656.915 450.994 651.129C442.449 641.672 430.899 637.355 421.754 628.743C413.32 620.799 407.913 610.384 404.352 599.48C396.564 575.692 396.942 550.257 394.761 525.535C397.81 523.154 400.058 519.482 400.414 514.408C401.971 493.068 404.196 471.883 407.957 450.81C408.513 447.205 407.846 444.001 406.444 441.308C417.926 437.191 429.186 431.761 437.108 424.596C439.934 422.015 442.182 419.033 444.051 415.828C445.119 416.429 446.209 416.874 447.278 417.141C451.15 418.12 455.066 417.987 458.582 415.895C460.918 414.493 462.766 412.313 463.834 409.82C463.5 410.866 464.835 408.24 465.169 406.972C465.837 404.546 465.814 401.653 465.169 399.228C464.324 396.046 462.499 393.019 461.297 389.948C460.34 387.567 459.494 385.097 458.493 382.739C464.279 370.21 455.689 354.455 441.826 355.256C443.361 347.735 444.029 340.147 443.828 332.648C484.061 355.101 537.424 330.445 576.722 317.716C619.759 303.764 687.074 303.986 703.318 357.749C703.563 358.572 703.763 359.395 703.963 360.197C699.713 362.511 695.351 364.603 690.723 365.916C667.38 372.502 643.592 370.143 619.715 368.942C573.607 366.628 525.318 371.212 484.551 394.644C475.895 399.629 481.703 413.136 491.293 410.643C517.552 403.856 543.521 398.36 570.825 399.762C597.862 401.164 624.366 407.884 651.469 409.153C668.226 409.931 705.477 407.061 729.799 394.777C733.359 395.445 737.031 395.578 740.658 395.156C760.53 392.886 772.925 376.419 773.726 357.927C785.698 356.992 793.864 340.369 780.49 330.222C772.858 324.436 765.136 318.784 757.259 313.377C749.982 303.474 740.77 294.417 730.489 287.296C741.704 292.17 752.296 298.757 762.065 307.569C773.325 317.761 783.25 329.198 792.819 340.948C797.581 347.401 803.188 354.455 809.375 361.599C813.669 366.961 818.009 372.28 822.504 377.442C825.508 380.936 828.69 384.675 832.028 388.48C831.872 410.911 849.897 431.316 869.658 440.329C883.031 446.426 896.383 444.579 906.174 433.186C912.872 425.397 916.811 414.048 915.81 403.545C918.992 399.673 921.929 394.844 924.511 388.88C938.24 357.103 939.598 313.889 939.086 279.775C938.508 241.5 932.966 200.155 917.389 164.951C916.077 161.991 913.295 160.789 910.425 160.878C906.998 153.669 903.148 146.614 898.72 139.716C893.045 130.837 881.028 138.537 884.945 147.772C904.594 193.857 906.263 244.282 900.766 293.438C898.675 312.131 895.092 344.308 873.173 350.895C863.137 353.899 855.282 348.202 847.961 342.105C844.334 338.1 840.707 334.072 837.035 330.111C814.204 305.455 790.749 282.223 759.506 268.515C724.414 253.116 686.984 247.887 649.488 249.534C618.646 259.258 587.292 267.469 556.606 277.683C557.874 280.198 560.344 282 563.949 281.778C570.603 281.355 577.39 280.799 584.31 280.153C576.611 282.201 569.001 284.604 561.479 287.341C543.076 294.017 525.007 301.961 506.203 307.48C485.085 313.688 465.837 313.221 444.252 310.217C435.617 309.015 430.21 316.492 432.724 323.079C430.076 324.125 427.896 326.528 427.54 330.289C425.337 353.61 415.256 377.242 397.965 393.353C379.985 410.109 359.869 413.247 336.949 417.987C334.123 418.566 332.12 419.856 330.74 421.481C329.761 421.169 328.804 420.857 327.78 420.59C319.547 418.343 313.405 431.25 321.772 434.899Z" fill="#592642"/>
<path opacity="0.3" d="M468.84 108.828C474.826 136.377 465.457 161.745 461.162 188.716C459.449 199.508 471.309 213.995 482.68 205.249C504.043 188.849 518.974 166.841 522.179 139.67C525.205 113.991 518.663 84.9954 495.587 70.6424C491.204 67.9276 486.197 68.9512 482.725 71.8663C474.047 56.5787 461.874 42.9378 446.497 36.3732C439.888 33.5471 430.32 39.9336 435.416 47.455C449.101 67.705 463.454 84.0386 468.84 108.828Z" fill="#592642"/>
<path opacity="0.3" d="M320.772 1535.9C321.929 1538.28 323.91 1540.19 326.647 1540.59C346.274 1543.4 366.88 1541.06 386.462 1538.48C405.822 1535.92 420.108 1523.99 426.384 1505.46C432.214 1488.23 429.922 1468.43 430.211 1450.58C430.523 1431.24 435.819 1404.58 423.624 1387.74C423.624 1380.77 423.602 1373.83 423.491 1366.87C423.446 1363.48 423.291 1360.12 423.224 1356.74C424.826 1336.07 426.184 1315.37 426.606 1294.61C427.252 1262.39 426.673 1230.17 425.36 1197.97C424.515 1177.29 425.36 1152.08 420.487 1130.07C423.669 1103.06 428.742 1075.98 428.765 1049.1C462.567 1024.26 521.559 1032.43 562.126 1030.16C596.128 1028.25 633.446 1027.18 665.801 1015.45C676.505 1011.58 686.964 1006.44 695.932 999.362C697.534 999.74 699.203 999.695 700.827 999.317C708.883 1006.91 722.746 1008.33 729.288 995.757C738.39 978.288 743.174 960.419 743.864 940.726C744.175 931.958 737.745 925.638 730.201 922.768C723.28 920.142 716.204 920.275 709.684 922.501C708.638 921.61 707.525 920.765 706.346 920.053C706.123 919.919 705.901 919.786 705.678 919.63C705.5 919.43 705.278 919.207 705.078 919.029C703.364 916.448 700.716 914.957 697.711 914.935C697.467 914.178 697.245 913.422 697 912.665C694.93 906.078 689.634 902.584 683.003 902.006C670.831 900.96 666.424 907.858 658.324 915.513C649.045 924.303 637.874 930.712 625.569 934.161C598.665 941.705 572.74 934.428 548.485 922.278C547.973 922.011 547.417 921.833 546.883 921.7C544.39 917.271 538.382 914.69 533.62 916.225C524.941 919.029 523.028 923.279 516.797 929.555C509.787 936.609 500.508 941.126 490.761 942.951C470.133 946.823 447.146 937.499 429.855 926.862C421.933 921.989 413.633 933.071 420.042 939.591C440.514 960.486 466.127 973.993 496.324 970.077C512.346 968.007 535.711 958.372 544.724 942.884C584.067 984.185 651.671 975.507 691.036 936.431C691.192 936.72 691.392 936.987 691.57 937.254C686.452 946.089 684.916 956.681 678.463 964.892C662.063 985.788 626.48 987.768 602.381 990.283C565.018 994.177 527.745 995.579 490.205 994.399C460.809 993.465 431.012 989.348 403.775 1003.21C338.174 1036.59 348.611 1121.22 353.907 1181.5C360.048 1251.37 363.653 1322.49 354.663 1392.3C350.435 1425.03 341.512 1465.38 319.571 1491.13C303.437 1510.06 279.026 1524.28 253.902 1526.71C245.825 1532.29 235.922 1538.3 225.508 1542.73C258.42 1555.61 291.732 1551.34 320.772 1535.9Z" fill="#592642"/>
<path opacity="0.5" d="M432.791 293.837C488.578 283.957 514.748 228.192 548.706 190.318C567.109 169.778 601.266 185.11 625.299 183.508C649.555 181.884 676.526 170.846 674.1 142.496C673.455 134.908 666.623 127.81 658.367 130.524C636.137 137.823 617.222 140.16 593.812 137.712C566.708 134.864 540.027 137.022 519.977 157.584C501.796 176.209 490.159 201.31 475.917 222.829C460.919 245.46 445.586 262.372 424.29 279.217C416.68 285.226 425.247 295.173 432.791 293.837Z" fill="#FFF7F7"/>
<path opacity="0.5" d="M687.966 149.061C715.983 142.296 744.355 135.754 773.306 134.864C804.949 133.885 832.031 144.566 862.339 151.308C872.086 153.489 884.414 141.962 876.959 132.282C852.37 100.35 807.931 93.7406 769.835 96.767C748.828 98.4359 727.243 102.798 707.482 110.119C693.775 115.215 678.865 121.067 675.728 136.822C674.237 144.299 680.267 150.908 687.966 149.061Z" fill="#FFF7F7"/>
<path opacity="0.5" d="M43.3194 345.933C36.3765 346.355 30.9023 354.389 37.1776 361.087C61.4109 386.944 80.704 418.966 95.3018 452.924C110.656 513.985 115.73 576.36 117.399 640.426C118.601 686.266 117.577 732.152 118.311 777.992C118.979 820.428 118.356 863.821 131.374 904.321C129.749 1024.11 129.059 1143.85 130.127 1263.68C130.906 1350.82 136.915 1437.96 159.101 1522.57C163.84 1540.62 192.101 1532.92 187.094 1514.85C143.123 1355.72 160.791 1190.27 165.286 1027.71C167.601 943.575 168.847 859.415 170.427 775.277C171.918 696.614 175.256 616.482 159.501 538.909C152.047 502.258 140.141 466.409 123.252 433.008C118.979 424.552 114.216 416.607 109.076 409.064C96.3029 380.38 81.9724 352.23 71.4246 322.456C61.1661 293.572 54.112 261.55 60.2982 230.953C66.1062 202.224 83.8196 179.059 103.291 157.963C139.741 118.465 185.448 87.4222 235.561 67.9066C286.097 48.2129 341.395 41.3144 395.158 37.4202C406.707 36.5968 410.69 18.9504 398.051 16.102C367.943 9.31495 340.461 7.69054 309.885 12.1634C295.443 14.2774 281.157 17.237 267.093 20.9532C241.258 -1.5666 198.399 35.8625 178.349 51.3282C176.146 53.0416 174.967 55.6675 174.699 58.3823C138.205 78.6546 104.826 104.446 76.7209 135.444C55.6253 158.698 36.1314 184.667 28.1204 215.531C20.3987 245.417 22.7574 277.082 30.1231 306.768C33.4833 320.342 38.0455 333.315 43.3194 345.933Z" fill="#FFF7F7"/>
<path opacity="0.5" d="M407.536 851.671C402.908 852.873 398.902 857.323 400.549 862.775C408.961 890.547 421.911 930.357 456.826 931.603C471.246 941.394 488.024 945.934 503.579 936.677C511.768 931.803 511.456 920.165 503.579 915.225C494.744 909.684 484.976 907.792 476.074 902.652C465.349 896.421 456.403 885.762 449.571 875.615C434.395 853.051 425.939 824.879 423.803 797.819C422.846 785.825 407.002 786.292 405.511 797.819C403.13 815.866 403.798 834.091 407.536 851.671Z" fill="#FFF7F7"/>
<path opacity="0.5" d="M573.182 884.805C555.647 874.724 541.939 857.456 529.745 841.701C523.603 833.779 513.745 843.904 517.016 851.515C527.964 877.039 539.38 902.162 564.503 916.693C588.803 930.757 615.062 926.751 637.826 912.354C646.727 906.724 642.632 894.151 632.685 893.35C612.658 891.77 591.318 895.219 573.182 884.805Z" fill="#FFF7F7"/>
<path opacity="0.5" d="M747.583 912.487C754.148 906.702 751.232 893.172 742.109 891.725C722.304 888.61 704.346 890.524 688.546 875.436C681.826 869.005 668.385 875.325 671.945 885.094C682.159 913.199 721.569 935.452 747.583 912.487Z" fill="#FFF7F7"/>
<path opacity="0.5" d="M770.608 769.468C754.563 721.269 702.893 700.596 657.586 689.982C604.692 677.587 550.461 673.114 497.922 659.295C490.201 657.27 482.902 667.796 489.645 673.492C525.917 704.09 577.409 707.049 622.071 716.329C672.629 726.832 716.845 741.742 753.34 779.527C760.305 786.737 773.901 779.371 770.608 769.468Z" fill="#FFF7F7"/>
<path d="M89.5429 481.518C97.8432 509.045 101.827 536.794 104.897 564.788C104.119 627.096 108.102 689.759 110.149 751.845C112.752 829.818 115.245 907.836 117.737 985.81C122.655 1139.35 127.684 1292.88 132.98 1446.38C133.648 1465.4 133.537 1484.65 135.028 1503.61C135.918 1514.94 138.299 1526.82 147.066 1534.81C156.012 1543.04 168.674 1544.22 180.134 1545.8C198.27 1548.25 216.472 1550.27 234.72 1551.61C271.437 1554.32 308.332 1554.66 345.138 1552.57C369.238 1551.19 411.496 1554.84 428.809 1533.83C445.52 1513.58 439.467 1474.95 440.09 1450.85C441.092 1413.02 441.426 1375.21 441.76 1337.43C442.427 1261.17 437.22 1184.44 439.89 1108.24C440.335 1096.18 441.114 1084.08 442.872 1072.13C443.985 1064.54 444.252 1052.39 448.346 1045.98C459.005 1029.18 502.488 1034.43 519.578 1033.72C561.035 1031.9 602.58 1030.52 643.926 1026.53C662.574 1024.71 681.2 1022.39 699.714 1019.35C715.091 1016.79 735.007 1015.58 748.025 1005.9C758.795 997.893 760.642 986.01 761.198 973.46C762.044 954.656 762.088 935.808 762.422 917.005C765.026 915.403 767.451 913.645 769.654 911.753C808.908 878.352 808.152 819.026 784.408 777.102C755.991 726.966 701.739 693.898 647.598 678.277C587.159 660.809 520.802 666.016 461.632 644.942C444.719 638.912 428.23 628.854 422.333 610.896C416.413 592.871 418.639 570.707 418.416 552.015C418.038 516.522 419.307 481.14 419.796 445.736C440.647 442.131 463.656 434.008 476.852 419.299C482.549 422.771 489.403 424.373 497.703 423.616C508.051 422.682 517.998 418.587 528.19 416.696C542.965 413.892 558.03 413.224 573.028 413.224C623.186 413.224 675.926 423.016 724.548 405.881C748.781 397.358 778.199 379.333 790.728 354.611C793.621 358.327 796.424 362.087 799.094 365.848C815.227 388.524 828.958 412.757 842.487 437.013C851.433 452.99 862.159 471.616 883.366 461.513C901.836 452.679 914.497 428.89 921.863 410.821C930.875 388.813 934.859 365.314 937.551 341.771C943.47 289.365 949.924 230.974 931.432 180.371C915.009 135.465 881.875 104.49 834.788 94.5426C784.741 83.9948 729.132 81.7695 682.112 104.445C668.626 110.921 656.121 119.377 642.146 124.806C624.299 131.727 609.679 128.678 591.543 124.873C572.205 120.823 555.382 121.936 539.494 130.236C519.355 71.511 465.837 33.0804 407.446 16.0571C371.575 5.59829 333.589 1.90433 296.36 0.74719C259.754 -0.409953 225.53 4.77492 194.22 24.7356C163.422 44.3626 135.205 69.308 107.078 92.5176C79.8851 114.926 53.0042 138.247 32.4204 167.109C-10.4829 227.169 0.732026 295.107 31.6856 357.815C51.8911 398.916 76.169 437.413 89.5429 481.518ZM643.992 394.043C613.506 393.486 582.887 390.015 552.422 392.285C543.521 392.908 534.665 393.998 525.875 395.645C515.261 397.625 502.643 403.767 491.94 401.453C480.48 398.96 478.543 388.858 473.982 378.51C470.822 371.278 467.728 363.979 464.457 356.791C458.872 344.575 452.018 330.578 443.072 318.695C463.745 321.832 487.734 317.426 505.002 312.62C557.207 298.089 608.633 267.447 664.51 273.255C694.551 276.348 721.522 289.566 744.976 307.924C743.752 311.129 741.95 314.289 739.39 317.337C730.423 328.108 719.585 337.743 708.926 346.8C697.043 356.925 684.426 366.227 671.275 374.66C661.773 380.78 651.603 385.809 643.992 394.043ZM745.287 371.055C728.264 382.738 708.615 388.969 688.276 391.839C686.162 392.106 684.07 392.351 681.956 392.574C696.487 383.673 710.106 371.79 720.765 362.933C734.584 351.473 751.607 338.099 760.909 321.676C765.871 326.327 770.655 331.178 775.217 336.163C766.917 349.27 758.883 361.642 745.287 371.055ZM692.748 122.715C716.247 111.388 742.172 107.827 768.074 108.273C816.897 109.14 870.771 116.64 898.453 161.59C925.157 204.983 922.242 257.811 918.592 306.634C915.655 345.888 914.542 403.678 883.41 433.029C869.547 446.07 864.451 431.138 858.42 420.323C852.123 409.152 845.759 397.981 839.083 386.988C827.534 367.918 815.072 349.448 800.919 332.247C799.317 330.266 797.715 328.375 796.046 326.483C795.445 325.281 794.599 324.325 793.553 323.613C785.587 314.645 776.975 306.144 767.829 298.289C767.896 296.575 767.874 294.817 767.674 293.082C764.914 261.883 750.316 228.883 736.475 201.133C729.02 186.202 720.498 171.76 711.085 158.007C704.676 148.706 692.348 137.179 686.429 125.897C688.498 124.806 690.634 123.716 692.748 122.715ZM570.67 143.054C594.503 143.343 614.241 154.558 638.452 148.417C649.022 145.702 658.746 140.94 668.359 135.755C669.294 137.468 670.451 139.182 671.719 140.962C681.021 153.779 691.413 165.529 700.025 178.947C717.048 205.473 730.534 234.09 739.835 264.198C741.593 269.738 743.485 275.369 744.909 280.954C729.755 270.94 713.399 262.863 695.931 257.5C648.265 242.902 601.379 255.63 556.072 272.142C517.152 286.295 465.815 311.284 426.472 289.187C460.541 255.363 488.067 214.975 518.353 177.924C531.638 161.59 547.727 142.72 570.67 143.054ZM27.2355 230.551C40.2756 166.352 104.386 122.225 152.296 83.9726C179.889 61.9646 208.128 35.328 243.265 26.6272C276.065 18.5494 312.871 22.3546 346.072 26.2266C418.616 34.7494 498.971 67.1049 520.846 143.855C503.578 159.498 489.158 179.348 475.005 198.374C461.342 213.417 449.682 230.129 436.419 245.75C426.316 257.655 400.481 274.545 401.46 292.08C402.35 308.392 429.988 329.843 437.776 345.22C446.855 363.2 453.086 382.427 461.564 400.696C461.943 401.519 462.321 402.298 462.721 403.077C452.708 408.841 439.668 417.63 433.638 419.945C421.354 424.595 408.358 427.31 395.251 428.245C368.548 430.181 343.424 423.483 318.457 414.827C316.031 413.981 314.318 417.319 315.987 419.032C337.216 440.261 367.814 448.717 397.277 448.005C396.231 472.728 396.186 497.607 396.119 522.307C396.075 550.19 393.916 579.875 398.767 607.402C407.401 656.403 458.049 669.843 500.44 676.519C556.05 685.309 613.84 687.356 666.668 708.43C716.047 728.123 771.545 770.515 778.399 827.104C781.715 854.764 771.924 887.052 746.289 901.316C746.177 901.361 746.022 901.428 745.91 901.494C745.732 901.561 745.576 901.65 745.398 901.761C722.678 913.911 700.114 907.391 679.419 895.798C682.623 889.99 685.116 883.692 686.763 876.95C687.875 872.254 681.845 868.16 678.307 872.032C653.473 899.291 624.121 926.373 584.088 919.475C564.995 916.204 547.638 905.923 537.09 889.5C526.899 873.634 525.92 856.766 522.337 838.853C521.825 836.183 518.287 836.249 516.929 838.185C502.109 859.748 508.629 884.204 523.716 903.764C504.423 942.573 454.889 944.353 428.385 908.504C415.279 890.769 410.85 868.249 411.229 846.619C411.562 827.148 420.397 805.14 416.058 786.003C415.546 783.688 412.453 783.021 410.85 784.623C391.224 804.406 390.066 845.017 393.493 870.786C397.143 898.335 410.85 924.482 433.86 940.726C453.865 954.879 479.478 959.574 502.376 949.85C518.732 942.929 530.904 931.536 535.488 916.515C547.705 927.641 562.347 935.83 575.743 938.857C610.08 946.534 648.911 934.54 671.008 908.104C684.626 929.6 714.311 933.494 739.746 926.729C739.479 937.677 739.234 948.626 738.967 959.619C738.789 968.03 740.058 976.42 735.585 983.83C730.378 992.508 720.832 992.619 711.196 994.511C676.148 1001.36 640.588 1004.9 604.984 1007.24C570.603 1009.51 536.178 1010.6 501.798 1012.22C478.944 1013.34 442.583 1008.09 429.921 1032.45C416.859 1057.66 417.704 1094.98 417.482 1122.58C417.193 1157.62 418.862 1192.67 419.418 1227.68C420.486 1298.46 420.152 1369.14 418.484 1439.9C418.083 1456.95 417.616 1474.06 417.037 1491.1C416.77 1497.78 417.527 1506.21 415.212 1512.49C410.895 1524.15 402.595 1525.37 391.313 1526.8C357.199 1531.18 322.463 1532.43 288.127 1532.09C253.012 1531.76 217.786 1529.38 183.005 1524.46C172.88 1523.06 162.399 1523.28 157.948 1511.24C155.745 1505.37 156.569 1497.13 156.346 1490.99C155.678 1471.19 155.033 1451.36 154.365 1431.56C149.67 1289.18 144.707 1146.79 139.701 1004.41C136.83 923.947 134.004 843.459 131.2 762.993C129.042 699.862 128.819 636.019 124.123 572.821C126.438 523.709 112.352 472.305 93.17 428.935C65.5543 366.493 12.5041 303.251 27.2355 230.551Z" fill="#3D2938"/>
<path d="M335.949 324.703C375.982 323.724 387.553 286.985 378.073 255.63C366.836 218.624 320.417 209.945 291.466 232.421C247.517 266.423 288.283 325.86 335.949 324.703Z" fill="#3D2938"/>
<path d="M158.928 577.563C170.877 591.76 191.283 592.895 207.438 585.462C228.668 575.716 237.235 554.82 243.31 533.769C244.979 528.028 237.057 525.024 233.919 529.786C226.843 540.779 219.099 554.108 209.352 563.009C194.754 576.339 170.521 576.895 167.428 552.907C163.623 523.377 189.814 502.304 202.721 479.139C203.7 477.358 202.053 475.311 200.117 475.778C164.98 484.19 133.292 547.099 158.928 577.563Z" fill="#3D2938"/>
<path d="M283.254 623.513C267.232 604.264 277.112 582.1 279.159 560.627C279.315 558.802 277.001 557.645 275.555 558.535C246.203 576.604 255.928 638.756 288.996 647.902C305.262 652.441 321.685 642.138 329.629 628.23C340.866 608.559 333.122 587.196 323.287 568.838C320.95 564.409 315.053 567.681 315.765 571.998C317.857 585.038 320.906 600.704 316.878 613.699C311.982 629.543 295.626 638.378 283.254 623.513Z" fill="#3D2938"/>
<path d="M233.433 763.237C247.252 746.77 245.717 723.983 235.547 706.27C233.611 702.91 227.58 704.179 227.914 708.362C228.96 721.625 230.896 737.713 223.642 749.774C213.472 766.731 191.019 765.463 184.21 746.57C175.309 721.736 187.926 699.283 197.206 677.052C197.94 675.272 195.559 673.892 194.157 674.716C163.537 691.695 152.811 757.118 188.682 774.697C203.992 782.108 222.863 775.899 233.433 763.237Z" fill="#3D2938"/>
<path d="M319.192 1023.2C298.363 1014.25 297.228 986.077 298.074 967.185C298.14 965.36 295.425 964.025 294.201 965.583C274.997 989.749 290.152 1037.24 322.352 1042.04C338.173 1044.42 352.214 1033.41 358.178 1019.37C365.366 1002.57 360.938 983.14 349.655 969.321C346.607 965.56 339.197 968.542 339.709 973.46C340.71 983.185 343.848 993.043 343.425 1002.88C342.957 1015.63 333.055 1029.11 319.192 1023.2Z" fill="#3D2938"/>
<path d="M252.988 1120.17C268.809 1107.78 274.662 1093.47 274.217 1073.89C274.106 1068.52 267.251 1068.15 265.427 1072.71C261.822 1081.72 253.655 1093.16 246.957 1100.19C243.53 1103.84 239.702 1107.09 235.296 1109.54C222.813 1116.57 208.705 1109.36 207.08 1095.12C204.432 1072.35 220.499 1054.1 226.44 1033.68C227.152 1031.34 224.682 1028.36 222.19 1029.38C190.947 1042.27 173.768 1103.44 202.897 1126.2C218.585 1138.42 238.879 1131.23 252.988 1120.17Z" fill="#3D2938"/>
<path d="M351.593 1147.43C337.551 1144.61 325.779 1118.86 322.797 1106.8C322.308 1104.82 318.97 1104.64 318.592 1106.8C316.277 1120.42 317.034 1132.01 324.289 1144.18C330.876 1155.24 342.046 1166.26 355.932 1165.08C386.107 1162.48 386.685 1118.19 373.667 1099.43C371.442 1096.23 364.878 1096.9 365.412 1101.66C366.391 1110.67 368.883 1150.93 351.593 1147.43Z" fill="#3D2938"/>
<path d="M282.186 1257.52C277.423 1272.34 271.682 1320.94 246.848 1313.26C224.884 1306.47 234.297 1269.91 236.055 1254.49C236.389 1251.4 232.139 1250.13 230.181 1252.07C209.931 1272.07 210.153 1321.34 241.797 1330.97C256.795 1335.51 271.615 1327.81 280.717 1315.84C293.557 1298.97 290.486 1278.35 289.952 1258.54C289.818 1254.05 283.521 1253.27 282.186 1257.52Z" fill="#3D2938"/>
<path d="M350.701 1197.93C350.701 1209.05 355.887 1235.6 340.376 1239.6C326.936 1243.03 314.986 1222.29 309.756 1212.83C308.866 1211.19 305.817 1211.34 305.506 1213.39C302.524 1233.4 320.371 1260.46 343.224 1255.09C353.661 1252.67 362.028 1243.59 365.01 1233.42C368.771 1220.49 364.075 1207.16 357.155 1196.17C355.397 1193.32 350.701 1194.39 350.701 1197.93Z" fill="#3D2938"/>
<path d="M146.49 212.973C149.628 210.592 148.026 204.851 143.62 206.12C131.359 209.725 119.676 213.241 106.747 213.241C94.0856 213.241 89.2344 204.384 95.4207 192.278C97.5124 188.184 102.274 184.112 105.768 181.286C122.68 167.689 141.929 168.245 161.934 164.129C164.048 163.684 164.916 160.546 163.247 159.1C135.765 135.334 89.4347 161.258 75.2819 188.673C67.1597 204.428 70.3638 222.075 87.6097 229.418C109.284 238.631 129.69 225.858 146.49 212.973Z" fill="#3D2938"/>
<path d="M139.545 289.053C121.342 287.228 135.561 269.871 140.924 262.95C145.397 257.187 150.226 251.713 153.986 245.415C155.166 243.435 153.208 241.321 151.116 241.721C129.108 246.305 97.1084 280.441 121.364 300.602C144.418 319.739 176.929 293.637 186.898 272.341C188.278 269.359 185.141 264.886 181.825 267.267C175.639 271.696 169.608 276.28 162.976 279.996C156.501 283.668 147.088 289.809 139.545 289.053Z" fill="#3D2938"/>
<path d="M273.173 112.702C276.267 111.767 276.645 106.827 273.173 106.07C263.449 103.956 215.939 94.0093 235.699 79.0777C249.184 68.9527 275.577 76.0959 290.708 77.8093C293.646 78.0986 295.137 73.8705 293.089 72.0013C274.063 54.5774 223.972 47.6791 213.18 78.5437C201.141 112.835 251.833 119.177 273.173 112.702Z" fill="#3D2938"/>
</g>
<defs>
<filter id="filter0_d_403_14037" x="0.21875" y="0.594727" width="947.426" height="1561.33" filterUnits="userSpaceOnUse" color-interpolation-filters="sRGB">
<feFlood flood-opacity="0" result="BackgroundImageFix"/>
<feColorMatrix in="SourceAlpha" type="matrix" values="0 0 0 0 0 0 0 0 0 0 0 0 0 0 0 0 0 0 127 0" result="hardAlpha"/>
<feOffset dy="4"/>
<feGaussianBlur stdDeviation="2"/>
<feComposite in2="hardAlpha" operator="out"/>
<feColorMatrix type="matrix" values="0 0 0 0 0 0 0 0 0 0 0 0 0 0 0 0 0 0 0.25 0"/>
<feBlend mode="normal" in2="BackgroundImageFix" result="effect1_dropShadow_403_14037"/>
<feBlend mode="normal" in="SourceGraphic" in2="effect1_dropShadow_403_14037" result="shape"/>
</filter>
</defs>
</svg>
