<svg width="1223" height="1616" viewBox="0 0 1223 1616" fill="none" xmlns="http://www.w3.org/2000/svg">
<g filter="url(#filter0_d_403_14069)">
<path d="M336.398 958.838C336.353 958.104 335.864 957.436 335.174 957.213C334.462 956.969 333.683 957.191 333.215 957.77C329.833 961.798 326.228 965.469 322.49 968.652C312.409 977.263 300.304 984.429 284.415 991.194C282.59 991.972 280.677 992.729 278.741 993.508C264.432 999.227 248.21 1005.72 246.43 1023.86C244.761 1041.35 256.755 1048.61 268.371 1055.64C270.997 1057.22 273.689 1058.86 276.204 1060.6C286.062 1067.39 290.78 1076.31 294.83 1087.66C300.126 1102.48 309.182 1119.3 332.681 1119.3C333.46 1119.3 334.261 1119.28 335.085 1119.24C346.411 1118.68 355.513 1113.7 364.325 1108.84C366.328 1107.75 368.308 1106.64 370.355 1105.59C371.223 1105.15 371.579 1104.08 371.156 1103.21C355.735 1070.77 345.232 1034.99 339.958 996.868C338.267 984.384 337.065 971.589 336.398 958.838Z" fill="#AB5035"/>
<path d="M395.389 706.246C396.924 688.688 397.169 669.974 388.535 652.06C379.5 633.234 361.809 618.503 341.159 612.673C320.041 606.687 292.203 609.913 280.987 631.098C275.246 641.98 275.224 654.597 275.224 666.814C275.224 675.136 275.201 683.748 273.332 691.514C270.573 702.841 264.387 712.922 258.401 722.668C253.638 730.412 248.721 738.445 245.405 747.191C240.042 761.388 233.277 788.358 248.32 809.565C258.556 823.985 272.442 831.195 289.488 831.195C306.645 831.195 326.984 823.896 350.082 809.298C350.46 809.053 350.75 808.675 350.861 808.23C361.075 768.999 375.962 734.996 395.099 707.158C395.255 706.846 395.366 706.557 395.389 706.246Z" fill="#AB5035"/>
<path d="M78.6683 650.192C78.7795 650.192 78.8685 650.191 78.9798 650.169C92.1089 647.855 105.972 645.051 118.434 638.331C137.816 627.85 145.182 610.871 149.855 595.605C150.767 592.646 151.657 589.62 152.547 586.616C158.934 564.786 165.543 542.221 187.529 531.762C195.874 527.779 204.708 526.333 214.054 524.797C218.972 523.996 224.068 523.173 229.03 521.927C256.646 515.095 252.574 493.71 248.613 473.015L247.767 468.52C244.896 453.032 246.321 438.212 247.856 422.546C248.19 418.985 248.546 415.425 248.835 411.82C249.569 403.297 250.17 393.417 248.257 384.048C247.478 380.31 246.12 376.839 245.03 374.235C244.807 373.679 244.318 373.3 243.739 373.167C243.161 373.056 242.56 373.211 242.115 373.612C238.221 377.195 234.682 380.577 231.255 383.959C181.209 433.717 138.528 498.672 104.392 577.002C94.4232 599.878 85.166 623.711 76.9325 647.788C76.7322 648.389 76.8435 649.079 77.2663 649.546C77.6224 649.969 78.1342 650.192 78.6683 650.192Z" fill="#AB5035"/>
<path d="M96.5116 1282.66C96.6006 1282.66 96.7119 1282.66 96.8009 1282.64C97.5798 1282.5 98.2028 1281.88 98.3141 1281.08C99.627 1271.31 103.143 1262.48 108.795 1254.84C116.228 1244.7 126.442 1238.62 138.347 1237.24C145.712 1236.37 153.345 1237.66 160.755 1238.89C171.303 1240.65 182.207 1242.47 192.866 1238.35C220.571 1227.7 233.055 1190.33 240.531 1167.99C246.428 1150.23 251.079 1131.41 245.249 1114.21C240.91 1101.41 230.584 1092.91 220.593 1084.68C218.212 1082.72 215.875 1080.78 213.628 1078.8C173.684 1043.78 186.257 998.87 198.385 955.455C201.567 944.062 204.86 932.268 207.152 920.874C212.137 895.973 207.998 872.274 196.093 857.476C187.103 846.305 174.285 840.475 158.018 840.208C157.64 840.208 157.262 840.208 156.883 840.208C121.19 840.208 92.6396 867.757 91.6828 903.384C91.171 921.319 85.096 942.637 58.9935 942.637C58.9045 942.637 58.8154 942.637 58.7264 942.637C47.0215 942.571 36.2512 937.23 28.3737 927.595C27.9064 927.016 27.1053 926.794 26.3932 927.016C25.6811 927.261 25.1915 927.928 25.1693 928.685C21.0748 1057.84 45.1968 1179.87 94.9317 1281.64C95.1987 1282.28 95.8218 1282.66 96.5116 1282.66Z" fill="#AB5035"/>
<path d="M656.167 1286.22C657.635 1284 659.215 1281.73 660.795 1279.43C670.364 1265.61 681.179 1249.95 678.62 1233.66C678.509 1233.01 678.063 1232.46 677.44 1232.24C676.817 1232.01 676.128 1232.15 675.616 1232.59C665.246 1241.78 651.716 1248.75 636.518 1252.73C599.022 1262.52 557.097 1258.76 515.284 1241.85C514.817 1241.67 514.283 1241.67 513.816 1241.89C513.349 1242.12 513.015 1242.52 512.859 1243.01C508.564 1256.91 495.101 1264.72 487.469 1268.15C480.125 1271.44 472.381 1273.38 464.926 1275.25C448.949 1279.23 433.839 1283.02 422.824 1299.08C412.722 1313.81 408.76 1333.37 412.721 1348.91C415.592 1360.19 422.49 1368.87 432.638 1374.01C438.067 1376.77 443.786 1377.86 449.683 1377.86C461.544 1377.86 474.139 1373.38 486.445 1369.05C495.702 1365.77 504.425 1362.68 512.414 1361.64C537.115 1358.41 558.967 1364.97 582.11 1371.89L582.532 1372.03C592.902 1375.14 618.582 1381.17 632.979 1369.56C640.056 1363.86 643.171 1354.83 642.237 1342.74C640.412 1319.2 644.061 1304.4 656.167 1286.22Z" fill="#AB5035"/>
<path d="M802.503 983.45C796.962 983.45 791.399 983.45 785.858 983.405C776.69 983.316 767.21 983.027 758.02 982.738C725.731 981.736 692.352 980.713 660.909 987.367C652.965 989.036 645.31 991.461 638.189 994.554C637.544 994.843 637.121 995.466 637.098 996.179C637.076 996.891 637.499 997.536 638.122 997.847C646.356 1001.81 654.211 1007.42 658.417 1011.02C668.586 1019.83 676.775 1031.23 682.071 1043.98C683.495 1047.4 684.786 1051.23 686.166 1055.28C690.639 1068.41 695.712 1083.28 706.772 1088.46C709.464 1089.73 712.424 1090.35 715.629 1090.35C719.233 1090.35 723.128 1089.55 727.311 1087.95C749.72 1079.38 761.38 1055.75 772.662 1032.9C777.803 1022.46 782.676 1012.62 788.351 1004.68C793.135 997.981 798.475 991.706 803.749 986.565C804.283 986.053 804.439 985.275 804.15 984.585C803.905 983.895 803.238 983.45 802.503 983.45Z" fill="#AB5035"/>
<path d="M838.218 1292.36L836.682 1293.39C814.941 1307.69 786.013 1330.55 785.79 1363.77C785.634 1387.2 802.858 1406.21 831.876 1414.6C843.959 1418.09 857.11 1419.87 870.506 1419.87C880.52 1419.87 890.69 1418.89 900.614 1416.89C924.447 1412.06 942.472 1399.26 961.542 1385.67C961.72 1385.56 961.899 1385.51 962.366 1385.33C962.766 1385.18 963.1 1384.87 963.3 1384.49C992.207 1329.59 1006.67 1267.73 1006.29 1200.66C1005.98 1151.64 1002.53 1110.33 995.745 1074.4C995.634 1073.84 995.278 1073.37 994.766 1073.11C989.358 1070.39 984.396 1069.9 980.012 1071.68C970.243 1075.62 965.37 1089.48 960.652 1102.88C957.915 1110.67 955.312 1118.01 952.107 1122.06C940.402 1136.86 924.002 1134.46 906.645 1131.92C903.04 1131.39 899.324 1130.85 895.719 1130.5C870.929 1128.05 844.738 1136.53 825.689 1153.22C816.588 1161.14 804.438 1173.22 804.082 1186.55C803.748 1199.3 816.521 1205.8 826.802 1211.01C828.827 1212.05 830.83 1213.05 832.632 1214.06C853.728 1225.8 864.543 1239.16 865.678 1254.84C867.057 1273.38 852.393 1283.04 838.218 1292.36Z" fill="#AB5035"/>
<path d="M971.775 352.095C983.681 347.355 995.408 344.573 1006.6 343.794C1025.34 342.504 1043.92 345.441 1061.21 348.801C1062.92 349.135 1064.81 349.446 1066.75 349.758C1077.16 351.427 1088.96 353.318 1092.56 362.665C1095.86 371.165 1089.2 378.998 1083.33 385.897C1082.39 386.987 1081.5 388.055 1080.66 389.101C1073.29 398.202 1061.7 410.976 1045.85 416.65C1030.9 421.991 1013.77 422.191 997.188 422.391C993.761 422.436 990.356 422.48 987.018 422.569C984.526 422.636 982.034 422.703 979.519 422.747C978.629 422.77 977.873 423.437 977.739 424.327C977.628 425.217 978.184 426.063 979.03 426.308C987.642 428.778 997.655 431.626 1007.6 434.274C1012.39 435.542 1017.48 437.078 1022.87 438.725C1038.73 443.553 1056.25 448.894 1072.27 448.894C1076.83 448.894 1081.28 448.449 1085.53 447.448C1103.82 443.109 1121.63 428.577 1137.31 415.76C1142.9 411.198 1148.17 406.903 1153.25 403.209C1154.2 402.519 1155.43 401.651 1156.83 400.65C1170.31 391.148 1198.35 371.366 1197.26 356.3C1196.93 351.694 1194.01 347.978 1188.63 345.241C1180.44 341.102 1170.74 338.854 1161.35 336.718C1157.19 335.761 1153.25 334.849 1149.46 333.803C1136.85 330.309 1124.1 326.904 1111.54 323.678C1107.47 322.632 1103.33 321.497 1099.13 320.34C1076.25 314.043 1052.6 307.545 1029.83 311.862C1006.53 316.246 987.641 333.158 970.974 348.067L969.884 349.046C969.216 349.625 969.083 350.604 969.55 351.36C970.017 352.117 970.952 352.429 971.775 352.095Z" fill="#FFBC57"/>
<path d="M1056.1 391.571C1060.41 387.788 1064.33 383.315 1067.62 379.421C1070.11 376.35 1072.45 373.324 1074.68 370.275C1074.72 370.208 1074.81 370.052 1074.83 369.986C1075.05 369.541 1075.08 369.051 1074.92 368.584C1074.77 368.116 1074.43 367.76 1073.99 367.538C1071.05 366.114 1065.66 365.513 1061.32 365.023C1059.41 364.801 1057.74 364.623 1056.61 364.4C1050.04 363.087 1042.25 361.641 1034.31 360.751C1017.02 358.815 1003.2 359.237 990.783 362.086C977.009 365.246 965.349 372.701 954.089 379.91C945.544 385.362 936.709 391.015 927.163 394.597C926.718 394.753 926.339 395.109 926.161 395.554C925.961 395.999 925.939 396.489 926.117 396.934C927.096 399.515 928.031 402.119 928.898 404.744C929.143 405.479 929.833 405.991 930.612 405.991H930.656C941.694 405.724 952.909 405.79 963.769 405.879C979.145 405.991 995.078 406.102 1010.77 405.234C1028.66 404.233 1043.34 402.586 1056.1 391.571Z" fill="#FFA7B4"/>
<path d="M67.6291 922.854C78.3772 916.112 74.1269 885.626 79.4898 872.875C90.4827 846.772 116.14 828.124 143.867 823.696C203.415 814.216 234.013 866.555 225.312 919.583C219.949 952.362 202.815 982.937 203.059 1016.63C203.215 1035.9 209.913 1051.61 224.155 1064.56C234.28 1073.77 245.807 1081.43 253.84 1092.73C270.218 1115.7 266.747 1144.51 258.669 1169.93C250.97 1194.09 240.711 1219.97 223.02 1238.67C204.55 1258.18 183.766 1260.14 158.42 1256.49C135.411 1253.2 117.787 1261.25 115.895 1286.51C114.872 1299.53 118.721 1313.26 121.303 1326.54C158.465 1388.34 207.265 1443.84 269.217 1489.68C328.009 1533.18 395.546 1564.71 467.623 1578.29C513.597 1586.97 560.773 1587.26 607.37 1583.98C655.503 1580.58 704.014 1574.48 750.255 1560.22C823.778 1537.54 888.556 1490.14 933.951 1428.15C897.991 1444.9 846.031 1441.39 815.277 1428.55C761.782 1406.18 754.527 1347.41 792.268 1305.82C802.393 1294.68 814.832 1285.62 827.361 1277.34C834.615 1272.58 846.899 1267.1 847.477 1257.05C848.056 1247.37 837.708 1238.62 830.565 1233.99C812.162 1222.13 779.495 1211.03 784.413 1182.97C788.507 1159.49 811.739 1138.19 831.366 1126.89C853.152 1114.36 878.475 1109.58 903.287 1113.32C915.125 1115.1 929.812 1120.75 939.292 1109.35C943.253 1104.59 943.965 1096.36 945.612 1090.48C948.549 1080.03 952.243 1070.75 960.922 1063.74C968.688 1057.46 979.859 1053.75 989.672 1055.06C979.392 1016.98 950.196 998.514 912.366 990.97C889.646 986.475 866.214 985.318 842.737 985.117C829.964 990.236 819.149 995.31 809.202 1006.93C799.077 1018.72 792.224 1032.65 784.991 1046.31C773.019 1068.97 758.8 1093.38 734.322 1104.26C709.221 1115.47 686.59 1102.63 676.331 1078.6C669.144 1061.87 666.54 1044.07 654.857 1029.47C648.137 1021.12 635.92 1008.86 623.57 1004.86C602.385 1019.56 589.59 1042.35 584.628 1071.95C581.067 1093.36 573.59 1125.73 601.428 1131.96C618.919 1135.92 637.211 1130.07 654.946 1132.65C685.499 1137.08 702.745 1163.38 698.94 1193.36C697.894 1201.66 695.268 1209.23 691.508 1215.97C701.811 1232.84 696.759 1254.91 687.302 1272.07C680.114 1285.11 669.344 1295.94 663.091 1309.52C655.569 1325.87 662.468 1340.25 660.376 1356.96C657.683 1378.3 639.303 1391.25 619.075 1394.19C586.519 1398.97 557.501 1377.03 524.968 1377.97C493.258 1378.88 462.616 1403.29 430.683 1392.05C410.188 1384.82 396.391 1364.55 393.966 1343.43C390.917 1317.26 403.067 1288.56 424.007 1272.49C445.169 1256.27 485.848 1261.32 498.843 1236.48C478.304 1226.49 459.077 1213.88 442.165 1199.61C415.774 1177.4 394.656 1150.66 378.322 1121.15C358.25 1137.59 326.206 1141.75 303.82 1129.27C289.845 1121.46 283.815 1109.49 278.741 1094.91C274.068 1081.49 267.926 1075.98 256.132 1069.14C249.857 1065.52 243.871 1061.67 239.176 1056.08C219.371 1032.38 229.585 998.625 255.22 984.762C273.623 974.77 293.895 970.386 310.518 956.857C321.667 947.822 328.654 936.963 333.883 924.857C334.239 895.439 337.088 864.864 342.918 834.889C310.941 854.049 269.239 857.142 240.333 828.681C221.685 810.278 217.679 783.508 222.731 758.629C229.407 725.65 255.865 702.463 257.2 668.26C258.224 641.802 259.448 616.478 284.415 601.28C305.934 588.173 333.416 588.907 356.092 598.342C387.624 611.449 413.215 646.965 413.103 681.412C440.496 651.393 475.967 629.986 520.851 622.687C520.784 622.531 520.673 622.398 520.606 622.242C505.519 592.445 503.338 552.791 525.324 525.887C527.683 523.017 531.265 526.244 530.843 529.114C526.17 559.378 523.254 589.686 540.612 616.835C548.311 628.851 559.371 639.51 571.676 646.742C577.774 650.303 584.494 652.038 589.968 655.554C593.262 640.667 598.202 626.203 604.566 612.295C617.806 583.299 639.414 549.008 668.187 533.409C672.326 531.161 677.377 535.767 674.796 540.018C665.828 554.86 653.567 567.166 643.731 581.43C633.205 596.629 623.993 612.962 617.339 630.275C605.033 662.386 601.228 697.411 608.883 731.124C623.036 793.098 672.125 830.461 732.675 842.144C789.843 853.203 859.138 847.596 911.12 820.18C965.417 791.519 994.768 732.393 990.117 671.71C985.444 610.514 946.791 562.293 900.416 525.465C892.138 518.9 902.82 506.305 911.387 511.245C913.59 512.558 915.815 513.893 917.952 515.228C924.494 481.471 921.913 446.579 911.209 413.756C884.639 332.288 812.563 277.48 732.475 254.07C640.549 227.211 542.748 240.54 451.979 265.53C380.77 285.135 314.724 314.709 258.625 361.506C265.167 371.743 266.636 386.251 266.836 397.645C267.192 423.124 260.783 446.556 266.257 472.013C269.929 489.148 273.512 507.685 261.784 522.594C252.082 534.944 236.95 538.171 222.308 540.73C200.523 544.535 184.345 548.852 175.355 571.038C168.634 587.661 166.253 605.73 157.909 621.775C141.931 652.261 106.438 664.055 73.6373 663.499C48.6697 740.582 32.8925 822.406 28.0859 904.541C38.2777 916.602 52.6084 932.29 67.6291 922.854ZM693.711 1403.29C710.979 1400.09 730.517 1400.58 745.203 1411.28C753.415 1417.27 757.109 1425.1 762.004 1433.64C767.412 1443.08 776.446 1449.31 784.569 1456.25C798.543 1468.2 809.692 1483.25 806.043 1502.69C802.593 1521.12 788.73 1535.18 771.195 1540.95C747.785 1548.65 727.112 1539.39 704.525 1533.74C690.15 1530.18 676.109 1529.87 661.444 1531.53C650.741 1532.74 640.037 1534.4 629.689 1530.49C611.398 1523.59 604.9 1507.26 606.346 1490.52C603.053 1444.24 651.074 1411.21 693.711 1403.29ZM297.389 1316.75C308.894 1335.26 329.388 1359.16 326.451 1382.4C323.981 1402.02 305.578 1421.74 287.798 1429.33C266.235 1438.54 243.426 1430.06 225.935 1416.38C210.447 1404.25 191.866 1387.05 183.989 1368.55C181.007 1361.61 179.805 1353.67 180.317 1345.88C178.47 1331.66 181.229 1317.4 191.577 1305.6C204.795 1290.58 226.269 1276.27 246.964 1277.99C270.062 1279.88 285.995 1298.37 297.389 1316.75ZM945.278 624.245C946.991 625.691 946.213 628.206 944.633 629.296C932.616 637.752 919.71 639.888 909.006 650.992C898.926 661.407 892.027 674.803 887.554 688.488C881.791 706.09 882.036 738.357 909.718 729.345C915.593 727.431 922.202 724.048 926.452 719.286C937.378 707.158 931.926 692.004 914.881 692.004C907.471 692.004 905.512 682.458 911.298 678.653C937.779 661.095 957.851 697.701 947.77 720.466C937.757 743.008 901.996 759.297 880.523 743.475C833.569 708.872 906.558 590.687 945.278 624.245ZM750.611 769.533C732.653 794.901 699.741 790.829 679.291 770.223C657.884 748.637 671.591 713.434 696.203 701.529C699.14 700.104 702.723 702.441 701.833 705.801C696.893 724.204 677.288 746.59 699.43 761.188C726.467 778.968 743.09 754.401 739.752 728.566C737.215 709.228 729.115 688.399 715.007 674.558C700.631 660.517 685.833 658.269 666.918 654.597C664.893 654.197 665.005 651.504 666.406 650.503C691.374 632.79 725.532 655.287 740.041 676.316C757.265 701.306 769.771 742.496 750.611 769.533ZM788.24 444.042C799.055 425.172 826.092 417.984 841.981 435.007C846.053 439.391 849.124 445.288 850.548 452.654C853.152 466.294 847.544 480.892 837.219 490.238C827.338 499.206 812.006 503.301 800.235 496.959C794.983 494.133 790.866 489.526 787.973 484.297C781.208 472.013 781.275 456.192 788.24 444.042ZM710.155 417.872C726.422 416.315 742.822 423.858 753.838 435.942C753.993 436.097 754.127 436.276 754.283 436.409C761.47 444.465 766.588 454.523 768.191 465.182C771.417 486.411 759.49 509.064 740.174 518.388C720.859 527.757 695.713 523.039 681.093 507.329C655.347 479.735 669.655 421.722 710.155 417.872ZM289.044 374.947C294.852 365.868 305.711 361.818 315.436 358.569C331.124 353.273 347.48 349.312 363.457 345.039C395.457 336.405 430.594 323.632 464.196 325.19C491.811 326.458 511.883 340.5 532.578 357.501C552.895 374.146 598.78 404.721 600.405 434.184C600.983 444.865 593.974 454.189 584.65 459.485C583.737 460.22 582.647 460.798 581.356 461.221C581.201 461.265 581.112 461.288 580.956 461.332C578.775 462.267 576.528 463.001 574.28 463.468C541.324 473.994 508.078 483.607 474.521 491.952C446.838 498.85 421.07 505.081 394.945 490.172C367.329 474.35 339.825 452.542 315.369 432.114C300.348 419.608 275.47 396.087 289.044 374.947Z" fill="#FFBC57"/>
<path d="M810.42 265.222C817.54 269.249 824.817 273.789 832.027 278.751C832.339 278.974 832.695 279.063 833.051 279.063C833.206 279.063 833.384 279.041 833.54 278.996C834.052 278.84 834.475 278.484 834.697 277.995C839.237 267.914 843.888 258.323 848.516 249.489C849.874 246.908 851.387 243.703 853.056 240.187C858.308 229.105 865.473 213.951 874.352 205.184C874.775 204.783 874.953 204.182 874.864 203.604C874.775 203.025 874.418 202.536 873.884 202.269C868.922 199.754 864.583 196.728 861 193.278C860.577 192.856 859.954 192.678 859.376 192.811C858.797 192.922 858.308 193.345 858.063 193.901C853.301 205.384 845.201 215.976 837.368 226.19C835.187 229.039 833.051 231.82 831.048 234.558C824.862 242.969 817.496 252.871 809.863 262.485C809.529 262.907 809.396 263.442 809.507 263.953C809.641 264.51 809.952 264.955 810.42 265.222Z" fill="#FFBC57"/>
<path d="M621.811 138.181C621.321 137.825 620.698 137.714 620.142 137.914C615.335 139.539 610.106 140.451 604.654 140.607C604.075 140.629 603.519 140.918 603.207 141.408C602.874 141.898 602.807 142.498 603.007 143.055C607.346 154.738 607.48 171.516 607.569 183.777C607.591 187.671 607.614 191.21 607.769 194.125C608.17 202.492 608.237 210.926 608.281 217.334C608.281 217.824 608.481 218.291 608.837 218.625C609.193 218.959 609.772 219.137 610.15 219.137C617.16 218.981 624.815 219.026 634.272 219.293H634.317C634.851 219.293 635.385 219.048 635.719 218.625C636.075 218.18 636.208 217.624 636.075 217.067C633.627 206.475 631.468 195.95 629.889 187.983C629.221 184.69 628.464 181.285 627.708 177.814C624.904 165.196 622.011 152.156 622.567 139.717C622.567 139.116 622.3 138.537 621.811 138.181Z" fill="#FFBC57"/>
<path d="M596.733 122.893C598.892 123.205 600.984 123.361 603.075 123.361C613.512 123.361 622.858 119.444 630.958 111.7C631.114 111.544 631.247 111.367 631.336 111.166C633.183 107.272 635.186 103.378 637.211 99.4389C642.663 88.8021 648.315 77.8092 651.23 66.527C653.723 56.8693 654.101 42.7835 647.692 32.2134C643.998 26.1162 638.658 22.222 631.804 20.6198C619.698 17.7715 613.334 24.959 607.214 31.9241C603.966 35.5958 600.628 39.4011 596.422 41.7154C588.967 45.8099 581.958 44.5414 574.547 43.184C568.806 42.1381 562.865 41.0476 556.567 42.494C550.181 43.9182 545.908 47.2339 543.883 52.3297C537.964 67.2836 553.875 91.339 555.722 94.0316C563.644 105.648 577.195 120.134 596.733 122.893Z" fill="#AB5035"/>
<path d="M862.145 164.327C862.145 164.549 862.189 164.772 862.278 164.972C867.196 177.478 876.031 185.756 888.559 189.561C893.254 190.986 897.927 191.586 902.467 191.586C916.219 191.586 928.881 186.068 937.982 180.638C940.786 178.969 965.331 163.793 966.265 147.793C966.577 142.319 964.107 137.512 958.922 133.529C953.804 129.59 947.974 128.077 942.344 126.608C935.045 124.717 928.169 122.936 923.117 116.06C920.269 112.188 918.845 107.337 917.465 102.642C914.839 93.7409 912.102 84.5282 899.93 82.0136C892.987 80.5672 886.489 81.8802 880.57 85.8634C870.334 92.7618 864.771 105.691 862.99 115.482C860.899 126.964 861.366 139.315 861.811 151.242C861.922 155.648 862.1 160.032 862.145 164.327Z" fill="#AB5035"/>
<path d="M347.191 433.34C348.593 434.341 349.817 435.187 350.774 435.899C355.848 439.593 361.122 443.888 366.707 448.45C382.418 461.267 400.197 475.798 418.489 480.137C422.74 481.139 427.19 481.584 431.752 481.584C447.774 481.584 465.287 476.243 481.153 471.414C486.538 469.768 491.612 468.232 496.374 466.964C506.721 464.205 517.069 461.267 524.924 458.997C525.792 458.753 526.348 457.907 526.215 457.017C526.104 456.127 525.347 455.459 524.435 455.437C521.942 455.392 519.406 455.326 516.913 455.259C513.598 455.17 510.193 455.125 506.766 455.081C490.188 454.88 473.053 454.68 458.144 449.34C446.06 445 434.979 436.255 423.296 421.791C422.45 420.767 421.56 419.699 420.648 418.609C414.773 411.688 408.119 403.855 411.391 395.354C415.04 385.986 426.812 384.094 437.204 382.448C439.162 382.136 441.031 381.847 442.745 381.491C460.035 378.131 478.616 375.171 497.353 376.484C508.435 377.241 520.496 380.111 532.179 384.784C532.98 385.118 533.937 384.806 534.382 384.05C534.849 383.293 534.693 382.337 534.048 381.736L532.957 380.779C516.29 365.847 497.397 348.935 474.077 344.551C451.334 340.234 427.657 346.732 404.782 353.03C400.576 354.187 396.415 355.322 392.365 356.368C379.614 359.661 366.863 363.066 354.49 366.493C350.707 367.539 346.791 368.451 342.63 369.408C333.239 371.566 323.514 373.792 315.303 377.953C309.918 380.69 307.025 384.406 306.691 389.012C305.668 404.033 333.728 423.816 347.191 433.34Z" fill="#FFBC57"/>
<path d="M469.67 393.418C461.859 394.286 454.026 395.754 447.373 397.067C446.26 397.29 444.591 397.49 442.677 397.713C438.36 398.202 432.975 398.825 430.038 400.227C429.17 400.65 428.791 401.718 429.17 402.608C429.214 402.742 429.392 403.009 429.481 403.12C431.951 406.48 434.221 409.418 436.446 412.11C439.673 415.96 443.545 420.411 447.973 424.26C460.702 435.253 475.389 436.9 493.258 437.901C498.042 438.168 503.405 438.613 509.124 439.081C520.718 440.037 533.713 441.083 546.108 441.083C558.881 441.083 570.964 439.948 580.177 436.388C580.644 436.21 581.023 435.832 581.223 435.364C581.401 434.897 581.379 434.363 581.178 433.918C571.12 412.956 532.334 399.137 513.241 394.753C500.779 391.927 486.96 391.482 469.67 393.418Z" fill="#FFA7B4"/>
<path d="M202.253 1320.82C200.784 1323.14 199.605 1325.7 198.692 1328.7C198.403 1330.42 198.091 1332.11 197.78 1333.82C197.268 1336.56 196.756 1339.29 196.378 1342.14C196.155 1345.46 196.089 1348.8 196.066 1351.8C196.311 1354.58 196.845 1357.14 197.735 1359.66C202.208 1372.12 213.49 1382.42 223.415 1391.52L226.508 1394.37C237.59 1404.61 251.854 1415.69 267.654 1415.69C270.324 1415.69 273.039 1415.38 275.798 1414.69C291.108 1410.79 311.825 1390.68 307.976 1371.92C305.951 1362.17 298.629 1351.49 292.176 1342.05C289.55 1338.2 287.036 1334.55 285.077 1331.24L284.833 1330.82C276.621 1316.97 266.385 1299.77 248.716 1296.19C232.249 1292.87 210.197 1308.56 202.253 1320.82Z" fill="#AB5035"/>
<path d="M636.477 1516.78C643.375 1518.83 651.23 1517.27 658.818 1515.76C661.978 1515.14 664.96 1514.53 667.742 1514.22C676.532 1513.29 685.655 1513.38 694.846 1514.51C702.723 1515.47 710.645 1517.87 718.3 1520.21C728.47 1523.3 738.928 1526.48 749.788 1526.48C750.544 1526.48 751.323 1526.46 752.08 1526.44C767.034 1525.79 781.587 1516.74 786.66 1504.92C790.599 1495.75 788.596 1485.92 781.031 1477.24C776.78 1472.39 772.018 1468.25 767.412 1464.27C760.981 1458.68 754.884 1453.43 750.032 1446.28C748.742 1444.39 747.54 1442.37 746.338 1440.34C743.09 1434.89 739.729 1429.24 734.3 1425.43C726.645 1420.05 716.542 1418.31 702.523 1420C664.248 1424.59 622.19 1451.2 620.321 1498.78L620.277 1499.2C620.21 1499.51 620.21 1499.83 620.277 1500.14C622.569 1508.64 628.021 1514.24 636.477 1516.78Z" fill="#AB5035"/>
<path opacity="0.1" d="M986.938 1143.6C940.741 1101.5 875.029 1093.6 815.08 1096.18C783.503 1097.54 748.611 1099.99 719.326 1112.89C697.185 1122.64 680.206 1139 662.715 1155.15C661.714 1156.09 660.668 1157 659.644 1157.93C673.04 1163.56 680.74 1175.54 676.378 1194.78C666.943 1236.11 609.576 1239.78 575.863 1236.33C534.25 1232.12 494.351 1213.56 461.973 1187.53C392.433 1131.61 360.678 1044.44 356.473 957.302C352.378 871.718 366.709 767.219 425.723 701.173C453.161 670.397 489.744 647.833 531.268 643.227C532.292 643.115 533.226 642.871 534.139 642.537C539.39 648.745 545.399 654.331 551.919 659.204C561.309 666.169 574.483 675.715 586.766 674.87C585.32 687.02 585.053 699.326 586.143 711.632C592.174 778.902 634.41 833.488 698.275 855.451C761.05 877.014 840.025 872.875 901.42 848.553C964.974 823.452 1006.23 767.219 1012.06 699.148C1017.65 634.192 985.781 567.923 935.022 527.49C943.5 497.249 944.19 465.939 938.672 435.631C936.758 433.761 934.822 431.915 932.908 430.134C912.569 411.108 890.161 394.619 864.125 384.182C851.396 379.086 834.395 373.501 820.999 379.687C795.876 391.281 797.367 433.895 797.611 456.459C798.034 495.58 803.575 534.455 807.18 573.375C810.14 605.352 813.611 638.398 801.439 668.862C793.027 689.891 779.431 711.565 756.622 718.663C735.037 725.384 712.294 717.773 692.734 708.494C634.565 680.856 583.473 620.929 515.513 618.882C453.895 617.035 404.961 665.657 373.83 713.723C312.991 807.652 288.045 929.152 291.05 1039.97C292.474 1093 302.354 1144.51 326.921 1191.94C342.275 1221.6 363.237 1249.75 392.611 1266.75C428.282 1287.38 462.974 1280.26 501.049 1271.87C533.605 1264.68 563.29 1261.83 594.911 1274.2C612.78 1281.19 629.692 1290.49 643.645 1303.84C668.79 1327.92 679.516 1361.95 678.626 1396.19C676.623 1473.7 630.849 1548.51 580.736 1607.08C596.558 1606.5 612.379 1605.46 628.157 1604.01C674.687 1599.76 721.418 1593.02 765.834 1578.11C836.932 1554.19 899.373 1508.33 945.281 1449.2C993.324 1387.36 1020.63 1313.55 1025.55 1235.48C1026.3 1223.45 1026.57 1211.41 1026.48 1199.37C1017.11 1178.47 1004.23 1159.36 986.938 1143.6Z" fill="#592639"/>
<path opacity="0.15" d="M272.018 1518.36C219.724 1394.5 186.434 1262.3 176.576 1129.32C168.632 1022.3 176.865 913.286 206.728 809.944C221.549 758.674 241.687 708.828 267.122 661.897C286.393 626.337 307.667 591.088 336.217 562.182C384.639 513.182 456.738 460.532 528.681 460.087C560.659 459.886 588.942 474.395 605.876 501.788C625.881 534.144 625.726 572.285 625.948 609.002C626.126 640.534 623.567 686.041 656.457 703.109C687.633 719.287 737.412 712.878 768.922 699.482C825.822 675.293 839.463 612.852 837.55 556.686C835.124 485.766 813.027 415.336 786.991 349.846C770.925 309.435 752.655 268.891 730.558 230.95C708.906 225.142 686.765 221.248 664.646 219.2C662.042 218.956 659.394 218.8 656.746 218.622C653.942 208.163 651.183 197.682 648.757 187.112C644.841 169.844 643.684 148.392 635.739 131.702C656.568 116.326 671.767 79.2307 672.501 54.3743C673.146 32.8559 663.177 11.6935 642.371 3.39324C634.093 0.0998289 624.479 -0.857322 615.845 1.43471C602.605 4.90614 600.09 14.5641 590.077 21.6183C578.728 29.607 562.639 19.2149 549.866 22.3748C540.141 24.7781 532.487 31.5207 527.769 40.2215C507.23 78.296 547.908 128.832 586.049 140.092C585.315 144.921 586.271 150.106 586.739 156.047C587.785 169.332 588.808 182.572 589.253 195.902C589.498 203.312 589.587 210.744 589.587 218.155C517.221 222.36 444.388 240.875 378.164 266.354C301.659 295.795 235.768 343.148 183.541 406.368C78.4411 533.565 26.3029 704.133 9.2128 866.066C-8.85644 1037.28 19.5603 1217.97 117.873 1362.26C159.085 1422.76 211.579 1476.64 272.018 1518.36Z" fill="#FFFCFC"/>
<path opacity="0.3" d="M350.93 1157.49C391.163 1210.92 451.757 1250.93 520.429 1245.52C531.488 1244.65 533.002 1230.72 522.966 1226.76C477.726 1208.85 430.95 1185.19 397.238 1149.26C398.417 1147.32 398.84 1144.83 397.95 1141.96C389.449 1114.32 381.505 1086.68 372.47 1059.15C364.103 1033.63 355.336 1008.39 349.528 982.114C339.202 935.45 342.006 885.916 352.109 839.408C362.1 793.389 378.679 750.241 404.158 710.519C416.152 691.827 429.882 674.559 445.348 658.604C450.11 653.686 455.072 648.968 460.079 644.295C464.241 648.991 470.516 651.327 477.926 648.39C489.364 643.828 501.469 640.223 511.973 633.77C523.7 626.56 522.632 612.607 514.866 605.064C514.888 604.997 514.91 604.93 514.932 604.863C520.874 587.773 525.792 564.274 520.718 546.272C524.657 543.335 528.551 540.353 532.334 537.237C541.524 529.671 531.266 517.455 521.786 519.123C495.372 523.841 467.601 540.82 445.904 556.174C422.539 572.708 401.11 592.647 382.172 614.076C342.34 659.227 313.122 711.922 295.832 769.578C276.183 835.068 272.044 904.586 281.857 972.123C291.159 1036.12 311.564 1105.22 350.93 1157.49Z" fill="#592642"/>
<path opacity="0.3" d="M708.514 852.469C746.455 881.219 799.216 865.175 841.185 847.685C880.55 840.653 918.38 829.17 950.156 803.424C980.02 779.235 1019.54 729.656 1008.24 688.622C1006.52 682.369 999.936 679.409 994.284 680.677C998.311 657.868 997.777 634.392 991.013 612.117C979.308 573.575 951.625 536.413 912.794 522.928C922.407 521.17 930.975 514.961 934.58 503.768C939.475 488.569 934.713 470.256 931.887 455.012C928.393 436.053 922.43 417.427 914.597 399.803C912.794 395.753 909.501 394.418 906.163 394.841C896.972 363.242 879.793 334.068 854.269 310.436C847.549 304.205 835.577 312.328 841.073 320.628C859.476 348.422 871.471 378.441 877.256 411.286C880.127 427.508 881.24 444.019 880.238 460.464C879.437 473.571 870.536 493.51 876.923 505.571C882.352 515.852 892.388 521.904 902.691 523.239C898.686 526.622 898.196 534.165 903.492 537.837C970.585 584.19 976.548 670.13 929.528 734.106C882.775 797.727 792.051 833.643 714.322 831.128C701.816 830.683 700.213 846.171 708.514 852.469Z" fill="#592642"/>
<path opacity="0.3" d="M763.941 1555.99C798.9 1547.34 832.68 1535.27 862.899 1513.47C905.892 1482.42 941.229 1439.88 964.795 1392.48C990.697 1340.41 1004.47 1284.15 1009.46 1226.38C1012.17 1194.92 1012.06 1163.25 1009.99 1131.76C1008.97 1116.01 1006.79 1100.43 1004.27 1084.88C1001.33 1066.68 996.883 1052.14 989.762 1035.43C987.604 1030.38 984.11 1027.8 980.216 1026.93C977.946 1017.47 974.808 1008.37 969.646 1000.38C961.991 988.524 942.431 989.77 938.67 1004.43C934.642 1020.14 937.223 1035.92 937.579 1051.94C937.958 1069.75 937.78 1087.5 937.846 1105.31C937.958 1139.71 937.557 1174.36 933.307 1208.56C925.719 1269.6 906.604 1329.12 874.115 1381.73C845.297 1428.39 806.889 1467.6 759.513 1495.35C702.924 1528.49 638.658 1537.12 575.171 1549.12C538.076 1556.12 499.022 1556.73 461.459 1553.34C422.228 1549.83 384.398 1539.17 345.478 1534.34C336.176 1533.18 334.085 1546.71 340.983 1550.96C401.555 1588.17 484.691 1593.93 554.142 1593.84C624.594 1593.73 698.496 1583.43 763.941 1555.99Z" fill="#592642"/>
<path opacity="0.3" d="M981.682 429.377C997.637 440.326 1019.31 443.263 1038.14 445.822C1058.59 448.604 1079.3 450.696 1098.71 442.173C1116.84 434.206 1133 421.144 1148.58 409.128C1165.51 396.065 1183.58 382.78 1196.53 365.645C1199.83 361.284 1199.58 353.14 1196.53 348.733C1194.77 346.219 1192.99 344.528 1190.52 342.725C1186.03 339.432 1178.15 339.721 1173.61 342.725C1143.79 362.575 1120.58 391.77 1088.25 408.504C1056.54 424.927 1017.29 408.571 983.684 414.001C975.896 415.269 976.341 425.728 981.682 429.377Z" fill="#592642"/>
<path opacity="0.3" d="M876.558 194.855C896.808 198.259 917.637 190.382 935.083 180.435C949.592 172.157 976.874 154.933 970.153 135.306C968.507 130.5 964.279 126.695 958.983 126.784C942.293 127.051 934.349 146.522 922.51 156.291C908.202 168.063 891.089 172.157 874.556 179.501C868.147 182.349 869.66 193.698 876.558 194.855Z" fill="#592642"/>
<path opacity="0.3" d="M628.196 124.893C643.305 108.56 653.608 89.7562 656.879 67.4811C659.772 47.6539 661.13 21.2846 647.266 5.39608C641.369 -1.36876 627.083 1.56872 625.748 11.0706C623.456 27.2929 629.731 43.1813 628.552 59.8263C627.239 78.3184 621.943 97.1441 613.798 113.767C609.414 122.668 620.697 132.971 628.196 124.893Z" fill="#592642"/>
<path opacity="0.5" d="M578.997 99.4376C575.103 84.8843 557.723 49.9028 587.475 52.7067C595.531 53.4633 597.801 43.2048 593.506 38.1311C579.598 21.7309 555.899 32.1451 547.487 48.9682C537.206 69.5298 546.33 94.2083 561.106 109.852C568.583 117.752 581.712 109.54 578.997 99.4376Z" fill="#FFF7F7"/>
<path opacity="0.5" d="M864.874 137.401C867.166 132.528 868.413 128.077 871.706 123.805C875.4 119.02 879.45 115.282 884.679 112.256C889.33 109.563 894.426 107.159 899.433 105.223C901.636 104.378 903.795 103.822 906.087 103.288C907.845 102.887 911.516 104.623 908.401 102.909C916.278 107.204 924.423 100.15 922.821 91.8275C918.148 67.8168 887.773 77.8748 873.375 85.5075C856.018 94.6979 836.725 116.795 848.608 137.401C851.901 143.142 861.781 143.921 864.874 137.401Z" fill="#FFF7F7"/>
<path opacity="0.5" d="M954.044 373.924C981.593 360.328 1006.2 337.986 1037.65 334.292C1069.09 330.598 1100.02 342.414 1131.42 340.3C1143.35 339.499 1145.4 323.833 1134.2 319.783C1103.29 308.612 1060.55 302.448 1027.79 308.546C995.79 314.509 967.129 339.232 943.696 360.528C936.175 367.36 945.722 378.041 954.044 373.924Z" fill="#FFF7F7"/>
<path opacity="0.5" d="M33.3622 1093.16C37.4345 1117.99 42.6416 1142.58 49.1172 1166.84C74.107 1260.48 117.188 1351.89 183.39 1423.43C190.111 1430.71 202.617 1421.23 197.187 1412.77C151.969 1342.54 116.81 1267.17 96.8717 1185.82C75.7983 1099.79 72.8609 1011.85 78.4018 923.77C88.7716 759.055 137.194 583.947 243.985 454.792C259.962 435.455 277.074 416.451 295.188 398.226C296.924 399.828 299.194 400.852 301.864 400.74C303.689 400.674 305.491 400.54 307.316 400.429C307.427 412.979 315.394 424.773 327.855 430.715C336.756 434.965 347.104 426.131 341.808 416.762C338.448 410.843 331.282 404.168 333.685 397.425C363.949 392.641 394.28 383.851 423.609 377.464C443.013 373.236 464.91 365.003 484.804 369.119C503.43 372.991 519.407 386.276 536.074 394.821C549.07 401.475 562.244 385.386 551.829 374.415C537.721 359.573 520.92 347.935 501.427 341.237C480.353 334.004 460.081 337.476 438.897 342.038C402.157 349.938 362.102 356.591 325.652 369.297C330.17 365.247 334.776 361.308 339.404 357.392C405.028 320.452 476.37 294.306 549.582 277.037C585.631 268.537 622.193 262.195 658.976 257.789C677.001 255.63 696.316 256.098 714.074 252.626C719.415 251.58 748.01 240.32 726.157 234.668C661.113 217.8 585.142 226.212 520.364 240.387C492.459 246.507 465.066 254.673 438.385 264.865C436.493 264.42 434.424 264.398 432.221 265.088C373.251 283.468 318.264 310.75 270.666 348.914C268.618 349.047 266.527 349.67 264.457 351.072C187.107 403.144 130.74 491.665 93.8008 575.558C50.4524 674.004 30.8477 780.395 23.5933 887.275C19.1205 952.943 21.1232 1018.94 26.7087 1084.46C27.0425 1089.22 29.9576 1092.09 33.3622 1093.16Z" fill="#FFF7F7"/>
<path opacity="0.5" d="M664.89 535.145C636.14 563.54 618.249 598.209 609.748 635.883C605.097 633.413 600.446 630.966 596.063 627.962C585.025 620.373 575.345 610.649 567.156 600.056C550.222 578.182 547.173 553.014 536.381 528.581C533.132 521.237 523.296 524.664 521.026 530.583C509.989 559.245 526.901 595.784 543.635 619.016C556.697 637.129 580.397 661.185 604.875 667.549C604.14 675.872 603.784 684.305 603.851 692.784C604.118 720.577 608.391 747.526 619.784 773.072C631.266 798.84 647.199 827.836 674.059 839.63C685.63 844.725 696.222 834.4 690.971 822.718C681.291 801.177 664.668 784.087 654.098 762.858C643.55 741.673 635.116 718.196 631.756 694.675C630.221 684.016 630.043 673.201 630.888 662.386C632.713 659.405 633.291 655.844 631.956 652.528C637.208 614.498 655.188 577.18 677.908 548.118C684.94 539.084 673.547 526.6 664.89 535.145Z" fill="#FFF7F7"/>
<path opacity="0.5" d="M584.648 1045.74C575.525 1073.02 571.297 1119.21 590.59 1142.98C595.908 1149.52 606.968 1146.94 610.795 1140.38C617.672 1128.61 616.648 1113.52 618.339 1100.23C620.208 1085.72 621.432 1071.1 627.018 1057.42C637.365 1032.01 659.329 1020.19 685.008 1014.29C713.292 1007.79 742.643 1008.84 771.371 1005.75C806.442 1001.96 843.515 1000.21 877.361 990.149C885.929 987.59 886.975 973.704 877.361 971.723C837.974 963.601 794.292 964.157 754.126 964.758C719.99 965.27 683.295 965.96 651.117 978.51C619.941 990.682 595.419 1013.56 584.648 1045.74Z" fill="#FFF7F7"/>
<path d="M482.753 1602.72C530.975 1609.51 579.797 1608.46 628.175 1603.99C674.705 1599.74 721.436 1592.99 765.853 1578.09C836.95 1554.16 899.391 1508.3 945.299 1449.18C993.343 1387.33 1020.65 1313.52 1025.56 1235.46C1028.79 1184.3 1023.54 1132.99 1016.75 1082.27C1012.08 1047.22 1003.8 1014 973.738 992.193C945.544 971.72 909.005 966.469 875.069 964.533C827.626 961.885 779.761 963.019 732.273 962.574C695.623 962.218 656.725 962.463 622.923 978.641C588.921 994.974 570.407 1027.2 563.775 1063.31C558.19 1093.91 550.491 1136.32 586.273 1150.48C602.428 1156.86 618.962 1154.73 635.874 1154.15C662.288 1153.24 682.917 1165.83 676.33 1194.76C666.895 1236.08 609.527 1239.75 575.814 1236.31C534.201 1232.1 494.302 1213.54 461.924 1187.51C392.385 1131.58 360.63 1044.42 356.424 957.278C352.33 871.694 366.66 767.195 425.675 701.149C453.112 670.373 489.696 647.809 531.22 643.203C532.243 643.091 533.178 642.847 534.09 642.513C539.342 648.721 545.35 654.307 551.87 659.18C561.261 666.145 574.434 675.692 586.718 674.846C585.271 686.996 585.004 699.302 586.095 711.608C592.125 778.878 634.361 833.464 698.227 855.427C761.002 876.99 839.977 872.851 901.372 848.529C964.926 823.428 1006.18 767.195 1012.01 699.124C1017.6 634.168 985.732 567.899 934.974 527.466C943.652 496.513 944.231 464.424 938.267 433.47C968.42 442.95 998.839 451.651 1029.5 459.284C1057.19 466.182 1083 472.413 1109.08 457.503C1136.74 441.682 1164.2 419.874 1188.66 399.446C1203.65 386.962 1228.51 363.441 1214.94 342.301C1209.13 333.222 1198.29 329.172 1188.59 325.923C1172.9 320.627 1156.54 316.666 1140.57 312.393C1108.57 303.759 1073.39 290.986 1039.78 292.544C1012.21 293.812 992.097 307.854 971.401 324.832C954.311 338.829 932.459 355.831 918.774 375.502C908.871 355.141 896.098 336.092 880.966 319.225C871.353 308.521 860.939 298.752 849.835 289.873C854.552 279.459 859.314 269.112 864.499 258.964C870.53 247.059 877.028 235.487 883.548 223.916C886.485 218.687 889.533 214.37 890.913 209.719C930.211 215.549 988.425 186.888 985.844 143.673C985.265 133.793 981.126 124.469 973.315 118.193C963.034 109.915 944.097 112.563 937.177 100.547C931.035 89.9547 932.86 80.1188 922.334 71.418C915.436 65.6768 906.334 62.4947 897.433 61.9829C875.069 60.7813 857.111 75.735 848.633 95.54C838.842 118.371 836.995 158.426 849.39 181.146C835.126 192.94 825.045 211.922 814.186 225.897C806.931 235.287 799.299 244.366 791.688 253.468C751.945 234.464 708.196 223.271 664.603 219.243C661.999 218.998 659.351 218.843 656.703 218.665C653.899 208.206 651.14 197.725 648.714 187.155C644.798 169.887 643.641 148.435 635.696 131.745C656.525 116.369 671.724 79.2734 672.458 54.417C673.103 32.8986 663.134 11.7363 642.328 3.43597C634.05 0.142564 624.436 -0.814247 615.802 1.47779C602.562 4.94922 600.047 14.6069 590.034 21.661C578.685 29.6497 562.596 19.2576 549.823 22.4175C540.098 24.8208 532.444 31.5634 527.726 40.2643C507.187 78.3387 547.865 128.875 586.006 140.134C585.272 144.963 586.228 150.148 586.696 156.09C587.742 169.375 588.765 182.615 589.21 195.945C589.455 203.355 589.544 210.787 589.544 218.197C517.178 222.403 444.345 240.917 378.121 266.397C301.616 295.837 235.725 343.191 183.498 406.411C78.3981 533.608 26.2599 704.175 9.16982 866.109C-8.89942 1037.32 19.5173 1218.01 117.83 1362.3C201.945 1485.67 332.77 1581.58 482.753 1602.72ZM1004.47 1200.66C1004.83 1265.39 991.229 1327.52 961.677 1383.64C961.321 1383.8 960.943 1383.89 960.587 1384.11C941.449 1397.7 923.758 1410.34 900.237 1415.11C878.185 1419.53 854.04 1419.13 832.366 1412.86C809.357 1406.23 787.393 1389.96 787.594 1363.79C787.816 1332.77 813.896 1310.56 837.685 1294.92C852.638 1285.04 868.994 1275.03 867.481 1254.71C866.035 1234.7 849.746 1221.51 833.523 1212.47C822.553 1206.33 805.552 1200.52 805.908 1186.59C806.241 1174.06 817.88 1162.43 826.892 1154.59C845.473 1138.33 870.975 1129.87 895.542 1132.32C915.903 1134.34 938.556 1142.15 953.532 1123.22C964.57 1109.29 967.618 1061.55 993.966 1074.77C1001.71 1115.76 1004.2 1159.42 1004.47 1200.66ZM661.309 989.144C701.587 980.621 745.024 984.782 785.858 985.228C791.421 985.272 796.962 985.272 802.525 985.272C796.495 991.147 791.199 997.644 786.926 1003.63C768.79 1029.04 758.576 1074.06 726.71 1086.25C696.758 1097.72 692.152 1063.58 683.785 1043.28C678.444 1030.44 670.188 1018.76 659.64 1009.64C655.39 1006.01 647.49 1000.31 638.945 996.22C645.777 993.261 653.165 990.857 661.309 989.144ZM514.619 1243.52C553.561 1259.27 596.264 1265.1 636.987 1254.46C651.652 1250.61 665.76 1243.72 676.842 1233.92C679.712 1252.15 664.87 1269.82 654.678 1285.19C641.794 1304.53 638.678 1320 640.458 1342.85C643.262 1378.59 608.748 1377.99 583.091 1370.24C559.258 1363.1 537.428 1356.49 512.216 1359.79C488.16 1362.9 457.207 1384.4 433.508 1372.34C406.181 1358.47 409.564 1321.64 424.362 1300.04C440.184 1276.96 465.396 1280.01 488.272 1269.73C500.199 1264.41 510.925 1255.49 514.619 1243.52ZM369.531 1103.97C358.471 1109.71 348.413 1116.74 335.017 1117.39C313.232 1118.41 303.218 1105.75 296.542 1087.01C292.403 1075.44 287.574 1066.18 277.227 1059.06C263.719 1049.74 246.317 1044.18 248.231 1024.01C250.123 1004.61 270.039 999.224 285.104 992.838C298.923 986.963 312.186 979.798 323.646 970.007C327.496 966.713 331.167 962.975 334.572 958.903C335.262 972.121 336.508 984.894 338.177 997.088C343.295 1034.12 353.598 1070.48 369.531 1103.97ZM393.586 706.089C373.225 735.707 358.716 770.8 349.103 807.74C318.083 827.367 275.357 844.457 249.811 808.496C237.216 790.738 239.82 767.084 247.119 747.813C254.551 728.186 270.083 712.542 275.09 691.914C279.763 672.599 273.177 649.789 282.612 631.921C293.427 611.492 320.53 608.689 340.669 614.385C360.407 619.971 378.009 634.279 386.91 652.816C395.144 669.928 395.189 687.931 393.586 706.089ZM1030.19 313.639C1056.79 308.588 1085.6 318.869 1111.13 325.433C1123.79 328.705 1136.43 332.065 1149.02 335.558C1161.46 339.03 1176.3 341.032 1187.85 346.885C1214.54 360.414 1164.04 393.148 1152.23 401.76C1132.56 416.091 1109.32 439.968 1085.16 445.71C1061.5 451.295 1030.91 438.566 1008.12 432.536C998.572 429.999 989.092 427.306 979.59 424.592C982.127 424.547 984.642 424.48 987.134 424.414C1006.36 423.902 1028.1 424.97 1046.5 418.383C1061.17 413.132 1072.5 402.161 1082.11 390.256C1088.5 382.378 1098.55 372.943 1094.3 362.017C1089.59 349.778 1072.52 349.177 1061.61 347.019C1043.54 343.503 1024.96 340.699 1006.52 341.967C994.9 342.768 982.817 345.75 971.134 350.379C988.314 335.024 1006.89 318.046 1030.19 313.639ZM991.206 363.864C1005.29 360.637 1019.87 360.971 1034.13 362.551C1041.56 363.397 1048.97 364.732 1056.27 366.178C1059.86 366.912 1069.29 367.313 1073.21 369.182C1073.19 369.249 1073.14 369.294 1073.1 369.36C1070.89 372.364 1068.56 375.346 1066.2 378.239C1062.68 382.423 1058.97 386.584 1054.87 390.189C1042.17 401.159 1026.81 402.495 1010.63 403.407C983.93 404.898 957.249 403.518 930.568 404.164C929.7 401.515 928.743 398.912 927.764 396.286C950.106 387.963 967.307 369.36 991.206 363.864ZM864.7 115.79C867.681 99.501 880.232 79.785 899.503 83.7905C916.815 87.3955 913.144 105.598 921.6 117.148C931.079 130.032 946.456 126.249 957.783 134.972C976.831 149.636 950.35 171.11 937.021 179.099C922.69 187.622 905.555 192.807 889.044 187.845C876.048 183.884 868.215 175.205 863.921 164.323C863.809 148.346 861.873 131.256 864.7 115.79ZM832.544 235.666C841.69 223.182 853.551 209.608 859.759 194.632C863.542 198.259 867.993 201.352 873.089 203.911C861.228 215.638 852.727 237.624 846.919 248.661C842.024 258.03 837.418 267.598 833.056 277.256C826.024 272.427 818.747 267.866 811.315 263.66C818.659 254.425 825.69 244.989 832.544 235.666ZM557.211 92.9587C548.465 80.1189 533.512 49.4545 556.966 44.2251C570.896 41.0652 583.269 50.9679 597.288 43.2907C609.839 36.3923 614.156 18.3228 631.402 22.3951C650.539 26.8679 653.61 50.0554 649.471 66.0996C645.51 81.2982 636.542 96.0073 629.688 110.405C621.232 118.505 610.462 123.044 596.999 121.108C579.931 118.683 566.579 106.755 557.211 92.9587ZM628.086 188.334C630 197.947 632.047 207.739 634.294 217.485C626.239 217.263 618.183 217.151 610.083 217.329C610.039 209.563 609.928 201.753 609.572 194.031C608.948 181.592 610.506 158.07 604.698 142.427C610.35 142.249 615.736 141.292 620.698 139.623C620.008 155.823 625.037 173.135 628.086 188.334ZM106.058 577.735C136.834 507.083 177.623 439.835 232.521 385.249C236.081 381.733 239.664 378.328 243.336 374.946C244.604 377.95 245.761 381.088 246.451 384.426C248.276 393.327 247.764 402.673 247.007 411.685C245.405 431.023 242.356 449.537 245.961 468.875C250.056 491.127 256.42 513.291 228.582 520.19C214.585 523.683 199.943 523.817 186.747 530.136C160.934 542.398 155.793 570.303 148.138 595.092C142.664 612.983 134.631 627.537 117.585 636.749C105.613 643.203 92.1059 646.051 78.6875 648.41C86.8987 624.288 96.0446 600.7 106.058 577.735ZM107.327 1253.77C101.163 1262.12 97.7803 1271.33 96.5119 1280.86C44.1734 1173.75 23.0555 1051.43 26.9498 928.772C34.5602 938.096 45.4863 944.416 58.7045 944.483C83.9168 944.639 92.8847 925.434 93.5078 903.471C94.4424 868.623 122.258 841.497 157.996 842.076C201.5 842.832 212.538 884.867 205.395 920.561C194.402 975.392 161.023 1035.1 212.427 1080.2C223.976 1090.37 238.329 1099.52 243.536 1114.83C249.344 1131.96 244.292 1150.94 238.818 1167.46C230.696 1191.78 218.346 1226.65 192.221 1236.71C174.619 1243.49 156.261 1233.37 138.147 1235.48C125.485 1236.91 114.804 1243.58 107.327 1253.77ZM115.894 1286.49C117.786 1261.23 135.41 1253.17 158.419 1256.47C183.743 1260.14 204.549 1258.18 223.019 1238.64C240.688 1219.95 250.968 1194.07 258.668 1169.9C266.768 1144.51 270.217 1115.7 253.839 1092.71C245.806 1081.43 234.279 1073.77 224.154 1064.54C209.934 1051.59 203.214 1035.87 203.058 1016.6C202.813 982.936 219.926 952.338 225.311 919.56C234.012 866.531 203.436 814.215 143.866 823.673C116.139 828.101 90.4814 846.749 79.4885 872.851C74.1256 885.58 78.3536 916.066 67.6278 922.831C52.6072 932.266 38.2764 916.578 28.0402 904.606C32.8245 822.471 48.624 740.647 73.5916 663.564C106.392 664.12 141.885 652.326 157.863 621.84C166.208 605.796 168.611 587.727 175.309 571.104C184.299 548.94 200.499 544.601 222.262 540.795C236.927 538.214 252.059 534.987 261.739 522.659C273.466 507.75 269.861 489.191 266.211 472.079C260.737 446.644 267.146 423.19 266.79 397.71C266.612 386.317 265.121 371.808 258.579 361.572C314.678 314.752 380.724 285.178 451.933 265.595C542.702 240.583 640.503 227.276 732.429 254.135C812.517 277.545 884.593 332.332 911.163 413.821C921.867 446.622 924.448 481.536 917.906 515.294C915.77 513.959 913.544 512.601 911.341 511.311C902.774 506.371 892.115 518.965 900.371 525.53C946.745 562.358 985.398 610.602 990.071 671.775C994.722 732.458 965.349 791.562 911.074 820.246C859.114 847.639 789.797 853.269 732.629 842.209C672.102 830.526 622.99 793.186 608.837 731.19C601.182 697.477 604.987 662.451 617.293 630.341C623.925 613.028 633.159 596.694 643.685 581.496C653.521 567.232 665.782 554.926 674.75 540.083C677.331 535.833 672.28 531.227 668.141 533.474C639.368 549.074 617.761 583.365 604.52 612.36C598.178 626.268 593.238 640.733 589.922 655.62C584.448 652.104 577.728 650.368 571.631 646.808C559.325 639.576 548.265 628.916 540.566 616.9C523.231 589.752 526.124 559.443 530.797 529.179C531.242 526.309 527.637 523.082 525.278 525.953C503.292 552.834 505.473 592.511 520.56 622.307C520.627 622.463 520.739 622.597 520.805 622.752C475.922 630.051 440.451 651.459 413.057 681.478C413.169 647.03 387.578 611.515 356.046 598.408C333.37 588.973 305.888 588.239 284.37 601.345C259.402 616.544 258.178 641.89 257.155 668.326C255.819 702.506 229.361 725.694 222.685 758.695C217.634 783.551 221.639 810.343 240.287 828.746C269.216 857.207 310.917 854.114 342.872 834.955C337.02 864.929 334.194 895.482 333.838 924.922C328.608 937.05 321.599 947.887 310.472 956.922C293.849 970.452 273.555 974.858 255.174 984.827C229.561 998.69 219.325 1032.45 239.13 1056.15C243.803 1061.73 249.789 1065.58 256.086 1069.21C267.88 1076.04 274.022 1081.56 278.695 1094.98C283.769 1109.58 289.799 1121.55 303.774 1129.34C326.16 1141.82 358.204 1137.64 378.276 1121.21C394.61 1150.72 415.728 1177.47 442.12 1199.68C459.032 1213.94 478.258 1226.56 498.797 1236.55C485.802 1261.36 445.124 1256.33 423.961 1272.56C403.021 1288.62 390.871 1317.33 393.92 1343.5C396.346 1364.61 410.142 1384.91 430.637 1392.12C462.57 1403.38 493.212 1378.95 524.922 1378.03C557.433 1377.1 586.473 1399.04 619.029 1394.26C639.234 1391.32 657.638 1378.37 660.33 1357.03C662.444 1340.34 655.546 1325.96 663.045 1309.58C669.298 1296.01 680.068 1285.15 687.256 1272.13C696.736 1254.98 701.765 1232.9 691.462 1216.03C695.245 1209.29 697.848 1201.72 698.894 1193.42C702.699 1163.45 685.476 1137.15 654.9 1132.72C637.165 1130.14 618.873 1135.99 601.383 1132.03C573.544 1125.78 581.021 1093.42 584.582 1072.01C589.544 1042.39 602.339 1019.61 623.524 1004.92C635.852 1008.9 648.091 1021.19 654.811 1029.53C666.494 1044.13 669.12 1061.93 676.285 1078.67C686.544 1102.7 709.175 1115.54 734.276 1104.32C758.732 1093.44 772.951 1069.01 784.946 1046.38C792.178 1032.74 799.032 1018.81 809.157 1006.99C819.104 995.375 829.918 990.301 842.691 985.183C866.168 985.361 889.623 986.518 912.32 991.036C950.128 998.579 979.346 1017.05 989.626 1055.12C979.835 1053.81 968.642 1057.53 960.876 1063.8C952.197 1070.81 948.503 1080.09 945.566 1090.55C943.941 1096.42 943.207 1104.66 939.246 1109.42C929.767 1120.81 915.08 1115.16 903.241 1113.38C878.429 1109.64 853.084 1114.43 831.32 1126.96C811.693 1138.24 788.462 1159.53 784.367 1183.03C779.471 1211.09 812.138 1222.2 830.519 1234.06C837.662 1238.66 848.01 1247.41 847.431 1257.11C846.853 1267.17 834.592 1272.64 827.315 1277.41C814.787 1285.68 802.347 1294.74 792.222 1305.89C754.482 1347.48 761.736 1406.27 815.232 1428.61C845.963 1441.45 897.945 1444.99 933.906 1428.21C888.51 1490.19 823.732 1537.59 750.209 1560.28C703.968 1574.55 655.457 1580.64 607.324 1584.05C560.727 1587.32 513.551 1587.03 467.577 1578.35C395.5 1564.78 327.963 1533.25 269.171 1489.74C207.219 1443.9 158.419 1388.43 121.257 1326.61C118.72 1313.21 114.87 1299.5 115.894 1286.49Z" fill="#3D2938"/>
<path d="M315.296 432.092C339.752 452.52 367.256 474.328 394.872 490.149C420.996 505.059 446.765 498.828 474.448 491.93C508.027 483.585 541.25 473.972 574.207 463.446C576.454 462.979 578.702 462.244 580.883 461.31C581.038 461.265 581.127 461.243 581.283 461.199C582.596 460.753 583.686 460.175 584.576 459.463C593.9 454.167 600.91 444.843 600.331 434.161C598.707 404.699 552.822 374.145 532.505 357.478C511.81 340.499 491.76 326.458 464.122 325.167C430.521 323.61 395.383 336.383 363.384 345.017C347.406 349.289 331.051 353.25 315.362 358.546C305.638 361.773 294.779 365.845 288.971 374.925C275.463 396.087 300.342 419.608 315.296 432.092ZM579.503 434.718C557.406 443.24 517.774 437.477 493.34 436.097C477.162 435.185 461.808 433.85 449.146 422.879C445.007 419.297 441.313 415.113 437.819 410.952C435.416 408.059 433.146 405.077 430.921 402.051C430.854 401.984 430.854 401.939 430.81 401.873C434.726 399.981 444.161 399.58 447.722 398.868C455.043 397.422 462.409 396.065 469.863 395.241C484.127 393.639 498.725 393.328 512.789 396.554C533.217 401.205 570.09 415.113 579.503 434.718ZM316.186 379.553C327.735 373.701 342.578 371.72 355.061 368.226C367.656 364.733 380.296 361.372 392.913 358.101C418.415 351.537 447.232 341.256 473.847 346.307C497.145 350.691 515.726 367.67 532.928 383.069C521.267 378.418 509.162 375.458 497.546 374.657C479.121 373.389 460.54 376.171 442.448 379.709C431.522 381.845 414.499 382.468 409.759 394.707C405.553 405.633 415.567 415.068 421.953 422.946C431.566 434.851 442.938 445.8 457.602 451.073C475.961 457.638 497.702 456.592 516.928 457.104C519.42 457.171 521.979 457.26 524.472 457.282C514.992 459.997 505.49 462.689 495.944 465.226C473.201 471.257 442.604 483.985 418.927 478.4C394.76 472.659 371.529 448.782 351.857 434.451C340.019 425.817 289.527 393.083 316.186 379.553Z" fill="#3D2938"/>
<path d="M740.149 518.387C759.464 509.063 771.392 486.41 768.165 465.18C766.563 454.521 761.445 444.463 754.257 436.408C754.101 436.252 753.968 436.074 753.812 435.94C742.775 423.857 726.374 416.313 710.13 417.871C669.63 421.721 655.321 479.734 681.068 507.327C695.71 523.038 720.856 527.755 740.149 518.387Z" fill="#3D2938"/>
<path d="M800.255 496.938C812.004 503.28 827.359 499.186 837.239 490.218C847.542 480.849 853.172 466.273 850.568 452.633C849.144 445.267 846.073 439.392 842.001 434.986C826.112 417.963 799.075 425.151 788.261 444.021C781.295 456.171 781.229 471.993 788.016 484.276C790.886 489.506 795.003 494.112 800.255 496.938Z" fill="#3D2938"/>
<path d="M666.429 650.48C665.005 651.504 664.894 654.174 666.941 654.575C685.856 658.247 700.654 660.494 715.029 674.535C729.137 688.354 737.237 709.183 739.774 728.543C743.112 754.378 726.489 778.945 699.452 761.165C677.311 746.568 696.915 724.181 701.855 705.778C702.768 702.396 699.163 700.082 696.226 701.506C671.614 713.411 657.906 748.615 679.314 770.2C699.742 790.806 732.653 794.878 750.634 769.51C769.793 742.473 757.265 701.283 740.064 676.271C725.532 655.287 691.397 632.789 666.429 650.48Z" fill="#3D2938"/>
<path d="M880.501 743.474C901.975 759.295 937.735 743.006 947.749 720.464C957.829 697.7 937.757 661.094 911.276 678.651C905.513 682.457 907.471 692.003 914.859 692.003C931.927 692.003 937.357 707.179 926.431 719.285C922.18 724.047 915.571 727.407 909.696 729.343C882.014 738.333 881.747 706.089 887.533 688.487C892.005 674.801 898.882 661.405 908.984 650.991C919.688 639.887 932.617 637.751 944.611 629.295C946.213 628.204 946.97 625.712 945.256 624.243C906.559 590.686 833.57 708.871 880.501 743.474Z" fill="#3D2938"/>
<path d="M183.97 1368.53C191.847 1387.05 210.428 1404.25 225.916 1416.35C243.407 1430.04 266.238 1438.52 287.779 1429.31C305.559 1421.72 323.962 1402.02 326.432 1382.37C329.369 1359.14 308.874 1335.24 297.37 1316.73C285.976 1298.37 270.043 1279.86 246.923 1277.94C226.25 1276.23 204.754 1290.54 191.536 1305.56C181.188 1317.35 178.429 1331.62 180.276 1345.84C179.808 1353.65 181.01 1361.59 183.97 1368.53ZM198.211 1342.25C198.79 1337.82 199.769 1333.4 200.503 1328.97C201.305 1326.39 202.395 1324.01 203.797 1321.78C211.741 1309.52 233.081 1294.9 248.369 1297.95C265.415 1301.4 275.406 1318.44 283.528 1332.13C290.382 1343.7 303.445 1359.03 306.204 1372.27C309.698 1389.23 290.627 1409.03 275.362 1412.91C257.181 1417.49 240.158 1404.49 227.741 1393.01C217.505 1383.53 204.22 1372.36 199.435 1359.01C198.567 1356.49 198.1 1354.07 197.878 1351.6C197.922 1348.53 197.989 1345.37 198.211 1342.25Z" fill="#3D2938"/>
<path d="M629.731 1530.46C640.078 1534.38 650.782 1532.71 661.486 1531.51C676.15 1529.84 690.192 1530.18 704.567 1533.71C727.131 1539.37 747.826 1548.62 771.236 1540.92C788.771 1535.16 802.635 1521.12 806.084 1502.67C809.711 1483.22 798.563 1468.16 784.61 1456.23C776.488 1449.29 767.453 1443.06 762.046 1433.62C757.15 1425.1 753.456 1417.24 745.245 1411.26C730.558 1400.55 711.02 1400.09 693.752 1403.27C651.116 1411.17 603.094 1444.19 606.432 1490.48C604.941 1507.23 611.439 1523.57 629.731 1530.46ZM622.098 1498.8C623.812 1455.21 661.775 1426.66 702.698 1421.76C712.956 1420.54 724.483 1420.71 733.206 1426.88C740.283 1431.84 743.732 1440.3 748.494 1447.28C757.128 1459.95 769.723 1467.11 779.625 1478.42C798.896 1500.49 775.776 1523.59 751.965 1524.61C732.45 1525.46 714.225 1515.04 695.02 1512.71C685.875 1511.57 676.684 1511.44 667.516 1512.42C658.081 1513.44 646.242 1517.78 636.963 1515.02C628.44 1512.48 623.901 1506.7 621.965 1499.6C622.076 1499.31 622.098 1499.07 622.098 1498.8Z" fill="#3D2938"/>
</g>
<defs>
<filter id="filter0_d_403_14069" x="0.0625" y="0.178711" width="1222.79" height="1615.4" filterUnits="userSpaceOnUse" color-interpolation-filters="sRGB">
<feFlood flood-opacity="0" result="BackgroundImageFix"/>
<feColorMatrix in="SourceAlpha" type="matrix" values="0 0 0 0 0 0 0 0 0 0 0 0 0 0 0 0 0 0 127 0" result="hardAlpha"/>
<feOffset dy="4"/>
<feGaussianBlur stdDeviation="2"/>
<feComposite in2="hardAlpha" operator="out"/>
<feColorMatrix type="matrix" values="0 0 0 0 0 0 0 0 0 0 0 0 0 0 0 0 0 0 0.25 0"/>
<feBlend mode="normal" in2="BackgroundImageFix" result="effect1_dropShadow_403_14069"/>
<feBlend mode="normal" in="SourceGraphic" in2="effect1_dropShadow_403_14069" result="shape"/>
</filter>
</defs>
</svg>
