<svg width="1565" height="1562" viewBox="0 0 1565 1562" fill="none" xmlns="http://www.w3.org/2000/svg">
<g filter="url(#filter0_d_403_14111)">
<path d="M54.1812 891.789C37.8031 911.26 49.1299 928.016 60.1005 944.216C64.8181 951.203 69.7136 958.435 72.3839 965.846C73.3853 968.649 72.295 972.611 69.8694 974.836C45.0798 997.689 29.6588 1027.4 26.4321 1058.48L26.254 1060.2C25.5197 1067.03 24.6074 1075.51 27.0552 1081.83C31.706 1093.62 43.6111 1094.71 54.1144 1095.65C55.5386 1095.78 56.9851 1095.91 58.387 1096.07C76.5675 1098.03 94.7481 1099.99 112.929 1101.9C116.333 1102.25 119.115 1103.66 120.762 1105.84C122.341 1107.91 122.853 1110.58 122.186 1113.78C116.511 1141.09 108.745 1178.47 133.401 1200.66C151.27 1216.77 181.979 1216.99 206.657 1217.17C209.439 1217.19 212.131 1217.21 214.713 1217.26C217.16 1217.3 219.542 1217.32 221.834 1217.32C237.477 1217.32 249.983 1216.3 261.688 1214.08L264.603 1213.54C276.086 1211.45 293.465 1208.29 300.23 1199.74C306.795 1191.47 298.739 1172.75 293.421 1160.36C292.241 1157.6 291.218 1155.22 290.572 1153.44C289.126 1149.43 287.679 1145.45 286.233 1141.44C283.362 1133.54 280.492 1125.66 277.733 1117.74C263.424 1076.53 250.295 1027.93 261.31 979.865C270.411 940.188 293.933 908.322 325.888 892.456C326.511 892.145 326.889 891.521 326.867 890.854C326.511 879.082 326.132 867.288 325.821 855.539C325.798 855.138 325.665 854.76 325.398 854.471C280.87 803.668 197.111 825.586 137.985 846.526L135.426 847.439C107.543 857.252 72.918 869.491 54.1812 891.789Z" fill="#402F38"/>
<path d="M1070.78 1530.09C1075.05 1530.02 1079.12 1529.98 1082.82 1530.02C1108.63 1530.38 1134.73 1529.62 1160.46 1527.82C1164.22 1527.55 1168.45 1527.42 1172.94 1527.26C1195.68 1526.48 1226.82 1525.41 1238.39 1506.59C1247.78 1491.23 1246.96 1469.65 1246.2 1450.62C1246.04 1446.51 1245.89 1442.57 1245.84 1438.9C1245.78 1429.33 1245.51 1419.09 1245 1406.72C1244.97 1406.14 1244.66 1405.63 1244.15 1405.32C1243.64 1405 1243.02 1404.96 1242.46 1405.18C1235.25 1408.16 1226.62 1409.83 1220.32 1411.06L1219.12 1411.28C1192.06 1416.51 1163.69 1420.05 1134.8 1421.83C1104.54 1423.68 1074.61 1423.36 1045.83 1420.89C1042.45 1420.6 1038.74 1420.38 1034.82 1420.14C1021.05 1419.29 1003.87 1418.25 990.937 1413.26C990.381 1413.04 989.758 1413.1 989.246 1413.44C988.734 1413.77 988.445 1414.31 988.445 1414.89L988.4 1429.48C988.378 1438.32 988.378 1447.17 988.334 1456.03C988.334 1458.08 988.289 1460.17 988.245 1462.35C987.955 1480.29 987.599 1502.61 1002.13 1515.96C1015.93 1528.62 1039.14 1530.2 1060.14 1530.2C1063.82 1530.18 1067.38 1530.13 1070.78 1530.09Z" fill="#402F38"/>
<path d="M414.59 1533.96C425.65 1534.87 436.887 1535.2 448.147 1535.2C462.055 1535.2 476.008 1534.72 489.715 1534.23C500.486 1533.85 511.634 1533.45 522.449 1533.31L579.795 1532.58C581.953 1532.56 584.312 1532.6 586.804 1532.65C602.448 1532.94 623.81 1533.31 628.706 1515.58C632.2 1502.98 631.065 1488.41 629.974 1474.32C629.596 1469.31 629.218 1464.57 629.084 1460.06C628.728 1448.35 628.283 1436.63 627.771 1424.92C627.749 1424.36 627.438 1423.85 626.948 1423.54C626.459 1423.23 625.858 1423.16 625.301 1423.36C615.176 1427.1 602.604 1428.21 591.522 1429.21C587.472 1429.57 583.667 1429.93 580.306 1430.35C551.867 1434.07 523.985 1436.02 497.482 1436.2C468.82 1436.31 440.915 1434.73 414.545 1431.44C411.831 1431.08 409.027 1430.77 406.178 1430.44C392.604 1428.86 378.563 1427.23 366.168 1422.49C365.59 1422.27 364.944 1422.34 364.455 1422.69C363.965 1423.03 363.676 1423.58 363.676 1424.19C364.054 1434.31 364.477 1444.48 364.877 1454.63L365.033 1458.79C366.346 1490.54 367.926 1530.11 414.59 1533.96Z" fill="#402F38"/>
<path d="M786.08 558.109C786.77 573.307 786.948 586.592 786.614 598.72C786.458 604.261 785.813 610.047 785.19 615.632C784.389 622.953 783.543 630.519 783.743 637.84C784.388 658.802 798.897 660.694 812.939 662.519C815.208 662.808 817.478 663.12 819.748 663.498C819.948 663.542 820.149 663.542 820.349 663.498L820.95 663.386C827.47 662.252 832.721 663.386 836.972 666.88C842.535 671.442 846.54 680.299 847.742 690.78C849.656 698.034 850.746 704.71 851.125 707.269C852.237 714.279 852.482 721.956 852.727 729.366C853.038 739.246 853.35 749.438 855.709 758.606C858.334 768.798 867.28 771.335 874.802 772.403C875.18 772.447 875.558 772.381 875.914 772.225L876.938 771.713C880.565 769.866 884.37 767.974 888.331 768.13C894.428 768.375 899.48 770.89 904.197 776.097C908.247 780.525 910.005 787.223 911.741 793.676C913.432 800.063 915.212 806.694 919.196 811.278C919.396 811.501 919.663 811.679 919.952 811.79C922.378 812.658 924.737 813.103 926.828 813.103C928.453 813.103 929.899 812.836 931.123 812.302C939.757 808.541 941.471 791.073 936.352 758.673C934.483 746.701 931.39 734.039 926.895 720.02C918.995 695.408 908.247 671.42 897.833 648.232C887.931 626.158 877.694 603.348 869.973 580.072C861.739 555.193 857.489 532.74 856.999 511.4C856.665 495.645 856.22 474.082 874.49 465.96C879.875 463.557 887.686 463.29 895.252 463.023C910.094 462.511 926.917 461.932 927.474 444.152C927.741 434.917 923.869 424.948 920.13 415.313C918.328 410.684 916.614 406.3 915.479 402.228C912.008 389.789 909.494 377.372 907.98 365.266C901.549 312.905 917.104 265.997 949.593 239.761C949.993 239.449 950.216 238.982 950.238 238.492C950.261 238.003 950.083 237.535 949.704 237.179C944.519 232.172 938.667 226.476 933.66 220.356C923.424 207.873 916.103 193.119 911.941 176.54C911.808 176.051 911.474 175.628 911.007 175.406C910.539 175.183 909.983 175.139 909.494 175.339C906.245 176.563 902.862 177.675 899.569 178.766C894.317 180.479 888.865 182.282 883.725 184.641C872.131 189.959 861.672 196.145 852.638 203.044C835.347 216.151 820.46 233.196 808.377 253.713C785.879 291.854 775.02 339.119 775.154 398.201C775.243 429.466 778.135 461.042 780.939 491.595C782.987 513.403 785.056 535.923 786.08 558.109Z" fill="#402F38"/>
<path d="M1106.25 87.5535C1106.38 87.5535 1106.49 87.5313 1106.62 87.5091C1116.95 85.3505 1127.32 83.9264 1137 82.7248C1159.88 79.8542 1181.95 80.21 1202.65 83.8372C1203.22 83.9484 1203.82 83.7482 1204.25 83.3699C1204.67 82.9694 1204.87 82.4132 1204.76 81.8569C1204 77.3841 1203.4 72.555 1202.73 67.4369C1200.13 46.9644 1197.42 25.7799 1185.24 20.506C1179.08 17.8356 1171.47 19.5715 1161.97 25.8468C1148.99 34.3696 1136.18 45.9187 1122.85 61.1396C1118.84 65.7237 1115.21 70.7082 1111.7 75.5148C1109.43 78.6302 1107.16 81.7456 1104.78 84.7719C1104.31 85.3505 1104.29 86.1515 1104.69 86.7746C1105.07 87.2642 1105.65 87.5535 1106.25 87.5535Z" fill="#AB6550"/>
<path d="M1086.02 160.562C1087.58 165.191 1089.2 170.064 1090.72 175.071C1090.9 175.672 1091.41 176.139 1092.03 176.273L1092.41 176.362C1106.27 180.1 1119.02 190.826 1131.35 201.174C1135.98 205.046 1140.32 208.717 1144.66 211.944C1157.36 221.468 1165.42 223.382 1178.59 223.382C1180.57 223.382 1182.69 223.337 1184.96 223.271L1220.63 222.113C1227.95 221.891 1235.54 222.002 1243.55 222.091C1262.75 222.358 1282.63 222.648 1300.01 218.108C1315.78 213.969 1312.56 202.42 1309.42 191.249L1309.28 190.804C1306.66 181.591 1302.65 172.579 1297.38 164.012C1277.33 131.345 1240.66 107.378 1199.29 99.9235C1175.35 95.6287 1149.71 95.9847 1123.12 101.014C1114.26 102.683 1105.36 105.487 1096.77 108.179C1087.38 111.117 1077.7 114.188 1068.11 115.723C1067.53 115.812 1067.02 116.19 1066.77 116.702C1066.53 117.214 1066.55 117.815 1066.84 118.304C1074.43 131.077 1080.88 145.275 1086.02 160.562Z" fill="#402F38"/>
<path d="M1538.51 534.632C1530.5 484.297 1480.81 476.953 1444.91 450.383C1426.46 436.742 1413.6 418.228 1398.94 401.116C1383.16 382.713 1362.42 369.25 1346.58 351.047C1317.45 317.601 1310.66 259.076 1264.15 242.097C1263.06 241.674 1262.19 241.163 1261.39 240.562C1254.54 240.495 1247.93 240.362 1241.99 240.54C1222.94 241.163 1203.91 241.764 1184.91 242.364C1174.03 242.72 1162.03 244.456 1151.73 240.139C1140.23 235.243 1129.77 224.785 1119.98 217.33C1113.23 212.19 1105.31 207.272 1098.24 201.664C1099.1 210.543 1098.68 219.288 1095.99 227.455C1094.61 231.75 1088.38 232.751 1085.93 228.701C1076.43 213.124 1075.25 194.009 1070.35 176.785C1064.72 156.958 1056.65 137.754 1045.16 120.375C1034.28 103.863 1020.13 88.9983 1003.39 77.8497C990.911 69.5494 963.651 53.1046 948.163 59.2464C934.545 64.6538 931.095 104.553 929.137 117.838C926.155 138.11 926.044 159.094 931.963 178.944C938.305 200.106 951.968 214.126 966.366 230.437C973.91 238.982 985.993 251.555 981.031 263.393C980.563 264.573 979.362 265.485 977.982 265.062C971.484 263.149 966.767 257.941 962.316 252.779C939.062 277.702 926.378 305.852 925.977 340.099C925.799 358.39 928.781 376.482 933.521 394.151C937.371 408.392 943.757 422.256 946.227 436.809C949.454 455.635 942.199 473.638 921.905 479.156C911.847 481.871 901.432 480.135 891.285 481.604C874.84 484.007 876.509 498.004 876.843 511.489C878.045 564.384 904.036 613.362 924.931 661.117C935.168 684.482 944.936 708.181 951.167 732.86C955.751 750.951 960.135 772.247 958.6 791.874C959.223 802.756 956.575 813.949 950.433 822.805C931.808 849.754 888.771 844.524 859.864 846.994C829.556 849.576 799.181 851.156 768.739 851.534C740.434 851.912 712.061 851.4 683.778 849.865C666.532 848.93 648.463 847.974 632.575 840.853C596.837 824.786 599.618 785.666 597.704 753.266C594.834 705.088 591.963 656.933 589.115 608.756C583.752 517.92 576.075 426.795 576.587 335.737C576.742 311.793 578.367 287.849 578.367 263.883C578.411 253.446 578.144 242.898 576.809 232.529C576.297 228.345 575.585 221.313 573.938 216.774C570.267 206.337 566.907 201.441 556.114 198.126C545.7 194.944 532.459 195.678 521.489 194.677C509.939 193.586 498.368 192.585 486.797 191.806C463.721 190.226 440.555 189.47 417.413 190.293C395.338 191.139 362.025 189.87 343.422 203.177C325.709 215.884 330.093 244.901 329.781 263.504C329.447 279.504 329.381 295.415 329.047 311.303C335.945 385.605 334.855 461.087 336.702 535.522C338.816 619.971 341.063 704.465 343.489 788.915C347.761 937.007 352.702 1085.08 358.109 1233.15C360.245 1291.8 362.537 1350.42 364.852 1409.03C383.388 1408.16 403.549 1413.39 421.173 1415.04C444.249 1417.18 467.325 1418.4 490.535 1418.33C514.813 1418.2 539.135 1416.93 563.302 1414.28C582.906 1412.13 606.806 1411.21 624.875 1402.45C623.139 1368.62 620.803 1334.82 617.843 1301.08C616.13 1281.95 614.283 1262.83 612.191 1243.72C610.478 1227.87 607.14 1211.49 608.341 1195.54C612.948 1134.79 688.763 1141.46 734.114 1141.24C776.505 1141 818.919 1140.8 861.311 1140.57C888.771 1140.44 942.133 1129.92 965.899 1145.78C983.612 1157.62 986.661 1179.61 987.684 1198.74C990.777 1257.11 989.976 1315.95 990.221 1374.38C990.221 1382.13 990.221 1389.89 990.265 1397.59C1006.02 1396.06 1024.45 1400.91 1038.89 1402C1063.97 1403.89 1089.18 1404.63 1114.37 1403.85C1140.85 1403.05 1167.31 1400.71 1193.48 1396.55C1204.92 1394.72 1216.71 1393.12 1227.81 1389.94C1232.78 1388.52 1237.32 1386.13 1242.03 1384.18C1239.96 1350.55 1236.67 1317.04 1233.53 1283.53C1228.7 1231.81 1225.14 1180.3 1224.9 1128.34C1224.68 1076.91 1224.74 1025.71 1219.36 974.414C1209.34 879.216 1188.47 784.598 1192.83 688.577C1189.38 689.445 1185.89 690.157 1182.35 690.602C1161.59 693.361 1140.47 692.115 1120.07 687.42C1077.61 677.673 1038.82 652.861 1013.3 618.77C960.202 547.828 973.554 436.364 1042.63 379.353C1046.48 376.17 1053.62 380.532 1050.15 384.938C1019.77 423.168 999.478 467.184 999.634 515.962C999.79 563.516 1020.28 608.378 1059.36 638.13C1090.71 661.985 1131.33 675.091 1171.31 672.199C1195.7 670.463 1217.09 657.89 1240.92 653.373C1257.59 650.235 1275.08 651.793 1290.97 657.534C1308.46 663.854 1323.88 674.847 1334.74 689.556C1339.97 696.677 1342.97 705.266 1348.38 712.209C1358.46 725.049 1372.03 720.332 1385.5 716.638C1396.02 713.745 1406.28 710.874 1417.36 711.23C1429.62 711.653 1442.15 717.26 1454.37 713.878C1475.75 707.937 1500.1 683.458 1513.01 666.68C1528.96 645.918 1533.19 620.728 1536.44 595.716C1539.09 575.688 1541.71 554.793 1538.51 534.632ZM592.742 981.824C576.164 983.003 553.8 973.457 559.942 953.897C566.973 931.444 619.757 924.879 625.743 951.315C629.949 969.963 608.831 980.689 592.742 981.824ZM680.107 937.363C669.225 939.321 657.965 937.919 647.217 935.404C632.664 932.022 617.176 925.28 611.612 911.883C606.672 899.978 611.679 885.603 621.693 877.147C631.707 868.691 645.793 865.664 659.078 866.821C681.33 868.713 715.043 883.467 712.506 907.121C712.061 911.416 710.437 915.955 707.322 920.762C701.514 929.819 690.988 935.427 680.107 937.363ZM759.905 994.13C741.502 995.465 707.856 990.947 710.593 966.825C713.997 936.495 778.998 926.926 791.348 955.232C800.16 975.415 779.354 992.728 759.905 994.13ZM795.643 912.039C780.956 913.263 750.292 912.462 752.495 891.188C755.098 866.087 808.572 860.457 820.321 881.197C829.645 897.73 810.93 910.748 795.643 912.039ZM941.532 900.601C940.953 904.584 939.396 908.39 936.859 911.572C931.452 918.337 922.417 921.563 913.627 922.743C894.467 925.435 874.217 919.85 859.441 907.811C855.169 904.317 851.141 900.067 849.895 894.749C848.382 888.184 851.564 881.197 856.682 876.635C861.8 872.051 868.543 869.559 875.33 867.934C897.649 862.638 932.564 863.595 940.642 889.208C941.821 892.879 942.11 896.818 941.532 900.601ZM1003.13 940.678C1006.62 943.438 1008.87 947.688 1009 951.961C1009.07 953.674 1008.78 955.343 1008.16 956.945C1006.15 961.863 1001.15 965.112 995.962 966.87C985.548 970.386 973.398 968.895 964.252 962.953C961.203 960.995 958.444 958.48 956.953 955.298C955.44 952.094 955.395 948.133 957.509 945.24C958.845 943.393 960.959 942.169 963.095 941.146C973.576 936.139 993.225 932.823 1003.13 940.678ZM1034.21 206.36C1033.59 210.298 1032.41 214.148 1029.96 217.308C1023.24 225.986 1009.56 226.253 998.988 222.582C981.921 216.662 968.502 202.821 961.471 186.733C952.236 165.57 946.65 118.973 980.252 114.589C991.445 113.12 1002.88 117.838 1011.09 125.315C1019.28 132.792 1024.6 142.783 1028.3 153.064C1033.9 168.663 1036.13 185.375 1034.77 201.842C1034.62 203.355 1034.46 204.869 1034.21 206.36ZM1177.46 407.324C1161.75 395.664 1158.45 371.342 1170.49 356.187C1182.55 341.033 1207.81 337.717 1223.63 349.2C1229.17 353.25 1233 357.901 1235.36 362.774C1249.64 392.437 1210.75 432.069 1177.46 407.324ZM1482.3 596.895C1469.81 603.26 1444.73 609.846 1437.23 593.691C1436.1 591.221 1435.63 588.551 1435.5 585.791C1434.81 583.277 1434.99 581.074 1435.85 579.093C1436.59 573.953 1438.08 568.857 1439.04 564.406C1442.26 550.298 1445.29 536.857 1446.8 522.482C1447.03 520.212 1449.74 519.122 1451.39 520.769C1452.59 520.39 1453.92 520.479 1455.24 521.28C1463.76 526.599 1463.36 533.497 1467.08 541.842C1472.48 554.036 1483.36 552.234 1492.51 559.822C1507.26 572.039 1496.49 589.619 1482.3 596.895Z" fill="#FF9752"/>
<path d="M683.241 890.832C676.81 887.072 654.356 875.611 635.798 886.715C629.122 890.721 624.293 899.577 628.165 906.854C630.924 912.128 636.933 914.576 642.362 916.445L643.697 916.89C645.389 917.446 647.08 918.025 648.816 918.537C654.178 920.139 661.032 921.83 668.109 921.83C673.071 921.83 678.167 920.985 682.907 918.693C689.227 915.644 694.79 908.879 693.143 901.914C691.897 896.462 686.912 892.991 683.241 890.832Z" fill="#FFB88F"/>
<path d="M595.255 947.509C594.12 947.576 593.007 947.576 591.895 947.576C587.533 947.576 582.571 947.554 578.254 951.759C574.315 955.587 574.426 958.547 575.205 960.349C576.963 964.377 583.661 966.224 589.158 966.224C589.336 966.224 607.583 966.112 609.341 956.9C609.697 955.031 609.163 953.25 607.783 951.759C604.824 948.533 598.526 947.331 595.255 947.509Z" fill="#FFB88F"/>
<path d="M905.655 880.485L903.853 880.263C897.11 879.44 890.145 878.572 882.69 880.085C875.814 881.509 868.471 883.534 866.312 887.74C865.155 890.076 865.044 892.324 866.023 894.416C868.515 899.823 877.572 902.404 882.445 903.784L883.936 904.229C887.408 905.297 897.355 907.634 906.59 907.634C912.464 907.634 918.072 906.699 921.521 903.873C924.37 901.559 925.505 898.288 924.882 894.171C923.635 886.227 914.267 883.222 905.655 880.485Z" fill="#FFB88F"/>
<path d="M770.32 955.343C763.421 951.738 748.312 950.269 737.675 953.963C732.29 955.833 728.573 958.859 726.971 962.731C725.503 966.247 725.703 969.318 727.55 971.899C732.201 978.352 746.465 979.242 754.053 979.242C754.72 979.242 755.344 979.242 755.9 979.22C763.243 979.042 775.46 973.501 777.285 966.18C778.041 963.265 777.418 959.037 770.32 955.343Z" fill="#FFB88F"/>
<path d="M796.309 884.623C792.081 884.133 787.942 884.578 783.937 885.024C780.821 885.38 777.862 885.691 774.857 885.602C774.679 885.602 774.524 885.624 774.368 885.647C772.12 886.203 766.824 887.471 766.824 891.365C766.824 892.189 767.113 893.39 768.382 894.481C771.742 897.374 780.376 897.885 786.117 897.885C789.255 897.885 791.525 897.73 791.592 897.73L792.593 897.641C797.11 897.218 801.672 896.617 803.63 894.414C805.433 892.411 806.011 890.52 805.344 888.829C804.431 886.603 801.472 885.201 796.309 884.623Z" fill="#FFB88F"/>
<path d="M978.648 957.213C979.115 957.302 981.497 957.547 984.367 957.547C988.261 957.547 993.09 957.102 995.449 955.232C996.784 954.187 997.051 952.963 997.051 952.117C997.051 946.843 986.659 946.776 981.675 946.754L980.807 946.776C977.513 947.221 973.419 947.778 969.992 949.291C969.525 949.491 969.191 949.87 969.013 950.337C968.857 950.804 968.901 951.316 969.146 951.739C971.282 955.366 975.154 956.545 978.648 957.213Z" fill="#FFB88F"/>
<path d="M992.155 130.366C988.884 129.009 983.988 127.362 979.471 128.964C973.307 131.19 971.059 137.843 969.925 142.65C967.121 154.555 965.43 172.246 973.24 188.958C980.428 204.335 995.137 215.461 1010.65 217.308C1011.56 217.419 1012.41 217.486 1013.21 217.486C1013.54 217.486 1013.85 217.464 1014.16 217.442C1015.54 217.353 1016.79 216.996 1017.86 216.44C1021.2 214.682 1022.37 211.01 1023.09 207.65C1027.74 185.642 1029.9 146.366 992.155 130.366Z" fill="#FFA7B4"/>
<path opacity="0.1" d="M1473.29 619.483C1407.02 593.87 1364.76 534.923 1322.88 482.428C1281.58 430.691 1232.73 375.059 1159.17 374.08C1084.06 373.079 1004.06 412.866 986.306 486.901C970.351 553.393 994.05 625.692 1016.93 688.066C1035.89 739.759 1058.74 789.828 1074.98 842.434C1095.21 907.968 1111.23 974.86 1122.85 1042.29C1134.62 1110.65 1143.57 1181.5 1136.51 1250.79C1131.91 1295.92 1119.71 1352.07 1073.85 1375.03C1069.35 1377.28 1063.68 1376.14 1061.05 1371.8C1043.25 1342.41 1041.14 1306.67 1039.49 1273.49C1037.53 1233.84 1039.16 1192.49 1027.43 1154.02C1016.7 1118.9 993.071 1084.25 962.14 1062.67C933.501 1042.69 898.697 1033.83 863.938 1030.38C775.906 1021.66 667.313 1029.11 616.821 1109.78C576.121 1174.78 577.211 1258.63 576.744 1331.95C576.277 1404.72 580.572 1481.02 562.035 1552.34C586.38 1553.32 616.799 1555.41 634.49 1541.42C658.234 1522.59 649.667 1482.27 648.865 1456.72C647.708 1419.47 645.772 1382.22 643.102 1344.99C640.053 1302.35 635.514 1259.92 631.019 1217.39C628.994 1198.39 628.949 1178.85 649.066 1169.33C662.996 1162.74 679.886 1162.58 695.04 1162.41C742.861 1161.78 790.66 1161.56 838.503 1161.47C865.496 1161.4 892.288 1157.11 919.348 1158.29C963.119 1160.2 965.611 1177.25 966.523 1218.02C967.102 1245.21 967.614 1272.4 967.948 1299.62C968.682 1354 968.504 1408.41 968.638 1462.84C968.704 1498.44 976.47 1533.72 1016.97 1544.09C1040.2 1550.03 1066.15 1548.98 1089.96 1549.11C1118.15 1549.25 1146.35 1548.14 1174.45 1545.73C1193.5 1544.09 1215.75 1544 1233.38 1535.9C1252.36 1527.17 1260.77 1509.62 1263.69 1490.41C1270.81 1442.9 1264.82 1391.99 1260.86 1344.37C1256.39 1290.32 1250.05 1236.37 1247.87 1182.21C1245.68 1128.47 1248.15 1074.69 1245.17 1020.99C1238.83 907.456 1208.63 795.658 1215.27 681.613C1228.68 676.829 1242.08 672.022 1256.23 671.621C1282.33 670.887 1307.73 684.261 1321.14 705.735C1331.6 722.491 1339.79 740.36 1363.2 740.916C1373.66 741.161 1383.74 737.913 1393.64 735.153C1410.2 730.547 1422.75 732.839 1439.37 734.486C1463.87 736.867 1481.47 722.936 1499.25 708.583C1518.57 693.051 1535.44 675.204 1544.87 652.484C1548.97 642.604 1551.73 632.167 1553.75 621.531C1528.56 632.368 1499.39 629.586 1473.29 619.483Z" fill="#592639"/>
<path opacity="0.15" d="M758.545 1009.73C898.915 1046.84 1023.51 906.585 995.848 777.03C979.648 701.103 934.764 634.301 912.979 560.021C895.021 498.759 893.085 428.797 939.571 378.439C976.622 338.317 1035.12 324.898 1088.6 335.624C1164.41 350.845 1217.46 419.25 1295.84 426.727C1343.95 431.311 1382.04 414.421 1412.73 386.405C1411.69 385.181 1410.66 383.935 1409.57 382.733C1399.4 371.451 1387.61 362.06 1376.21 352.002C1340.9 320.826 1331.62 268.554 1296.55 238.914C1306.56 237.267 1315.87 234.196 1323.25 228.477C1339.99 215.481 1330.15 187.977 1323.48 172.066C1306.16 130.832 1267.4 100.012 1223.67 86.9941C1223.96 80.5631 1222.92 74.043 1222.18 66.9444C1221.09 56.4411 1220.67 45.5147 1218.09 35.2117C1213.55 17.2315 1199.86 -0.0811934 1179.01 0.297104C1157.6 0.653148 1137.78 20.2356 1123.89 33.9211C1108.29 49.2755 1089.49 69.5924 1085.53 91.3557C1076.05 94.56 1067.19 98.6543 1059.8 104.129C1058.02 101.658 1056.18 99.1663 1054.26 96.763C1040.82 79.8286 1024.18 64.9861 1004.97 54.238C988.015 44.7806 960.444 32.163 940.617 38.7053C920.812 45.2031 917.875 69.036 913.736 86.0149C907.883 109.959 904.234 134.748 907.015 159.338C884.228 161.118 859.216 175.782 842.415 188.288C823.367 202.397 807.568 220.31 795.173 240.093C765.443 287.58 756.409 343.613 756.52 398.288C756.587 463.044 768.826 527.265 767.958 592.043C767.735 607.375 765.643 622.551 764.954 637.839C764.553 647.363 765.399 656.019 771.563 663.808C782.378 677.449 807.278 683.947 826.327 682.767C829.82 693.426 832.09 703.685 833.559 716.102C835.562 733.481 832.313 755.244 838.032 771.711C844.307 789.692 870.365 794.988 888.234 787.8C894.287 796.635 894.732 811.232 900.428 821.847C854.41 827.188 808.102 830.081 761.727 830.437C750.779 830.526 739.83 830.437 728.904 830.236C724.921 851.399 716.198 872.695 708.587 892.522C700.532 913.528 689.828 937.784 693.7 960.66C698.685 990.412 731.908 1002.67 758.545 1009.73Z" fill="#FFFCFC"/>
<path opacity="0.15" d="M4.71299 1074.4C5.75887 1090.86 12.7017 1107.11 30.3704 1112.45C51.555 1118.88 76.634 1119.21 99.7101 1120.79C95.1706 1144.92 92.8117 1169.64 103.204 1192.74C113.373 1215.32 133.534 1228.25 158.213 1232.64C186.407 1237.66 217.405 1238.58 245.889 1235.88C268.898 1233.75 304.146 1229.25 318.321 1209.05C332.919 1188.26 312.113 1153.93 304.68 1133.5C293.799 1103.48 282.806 1073.04 278.689 1041.33C272.748 995.288 284.964 942.282 325.754 915.089C328.802 1014.16 332.096 1113.25 335.701 1212.34C338.504 1288.69 341.442 1365.02 344.557 1441.37C345.692 1469.09 342.955 1502.81 359.934 1527.02C363.717 1532.42 368.234 1536.72 373.241 1540.17C373.753 1523.97 376.312 1507.75 381.43 1491.66C393.602 1453.38 417.212 1420.05 436.706 1385.09C459.27 1344.61 473.156 1302.78 474.224 1256.56C475.515 1200.68 464.344 1145.27 454.397 1090.46C433.791 977.13 424.778 861.081 415.032 746.457C404.884 627.16 399.633 506.506 414.409 387.342C420.617 337.274 429.229 287.806 455.042 243.211C469.885 217.576 489.2 194.589 509.873 172.848C467.66 169.176 425.134 167.285 382.965 172.158C363.517 174.428 341.241 176.698 326.176 190.071C310.644 203.868 309.042 224.118 308.864 243.167C308.53 286.493 307.239 330.286 311.623 373.39C311.668 420.566 313.759 467.831 314.85 514.673C316.675 592.201 318.655 669.708 320.791 747.258C321.548 773.962 322.349 800.665 323.106 827.391C268.965 784.799 183.18 807.141 123.009 829.838C91.0315 841.877 52.5342 856.341 32.7515 885.136C24.6515 896.864 21.3581 911.083 25.0965 924.836C29.3691 940.479 42.1867 951.539 49.3299 965.647C21.0244 994.376 2.19843 1034.39 4.71299 1074.4Z" fill="#FFFCFC"/>
<path opacity="0.3" d="M198.979 1234.19C221.766 1235.3 244.331 1229.79 261.977 1217.23C267.963 1218.26 274.483 1216.46 280.202 1214.56C289.504 1211.49 298.583 1208.27 302.588 1199.86C305.392 1196.9 307.195 1193.11 308.04 1189.11C309.82 1180.67 307.439 1174 301.765 1167.37C299.918 1165.21 297.626 1163.78 295.111 1162.98C299.851 1135.97 292.73 1107.82 282.494 1081.65C267.896 1044.29 255.234 1007.64 268.43 967.937C273.593 952.405 283.295 938.986 295.334 927.615C306.95 916.645 324.952 910.592 331.873 895.593C335.166 888.472 333.609 881.752 326.844 877.146C297.848 857.408 256.814 891.944 240.281 912.995C216.626 943.081 207.257 981.711 210.818 1019.03C214.601 1058.71 235.051 1092.33 243.885 1130.6C247.824 1147.72 250.316 1166.32 239.012 1181.39C228.041 1196.03 213.043 1205.49 195.842 1211.83C183.558 1216.32 185.049 1233.5 198.979 1234.19Z" fill="#592642"/>
<path opacity="0.3" d="M48.6824 1053.43C39.8036 1044.82 37.8008 1033.98 32.6382 1023.48C29.7231 1017.54 19.5535 1017.72 16.5717 1023.48C9.20601 1037.74 12.5216 1055.21 21.0889 1069.45C20.7996 1070.28 20.577 1071.15 20.5103 1072.06C19.9095 1078.87 21.5562 1084.92 24.4046 1091.13C25.8065 1094.18 27.8538 1097.03 30.1681 1099.5C33.417 1102.97 37.0665 1104.19 41.606 1105.13C48.0593 1106.44 53.9563 1103.48 56.5153 1098.54C73.4942 1106.35 92.587 1111.69 109.21 1117.99C117.933 1121.28 124.053 1111.93 122.851 1104.88C118.979 1082.27 98.5286 1076.13 78.3898 1069.28C67.5082 1065.56 56.9827 1061.51 48.6824 1053.43Z" fill="#592642"/>
<path opacity="0.3" d="M417.346 1545.31C432.456 1547.33 445.896 1551.03 461.384 1551.45C477.607 1551.9 493.962 1551.43 510.162 1550.54C528.721 1549.51 549.349 1548.94 568.131 1544.13C578.946 1552.72 595.724 1551.9 608.787 1546.11C625.521 1538.7 636.558 1523.86 640.541 1506.72C645.014 1487.43 641.498 1466.8 639.985 1447.37C638.183 1424.1 635.557 1401.02 634.288 1377.7C631.863 1332.97 628.948 1288.27 627.078 1243.52C626.233 1223.47 625.921 1202.66 632.53 1183.39C637.025 1170.3 645.748 1159.45 653.604 1148.12C669.158 1146.25 685.536 1147.58 700.557 1148.54C737.474 1150.92 774.392 1150.3 811.376 1151.72C849.784 1153.21 887.903 1159.42 926.333 1160.47C937.66 1160.78 940.397 1143.58 929.048 1141.2C898.362 1134.81 866.896 1131.94 835.787 1128C801.34 1123.66 767.382 1116.43 733.068 1111.47C684.735 1104.48 621.204 1097.78 584.042 1135.77C545.856 1174.78 558.317 1233.04 566.751 1280.41C577.076 1338.51 595.301 1401.33 589.916 1460.68C587.001 1492.77 566.061 1505.52 535.553 1513.15C517.461 1517.67 498.858 1521.14 480.299 1523.28C460.361 1525.59 439.399 1529.2 419.438 1530.35C411.16 1530.87 408.022 1544.06 417.346 1545.31Z" fill="#592642"/>
<path opacity="0.3" d="M1553.46 539.997C1552.88 530.762 1538.91 528.181 1536.19 537.749C1530.36 558.289 1521.46 577.915 1514.47 598.099C1507.53 618.148 1500.34 637.82 1487.88 655.444C1476.42 671.667 1458.71 689.803 1437.5 692.762C1426.44 694.298 1416.41 688.912 1405.37 688.668C1394.04 688.423 1385.99 693.319 1375.31 695.21C1348.71 699.95 1354.39 665.769 1348.98 650.37C1342.73 632.59 1328.06 620.174 1309.15 615.901C1291.57 611.94 1271.14 614.566 1255.1 622.466C1243.77 628.029 1233.96 636.129 1224.03 644.118C1218.62 647.278 1213.28 650.393 1207.96 652.885C1184.93 663.678 1159.01 671.733 1133.15 668.284C1125.87 667.305 1121.58 674.248 1123.96 679.077C1119.47 678.632 1115.04 678.053 1110.79 677.163C1075.07 654.398 1034.84 635.528 1020.44 593.648C1016.95 583.501 1002.04 587.684 1003.97 598.01C1011.65 638.799 1043.65 671.911 1075.27 698.236C1093.65 713.546 1112.03 727.365 1126.9 743.588C1141.05 766.931 1149.57 792.544 1155.23 818.98C1168.4 880.62 1168.27 945.509 1169 1008.19C1169.73 1072.46 1168.73 1136.73 1171.27 1200.97C1172.58 1234.06 1174.72 1267.17 1178.7 1300.06C1182.44 1330.93 1188.05 1361.61 1189.34 1392.72C1190.52 1421.56 1191.05 1455.03 1175.83 1480.96C1158.39 1510.64 1130.55 1516.05 1099.35 1525.44C1087.31 1529.07 1090.2 1544.95 1102.22 1545.91C1129.39 1548.07 1163.46 1544.13 1187.85 1531.91C1192.9 1529.4 1197.51 1526.35 1201.71 1522.9C1206.56 1524.84 1211.5 1526.35 1216.38 1528.22C1223.83 1531.07 1234.96 1526.42 1238.45 1519.59C1258.14 1480.98 1267.47 1422.32 1242.14 1384.11C1240.45 1341.12 1232.73 1297.64 1229.55 1255.91C1218.53 1111.31 1236.6 963.89 1212.1 820.337C1208.59 799.775 1203.38 779.37 1196.06 759.721C1198.44 756.939 1199.84 753.179 1199.62 748.394C1198.91 734.152 1198.15 719.955 1196.99 705.735C1196.75 702.82 1195.93 700.284 1194.66 698.125C1193.9 693.096 1192.65 688.044 1191.07 683.038C1194.88 682.014 1198.64 680.813 1202.38 679.433C1207.25 677.63 1212.06 675.627 1216.8 673.536C1235.54 667.995 1253.03 659.116 1272.03 653.731C1281.27 663.077 1292.48 676.584 1307.55 674.76C1309.15 674.559 1310.73 674.025 1312.2 673.246C1312.37 674.782 1312.53 676.362 1312.75 677.964C1315.73 701.174 1324.72 720.823 1348.2 730.658C1358.02 734.775 1368.23 736.177 1378.8 734.731C1389.9 733.217 1398.96 727.121 1410.2 729.502C1460.13 740.116 1500.81 710.809 1526.45 671.199C1538.73 652.218 1548.08 630.187 1552.64 608.246C1557.38 585.415 1554.89 562.962 1553.46 539.997Z" fill="#592642"/>
<path opacity="0.3" d="M1116.84 247.593C1123.94 261.99 1135.89 272.004 1153.11 272.271C1171.89 272.56 1191.45 267.465 1210.28 266.263C1231.09 264.95 1255.48 269.579 1275.26 263.615C1288.16 259.721 1293.59 239.671 1279.37 233.351C1250.09 220.355 1206.12 227.899 1175.12 232.728C1167.87 233.863 1157.16 238.135 1150.29 235.532C1144.59 233.395 1138.85 223.938 1134.89 219.31C1125.05 207.827 1115.68 197.301 1102.11 189.847C1094.52 185.686 1086.47 193.919 1090.43 201.085C1099.17 216.884 1108.87 231.437 1116.84 247.593Z" fill="#592642"/>
<path opacity="0.3" d="M880.133 597.383C899.115 649.967 927.131 699.857 941.84 753.909C944.51 763.745 958.997 761.142 959.597 751.595C963.047 698.367 938.769 654.529 919.053 606.307C910.041 584.277 898.046 557.573 905.857 533.674C913.824 509.329 932.36 512 953.167 505.992C973.239 500.206 979.848 484.473 976.51 465.491C972.059 440.212 962.757 416.024 955.57 391.412C941.751 344.192 936.544 295.569 966.741 253.067C972.326 245.189 960.132 236.8 953.345 243.12C919.187 274.874 915.114 324.453 921.367 367.423C925.373 394.928 932.983 421.809 939.459 448.824C939.904 450.693 940.371 452.585 940.839 454.454C931.225 456.546 928.8 465.981 920.744 469.987C909.84 475.394 896.667 470.632 885.318 474.748C875.349 478.353 867.983 487.322 865.758 497.224C862.954 509.686 868.784 516.851 873.746 526.931C868.317 549.674 872.411 576.021 880.133 597.383Z" fill="#592642"/>
<path opacity="0.3" d="M572.603 832.684C581.682 844.523 594.321 853.379 608.074 854.715C631.995 861.657 664.373 859.566 680.15 855.56C689.385 853.201 688.829 840.695 680.15 838.07C665.374 833.619 651.422 833.574 636.246 833.24C634.643 829.747 631.595 826.743 627.478 825.252C619.578 822.381 613.525 818.799 608.897 814.459C611.078 812.946 612.524 810.52 612.368 807.294C609.809 757.225 603.044 707.512 599.862 657.466C596.658 607.264 597.481 556.728 591.339 506.815C590.85 502.854 587.668 499.761 584.041 498.337C582.861 403.518 586.511 309.166 589.893 214.28C590.271 203.932 574.85 204.555 573.582 214.28C565.526 276.231 561.321 338.962 557.894 401.292C554.6 461.33 551.129 521.546 551.574 581.651C552.019 641.666 552.086 701.549 554.979 761.52C556.136 785.998 556.87 812.167 572.603 832.684Z" fill="#592642"/>
<path opacity="0.5" d="M41.9261 927.971C43.684 942.658 51.6282 955.965 65.2914 963.153C66.5153 963.798 69.6752 965.6 71.945 965.889C68.0508 969.895 60.6184 976.415 59.8173 977.194C50.0483 986.629 39.7008 995.552 31.0667 1005.99C25.0585 1013.27 32.7579 1026.17 42.3488 1020.03C59.2832 1009.17 74.4595 995.33 89.9475 982.646C97.0906 976.793 102.498 969.361 101.63 961.172C101.652 961.128 101.675 961.083 101.675 961.039C106.014 947.042 103.366 933.801 105.302 920.449C109.129 913.863 114.359 907.565 121.146 900.978C135.677 886.848 152.077 874.675 170.102 864.906C187.281 855.605 205.729 848.706 224.91 844.278C231.586 842.743 238.44 841.808 245.339 840.985C271.241 842.899 296.253 851.354 318.328 869.068C321.799 871.849 325.649 872.695 329.209 872.25C329.454 878.392 329.699 884.533 329.944 890.697C335.685 1034.69 342.205 1178.65 348.591 1322.6C350.349 1362.41 351.751 1402.27 353.976 1442.05C355.801 1475.01 356.113 1517.94 377.164 1545.48C384.863 1555.57 407.027 1554.1 405.202 1538.19C403.511 1523.54 398.905 1509.95 395.99 1495.51C392.652 1478.88 391.339 1462.01 390.426 1445.12C384.774 1341.87 392.363 1233.12 391.116 1128C390.182 1047.85 387.244 967.736 384.841 887.626C382.482 808.651 380.235 729.699 377.72 650.724C374.783 558.241 366.082 465.737 371.467 373.143C373.67 335.269 375.628 291.364 393.698 255.76C417.82 208.228 457.719 204.489 506.675 195.699C515.042 194.186 517.334 184.15 513.551 177.964C487.738 177.697 461.902 176.807 436.089 176.851C430.837 178.32 425.653 179.967 420.601 181.969C403.133 177.029 380.902 181.279 362.522 191.137C348.48 187.577 332.948 201.151 325.76 213.323C314.5 232.438 315.212 253.512 321.042 273.695C320.842 276.922 320.664 280.126 320.531 283.242C319.729 302.068 318.172 324.676 327.34 341.811C328.23 343.48 329.454 344.592 330.834 345.304C330.455 363.018 330.923 380.664 331.101 397.732C331.279 413.687 331.479 429.665 331.657 445.62C326.316 445.487 320.286 449.292 319.774 455.256C313.588 526.598 318.372 599.787 321.198 671.219C323.468 728.297 325.738 785.353 328.007 842.431C316.636 833.664 304.442 827.099 291.713 822.426C291.246 820.601 289.978 818.932 287.686 817.82C271.708 809.964 253.149 810.187 235.236 813.08C188.861 813.28 140.639 829.992 100.896 851.154C70.7879 867.243 37.431 890.564 41.9261 927.971Z" fill="#FFF7F7"/>
<path opacity="0.5" d="M176.902 1238.26C188.095 1236.44 185.469 1221.98 176.902 1218.88C161.815 1213.43 148.485 1191.38 141.631 1178.32C132.552 1160.98 132.597 1142.96 126.833 1125.02C124.074 1116.45 113.059 1117.59 109.877 1125.02C94.4555 1161.03 128.435 1246.14 176.902 1238.26Z" fill="#FFF7F7"/>
<path opacity="0.5" d="M1015.77 1367.24C1009.92 1307.69 1005.04 1248.41 995.095 1189.33C993.449 1179.58 978.206 1182.45 977.827 1191.58C975.157 1258.27 978.629 1324.67 980.587 1391.34C981.966 1438.67 977.249 1507.14 1023.02 1537.81C1038.56 1548.22 1055.2 1528.4 1047.43 1514.31C1036.11 1493.73 1027.25 1475.46 1024.2 1451.98C1020.53 1423.9 1018.53 1395.48 1015.77 1367.24Z" fill="#FFF7F7"/>
<path opacity="0.5" d="M720.564 860.656C775.239 869.312 835.834 872.316 890.932 864.995C929.206 859.899 981.278 828.166 958.936 784.751C954.641 776.429 939.086 777.319 936.416 786.398C934.035 781.703 931.075 777.319 927.537 773.603C923.042 768.885 917.724 764.902 911.426 762.721C905.195 760.563 887.415 761.564 885.902 753.308C885.791 752.685 885.635 752.129 885.435 751.595C884.523 746.499 883.254 741.336 882.32 735.996C879.56 720.263 880.25 702.928 875.399 687.663C867.855 663.964 840.284 656.509 826.154 639.374C818.454 556.594 811.912 472.834 817.119 389.676C819.589 350.066 827.578 310.901 848.384 276.187C853.235 268.109 858.932 260.521 864.985 253.155C872.773 246.947 881.029 241.317 889.952 236.488C901.324 230.346 917.813 228.121 926.981 219.309C929.941 216.46 931.52 212.878 932.188 208.983C938.686 219.197 947.164 227.564 958.113 232.794C963.809 235.509 973.244 230.813 970.263 223.804C964.61 210.519 956.021 198.836 951.593 184.95C946.185 168.016 945.74 150.637 946.074 133.057C946.319 120.417 943.537 97.1187 955.731 88.9742C969.306 79.9173 993.205 91.8671 1007.22 95.4498C1017.62 98.1201 1025.07 85.6142 1017.64 78.2485C999.77 60.513 975.981 48.7634 949.968 56.2626C928.093 62.5824 917.679 81.275 915.054 101.814C912.428 122.198 912.383 150.748 918.859 176.517C918.347 176.339 917.835 176.205 917.323 176.094C915.053 171.421 909.068 168.061 903.972 169.841C889.129 175.07 875.688 184.06 863.561 194.964C862.693 188.822 853.213 184.238 847.605 189.624C807.884 227.809 779.401 280.949 778.689 335.691C778.644 338.94 780.269 341.321 782.538 342.745C780.803 352.113 779.423 361.593 778.377 371.095C773.571 415.311 774.906 460.351 776.263 504.7C777.776 553.857 780.958 603.302 786.789 652.169C788.791 668.904 808.129 674.556 819.389 668.369C826.843 675.134 835.389 681.499 839.505 689.732C846.315 703.395 843.444 724.357 845.692 739.356C848.251 756.446 849.452 773.87 865.919 783.683C871.26 786.866 878.871 784.84 881.964 779.633C882.208 779.21 882.409 778.788 882.653 778.365C886.125 780.256 889.975 781.903 893.824 783.594C909.268 790.382 905.73 805.09 908.467 819.043C908.89 821.246 909.691 823.093 910.714 824.673C894.692 832.929 873.352 834.264 852.501 834.954C809.353 836.378 765.982 837.402 723.146 842.386C713.421 843.477 708.748 858.764 720.564 860.656Z" fill="#FFF7F7"/>
<path opacity="0.5" d="M1124.65 91.4675C1137.42 80.6749 1148.39 68.1912 1161.28 57.5767C1173.94 47.1624 1187.83 40.2863 1196.99 26.356C1201.42 19.6135 1195.48 12.1812 1188.18 11.6026C1167.73 10.0004 1151.89 22.2616 1137.42 34.6563C1122.29 47.6297 1110.7 61.5377 1104.8 80.3635C1101.24 91.8682 1116.19 98.6106 1124.65 91.4675Z" fill="#FFF7F7"/>
<path opacity="0.5" d="M1133.73 131.99C1159.85 129.787 1187.13 129.409 1212.7 135.64C1234.42 140.936 1255.05 150.638 1270.11 166.949C1285.91 184.04 1286.23 211.077 1305.25 224.206C1312.86 229.458 1322.65 224.896 1327.39 218.62C1343.79 196.991 1320.7 162.032 1305.9 144.519C1288.09 123.468 1263.79 109.159 1237.27 100.503C1208.72 91.1789 1177.36 89.0872 1147.57 92.3584C1132.01 94.0719 1116.46 96.297 1101.28 100.058C1087.46 103.485 1070.4 105.443 1063.52 118.705C1061.72 122.199 1061.67 127.206 1065.03 129.988C1081.83 143.94 1113.39 133.704 1133.73 131.99Z" fill="#FFF7F7"/>
<path opacity="0.5" d="M1544.51 503.632C1526.2 452.495 1456.59 455.61 1427 414.02C1418.76 402.471 1411.6 390.632 1400.43 381.397C1387.96 371.094 1372.85 364.797 1363.24 351.467C1344.08 324.898 1334.25 290.05 1311.1 266.417C1304.58 259.764 1295.06 266.929 1296.42 274.651C1299.15 290.161 1308.23 305.404 1314.77 319.779C1321.76 335.134 1328.01 351.846 1337.25 366.11C1345.13 378.282 1356.03 386.604 1367.96 394.816C1383.14 405.252 1391.41 416.668 1401.65 431.422C1432.4 475.749 1487.66 485.785 1532.16 512.777C1538.15 516.405 1546.89 510.307 1544.51 503.632Z" fill="#FFF7F7"/>
<path opacity="0.5" d="M997.118 493.93C994.203 527.376 995.916 566.408 1013.7 596.204C1016.05 600.143 1019.68 601.233 1023.04 600.521C1039.75 634.879 1066.52 666.745 1102.84 676.826C1111.94 679.34 1117.37 668.548 1111.65 662.272C1095.74 644.915 1077.05 630.073 1063.34 610.846C1049.59 591.553 1039.53 569.857 1033.88 547.092C1020.22 492.195 1035.86 441.681 1052.28 389.476C1055.22 380.13 1041.98 375.813 1036.68 383.156C1015.39 412.708 1004.06 449.736 1001.52 486.943C999.187 488.256 997.407 490.592 997.118 493.93Z" fill="#FFF7F7"/>
<path d="M1512.22 464.982C1487.03 449.939 1460.44 440.57 1440.08 418.83C1429.27 407.303 1420.16 394.418 1409.55 382.691C1399.38 371.409 1387.59 362.018 1376.19 351.96C1340.88 320.784 1331.6 268.512 1296.53 238.872C1306.54 237.225 1315.84 234.154 1323.23 228.435C1339.97 215.439 1330.13 187.935 1323.45 172.024C1306.14 130.79 1267.38 99.97 1223.65 86.9521C1223.94 80.5211 1222.89 74.001 1222.16 66.9024C1221.07 56.3991 1220.65 45.4727 1218.06 35.1697C1213.53 17.1895 1199.84 -0.123186 1178.99 0.255111C1157.58 0.611156 1137.75 20.1936 1123.87 33.8791C1108.27 49.2335 1089.47 69.5505 1085.5 91.3137C1076.03 94.5181 1067.17 98.6123 1059.78 104.087C1058 101.616 1056.15 99.1243 1054.24 96.721C1040.8 79.7866 1024.15 64.9441 1004.95 54.1961C987.993 44.7386 960.422 32.121 940.595 38.6633C920.79 45.1611 917.852 68.994 913.714 85.9729C907.861 109.917 904.212 134.706 906.993 159.296C884.206 161.076 859.194 175.74 842.393 188.246C823.345 202.355 807.546 220.268 795.151 240.051C765.421 287.538 756.387 343.571 756.498 398.246C756.565 463.002 768.804 527.223 767.936 592.001C767.713 607.333 765.621 622.509 764.932 637.797C764.531 647.321 765.377 655.977 771.541 663.766C782.355 677.407 807.256 683.905 826.305 682.725C829.798 693.384 832.068 703.643 833.537 716.06C835.54 733.439 832.291 755.202 838.01 771.669C844.285 789.65 870.343 794.946 888.212 787.758C894.265 796.593 894.71 811.19 900.406 821.805C854.388 827.146 808.08 830.039 761.705 830.395C738.073 830.573 714.462 830.083 690.874 828.97C671.848 828.036 644.455 829.148 630.703 813.883C616.261 797.883 620.533 766.084 619.354 746.324C617.863 721.089 616.35 695.832 614.814 670.642C611.877 621.308 608.895 572.018 605.958 522.683C603.021 473.972 599.905 425.238 598.815 376.483C597.791 330.775 603.243 284.245 599.215 238.716C597.836 223.25 596.278 203.111 586.264 190.294C574.248 174.939 549.681 176.564 531.967 174.873C482.544 170.021 432.542 166.417 383.007 172.158C363.558 174.428 341.284 176.697 326.218 190.071C310.686 203.868 309.084 224.118 308.906 243.166C308.572 286.492 307.281 330.286 311.665 373.39C311.71 420.565 313.801 467.83 314.892 514.672C316.716 592.201 318.697 669.707 320.833 747.258C321.59 773.961 322.391 800.665 323.148 827.39C269.007 784.799 183.222 807.14 123.051 829.838C91.0734 841.877 52.5761 856.341 32.7934 885.136C24.6934 896.863 21.4 911.083 25.1385 924.835C29.411 940.479 42.2287 951.539 49.3718 965.647C21.0663 994.375 2.24036 1034.39 4.73267 1074.4C5.77855 1090.86 12.7214 1107.11 30.3901 1112.45C51.5747 1118.88 76.6537 1119.21 99.7298 1120.79C95.1903 1144.92 92.8314 1169.64 103.223 1192.74C113.393 1215.32 133.554 1228.25 158.232 1232.64C186.427 1237.66 217.425 1238.58 245.908 1235.88C268.918 1233.75 304.166 1229.25 318.341 1209.05C332.939 1188.26 312.132 1153.93 304.7 1133.5C293.818 1103.48 282.826 1073.04 278.709 1041.33C272.767 995.287 284.984 942.282 325.773 915.089C328.822 1014.16 332.115 1113.25 335.72 1212.34C338.524 1288.69 341.462 1365.02 344.577 1441.37C345.712 1469.09 342.975 1502.81 359.954 1527.02C375.931 1549.8 404.615 1553.45 431.051 1553.52C469.838 1553.63 508.713 1552.54 547.5 1552.05C572.868 1551.74 613.012 1558.42 634.464 1541.44C658.207 1522.61 649.64 1482.29 648.839 1456.74C647.682 1419.49 645.746 1382.24 643.076 1345.01C640.027 1302.38 635.487 1259.94 630.992 1217.41C628.967 1198.41 628.923 1178.87 649.039 1169.35C662.969 1162.76 679.859 1162.61 695.013 1162.43C742.835 1161.8 790.634 1161.58 838.477 1161.49C865.47 1161.43 892.262 1157.13 919.321 1158.31C963.093 1160.22 965.585 1177.27 966.497 1218.04C967.076 1245.23 967.588 1272.42 967.921 1299.64C968.656 1354.02 968.478 1408.43 968.611 1462.86C968.678 1498.47 976.444 1533.74 1016.94 1544.11C1040.18 1550.05 1066.12 1549 1089.93 1549.14C1118.13 1549.27 1146.32 1548.16 1174.43 1545.75C1193.48 1544.11 1215.73 1544.02 1233.35 1535.92C1252.33 1527.2 1260.75 1509.64 1263.66 1490.43C1270.78 1442.92 1264.8 1392.01 1260.83 1344.39C1256.36 1290.34 1250.02 1236.4 1247.84 1182.23C1245.66 1128.49 1248.13 1074.71 1245.15 1021.01C1238.8 907.478 1208.61 795.68 1215.24 681.635C1228.66 676.851 1242.05 672.044 1256.21 671.643C1282.31 670.909 1307.7 684.283 1321.12 705.757C1331.58 722.513 1339.76 740.382 1363.17 740.938C1373.63 741.183 1383.71 737.934 1393.62 735.175C1410.17 730.569 1422.72 732.861 1439.35 734.507C1463.85 736.888 1481.45 722.958 1499.23 708.605C1518.54 693.073 1535.41 675.226 1544.85 652.506C1554.28 629.786 1556.75 604.151 1559.22 579.918C1563.83 533.699 1555.64 490.929 1512.22 464.982ZM259.505 979.488C248.757 1026.42 260.484 1073.64 275.972 1118.3C280.111 1130.23 284.539 1142.11 288.812 1154.02C292.216 1163.45 306.08 1189.44 298.759 1198.7C291.793 1207.49 271.677 1210.43 261.307 1212.39C245.997 1215.28 230.242 1215.81 214.71 1215.52C189.92 1215.1 154.004 1216.86 134.622 1199.39C110.634 1177.8 118.355 1140.98 123.985 1113.92C125.543 1106.42 120.714 1100.97 113.104 1100.16C94.9232 1098.25 76.7428 1096.29 58.5622 1094.33C46.8128 1093.04 33.5501 1093.47 28.7212 1081.21C26.2289 1074.75 27.5195 1065.32 28.2093 1058.64C31.5028 1026.91 47.3245 998.002 71.1127 976.083C73.9165 973.502 75.3853 968.896 74.0946 965.268C65.06 940.301 33.194 919.495 55.5803 892.858C74.5842 870.227 111.212 857.81 138.539 848.13C193.881 828.548 279.087 804.381 323.949 855.562C324.282 867.334 324.639 879.128 324.995 890.9C289.657 908.479 267.961 942.638 259.505 979.488ZM1124.25 62.2515C1135.53 49.3672 1148.48 36.7943 1163.01 27.2701C1198.57 3.81565 1197.93 52.0596 1202.98 82.123C1181.17 78.3178 1158.69 78.251 1136.78 81.0103C1127.3 82.1897 1116.79 83.6364 1106.24 85.8394C1112.34 78.051 1117.77 69.684 1124.25 62.2515ZM1123.49 102.729C1148.24 98.0563 1174.12 97.1881 1198.97 101.639C1238.45 108.76 1275.21 131.324 1295.84 164.903C1300.96 173.204 1304.92 181.971 1307.57 191.251C1310.73 202.533 1313.77 212.68 1299.55 216.419C1275.28 222.783 1245.64 219.556 1220.58 220.357C1208.67 220.736 1196.81 221.136 1184.91 221.515C1167.48 222.026 1159.76 221.025 1145.79 210.544C1129.9 198.705 1112.43 179.924 1092.92 174.65C1092.76 174.606 1092.63 174.583 1092.47 174.539C1090.96 169.51 1089.31 164.636 1087.75 159.986C1082.79 145.21 1076.43 130.857 1068.44 117.438C1086.95 114.479 1105.07 106.223 1123.49 102.729ZM888.412 766.396C883.561 766.173 879.266 768.599 875.105 770.691C866.76 769.511 859.684 766.685 857.503 758.184C853.431 742.34 855.589 723.381 852.964 707.003C852.518 704.066 851.45 697.501 849.559 690.358C848.469 680.789 844.708 670.909 838.21 665.568C833.159 661.452 827.106 660.584 820.675 661.696C820.497 661.741 820.319 661.763 820.096 661.808C803.74 659.093 786.272 660.472 785.582 637.819C785.226 625.046 788.097 611.672 788.453 598.788C788.809 585.214 788.519 571.617 787.919 558.043C785.449 504.703 777.171 451.697 777.037 398.246C776.926 348.734 784.292 298.264 810.016 254.626C821.298 235.467 835.829 218.11 853.809 204.447C863.289 197.215 873.659 191.251 884.54 186.266C892.818 182.461 901.742 180.236 910.198 177.009C914.27 193.142 921.413 208.252 932.272 221.492C937.213 227.523 942.842 233.019 948.45 238.449C911.11 268.601 900.718 320.806 906.214 365.49C907.772 378.063 910.353 390.48 913.758 402.696C917.274 415.225 926.086 430.802 925.686 444.109C924.929 468.765 890.348 456.993 873.748 464.403C854.833 472.815 854.833 494.044 855.211 511.468C855.745 534.989 860.863 558.288 868.273 580.63C884.14 628.429 909.797 672.622 925.174 720.555C929.202 733.128 932.539 745.945 934.564 758.963C936.055 768.354 942.041 805.672 930.381 810.745C927.733 811.902 923.928 811.368 920.59 810.189C912.89 801.355 913.981 784.22 905.569 774.963C900.963 769.889 895.511 766.663 888.412 766.396ZM626.942 1515.11C621.691 1534.18 595.521 1530.6 579.766 1530.82L522.421 1531.56C486.883 1532 450.166 1535.16 414.74 1532.22C370.791 1528.6 368.254 1493.3 366.874 1458.7C366.407 1447.17 365.94 1435.63 365.495 1424.1C380.782 1429.93 398.696 1431.15 414.295 1433.13C441.844 1436.58 469.682 1438.05 497.476 1437.92C525.269 1437.74 552.996 1435.65 580.545 1432.04C593.074 1430.4 611.833 1430.15 625.941 1424.97C626.453 1436.67 626.876 1448.4 627.254 1460.08C627.81 1477.24 631.571 1498.36 626.942 1515.11ZM1244.06 1438.9C1244.23 1458.97 1248.02 1487.43 1236.82 1505.68C1223.58 1527.24 1183.22 1524.46 1160.32 1526.06C1134.55 1527.89 1108.67 1528.62 1082.83 1528.26C1059.49 1527.95 1022.02 1531.71 1003.44 1514.64C987.793 1500.27 990.107 1474.99 990.196 1455.99C990.263 1442.26 990.263 1428.57 990.307 1414.86C1007.15 1421.36 1030.12 1421.25 1045.72 1422.61C1075.4 1425.17 1105.22 1425.37 1134.95 1423.54C1163.3 1421.81 1191.63 1418.33 1219.51 1412.97C1226.16 1411.68 1235.38 1410.01 1243.21 1406.76C1243.66 1417.47 1243.99 1428.19 1244.06 1438.9ZM1536.48 595.739C1533.21 620.774 1529 645.941 1513.05 666.703C1500.12 683.504 1475.77 707.96 1454.41 713.901C1442.17 717.284 1429.67 711.676 1417.41 711.253C1406.35 710.897 1396.06 713.768 1385.54 716.661C1372.08 720.355 1358.5 725.072 1348.42 712.232C1343.01 705.29 1340.01 696.7 1334.78 689.579C1323.92 674.87 1308.5 663.877 1291.01 657.557C1275.12 651.839 1257.63 650.258 1240.96 653.396C1217.13 657.891 1195.74 670.464 1171.36 672.222C1131.37 675.115 1090.76 661.986 1059.4 638.153C1020.33 608.401 999.81 563.54 999.676 515.985C999.52 467.207 1019.81 423.191 1050.19 384.961C1053.68 380.555 1046.52 376.193 1042.67 379.375C973.596 436.387 960.244 547.873 1013.34 618.793C1038.86 652.862 1077.65 677.696 1120.11 687.443C1140.51 692.116 1161.63 693.384 1182.39 690.625C1185.95 690.18 1189.43 689.468 1192.87 688.6C1188.51 784.62 1209.39 879.217 1219.4 974.437C1224.81 1025.73 1224.74 1076.93 1224.94 1128.36C1225.19 1180.32 1228.75 1231.83 1233.57 1283.55C1236.69 1317.06 1240.01 1350.58 1242.08 1384.2C1237.36 1386.16 1232.82 1388.54 1227.86 1389.96C1216.75 1393.14 1204.96 1394.75 1193.52 1396.57C1167.35 1400.73 1140.89 1403.07 1114.41 1403.87C1089.22 1404.65 1064.01 1403.91 1038.93 1402.02C1024.49 1400.93 1006.06 1396.08 990.307 1397.62C990.263 1389.9 990.263 1382.15 990.263 1374.41C990.018 1315.97 990.797 1257.14 987.726 1198.77C986.703 1179.63 983.654 1157.64 965.941 1145.81C942.175 1129.96 888.835 1140.46 861.353 1140.6C818.961 1140.8 776.548 1141.02 734.156 1141.27C688.805 1141.47 612.99 1134.81 608.383 1195.56C607.182 1211.52 610.52 1227.9 612.233 1243.74C614.347 1262.83 616.194 1281.97 617.885 1301.11C620.867 1334.84 623.182 1368.62 624.917 1402.47C606.848 1411.24 582.926 1412.15 563.344 1414.31C539.177 1416.96 514.855 1418.22 490.577 1418.36C467.39 1418.42 444.314 1417.2 421.215 1415.06C403.569 1413.42 383.43 1408.19 364.894 1409.06C362.579 1350.44 360.287 1291.83 358.151 1233.17C352.744 1085.1 347.804 937.052 343.531 788.938C341.106 704.488 338.858 619.995 336.744 535.545C334.897 461.11 335.987 385.629 329.089 311.327C329.423 295.438 329.49 279.527 329.823 263.528C330.157 244.924 325.751 215.907 343.464 203.201C362.09 189.893 395.402 191.162 417.455 190.316C440.598 189.47 463.763 190.249 486.839 191.829C498.41 192.608 510.004 193.61 521.531 194.7C532.502 195.701 545.742 194.967 556.156 198.149C566.927 201.465 570.309 206.36 573.981 216.797C575.627 221.336 576.34 228.346 576.851 232.552C578.187 242.922 578.454 253.469 578.409 263.906C578.409 287.85 576.785 311.816 576.629 335.76C576.117 426.819 583.772 517.944 589.157 608.779C592.028 656.957 594.898 705.111 597.747 753.289C599.683 785.689 596.879 824.831 632.617 840.876C648.505 847.996 666.574 848.931 683.82 849.888C712.081 851.423 740.476 851.957 768.781 851.557C799.223 851.178 829.598 849.599 859.906 847.017C888.835 844.547 931.872 849.777 950.475 822.828C956.617 813.972 959.265 802.779 958.642 791.897C960.155 772.27 955.771 750.974 951.209 732.883C944.956 708.205 935.21 684.505 924.974 661.14C904.078 613.386 878.087 564.385 876.885 511.512C876.551 498.027 874.883 484.03 891.327 481.627C901.497 480.158 911.911 481.894 921.947 479.179C942.242 473.66 949.496 455.658 946.269 436.832C943.799 422.279 937.413 408.416 933.563 394.174C928.801 376.505 925.841 358.414 926.019 340.122C926.42 305.875 939.082 277.725 962.358 252.802C966.831 257.964 971.526 263.172 978.024 265.085C979.404 265.508 980.605 264.596 981.073 263.416C986.035 251.578 973.952 239.005 966.408 230.46C952.01 214.149 938.347 200.13 932.005 178.967C926.086 159.14 926.197 138.156 929.179 117.861C931.138 104.598 934.587 64.6993 948.205 59.2696C963.693 53.1279 990.953 69.5726 1003.44 77.8729C1020.17 88.9993 1034.32 103.886 1045.2 120.398C1056.67 137.777 1064.77 156.981 1070.4 176.809C1075.29 194.01 1076.45 213.147 1085.97 228.724C1088.4 232.774 1094.65 231.773 1096.03 227.478C1098.72 219.311 1099.15 210.544 1098.28 201.687C1105.35 207.317 1113.28 212.235 1120.02 217.353C1129.81 224.785 1140.27 235.267 1151.77 240.162C1162.08 244.502 1174.05 242.743 1184.95 242.387C1203.96 241.787 1222.98 241.208 1242.03 240.563C1247.97 240.385 1254.58 240.518 1261.44 240.585C1262.24 241.186 1263.1 241.698 1264.19 242.12C1310.68 259.122 1317.47 317.624 1346.62 351.07C1362.49 369.25 1383.2 382.736 1398.98 401.139C1413.64 418.251 1426.53 436.743 1444.95 450.406C1480.85 476.976 1530.52 484.297 1538.55 534.655C1541.71 554.794 1539.08 575.69 1536.48 595.739Z" fill="#3D2938"/>
<path d="M1223.63 349.178C1207.81 337.695 1182.55 341.011 1170.49 356.165C1158.45 371.319 1161.74 395.641 1177.45 407.302C1210.74 432.047 1249.64 392.437 1235.33 362.752C1232.97 357.878 1229.17 353.228 1223.63 349.178Z" fill="#3D2938"/>
<path d="M1492.49 559.822C1483.34 552.256 1472.46 554.036 1467.05 541.842C1463.36 533.497 1463.76 526.576 1455.21 521.28C1453.9 520.479 1452.56 520.368 1451.36 520.769C1449.74 519.122 1447 520.212 1446.78 522.482C1445.27 536.857 1442.24 550.32 1439.01 564.406C1438.03 568.879 1436.54 573.975 1435.83 579.093C1434.96 581.074 1434.78 583.277 1435.47 585.791C1435.61 588.55 1436.1 591.198 1437.21 593.691C1444.73 609.846 1469.79 603.259 1482.27 596.895C1496.49 589.618 1507.26 572.039 1492.49 559.822Z" fill="#3D2938"/>
<path d="M659.076 866.797C645.792 865.64 631.706 868.689 621.692 877.122C611.678 885.578 606.671 899.954 611.611 911.859C617.174 925.255 632.662 931.998 647.216 935.38C657.964 937.895 669.201 939.297 680.105 937.339C690.987 935.425 701.512 929.795 707.32 920.716C710.436 915.909 712.082 911.347 712.505 907.075C715.042 883.442 681.329 868.689 659.076 866.797ZM682.086 917.133C672.028 921.984 660.323 920.137 649.352 916.844C647.171 916.221 645.079 915.486 642.965 914.774C637.803 912.994 632.262 910.769 629.792 906.051C626.498 899.843 630.593 891.876 636.757 888.182C650.865 879.726 669.135 884.577 682.308 892.299C686.336 894.68 690.364 897.84 691.387 902.291C692.812 908.388 687.871 914.351 682.086 917.133Z" fill="#3D2938"/>
<path d="M559.94 953.897C553.821 973.457 576.163 983.026 592.741 981.824C608.83 980.667 629.948 969.963 625.742 951.316C619.756 924.879 566.972 931.444 559.94 953.897ZM607.561 956.59C606.36 962.843 594.21 964.49 589.158 964.49C581.97 964.49 571.378 960.929 579.545 953.007C584.329 948.334 589.826 949.58 595.367 949.269C599.461 949.024 608.563 951.316 607.561 956.59Z" fill="#3D2938"/>
<path d="M875.352 867.912C868.565 869.514 861.822 872.029 856.704 876.613C851.586 881.197 848.404 888.162 849.917 894.726C851.141 900.045 855.169 904.295 859.464 907.789C874.24 919.827 894.49 925.413 913.649 922.72C922.439 921.541 931.474 918.314 936.881 911.55C939.418 908.367 940.976 904.562 941.554 900.579C942.133 896.796 941.843 892.857 940.686 889.163C932.564 863.595 897.672 862.615 875.352 867.912ZM884.454 902.582C879.669 901.113 863.469 897.486 867.942 888.518C870.011 884.468 879.291 882.576 883.185 881.775C890.84 880.24 898.139 881.352 905.438 882.22C913.605 884.846 922.016 887.605 923.084 894.437C925.71 911.794 891.864 904.896 884.454 902.582Z" fill="#3D2938"/>
<path d="M710.592 966.823C707.878 990.945 741.502 995.44 759.905 994.127C779.354 992.725 800.16 975.413 791.325 955.229C778.997 926.924 713.997 936.47 710.592 966.823ZM755.877 977.46C747.02 977.638 723.099 976.725 728.662 963.351C733.602 951.491 759.727 951.758 769.451 956.854C785.74 965.354 766.358 977.215 755.877 977.46Z" fill="#3D2938"/>
<path d="M752.492 891.21C750.289 912.461 780.953 913.284 795.64 912.061C810.927 910.77 829.642 897.752 820.318 881.24C808.568 860.478 755.117 866.086 752.492 891.21ZM802.249 893.301C800.402 895.393 794.082 895.749 791.389 896.016C787.584 896.394 768.669 896.617 768.647 891.365C768.647 889.296 771.362 888.183 774.811 887.36C781.932 887.56 788.919 885.513 796.085 886.336C800.046 886.804 806.855 888.206 802.249 893.301Z" fill="#3D2938"/>
<path d="M957.504 945.241C955.39 948.134 955.435 952.072 956.948 955.299C958.439 958.481 961.199 960.996 964.247 962.954C973.393 968.896 985.543 970.386 995.957 966.87C1001.14 965.112 1006.15 961.886 1008.15 956.946C1008.77 955.344 1009.06 953.652 1009 951.961C1008.84 947.711 1006.59 943.438 1003.12 940.679C993.22 932.824 973.593 936.139 963.09 941.169C960.954 942.17 958.84 943.394 957.504 945.241ZM981.048 948.49C983.807 948.534 995.245 948.356 995.245 952.117C995.29 956.657 980.981 955.9 979.023 955.499C975.93 954.898 972.525 953.919 970.745 950.848C973.838 949.513 977.465 948.979 981.048 948.49Z" fill="#3D2938"/>
<path d="M1013.07 124.736C1007.82 120.441 1001.9 116.992 995.358 114.722C987.77 112.074 979.269 111.095 971.592 113.498C942.418 122.577 949.673 177.008 959.865 196.768C970.435 217.218 992.087 232.662 1015.83 233.908C1020.73 234.197 1026 233.774 1029.92 230.904C1034.79 227.41 1036.37 221.201 1037.44 215.483C1041 196.078 1041.58 175.762 1035.19 157.047C1030.92 144.674 1023.28 133.081 1013.07 124.736ZM1021.3 207.294C1020.68 210.231 1019.7 213.48 1016.99 214.904C1016.08 215.394 1015.05 215.638 1014.05 215.705C1013 215.772 1011.94 215.705 1010.89 215.572C995.024 213.68 981.45 202.264 974.885 188.245C968.343 174.248 968.165 158.048 971.703 143.028C972.905 137.998 975.086 132.413 980.115 130.589C983.742 129.298 987.836 130.455 991.441 131.946C1023.4 145.498 1027.54 177.809 1021.3 207.294Z" fill="#3D2938"/>
</g>
<defs>
<filter id="filter0_d_403_14111" x="0.488281" y="0.249023" width="1563.87" height="1561.28" filterUnits="userSpaceOnUse" color-interpolation-filters="sRGB">
<feFlood flood-opacity="0" result="BackgroundImageFix"/>
<feColorMatrix in="SourceAlpha" type="matrix" values="0 0 0 0 0 0 0 0 0 0 0 0 0 0 0 0 0 0 127 0" result="hardAlpha"/>
<feOffset dy="4"/>
<feGaussianBlur stdDeviation="2"/>
<feComposite in2="hardAlpha" operator="out"/>
<feColorMatrix type="matrix" values="0 0 0 0 0 0 0 0 0 0 0 0 0 0 0 0 0 0 0.25 0"/>
<feBlend mode="normal" in2="BackgroundImageFix" result="effect1_dropShadow_403_14111"/>
<feBlend mode="normal" in="SourceGraphic" in2="effect1_dropShadow_403_14111" result="shape"/>
</filter>
</defs>
</svg>
