<svg width="1019" height="1562" viewBox="0 0 1019 1562" fill="none" xmlns="http://www.w3.org/2000/svg">
<g filter="url(#filter0_d_403_14164)">
<path d="M701.987 1014.37C699.984 1015.37 697.982 1016.37 695.957 1017.37C692.619 1019.02 688.814 1021.18 684.808 1023.47C673.882 1029.72 660.264 1037.51 648.737 1038.18C647.713 1038.25 646.934 1039.11 646.978 1040.14L651.451 1126.3C651.496 1127.06 652.008 1127.73 652.72 1127.97C652.92 1128.04 653.12 1128.06 653.298 1128.06C653.855 1128.06 654.366 1127.81 654.722 1127.39C664.158 1115.98 673.615 1105.25 682.85 1095.48C697.069 1080.46 716.496 1062.79 740.663 1059.36C763.828 1056.05 788.729 1066.64 810.692 1076.01C813.83 1077.35 816.901 1078.66 819.927 1079.9C825.713 1082.28 831.521 1084.84 837.151 1087.34C837.929 1087.67 838.842 1087.45 839.376 1086.76C839.888 1086.07 839.888 1085.13 839.354 1084.47C835.415 1079.55 831.454 1074.67 827.515 1069.8C823.599 1064.97 819.749 1059.94 815.877 1054.89C804.15 1039.63 792.022 1023.83 777.335 1011.57C751.188 989.78 727.289 1001.73 701.987 1014.37Z" fill="#339E6E"/>
<path d="M187.26 1348.78C187.327 1348.78 187.393 1348.81 187.46 1348.81C188.328 1348.81 189.085 1348.2 189.285 1347.34C193.557 1327.4 197.986 1306.77 212.183 1291.04C228.272 1273.19 251.103 1257.24 271.309 1243.99L275.136 1241.46C285.617 1234.47 298.657 1225.79 311.096 1223.59C311.987 1223.43 312.654 1222.63 312.632 1221.72C312.409 1209.9 312.231 1198.02 312.031 1186.16C311.586 1155.52 311.252 1124.9 310.963 1094.23C310.963 1093.45 310.451 1092.74 309.694 1092.5C308.938 1092.25 308.114 1092.5 307.625 1093.12C306.201 1094.95 304.754 1096.73 303.33 1098.53C301.35 1101 299.414 1103.42 297.544 1105.85C289.667 1115.97 281.5 1126.14 273.623 1135.98L265.189 1146.51C257.912 1155.63 249.968 1164.86 242.291 1173.79C226.069 1192.68 209.268 1212.2 196.406 1233.11C182.186 1256.26 183.633 1288.5 184.901 1316.96C185.257 1325.11 185.613 1332.78 185.591 1340.02V1346.98C185.591 1347.89 186.303 1348.69 187.26 1348.78Z" fill="#339E6E"/>
<path d="M256.086 553.894C265.811 560.525 275.557 567.135 285.237 573.922C285.549 574.144 285.927 574.255 286.305 574.255C286.639 574.255 286.951 574.166 287.24 573.988C287.863 573.632 288.219 572.92 288.152 572.208C285.66 547.396 283.235 518 284.147 488.026C284.169 487.225 283.68 486.49 282.901 486.223C276.648 483.998 270.417 481.795 264.164 479.592C244.426 472.627 223.998 465.44 204.104 457.918C183.342 450.107 171.77 440.205 162.847 422.58C151.52 400.239 143.109 378.698 137.791 358.537C137.568 357.669 136.767 357.091 135.855 357.158C134.964 357.224 134.252 357.914 134.141 358.804L133.941 360.629C133.229 366.904 132.516 373.157 131.849 379.432C131.293 384.528 130.581 389.669 129.846 394.831C128.333 405.691 126.776 416.929 126.664 427.855C126.442 446.369 135.343 456.828 147.96 469.556C180.85 502.668 219.102 528.704 256.086 553.894Z" fill="#339E6E"/>
<path d="M584.804 220.903C585.983 220.903 587.162 220.836 588.297 220.724C597.154 219.79 608.859 214.872 614.466 196.87C616.358 190.728 617.382 183.295 617.382 175.373C617.382 174.728 617.048 174.15 616.514 173.794C615.98 173.46 615.29 173.415 614.734 173.682C599.624 180.803 581.555 171.568 572.787 158.506C565.288 147.313 562.951 127.374 571.608 116.626C572.008 116.137 572.119 115.491 571.919 114.89C571.719 114.29 571.252 113.822 570.651 113.667C566.467 112.532 562.417 111.597 558.634 110.907L558.256 110.841C547.13 108.816 531.887 106.056 527.102 121.611C520.871 142.061 526.657 173.46 535.959 189.927C545.95 207.662 567.202 220.903 584.804 220.903Z" fill="#FFBC57"/>
<path d="M623.013 577.348C624.237 601.003 625.46 624.68 626.662 648.334C626.684 648.846 626.929 649.314 627.307 649.647C627.686 649.981 628.197 650.137 628.709 650.093C638.033 649.225 650.05 655.01 659.708 659.683C663.624 661.575 667.34 663.377 670.522 664.579C672.436 665.291 674.55 666.204 676.798 667.16C683.807 670.165 692.241 673.791 699.785 673.791C701.32 673.791 702.811 673.636 704.258 673.302C714.939 670.854 721.993 659.817 727.69 650.938C728.446 649.759 729.181 648.624 729.87 647.555C741.798 629.508 753.258 610.171 763.94 590.077C766.076 586.027 768.123 581.064 770.192 575.924C770.504 575.123 770.259 574.233 769.547 573.721C768.857 573.209 767.9 573.254 767.255 573.81C757.375 582.132 747.406 590.099 737.637 597.442C736.212 598.533 734.81 599.601 733.453 600.647C718.41 612.218 707.551 620.585 688.658 613.553C670.411 606.766 652.854 596.841 636.431 584.068L634.384 582.488C631.736 580.441 628.887 578.238 626.061 575.857C625.505 575.39 624.704 575.279 624.036 575.613C623.369 575.946 622.99 576.614 623.013 577.348Z" fill="#339E6E"/>
<path d="M296.206 181.293L296.719 182.984C296.986 183.83 297.252 184.742 297.52 185.699C300.034 194.244 303.483 205.949 312.117 208.931C313.831 209.531 315.7 209.776 317.658 209.776C324.579 209.776 332.523 206.572 338.353 204.191C367.549 192.397 383.816 167.986 386.731 131.625C387.933 116.626 384.817 105.656 377.474 99.0023C368.506 90.8801 353.597 88.9884 330.52 93.1274C329.808 93.2609 329.252 93.7727 329.052 94.4625C328.851 95.1524 329.074 95.8868 329.63 96.3542C331.9 98.3347 333.769 100.604 335.171 103.141C342.248 115.914 337.04 131.847 329.23 141.26C321.33 150.74 308.935 157.037 296.896 157.66C295.45 157.727 293.826 157.705 291.956 157.594C291.355 157.549 290.799 157.816 290.421 158.261C290.043 158.706 289.909 159.33 290.043 159.908C291.912 167.252 294.092 174.395 296.206 181.293Z" fill="#FFBC57"/>
<path d="M299.278 347.187C301.459 349.413 303.707 351.705 305.776 354.086C317.214 367.282 321.375 383.17 318.483 402.664C316.88 413.234 314.388 423.648 311.962 433.728C308.402 448.526 304.708 463.836 303.84 479.881C301.815 516.909 305.999 554.583 310.049 591.011C311.606 604.919 313.186 619.294 314.41 633.358C318.683 682.492 321.887 733.873 324.268 790.44C328.363 887.484 329.342 986.242 330.321 1081.75C331.233 1172.45 332.19 1266.25 335.773 1358.46C336.863 1386.3 338.065 1411.45 339.445 1435.37C339.6 1438.04 339.689 1440.8 339.801 1443.6C340.446 1461.27 341.18 1481.28 354.487 1494.18C367.728 1507.02 387.867 1510.98 405.624 1514.48C407.627 1514.88 409.585 1515.26 411.521 1515.66C433.062 1520.09 455.404 1523.6 477.946 1526.14C518.49 1530.72 560.926 1532.99 605.921 1532.99C651.028 1532.99 698.715 1530.7 749.585 1526.09C857.6 1516.26 929.165 1482.75 968.397 1423.66C990.538 1390.29 998.104 1353.81 989.715 1320.95C980.524 1285.1 955.957 1255.41 925.56 1243.48C883.257 1226.82 838.618 1250.94 813.25 1276.64C786.347 1303.86 767.944 1346.16 787.437 1379.27C796.227 1394.16 811.336 1404.44 829.984 1408.2C850.034 1412.25 871.108 1407.89 886.373 1396.56C897.455 1388.33 904.999 1375.91 906.556 1363.34C907.802 1353.26 905.132 1343.84 898.79 1336.08C892.626 1328.51 882.234 1324.75 872.287 1326.51C863.453 1328.04 856.732 1333.65 853.839 1341.89C852.081 1346.91 848.165 1348.34 845.984 1348.74C841.957 1349.52 837.617 1348.09 835.192 1345.27C833.211 1342.93 832.766 1339.95 833.945 1336.63C839.798 1320.06 854.485 1308.4 872.265 1306.19C890.223 1303.97 907.469 1311.82 917.326 1326.66C930.322 1346.29 928.142 1364.96 924.025 1377.18C916.748 1398.76 897.9 1417.17 874.846 1425.22C874.245 1425.42 873.644 1425.6 873.021 1425.76C872.465 1425.91 871.909 1426.07 871.352 1426.25C871.019 1426.36 870.707 1426.56 870.484 1426.82C843.425 1458.89 801.924 1475.05 759.488 1470.06C717.474 1465.14 682.605 1441 663.845 1403.86C645.754 1368.03 643.751 1326.95 641.815 1287.23L616.914 805.171C611.44 699.248 605.966 593.369 600.469 487.469C599.913 476.654 599.357 465.861 598.778 455.047C597.91 438.78 597.065 422.491 596.264 406.224L596.063 402.664C595.641 395.231 595.196 387.532 597.777 380.567C599.602 375.627 602.85 371.865 606.3 367.86C608.035 365.857 609.816 363.766 611.462 361.496C638.566 323.644 614.022 279.65 594.306 244.313L591.502 239.261C591.146 238.616 590.433 238.215 589.677 238.327C572.542 240.174 554.184 233.743 539.319 220.658C513.884 198.294 500.31 150.762 509.678 116.893C510.413 114.423 518.49 98.8466 521.472 96.8884C522.14 97.1777 522.941 97.0663 523.497 96.5322C524.254 95.8201 524.276 94.6408 523.586 93.9065L523.564 93.8841C519.18 89.211 515.419 83.403 511.792 77.7731C509.745 74.5909 507.631 71.3197 505.472 68.3601C503.292 65.3782 501.111 62.2185 498.908 58.9919C490.452 46.6861 481.706 33.935 469.378 26.3469C457.518 19.0257 445.168 17.1344 432.639 20.6726C409.608 27.1927 390.448 51.3367 380.189 71.7647C379.833 72.4991 379.344 73.1445 378.609 73.7898C378.142 74.2126 377.92 74.8356 378.009 75.4587C378.098 76.0818 378.498 76.6159 379.077 76.8607L380.1 77.3059C380.612 77.5284 381.124 77.7511 381.614 77.9958C402.264 89.0332 404.756 112.777 404.4 125.928C403.021 175.485 376.651 212.113 333.837 223.929C324.157 226.622 315.011 226.911 307.378 224.775C306.555 224.53 305.665 224.908 305.264 225.665C295.807 242.555 284.057 263.584 280.341 285.881C277.582 302.237 279.518 317.947 285.771 330.097C289.198 336.862 294.316 342.114 299.278 347.187ZM445.301 403.62C445.457 402.975 446.169 402.619 446.77 402.552C447.126 402.53 447.771 402.552 448.06 403.153C454.625 416.972 456.761 432.304 458.675 449.483C458.942 451.864 457.74 453.489 456.694 454.446C454.692 456.248 451.51 457.116 448.995 456.56C435.087 453.4 416.973 459.853 409.43 470.623C404.178 478.145 404.4 487.135 410.075 495.925C416.728 506.183 424.762 505.271 431.816 504.492C436.4 503.98 440.739 503.491 445.101 505.471C450.931 508.097 452.066 513.838 452.956 521.093L453.089 522.094C454.247 531.195 456.383 548.107 449.774 554.294C448.216 555.762 446.147 556.452 444.077 556.185C442.052 555.918 440.228 554.739 439.115 552.959C435.643 547.329 435.287 533.955 436.778 528.036C436.867 527.724 436.845 527.368 436.756 527.056C436.266 525.387 435.977 524.163 435.888 523.34C435.799 522.405 434.998 521.671 434.041 521.671C433.885 521.671 433.707 521.694 433.552 521.738C433.463 521.76 433.373 521.783 433.284 521.805C430.77 522.606 427.232 522.183 424.139 521.805C409.474 520.047 396.701 509.388 392.362 495.28C387.243 478.724 392.562 466.774 397.925 459.675C407.249 447.347 423.649 439.937 440.873 440.293C441.385 440.293 441.896 440.093 442.252 439.737C442.608 439.358 442.809 438.869 442.764 438.357C442.274 427.898 442.141 415.615 445.301 403.62ZM461.523 931.433C446.169 935.105 435.999 943.739 433.641 955.111C431.927 963.3 434.308 971.11 440.027 975.983C445.435 980.612 453.001 981.702 460.255 978.921C462.881 977.942 465.128 979.054 466.218 979.811C468.51 981.369 470.09 984.128 470.113 986.665C470.157 990.003 470.269 993.363 470.38 996.723C470.758 1007.81 471.159 1019.27 468.8 1029.95C468.088 1033.17 465.284 1034.35 462.881 1034.4C460.255 1034.49 457.251 1033.06 456.472 1029.92C454.091 1020.07 454.024 1009.85 454.18 998.503C454.18 998.014 454.002 997.524 453.646 997.168C453.29 996.812 452.822 996.634 452.333 996.634H452.31C434.909 996.923 420 983.46 417.752 965.591C414.726 941.269 433.062 925.336 449.663 919.083C450.464 918.772 450.953 917.971 450.864 917.125C449.752 907.801 449.151 897.876 452.333 888.486C452.622 887.662 453.201 887.151 453.957 887.039C454.758 886.928 455.537 887.306 456.049 888.018C462.925 897.72 464.839 909.87 466.708 921.842C467.353 925.67 465.974 930.321 461.523 931.433ZM471.849 1100.22C470.625 1101.87 468.599 1102.91 465.929 1103.25C455.426 1104.63 441.028 1115.38 438.937 1126.66C438.069 1131.33 438.981 1137.98 448.283 1143.08C452.377 1145.3 456.516 1145.13 460.188 1144.95C464.349 1144.75 467.932 1144.59 471.381 1147.49C481.551 1155.96 477.656 1182.4 472.805 1193.62C472.116 1195.24 470.224 1195.84 468.711 1195.84C467.086 1195.86 465.173 1195.26 464.438 1193.62C461.278 1186.43 460.322 1180.4 460.9 1171.34C461.034 1169.52 461.278 1167.96 461.523 1166.6C462.013 1163.75 462.48 1161.04 459.943 1159.86C459.075 1159.46 458.052 1159.32 456.984 1159.32C456.049 1159.32 455.048 1159.44 454.091 1159.52C452.778 1159.66 451.398 1159.79 450.508 1159.64C440.049 1157.86 430.681 1149.58 426.631 1138.54C423.36 1129.66 423.693 1121.18 427.654 1113.33C432.728 1103.25 443.721 1094.9 457.073 1090.96C457.896 1090.72 458.452 1089.94 458.408 1089.07C457.807 1078.84 459.342 1071.36 463.392 1064.77C463.659 1064.33 464.372 1064.04 464.928 1064.06C465.573 1064.1 465.751 1064.48 465.818 1064.62C469.379 1072.18 470.78 1080.7 472.138 1088.94C472.427 1090.67 472.694 1092.41 473.006 1094.12C473.406 1096.55 473.006 1098.66 471.849 1100.22ZM512.015 1410.82C511.013 1412.65 509.345 1413.98 507.498 1414.5C502.513 1415.85 498.663 1418.79 496.371 1423C493.768 1427.76 493.367 1433.92 495.281 1439.89C497.528 1446.96 501.111 1451.41 505.94 1453.11C510.835 1454.84 516.532 1453.57 522.897 1449.34C525.389 1447.7 527.08 1445.76 528.571 1444.07C531.085 1441.22 532.91 1439.15 537.65 1439.04C550.868 1438.69 571.096 1453.13 576.704 1464.08C577.149 1464.94 577.193 1465.77 576.815 1466.48C576.392 1467.28 575.479 1467.84 574.411 1467.95C564.776 1469.04 558.479 1465.72 549.756 1461.14L549.133 1460.8C548.398 1460.4 547.085 1459.74 545.616 1459C543.436 1457.91 540.432 1456.4 539.586 1455.82C539.141 1455.51 538.54 1455.46 538.028 1455.62C537.494 1455.78 537.049 1456.18 536.827 1456.69C536.315 1457.84 531.375 1463.07 530.418 1463.85C519.381 1473.24 505.717 1473.91 494.769 1465.54C483.999 1457.31 477.968 1443.56 479.036 1429.7C479.926 1418.03 485.845 1408.42 495.236 1403.28C495.97 1402.88 496.349 1402.03 496.148 1401.21C494.68 1395.09 493.478 1387.95 495.704 1381.23C495.77 1381.03 495.859 1380.92 495.993 1380.85C496.06 1380.83 496.126 1380.81 496.193 1380.81C496.326 1380.81 496.482 1380.85 496.638 1380.92C506.096 1385.32 509.923 1395.8 512.749 1405.28C513.239 1407.11 512.994 1409.04 512.015 1410.82ZM463.66 1246.62C464.527 1246.4 465.128 1245.62 465.084 1244.73C464.772 1237.99 464.705 1230.04 466.73 1222.17C466.864 1221.61 467.353 1221.45 467.62 1221.41C468.043 1221.34 468.577 1221.45 468.867 1221.94C473.962 1230.6 476.21 1240.57 478.391 1250.2C478.858 1252.32 478.458 1254.37 477.234 1255.95C476.01 1257.55 474.141 1258.5 471.96 1258.62C461.879 1259.17 454.291 1263.93 450.597 1272.03C446.836 1280.29 448.016 1290.64 453.535 1297.76C458.831 1304.59 466.975 1307.42 476.477 1305.72C479.17 1305.24 481.907 1305.9 483.798 1307.48C484.933 1308.44 486.29 1310.15 486.268 1313C486.246 1317.12 486.491 1321.26 486.713 1325.26C487.203 1333.63 487.648 1341.55 485.912 1349.47C485.378 1351.83 483.264 1352.95 481.462 1353.17C479.637 1353.41 477.3 1352.88 476.166 1350.72C471.737 1342.22 470.869 1333.34 470.914 1322.59C470.914 1321.64 470.18 1320.81 469.223 1320.72C452.644 1319.21 434.864 1308.33 432.55 1287.37C430.191 1266.38 446.814 1250.69 463.66 1246.62ZM458.675 770.947C457.184 772.46 455.292 773.328 453.668 773.15C441.34 772.015 431.571 781.383 427.721 790.596C423.694 800.209 425.54 809.533 432.661 815.541C436.8 819.035 440.45 819.702 443.966 820.348C446.747 820.859 449.395 821.349 452.266 823.307C463.214 830.807 458.831 852.103 456.961 861.204C456.271 864.497 453.223 865.654 450.82 865.654C448.416 865.654 445.345 864.497 444.656 861.204C444.211 859.157 443.921 855.084 443.61 851.123C442.831 840.932 442.453 838.217 441.006 837.193C439.07 835.813 436.155 835.391 433.084 834.945C430.659 834.589 428.122 834.234 426.542 833.388C417.329 828.47 410.921 818.323 409.852 806.885C407.783 784.788 424.383 761.979 444.7 758.997C445.568 758.863 446.236 758.151 446.28 757.283C446.725 750.251 448.483 744.933 452.221 739.437C452.422 739.148 452.733 739.058 452.911 739.058C453.112 739.058 453.267 739.169 453.379 739.348C458.141 747.603 459.454 756.06 460.7 766.229C460.878 767.72 460.121 769.5 458.675 770.947ZM406.759 622.854C414.169 613.597 425.296 607.589 437.246 606.343C438.18 606.254 438.892 605.453 438.915 604.518C438.981 598.666 439.604 592.413 443.632 586.338C443.788 586.093 444.077 585.915 444.366 585.893C444.633 585.893 444.745 585.959 444.811 586.048C451.109 592.813 452.177 600.246 453.557 609.659L453.846 611.706C454.269 614.621 453.357 617.848 451.576 619.717C450.308 621.074 448.683 621.697 446.747 621.519C437.49 620.696 428.278 623.589 422.114 629.241C417.018 633.892 414.325 640.078 414.325 647.066C414.303 663.243 423.805 664.089 432.216 664.801C436.088 665.135 440.116 665.491 443.587 667.137C456.761 673.324 456.294 700.605 451.643 713.401C450.864 715.515 448.639 717.162 446.347 717.318C445.034 717.407 443.254 717.05 442.141 714.892C440.027 710.753 439.782 705.746 439.538 700.917C439.293 696.088 439.048 691.104 436.889 686.987C436.444 686.164 436.133 685.541 435.91 685.051C434.931 683.048 434.397 682.336 432.35 682.336C432.216 682.336 432.083 682.336 431.927 682.336C431.037 682.358 429.702 682.425 427.187 682.069C423.916 681.602 421.313 680.979 419.021 680.089C407.605 675.571 399.883 665.046 398.303 651.939C397.057 641.569 400.061 631.199 406.759 622.854Z" fill="#339E6E"/>
<path opacity="0.1" d="M996.349 1279.4C978.035 1247.33 946.57 1221.59 909.297 1216.67C866.26 1210.97 822.266 1233.67 793.693 1264.78C764.676 1296.33 745.204 1344.78 765.722 1385.83C779.184 1412.85 807.356 1428.85 836.752 1431.52C810.783 1450.52 777.738 1457.89 745.382 1448.14C701.99 1435.12 677.222 1398.3 668.41 1355.5C658.819 1308.84 660.221 1259.04 657.729 1211.59L654.68 1152.62C667.565 1145.41 678.313 1129.33 686.969 1119.89C701.745 1103.74 718.368 1083.77 740.954 1079.19C765.032 1074.36 797.165 1091.65 818.639 1100.8C831.434 1106.27 844.007 1112.15 856.402 1118.44C859.606 1120.05 862.276 1121.56 864.813 1122.81C856.669 1137.2 851.64 1154.58 846.544 1170.03C830.878 1169.02 816.436 1184.58 824.002 1201.76C832.903 1221.96 864.569 1222.74 871.845 1200.67C874.894 1191.43 871.8 1182.55 865.859 1176.75C871.244 1163.13 877.698 1148.62 881.102 1134.02C883.417 1136.14 885.708 1138.18 888.023 1140.32C898.059 1149.51 908.072 1158.74 918.086 1168C912.946 1179.95 915.772 1194.7 928.701 1201.4C944.99 1209.88 965.529 1198.4 966.619 1180.24C967.576 1163.46 951.688 1151.16 936.289 1155.94C924.384 1144.97 912.434 1134.02 900.084 1123.56C898.259 1122 896.434 1120.45 894.61 1118.91C908.006 1113.04 921.068 1103.85 933.352 1095.48C940.206 1103.56 951.777 1107.12 962.77 1101.51C979.994 1092.7 982.375 1068 968.133 1055.4C954.336 1043.27 930.526 1049.42 926.921 1068.51C926.765 1069.35 926.654 1070.22 926.631 1071.07C915.928 1077.32 903.889 1083.57 893.141 1090.83C894.142 1083.2 894.699 1075.5 895.678 1068.42C897.658 1054.31 899.594 1040.23 901.486 1026.07C903.088 1025.52 904.646 1024.8 906.181 1023.87C914.437 1018.84 917.641 1011.1 917.129 1003.62C920.668 995.298 919.555 985.128 911.143 977.54C893.875 961.985 866.949 975.671 866.059 998.079C865.659 1008.89 871.489 1018.51 879.856 1023.67C877.965 1037.62 876.095 1051.53 874.271 1065.48C873.225 1073.47 871.4 1082.08 870.354 1090.67C868.841 1088.92 867.305 1087.18 865.814 1085.31C854.755 1071.74 843.762 1058.14 832.747 1044.57C815.924 1023.85 799.635 999.325 775.624 986.219C753.905 974.38 732.587 978.185 711.113 988.422C696.16 995.52 681.54 1003.42 666.808 1011.01C660.778 1014.1 653.701 1016.93 647.916 1020.91C641.818 903.015 635.721 785.098 629.602 667.203C640.773 675.615 658.819 680.377 668.811 684.271C691.175 693.061 710.602 697.734 729.427 679.62C747.652 662.107 760.492 636.249 772.709 614.464C779.786 601.846 786.439 589.007 792.692 575.989C795.34 570.492 798.389 565.419 800.169 560.212C803.752 566.465 811.696 571.227 817.215 575.166C828.564 583.31 840.357 590.72 852.441 597.685C850.349 602.603 850.104 608.411 852.596 614.419C859.027 630.152 878.899 634.069 892.006 624.122C905.113 614.108 908.451 591.721 893.831 581.329C886.065 575.788 878.832 576.412 872.891 580.262C859.428 572.295 833.348 556.718 815.969 550.198C823.668 547.527 831.301 544.613 838.6 542.61C853.642 538.471 868.819 534.91 883.995 531.417C890.515 543.7 907.249 549.575 921.803 542.498C941.808 532.796 944.99 504.023 925.452 491.651C910.943 482.46 891.739 490.939 886.354 505.603C867.127 509.965 847.857 514.304 828.897 519.889C826.338 520.624 823.646 521.403 820.909 522.159C822.956 518.999 824.847 515.906 826.605 513.303C837.62 497.036 846.967 479.857 855.445 462.188C862.588 463.078 870.243 460.141 875.606 452.953C886.576 438.155 879.322 415.969 860.874 412.03C843.717 408.336 827.54 424.27 831.857 441.649C832.569 444.475 833.837 447.034 835.462 449.282C827.428 466.35 818.617 483.017 808.959 499.284C806.021 504.224 801.704 509.809 797.721 515.684C796.074 507.695 793.56 499.684 791.913 492.497C790.244 485.064 789.154 473.493 786.751 462.7C794.072 451.284 793.271 433.749 779.318 425.938C754.662 412.053 728.916 445.988 749.811 464.258C752.081 468.018 755.953 471.067 761.939 472.625C762.895 472.892 763.919 473.07 764.876 473.225C765.811 476.919 766.745 480.591 767.702 484.241C770.083 493.542 772.42 502.844 774.912 512.101C777.026 519.979 778.628 527.834 782.1 534.532C781.655 534.866 781.165 535.177 780.765 535.578C767.324 547.973 753.594 559.945 739.308 571.338C731.319 577.658 723.019 585.135 714.184 590.275C701.389 597.708 693.311 594.926 680.293 588.74C665.295 581.597 651.165 572.584 638.28 562.059C633.407 558.075 628.711 553.491 623.593 549.886C622.258 524.14 620.923 498.438 619.566 472.714C618.831 457.938 618.052 443.184 617.296 428.409C616.561 414.122 612.044 394.518 619.966 381.789C630.091 365.567 639.281 354.173 641.462 334.168C644.555 305.774 635.165 278.959 620.3 255.26C616.918 248.228 612.934 240.684 607.772 234.609C618.631 228.356 624.928 217.564 629.134 203.589C635.788 181.492 640.995 157.481 631.782 135.362C623.905 116.469 606.703 106.189 588.367 99.0231C578.398 95.1289 564.846 90.6561 551.739 89.3877C551.672 110.75 545.219 131.624 535.383 151.072C522.41 176.73 504.563 199.806 501.248 229.224C497.02 266.787 510.238 308.199 518.449 344.604C526.46 380.142 534.805 415.658 540.056 451.73C545.197 487 546.154 522.604 548.824 558.12C554.409 632.511 561.508 706.701 558.927 781.404C553.697 932.589 529.153 1082.26 523.834 1233.4C521.609 1296.69 542.437 1349.25 565.18 1406.88C584.295 1455.37 598.871 1502.17 590.704 1553.64C607.104 1553.75 623.527 1553.62 639.905 1553.2C737.861 1550.82 851.128 1550.3 933.685 1489.8C998.975 1441.89 1039.83 1355.68 996.349 1279.4Z" fill="#592639"/>
<path opacity="0.15" d="M454.293 1544.41C427.434 1500.99 412.68 1451.26 405.203 1401.06C389.271 1293.82 399.863 1183.6 400.308 1075.7C400.909 928.229 395.546 780.849 389.293 633.536C387.779 597.842 384.53 561.77 386.088 526.055C387.423 495.591 392.297 465.349 398.75 435.575C411.99 374.335 432.485 314.208 437.915 251.5C444.457 175.752 420.38 69.1608 492.056 20.4717C482.176 10.8585 470.693 3.78207 456.029 1.46778C413.014 -5.29706 378.122 27.37 363.524 64.9104C362.678 67.0689 362.745 69.0496 363.413 70.7853C361.032 64.3542 304.064 80.5763 298.412 83.4247C278.541 93.3272 266.969 111.842 267.347 134.139C267.726 157.838 275.158 187.078 285.528 208.374C287.175 211.712 289.133 214.583 291.292 217.008C268.082 253.347 246.764 298.297 268.549 340.333C272.577 348.077 278.007 354.13 283.904 360.494C296.143 373.734 301.06 384.905 297.233 403.286C292.76 424.76 287.086 444.921 284.126 466.173C265.701 459.541 247.298 452.932 228.828 446.345C218.191 442.54 205.396 439.603 195.716 433.55C185.969 427.475 181.207 416.771 176.067 407.025C157.129 370.864 152.145 330.831 142.131 291.866C141.975 288.862 141.619 285.903 141.063 282.965C141.886 282.231 142.554 281.408 143.155 280.518C148.918 277.803 153.947 273.553 159.867 269.391C166.743 264.562 173.597 259.6 180.45 254.704C185.257 263.494 194.626 269.28 206.353 267.5C227.671 264.273 236.461 238.326 222.397 222.215C210.425 208.53 185.19 210.933 180.273 228.958C171.015 235.723 161.736 242.51 152.523 249.342C154.237 243.756 155.839 238.215 157.664 232.941C162.938 217.431 168.412 202.01 174.042 186.611C178.96 186.5 183.61 184.719 187.148 180.803C196.962 176.664 205.084 166.228 201.39 151.852C193.735 121.722 151.188 124.993 146.07 154.834C144.401 164.625 148.562 173.259 154.993 179.023C149.63 194.043 144.423 209.086 139.528 224.263C137.191 231.562 134.276 239.216 131.717 247.027C127.244 234.276 122.526 221.615 117.275 209.153C113.247 199.584 109.242 187.79 104.101 176.708C110.199 168.631 113.002 157.326 110.532 147.735C105.37 127.574 81.025 119.318 63.7569 130.245C45.4206 141.883 46.9338 169.276 64.7582 180.736C67.5176 182.516 70.6331 183.74 73.8375 184.43C74.5496 184.808 75.2172 185.209 75.9515 185.498C79.0446 186.722 81.9819 187.212 84.808 187.212C90.0151 199.562 95.1557 211.89 99.9401 224.418C103.59 233.898 107.039 243.422 110.399 253.035C98.8274 248.318 87.1448 243.734 75.3953 239.461C70.6777 237.748 64.9364 235.144 58.8837 232.718C55.7683 215.272 38.233 202.611 20.4975 210.911C16.1137 212.958 12.3085 216.229 9.66045 220.213C5.83297 225.264 4.2308 231.784 4.67585 239.039C5.23217 248.451 9.94974 257.642 18.0052 262.804C30.5335 270.904 45.7989 265.564 53.8322 254.682C55.9462 255.35 57.9711 256.017 59.8181 256.685C80.8692 264.651 101.631 273.308 122.148 282.587C123.305 284.078 124.685 285.525 126.465 286.949C122.593 298.921 121.814 312.094 120.257 324.422C117.809 344.027 115.561 363.676 113.269 383.325C109.397 416.104 102.032 445.121 124.996 472.07C147.16 498.105 174.665 520.202 201.902 540.719C229.918 561.859 259.003 583.133 289.378 600.957C291.492 620.295 293.65 639.566 295.141 658.815C299.636 717.228 302.551 775.753 304.51 834.322C307.113 912.184 308.003 990.114 308.827 1068.02C298.101 1076.72 289.444 1088.89 280.855 1099.26C268.215 1114.44 255.62 1129.71 243.159 1145.04C220.906 1172.34 192.066 1199.91 176 1231.51C161.313 1260.46 166.988 1297.96 166.854 1329.4C166.743 1348.34 166.632 1367.32 166.565 1386.26C166.52 1392.24 165.942 1399.12 165.741 1406.04C161.714 1402.77 157.664 1399.72 153.992 1396.85C145.625 1390.42 136.879 1384.08 127.244 1379.8C128.624 1372.95 127.311 1365.45 122.326 1358.82C106.616 1337.9 73.1033 1349.52 71.6569 1375.15C70.9448 1387.5 78.8667 1399.85 90.8832 1403.44C99.8066 1406.08 109.976 1403.26 116.34 1396.63C116.674 1396.36 117.008 1396.07 117.342 1395.8C127.133 1403.06 137.547 1409.42 146.693 1417.68C149.586 1420.33 152.279 1423.26 154.949 1426.09C139.06 1436.93 123.884 1448.79 107.595 1459.2C97.6924 1449.3 75.4174 1450.17 68.0739 1468.46C57.8154 1494.03 83.6734 1526.03 109.976 1507.82C119.612 1501.17 122.616 1488.62 120.324 1477.69C135.923 1468.68 151.834 1458.38 165.408 1446.36C165.341 1447.19 165.252 1448.01 165.185 1448.85C163.872 1463.43 163.138 1478.09 162.203 1492.69C141.553 1500.66 129.314 1525.58 149.43 1543.45C168.924 1560.72 200.077 1543.34 193.602 1517.26C191.666 1509.52 187.082 1504.53 181.63 1502.08C181.741 1501.57 181.852 1501.04 181.897 1500.48C182.854 1484.53 183.989 1468.55 184.679 1452.55C184.834 1449.21 185.057 1446.03 185.079 1443.07C191.777 1451.44 201.19 1460.11 208.444 1466.55C203.526 1475.58 203.727 1489.24 207.287 1497.5C215.476 1516.48 239.843 1514.88 250.97 1499.39C261.428 1484.88 257.601 1460.18 236.75 1458.96C234.636 1458.85 232.7 1459.02 230.875 1459.36C219.816 1448.45 209.112 1436.39 196.65 1427.2C193.869 1425.11 191.355 1423.84 188.773 1422.66C207.755 1385.41 197.785 1333.14 227.693 1302.01C242.825 1286.23 262.585 1272.39 280.855 1260.44C290.09 1254.41 299.636 1248.94 309.761 1244.6C310.273 1244.37 310.741 1244.2 311.252 1244C312.031 1283.36 313.121 1322.77 314.679 1362.14C315.836 1391.42 317.06 1420.73 319.063 1449.99C320.443 1469.59 322.49 1490.02 335.997 1505.49C348.993 1520.42 368.264 1527.36 386.934 1532.01C408.986 1537.51 431.617 1541.34 454.293 1544.41Z" fill="#FFFCFC"/>
<path opacity="0.3" d="M537.805 241.997C547.53 252.723 562.661 264.984 577.815 267.833C580.597 277.446 583.245 287.081 585.07 296.962C588.897 317.879 582.021 330.007 569.871 346.274C547.396 376.404 544.414 413.321 546.973 449.771C553.115 536.957 560.414 624.055 564.976 711.352C573.877 881.564 565.51 1054.11 588.007 1223.3C594.082 1269.05 602.249 1314.67 615.667 1358.89C621.364 1377.64 629.509 1395.14 641.08 1410.98C652.073 1426.04 667.272 1437.53 682.27 1448.56C682.715 1448.9 683.138 1449.1 683.583 1449.34C698.292 1461.67 715.649 1469.97 734.475 1470.97C744.845 1471.53 748.672 1456.35 739.749 1451.5C722.792 1442.29 705.925 1436.37 691.06 1423.8C682.96 1411.07 679.355 1396 675.238 1381.32C670.454 1364.27 665.692 1347.18 661.353 1330C651.294 1290.3 643.483 1250 638.432 1209.35C635.584 1186.54 633.47 1163.68 631.756 1140.79C634.204 1142.77 637.72 1143.59 640.524 1142.79C655.099 1138.54 663.6 1125.01 673.814 1114.64C686.698 1101.58 701.964 1090.12 718.52 1082.08C736.812 1073.23 755.037 1080.13 773.64 1084.84C791.665 1089.4 809 1094.97 827.603 1096.57C836.793 1097.35 842.824 1083.57 835.458 1077.61C817.344 1062.97 795.67 1055.14 773.373 1048.9C751.343 1042.76 729.757 1039.09 708.083 1048.3C688.768 1056.52 671.121 1069.56 656.19 1084.22C646.065 1094.17 634.582 1106.05 630.287 1119.8C627.039 1067.6 625.971 1015.24 624.992 962.965C623.389 876.579 620.941 790.238 616.135 703.965C614.866 681.089 613.22 658.324 611.35 635.604C617.359 647.621 630.688 655.721 642.393 661.507C661.108 670.808 682.693 679.353 703.566 672.61C722.703 666.424 737.524 649.467 749.629 634.269C763.114 617.357 777.69 597.908 782.586 576.478C785.389 564.239 771.437 556.807 762.269 564.662C738.97 584.623 728.734 616.734 703.7 635.537C679.066 654.052 644.218 630.308 622.455 617.045C617.537 614.064 612.508 616.267 610.038 620.294C608.302 600.423 606.41 580.595 604.319 560.768C609.303 533.998 606.744 505.826 605.12 478.744C604.029 460.475 602.65 442.139 602.516 423.825C602.405 409.472 605.275 390.156 598.689 376.471C606.566 363.475 617.737 352.46 622.944 337.706C633.002 309.156 623.701 279.782 607.011 255.883C608.903 251.21 608.346 245.224 604.385 241.975C590.032 230.27 570.606 228.957 555.652 217.252C540.987 205.77 528.526 188.657 522.095 171.211C518.467 161.353 504.738 165.247 506.473 175.506C510.746 200.941 520.381 222.749 537.805 241.997Z" fill="#592642"/>
<path opacity="0.3" d="M520.117 1540.91C582.313 1554.98 650.117 1553.24 713.538 1546.63C772.129 1540.51 833.858 1535.64 888.645 1512.21C938.113 1491.07 977.812 1450.81 995.213 1399.47C1013.06 1346.78 1002.93 1284.14 964.082 1242.97C956.76 1235.2 942.652 1243.19 945.968 1253.52C953.912 1278.26 960.432 1301.16 958.897 1327.51C957.539 1350.99 955.581 1372.64 946.502 1394.62C928.299 1438.77 890.848 1469.24 846.676 1485.64C742.222 1524.42 631.158 1519.04 522.276 1524.74C513.463 1525.2 510.66 1538.75 520.117 1540.91Z" fill="#592642"/>
<path opacity="0.3" d="M870.04 1434.61C905.266 1433.54 935.329 1403.48 940.202 1369.03C944.364 1339.62 922.912 1301.05 889.066 1308.84C881.989 1310.46 880.254 1321.5 886.974 1324.84C908.826 1335.63 923.224 1351.74 913.032 1377.64C904.687 1398.83 885.416 1410.02 865.967 1419.55C858.668 1423.08 862.251 1434.83 870.04 1434.61Z" fill="#592642"/>
<path opacity="0.3" d="M199.698 1354.99C209.579 1315.49 228.961 1276.88 264.521 1254.74C281.366 1244.26 302.15 1240.95 314.946 1224.77C326.383 1210.33 328.898 1192.08 327.006 1174.23C325.76 1162.31 309.783 1159.23 305.71 1171.36C302.551 1180.75 300.503 1190.92 296.364 1199.93C290.734 1212.17 280.676 1215.27 269.06 1220.34C251.636 1227.95 235.792 1238.85 222.374 1252.36C195.849 1279.09 179.181 1314.98 182.764 1352.7C183.632 1361.82 197.184 1365.05 199.698 1354.99Z" fill="#592642"/>
<path opacity="0.3" d="M238.264 550.979C237.886 556.498 239.688 561.95 244.895 564.887C254.553 570.317 264.522 571.029 272.489 579.53C281.301 588.92 296.121 581.265 296.7 569.494C297.59 551.558 294.897 529.261 272.978 528.66C250.97 528.059 231.188 525.5 210.537 517.088C203.082 514.062 196.696 525.567 202.659 530.618C213.497 539.786 224.779 546.751 238.264 550.979Z" fill="#592642"/>
<path opacity="0.3" d="M384.128 108.637C387.355 137.343 396.456 169.521 377.875 195.022C368.974 207.239 355.2 216.14 340.491 219.434C327.139 222.393 313.765 218.499 300.547 221.125C293.715 222.482 292.847 231.005 296.742 235.522C322.399 265.341 377.675 242.443 398.304 217.743C426.72 183.718 422.025 140.971 404.556 103.074C400.128 93.4832 382.927 97.956 384.128 108.637Z" fill="#592642"/>
<path opacity="0.5" d="M331.59 124.237C340.58 128.309 348.947 133.405 356.224 140.126C363.456 146.801 368.396 154.79 374.56 162.311C381.236 170.478 391.939 161.599 390.248 153.032C395.033 148.982 397.659 142.017 398.371 135.808C399.461 126.373 397.614 116.426 392.14 108.549C386.02 99.7366 372.713 91.1695 360.674 90.5464C356.936 89.1668 352.953 88.1875 348.747 87.6535C345.164 87.2084 342.049 88.5882 339.69 90.8802C338.244 90.4351 336.73 90.0791 335.061 89.9233C330.144 89.456 324.758 94.7968 325.27 99.7146C325.715 104.054 327.407 107.97 329.899 111.442C326.739 115.225 326.272 121.811 331.59 124.237Z" fill="#FFF7F7"/>
<path opacity="0.5" d="M520.095 158.149C519.093 161.754 518.403 165.515 518.203 169.454C517.691 178.555 529.552 180.046 534.025 173.726C544.284 159.217 555.721 145.31 573.19 139.657C584.494 136.008 586.608 121.032 576.461 114.623C562.464 105.789 540.723 94.9514 526.659 109.126C515.021 120.854 508.167 143.173 518.759 156.881C519.116 157.371 519.583 157.771 520.095 158.149Z" fill="#FFF7F7"/>
<path opacity="0.5" d="M148.652 426.608C153.481 442.986 160.134 458.719 174.465 468.999C190.487 480.504 210.759 488.226 228.784 496.036C247.365 504.07 269.929 515.151 290.58 513.126C294.007 512.792 296.989 511.101 299.17 508.765C298.791 533.71 299.548 558.722 300.126 583.668C301.15 627.928 301.973 672.189 303.442 716.405C307.403 837.305 311.408 958.182 315.414 1079.08C300.304 1088.81 289.111 1106.21 277.807 1119.87C263.654 1137.03 249.212 1153.89 234.636 1170.7C212.139 1196.64 179.405 1224.61 174.243 1260.24C172.663 1271.1 187.705 1275.97 191.11 1264.89C196.807 1246.33 213.274 1233.23 226.158 1219.7C239.732 1205.43 252.995 1190.81 266.391 1176.39C279.809 1161.95 293.628 1147.93 307.292 1133.76C310.474 1130.46 313.7 1127.24 316.883 1124.01C318.418 1170.07 319.931 1216.11 321.489 1262.18C323.202 1313.22 324.515 1364.29 326.652 1415.32C328.232 1453.13 331.547 1494.56 363.858 1518.97C377.699 1529.43 392.03 1509.89 385.666 1497.17C368.91 1463.68 366.351 1431.83 365.238 1394.94C363.947 1351.92 362.657 1308.89 361.366 1265.87C354.29 1029.17 342.407 787.414 347.97 549.487C349.327 491.497 375.541 441.895 381.95 385.707C384.954 359.36 375.652 330.809 351.152 317.747C338.49 311.004 322.802 310.715 312.098 300.323C301.039 289.575 298.635 273.242 300.972 258.621C301.128 257.687 301.106 256.774 300.994 255.884C301.039 255.729 301.083 255.595 301.128 255.44C303.553 247.495 292.138 239.996 286.508 246.939C280.856 253.904 277.095 261.982 275.025 270.504C260.828 297.475 266.725 329.474 289.712 349.569C304.599 362.587 314.724 370.798 312.699 392.249C310.875 411.632 305.289 430.725 302.841 450.107C301.061 464.17 300.104 478.279 299.548 492.387C298.747 491.63 297.834 490.896 296.699 490.295C282.102 482.395 264.7 479.614 249.078 473.806C231.655 467.33 214.186 459.831 197.608 451.397C166.165 435.398 158.821 387.955 147.583 357.001C143.912 346.876 128.357 350.793 131.206 361.518C137.08 383.148 142.31 405.067 148.652 426.608Z" fill="#FFF7F7"/>
<path opacity="0.5" d="M652.343 1059.56C676.932 1056.05 699.096 1036.55 722.729 1028.83C746.784 1020.98 770.261 1022.31 792.202 1035.31C804.597 1042.63 816.146 1026.23 807.089 1016.02C787.573 994.03 755.997 990.959 728.581 997.435C713.983 1000.88 699.63 1007.43 686.613 1014.79C672.215 1022.94 654.724 1032.22 643.709 1044.72C637.456 1051.82 643.709 1060.81 652.343 1059.56Z" fill="#FFF7F7"/>
<path opacity="0.5" d="M775.643 1299.38C762.003 1325.51 758.086 1357.4 773.151 1383.9C785.056 1404.84 812.183 1423.35 836.905 1415.23C843.581 1413.03 846.341 1402.52 839.02 1399.01C820.394 1390.04 805.218 1380.63 802.636 1358.09C800.233 1337.28 809.223 1317.59 822.708 1302.3C835.548 1287.74 852.037 1276.28 869.862 1268.7C888.065 1260.95 909.138 1259.42 926.518 1250.85C934.707 1246.82 932.86 1235.92 926.518 1231.45C902.596 1214.58 864.543 1226.28 841.089 1238.23C814.875 1251.58 789.396 1273.04 775.643 1299.38Z" fill="#FFF7F7"/>
<path opacity="0.5" d="M383.731 88.208C387.18 95.3289 400.175 96.1075 404.159 86.4498C409.655 73.0314 416.932 59.6576 427.858 49.8664C440.497 38.5175 453.604 38.1615 469.626 38.8069C480.018 39.2297 483.445 24.6096 474.834 19.5805C473.12 18.5791 471.34 17.7777 469.537 17.0879C468.736 15.4634 467.379 13.9728 465.265 12.8601C426.078 -7.90169 374.251 39.4744 376.699 79.7074C376.988 84.6253 380.081 87.5404 383.731 88.208Z" fill="#FFF7F7"/>
<path d="M193.551 1517.19C191.615 1509.45 187.031 1504.46 181.579 1502.02C181.69 1501.5 181.801 1500.97 181.846 1500.41C182.803 1484.46 183.938 1468.48 184.628 1452.48C184.783 1449.14 185.006 1445.96 185.028 1443C191.726 1451.37 201.139 1460.05 208.393 1466.48C203.476 1475.51 203.676 1489.18 207.236 1497.43C215.425 1516.41 239.792 1514.81 250.919 1499.32C261.377 1484.81 257.55 1460.11 236.699 1458.89C234.585 1458.78 232.649 1458.96 230.824 1459.29C219.765 1448.39 209.061 1436.33 196.599 1427.14C193.818 1425.04 191.303 1423.78 188.722 1422.6C207.703 1385.34 197.734 1333.07 227.642 1301.94C242.774 1286.16 262.534 1272.32 280.804 1260.37C290.039 1254.34 299.585 1248.87 309.71 1244.53C310.222 1244.31 310.69 1244.13 311.201 1243.93C311.98 1283.29 313.07 1322.7 314.628 1362.07C315.785 1391.35 317.009 1420.66 319.012 1449.92C320.392 1469.53 322.439 1489.96 335.946 1505.42C348.942 1520.35 368.213 1527.3 386.883 1531.95C414.499 1538.87 442.915 1543.14 471.198 1546.57C527.075 1553.42 583.53 1554.69 639.785 1553.26C737.742 1550.88 851.009 1550.37 933.566 1489.87C999.012 1441.87 1039.87 1355.66 996.364 1279.4C978.05 1247.33 946.584 1221.59 909.311 1216.67C866.274 1210.97 822.281 1233.67 793.708 1264.78C764.69 1296.33 745.219 1344.78 765.736 1385.83C779.199 1412.85 807.371 1428.85 836.767 1431.52C810.798 1450.52 777.753 1457.89 745.397 1448.14C702.004 1435.12 677.237 1398.3 668.425 1355.5C658.834 1308.84 660.236 1259.04 657.744 1211.6L654.695 1152.63C667.579 1145.42 678.327 1129.33 686.984 1119.89C701.759 1103.74 718.382 1083.78 740.969 1079.19C765.046 1074.36 797.179 1091.65 818.653 1100.8C831.449 1106.27 844.021 1112.15 856.416 1118.45C859.62 1120.05 862.291 1121.56 864.828 1122.81C856.683 1137.2 851.654 1154.58 846.558 1170.03C830.892 1169.03 816.45 1184.58 824.016 1201.76C832.917 1221.97 864.583 1222.74 871.859 1200.67C874.908 1191.43 871.815 1182.56 865.874 1176.75C871.259 1163.13 877.712 1148.62 881.117 1134.02C883.431 1136.14 885.723 1138.18 888.037 1140.32C898.073 1149.51 908.087 1158.74 918.101 1168C912.96 1179.95 915.787 1194.71 928.716 1201.4C945.005 1209.88 965.544 1198.4 966.634 1180.24C967.591 1163.46 951.702 1151.16 936.303 1155.94C924.398 1144.97 912.448 1134.02 900.098 1123.56C898.273 1122.01 896.449 1120.43 894.624 1118.91C908.02 1113.04 921.083 1103.85 933.366 1095.48C940.22 1103.56 951.791 1107.12 962.784 1101.51C980.008 1092.7 982.389 1068 968.147 1055.4C954.35 1043.28 930.54 1049.42 926.935 1068.51C926.779 1069.36 926.668 1070.22 926.646 1071.07C915.942 1077.32 903.904 1083.58 893.155 1090.83C894.157 1083.2 894.713 1075.5 895.692 1068.42C897.673 1054.31 899.609 1040.23 901.5 1026.07C903.102 1025.52 904.66 1024.81 906.195 1023.87C914.451 1018.84 917.656 1011.1 917.144 1003.62C920.682 995.298 919.57 985.129 911.158 977.541C893.89 961.986 866.964 975.672 866.074 998.08C865.673 1008.9 871.503 1018.51 879.87 1023.67C877.979 1037.62 876.11 1051.53 874.285 1065.48C873.239 1073.47 871.414 1082.08 870.369 1090.67C868.855 1088.92 867.32 1087.18 865.829 1085.31C854.769 1071.74 843.776 1058.14 832.761 1044.57C815.938 1023.85 799.649 999.326 775.638 986.219C753.92 974.381 732.602 978.186 711.128 988.422C696.174 995.521 681.554 1003.42 666.822 1011.01C660.792 1014.1 653.716 1016.93 647.93 1020.91C641.833 903.016 635.735 785.099 629.616 667.204C640.787 675.615 658.834 680.378 668.825 684.272C691.19 693.062 710.616 697.735 729.442 679.621C747.667 662.108 760.507 636.25 772.723 614.465C779.8 601.847 786.454 589.008 792.707 575.99C795.355 570.493 798.403 565.42 800.184 560.213C803.766 566.466 811.71 571.228 817.229 575.166C828.578 583.311 840.372 590.721 852.455 597.686C850.363 602.604 850.118 608.412 852.611 614.42C859.042 630.153 878.914 634.069 892.021 624.122C905.128 614.109 908.465 591.722 893.845 581.33C886.079 575.789 878.847 576.413 872.905 580.262C859.442 572.296 833.362 556.719 815.983 550.199C823.682 547.528 831.315 544.613 838.614 542.611C853.657 538.472 868.833 534.911 884.01 531.417C890.53 543.701 907.264 549.576 921.817 542.499C941.822 532.797 945.004 504.024 925.466 491.652C910.958 482.461 891.754 490.94 886.368 505.604C867.142 509.966 847.871 514.305 828.912 519.89C826.353 520.625 823.66 521.404 820.923 522.16C822.97 519 824.862 515.907 826.62 513.304C837.635 497.037 846.981 479.858 855.459 462.189C862.602 463.079 870.257 460.142 875.62 452.954C886.591 438.156 879.337 415.97 860.889 412.031C843.732 408.337 827.554 424.271 831.871 441.65C832.583 444.476 833.852 447.035 835.476 449.283C827.443 466.351 818.631 483.018 808.973 499.284C806.036 504.225 801.719 509.81 797.736 515.685C796.089 507.696 793.574 499.685 791.928 492.498C790.259 485.065 789.168 473.494 786.765 462.701C794.086 451.285 793.285 433.75 779.332 425.939C754.676 412.054 728.93 445.989 749.826 464.259C752.095 468.019 755.967 471.068 761.953 472.626C762.91 472.893 763.934 473.071 764.891 473.226C765.825 476.92 766.76 480.592 767.717 484.242C770.098 493.543 772.434 502.845 774.926 512.102C777.04 519.98 778.643 527.835 782.114 534.533C781.669 534.867 781.179 535.178 780.779 535.579C767.338 547.973 753.608 559.946 739.322 571.339C731.333 577.659 723.033 585.136 714.199 590.276C701.404 597.709 693.326 594.927 680.308 588.741C665.309 581.598 651.179 572.585 638.294 562.06C633.421 558.076 628.726 553.492 623.608 549.887C622.273 524.141 620.937 498.439 619.58 472.715C618.845 457.939 618.067 443.185 617.31 428.409C616.576 414.123 612.059 394.518 619.98 381.79C630.105 365.568 639.296 354.174 641.477 334.169C644.57 305.775 635.179 278.96 620.314 255.261C616.932 248.229 612.949 240.685 607.786 234.61C618.645 228.357 624.943 217.565 629.149 203.59C635.802 181.493 641.009 157.482 631.797 135.363C623.919 116.47 606.718 106.189 588.382 99.0241C576.254 94.3065 558.83 88.6099 543.364 89.0104C540.583 81.1329 534.463 75.0132 528.855 67.4028C520.822 56.4544 512.923 45.4172 504.667 34.6691C491.983 18.1131 477.429 4.76154 456.156 1.40138C413.141 -5.36346 378.249 27.3035 363.651 64.8439C362.805 67.0025 362.872 68.9828 363.54 70.7185C361.159 64.2875 304.192 80.5099 298.54 83.3583C278.668 93.2607 267.096 111.775 267.474 134.072C267.853 157.771 275.285 187.011 285.655 208.307C287.302 211.645 289.26 214.516 291.418 216.941C268.209 253.28 246.891 298.231 268.676 340.266C272.704 348.01 278.134 354.063 284.031 360.427C296.27 373.668 301.187 384.839 297.36 403.219C292.887 424.693 287.213 444.854 284.253 466.106C265.828 459.474 247.425 452.865 228.955 446.278C218.318 442.473 205.523 439.536 195.843 433.483C186.096 427.408 181.334 416.704 176.194 406.958C157.257 370.797 152.272 330.764 142.258 291.8C142.102 288.796 141.747 285.836 141.19 282.899C142.014 282.164 142.681 281.341 143.282 280.451C149.045 277.736 154.074 273.486 159.994 269.324C166.87 264.496 173.724 259.533 180.577 254.638C185.384 263.427 194.752 269.213 206.48 267.433C227.798 264.206 236.588 238.26 222.524 222.149C210.552 208.463 185.317 210.866 180.399 228.891C171.142 235.656 161.863 242.443 152.65 249.275C154.364 243.689 155.966 238.148 157.791 232.874C163.064 217.364 168.539 201.943 174.169 186.544C179.087 186.433 183.738 184.653 187.276 180.736C197.089 176.597 205.211 166.161 201.517 151.785C193.863 121.655 151.315 124.926 146.197 154.767C144.528 164.559 148.689 173.192 155.12 178.956C149.757 193.977 144.55 209.019 139.655 224.196C137.318 231.495 134.403 239.15 131.844 246.96C127.371 234.21 122.654 221.548 117.402 209.086C113.374 199.518 109.369 187.724 104.228 176.642C110.325 168.564 113.129 157.26 110.659 147.669C105.497 127.508 81.152 119.252 63.8839 130.178C45.5476 141.816 47.0611 169.209 64.8855 180.67C67.6449 182.45 70.76 183.674 73.9644 184.364C74.6765 184.742 75.3441 185.142 76.0785 185.431C79.1716 186.655 82.1092 187.145 84.9353 187.145C90.1424 199.495 95.2827 211.823 100.067 224.352C103.716 233.831 107.166 243.355 110.526 252.969C98.9544 248.251 87.2717 243.667 75.5223 239.394C70.8047 237.681 65.0634 235.078 59.0106 232.652C55.8952 215.206 38.3603 202.544 20.6248 210.844C16.241 212.891 12.4355 216.162 9.7874 220.146C5.95993 225.197 4.35775 231.717 4.80281 238.972C5.35912 248.385 10.0767 257.575 18.1322 262.738C30.6605 270.838 45.9259 265.497 53.9591 254.615C56.0732 255.283 58.0984 255.951 59.9454 256.618C80.9965 264.585 101.758 273.241 122.275 282.52C123.432 284.011 124.812 285.458 126.592 286.882C122.72 298.854 121.941 312.028 120.384 324.356C117.936 343.96 115.688 363.609 113.396 383.258C109.524 416.037 102.159 445.055 125.124 472.003C147.288 498.038 174.792 520.135 202.029 540.653C230.045 561.793 259.13 583.066 289.505 600.89C291.619 620.228 293.777 639.499 295.268 658.748C299.763 717.161 302.678 775.686 304.637 834.255C307.24 912.117 308.13 990.047 308.954 1067.95C298.228 1076.65 289.572 1088.83 280.982 1099.2C268.342 1114.37 255.747 1129.64 243.286 1144.97C221.033 1172.27 192.193 1199.85 176.127 1231.44C161.44 1260.4 167.115 1297.89 166.981 1329.33C166.87 1348.27 166.759 1367.25 166.692 1386.19C166.647 1392.18 166.069 1399.05 165.868 1405.97C161.841 1402.7 157.791 1399.65 154.119 1396.78C145.752 1390.35 137.007 1384.01 127.371 1379.74C128.751 1372.88 127.438 1365.38 122.453 1358.75C106.743 1337.84 73.2303 1349.45 71.7838 1375.09C71.0717 1387.44 78.9937 1399.79 91.0102 1403.37C99.9335 1406.02 110.103 1403.19 116.467 1396.56C116.801 1396.29 117.135 1396 117.469 1395.74C127.26 1402.99 137.674 1409.36 146.82 1417.61C149.713 1420.26 152.406 1423.2 155.076 1426.02C139.187 1436.86 124.011 1448.72 107.722 1459.14C97.8194 1449.23 75.5443 1450.1 68.2009 1468.39C57.9424 1493.96 83.8003 1525.96 110.103 1507.76C119.739 1501.1 122.743 1488.55 120.451 1477.63C136.05 1468.61 151.96 1458.31 165.535 1446.3C165.468 1447.12 165.379 1447.94 165.312 1448.79C163.999 1463.36 163.265 1478.03 162.33 1492.63C141.68 1500.59 129.441 1525.51 149.557 1543.38C168.873 1560.65 200.027 1543.27 193.551 1517.19ZM149.268 468.242C137.251 456.114 128.284 446.034 128.506 427.875C128.684 411.92 131.933 395.497 133.669 379.609C134.403 372.733 135.204 365.879 135.983 359.003C141.969 381.768 151.248 403.798 161.173 423.402C170.92 442.629 183.448 452.131 203.431 459.63C229.556 469.488 255.97 478.612 282.273 487.936C281.427 516.019 283.474 544.235 286.3 572.362C239.08 539.339 190.502 509.721 149.268 468.242ZM696.752 1019.04C724.257 1005.53 748.913 990.314 776.106 1012.99C795.444 1029.15 810.286 1051.46 826.041 1070.96C829.98 1075.83 833.941 1080.7 837.88 1085.62C832.138 1083.09 826.419 1080.57 820.612 1078.19C796.312 1068.15 767.449 1053.67 740.39 1057.54C716.58 1060.92 697.487 1077.32 681.487 1094.23C671.741 1104.54 662.328 1115.29 653.293 1126.23C652.225 1105.43 651.134 1084.67 650.066 1063.88C649.666 1055.96 649.243 1048.04 648.842 1040.07C665.02 1039.09 684.135 1025.23 696.752 1019.04ZM635.29 585.514C651.223 597.909 669.048 608.212 688.007 615.288C709.659 623.366 721.72 611.817 738.766 598.91C748.891 591.277 758.793 583.355 768.451 575.211C766.359 580.374 764.357 585.269 762.287 589.208C751.873 608.813 740.568 628.017 728.307 646.531C722.432 655.432 715.133 668.895 703.829 671.499C693.749 673.835 680.286 666.247 671.162 662.82C660.08 658.659 642.189 646.932 628.526 648.244C627.346 624.59 626.1 600.913 624.876 577.258C628.437 580.262 632.086 583.022 635.29 585.514ZM528.833 122.167C533.195 108.036 546.991 110.707 558.251 112.754C562.19 113.466 566.173 114.401 570.112 115.469C560.655 127.196 563.369 147.913 571.202 159.552C580.615 173.571 599.508 182.873 615.486 175.351C615.486 183.095 614.484 190.416 612.659 196.291C600.265 236.146 553.4 217.053 537.534 188.992C527.988 172.08 523.048 141.237 528.833 122.167ZM297.004 159.552C309.733 158.884 322.573 152.23 330.673 142.461C339.596 131.713 343.913 115.091 336.814 102.251C335.212 99.3802 333.165 96.9769 330.85 94.9519C361.07 89.5667 387.995 92.1925 384.88 131.491C382.321 163.602 368.591 189.971 337.66 202.477C330.85 205.237 319.991 209.687 312.737 207.173C304.058 204.146 300.898 190.238 298.495 182.427C296.27 175.129 293.844 167.362 291.864 159.463C293.666 159.596 295.38 159.618 297.004 159.552ZM305.683 480.014C307.129 453.221 316.364 429.122 320.303 402.952C323.084 384.127 319.746 367.392 307.174 352.884C300.409 345.073 292.22 338.664 287.391 329.34C280.693 316.322 279.758 300.478 282.139 286.303C285.677 265.03 296.359 245.447 306.84 226.711C315.251 229.047 324.775 228.491 334.3 225.865C381.075 212.958 404.907 173.037 406.22 126.106C406.732 106.434 400.902 86.34 382.455 76.482C381.609 76.037 380.697 75.7033 379.806 75.3028C380.585 74.5907 381.297 73.7672 381.809 72.6991C396.986 42.4799 431.077 5.05078 468.35 28.0601C483.571 37.4286 493.607 55.52 503.91 69.5837C509.829 77.6615 515.103 87.7865 522.18 95.2856C519.309 92.237 508.45 114.401 507.849 116.493C498.48 150.428 511.788 199.05 538.068 222.149C552.199 234.566 570.913 242.31 589.85 240.262C610.122 276.801 637.627 321.863 609.944 360.516C605.182 367.148 598.929 372.154 596.036 380.01C592.921 388.466 593.989 397.656 594.39 406.379C595.703 433.461 597.216 460.543 598.596 487.646C604.092 593.525 609.566 699.426 615.04 805.349C620.515 911.227 625.989 1017.13 631.441 1123.01L639.474 1278.15C641.677 1320.86 642.478 1365.78 662.172 1404.77C703.028 1485.66 814.714 1495.85 871.904 1428.09C873.083 1427.71 874.24 1427.42 875.398 1427.05C916.209 1412.8 945.383 1365.76 918.857 1325.71C896.805 1292.44 845.379 1298.65 832.161 1336.1C826.909 1350.88 850.43 1357.24 855.571 1342.57C861.89 1324.57 886.302 1323.82 897.317 1337.32C912.716 1356.19 902.902 1382.01 885.233 1395.14C856.104 1416.79 808.061 1410.69 789.013 1378.4C769.252 1344.84 790.058 1302.81 814.536 1278.02C842.375 1249.83 885.745 1229.89 924.843 1245.29C956.754 1257.81 979.541 1288.97 987.863 1321.48C996.875 1356.68 986.483 1393.07 966.812 1422.71C919.08 1494.63 830.291 1516.95 749.38 1524.31C659.679 1532.41 567.709 1534.46 478.119 1524.36C455.911 1521.87 433.769 1518.39 411.85 1513.9C393.136 1510.07 370.06 1506.8 355.751 1492.91C340.909 1478.52 342.355 1454.42 341.287 1435.32C339.796 1409.73 338.617 1384.1 337.615 1358.46C330.25 1169.2 334.077 979.677 326.111 790.44C323.908 737.99 320.792 685.585 316.253 633.291C311.869 582.465 302.901 531.061 305.683 480.014ZM197.979 1234.05C216.916 1203.27 244.109 1175.81 266.629 1147.62C277.444 1134.07 288.348 1120.65 299.007 1106.96C302.233 1102.76 305.705 1098.55 309.087 1094.23C309.377 1124.9 309.71 1155.52 310.155 1186.16C310.333 1198.02 310.534 1209.9 310.756 1221.72C296.314 1224.28 281.071 1235.34 270.278 1242.42C249.962 1255.74 227.13 1271.66 210.797 1289.77C196.355 1305.77 191.86 1326.44 187.476 1346.91V1339.95C187.52 1307.13 180.11 1263.15 197.979 1234.05Z" fill="#3D2938"/>
<path d="M423.916 523.651C426.921 524.029 430.881 524.541 433.841 523.584C433.908 523.584 433.953 523.54 434.019 523.54C434.131 524.586 434.464 525.965 434.954 527.59C433.307 534.132 433.797 547.907 437.513 553.937C440.495 558.744 446.926 559.523 451.02 555.651C458.564 548.574 455.938 530.082 454.781 520.87C453.958 514.171 452.845 506.962 445.858 503.802C433.663 498.216 421.558 510.277 411.633 494.945C395.811 470.512 428.745 453.911 448.572 458.406C453.935 459.585 461.257 455.736 460.522 449.283C458.742 433.327 456.695 416.994 449.73 402.374C448.417 399.659 444.144 400.482 443.477 403.197C440.473 414.657 440.317 426.607 440.918 438.423C410.454 437.755 380.012 461.61 390.582 495.835C395.166 510.656 408.451 521.782 423.916 523.651Z" fill="#3D2938"/>
<path d="M426.899 683.959C434.932 685.072 432.262 682.313 435.244 687.898C439.294 695.553 435.978 706.991 440.495 715.758C443.5 721.566 451.466 719.363 453.402 714.045C457.875 701.762 459.321 672.455 444.39 665.445C432.485 659.837 416.151 668.271 416.195 647.064C416.195 630.731 431.861 622.052 446.593 623.365C453.358 623.921 456.495 616.89 455.716 611.415C454.181 601.112 453.38 592.434 446.192 584.734C445.013 583.466 442.988 583.911 442.097 585.246C438.003 591.432 437.157 597.685 437.068 604.45C413.592 606.876 393.497 627.148 396.435 652.182C397.992 665.267 405.803 676.883 418.309 681.845C421.091 682.958 423.961 683.559 426.899 683.959Z" fill="#3D2938"/>
<path d="M453.515 775.018C457.987 775.464 463.083 770.546 462.549 766.006C461.348 756.104 460.057 747.135 454.983 738.39C453.982 736.677 451.668 736.855 450.666 738.39C446.416 744.599 444.836 750.473 444.413 757.149C422.227 760.376 405.916 784.765 407.986 807.04C409.076 818.456 415.307 829.515 425.654 835.012C429.526 837.059 436.847 836.547 439.896 838.706C441.454 839.818 441.676 856.308 442.789 861.582C444.458 869.459 457.075 869.504 458.744 861.582C461.081 850.188 464.797 829.649 453.27 821.771C446.349 817.054 440.808 820.013 433.821 814.116C418.155 800.876 434.266 773.216 453.515 775.018Z" fill="#3D2938"/>
<path d="M450.599 887.862C447.372 897.386 447.84 907.399 449.041 917.324C428.88 924.912 413.059 942.692 415.929 965.813C418.355 984.973 434.354 998.658 452.357 998.48C452.201 1009.23 452.201 1020.07 454.694 1030.37C456.585 1038.11 468.913 1038.38 470.649 1030.37C473.786 1016.19 472.184 1001.13 471.984 986.664C471.917 980.812 465.687 974.914 459.589 977.207C444.991 982.792 432.196 970.953 435.445 955.51C438.093 942.737 450.288 936.061 461.926 933.257C467.311 931.922 469.336 926.492 468.557 921.53C466.666 909.402 464.752 897.052 457.586 886.927C455.673 884.212 451.712 884.613 450.599 887.862Z" fill="#3D2938"/>
<path d="M461.792 1063.79C456.919 1071.72 456.029 1080.3 456.541 1089.16C434.777 1095.57 415.796 1114.53 424.875 1139.16C428.902 1150.13 438.427 1159.44 450.176 1161.44C452.824 1161.88 457.097 1160.55 459.144 1161.51C461.036 1162.4 459.411 1165.64 459.033 1171.19C458.477 1179.89 459.256 1186.45 462.705 1194.33C464.685 1198.76 472.563 1198.82 474.499 1194.33C479.595 1182.58 483.644 1155.25 472.563 1146.04C465.197 1139.88 457.075 1145.75 449.153 1141.43C427.567 1129.64 451.467 1107.01 466.154 1105.09C472.296 1104.32 475.856 1100.07 474.788 1093.79C473.008 1083.6 471.895 1073.18 467.467 1063.79C466.421 1061.46 462.994 1061.84 461.792 1063.79Z" fill="#3D2938"/>
<path d="M464.929 1221.7C462.948 1229.33 462.837 1237.03 463.215 1244.8C444.056 1249.45 428.345 1266.6 430.704 1287.59C432.974 1308.08 450.197 1320.88 469.068 1322.59C469.023 1332.67 469.735 1342.35 474.542 1351.56C477.368 1356.99 486.402 1355.84 487.76 1349.85C490.43 1337.68 488.094 1325.44 488.161 1312.98C488.205 1306.39 482.108 1302.79 476.189 1303.86C445.302 1309.35 439.761 1262.18 472.094 1260.44C477.702 1260.15 481.462 1255.3 480.239 1249.76C477.969 1239.74 475.699 1229.82 470.492 1220.96C469.179 1218.76 465.552 1219.14 464.929 1221.7Z" fill="#3D2938"/>
<path d="M493.611 1467.03C505.561 1476.16 520.293 1474.91 531.597 1465.28C532.487 1464.54 537.917 1458.91 538.518 1457.4C540.009 1458.4 546.217 1461.38 548.198 1462.45C557.232 1467.21 564.13 1470.99 574.567 1469.82C577.883 1469.44 579.975 1466.39 578.328 1463.23C572.275 1451.37 551.402 1436.88 537.583 1437.19C528.904 1437.37 528.237 1443.56 521.85 1447.79C510.345 1455.42 501.267 1452.61 497.039 1439.31C493.945 1429.6 497.261 1419.19 507.987 1416.28C512.749 1414.96 515.953 1409.62 514.507 1404.77C511.503 1394.69 507.408 1383.9 497.394 1379.25C495.992 1378.58 494.457 1379.09 493.923 1380.63C491.698 1387.44 492.655 1394.65 494.323 1401.66C470.869 1414.47 471.893 1450.41 493.611 1467.03Z" fill="#3D2938"/>
</g>
<defs>
<filter id="filter0_d_403_14164" x="0.603516" y="0.507812" width="1017.79" height="1561.28" filterUnits="userSpaceOnUse" color-interpolation-filters="sRGB">
<feFlood flood-opacity="0" result="BackgroundImageFix"/>
<feColorMatrix in="SourceAlpha" type="matrix" values="0 0 0 0 0 0 0 0 0 0 0 0 0 0 0 0 0 0 127 0" result="hardAlpha"/>
<feOffset dy="4"/>
<feGaussianBlur stdDeviation="2"/>
<feComposite in2="hardAlpha" operator="out"/>
<feColorMatrix type="matrix" values="0 0 0 0 0 0 0 0 0 0 0 0 0 0 0 0 0 0 0.25 0"/>
<feBlend mode="normal" in2="BackgroundImageFix" result="effect1_dropShadow_403_14164"/>
<feBlend mode="normal" in="SourceGraphic" in2="effect1_dropShadow_403_14164" result="shape"/>
</filter>
</defs>
</svg>
