<svg width="1177" height="1562" viewBox="0 0 1177 1562" fill="none" xmlns="http://www.w3.org/2000/svg">
<g filter="url(#filter0_d_403_14195)">
<path d="M246.351 620.254C248.309 620.922 250.668 621.211 253.249 621.211C261.06 621.211 270.918 618.674 278.061 616.827C279.619 616.427 281.021 616.07 282.245 615.759C301.159 611.175 326.461 600.761 339.568 577.061C346.31 564.822 346.155 549.134 345.999 533.958C345.776 512.039 345.554 491.344 364.424 480.529C365.292 480.017 365.648 478.927 365.203 478.014C358.482 463.884 358.905 446.794 366.249 434.444C366.694 433.709 366.582 432.752 366.004 432.129C363.378 429.325 360.841 426.477 358.349 423.54C357.993 423.117 357.481 422.872 356.925 422.85C356.413 422.85 355.834 423.05 355.456 423.451L353.52 425.498C339.323 440.518 327.039 453.492 326.127 479.06C325.793 488.206 326.572 497.397 327.306 506.275C328.308 518.403 329.354 530.954 327.551 543.282C322.655 576.06 303.696 593.15 267.869 597.067L265.088 597.356C259.769 597.868 254.273 598.402 249.132 600.627C243.725 602.942 238.34 607.481 238.518 612.421C238.607 614.78 240.031 618.073 246.351 620.254Z" fill="#FF94A4"/>
<path d="M429.958 629.108L430.025 629.063C462.625 605.453 474.375 575.434 463.159 544.569C461.201 539.184 458.197 533.421 455.014 527.324C448.517 514.862 441.151 500.732 442.597 488.203C442.709 487.335 442.197 486.49 441.374 486.178C422.837 478.924 404.746 467.731 387.611 452.933L385.831 451.331C384.607 450.24 383.361 449.127 382.137 448.015C381.625 447.525 380.868 447.369 380.201 447.614C379.533 447.837 379.044 448.437 378.932 449.127C376.752 462.657 380.935 473.65 392.106 483.686C395.933 487.091 400.05 490.184 404.056 493.188C409.775 497.483 415.694 501.933 420.612 507.229C435.61 523.385 438.97 545.437 429.802 567.734C421.012 589.097 402.876 603.228 385.364 616.913C381.091 620.251 376.818 623.567 372.679 626.994C363.333 634.738 341.481 655.366 340.301 679.555C339.723 691.349 344.218 702.119 353.631 711.599C358.704 716.717 376.262 726.018 387.7 726.018C389.747 726.018 391.616 725.729 393.152 725.039C395.622 723.971 398.493 721.479 398.248 715.738C398.136 712.978 395.844 709.796 393.641 706.725C392.418 705.012 391.149 703.254 390.659 702.074C388.256 696.066 387.322 689.991 387.811 683.516C389.703 658.236 411.088 642.749 429.958 629.108Z" fill="#FF94A4"/>
<path d="M1089.6 458.52C1069.15 464.395 1047.99 470.469 1028.38 460.411C1017.68 454.87 1010.43 446.592 1006.82 435.778C1006.6 435.11 1006.04 434.62 1005.35 434.487C1004.64 434.353 1003.95 434.598 1003.51 435.154C999.167 440.362 994.627 445.235 989.976 449.641C989.509 450.086 989.309 450.709 989.398 451.332C989.464 451.777 989.531 452.245 989.575 452.667C990.666 480.261 1018.62 485.201 1043.25 489.54C1050.68 490.853 1057.69 492.099 1063.79 493.879C1063.97 493.924 1064.14 493.969 1064.32 493.969C1064.99 493.969 1065.61 493.635 1065.97 493.034C1076.76 475.41 1099.64 471.894 1115.9 470.781C1118.86 470.559 1121.85 470.492 1124.81 470.403C1128.14 470.314 1131.59 470.225 1135 469.936C1140.36 469.491 1149.57 467.532 1150.06 462.926C1150.44 459.299 1145.59 457.429 1141.92 456.339C1122.58 450.576 1104.53 454.269 1090.98 458.164L1089.6 458.52Z" fill="#FF94A4"/>
<path d="M1076.87 573.632L1078.12 570.004C1081.45 560.347 1085.24 549.376 1083.97 538.717C1081.63 519.09 1065.1 512.236 1052.88 508.787C1047.81 507.341 1042.07 506.072 1035.97 504.715C1010.51 499.04 978.824 492.009 973.394 466.952C973.261 466.307 972.816 465.795 972.192 465.55C971.592 465.328 970.902 465.394 970.368 465.772C964.092 470.223 957.395 474.384 950.452 478.123C949.584 478.59 949.206 479.658 949.584 480.593C957.929 500.375 971.614 512.949 996.871 523.986L998.851 524.853C1013.94 531.44 1029.52 538.228 1037.57 553.404C1046.25 569.737 1043.42 588.474 1040.71 606.588L1040.29 609.236C1038.53 620.63 1036.68 632.401 1041 643.505C1043.78 650.671 1049.72 658.771 1057.51 658.771C1057.82 658.771 1058.16 658.748 1058.49 658.726C1062.96 658.326 1066.3 656.768 1068.39 654.142C1072.09 649.491 1071.11 642.482 1070.39 637.386L1070.13 635.405C1067.37 612.596 1069.13 596.441 1076.87 573.632Z" fill="#FF94A4"/>
<path d="M926.507 677.866C928.71 679.78 930.756 680.403 932.47 680.403C933.516 680.403 934.406 680.181 935.163 679.892C943.574 676.598 948.069 658.262 948.781 651.942C949.872 642.151 948.269 631.915 944.086 622.346C938.589 609.706 928.821 603.542 919.363 597.578C913.422 593.818 907.28 589.946 902.117 584.449C891.369 572.967 891.169 559.593 901.472 543.593C908.593 532.511 914.735 522.92 914.49 507.499C914.423 503.56 913.733 500.067 913.088 496.684L912.866 495.572C912.754 495.038 912.443 494.571 911.998 494.304C911.553 494.037 910.996 493.947 910.462 494.081C899.536 497.04 888.41 498.999 877.395 499.956C876.839 500 876.326 500.289 875.992 500.734C875.659 501.179 875.548 501.758 875.659 502.292C877.573 511.238 875.971 521.274 870.585 533.824C868.627 538.341 866.269 542.859 863.976 547.198C860.194 554.408 856.277 561.84 853.94 569.807C847.821 590.702 865.133 596.933 879.063 601.94C894.462 607.481 909.817 614.713 917.85 629.979C920.899 635.764 922.835 642.885 923.413 650.585C923.636 653.522 923.235 656.726 922.879 659.819C922.1 666.451 921.277 673.305 926.507 677.866Z" fill="#FF94A4"/>
<path d="M824.634 600.782C821.964 565.867 818.893 531.02 815.51 497.218C815.421 496.461 814.91 495.793 814.175 495.571C813.441 495.326 812.64 495.549 812.128 496.127C798.398 511.638 781.842 523.832 762.927 532.399C762.46 532.622 762.081 533 761.903 533.489C752.09 559.748 774.076 571.497 793.458 581.889C801.402 586.14 808.901 590.167 814.353 594.974C816.734 597.043 818.96 599.38 821.163 602.162C821.541 602.629 822.097 602.896 822.676 602.896C822.92 602.896 823.165 602.851 823.388 602.762C824.189 602.429 824.701 601.627 824.634 600.782Z" fill="#EB63AD"/>
<path d="M778.328 702.632C776.036 708.129 773.677 713.825 771.986 719.722C770.028 726.509 768.203 734.164 771.586 739.104C773.299 741.597 776.081 742.999 779.886 743.332C780.197 743.355 780.509 743.377 780.821 743.377C787.051 743.377 793.015 738.325 796.664 735.255C815.646 719.144 826.528 687.322 823.724 656.079C821.409 630.133 810.061 609.46 792.57 599.313C789.21 597.377 785.805 595.552 782.401 593.749C769.093 586.651 756.521 579.953 748.599 566.712C743.881 558.79 741.7 550.29 742.434 542.746C742.501 542.101 742.234 541.478 741.745 541.077C741.255 540.677 740.61 540.521 739.987 540.677C725.678 544.571 710.502 546.529 695.036 546.418C694.591 546.462 694.013 546.618 693.634 546.996C693.256 547.375 693.078 547.887 693.078 548.398C693.99 576.904 716.488 590.501 738.229 603.63C753.895 613.087 770.117 622.878 779.397 638.299C788.209 652.897 789.655 669.765 783.736 688.413C782.245 693.197 780.264 697.981 778.328 702.632Z" fill="#FF94A4"/>
<path d="M642.472 637.387C640.047 610.439 627.006 593.26 611.897 573.366L607.58 567.669C599.502 556.899 591.357 540.343 598.567 522.741C598.946 521.828 598.567 520.782 597.722 520.315C587.575 514.685 577.316 507.92 567.169 500.243C556.955 492.477 550.746 489.74 546.385 491.097C539.108 493.345 541.511 505.762 542.312 509.834C545.606 526.657 550.991 540.209 558.357 550.112C563.408 556.899 569.283 563.174 574.957 569.227C582.056 576.792 589.399 584.603 595.096 593.46C613.833 622.633 604.664 649.337 594.962 677.598C592.158 685.787 589.243 694.265 586.951 702.966C584.103 713.692 578.206 736.033 595.029 740.951C596.676 741.441 598.234 741.663 599.724 741.663C612.03 741.663 619.574 726.531 624.759 716.139L625.738 714.203C639.09 687.722 644.72 661.887 642.472 637.387Z" fill="#FF94A4"/>
<path d="M800.913 1240.13C841.302 1133.31 839.477 1015.15 837.719 900.883L837.429 880.966C836.717 828.361 834.938 773.641 832.111 718.321C832.067 717.408 831.399 716.652 830.509 716.518C829.619 716.363 828.729 716.852 828.395 717.698C820.361 737.325 804.874 760.69 776.991 759.644C769.448 759.4 763.551 756.729 759.501 751.678C754.271 745.18 752.446 735.144 754.494 724.107C756.118 715.317 759.3 706.816 762.371 698.605C770.471 676.909 778.126 656.414 756.296 634.762C747.795 626.306 737.248 620.631 727.034 615.157C713.704 607.992 701.131 601.249 692.564 588.787C684.064 576.459 680.703 562.351 682.817 547.998C682.906 547.464 682.751 546.93 682.417 546.53C682.083 546.107 681.616 545.84 681.082 545.795C679.546 545.639 678.011 545.484 676.476 545.306C675.719 545.239 674.984 545.551 674.584 546.196C654.935 577.528 677.989 601.538 700.308 624.793C716.597 641.749 733.443 659.306 734.6 679.912C735.824 701.297 723.006 719.3 710.633 736.724C696.748 756.262 682.395 776.467 688.025 801.346C691.785 818.058 701.866 832.856 711.59 847.142C726.255 868.683 740.118 889.022 734.488 915.525C730.483 934.506 716.775 948.57 703.535 962.167L702.133 963.613C681.549 984.775 672.092 1003.65 688.47 1032.33C690.339 1035.6 692.275 1038.85 694.211 1042.08C704.091 1058.54 713.415 1074.08 712.97 1093.46C712.814 1100.11 711.078 1107.59 709.254 1115.53C704.558 1135.83 699.24 1158.81 722.405 1170.07C724.408 1171.05 724.853 1173.37 724.631 1175.08C724.408 1176.75 723.362 1178.86 721.181 1179.26C713.037 1180.8 705.849 1178.86 699.841 1173.57C691.029 1165.78 685.71 1151.03 686.601 1136.83C687.023 1129.84 688.759 1122.81 690.428 1116C693.254 1104.43 696.191 1092.48 693.031 1080.02C690.45 1069.78 684.62 1060.61 678.99 1051.76C676.431 1047.71 673.761 1043.52 671.535 1039.41C658.963 1016.2 657.605 996.147 667.374 978.144C672.804 968.197 681.371 959.852 689.649 951.797C699.974 941.761 710.634 931.369 715.707 917.594C724.052 895.074 708.853 872.844 696.659 854.997C694.589 851.971 692.586 849.033 690.739 846.185C679.19 828.316 667.107 807.265 669.956 783.477C672.292 763.85 683.797 747.516 694.923 731.717C697.593 727.934 700.241 724.173 702.778 720.368C710.567 708.73 718.155 696.179 717.843 682.071C717.487 665.181 705.96 652.386 694.211 640.703C692.208 638.723 690.206 636.765 688.18 634.806C672.292 619.385 657.294 604.787 653.155 582.579C651.13 571.453 652.042 555.275 661.277 546.307C661.789 545.795 661.989 545.039 661.789 544.349C661.588 543.659 661.01 543.147 660.298 542.991C645.633 540.254 631.213 535.893 617.439 530.018C616.905 529.795 616.304 529.818 615.792 530.085C615.28 530.352 614.902 530.819 614.791 531.376C611.475 545.751 621.556 557.211 630.435 567.336C633.038 570.273 635.464 573.055 637.622 575.881C644.966 585.517 650.707 596.487 654.69 608.503C660.053 624.57 661.922 642.127 660.209 660.709C660.186 660.998 660.231 661.287 660.32 661.554C669.956 687.567 669.978 717.52 660.342 741.642C655.625 753.458 647.591 764.718 639.091 776.668C623.135 799.076 606.624 822.241 613.055 849.768C615.058 858.402 619.041 866.168 622.891 873.69C627.564 882.836 631.992 891.47 633.327 901.684C635.263 916.793 632.237 933.149 623.781 953.154C621.622 958.25 619.264 963.346 616.749 968.754C602.307 999.907 585.929 1035.22 616.015 1064.71C617.728 1066.38 617.35 1068.62 616.504 1070.05C615.681 1071.45 613.99 1072.7 611.831 1072.03C582.524 1062.99 577.05 1029.19 584.371 1001.62C587.665 989.248 593.406 977.543 598.947 966.217C602.908 958.139 606.98 949.816 610.207 941.227C614.234 930.501 619.174 914.39 615.436 898.39C613.678 890.98 610.096 884.193 606.646 877.606C605.066 874.624 603.464 871.531 602.062 868.482C584.749 830.452 603.931 798.275 625.049 768.59C638.356 749.808 647.814 733.208 650.729 713.336C650.885 712.357 650.262 711.445 649.327 711.178C648.37 710.933 647.391 711.4 647.013 712.313C639.024 731.806 629.277 746.003 617.995 754.481C609.606 760.801 599.837 763.539 591.158 762.003C583.637 760.668 577.228 756.239 572.644 749.163C560.094 729.781 566.925 704.101 575.247 681.537L576.783 677.376C586.752 650.517 596.143 625.149 576.583 597.933C571.398 590.724 565.345 584.003 559.47 577.505C557.623 575.458 555.799 573.433 553.974 571.386C553.44 570.763 552.572 570.562 551.815 570.852C551.059 571.141 550.569 571.875 550.569 572.699C551.126 603.096 550.213 634.027 549.368 663.935C549.123 672.28 548.878 680.58 548.678 688.858C546.808 761.936 542.714 833.612 536.505 901.884C535.793 909.739 535.104 917.639 534.414 925.583C529.318 983.841 524.022 1044.08 508.556 1100C499.388 1133.18 475.511 1192.28 418.566 1215.36C380.002 1230.96 336.564 1221.59 305.166 1190.92C270.474 1157.08 265.044 1114.11 264.31 1076.52C263.82 1052.91 263.086 1017.22 227.148 1015.55C204.361 1014.53 180.439 1018.27 157.319 1021.92C150.709 1022.96 144.189 1023.98 137.758 1024.87C119.266 1027.5 102.488 1030.17 86.4435 1033.02C84.0625 1033.44 81.7036 1033.78 79.4338 1034.11C65.9264 1036.09 54.2658 1037.83 46.9891 1052.11C35.5957 1074.52 32.1021 1106.97 29.5431 1130.64C18.1941 1234.45 52.7529 1336.32 124.385 1410.2C187.605 1475.4 274.902 1518.37 363.869 1528.08C376.642 1529.48 389.504 1530.15 402.388 1530.15C480.384 1530.15 559.648 1504.89 629.21 1457.31C707.14 1403.99 768.112 1326.87 800.913 1240.13Z" fill="#EB63AD"/>
<path d="M1017.79 304.465C1013.2 278.696 1002.79 254.93 987.634 235.681C971.901 215.743 952.03 204.038 927.663 190.797C907.302 179.693 886.807 166.119 874.991 142.22L873.633 139.46C860.838 113.669 849.801 91.3941 826.079 72.0787C775.232 30.5996 707.939 13.5318 641.47 25.2368C578.361 36.3409 524.087 73.0134 492.577 125.841C475.932 153.702 453.701 171.037 423.26 189.952C391.282 209.801 367.316 235.036 352.051 264.944C335.183 297.944 332.58 333.082 344.685 363.857C357.614 396.769 385.719 429.926 419.877 452.557C454.035 475.21 489.795 480.239 529.25 467.911C551.391 460.968 566.857 473.096 583.235 485.936C589.688 490.987 596.364 496.239 603.64 500.444C631.679 516.711 664.925 526.391 697.369 526.391C736.957 526.391 775.343 511.972 801.579 477.502C803.159 475.433 807.454 470.782 813.128 472.584C868.003 490.075 930.845 476.657 973.236 438.382C1010 405.136 1026.69 355.045 1017.79 304.465ZM801.89 131.828C795.081 137.146 784.555 137.769 775.098 133.408C765.752 129.113 758.475 120.857 753.179 114.159C748.461 108.195 743.833 101.631 741.875 94.0646C739.805 86.0091 741.496 78.7101 746.637 73.5252C750.976 69.1414 757.296 66.7828 764.083 66.7828C766.508 66.7828 768.978 67.0721 771.471 67.6951C779.393 69.6756 787.359 74.6157 795.326 82.6044C803.248 90.6154 808.099 98.7156 809.768 106.704C811.771 116.518 808.611 126.598 801.89 131.828ZM748.35 160.2C747.794 166.297 745.546 171.593 742.008 175.132C738.114 179.07 732.306 180.739 727.588 179.293C716.952 175.999 705.158 155.972 707.249 144.756C708.54 137.814 714.882 131.983 722.314 130.893C723.182 130.782 724.072 130.715 724.94 130.715C731.26 130.715 737.78 133.786 742.097 138.948C743.187 140.261 744.167 141.708 745.012 143.221C747.705 148.206 748.884 154.236 748.35 160.2ZM717.73 255.998C727.61 242.046 744.856 234.413 761.924 234.413C772.361 234.413 782.753 237.261 791.32 243.269C800.8 249.901 807.854 260.293 811.147 272.532C815.353 288.109 812.861 304.665 804.449 316.815C793.657 332.392 777.857 340.113 760.055 338.556C739.783 336.798 720.49 323.357 712.034 305.088C704.579 289.088 706.604 271.642 717.73 255.998ZM677.853 114.203C668.374 105.213 662.944 89.0356 662.454 77.7312C661.854 64.7801 670.021 52.808 681.458 49.8929C683.239 49.4255 685.063 49.2029 686.91 49.2029C690.671 49.2029 694.521 50.1601 698.237 52.0293C707.183 56.5689 713.547 66.2485 714.815 77.2637C715.95 87.1439 713.169 97.959 706.96 107.706C703.778 112.713 698.526 118.81 691.494 119.566C686.91 120.056 681.948 118.098 677.853 114.203ZM589.577 270.44C596.075 258.713 609.382 248.61 624.202 248.61C626.917 248.61 629.699 248.944 632.502 249.678C638.288 251.214 643.74 254.351 648.702 258.98C655.623 265.5 659.762 275.202 660.074 285.616C660.385 296.008 656.825 305.911 650.327 312.787C643.851 319.685 634.149 323.802 623.757 324.114C613.387 324.447 603.44 320.887 596.564 314.412C583.635 302.284 581.032 285.839 589.577 270.44ZM631.011 119.522C621.109 132.873 606.778 142.487 590.667 146.581C583.435 148.406 577.249 148.717 571.775 147.538C564.364 145.914 558.668 141.441 555.241 134.587C550.701 125.485 550.768 113.113 555.419 103.055C561.227 90.4598 572.286 82.0927 580.52 77.2861C585.549 74.371 590.623 72.168 595.607 70.6771C602.038 68.8078 608.247 68.2292 613.988 68.9858C626.005 70.588 636.397 78.7771 639.245 88.9466C641.715 98.0257 638.733 109.152 631.011 119.522Z" fill="#FFA7B4"/>
<path d="M620.089 86.009C616.351 83.3609 611.255 82.8047 604.512 84.2956C586.755 88.2344 566.126 101.519 562.788 121.413C561.898 126.776 562.855 131.071 565.526 133.83C567.595 135.944 570.51 137.012 574.249 137.012C576.051 137.012 578.054 136.767 580.235 136.256C594.165 133.073 607.227 125.641 616.996 115.294C620 112.045 622.07 109.219 623.494 106.348C624.273 104.701 624.829 103.144 625.185 101.608C626.609 95.4665 624.54 89.1911 620.089 86.009Z" fill="#EB63AD"/>
<path d="M689.893 64.0677C686.333 62.6436 682.283 63.4667 680.035 66.0925C678.589 67.8505 678.077 70.0314 677.788 71.9229C676.63 79.1996 676.408 93.5524 682.817 101.296C684.597 103.433 687.089 104.657 689.493 104.657C690.338 104.657 691.162 104.501 691.94 104.189C693.988 103.366 695.345 101.652 696.257 100.295C696.257 100.295 696.302 100.228 696.324 100.184C702.199 91.4828 702.399 79.2441 696.792 70.343C694.811 67.2053 692.497 65.1136 689.893 64.0677Z" fill="#EB63AD"/>
<path d="M767.244 80.8903C762.148 80.7346 758.788 82.0475 757.252 84.8291C754.426 89.8805 758.788 97.6244 762.905 103.811C762.972 103.922 763.06 104.011 763.149 104.122C770.181 111.109 777.435 118.319 786.203 120.745C787.805 121.19 789.252 121.413 790.52 121.413C793.146 121.413 795.015 120.478 796.083 118.586C799.889 111.955 789.675 95.9999 785.758 92.1501C781.597 88.0334 773.675 81.0906 767.244 80.8903Z" fill="#EB63AD"/>
<path d="M734.625 144.133C731.131 140.35 726.481 138.903 722.52 140.372C718.87 141.73 716.6 145.224 716.467 149.719C716.311 155.415 720.651 166.631 726.837 169.857C727.838 170.347 728.928 170.591 730.063 170.591C730.353 170.591 730.642 170.569 730.931 170.547C733.357 170.258 735.76 168.789 737.206 166.764C738.964 164.272 739.676 161.023 739.409 156.862C739.187 153.235 738.208 148.072 734.625 144.133Z" fill="#EB63AD"/>
<path opacity="0.1" d="M1162.34 444.1C1142.12 429.747 1111.54 432.551 1089.09 438.781C1073.27 443.21 1056.53 451.265 1039.91 445.724C1029.61 442.275 1020.04 434.709 1013.01 425.964C1030.36 401.552 1041.38 372.268 1042.85 339.556C1045.2 286.795 1023.51 231.675 982.341 197.895C966.964 185.234 947.315 177.245 929.891 166.764C930.447 168.766 931.092 170.747 931.604 172.75C950.741 247.096 922.703 314.3 862.843 360.474C827.239 387.934 772.119 403.422 750.111 445.124C734.534 474.653 738.695 509.701 741.187 541.634C744.726 587.03 748.041 632.469 749.977 677.954C756.787 838.374 743.19 1004.58 677.233 1152.89C602.909 1320.06 464.43 1465.19 296.488 1538.78C302.786 1540.56 309.106 1542.25 315.47 1543.72C503.995 1587.78 694.39 1482.37 789.476 1319.99C847.333 1221.14 860.017 1108.06 861.619 995.412C862.977 897.144 860.996 798.809 855.678 700.674C866.604 714.471 877.619 728.067 881.291 745.825C892.039 797.719 861.063 856.288 895.51 903.731C911.711 926.05 945.712 926.874 957.996 951.085C968.699 972.18 969.279 995.456 987.993 1012.17C1018.35 1039.29 1067.19 1038.14 1091.65 1004.38C1094.27 1000.73 1088.93 995.189 1085.26 998.016C1068.9 1010.5 1047.43 1013.68 1027.51 1009.19C1004.17 1003.91 992.243 988.447 985.345 966.461C979.181 946.701 972.794 928.409 954.035 917.349C932.094 904.398 912.334 900.838 903.566 873.712C888.924 828.294 912.6 780.183 899.293 734.409C892.172 709.954 873.436 695.578 860.106 674.95C857.547 670.989 855.389 666.917 853.475 662.778C852.385 645.376 851.183 627.974 849.914 610.573C855.411 613.666 861.931 616.203 868.985 618.673C884.183 624.013 899.961 629.755 903.61 647.735C906.08 659.796 901.563 671.99 902.921 683.985C905.102 703.166 926.064 707.172 940.684 699.495C977.623 680.113 974.908 622.634 949.94 595.196C941.952 586.429 931.871 582.601 922.503 575.77C905.101 563.085 923.593 547.709 928.756 532.622C932.672 521.228 936.7 502.269 932.005 488.895C933.585 488.272 935.187 487.582 936.767 486.87C937.279 500.889 946.447 514.508 957.618 523.186C978.78 539.764 1020.88 544.037 1024.13 575.814C1026.69 601.405 1013.27 625.772 1023.02 651.117C1029.65 668.452 1046.63 681.359 1065.86 677.554C1087.13 673.37 1092.05 653.098 1089.69 634.183C1087.4 615.847 1087.55 602.984 1093.45 585.338C1097.88 572.12 1103.15 559.125 1103.64 544.994C1104.31 526.925 1096.94 511.971 1083.72 501.824C1105.93 484.177 1132.32 496.817 1157.34 484.889C1174.23 476.856 1178.32 455.426 1162.34 444.1ZM844.329 543.258C843.038 529.261 841.726 515.264 840.346 501.29C847.244 502.113 854.187 502.491 861.041 502.536C857.814 517.022 850.649 529.996 844.329 543.258Z" fill="#592639"/>
<path opacity="0.15" d="M632.258 917.483C643.318 828.338 650.75 737.613 643.919 647.824C640.87 607.813 634.928 567.157 621.443 529.172C612.431 503.848 590.534 488.516 568.437 474.964C533.812 453.735 472.572 432.506 462.959 387.4C457.663 362.61 473.106 339.4 488.995 321.954C503.236 306.333 520.371 294.428 538.907 284.503C553.839 276.536 569.906 269.66 581.989 257.421C598.233 240.954 604.865 217.144 613.054 196.07C619.195 180.271 625.093 164.36 631.145 148.516C642.583 118.52 654.377 88.3895 670.199 60.3733C682.505 38.5433 697.325 19.3836 714.059 2.38253C691.673 -0.198786 669.042 -0.065356 647.189 2.84976C604.286 8.54646 552.615 27.7283 518.769 57.28C496.716 76.5064 472.372 105.969 461.446 134.875C460.6 135.921 459.71 136.923 458.82 137.946C443.933 154.569 422.348 163.759 404.056 175.932C373.814 196.093 347.779 223.531 331.734 256.331C316.469 287.618 310.327 323.045 319.339 357.114C324.257 375.828 333.492 393.519 345.086 409.675C330.244 416.796 319.117 432.706 313.22 447.349C302.138 474.987 310.75 503.247 309.304 531.82C308.636 544.838 305.231 559.948 294.928 568.827C283.334 578.751 267.379 576.281 253.293 578.907C235.781 582.156 218.134 592.815 217.511 612.464C215.931 660.886 297.131 634.984 319.607 622.745C338.833 612.286 355.411 595.04 362.443 574.056C370.387 550.29 355.167 512.616 376.017 494.68C389.48 506.897 407.305 515.753 412.868 532.777C423.727 566.023 383.917 591.346 362.51 608.281C343.439 623.39 325.103 641.927 320.408 666.761C311.996 711.022 352.897 755.015 398.359 745.246C417.853 741.063 426.576 724.863 417.541 706.749C413.09 697.759 407.038 691.639 409.597 680.847C411.377 673.325 416.851 666.672 422.125 661.264C432.74 650.494 447.093 643.751 458.442 633.738C478.781 615.824 489.996 588.587 488.015 561.483C487.036 548.421 482.964 536.604 477.357 524.855C473.974 517.734 470.035 510.902 467.209 503.537C466.119 500.711 465.384 497.885 464.806 495.036C472.683 496.616 480.739 497.595 488.995 497.751C489.373 497.751 489.818 497.707 490.241 497.707C486.591 511.926 490.908 529.528 494.469 542.591C503.192 574.345 509.2 600.025 495.737 631.579C486.013 654.299 472.216 675.306 465.473 699.25C458.041 725.886 460.934 753.28 463.003 780.406C464.939 805.44 470.592 859.759 438.125 868.905C424.128 872.866 407.038 867.503 392.551 869.061C382.738 870.151 373.258 872.465 364.068 875.959C324.346 891.202 288.453 928.898 289.521 973.204C289.721 981.103 300.447 982.283 302.939 975.028C320.652 924.025 358.527 886.841 415.071 889.867C438.681 891.113 458.642 888.821 471.927 866.991C485.679 844.427 486.235 815.854 484.633 790.353C482.808 760.89 477.623 730.827 486.502 701.987C494.091 677.264 508.822 655.479 517.856 631.334C526.535 608.125 526.891 585.471 520.771 561.594C517.389 548.421 512.738 535.536 509.756 522.251C507.82 513.617 507.865 505.072 507.353 496.527C510.647 496.06 513.984 495.526 517.166 494.814C519.792 494.191 522.507 493.234 525.311 492.144C521.239 506.252 523.753 522.919 528.805 536.449C529.072 543.236 529.339 550.023 529.606 556.832C528.337 595.663 529.027 634.784 527.781 673.548C525.734 739.639 522.708 805.64 517.211 871.531C511.782 936.843 505.974 1003.2 493.178 1067.56C482.408 1121.58 456.55 1184.92 396.623 1198.56C344.151 1210.51 298.556 1163.4 289.41 1115.02C282.289 1077.55 297.621 1026.21 258.946 1001.69C236.582 987.534 207.275 993.587 182.618 996.191C151.999 999.417 121.535 1003.62 91.182 1008.74C68.4175 1012.57 40.49 1012.5 28.8518 1035.76C16.7241 1060.01 11.8731 1090.41 8.20141 1117.05C1.52558 1165.31 3.95119 1213.49 15.2111 1259.33C46.9213 1303.72 93.5852 1337.19 146.747 1357.49C235.892 1391.51 332.046 1390.22 415.872 1342.35C489.484 1300.32 546.162 1231.45 580.899 1154.76C614.389 1080.8 622.356 997.415 632.258 917.483Z" fill="#FFFCFC"/>
<path opacity="0.3" d="M745.817 1345.52C770.183 1310.58 789.388 1272.7 805.142 1233.18C820.786 1193.93 833.359 1152.38 839.478 1110.53C845.286 1070.78 850.004 1027.35 838.121 988.136C839.545 962.234 839.857 936.243 839.167 910.319C838.588 888.266 837.275 866.258 835.428 844.272C833.737 824.334 830.711 803.75 833.581 783.789C835.428 770.905 839.901 755.306 832.491 743.623C833.493 738.26 834.338 732.853 835.339 727.557C836.897 719.19 828.218 714.472 822.477 717.454C832.446 693.733 834.338 664.47 830.489 643.041C826.617 621.478 814.11 605.812 795.128 595.487C769.427 581.512 749.689 570.452 743.903 538.964C742.212 529.707 726.523 531.71 727.347 541.212C728.86 558.747 734.267 574.591 745.171 588.61C756.809 603.564 772.965 609.239 787.563 620.298C822.188 646.534 798.556 710.222 774.634 734.989C770.539 739.239 770.161 743.979 771.941 747.851C771.785 748.296 771.674 748.764 771.607 749.275C769.16 767.189 773.232 785.436 775.301 803.35C775.479 825.024 779.285 847.41 780.598 866.258C791.813 1028.33 767.246 1212.2 657.829 1340.22C602.642 1404.8 533.636 1449.73 451.056 1470.87C411.803 1480.92 370.524 1486.11 330.001 1485.2C288.567 1484.28 249.291 1474.83 209.458 1464.3C196.619 1460.92 189.008 1478.81 200.446 1485.69C250.07 1515.53 314.402 1528.21 373.973 1526.54C375.241 1527.94 376.888 1529.12 378.913 1529.92C426.289 1548.62 492.113 1532.19 537.241 1513.99C562.587 1503.76 587.377 1492.43 610.453 1477.7C630.948 1464.61 653.089 1451.48 665.684 1430.9C699.019 1412.9 724.743 1375.71 745.817 1345.52Z" fill="#592642"/>
<path opacity="0.3" d="M793.389 497.527C786.758 507.808 784.377 515.063 772.828 520.848C768.4 523.051 765.685 526.478 764.35 530.35C761.768 530.484 759.343 531.686 758.119 534.49C752.289 547.73 754.269 561.86 764.372 572.697C769.602 578.283 775.788 581.955 782.753 585.025C787.915 587.295 796.371 588.764 799.042 594.105C809.367 614.755 839.475 599.846 834.891 578.995C831.776 564.887 827.303 545.994 818.491 532.62C823.743 525.01 827.147 516.287 827.704 506.829C828.816 487.603 802.691 483.085 793.389 497.527Z" fill="#592642"/>
<path opacity="0.3" d="M888.342 479.192C920.898 482.53 957.771 469.29 981.626 450.041C1010.11 427.054 1029.78 383.572 1022.79 347.055C1022.24 344.163 1020.92 341.982 1019.17 340.402C1025.89 295.229 1020.15 236.303 983.006 209.934C975.017 198.763 965.381 189.461 954.143 183.32C945.621 178.669 937.499 189.461 943.93 196.56C944.397 197.094 944.798 197.628 945.265 198.162C943.952 200.432 943.774 203.191 945.732 205.773C955.546 218.79 962.934 232.32 968.563 246.317C973.86 265.677 979.668 284.614 979.223 305.843C978.622 334.037 968.92 362.788 952.074 385.508C917.783 431.772 856.031 449.485 801.868 433.997C766.219 423.805 747.594 440.25 719.422 458.942C695.522 474.808 665.77 481.774 637.22 479.148C621.02 477.657 605.666 472.583 591.758 464.172C580.765 457.54 570.84 448.661 558.023 445.59C545.272 442.542 536.259 447.059 526.201 452.889C514.095 455.649 502.19 459.721 489.506 461.813C463.404 466.108 436.545 462.369 413.023 450.42C403.388 445.524 395.199 459.276 404.501 464.973C413.357 470.402 422.592 474.942 432.161 478.48C429.513 500.243 438.392 517.4 447.115 536.983C453.034 550.245 458.597 564.153 453.212 578.617C446.959 595.418 430.915 606.322 417.207 616.581C397.691 631.179 377.619 647.089 370.921 671.679C365.447 691.751 368.829 717.23 389.992 725.686C398.448 729.068 407.416 719.055 404.723 710.955C400.962 699.628 394.932 692.04 398.203 679.2C401.363 666.827 410.553 657.726 419.922 649.648C438.258 633.849 459.443 620.942 471.392 599.068C481.273 580.999 480.983 561.706 473.239 542.969C465.028 523.097 449.162 505.539 448.784 483.487C456.016 485.156 463.404 486.269 470.992 486.602C475.798 486.825 480.516 486.602 485.189 486.135C502.101 488.116 516.588 482.775 533.522 476.21C540.131 474.897 546.807 473.896 553.616 473.585C562.873 476.722 570.618 485.712 579.029 491.609C585.683 496.26 592.803 500.154 600.147 503.559C599.813 504.85 599.502 506.162 599.212 507.498C595.385 506.63 591.246 507.698 589.288 511.837C570.796 551.158 603.04 578.373 619.841 610.595C631.59 633.137 627.607 659.884 621.71 683.695C616.28 705.592 604.13 720.434 593.671 739.594C588.242 749.541 598.834 758.286 608.18 754.125C611.741 752.545 615.034 750.498 618.083 748.095C620.82 751.566 625.826 753.413 629.965 750.72C661.208 730.315 678.476 691.172 679.7 654.544C680.123 642.171 678.477 629.621 675.272 617.538C676.029 610.15 676.051 602.473 674.983 594.15C672.112 571.43 672.847 553.205 687.2 535.536C705.758 535.692 725.319 530.908 738.337 524.254C756.272 515.086 792.5 501.378 800.155 479.059C811.459 481.907 823.119 483.665 834.735 484.31C852.515 485.267 870.807 483.443 888.342 479.192Z" fill="#592642"/>
<path opacity="0.3" d="M848.912 181.185C869.785 184.167 903.453 177.691 898.802 149.898C894.329 123.105 866.402 105.592 859.682 79.2006C856.678 67.4511 843.46 64.8699 834.737 69.6765C825.413 54.6559 812.573 42.1052 798.42 31.0456C791.233 25.4379 777.658 32.9148 784.312 41.9271C805.319 70.3439 824.1 96.8248 816.623 133.453C811.705 157.508 823.522 177.535 848.912 181.185Z" fill="#592642"/>
<path opacity="0.3" d="M938.614 690.35C964.272 664.537 952.433 623.325 931.071 598.869C925.441 592.438 919.032 586.942 912.356 581.668C906.971 577.395 903.143 575.704 901.497 568.694C899.783 561.329 903.878 556.144 906.838 549.824C915.694 530.82 922.392 512.884 915.383 492.167C911.889 481.82 895.689 486.048 898.849 496.729C907.95 527.393 863.222 560.238 888.457 587.654C899.227 599.336 913.269 606.302 922.393 619.987C935.477 639.614 934.987 659.285 924.751 679.669C920.367 688.325 931.249 697.761 938.614 690.35Z" fill="#592642"/>
<path opacity="0.3" d="M1083.34 565.665C1090.27 548.464 1094.74 531.24 1084.01 514.64C1079.25 507.274 1065.72 511.836 1069.1 520.937C1078.45 546.172 1058 568.491 1053.33 592.658C1049.56 612.174 1049.54 636.051 1060.34 653.341C1065.92 662.287 1077.51 655.967 1076.25 646.643C1074.33 632.513 1070.02 619.339 1071.24 604.808C1072.46 590.588 1078.12 578.706 1083.34 565.665Z" fill="#592642"/>
<path opacity="0.3" d="M286.297 608.903C276.417 610.772 280.712 625.392 290.414 623.857C324.55 618.427 349.161 590.789 355.348 557.366C358.886 538.317 351.32 518.69 355.08 500.443C356.994 491.141 363.114 483.531 366.519 474.63C370.48 464.282 372.104 453.979 371.614 442.92C371.102 431.437 354.836 431.638 353.923 442.92C352.366 462.391 342.33 474.274 336.944 491.831C332.961 504.805 337.3 517.734 338.524 530.751C341.84 566.445 323.504 601.871 286.297 608.903Z" fill="#592642"/>
<path opacity="0.3" d="M263.29 1029.37C262.244 1019.69 248.314 1016.35 245.376 1026.94C237.098 1056.9 235.385 1088.14 232.67 1119C230.556 1143.19 229.31 1169.25 241.104 1191.39C262.422 1231.47 327.622 1242.64 367.811 1230.18C382.409 1225.66 379.783 1203.74 364.184 1203.43C355.839 1203.27 346.626 1203.41 337.235 1203.21C339.216 1197.8 336.946 1191.19 330.115 1188.85C282.516 1172.54 274.772 1112.06 274.305 1068.53C274.238 1062.9 269.409 1059.37 264.536 1058.85C264.669 1049.06 264.358 1039.25 263.29 1029.37Z" fill="#592642"/>
<path opacity="0.5" d="M444.604 246.917C465.299 237.593 488.776 236.659 507.468 222.662C529.943 205.839 530.855 180.982 538.177 156.126C544.941 133.228 557.381 112.377 573.114 94.5081C608.406 54.4531 653.157 31.6661 707.142 30.2197C719.893 29.8859 719.203 12.3508 707.142 10.9044C658.163 4.98515 607.605 21.2965 567.261 49.7133C556.468 53.4072 546.655 57.9912 536.508 65.6239C522.043 76.5055 509.604 89.2341 498.745 103.698C488.197 117.762 479.786 133.295 469.149 147.269C456.776 163.558 441.689 172.348 423.686 181.249C369.746 207.93 337.791 260.469 339.637 318.549C332.049 373.469 359.576 425.518 409.133 451.465C419.058 456.672 429.672 443.965 421.327 435.643C386.702 401.062 371.526 340.713 394.09 295.896C404.838 274.667 422.796 256.753 444.604 246.917Z" fill="#FFF7F7"/>
<path opacity="0.5" d="M208.389 1004.09C167.11 991.584 117.954 994.388 83.9963 1022.89C82.3496 1024.27 80.8809 1025.74 79.39 1027.19C55.2902 1029.15 47.2347 1049.46 41.4935 1071.07C33.3712 1101.58 28.1864 1133.27 25.5828 1164.73C21.2658 1216.76 22.9122 1291.24 59.4513 1333.39C67.9741 1367.57 82.572 1397.72 111.99 1420.77C121.715 1428.38 139.873 1418.33 131.016 1406.09C110.966 1378.38 107.962 1338.17 101.954 1305.44C94.3214 1263.89 90.9613 1221.61 91.3174 1179.38C91.4731 1159.66 92.4746 1139.94 94.2993 1120.32C95.9905 1102.18 96.4131 1080.64 108.229 1065.73C131.283 1036.65 176.167 1037.05 208.389 1027.19C219.738 1023.72 219.805 1007.54 208.389 1004.09Z" fill="#FFF7F7"/>
<path opacity="0.5" d="M564.477 1062.44C573.623 1012.35 579.231 961.409 581.99 910.584C584.816 858.245 589.4 800.588 575.604 749.607C574.713 746.336 573.156 743.911 571.242 742.197C571.643 727.555 571.91 712.913 572.088 698.27C591.625 669.342 598.457 616.358 570.619 591.234C570.352 588.408 570.04 585.582 569.707 582.756C573.757 589.521 577.629 596.219 580.9 602.828C592.049 625.392 594.785 645.398 587.531 669.809C580.655 692.929 571.798 714.492 579.298 738.659C583.793 753.168 606.668 746.981 602.129 732.361C594.363 707.283 610.518 682.96 614.702 658.571C617.995 639.322 614.368 620.786 606.802 603.006C598.902 584.425 587.576 567.713 577.673 550.2C567.081 531.441 561.006 512.994 557.29 491.854C555.776 483.22 542.069 483.62 540.244 491.854C534.258 518.957 546.653 543.903 560.627 567.602C553.796 566.623 545.184 571.83 544.316 579.863C540.511 615.401 542.759 651.918 542.135 687.611C541.535 720.968 540.622 754.302 539.198 787.637C536.238 856.865 528.917 925.738 525.157 994.877C524.934 998.883 526.514 1002.09 529.006 1004.42C526.759 1018.33 524.088 1032.19 520.216 1045.88C508.378 1087.67 492.156 1127.19 469.881 1164.53C467.366 1168.74 467.477 1172.77 469.08 1176.04C466.988 1177.55 464.829 1179.02 462.604 1180.42C445.069 1191.3 427.689 1190.5 409.22 1197.36C401.631 1200.16 399.896 1209.93 406.972 1214.51C438.905 1235.16 487.216 1206.28 510.002 1183.34C542.002 1151 556.488 1106.12 564.477 1062.44Z" fill="#FFF7F7"/>
<path opacity="0.5" d="M432.208 575.17C440.063 554.764 440.019 531.822 431.452 511.661C421.705 488.696 395.958 476.168 388.259 452.98C384.965 443.078 369.9 447.061 372.526 457.32C378.668 481.397 400.142 493.057 411.491 513.886C428.269 544.662 417.165 575.393 394.267 598.892C364.204 629.779 319.364 667.096 344.732 714.917C350.897 726.533 368.432 716.253 362.357 704.614C346.98 675.13 373.75 646.045 393.221 626.619C408.62 611.264 424.242 595.843 432.208 575.17Z" fill="#FFF7F7"/>
<path opacity="0.5" d="M312.488 558.792C301.829 567.693 292.527 577.707 280.132 584.338C267.604 591.059 254.208 592.127 240.901 596.332C232.222 599.07 231.733 611.909 240.901 614.446C273.457 623.414 316.805 598.936 329.534 568.717C333.94 558.303 319.297 553.118 312.488 558.792Z" fill="#FFF7F7"/>
<path opacity="0.5" d="M705.874 551.134C704.717 540.431 688.205 539.897 688.739 551.134C689.919 576.147 706.03 595.596 726.035 608.903C726.702 610.238 727.815 611.462 729.484 612.463C747.642 623.256 773.166 637.409 774.301 661.263C775.392 684.429 761.016 707.616 758.479 730.692C757.5 739.571 771.03 742.531 774.946 735.165C787.764 711.176 801.694 674.348 793.327 647.066C786.941 626.238 769.227 613.353 750.646 603.718C750.201 603.117 749.712 602.494 749.044 601.938C732.199 587.874 708.5 575.301 705.874 551.134Z" fill="#FFF7F7"/>
<path opacity="0.5" d="M868.473 610.039C880.133 613.755 886.764 596.776 876.661 590.635C853.162 576.415 881.067 530.374 886.742 511.125C889.434 501.935 875.638 495.793 871.076 504.516C857.057 531.287 821.542 595.04 868.473 610.039Z" fill="#FFF7F7"/>
<path opacity="0.5" d="M979.847 530.107C987.747 535.27 996.47 537.673 1004.99 541.411C1018.83 547.464 1024.82 556.454 1029.94 570.496C1034.32 582.534 1053.28 581.422 1053.19 567.358C1053.08 545.839 1038.93 527.993 1019.72 519.225C1009.35 514.485 997.894 512.705 988.214 506.452C978.023 499.865 969.678 490.052 964.271 479.282C959.753 470.314 945.244 476.567 948.115 486.091C953.634 504.516 963.491 519.426 979.847 530.107Z" fill="#FFF7F7"/>
<path opacity="0.5" d="M1051.61 481.397C1065.52 480.396 1077.36 472.674 1090.8 469.803C1108.54 465.998 1123.15 471.784 1139.93 476.19C1149.9 478.816 1159.54 465.086 1150.66 457.765C1133.46 443.59 1108.76 440.519 1087.31 445.192C1074.44 447.996 1063.01 455.606 1050.01 457.52C1034.39 459.812 1021.1 453.87 1010.76 442.321C1003.97 434.711 990.395 444.858 996.448 453.359C1009.15 471.228 1029.09 483.044 1051.61 481.397Z" fill="#FFF7F7"/>
<path d="M789.471 1319.99C847.329 1221.14 860.013 1108.06 861.615 995.412C862.972 897.143 860.992 798.808 855.674 700.674C866.6 714.47 877.615 728.067 881.287 745.825C892.035 797.718 861.059 856.287 895.506 903.73C911.706 926.05 945.708 926.873 957.992 951.084C968.695 972.18 969.274 995.456 987.989 1012.17C1018.34 1039.29 1067.19 1038.14 1091.64 1004.38C1094.27 1000.73 1088.93 995.189 1085.26 998.015C1068.9 1010.5 1047.43 1013.68 1027.51 1009.19C1004.17 1003.91 992.239 988.446 985.34 966.461C979.176 946.7 972.79 928.408 954.031 917.349C932.09 904.398 912.329 900.837 903.562 873.711C888.919 828.293 912.596 780.183 899.289 734.409C892.168 709.953 873.431 695.578 860.102 674.95C857.543 670.989 855.384 666.916 853.471 662.777C852.38 645.376 851.178 627.974 849.91 610.572C855.406 613.665 861.926 616.202 868.981 618.672C884.179 624.013 899.956 629.754 903.606 647.734C906.076 659.795 901.559 671.99 902.917 683.984C905.097 703.166 926.059 707.172 940.679 699.494C977.619 680.112 974.904 622.633 949.936 595.196C941.947 586.428 931.867 582.601 922.498 575.769C905.097 563.085 923.589 547.708 928.752 532.621C932.668 521.228 936.696 502.268 932 488.894C933.58 488.271 935.183 487.581 936.763 486.869C937.275 500.889 946.443 514.507 957.613 523.186C978.776 539.764 1020.88 544.037 1024.13 575.814C1026.69 601.404 1013.27 625.771 1023.01 651.117C1029.65 668.452 1046.62 681.359 1065.85 677.553C1087.12 673.37 1092.04 653.097 1089.68 634.183C1087.39 615.846 1087.55 602.984 1093.44 585.338C1097.87 572.119 1103.15 559.124 1103.64 544.994C1104.3 526.924 1096.94 511.97 1083.72 501.823C1105.93 484.177 1132.32 496.816 1157.33 484.889C1174.27 476.833 1178.38 455.382 1162.41 444.077C1142.18 429.724 1111.6 432.528 1089.15 438.759C1073.33 443.187 1056.59 451.243 1039.97 445.702C1029.67 442.252 1020.1 434.686 1013.07 425.941C1030.42 401.53 1041.44 372.245 1042.91 339.534C1045.27 286.773 1023.57 231.652 982.403 197.872C958.304 178.023 923.611 169.656 903.651 145.111C884.536 121.635 878.149 92.3946 856.475 69.5188C804.136 14.1984 721.245 -7.03078 647.254 2.84945C604.351 8.54615 552.68 27.728 518.834 57.2797C496.781 76.5061 472.437 105.969 461.511 134.875C460.665 135.921 459.775 136.922 458.885 137.946C443.998 154.569 422.413 163.759 404.121 175.931C373.879 196.092 347.844 223.53 331.799 256.331C316.534 287.618 310.392 323.044 319.404 357.113C324.322 375.828 333.557 393.519 345.151 409.674C330.308 416.795 319.182 432.706 313.285 447.348C302.203 474.986 310.815 503.247 309.368 531.82C308.701 544.838 305.296 559.947 294.993 568.826C283.399 578.751 267.444 576.281 253.358 578.906C235.845 582.155 218.199 592.815 217.576 612.464C215.996 660.886 297.196 634.983 319.671 622.744C338.898 612.286 355.476 595.04 362.508 574.056C370.452 550.29 355.231 512.616 376.082 494.68C389.545 506.897 407.37 515.753 412.933 532.777C423.792 566.022 383.982 591.346 362.575 608.28C343.504 623.39 325.168 641.927 320.473 666.761C312.061 711.021 352.961 755.015 398.424 745.246C417.917 741.062 426.64 724.863 417.606 706.749C413.155 697.759 407.103 691.639 409.662 680.847C411.442 673.325 416.916 666.671 422.19 661.264C432.805 650.494 447.158 643.751 458.507 633.737C478.846 615.824 490.061 588.587 488.08 561.483C487.101 548.42 483.029 536.604 477.421 524.854C474.039 517.734 470.1 510.902 467.274 503.537C466.184 500.71 465.449 497.884 464.871 495.036C472.748 496.616 480.804 497.595 489.059 497.751C489.438 497.751 489.883 497.706 490.306 497.706C486.656 511.926 490.973 529.528 494.534 542.59C503.257 574.345 509.265 600.024 495.802 631.579C486.078 654.299 472.281 675.306 465.538 699.25C458.106 725.886 460.999 753.279 463.068 780.405C465.004 805.44 470.656 859.759 438.19 868.905C424.193 872.866 407.102 867.503 392.616 869.06C382.802 870.151 373.323 872.465 364.132 875.959C324.411 891.202 288.518 928.898 289.586 973.203C289.786 981.103 300.512 982.282 303.004 975.028C320.717 924.025 358.592 886.84 415.136 889.867C438.746 891.113 458.707 888.821 471.991 866.991C485.744 844.426 486.3 815.854 484.698 790.352C482.873 760.89 477.688 730.826 486.567 701.987C494.155 677.264 508.887 655.478 517.921 631.334C526.6 608.124 526.956 585.471 520.836 561.594C517.454 548.42 512.803 535.536 509.821 522.251C507.885 513.617 507.93 505.072 507.418 496.527C510.712 496.06 514.049 495.526 517.231 494.813C519.857 494.19 522.572 493.234 525.376 492.143C521.304 506.252 523.818 522.919 528.87 536.448C529.137 543.236 529.404 550.023 529.671 556.832C528.402 595.663 529.092 634.783 527.846 673.548C525.799 739.638 522.772 805.64 517.276 871.53C511.846 936.842 506.038 1003.2 493.243 1067.55C482.473 1121.58 456.615 1184.92 396.688 1198.56C344.216 1210.51 298.62 1163.4 289.474 1115.02C282.354 1077.55 297.686 1026.21 259.01 1001.69C236.646 987.534 207.34 993.587 182.684 996.19C152.064 999.417 121.599 1003.62 91.2467 1008.74C68.4821 1012.57 40.555 1012.5 28.9168 1035.76C16.7891 1060.01 11.9381 1090.41 8.26643 1117.05C-5.84182 1218.92 20.5498 1320.3 85.1718 1400.46C142.74 1471.89 226.454 1522.78 315.599 1543.61C503.991 1587.78 694.385 1482.35 789.471 1319.99ZM844.324 543.258C843.034 529.261 841.721 515.264 840.342 501.289C847.24 502.112 854.183 502.491 861.036 502.535C857.81 517.022 850.644 529.995 844.324 543.258ZM942.304 623.101C946.176 632.024 947.934 642.015 946.844 651.718C945.864 660.552 938.543 685.787 927.772 676.396C921.096 670.588 926.059 659.84 925.369 650.427C924.835 643.15 923.055 635.585 919.584 629.065C911.328 613.399 895.662 605.855 879.729 600.113C865.509 594.995 850.222 589.388 855.807 570.339C859.501 557.744 867.156 546.573 872.363 534.557C877.17 523.364 879.796 512.304 877.548 501.845C888.897 500.866 900.068 498.863 910.95 495.904C911.64 499.553 912.462 503.314 912.529 507.497C912.752 521.873 907.256 530.908 899.823 542.501C890.477 557.01 887.962 572.119 900.669 585.716C914.31 600.269 933.67 603.251 942.304 623.101ZM1075.02 573.032C1067.39 595.552 1065.36 612.219 1068.19 635.629C1069.12 643.106 1072.17 655.545 1058.31 656.791C1050.67 657.459 1045.02 648.491 1042.8 642.794C1038.35 631.312 1040.82 618.606 1042.6 606.856C1045.31 588.831 1048.23 569.338 1039.26 552.47C1030.54 536.026 1013.76 529.261 997.624 522.207C975.26 512.438 960.262 501 951.339 479.837C958.326 476.077 965.024 471.937 971.455 467.353C978.464 499.687 1025.53 503.047 1052.3 510.658C1067.03 514.797 1080 522.296 1081.98 538.963C1083.39 550.468 1078.62 562.328 1075.02 573.032ZM1027.51 462.124C1048.25 472.783 1070.57 465.996 1091.51 459.988C1108.18 455.226 1124.33 453.09 1141.35 458.163C1155.46 462.347 1144.74 467.153 1134.83 467.976C1128.52 468.511 1122.13 468.355 1115.76 468.822C1096.63 470.135 1074.95 474.675 1064.34 492.009C1037.63 484.221 992.862 486.513 991.505 452.6C991.46 452.066 991.393 451.554 991.304 451.042C996.155 446.436 1000.69 441.54 1004.99 436.4C1008.62 447.282 1016.12 456.227 1027.51 462.124ZM363.443 478.836C329.886 498.107 353.763 547.33 337.852 576.125C326.303 597.02 304.206 608.458 281.775 613.888C273.364 615.891 255.583 621.365 246.972 618.427C235 614.311 241.631 605.944 249.887 602.428C255.628 599.958 261.948 599.668 268.067 599.023C302.492 595.262 324.166 579.174 329.463 543.592C332.645 522.051 327.282 500.755 328.061 479.17C328.996 453.245 341.635 440.984 356.856 424.828C359.37 427.766 361.929 430.636 364.577 433.463C356.589 446.859 356.7 464.639 363.443 478.836ZM428.888 627.485C409.506 641.504 387.832 657.17 385.896 683.383C385.384 690.17 386.363 696.49 388.877 702.81C390.302 706.326 396.154 712.178 396.31 715.828C397.089 734.208 361.974 717.297 354.987 710.242C327.148 682.226 349.869 648.424 373.902 628.486C395.464 610.661 420.454 595.507 431.581 568.492C440.504 546.796 438.257 523.408 422.012 505.94C413.512 496.794 402.63 490.519 393.373 482.263C382.046 472.116 378.886 461.479 380.822 449.462C382.647 451.131 384.494 452.756 386.319 454.38C402.563 468.422 420.855 480.238 440.66 487.982C438.457 507.164 455.28 528.593 461.31 545.238C473.794 579.53 456.059 607.791 428.888 627.485ZM528.603 466.085C489.883 478.168 455.079 473.651 420.877 450.976C389.946 430.458 360.105 397.992 346.419 363.188C333.824 331.167 338.275 296.052 353.696 265.855C369.629 234.656 394.663 209.956 424.215 191.62C452.966 173.751 476.576 156.305 494.178 126.842C562.471 12.3738 723.403 -9.12252 824.809 73.591C849.042 93.3292 859.724 115.916 873.231 143.086C884.78 166.43 904.385 180.337 926.727 192.51C949.135 204.682 970.053 216.543 986.119 236.882C1001.54 256.464 1011.55 280.341 1015.89 304.797C1024.51 353.709 1008.95 403.488 971.9 436.979C929.486 475.276 867.868 488.071 813.683 470.78C808.097 469 803.224 472.138 799.998 476.366C753.067 538.028 666.08 534.512 604.574 498.797C578.849 483.865 560.669 456.049 528.603 466.085ZM781.105 637.253C758.362 599.468 696.566 595.552 695.053 548.287C710.519 548.354 725.829 546.462 740.516 542.479C739.692 550.89 742.34 559.881 746.947 567.625C757.227 584.804 775.052 591.346 791.608 600.915C833.154 625.015 830.417 703.989 795.413 733.697C791.385 737.102 785.689 741.797 780.059 741.33C768.398 740.351 771.536 728.223 773.85 720.212C776.943 709.486 782.217 699.561 785.644 688.924C791.207 671.367 790.829 653.387 781.105 637.253ZM815.641 593.482C796.214 576.281 750.796 568.804 763.748 534.134C782.151 525.812 799.13 513.706 813.594 497.395C817.043 531.887 820.069 566.378 822.695 600.915C820.603 598.289 818.266 595.774 815.641 593.482ZM596.763 592.414C586.415 576.281 571.217 564.153 559.935 548.954C551.634 537.784 546.917 523.141 544.224 509.456C542.132 498.641 543.601 493.99 546.984 492.944C551.367 491.587 558.911 496.394 566.01 501.779C575.823 509.233 586.059 516.043 596.785 522.006C590.042 538.518 595.695 555.03 606.042 568.826C622.665 590.968 637.953 608.636 640.534 637.543C642.937 663.823 635.772 689.948 623.978 713.291C618.326 724.529 609.937 743.288 595.561 739.06C580.986 734.787 585.592 715.605 588.818 703.433C599.077 664.624 621.486 630.934 596.763 592.414ZM364.11 1526.12C274.454 1516.35 188.514 1473.51 125.805 1408.82C53.6398 1334.41 20.216 1233.94 31.4981 1130.84C34.1017 1106.81 37.5733 1074.94 48.7442 1052.98C56.7775 1037.25 70.6409 1037.74 86.8186 1034.91C103.842 1031.88 120.932 1029.21 138.067 1026.77C166.817 1022.74 197.993 1016.15 227.1 1017.46C260.39 1019.02 261.859 1050.29 262.415 1076.55C263.261 1120.43 271.071 1160.3 303.85 1192.28C334.781 1222.52 378.686 1233.56 419.319 1217.14C468.32 1197.29 496.915 1149.47 510.445 1100.51C528.091 1036.78 532.497 967.64 538.46 902.061C544.891 831.208 548.808 760.089 550.633 688.902C551.612 650.561 553.236 611.485 552.524 572.654C560.201 581.332 568.302 589.722 575 599.046C594.916 626.75 584.034 651.985 573.419 680.824C565.631 701.942 557.576 729.402 571.017 750.164C582.521 767.921 603.305 767.921 619.149 755.972C632.434 745.98 641.98 729.647 648.79 712.98C645.763 733.474 635.661 750.141 623.444 767.387C601.191 798.675 582.944 831.142 600.257 869.216C604.707 878.941 611.027 888.242 613.519 898.745C616.812 912.809 613.319 927.274 608.357 940.447C600.635 961.031 588.151 979.634 582.454 1001.02C575.133 1028.61 580.296 1064.24 611.227 1073.79C617.28 1075.66 621.775 1067.58 617.347 1063.24C583.278 1029.86 610.649 989.003 625.536 953.821C632.501 937.31 637.552 919.396 635.238 901.327C632.723 881.989 619.238 867.681 614.921 849.233C605.397 808.377 648.3 776.934 662.142 742.242C672.133 717.208 671.755 686.699 662.142 660.774C663.766 642.95 662.208 624.836 656.512 607.791C652.528 595.774 646.832 584.692 639.154 574.612C629.385 561.705 612.673 548.955 616.679 531.709C630.676 537.672 645.207 542.056 659.938 544.815C650.637 553.85 648.901 569.894 651.26 582.845C656.066 608.592 675.204 624.525 692.85 641.993C703.821 652.875 715.57 665.67 715.904 682.026C716.215 695.778 708.539 708.195 701.173 719.188C687.844 739.215 670.976 758.331 668.039 783.143C665.212 806.797 676.717 827.959 689.134 847.141C701.885 866.902 723.247 891.602 713.901 916.837C704.911 941.226 678.008 954.556 665.68 977.142C654.175 998.349 658.848 1019.98 669.818 1040.25C676.873 1053.31 687.443 1065.8 691.137 1080.39C696.032 1099.62 685.818 1117.58 684.661 1136.61C683.304 1158.28 696.299 1185.78 721.512 1181.07C727.32 1179.98 728.499 1170.79 723.225 1168.23C692.984 1153.54 714.302 1117.87 714.903 1093.41C715.437 1069.54 701.418 1051.04 690.135 1031.28C674.403 1003.73 682.97 986.021 703.509 964.881C717.417 950.572 732.104 936.041 736.377 915.858C746.079 870.151 699.059 841.467 689.913 800.855C679.521 754.97 739.18 726.042 736.532 679.734C733.706 629.576 643.427 599.424 676.227 547.174C677.785 547.374 679.321 547.53 680.878 547.686C678.742 562.195 681.969 576.793 690.959 589.855C706.625 612.642 735.932 617.226 754.913 636.096C784.02 664.936 758.518 691.684 752.577 723.683C749.172 742.064 755.87 760.867 776.921 761.513C803.157 762.358 820.292 742.509 830.172 718.365C832.931 772.506 834.733 826.691 835.49 880.921C837.159 999.528 841.743 1126.64 799.085 1239.39C733.417 1413.16 553.926 1546.81 364.11 1526.12Z" fill="#3D2938"/>
<path d="M595.209 315.857C610.452 330.21 637.378 329.386 651.731 314.143C666.107 298.9 665.305 271.974 650.018 257.599C644.588 252.525 638.825 249.388 632.994 247.83C598.658 238.795 563.299 285.815 595.209 315.857Z" fill="#3D2938"/>
<path d="M792.412 241.69C768.958 225.245 732.686 231.498 716.13 254.863C674.851 313.01 766.221 375.34 806.009 317.927C815.155 304.709 817.179 287.508 812.996 272.042C809.747 259.959 802.738 248.9 792.412 241.69Z" fill="#3D2938"/>
<path d="M571.377 149.451C577.897 150.853 584.662 150.118 591.138 148.494C607.582 144.311 622.447 134.341 632.572 120.7C639.426 111.466 644.166 99.5827 641.095 88.4785C637.846 76.8181 626.252 68.7179 614.236 67.1157C607.805 66.2701 601.285 67.0268 595.054 68.8515C589.669 70.4537 584.44 72.8123 579.544 75.6384C568.685 81.9582 558.916 90.8372 553.664 102.275C545.675 119.566 550.215 144.822 571.377 149.451ZM564.701 121.724C567.839 103.009 587.599 90.0137 604.934 86.1862C609.674 85.1404 615.015 84.7844 618.976 87.5882C623.093 90.5256 624.45 96.267 623.315 101.185C622.959 102.698 622.425 104.122 621.757 105.524C620.2 108.617 617.952 111.421 615.593 113.98C606.025 124.105 593.385 131.271 579.811 134.364C575.383 135.365 570.086 135.721 566.904 132.472C564.278 129.757 564.078 125.485 564.701 121.724Z" fill="#3D2938"/>
<path d="M676.524 115.606C680.596 119.478 686.137 122.082 691.722 121.503C698.999 120.724 704.696 114.916 708.612 108.752C714.576 99.3616 718.025 88.1017 716.757 77.0421C715.466 65.9824 709.035 55.3457 699.11 50.2943C692.79 47.1122 686.56 46.5782 680.974 48.0024C668.802 51.0955 659.856 63.557 660.502 77.821C661.058 90.416 667.177 106.727 676.524 115.606ZM679.705 72.2354C679.973 70.4997 680.395 68.7196 681.53 67.3622C683.31 65.2704 686.582 64.8474 689.163 65.8933C691.722 66.8946 693.703 69.0756 695.171 71.3899C700.401 79.6902 700.201 91.039 694.704 99.139C694.66 99.228 694.615 99.2503 694.593 99.3393C693.747 100.585 692.657 101.832 691.233 102.41C688.829 103.389 686.003 102.099 684.334 100.096C678.704 93.2865 678.437 80.3354 679.705 72.2354Z" fill="#3D2938"/>
<path d="M751.647 115.381C757.923 123.325 765.088 130.958 774.278 135.186C783.469 139.414 795.085 139.614 803.073 133.361C810.951 127.242 813.644 116.115 811.641 106.346C809.616 96.6886 803.608 88.2771 796.687 81.2675C796.62 81.1785 796.576 81.1562 796.487 81.0672C789.588 74.1688 781.377 68.2051 771.92 65.8241C752.894 61.1065 734.713 74.0131 739.987 94.5524C741.99 102.319 746.685 109.106 751.647 115.381ZM767.18 82.825C772.877 83.0253 780.62 89.7902 784.381 93.5287C789.722 98.7581 803.986 123.57 786.695 118.875C778.395 116.583 771.275 109.506 764.488 102.741C760.593 96.8444 751.447 82.3132 767.18 82.825Z" fill="#3D2938"/>
<path d="M705.359 144.398C703.111 156.459 715.128 177.466 727.033 181.137C732.73 182.873 739.205 180.714 743.389 176.486C747.617 172.258 749.754 166.295 750.288 160.353C750.844 154.145 749.664 147.758 746.772 142.284C745.881 140.66 744.835 139.102 743.634 137.678C738.449 131.469 730.104 127.82 722.071 128.955C714.082 130.134 706.828 136.454 705.359 144.398ZM733.197 145.444C735.979 148.515 737.225 152.765 737.47 156.949C737.67 159.975 737.359 163.157 735.601 165.627C734.466 167.229 732.574 168.387 730.683 168.609C729.681 168.72 728.635 168.564 727.656 168.097C722.627 165.471 718.244 155.235 718.399 149.761C718.666 141.505 727.145 138.902 733.197 145.444Z" fill="#3D2938"/>
</g>
<defs>
<filter id="filter0_d_403_14195" x="0.515625" y="0.507812" width="1175.93" height="1561.27" filterUnits="userSpaceOnUse" color-interpolation-filters="sRGB">
<feFlood flood-opacity="0" result="BackgroundImageFix"/>
<feColorMatrix in="SourceAlpha" type="matrix" values="0 0 0 0 0 0 0 0 0 0 0 0 0 0 0 0 0 0 127 0" result="hardAlpha"/>
<feOffset dy="4"/>
<feGaussianBlur stdDeviation="2"/>
<feComposite in2="hardAlpha" operator="out"/>
<feColorMatrix type="matrix" values="0 0 0 0 0 0 0 0 0 0 0 0 0 0 0 0 0 0 0.25 0"/>
<feBlend mode="normal" in2="BackgroundImageFix" result="effect1_dropShadow_403_14195"/>
<feBlend mode="normal" in="SourceGraphic" in2="effect1_dropShadow_403_14195" result="shape"/>
</filter>
</defs>
</svg>
