<svg width="1165" height="1667" viewBox="0 0 1165 1667" fill="none" xmlns="http://www.w3.org/2000/svg">
<g filter="url(#filter0_d_403_14237)">
<path d="M174.989 921.576C151.001 921.643 130.55 952.708 117.02 973.247C115.129 976.117 113.348 978.81 111.702 981.213C94.7007 1006.09 81.0153 1031.19 71.0461 1055.8C49.3941 1109.39 42.7852 1164.38 51.9756 1214.85C56.9379 1242.02 65.7723 1267.29 78.2561 1290.01C83.0627 1298.72 88.2476 1306.9 93.6995 1314.34C94.0555 1314.8 94.5898 1315.07 95.1684 1315.07C95.3909 1315.07 95.6134 1315.03 95.8359 1314.94C96.5925 1314.65 97.082 1313.87 96.9707 1313.05C96.5479 1309.26 96.2141 1305.37 96.0139 1301.5C93.3213 1249.58 111.791 1196.26 146.639 1155.25C180.329 1115.58 231.377 1089.38 286.653 1083.4C302.942 1081.64 335.12 1080.15 367.431 1090.05C367.92 1090.21 368.454 1090.14 368.9 1089.87C369.345 1089.61 369.656 1089.16 369.745 1088.65C370.635 1084.04 371.837 1079.44 372.994 1074.99C375.553 1065.2 378.224 1055.05 377.756 1043.81C377.2 1030.55 373.172 1018.6 369.255 1007.07C367.698 1002.46 366.074 997.68 364.716 992.918C364.583 992.428 364.249 992.028 363.804 991.806C348.56 984.017 336.433 970.532 330.536 954.822C328.511 949.481 327.109 944.007 326.196 938.065C326.063 937.242 325.395 936.619 324.572 936.53L322.346 936.352C307.971 935.195 292.639 933.793 272.656 931.812C261.663 930.722 250.203 929.097 239.121 927.54C217.914 924.602 196.04 921.42 174.989 921.576Z" fill="#FFCC99"/>
<path d="M300.224 619.895C299.935 619.45 299.49 619.161 298.978 619.072C282.244 616.491 267.201 614.666 252.492 618.671C248.887 619.651 245.193 621.03 241.499 622.744C240.765 623.077 240.342 623.879 240.476 624.68C243.101 641.125 242.879 658.482 242.679 675.283C242.612 681.135 242.545 686.943 242.59 692.684C242.834 718.742 243.057 744.8 243.212 770.88C243.39 798.14 243.546 825.377 243.68 852.637C243.724 858.044 244.058 863.719 244.414 869.727C245.171 882.545 245.972 895.785 243.813 907.646C243.724 908.135 243.836 908.647 244.148 909.048C244.437 909.448 244.904 909.715 245.394 909.76C257.877 911.295 270.383 912.875 282.867 914.477C288.475 915.212 294.55 915.679 300.981 916.191C308.324 916.769 315.913 917.37 323.367 918.394C323.456 918.416 323.523 918.416 323.612 918.416C324.035 918.416 324.435 918.283 324.769 918.015C325.147 917.704 325.392 917.237 325.437 916.725C326.438 902.105 330.488 886.016 337.831 867.546L339.634 863.074C346.577 845.917 353.119 829.694 342.705 811.225C342.082 810.112 341.414 808.999 340.613 807.753C338.076 804.615 335.428 801.545 332.78 798.474C328.018 792.955 323.078 787.236 318.983 781.25C309.503 767.409 302.428 750.964 297.955 732.339C289.276 696.378 290.188 655.923 300.469 621.364C300.58 620.897 300.514 620.34 300.224 619.895Z" fill="#FFCC99"/>
<path d="M287.185 166.429C286.673 145.601 283.179 125.373 276.815 106.302C271.052 89.0121 262.618 72.8788 251.758 58.3923C246.574 51.4939 240.721 44.9292 234.379 38.8987C233.533 38.0976 232.532 37.0962 231.419 35.9613C225.812 30.3313 218.113 22.6096 211.904 21.7195C209.679 21.408 207.542 22.0979 205.74 23.7001C195.526 32.8905 196.772 72.7676 196.839 74.4588C197.484 92.0607 201.267 110.998 208.121 130.758C214.285 148.738 222.652 166.34 232.977 183.097C242.969 199.274 256.543 208.887 270.74 218.1C271.029 218.3 271.385 218.389 271.719 218.389C271.83 218.389 271.942 218.39 272.053 218.367C275.146 217.789 278.261 217.277 281.399 216.809C282.222 216.676 282.846 216.031 282.935 215.207C283.424 210.512 284.604 205.683 285.739 200.988L286.028 199.809C286.072 199.63 286.094 199.453 286.072 199.297C285.76 193.578 286.184 187.547 286.606 181.717C286.962 176.621 287.341 171.347 287.185 166.429Z" fill="#EB9D60"/>
<path d="M536.061 23.2536C517.035 17.0228 495.294 41.4341 482.32 56.0097L479.962 58.6578C467.612 72.4768 456.752 88.1204 447.629 105.166C438.305 122.701 431.139 141.394 426.355 160.709C424.441 168.52 423.262 176.62 422.127 184.43C421.059 191.885 419.946 199.607 418.188 206.972C418.055 207.506 418.188 208.063 418.5 208.486C418.834 208.931 419.345 209.176 419.879 209.198C430.872 209.576 441.309 210.466 450.9 211.824C450.989 211.846 451.078 211.846 451.167 211.846C451.634 211.846 452.101 211.668 452.435 211.334C454.037 209.776 456.418 209.087 458.154 209.732C458.755 209.954 459.423 209.843 459.935 209.443C491.979 183.385 511.761 160.331 526.048 132.359C533.324 118.162 558.314 59.9708 547.811 34.4914C545.452 28.8391 541.491 25.0338 536.061 23.2536Z" fill="#EB9D60"/>
<path d="M526.935 1158.95C528.27 1144.66 530.296 1123.08 546.273 1121.21C563.719 1119.23 587.663 1162.55 600.459 1185.85C603.774 1191.9 606.645 1197.11 608.781 1200.52C616.881 1213.38 624.87 1226.31 632.859 1239.26C644.43 1258.02 656.402 1277.42 668.596 1296.27C707.85 1357.04 743.299 1410.65 777.012 1460.16C796.194 1488.35 813.15 1512.92 828.816 1535.26C841.567 1553.44 856.031 1574.05 875.013 1589.89C915.713 1624.01 970.188 1614.68 1018.23 1606.45C1026.47 1605.05 1034.23 1603.71 1041.95 1602.58C1047.29 1601.8 1052.66 1601.04 1058 1600.29C1068.39 1598.82 1079.14 1597.28 1089.69 1595.61L1091.87 1595.28C1103.04 1593.59 1115.72 1591.65 1121.91 1580.33C1132.12 1561.88 1118.32 1535.37 1110.89 1521.13C1088.57 1478.25 1064.38 1435.39 1040.97 1393.94C1035.81 1384.81 1030.67 1375.69 1025.53 1366.57C967.918 1264.25 908.014 1161.66 847.42 1061.68C832.087 1036.36 815.977 1009.99 799.51 983.351C795.148 976.274 790.519 969.131 786.047 962.233C775.966 946.678 765.529 930.612 757.318 914.011C734.998 868.927 757.185 840.8 782.887 808.221C804.783 780.495 822.474 757.886 838.563 737.124C879.842 683.784 913.488 638.611 944.464 594.996C997.959 519.67 1049.81 441.874 1098.61 363.723C1102.21 357.937 1105.97 352.151 1109.76 346.343C1119.13 331.945 1128.83 317.081 1136.3 301.682C1140.62 292.781 1141.36 284.681 1138.44 277.56C1134.86 268.837 1126.07 261.938 1112.32 257.065C1094.27 250.656 1074.49 249.388 1055.35 248.142C1052.26 247.941 1049.16 247.741 1046.11 247.519C1022.08 245.85 998.382 245.204 975.617 245.627C951.006 246.094 926.15 247.675 901.716 250.323C876.682 253.037 856.187 256.598 839.008 275.468C816.132 300.636 795.526 329.097 775.588 356.646C767.71 367.528 759.566 378.788 751.444 389.58C721.135 429.88 691.383 469.913 663.033 508.566C655.067 519.425 647.323 530.529 639.823 541.277C615.39 576.325 592.292 609.438 560.27 637.765C555.842 641.682 548.098 644.53 543.647 642.527C541.177 641.415 539.931 638.789 539.909 634.739C539.864 608.236 539.975 581.688 540.087 555.141C540.376 486.024 540.687 414.548 538.151 344.474C536.771 305.487 530.718 262.984 496.449 243.157C458.441 221.216 408.039 224.554 363.556 227.491C351.606 228.292 340.324 229.027 329.509 229.294C294.884 230.184 258.611 232.765 229.394 253.549C208.587 268.369 193.523 289.999 185.823 316.146C182.908 326.026 180.749 336.263 178.68 346.165C175.676 360.429 172.605 375.183 167.153 388.979C157.028 414.548 137.423 431.727 116.639 449.907C100.573 463.971 83.95 478.525 72.3563 497.239C46.7212 538.54 42.137 598.689 82.9931 633.693C114.147 660.463 176.833 659.35 211.992 631.423C212.215 631.245 212.392 631.023 212.504 630.778C228.57 596.843 271.051 601.048 308.524 604.764C322.299 606.122 335.295 607.413 346.555 606.878C385.163 605.031 417.585 587.519 433.251 559.992C449.763 530.952 442.286 490.697 416.584 470.247C415.983 469.779 415.293 469.022 416.05 467.776C416.806 466.552 418.631 465.64 420.077 466.308C448.405 479.415 456.127 501.467 457.596 517.645C460.333 547.686 443.421 581.955 416.495 601.004C383.784 624.102 343.239 624.903 314.978 621.476C312.819 621.232 310.661 620.898 308.503 620.586C307.946 620.519 307.412 620.675 307.011 621.053C306.611 621.432 306.388 621.943 306.433 622.5C307.189 634.939 307.033 647.601 306.9 659.862C306.611 685.364 306.3 711.711 314.066 737.48C320.475 758.776 331.601 774.909 346.354 792.555C351.272 798.43 354.343 803.17 356.346 807.954C356.413 808.088 356.479 808.221 356.568 808.333C359.127 811.782 360.997 815.142 362.265 818.613C368.518 835.793 361.598 852.905 354.922 869.461C352.986 874.268 350.983 879.23 349.38 884.037C338.788 915.858 340.079 942.806 353.075 962.01C361.375 974.249 375.75 981.971 389.881 981.86C401.341 981.704 411.11 976.208 417.407 966.394C418.943 963.991 421.858 962.3 424.84 962.122C426.509 962.033 428.868 962.344 430.692 964.525C437.791 972.936 449.629 977.32 457.64 974.494C461.09 973.293 466.897 969.599 467.164 958.517C467.387 950.461 462.914 943.117 458.597 935.997C456.75 932.948 454.992 930.078 453.679 927.252C446.425 911.741 446.224 898.545 453.078 888.064C455.704 884.037 459.309 881.01 463.136 877.806C465.362 875.937 467.676 874.001 469.768 871.842C477.334 864.054 482.786 853.929 485.501 842.557C490.863 820.372 483.832 798.297 465.674 780.428C463.715 778.492 464.25 775.621 465.807 773.796C467.053 772.328 469.167 771.326 471.303 772.884C493.044 788.728 505.083 814.185 502.68 839.331C501.567 851.058 497.028 863.23 489.929 873.6C487.392 877.316 483.609 880.854 479.937 884.281C471.526 892.159 462.825 900.281 465.851 912.565C467.698 920.064 471.481 927.363 475.131 934.417C483.498 950.594 491.42 965.86 476.132 982.127C461.379 997.837 440.772 994.499 426.887 984.241C426.152 983.707 425.151 983.774 424.506 984.419C411.176 997.971 395.711 999.484 385.096 998.371C384.429 998.305 383.805 998.594 383.427 999.128C383.049 999.662 382.982 1000.35 383.249 1000.95C389.191 1013.84 391.55 1028.5 392.484 1038.54C394.198 1056.9 393.152 1081.29 385.119 1094.7C384.852 1095.15 384.785 1095.68 384.941 1096.17C385.097 1096.66 385.43 1097.06 385.898 1097.28C403.032 1105.43 416.05 1116.64 424.528 1130.62C424.929 1131.29 424.439 1131.84 424.283 1132C424.127 1132.15 423.571 1132.64 422.904 1132.22C331.512 1077.24 216.22 1095.15 154.758 1173.92C124.472 1212.71 109.852 1262.4 114.681 1310.24C116.016 1323.82 119.109 1337.75 124.138 1352.81C124.227 1353.08 124.383 1353.32 124.561 1353.53C124.739 1353.7 124.894 1353.88 125.117 1354.15C126.541 1355.64 126.586 1357.31 126.386 1358.44C126.319 1358.75 126.363 1359.09 126.475 1359.4C130.257 1369.77 134.931 1380.56 140.338 1391.51C143.365 1397.65 147.348 1403.95 151.531 1410.63C160.677 1425.18 170.157 1440.2 170.669 1455C170.691 1455.78 170.491 1456.53 170.068 1457.27C169.667 1457.98 169.712 1458.8 170.291 1459.38C171.292 1461.1 170.668 1462.96 169.823 1464.05C169.422 1464.57 167.909 1466.21 165.595 1465.5C160.588 1463.99 155.826 1462.36 151.198 1460.78C130.369 1453.71 112.389 1447.61 87.9553 1454.78C60.9627 1462.7 39.8005 1483.19 29.8535 1511.01C20.2403 1537.91 21.1303 1568.38 32.2344 1592.5C46.0311 1622.47 76.384 1627.12 106.292 1629.33C165.35 1633.69 234 1638.38 301.225 1638.85C303.228 1638.87 305.209 1638.87 307.189 1638.87C370.943 1638.87 433.362 1632.44 487.147 1626.34C490.218 1625.9 493.334 1625.39 496.36 1624.85C528.248 1618.89 529.094 1577.99 529.673 1550.91L529.784 1545.81C530.941 1501.77 529.717 1456.87 528.538 1413.43C528.004 1394.03 527.469 1373.98 527.136 1354.3C526.846 1336.41 526.134 1318.03 525.445 1300.23C523.709 1254.72 521.884 1207.68 526.535 1162.51L526.935 1158.95ZM339.567 414.77C324.235 420.334 309.549 418.108 298.244 408.54C285.36 397.636 278.839 378.877 281.977 361.876C284.781 346.744 294.706 335.484 309.949 330.143C314.133 328.697 318.627 327.962 323.234 327.962C329.709 327.962 336.363 329.386 342.593 332.213C354.165 337.42 363 346.677 366.805 357.648C374.46 379.633 361.486 406.849 339.567 414.77ZM249.221 366.86C243.035 377.453 228.726 382.526 215.842 378.632C208.565 376.852 202.846 372.045 200.087 365.302C195.659 356.602 195.636 346.632 200.154 339.689C205.094 329.876 215.575 323.979 226.056 323.979C229.794 323.979 233.555 324.736 237.049 326.338C243.814 329.409 249.088 335.573 251.513 343.25C254.095 351.372 253.249 359.984 249.221 366.86ZM112.389 574.234C111.187 573.833 109.563 572.965 108.673 571.118C107.582 568.849 105.824 565.644 103.799 561.928C92.9845 542.167 72.8234 505.406 90.1583 495.904C94.5421 493.501 99.9275 492.566 105.735 492.566C122.892 492.566 143.52 500.822 151.687 504.093L154.269 505.117C163.593 508.788 180.972 515.598 185.245 525.411C186.513 528.304 186.513 531.219 185.289 534.335C182.574 541.255 174.051 545.194 166.53 548.665C164.327 549.689 162.213 550.668 160.366 551.647C146.658 559.035 132.951 566.423 119.154 573.7C117.173 574.768 114.569 574.968 112.389 574.234Z" fill="#EB9D60"/>
<path opacity="0.1" d="M945.533 1188.34C911.019 1129.44 875.971 1070.87 840.389 1012.63C822.565 983.484 804.54 954.533 786.604 925.493C776.991 909.961 765.509 890.334 767.222 871.286C769.114 850.969 788.496 833.99 800.69 819.103C817.202 798.964 833.58 778.669 849.602 758.175C883.025 715.427 915.514 671.879 947.069 627.707C1010.13 539.475 1069.68 448.75 1126.63 356.446C1126.85 356.067 1127.09 355.689 1127.32 355.333C1093.65 361.72 1058.73 356.201 1025.49 366.415C988.682 377.719 955.57 400.551 926.396 425.162C869.63 473.072 822.52 531.664 776.702 589.766C728.213 651.273 676.787 710.198 628.187 771.549C599.592 807.642 569.239 841.311 538.753 875.714C512.161 905.733 492.111 940.848 479.761 978.989C455.706 1053.36 460.601 1131.64 458.91 1208.62C456.128 1336.46 424.975 1467.61 350.584 1573.36C328.264 1605.09 302.54 1633.31 274.057 1657.94C278.463 1658.03 282.868 1658.14 287.252 1658.23C358.928 1659.55 434.121 1659.21 504.15 1642.3C505.708 1641.94 506.954 1641.21 507.955 1640.27C520.595 1636.6 530.453 1629.7 536.55 1615.64C546.23 1593.32 547.499 1566.44 548.01 1542.41C548.656 1512.14 547.387 1481.81 546.875 1451.53C545.785 1389.11 544.739 1326.73 543.649 1264.31C543.137 1234.78 541.69 1204.99 543.471 1175.44C543.938 1167.6 544.45 1159.61 545.785 1151.85C546.008 1148.58 546.697 1145.46 547.854 1142.46C546.653 1145.57 577.361 1185.67 580.744 1191.35C601.394 1225.97 623.247 1259.71 644.788 1293.8C676.698 1344.18 709.676 1393.89 743.033 1443.31C774.143 1489.4 803.85 1538.36 839.855 1580.86C873.813 1621 915.737 1636.89 967.964 1632.02C994.445 1629.5 1020.84 1624.94 1047.18 1621.14C1070.48 1617.8 1100.75 1618.31 1121.75 1606.58C1160.58 1584.91 1139.93 1534.57 1124.05 1505.11C1066.52 1398.43 1006.8 1292.93 945.533 1188.34Z" fill="#592639"/>
<path opacity="0.15" d="M313.288 211.98C307.813 212.314 302.295 212.67 296.776 213.181C309.326 195.847 305.343 163.58 303.274 144.332C300.692 120.632 294.462 97.556 283.936 76.1489C273.989 55.9656 260.192 37.3178 243.391 22.2972C232.532 12.6173 212.282 -7.05398 196.727 3.42707C189.028 8.58971 188.383 17.9135 186.024 25.8578C182.33 38.2748 179.459 49.5569 178.814 62.6861C177.59 87.3644 182.33 112.287 190.363 135.564C198.352 158.751 209.122 182.161 223.453 202.122C229.55 210.623 236.76 218.388 245.661 223.996C239.275 226.466 233.066 229.448 227.036 233.098C204.182 247.073 185.712 267.901 174.964 292.424C162.258 321.375 161.746 353.797 149.885 382.97C136.778 415.081 105.424 430.947 82.3479 454.891C63.0325 474.896 47.2999 498.885 39.1999 525.61C24.9359 572.831 39.5338 630.31 83.6165 656.768C119.911 678.554 190.608 677.53 223.809 644.062C223.253 659.082 224.054 674.325 224.054 689.057C224.121 716.316 224.165 743.576 224.298 770.814C224.454 796.872 224.543 822.952 224.699 849.01C224.81 866.255 221.762 887.262 224.699 905.376C214.574 904.152 204.449 902.906 194.369 901.793C170.781 899.145 153.424 897.699 135.933 915.879C119.266 933.147 104.423 952.885 91.0044 972.779C37.5533 1052.04 10.3382 1150.93 36.908 1244.84C43.6283 1268.61 53.5979 1291.68 66.8828 1312.49C73.2248 1322.5 80.3902 1332.05 88.1787 1340.97C93.4526 1347.03 98.5481 1350.92 104.045 1354.5C107.204 1364.58 110.965 1374.46 115.193 1384.19C121.58 1398.9 128.99 1413.12 136.823 1427.09C138.425 1429.9 139.938 1432.74 141.474 1435.61C114.103 1427.23 78.432 1434.57 57.2029 1447.41C17.2147 1471.62 -0.543055 1521.22 5.30942 1566.22C8.13552 1588.07 16.302 1610.97 32.9916 1626.1C49.5254 1641.1 71.9559 1645.44 93.4743 1647.62C97.2573 1624.21 108.184 1602.24 127.655 1583.46C163.17 1549.24 210.324 1530.37 250.334 1502.35C269.828 1488.71 288.231 1472.38 299.735 1451.26C305.543 1440.6 309.683 1428.49 310.996 1416.41C313.555 1392.62 299.468 1372.28 287.741 1352.9C276.882 1334.99 266.579 1315.63 269.071 1294.04C271.141 1276.08 279.552 1260.73 291.057 1247.11C302.917 1233.07 319.296 1220.92 326.884 1203.74C333.782 1188.07 330.644 1168.74 321.187 1154.83C292.97 1113.31 209.389 1097.44 233.467 1031.64C243.792 1003.4 272.186 987.288 295.485 970.933C309.393 961.164 323.546 950.549 333.27 936.374C345.843 918.038 346.866 897.476 346.021 875.869C343.885 821.26 327.262 768.366 320.653 714.291C317.315 686.92 315.869 658.437 320.275 631.088C322.967 614.421 328.909 598.555 332.38 582.065C335.051 569.381 332.937 562.439 321.632 555.474C304.498 544.881 283.758 538.472 264.487 532.998C245.572 527.613 208.499 524.052 209.501 497.082C210.101 480.882 222.585 465.172 231.664 452.821C248.087 430.435 265.555 408.961 284.181 388.355C303.162 367.348 322.878 347.01 341.326 325.536C357.236 307.021 375.061 289.687 390.104 270.505C404.101 252.658 413.447 227.401 400.54 207.218C369.787 207.529 339.168 210.578 313.288 211.98Z" fill="#FFFCFC"/>
<path opacity="0.15" d="M781.643 318.171C744.592 366.794 707.897 415.727 671.692 464.995C657.739 483.932 643.853 502.958 630.057 522.029C671.113 536.56 723.385 508.032 756.297 485.935C805.342 453.001 839.745 407.093 880.823 365.636C938.213 307.712 1010.51 266.033 1085.1 230.428C1069.13 228.537 1053.02 228.203 1038.97 227.447C986.279 224.643 932.071 225.666 879.844 233.878C831.556 241.488 809.192 282.077 781.643 318.171Z" fill="#FFFCFC"/>
<path opacity="0.3" d="M282.38 122.903C280.867 97.4902 272.967 73.0346 262.13 50.1811C258.369 42.2368 245.218 47.8222 247.932 56.167C256.611 82.9593 259.682 110.887 257.724 138.992C256.277 159.909 243.838 185.322 251.048 206.173C255.788 219.858 272.722 231.496 285.451 219.369C291.815 213.316 292.372 203.792 293.262 195.692C294.908 180.471 296.711 165.161 293.973 150.029C292.794 143.487 287.743 140.817 282.491 141.061C282.714 135.031 282.736 128.956 282.38 122.903Z" fill="#592642"/>
<path opacity="0.3" d="M547.162 43.7717C530.473 74.1467 516.098 105.901 492.977 132.16C481.539 145.155 468.499 156.972 453.923 166.362C441.974 174.039 425.752 181.517 418.675 194.69C413.579 204.192 416.339 215.051 426.264 219.858C437.969 225.51 454.569 219.391 465.25 213.983C494.201 199.319 521.349 170.524 532.142 140.06C533.722 135.587 531.386 131.67 527.87 129.667C543.625 105.39 555.886 78.3081 563.452 50.648C566.1 41.0125 552.103 34.7816 547.162 43.7717Z" fill="#592642"/>
<path opacity="0.3" d="M545.428 619.717C544.049 621.075 542.469 622.766 540.8 624.568C540.823 624.368 540.822 624.145 540.844 623.923C542.558 621.942 543.916 619.673 544.739 617.18L544.761 617.203C552.438 596.307 546.519 568.669 546.875 546.572C547.253 522.495 548.945 498.506 551.637 474.562C552.995 462.39 546.119 455.247 537.217 453.044C537.306 444.699 537.395 436.332 537.484 427.987C542.135 397.279 544.605 366.347 542.38 335.883C544.138 302.815 533.657 271.684 516.523 243.557C511.271 234.923 498.809 242.466 503.104 251.389C508.69 263.028 512.873 275.022 516.099 287.283C524.845 339.622 516.945 392.183 502.191 442.941C487.416 493.722 466.409 546.238 462.537 599.378C459.467 641.792 492.133 692.128 540.199 676.373C561.718 669.319 574.891 651.049 586.307 632.691C600.882 609.236 617.839 586.894 630.479 562.305C636.064 551.446 622.98 541.588 613.878 549.488C596.388 564.664 581.701 582.755 565.634 599.356C558.981 606.232 552.26 613.064 545.428 619.717Z" fill="#592642"/>
<path opacity="0.3" d="M1127.63 1551.89C1126.67 1551.11 1125.69 1550.53 1124.71 1550.04C1128.83 1536.24 1126.58 1521.45 1114.83 1508.41C1113.48 1506.89 1112.01 1505.85 1110.52 1505.11C1109.67 1502.84 1108.74 1500.64 1107.8 1498.46C1107.96 1497.24 1107.87 1495.9 1107.38 1494.43C1088.35 1437.51 1054.95 1384.5 1025 1332.81C993.756 1278.89 960.444 1227.09 923.104 1177.24C922.926 1177 922.703 1176.8 922.503 1176.57C883.672 1115.33 845.486 1053.6 807.278 991.964C788.364 961.455 767.535 930.658 751.713 898.325C757.499 896.299 761.95 890.492 760.57 881.969C759.346 874.403 758.523 866.881 757.877 859.338C777.816 840.245 794.327 817.569 810.972 795.606C832.29 767.478 852.295 738.283 872.545 709.376C892.795 680.47 912.801 651.408 932.316 621.99C934.453 618.785 936.566 615.581 938.703 612.376C956.616 594.819 974.775 574.547 978.869 552.316C979.359 549.602 978.825 546.709 977.623 544.216C978.024 543.282 978.357 542.325 978.736 541.368C997.45 519.16 1015.83 496.595 1034.19 473.742C1058.69 443.211 1082.66 412.257 1105.71 380.636C1126.96 351.485 1152.84 319.686 1151.55 281.634C1151.11 268.349 1134.42 267.592 1129.76 278.696C1115.77 312.12 1094.54 340.381 1072.6 368.954C1049.28 399.351 1025.44 429.659 1000.03 458.343C950.274 514.487 897.491 568.85 844.062 621.5C793.86 670.968 731.263 720.547 701.622 786.237C687.625 817.258 685.533 850.37 698.262 882.214C711.903 916.305 738.139 945.3 759.368 974.919C811.617 1047.75 863.31 1121.01 915.582 1193.8C944.132 1243.4 973.306 1292.75 1001.7 1342.49C1018.01 1371.06 1032.83 1400.86 1048.48 1430.14C1056.24 1447.23 1064.1 1464.28 1072.29 1481.21C1079.47 1496.12 1085.82 1509.92 1088.91 1524.03C1082.95 1549.35 1057.42 1556.05 1034.43 1561.99C1006.24 1569.27 975.776 1576.81 946.402 1575.34C890.926 1572.58 854.965 1508.03 828.485 1466.64C762.505 1363.61 704.782 1255.26 641.896 1150.34C627.32 1126.04 611.876 1102.25 594.074 1080.15C579.565 1062.13 560.896 1045.75 536.284 1047.66C478.56 1052.16 475.267 1123.43 475.067 1166.83C474.577 1278.47 499.256 1396.21 464.452 1504.96C455.462 1533.08 442.734 1561.46 418.322 1579.44C396.181 1595.75 369.366 1603.25 342.841 1608.79C274.57 1623.03 204.918 1627.17 135.289 1627.15C125.008 1627.15 125.653 1641.48 135.289 1642.68C199.132 1650.6 263.977 1649.98 327.887 1642.7C342.619 1641.03 357.706 1638.63 372.482 1635.02C391.441 1643.75 413.115 1644.73 433.743 1645.19C454.082 1645.66 481.854 1641.32 500.057 1631.6C518.727 1621.63 524.156 1601.51 528.896 1582.53C532.012 1570.11 535.26 1556.61 535.394 1543.48C542.359 1525.1 537.886 1502.71 535.995 1483.73C534.415 1467.88 533.035 1450.44 528.407 1434.59C529.541 1403.55 530.231 1372.46 530.409 1341.4C530.632 1299.47 529.586 1257.6 528.495 1215.69C527.806 1188.86 524.29 1158.61 534.281 1133.16C534.393 1133.25 534.504 1133.34 534.615 1133.45C534.637 1133.47 534.682 1133.51 534.704 1133.54C536.083 1134.65 537.53 1135.74 539.043 1136.87C542.403 1139.39 545.786 1140.57 549.012 1140.79C553.574 1146.38 558.114 1151.98 562.631 1157.64C574.737 1172.81 586.175 1188.5 597.19 1204.48C607.693 1219.7 616.995 1235.97 627.988 1250.83C639.759 1266.74 652.466 1281.45 662.969 1298.36C682.596 1329.98 700.598 1362.67 719.647 1394.65C729.705 1411.52 739.696 1428.59 751.668 1444.18C762.95 1458.87 771.652 1477.1 785.315 1489.67C788.831 1492.9 793.637 1493.81 798.132 1493.03C814.421 1524.58 833.247 1555.87 857.035 1581.48C869.497 1594.92 884.695 1609.79 901.719 1617.31C919.655 1625.21 939.126 1618.25 957.462 1615.44C959.443 1615.13 960.978 1614.42 962.202 1613.48C977.912 1613.22 993.712 1611.24 1008.93 1609.39C1031.65 1606.63 1056.33 1603.87 1078.07 1595.08C1087.15 1604.14 1104.95 1602.47 1115.46 1596.24C1128.79 1588.25 1143.63 1564.55 1127.63 1551.89Z" fill="#592642"/>
<path opacity="0.3" d="M148.638 1437.89C154.046 1448.19 158.163 1461.32 167.553 1468.84C185.645 1483.37 206.585 1467.37 208.832 1447.12C211.592 1422.33 190.652 1406.91 174.474 1392C153.289 1372.51 132.862 1352.03 115.037 1329.38C109.63 1322.51 98.5701 1331.36 103.043 1338.64C114.659 1357.58 126.408 1376.05 139.715 1393.87C140.071 1394.34 140.695 1395.14 141.496 1396.16C140.294 1397.9 139.47 1399.99 139.248 1402.3C138.024 1414.08 143.186 1427.49 148.638 1437.89Z" fill="#592642"/>
<path opacity="0.3" d="M44.4072 1234.09C58.9605 1260.95 69.1967 1288.97 81.5248 1316.78C86.9989 1329.16 107.449 1320.37 103.354 1307.57C102.442 1302.77 101.263 1297.94 99.9725 1293.13C97.9475 1279.98 98.8375 1266.61 103.021 1253.63C108.25 1237.45 122.225 1224.9 124.584 1208.04C124.651 1207.52 124.673 1206.99 124.673 1206.48C128.389 1203.87 132.083 1201.09 135.888 1198.24C143.855 1192.28 139.249 1180.38 129.124 1182.18C115.327 1184.65 106.915 1196.93 92.8291 1198C73.2689 1199.49 59.5388 1184.65 52.9075 1167.83C49.1022 1158.17 33.815 1161.77 36.9527 1172.23C37.9541 1175.57 39.1553 1178.86 40.5349 1182.07C40.2011 1182.96 40.0234 1183.94 40.0901 1185.03C40.8022 1196.53 45.0081 1206.28 51.3279 1213.73C44.207 1216.98 39.8899 1225.77 44.4072 1234.09Z" fill="#592642"/>
<path opacity="0.3" d="M491.934 900.035C506.354 882.166 512.985 858.133 507.4 835.725C504.24 822.996 487.016 826.957 485.881 838.64C483.945 858.4 478.938 874.111 465.053 888.687C454.661 899.59 449.676 909.025 454.906 924.113C459.868 938.377 471.15 949.548 476.046 963.701C486.082 992.741 449.053 990.782 433.053 981.525C426.8 977.898 416.698 980.39 414.094 987.622C412.158 986.866 410 986.643 407.819 987.311C406.55 987.689 405.349 988.223 404.169 988.757C400.386 989.758 397.093 991.917 393.466 993.697C392.665 994.098 392.709 994.098 392.932 994.009C392.865 994.031 392.865 994.031 392.776 994.075C391.419 994.676 389.927 995.411 388.526 995.9C388.036 996.078 387.169 996.301 385.811 996.234C376.821 995.833 373.238 1008.12 379.802 1013.24C377.911 1017.22 378.645 1022.54 383.14 1025.1C401.588 1035.64 422.683 1027.59 433.209 1011.17C449.876 1017.73 468.346 1018.46 484.391 1008.38C502.037 997.28 508.891 976.674 502.883 957.002C499.812 946.966 493.781 938.266 488.396 929.387C485.503 924.602 479.362 917.37 480.942 911.54C481.854 908.18 489.753 902.75 491.934 900.035Z" fill="#592642"/>
<path opacity="0.3" d="M245.125 657.103C259.79 650.36 274.01 646.132 290.188 650.404C300.936 653.253 310.215 658.705 321.363 660.374C341.769 663.4 363.021 658.371 381.58 649.848C417.051 633.515 447.604 599.69 449.562 559.146C449.962 551.046 437.523 547.396 433.896 554.896C422.146 579.196 406.636 601.827 385.185 616.892C384.406 611.551 380.734 607.034 374.414 607.078C363.644 607.167 354.008 612.197 343.171 611.974C329.731 611.707 316.534 607.345 303.138 606.255C281.598 604.519 246.239 608.08 233.977 628.285C231.752 631.979 232.464 638.121 236.113 640.858C235.379 641.414 234.6 641.882 233.866 642.46C225.009 649.537 236.291 661.175 245.125 657.103Z" fill="#592642"/>
<path opacity="0.5" d="M224.633 106.256C219.603 77.1713 223.097 47.7085 218.825 18.8021C217.445 9.50045 205.028 12.015 202.357 18.8021C191.142 47.3524 195.837 83.2908 200.911 112.776C205.962 142.127 213.706 177.219 234.179 199.828C240.654 206.971 250.535 199.227 249.088 191.15C243.881 162.266 229.706 135.607 224.633 106.256Z" fill="#FFF7F7"/>
<path opacity="0.5" d="M519.257 12.1727C493.911 27.5716 474.063 55.0541 457.751 79.3986C440.706 104.833 424.372 133.74 419.498 164.293C417.985 173.861 429.579 179.447 435.32 170.968C451.72 146.824 464.027 120.343 480.872 96.3995C497.673 72.5223 519.569 52.851 536.17 29.085C543.38 18.7375 529.382 6.03096 519.257 12.1727Z" fill="#FFF7F7"/>
<path opacity="0.5" d="M476.823 212.513C448.584 207.417 419.432 209.576 390.815 209.709C362.265 209.843 333.604 209.309 305.276 213.359C257.522 220.213 216.265 245.002 192.611 287.817C187.515 297.052 183.531 306.687 180.438 316.612C180.06 317.257 179.704 317.969 179.414 318.726C174.007 333.502 170.113 348.544 165.974 363.721C162.525 376.36 159.721 392.316 149.885 401.773C141.162 410.162 128.433 415.592 118.709 422.757C109.051 429.856 99.7716 437.489 91.3601 446.034C56.7348 481.238 35.083 530.995 51.7726 579.862C55.244 602.604 64.1233 628.573 83.7725 640.946C90.6263 645.263 97.124 638.164 96.1226 631.444C93.8751 616.646 86.7988 602.916 84.2397 588.029C81.8364 574.054 81.7697 559.345 84.1507 545.348C88.757 518.2 104.133 493.388 126.119 476.832C146.325 461.589 173.095 460.075 192.611 444.609C214.641 427.141 210.791 402.085 206.674 377.317C197.684 323.332 227.013 268.88 279.04 249.498C342.038 226.043 412.267 245.603 476.8 232.207C486.414 230.182 486.681 214.294 476.823 212.513Z" fill="#FFF7F7"/>
<path opacity="0.5" d="M420.412 958.672C408.863 955.935 396.357 956.269 385.943 950.016C372.435 941.915 365.003 927.874 363.913 912.342C361.799 882.212 384.719 862.874 389.103 835.169C393.108 809.979 378.265 788.104 362.132 770.325C340.191 746.158 322.255 725.418 314.378 692.751C311.774 681.981 296.642 686.81 298.155 697.224C302.917 730.002 317.115 756.884 338.099 782.096C349.426 795.715 364.736 813.851 360.04 833.1C356.146 849.033 343.685 862.651 339.012 878.807C332.87 899.969 333.249 923.535 342.461 943.384C341.86 943.05 341.193 942.828 340.548 942.561C339.702 937.843 335.585 933.348 330.333 932.992C308.347 931.501 286.162 934.817 264.087 934.35C242.591 933.905 222.14 928.386 200.933 925.515C167.754 921.02 137.068 926.405 122.604 958.672C100.952 974.983 87.0214 1000.35 75.9395 1024.5C60.5183 1058.1 48.2124 1092.52 44.652 1129.53C43.8509 1137.76 57.1141 1141.43 60.5633 1133.82C75.1166 1101.6 87.6001 1068.42 104.445 1037.27C117.842 1012.5 134.309 979.055 165.863 975.873C183.754 974.071 199.888 982.037 216.688 986.466C230.174 990.026 244.438 991.962 258.323 992.941C287.764 995.033 324.725 992.007 347.379 971.133C351.184 967.64 352.719 963.456 352.675 959.362C353.454 960.274 354.188 961.209 355.012 962.077C372.146 980.413 403.834 994.299 424.796 975.295C430.27 970.31 427.511 960.341 420.412 958.672Z" fill="#FFF7F7"/>
<path opacity="0.5" d="M230.128 898.167C234.667 913.387 245.794 923.512 261.215 927.14C275.879 930.589 287.517 918.083 284.58 903.774C270.049 833.166 258.544 762.936 251.134 691.216C250.044 680.69 234.178 680.156 234.333 691.216C235.09 752.767 233.666 815.342 241.744 876.559C233.399 879.43 226.968 887.552 230.128 898.167Z" fill="#FFF7F7"/>
<path opacity="0.5" d="M406.838 1114.91C378.666 1094.1 330.066 1095.73 297.043 1099.6C259.236 1104.03 221.784 1115.82 190.119 1137.34C138.581 1172.36 89.9587 1242.59 108.25 1308.08C110.342 1315.56 122.203 1316.14 123.983 1308.08C130.414 1278.89 135.933 1251.85 151.977 1225.95C167.688 1200.58 188.873 1178.26 214.508 1162.82C243.058 1145.57 276.103 1136.36 309.282 1134.27C340.703 1132.29 373.103 1141.52 403.946 1137.27C415.628 1135.65 414.137 1120.29 406.838 1114.91Z" fill="#FFF7F7"/>
<path opacity="0.5" d="M58.1168 1627.12C65.8385 1630.77 73.3822 1623.41 69.6214 1615.62C62.7231 1601.33 54.3116 1589.63 51.5078 1573.54C48.7485 1557.67 50.6396 1540.14 56.7369 1525.27C69.9995 1492.92 96.058 1484.17 127.012 1475.58C136.135 1473.05 139.807 1460.78 132.686 1454.06C93.7883 1417.3 38.5122 1468.59 22.824 1504.93C13.322 1526.92 11.3636 1551.02 18.5735 1573.98C24.871 1594.08 38.3786 1617.78 58.1168 1627.12Z" fill="#FFF7F7"/>
<path opacity="0.5" d="M650.372 540.253C719.044 470.913 776.456 391.849 841.835 319.706C855.208 304.952 870.14 291.378 889.122 284.413C910.529 276.558 933.828 274.533 956.325 272.018C980.803 269.281 1005.28 266.811 1029.89 265.498C1054.06 264.229 1078.96 264.563 1102.81 260.647C1113.21 258.956 1112.09 243.178 1102.81 240.753C1053.97 227.868 995.713 231.807 945.844 236.324C899.514 240.508 859.347 248.875 825.523 283.033C791.165 317.725 763.015 359.649 733.642 398.503C700.819 441.896 667.373 484.843 637.777 530.528C632.77 538.25 644.03 546.662 650.372 540.253Z" fill="#FFF7F7"/>
<path d="M536.662 1615.62C546.342 1593.3 547.61 1566.42 548.121 1542.38C548.767 1512.12 547.498 1481.79 546.987 1451.5C545.896 1389.08 544.851 1326.71 543.76 1264.29C543.248 1234.76 541.802 1204.97 543.582 1175.41C544.05 1167.58 544.562 1159.59 545.897 1151.83C546.119 1148.55 546.809 1145.44 547.966 1142.44C546.764 1145.55 577.473 1185.65 580.855 1191.32C601.506 1225.95 623.358 1259.68 644.899 1293.78C676.809 1344.16 709.788 1393.87 743.145 1443.29C774.254 1489.38 803.962 1538.33 839.967 1580.84C873.924 1620.98 915.848 1636.87 968.076 1632C994.556 1629.48 1020.95 1624.92 1047.3 1621.11C1070.59 1617.78 1100.86 1618.29 1121.86 1606.56C1160.7 1584.89 1140.05 1534.55 1124.16 1505.09C1066.52 1398.43 1006.8 1292.93 945.534 1188.34C911.02 1129.44 875.971 1070.87 840.389 1012.63C822.565 983.484 804.54 954.533 786.604 925.493C776.991 909.961 765.509 890.334 767.222 871.286C769.114 850.969 788.496 833.99 800.69 819.103C817.202 798.964 833.58 778.669 849.602 758.175C883.026 715.427 915.515 671.879 947.069 627.707C1010.13 539.475 1069.68 448.75 1126.63 356.446C1143.94 328.363 1178.81 286.906 1148.26 255.752C1121.58 228.559 1073.82 229.338 1038.95 227.469C986.256 224.665 932.048 225.688 879.821 233.9C831.51 241.51 809.169 282.099 781.62 318.193C744.569 366.815 707.874 415.749 671.669 465.017C654.245 488.672 636.91 512.46 619.709 536.248C600.905 562.195 583.014 590.055 559.537 612.085C559.426 564.153 559.293 516.243 559.003 468.333C558.714 418.753 561.652 367.817 556.066 318.527C552.083 283.434 540.311 247.407 508.245 228.448C499.922 223.508 490.865 219.658 481.274 216.654C512.962 192.02 537.24 155.726 551.571 119.365C562.519 91.482 584.26 23.8558 546.854 5.45278C526.893 -4.38293 506.353 10.2374 491.577 22.6099C473.041 38.1423 457.041 56.6564 443.778 76.8619C430.071 97.8462 419.389 121.101 412.536 145.2C407.128 164.338 401.61 186.857 404.903 207.152C372.726 207.197 340.37 210.49 313.266 211.981C307.792 212.315 302.273 212.671 296.754 213.182C309.305 195.848 305.322 163.581 303.252 144.333C300.671 120.633 294.44 97.557 283.915 76.1498C273.968 55.9666 260.171 37.3188 243.37 22.2982C232.511 12.6183 212.261 -7.053 196.706 3.42805C189.007 8.59069 188.361 17.9145 186.003 25.8587C182.309 38.2758 179.438 49.5579 178.793 62.687C177.569 87.3653 182.309 112.288 190.342 135.565C198.331 158.752 209.101 182.162 223.432 202.123C229.529 210.623 236.739 218.389 245.64 223.997C239.253 226.467 233.045 229.449 227.014 233.099C204.161 247.073 185.691 267.902 174.943 292.425C162.237 321.375 161.725 353.798 149.864 382.971C136.757 415.082 105.403 430.948 82.3271 454.892C63.0117 474.897 47.2785 498.885 39.1784 525.611C24.9144 572.831 39.5123 630.31 83.595 656.769C119.889 678.554 190.587 677.531 223.788 644.063C223.231 659.083 224.032 674.326 224.032 689.057C224.099 716.317 224.144 743.577 224.277 770.814C224.433 796.872 224.522 822.952 224.678 849.01C224.789 866.256 221.741 887.263 224.678 905.377C214.553 904.153 204.428 902.907 194.347 901.794C170.76 899.146 153.402 897.7 135.912 915.88C119.244 933.148 104.401 952.886 90.9829 972.78C37.5318 1052.04 10.3167 1150.94 36.8865 1244.84C43.6068 1268.61 53.5764 1291.68 66.8613 1312.49C73.2033 1322.5 80.3687 1332.05 88.1572 1340.97C93.4311 1347.03 98.5266 1350.92 104.023 1354.5C107.183 1364.58 110.944 1374.46 115.172 1384.19C121.558 1398.9 128.969 1413.12 136.802 1427.09C138.404 1429.9 139.917 1432.74 141.452 1435.62C114.081 1427.23 78.4105 1434.57 57.1814 1447.41C17.1932 1471.62 -0.564539 1521.22 5.28794 1566.22C8.11404 1588.07 16.2805 1610.97 32.9701 1626.1C50.0602 1641.59 73.4257 1645.73 95.6117 1647.84C159.166 1653.89 223.543 1657.03 287.341 1658.19C359.018 1659.5 434.21 1659.17 504.239 1642.25C505.797 1641.9 507.043 1641.16 508.044 1640.23C520.684 1636.6 530.564 1629.7 536.662 1615.62ZM428.113 161.156C432.875 142.04 439.973 123.459 449.23 106.035C458.087 89.457 468.791 73.88 481.319 59.883C493.447 46.3756 516.412 18.7602 535.504 25.0132C566.28 35.0715 534.303 112.333 524.445 131.604C508.334 163.136 485.547 186.368 458.799 208.109C456.285 207.174 453.169 208.153 451.189 210.112C441.019 208.665 430.538 207.819 419.968 207.463C423.573 192.242 424.374 176.31 428.113 161.156ZM234.536 182.162C224.478 165.873 216.066 148.293 209.857 130.202C203.649 112.266 199.377 93.4402 198.687 74.4141C198.331 63.9998 198.575 21.6751 211.682 23.5444C218.514 24.5235 228.349 35.6721 233.156 40.2339C239.409 46.1754 245.128 52.6064 250.313 59.5047C261.061 73.8355 269.428 89.9244 275.103 106.903C281.534 126.174 284.872 146.201 285.361 166.496C285.65 176.866 283.648 188.526 284.226 199.408C283.003 204.526 281.645 209.822 281.111 215.052C277.951 215.519 274.835 216.031 271.72 216.609C257.145 207.13 244.082 197.628 234.536 182.162ZM94.1652 1301.63C94.3877 1305.55 94.7217 1309.44 95.1445 1313.27C89.5145 1305.57 84.4411 1297.49 79.8348 1289.13C67.0617 1265.89 58.4945 1240.57 53.7547 1214.51C44.0525 1161.24 52.5529 1106.36 72.7362 1056.47C83.3285 1030.3 97.3031 1005.49 113.192 982.216C126.654 962.544 148.752 923.424 174.988 923.357C206.965 923.29 240.61 930.433 272.454 933.638C289.01 935.262 305.589 936.82 322.167 938.177C322.901 938.244 323.614 938.288 324.392 938.355C325.26 944.119 326.685 949.815 328.821 955.49C335.141 972.246 347.936 985.753 362.979 993.453C367.741 1010.14 375.173 1025.65 375.93 1043.92C376.575 1059.97 370.767 1073.56 367.941 1088.34C341.149 1080.13 311.174 1078.95 286.429 1081.62C232.422 1087.45 180.64 1112.39 145.236 1154.1C110.744 1194.68 91.4059 1248.25 94.1652 1301.63ZM296.153 732.784C300.359 750.253 307.302 767.454 317.449 782.297C323.836 791.62 331.936 799.965 339.146 808.889C339.791 809.935 340.459 811.025 341.06 812.115C351.919 831.386 343.53 848.12 336.097 866.88C329.778 882.768 324.749 899.658 323.569 916.592C309.55 914.678 295.041 914.233 283.069 912.676C270.585 911.073 258.057 909.493 245.573 907.958C248.756 890.312 245.573 869.594 245.462 852.615C245.306 825.356 245.173 798.096 244.995 770.859C244.839 744.756 244.638 718.72 244.371 692.662C244.193 670.276 245.795 646.688 242.235 624.391C245.751 622.767 249.356 621.409 252.939 620.43C267.715 616.402 283.425 618.516 298.668 620.875C288.098 656.502 287.586 697.291 296.153 732.784ZM496.072 1623.03C493.068 1623.56 489.975 1624.07 486.926 1624.52C424.975 1631.53 363.869 1637.4 301.272 1637C236.271 1636.56 171.271 1632.29 106.471 1627.5C77.3646 1625.36 47.4566 1621.16 33.927 1591.72C22.5335 1566.97 22.5335 1537 31.6126 1511.59C41.0478 1485.19 61.4314 1464.45 88.513 1456.49C117.842 1447.88 137.936 1458.91 165.129 1467.19C170.181 1468.73 174.498 1462.81 171.917 1458.4C171.85 1458.29 171.761 1458.18 171.694 1458.11C172.25 1457.18 172.562 1456.09 172.539 1454.89C171.783 1432.72 151.666 1410.2 142.031 1390.64C136.913 1380.29 132.24 1369.64 128.234 1358.71C128.59 1356.71 128.167 1354.57 126.499 1352.84C126.321 1352.61 126.142 1352.39 125.92 1352.19C121.358 1338.46 117.976 1324.4 116.552 1310.02C111.723 1262.09 126.677 1212.87 156.251 1174.99C220.161 1093.12 336.387 1082.2 422.038 1133.73C424.574 1135.29 427.69 1132.22 426.132 1129.64C416.83 1114.35 402.9 1103.29 386.722 1095.59C395.935 1080.22 395.735 1053.18 394.333 1038.34C393.198 1026.3 390.528 1012.28 384.942 1000.15C399.496 1001.69 414.204 997.503 425.843 985.665C441.331 997.125 462.849 998.905 477.492 983.35C500.612 958.783 473.619 936.352 467.655 912.119C463.583 895.608 483.121 886.818 491.466 874.601C498.542 864.254 503.327 851.992 504.529 839.464C507.065 812.783 493.647 786.836 472.418 771.393C466.276 766.92 459.244 776.578 464.429 781.696C480.941 797.963 489.352 818.991 483.766 842.112C481.23 852.704 476.156 862.696 468.479 870.551C462.961 876.203 455.951 880.276 451.567 887.018C443.111 899.947 445.826 914.678 452.034 927.963C456.462 937.465 465.653 947.568 465.364 958.405C464.807 979.99 442.31 975.428 432.073 963.301C427.601 957.96 419.189 960.207 415.896 965.37C400.764 989.003 368.497 981.436 354.612 960.942C339.302 938.333 342.996 908.982 351.118 884.548C358.194 863.363 372.392 840.933 364.002 817.923C362.556 813.962 360.486 810.446 358.038 807.175C355.746 801.701 352.231 796.65 347.78 791.309C333.672 774.397 322.301 758.33 315.847 736.879C304.454 699.071 310.618 660.663 308.304 622.299C310.485 622.633 312.665 622.945 314.846 623.212C350.005 627.462 387.969 623.368 417.609 602.428C464.095 569.583 481.475 492.61 420.903 464.594C416.719 462.658 411.245 468.221 415.54 471.604C441.131 491.965 447.695 531.018 431.762 559.035C414.516 589.298 380.047 603.429 346.556 605.009C304.053 607.034 233.446 582.4 210.948 629.932C177.124 656.813 115.728 659.283 84.2626 632.246C44.2966 597.999 48.4139 539.341 73.9823 498.107C99.8846 456.294 150.487 436.133 168.912 389.558C178.192 366.036 180.528 340.668 187.627 316.569C194.948 291.735 209.324 270.038 230.531 254.951C259.57 234.3 295.197 231.897 329.644 231.029C381.804 229.694 448.229 217.277 495.628 244.648C529.852 264.431 535.148 308.691 536.416 344.451C539.888 440.984 538.019 538.073 538.152 634.672C538.197 649.915 554.442 645.309 561.518 639.056C603.91 601.56 631.481 554.651 664.548 509.567C693.789 469.712 723.273 430.08 752.958 390.604C781.442 352.685 808.523 311.718 840.412 276.625C857.502 257.821 877.796 254.661 901.963 252.058C926.463 249.41 951.053 247.852 975.709 247.385C999.141 246.94 1022.64 247.63 1046.03 249.276C1067.77 250.834 1091.02 251.346 1111.74 258.712C1131.54 265.721 1145.39 278.895 1134.7 300.814C1124.29 322.266 1109.69 342.471 1097.12 362.676C1048.05 441.251 996.67 518.335 943.041 593.838C908.861 641.993 873.324 689.213 837.185 735.922C818.76 759.732 800.179 783.387 781.508 807.02C754.227 841.6 733.487 869.794 755.74 914.723C767.667 938.867 783.89 961.32 798.02 984.218C814.087 1010.23 830.064 1036.33 845.931 1062.53C906.903 1163.15 966.273 1264.8 1024.02 1367.37C1052.84 1418.61 1082.19 1469.73 1109.34 1521.89C1117.39 1537.36 1129.88 1562.21 1120.37 1579.37C1114.21 1590.63 1100.81 1591.96 1089.46 1593.74C1073.58 1596.26 1057.64 1598.39 1041.73 1600.71C987.324 1608.72 922.925 1627.59 876.216 1588.45C857.925 1573.16 843.905 1553.49 830.353 1534.15C812.907 1509.25 795.661 1484.17 778.571 1459.07C741.699 1404.93 705.694 1350.23 670.178 1295.22C649.75 1263.62 630.435 1231.31 610.363 1199.49C599.392 1182.11 569.351 1116.69 546.097 1119.36C527.182 1121.58 526.292 1148.2 524.823 1162.26C518.325 1225.37 524.356 1290.99 525.401 1354.28C526.447 1417.97 529.719 1482.06 528.05 1545.72C527.338 1572.25 528.517 1616.98 496.072 1623.03Z" fill="#3D2938"/>
<path d="M152.376 502.424C136.398 496.038 106.112 485.156 89.3116 494.324C66.8808 506.63 100.193 557.567 107.069 571.92C109.361 576.682 115.815 577.55 120.02 575.324C133.817 568.025 147.525 560.66 161.255 553.249C169.555 548.777 183.218 544.727 187.023 535.002C193.966 517.378 163.724 506.986 152.376 502.424Z" fill="#3D2938"/>
<path d="M237.805 324.713C223.252 318.082 205.516 325.069 198.528 338.91C193.455 346.677 194.056 357.558 198.462 366.17C201.577 373.758 208.03 378.61 215.418 380.434C228.258 384.306 243.791 379.811 250.8 367.795C259.434 353.019 253.582 331.901 237.805 324.713Z" fill="#3D2938"/>
<path d="M343.329 330.588C332.692 325.759 320.431 324.602 309.371 328.452C253.472 348.012 282.668 437.357 340.191 416.484C363.045 408.206 376.552 380.056 368.541 357.069C364.38 345.186 354.812 335.751 343.329 330.588Z" fill="#3D2938"/>
</g>
<defs>
<filter id="filter0_d_403_14237" x="0.197266" y="0.435547" width="1164.16" height="1666.27" filterUnits="userSpaceOnUse" color-interpolation-filters="sRGB">
<feFlood flood-opacity="0" result="BackgroundImageFix"/>
<feColorMatrix in="SourceAlpha" type="matrix" values="0 0 0 0 0 0 0 0 0 0 0 0 0 0 0 0 0 0 127 0" result="hardAlpha"/>
<feOffset dy="4"/>
<feGaussianBlur stdDeviation="2"/>
<feComposite in2="hardAlpha" operator="out"/>
<feColorMatrix type="matrix" values="0 0 0 0 0 0 0 0 0 0 0 0 0 0 0 0 0 0 0.25 0"/>
<feBlend mode="normal" in2="BackgroundImageFix" result="effect1_dropShadow_403_14237"/>
<feBlend mode="normal" in="SourceGraphic" in2="effect1_dropShadow_403_14237" result="shape"/>
</filter>
</defs>
</svg>
