<svg width="1179" height="1548" viewBox="0 0 1179 1548" fill="none" xmlns="http://www.w3.org/2000/svg">
<g filter="url(#filter0_d_403_14267)">
<path d="M1036.36 1505.57C1067.49 1504.17 1110.13 1502.28 1112.18 1462.89C1113.62 1435.03 1112.53 1406.32 1111.47 1378.59C1110.95 1365.33 1110.42 1351.62 1110.2 1338.25C1110.02 1328.7 1110.22 1319.05 1110.42 1308.83C1110.93 1282.24 1111.49 1254.76 1105.32 1229.79C1095.09 1188.4 1057.77 1192.14 1024.84 1195.43L1019.34 1195.97C937.227 1203.89 853.556 1206.51 770.62 1203.75C750.059 1203.09 728.54 1202.02 706.666 1200.57C704.04 1200.39 701.214 1200.31 698.299 1200.22C686.95 1199.88 674.11 1199.5 665.921 1192.87C657.02 1185.64 656.575 1173.69 656.13 1162.14C656.041 1160.07 655.974 1158.05 655.841 1156.07C654.639 1136.97 653.437 1117.88 652.214 1098.81C647.095 1018.68 641.91 938.524 636.725 858.392C636.681 857.746 636.303 857.168 635.702 856.878C635.123 856.589 634.433 856.656 633.877 857.012C628.692 860.573 624.464 862.931 620.147 864.712C591.775 876.283 561.333 873.435 527.042 855.922C524.594 854.831 522.101 853.496 519.564 851.938C513.689 848.623 507.57 843.638 501.072 838.364C486.096 826.17 469.117 812.373 450.826 817.135C440.945 819.716 432.022 824.834 423.41 829.775C415.933 834.047 408.212 838.476 400.023 841.124C388.296 844.929 375.923 847.199 363.217 847.866C362.683 847.888 362.193 848.178 361.881 848.601C361.547 849.023 361.436 849.58 361.548 850.114C361.637 850.559 361.748 851.004 361.792 851.449C368.334 912.689 369.915 975.753 371.428 1036.75C372.207 1067.77 373.008 1099.83 374.454 1131.21C378.838 1225.14 384.335 1319.2 390.744 1410.84C391.144 1416.65 391.278 1422.88 391.411 1429.49C392.056 1461.66 392.791 1498.11 426.036 1510.42C450.492 1519.43 478.642 1519.08 505.901 1518.74C514.001 1518.63 521.656 1518.54 529.111 1518.7C566.473 1519.45 603.635 1519.83 640.419 1519.83C687.929 1519.83 734.771 1519.19 780.523 1517.92C861.59 1515.72 943.68 1511.8 1024.5 1506.26C1028.2 1505.95 1032.18 1505.77 1036.36 1505.57Z" fill="#FFCC99"/>
<path d="M265.704 90.6285C236.998 92.1195 208.692 83.3962 179.586 86.0443C151.636 88.6256 123.776 99.2847 105.706 121.537C70.3467 165.019 113.94 218.938 94.1352 266.737C86.2354 285.941 71.4821 300.561 59.7326 317.295C53.2793 326.485 47.0926 336.744 47.0036 348.293C46.8256 362.157 55.4154 374.574 59.7102 387.347C77.3122 439.485 38.4812 484.413 28.9348 533.525C24.551 556.268 25.2408 584.439 46.2029 598.926C65.3625 612.144 89.6179 612.545 105.462 631.482C134.969 666.619 116.566 716.955 139.753 754.184C157.021 781.91 188.665 766.957 215.056 770.584C239.735 773.922 258.383 789.988 278.165 803.718C300.418 819.139 325.519 828.174 352.779 828.508C383.332 828.908 405.918 817.337 432.288 803.941C450.535 794.639 470.073 790.767 488.543 801.515C515.625 817.27 529.199 842.838 562.644 848.98C589.615 853.943 617.186 845.131 638.415 829.665C662.448 812.107 683.232 820.118 710.536 820.808C757.935 822.032 805.355 789.899 812.61 741.477C815.948 719.158 816.482 697.105 834.106 680.682C850.373 665.484 877.009 659.276 884.175 636.11C896.725 595.855 866.283 552.217 891.652 513.586C905.56 492.424 928.013 481.543 933.286 454.795C938.583 427.824 926.455 406.061 907.384 388.192C891.607 373.416 874.472 359.709 867.463 338.435C859.63 314.58 867.285 289.813 874.139 266.714C881.549 241.68 886.378 217.759 876.72 192.546C867.619 168.825 848.882 148.997 827.252 136.113C804.421 122.583 780.41 119.935 754.485 117.888C731.543 116.108 708.823 112.703 690.22 98.083C679.36 89.5157 670.727 78.3005 659.2 70.5788C648.429 63.3244 635.967 59.0294 623.461 55.9808C592.352 48.3259 559.507 48.7487 528.554 56.6039C516.137 59.7193 504.098 63.747 491.258 60.9654C479.397 58.3618 468.938 50.974 458.346 45.3886C432.755 31.8589 404.339 19.8868 374.809 21.4445C345.369 23.0022 325.008 36.7324 309.275 60.8544C298.549 77.2102 286.199 89.5826 265.704 90.6285ZM681.92 164.196C702.615 156.719 725.624 156.942 746.341 164.263C791.781 180.329 811.453 231.11 796.81 275.526C790.824 293.64 776.204 317.117 756.422 322.124C749.412 323.904 742.603 322.413 736.127 318.964C731.699 318.853 727.738 315.804 723.354 312.355C708.445 300.717 694.937 286.364 681.052 273.568C664.674 258.503 637.57 240.501 637.325 215.467C637.058 190.877 660.646 171.896 681.92 164.196ZM424.9 232.601C480.687 216.957 543.285 231.377 592.152 260.617C688.818 318.541 759.114 441.265 736.438 554.999C725.98 607.226 695.138 656.716 647.784 682.819C610.177 703.536 546.779 716.176 509.839 687.002C507.413 691.497 504.654 695.636 502.028 699.041C487.764 717.333 465.623 729.082 442.19 728.726C418.825 728.37 395.749 717.044 382.642 697.417C382.397 697.016 382.086 696.571 381.841 696.193C335.577 716.977 280.013 697.617 246.656 661.901C175.158 585.441 191.936 457.087 240.091 373.394C265.793 328.8 303.133 291.482 347.483 265.424C370.07 252.161 397.151 239.499 424.9 232.601ZM334.042 204.229C330.638 229.063 301.442 243.46 283.306 256.3C267.84 267.249 252.642 279.71 236.375 289.39C231.59 292.261 227.296 294.753 222.845 294.286C216.013 296.934 209.093 297.557 202.372 294.864C183.391 287.343 171.842 262.242 168.215 243.482C159.358 197.62 185.304 149.754 232.414 139.54C253.887 134.889 276.719 137.648 296.324 147.662C316.44 158.032 337.447 179.84 334.042 204.229Z" fill="#C2674C"/>
<path d="M498.489 650.329C480.108 644.232 463.085 628.633 455.074 610.608C454.784 609.963 454.184 609.562 453.472 609.54C452.715 609.473 452.136 609.896 451.803 610.497C442.612 627.81 422.874 641.829 402.691 645.389C398.04 646.213 392.988 646.457 387.692 646.124C387.113 646.079 386.602 646.301 386.224 646.724C385.846 647.147 385.69 647.703 385.801 648.26C386.335 651.13 386.758 654.001 387.181 656.872C388.516 665.906 389.896 675.275 394.947 683.976C404.493 700.354 422.607 710.59 442.189 710.723C442.3 710.723 442.434 710.723 442.545 710.723C459.146 710.723 474.968 703.135 486.05 689.895C489.699 685.466 496.108 676.454 497.932 665.973C498.467 662.88 498.622 660.61 498.756 658.608C498.911 656.404 499.023 654.646 499.623 652.621C499.935 651.62 499.423 650.641 498.489 650.329ZM446.973 645.656C448.731 647.993 448.909 651.82 449.065 655.18C449.11 655.959 449.132 656.716 449.199 657.428C449.332 659.297 449.443 661.144 449.555 663.014C449.733 666.018 449.911 668.999 450.201 671.959C450.401 674.229 448.554 676.298 446.907 677.411L446.885 677.433C445.994 678.034 445.015 678.279 443.836 678.234C440.053 678.056 438.295 675.475 437.494 673.339C435.157 667.108 434.356 656.916 437.516 650.307C438.985 647.236 441.166 645.211 444.036 644.276C444.237 644.21 444.437 644.165 444.615 644.165C445.75 644.188 446.684 645.278 446.973 645.656Z" fill="#FFA7B4"/>
<path d="M236.02 612.701C257.961 657.54 298.972 683.732 343.611 683.732C353.603 683.732 363.773 682.419 373.942 679.704C374.409 679.57 374.832 679.259 375.054 678.836C375.299 678.413 375.344 677.901 375.21 677.434C372.695 669.178 370.805 657.117 375.967 646.614C376.212 646.124 376.211 645.546 375.989 645.056C375.766 644.567 375.322 644.188 374.81 644.055C351.044 637.846 333.153 619.621 329.214 597.68C329.08 596.879 329.526 596.3 330.015 596.1C330.482 595.922 330.883 596.078 331.239 596.612C345.258 617.062 370.826 636.8 400.378 630.859C426.814 625.563 438.186 603.444 449.157 582.059L450.113 580.212C450.269 579.9 450.58 579.611 451.003 579.277C451.337 579.01 451.582 578.654 451.671 578.231C451.76 577.875 451.871 577.519 451.96 577.163L452.183 576.407C452.316 575.917 452.249 575.383 451.96 574.96C451.693 574.537 451.248 574.226 450.759 574.137C431.132 570.532 408.59 549.28 400.49 526.783C400.423 526.605 400.311 526.427 400.2 526.271C377.146 497.387 395.372 449.276 417.98 416.854C418.492 416.12 419.716 415.986 420.473 416.387C420.873 416.587 421.051 416.854 420.806 417.522L420.161 419.28C411.46 443.357 403.226 466.1 402.581 489.599C402.559 490.333 403.004 491.023 403.672 491.312C404.339 491.601 405.14 491.468 405.674 490.934C409.057 487.596 413.507 484.836 418.915 482.767C446.041 472.441 488.922 474.133 510.863 494.85C511.397 495.362 512.198 495.495 512.866 495.184C513.533 494.872 513.956 494.205 513.934 493.47C513.867 491.49 513.69 489.42 513.423 487.128C511.998 476.135 508.794 465.276 505.701 454.75C503.052 445.738 500.315 436.414 498.713 427.113C498.491 425.755 499.336 424.665 500.249 424.309C501.094 423.975 501.784 424.286 502.385 425.199C517.272 448.453 531.914 476.002 527.731 503.929C526.751 510.472 524.192 517.704 520.721 523.734C520.632 523.868 520.587 524.024 520.543 524.179C514.601 546.388 485.472 570.576 466.713 574.07C464.978 574.381 463.22 574.582 461.35 574.737C460.816 574.782 460.327 575.049 460.015 575.494C459.704 575.917 459.593 576.473 459.726 576.985C464.955 598.058 475.281 627.032 504.454 635.488C537.099 644.901 561.911 620.667 580.025 602.976C580.581 602.442 581.427 602.442 581.983 602.687C582.495 602.91 582.762 603.288 582.762 603.822C582.584 615.371 577.777 625.986 568.876 634.508C556.103 646.725 535.897 653.98 516.048 653.379C515.447 653.379 514.891 653.623 514.535 654.113C514.179 654.58 514.09 655.203 514.268 655.76C515.892 660.722 515.625 666.975 513.533 673.829C513.377 674.341 513.444 674.875 513.734 675.32C514.023 675.765 514.49 676.077 515.002 676.143C520.61 676.967 526.062 677.901 531.469 678.836C553.321 682.597 573.949 686.157 597.56 681.017C628.335 674.318 655.751 658.207 676.891 634.397C717.235 588.823 730.987 521.598 713.653 454.55C697.386 391.375 657.375 332.227 603.902 292.239C548.515 250.915 483.203 237.831 414.91 254.476C411.483 255.544 407.432 256.835 403.338 258.348C375.744 268.695 349.286 283.382 326.833 300.828C281.749 335.876 247.457 385.544 230.256 440.687C210.918 502.905 213.01 565.636 236.02 612.701ZM366.042 587.444C371.494 587.444 375.945 591.961 376.212 597.725C376.323 600.128 375.366 602.531 373.519 604.467C371.516 606.559 368.735 607.805 366.065 607.805C360.546 607.805 356.162 603.399 355.873 597.569C355.761 595.143 356.718 592.74 358.588 590.804C360.568 588.69 363.35 587.444 366.042 587.444ZM366.487 569.085C363.283 569.085 359.9 567.216 357.875 564.345C356.829 562.877 355.294 559.873 356.585 556.312C357.431 553.976 357.809 553.219 359.077 551.617C360.947 549.169 363.706 547.812 367.021 547.678C367.088 547.678 367.155 547.678 367.222 547.678C370.293 547.678 373.497 549.592 375.077 552.418C375.767 553.597 376.056 554.799 376.212 555.489C376.212 555.667 376.279 556.045 376.323 556.201C377.169 559.161 376.546 562.365 374.587 564.946C372.607 567.528 369.58 569.085 366.487 569.085ZM378.993 435.19C371.672 442.512 360.947 446.428 349.486 445.961C338.271 445.494 328.079 440.798 321.559 433.076C304.402 412.737 311.234 389.594 324.83 376.71C331.795 370.123 341.164 365.717 351.222 365.717C359.967 365.717 369.224 369.055 377.836 377.177C382.776 381.895 386.404 388.037 388.34 395.002C392.456 409.644 388.762 425.421 378.993 435.19ZM391.521 583.371C391.41 580.946 392.39 578.543 394.259 576.584C396.262 574.47 399.088 573.224 401.758 573.224C407.344 573.224 411.772 577.653 412.039 583.55C412.15 585.997 411.171 588.423 409.302 590.381C407.277 592.495 404.473 593.741 401.758 593.741C396.262 593.719 391.766 589.179 391.521 583.371ZM530.579 563.433C531.981 563.433 533.405 563.789 534.674 564.546C536.765 565.77 538.168 567.75 538.635 570.153C539.102 572.557 538.523 575.049 537.055 576.963C534.406 580.367 529.555 581.302 526.017 579.077H525.995C524.081 577.897 522.613 575.806 522.101 573.514C521.633 571.4 521.967 569.33 523.058 567.639C524.816 564.946 527.686 563.433 530.579 563.433ZM516.827 598.949C516.894 600.773 516.16 602.598 514.758 604.067C513.244 605.647 511.131 606.603 509.105 606.603C504.944 606.603 501.561 603.177 501.361 598.793C501.272 596.99 501.984 595.165 503.386 593.697C504.899 592.095 507.036 591.138 509.105 591.138C513.289 591.138 516.604 594.52 516.827 598.949ZM550.518 437.193C542.017 419.369 550.362 395.135 568.008 386.368C576.976 381.895 588.035 381.517 598.316 385.322C607.551 388.749 614.939 395.046 619.101 403.08C625.51 415.475 625.109 428.27 618.01 439.107C609.91 451.457 594.578 459.112 579.869 458.111C566.962 457.221 556.548 449.788 550.518 437.193ZM538.168 596.701C538.079 594.542 538.924 592.406 540.593 590.693C542.351 588.846 544.821 587.733 547.18 587.733C552.098 587.733 555.991 591.65 556.214 596.857C556.303 598.993 555.457 601.107 553.811 602.821C552.053 604.667 549.561 605.78 547.18 605.78C542.262 605.78 538.39 601.863 538.168 596.701Z" fill="#FFCC99"/>
<path d="M244.476 157.565C210.808 161.503 186.909 188.83 186.375 224.011C186.219 235.983 189.29 258.993 201.885 269.385C204.155 271.254 207.203 272.1 210.853 272.1C237.823 272.1 296.838 226.126 307.007 214.465C317.199 202.76 315.418 192.88 312.125 186.649C301.332 166.177 261.789 155.54 244.476 157.565Z" fill="#FFCC99"/>
<path d="M753.507 298.601C756.044 298.601 758.269 298.067 760.139 296.888C773.935 288.209 779.899 265.756 781.257 253.851C785.218 218.914 764.99 188.784 732.056 180.573C715.144 176.389 674.577 181.908 661.27 200.845C657.22 206.608 654.216 216.177 662.828 229.084C671.729 242.347 727.761 298.601 753.507 298.601Z" fill="#FFCC99"/>
<path opacity="0.1" d="M1147.69 947.16C1147.51 946.804 1147.29 946.537 1147.05 946.292C1146 944.112 1145.04 941.908 1143.95 939.75C1120.21 893.308 1077.06 864.803 1025.32 859.774C1011.17 858.394 996.952 858.839 982.866 860.686C982.221 859.373 981.153 858.26 979.662 857.526C935.891 835.83 870.601 840.859 829.122 865.404C805.534 879.312 788.8 900.652 775.381 924.151C763.342 945.158 745.295 967.254 739.309 992.089C730.92 1026.56 755.087 1025.91 783.014 1025.18C811.142 1024.42 840.715 1024.78 867.574 1015.28C867.752 1015.23 867.908 1015.16 868.086 1015.1C897.238 1009.73 922.694 996.05 942.944 972.395C955.428 957.886 964.93 941.285 972.006 923.55C976.39 912.557 983.734 897.247 983.044 883.985C992.346 882.605 1001.67 881.871 1010.95 881.982C1059.04 882.605 1100.74 905.926 1123.99 948.295C1133.18 965.029 1139.57 983.744 1143.49 1003.17C1143.71 1005.02 1144 1006.84 1144.13 1008.69C1146.2 1032.74 1146.13 1057.29 1141.24 1080.99C1136.48 1104.06 1127.53 1127.23 1111.26 1144.72C1104.32 1152.15 1096.13 1158.43 1087.1 1163.12C1080.49 1166.57 1073.06 1168.37 1067.2 1172.69C1051.32 1171.2 1035.29 1173.63 1019.47 1175.12C995.84 1177.41 972.185 1179.21 948.486 1180.59C899.886 1183.46 851.196 1184.46 802.53 1183.64C777.629 1183.24 752.706 1182.33 727.805 1180.95C716.3 1180.3 703.594 1180.95 692.267 1178.66C675.288 1175.25 677.091 1164.44 676.09 1149.02C669.525 1048.9 663.094 948.695 656.64 848.536C656.529 846.867 656.129 845.421 655.483 844.108C670.904 835.919 685.703 840.236 703.171 841.86C725.446 843.93 748.166 839.212 768.35 829.732C788.934 820.052 807.18 804.698 819.33 785.383C833.884 762.262 830.501 738.207 838.49 713.417C846.835 687.515 877.611 682.397 893.877 662.681C907.452 646.214 909.076 624.651 907.163 604.223C905.049 581.681 896.681 554.466 905.738 532.547C911.19 519.329 923.207 511.184 932.553 500.97C940.274 492.559 946.26 483.301 950.332 472.62C958.21 451.858 957.698 427.848 948.842 407.486C938.828 384.544 918.355 371.192 901.732 353.59C876.809 327.287 887.625 297.335 896.503 266.559C903.469 242.46 906.918 218.471 899.663 193.971C886.49 149.31 846.568 114.195 802.04 102.445C786.218 98.2839 769.64 98.1506 753.307 96.8154C782.503 176.169 777.495 267.472 722.865 335.432C710.626 350.653 696.34 364.427 685.391 380.672C673.954 397.628 671.795 413.494 673.619 433.566C677.291 473.933 689.664 513.231 683.9 554.109C674.02 624.183 625.977 672.316 586.701 727.414C568.32 753.183 552.876 781.511 549.271 813.443C544.086 859.195 547.869 906.304 548.203 952.234C548.492 992.89 547.09 1033.52 540.77 1073.73C535.674 1106.18 528.42 1138.87 530.201 1171.94C531.158 1189.74 535.185 1208.99 547.269 1222.81C556.481 1233.33 570.612 1239.78 583.318 1245.01C614.45 1257.83 647.739 1264.84 679.761 1274.94C740.266 1294.04 793.94 1330.31 820.176 1390.28C841.049 1438.01 839.647 1488.35 824.805 1536.39C872.203 1535.01 919.601 1533.05 966.955 1530.32C1004.7 1528.18 1045.2 1529.29 1082.18 1520.73C1110.84 1514.05 1130.67 1496.34 1132.65 1465.92C1135.36 1423.86 1131.51 1380.42 1130.8 1338.27C1130.18 1301.22 1134.21 1260.61 1125.28 1224.32C1139.15 1209.36 1147.78 1186.93 1154.68 1168.82C1163.78 1144.9 1169.74 1119.91 1172.57 1094.5C1178.25 1044.81 1170.99 991.577 1147.69 947.16Z" fill="#592639"/>
<path opacity="0.15" d="M567.698 29.341C553.701 29.9641 539.637 31.9444 525.996 35.2156C515.626 37.6856 504.878 42.5366 493.997 39.755C485.385 37.5297 476.862 31.0767 469.074 26.9377C423.678 2.94919 365.599 -14.2967 319.38 17.725C310.701 23.7555 303.513 31.2546 297.505 39.8664C289.005 51.9941 283.174 66.7256 266.952 69.0398C252.977 71.0426 237.133 66.4362 223.159 65.19C206.424 63.6991 189.668 63.3875 172.956 65.368C127.338 70.8421 79.0047 98.903 70.4819 147.681C65.5418 175.942 76.8688 202.957 78.4043 230.906C79.9619 259.323 62.8716 277.793 46.7161 298.911C34.3435 315.133 23.7513 333.091 25.8208 354.253C27.156 368.228 34.4328 380.089 38.8833 393.084C44.8248 410.397 42.6884 428.044 37.6148 445.267C23.9961 491.508 -9.82799 539.886 11.7349 589.554C21.3481 611.695 39.7957 621.175 61.4254 629.186C75.7339 634.527 87.8391 640.468 95.138 654.599C101.569 667.127 103.305 682.059 104.64 695.856C108.623 737.223 116.901 790.363 168.617 793.233C183.103 794.034 197.501 790.051 211.987 791.921C227.653 793.99 240.738 803.136 253.333 812.126C275.541 828.014 297.171 841.656 324.431 846.974C330.239 848.109 336.113 848.866 341.988 849.288C339.696 872.253 343.946 897.221 345.727 919.54C346.083 924.302 346.416 929.02 346.772 933.738C347.507 994.821 351.846 1056.22 354.583 1116.74C358.611 1205.22 363.618 1293.63 369.604 1382C371.05 1403.52 372.586 1425.01 374.144 1446.49C375.368 1463.24 375.345 1481.07 382.488 1496.6C394.171 1521.9 421.675 1531.34 447.488 1534.56C477.329 1538.32 507.994 1538.37 538.347 1538.37C524.839 1510.48 515.804 1480.31 511.554 1447.98C501.785 1373.7 508.083 1296.86 508.706 1222.16C509.44 1136.91 511.264 1050.59 498.558 966.026C492.995 929.131 485.385 888.854 466.226 856.231C446.198 822.162 403.962 808.299 380.485 776.989C371.272 764.728 366.511 749.106 371.162 733.93C376.191 717.53 392.902 708.273 397.308 691.45C401.18 676.696 401.959 655.133 390.989 643.072C382.622 633.859 369.137 629.854 358.01 625.158C327.346 612.185 301.444 592.269 288.27 560.626C270.023 516.81 294.412 474.084 317.644 437.59C330.951 416.695 345.259 395.844 356.541 373.769C364.619 357.992 365.042 345.908 358.722 329.419C351 309.236 340.586 290.944 328.525 273.075C321.36 262.461 313.215 251.512 310.011 238.895C301.799 206.584 335.312 180.793 358.5 164.994C398.978 137.4 447.222 133.15 494.798 133.773C544.221 134.418 591.263 136.666 636.414 113.323C658.177 102.085 678.873 89.1786 701.126 79.9214C684.814 67.7269 671.351 50.7704 651.724 42.6704C625.6 31.9446 595.87 28.0281 567.698 29.341Z" fill="#FFFCFC"/>
<path opacity="0.3" d="M263.212 794.504C256.514 792.524 249.105 800.846 253.577 807.033C275.14 836.963 319.334 845.841 356.718 840.501C357.008 841.947 357.631 843.305 358.543 844.484C356.986 848.69 358.432 853.652 364.04 855.388C392.501 864.267 437.296 859.371 462.776 843.638C464.645 842.481 466.336 840.99 467.804 839.255C489.189 870.676 526.797 893.44 560.51 904.656C573.261 908.906 579.691 910.375 580.092 925.106C580.492 939.17 580.559 953.256 580.959 967.342C581.894 999.92 582.806 1032.5 583.741 1065.08C584.587 1094.58 584.097 1124.6 587.235 1153.95C589.616 1176.25 595.046 1199.7 611.023 1216.51C628.047 1234.4 651.167 1240.32 675.512 1239.69C703.506 1244.12 736.373 1234.82 763.544 1230.24C797.435 1224.49 829.724 1217.02 862.368 1206.11C870.535 1203.38 869.712 1189.85 860.232 1190.36C842.007 1191.34 824.115 1193.03 806.269 1195.25C804.822 1193.94 802.953 1193.03 800.75 1192.94C789.424 1192.45 777.963 1193.5 766.503 1195.34C764.745 1194.12 762.72 1193.3 760.539 1193.14C732.79 1191.14 705.063 1189.42 677.18 1189.65C675.089 1189.67 673.13 1189.6 671.239 1189.54C677.069 1166.01 667.745 1135.88 664.897 1112.59C661.47 1084.61 657.888 1056.93 655.929 1028.78C653.971 1000.81 652.658 972.771 651.968 944.733C651.301 918.207 654.261 888.678 645.493 863.31C644.981 861.841 644.246 860.484 643.401 859.193C649.476 851.56 654.171 843.349 656.552 836.117C657.264 833.936 657.621 831.867 657.754 829.864C658.266 829.063 658.778 828.262 659.201 827.438C662.516 827.461 665.809 827.461 669.103 827.461C681.609 832.801 695.25 832.423 710.115 830.509C730.521 827.883 752.44 824.746 770.731 814.821C806.291 795.528 825.295 753.359 818.508 714.149C818.33 713.193 818.085 712.325 817.752 711.502C818.375 706.428 819.309 701.488 821.222 696.948C825.651 686.467 838.58 681.527 847.593 675.764C860.499 667.508 872.159 657.583 879.569 643.898C886.957 630.279 889.917 614.635 888.381 599.281C886.957 585.061 878.368 568.861 880.838 554.62C883.263 540.623 895.703 529.563 904.359 519.104C914.818 506.464 923.608 493.135 929.572 477.803C936.537 459.89 937.249 442.332 931.975 426.555C932.242 426.021 932.486 425.487 932.709 424.953C939.919 406.817 927.48 391.462 916.598 378.089C906.784 366.05 895.146 356.236 880.615 351.63C880.927 342.907 883.598 334.94 885.578 326.44C888.07 315.759 887.425 304.944 889.672 294.351C891.23 286.986 884.577 279.442 877.812 279.487C891.23 239.988 904.515 196.751 878.457 162.637C873.495 156.162 861.567 159.455 864.26 168.623C873.339 199.554 869.177 226.124 857.383 255.832C846.657 282.802 831.926 309.127 830.28 338.723C829.1 359.775 836.332 375.196 847.169 388.503C855.203 403.368 868.065 414.138 882.173 427C905.716 448.452 882.24 478.07 866.463 496.696C848.683 517.68 834.24 539.688 837.823 568.416C839.559 582.191 846.791 596.855 845.144 610.808C843.431 625.406 832.839 633.416 821.29 640.537C797.724 655.046 780.256 670.267 776.606 699.174C773.402 724.586 768.195 744.035 747.455 760.947C739.911 767.089 731.477 771.984 722.576 775.745C700.724 777.792 677.492 771.896 655.618 772.385C629.983 772.964 610.022 779.929 587.235 791.233C563.914 802.805 540.081 808.145 515.292 796.908C494.864 787.628 479.109 771.25 455.855 768.513C433.09 765.843 413.485 777.036 394.704 788.34C374.165 800.713 354.56 808.88 330.282 810.059C318.644 810.615 307.273 809.725 295.946 806.877C284.375 803.873 274.45 797.82 263.212 794.504Z" fill="#592642"/>
<path opacity="0.3" d="M1008.28 1505.68C1031.13 1525.06 1078.49 1513.63 1097.89 1494.56C1111.8 1480.87 1118.08 1460.69 1122.46 1442.17C1127.55 1420.65 1129.62 1400.36 1116.23 1382.05C1122.57 1317.07 1123.24 1249.35 1105.17 1186.24C1102.77 1177.85 1088.68 1176.67 1086.99 1186.24C1076.48 1245.12 1076.24 1304.94 1071.92 1364.55C1070.14 1388.99 1068.72 1415.98 1050.47 1434.41C1036.07 1448.94 1015.65 1455.9 996.308 1461C971.207 1467.63 945.349 1471.95 919.803 1476.4C888.872 1481.78 858.051 1488.21 826.897 1492.11C765.213 1499.83 704.241 1510.27 642.022 1513.18C631.229 1513.69 631.162 1529.63 642.022 1529.98C710.716 1532.25 779.611 1534.99 848.149 1528.42C900.866 1523.35 956.676 1520.41 1008.28 1505.68Z" fill="#592642"/>
<path opacity="0.3" d="M636.234 359.529C654.125 393.087 665.652 433.142 667.877 471.172C670.258 512.028 664.205 553.173 642.242 588.421C631.027 606.402 615.094 621.889 595.244 630.012C587.166 633.327 578.332 635.441 569.631 636.065C556.636 636.977 544.352 632.126 531.846 637.044C512.308 644.743 506.122 665.594 519.963 682.016C538.945 704.536 583.117 698.306 608.151 689.916C634.765 680.993 658.932 665.238 677.335 643.964C714.297 601.261 730.741 542.425 729.161 486.526C727.693 434.788 710.069 384.809 679.16 343.352C650.565 305.032 611.756 265.578 563.801 254.074C555.679 252.115 548.447 262.618 555.256 268.76C585.898 296.532 616.362 322.278 636.234 359.529Z" fill="#592642"/>
<path opacity="0.3" d="M741.444 271.723C736.171 280.023 729.517 285.386 727.693 295.355C725.579 306.815 734.48 316.74 746.362 314.025C754.173 312.223 760.782 307.016 766.234 300.184C769.35 299.249 772.109 297.136 774.312 294.154C780.61 285.631 785.038 274.571 789.11 264.802C792.448 256.769 792.092 247.289 785.528 241.036C785.439 240.947 785.327 240.881 785.216 240.792C785.906 222.856 783.435 203.362 772.131 190.189C766.39 183.491 756.554 189.388 756.042 196.842C754.729 215.312 759.069 231.356 752.237 249.648C749.322 257.281 745.784 264.847 741.444 271.723Z" fill="#592642"/>
<path opacity="0.3" d="M263.503 262.061C271.336 256.543 277.522 250.267 282.44 243.458C289.205 245.661 297.194 244.192 302.201 236.626C305.583 231.486 308.453 226.145 310.59 220.716C313.171 214.507 314.818 208.032 314.551 201.267C314.528 192.789 311.969 184.377 305.917 176.433C301.399 168.8 295.97 161.501 291.697 154.558C283.018 140.495 261.01 149.596 265.038 165.796C271.848 193.167 273.561 225.967 252.711 248.086C246.057 255.096 254.869 268.114 263.503 262.061Z" fill="#592642"/>
<path opacity="0.3" d="M482.337 569.083C504.812 567.102 526.686 550.969 539.815 533.167C544.11 527.359 547.426 520.26 549.006 513.006C551.543 504.349 551.987 495.137 549.517 486.414C544.288 467.877 528.332 453.012 516.783 438.192C510.641 430.314 500.072 440.35 503.788 448.228C509.462 460.244 517.518 473.418 520.967 486.369C525.062 501.724 516.694 512.828 511.532 526.825C511.087 528.049 510.887 529.228 510.82 530.363C501.407 539.019 488.923 546.029 478.242 553.884C472.478 558.134 473.413 569.884 482.337 569.083Z" fill="#592642"/>
<path opacity="0.5" d="M491.57 1509.51C479.509 1505.93 467.492 1505.7 458.079 1496.18C450.58 1488.57 446.53 1476.89 443.548 1466.85C437.273 1445.75 437.896 1422.75 435.515 1401.03C429.396 1345.24 424.478 1289.3 418.002 1233.55C411.638 1178.81 405.318 1124.09 398.041 1069.46C390.854 1015.32 384.801 960.133 373.831 906.637C371.939 897.38 358.565 900.139 358.075 908.773C354.559 970.168 357.564 1033.03 360.301 1094.45C363.127 1157.56 367.377 1220.6 373.541 1283.49C377.413 1322.79 379.527 1363.33 384.556 1403.1C384.133 1403.72 383.755 1404.41 383.466 1405.12C376.345 1423.26 378.414 1452.27 381.953 1471.26C385.246 1488.9 395.727 1508.4 416.133 1507.08C416.4 1507.06 416.645 1507.02 416.89 1506.99C420.806 1511.22 425.323 1515.07 430.508 1518.43C448.066 1529.83 474.413 1536.57 493.817 1526.75C501.317 1522.95 498.958 1511.71 491.57 1509.51Z" fill="#FFF7F7"/>
<path opacity="0.5" d="M1003.5 1221.69C1038.9 1218.89 1080.18 1215.37 1108.91 1192.9C1116.3 1187.11 1109.69 1175.72 1101.7 1175.49C1067.76 1174.54 1034.05 1188.27 1000.16 1191.45C965.778 1194.68 930.574 1190 896.55 1194.28C889.451 1195.17 883.999 1205.8 892.366 1209.7C925.367 1225.07 967.892 1224.52 1003.5 1221.69Z" fill="#FFF7F7"/>
<path opacity="0.5" d="M428.816 525.959C430.017 508.335 430.195 490.711 431.397 473.087C432.576 455.908 438.051 438.261 435.892 421.082C434.957 413.739 424.988 406.484 418.936 414.05C395.592 443.224 396.26 495.05 406.563 528.986C410.346 541.536 427.948 538.599 428.816 525.959Z" fill="#FFF7F7"/>
<path opacity="0.5" d="M383.198 642.208C373.629 681.952 410.013 732.71 453.339 720.916C461.617 718.668 462.284 705.339 453.339 703.47C439.631 700.599 425.411 696.104 416.199 684.956C406.408 673.095 405.161 659.632 403.715 644.99C402.624 634.019 386.135 629.947 383.198 642.208Z" fill="#FFF7F7"/>
<path opacity="0.5" d="M492.212 233.069C440.185 228.819 389.071 244.04 345.722 271.945C291.247 300.005 250.436 355.437 229.652 411.336C205.574 476.114 188.973 588.891 252.461 637.869C271.442 666.953 300.238 687.76 341.717 692.7C351.219 693.835 354.98 678.658 346.612 674.653C251.66 629.324 244.338 508.358 272.777 419.725C287.064 375.175 317.439 336.7 355.469 309.797C397.549 280.045 446.037 266.203 494.749 251.85C505.475 248.668 502.716 233.915 492.212 233.069Z" fill="#FFF7F7"/>
<path opacity="0.5" d="M248.322 162.215C256.111 155.562 247.588 144.458 239.021 146.238C238.887 146.26 238.754 146.327 238.62 146.349C236.706 143.523 233.413 141.943 229.252 143.59C183.3 161.859 151.835 240.078 194.738 276.572C197.252 278.708 200.724 279.465 204.084 279.109C206.977 280.934 210.226 282.336 213.831 283.204C221.152 284.961 228.896 277.596 226.426 270.453C226.96 270.43 227.472 270.453 228.028 270.386C237.931 269.184 241.068 258.147 232.968 252.116C211.449 236.05 215.166 205.03 226.559 182.02C232.923 175.1 240.378 169.002 248.322 162.215Z" fill="#FFF7F7"/>
<path opacity="0.5" d="M749.927 172.051C724.648 156.896 691.469 166.866 670.062 184.757C652.616 199.332 639.242 238.23 665.189 251.715C672.91 255.721 681.5 249.134 679.609 240.634C671.709 205.496 725.916 203.538 746.834 195.572C756.892 191.766 760.03 178.126 749.927 172.051Z" fill="#FFF7F7"/>
<path opacity="0.5" d="M213.477 77.0977C178.229 74.1381 142.024 73.2481 114.875 99.7956C84.745 129.258 80.0048 170.915 87.0145 210.636C89.9073 227.037 101.835 250.625 95.5372 267.047C89.5289 282.691 70.5475 292.682 61.1346 306.435C59.0429 309.483 57.3518 312.51 55.9721 315.491C54.6814 316.204 53.5465 317.227 52.7009 318.607C38.6816 341.661 47.4714 369.521 52.7898 393.866C56.2835 409.91 57.3069 424.13 52.9454 440.196C49.919 451.322 46.47 461.447 46.1584 472.64C37.6356 484.768 29.0015 496.629 23.9057 508.49C8.50676 544.339 20.8123 577.451 50.8313 600.572C66.475 612.633 84.7447 620.466 100.633 632.126C124.221 649.417 123.998 670.378 120.282 697.282C120.215 697.772 120.171 698.261 120.104 698.751C119.125 700.353 118.613 702.333 119.014 704.603C119.103 705.182 119.214 705.783 119.303 706.361C116.766 736.87 122.975 769.626 155.13 781.709C157.111 782.466 158.98 782.488 160.693 782.043C173.021 785.87 187.018 784.869 200.748 783.934C208.937 783.378 214.345 770.961 205.377 766.844C188.799 759.234 167.369 768.802 154.374 754.205C138.597 733.888 155.019 692.631 156.265 670.935C158.268 636.02 138.997 611.854 110.736 593.695C84.5891 576.895 42.1754 560.984 59.043 522.375C72.3724 491.889 99.0088 468.724 106.886 435.456C110.603 419.813 109.557 403.924 104.594 388.681C99.81 374.083 89.284 358.996 88.1268 343.419C86.9697 327.597 100.633 318.429 110.647 308.348C121.061 297.867 130.141 286.007 133.189 271.231C140.866 233.846 115.164 198.108 122.663 159.722C130.541 119.445 158.936 107.139 196.966 109.765C201.349 110.076 205.755 110.41 210.117 110.744C217.438 112.524 224.759 114.616 232.169 116.952C253.71 123.739 277.676 132.485 300.441 126.21C324.34 119.6 330.171 99.5953 344.101 82.2381C356.318 67.0172 377.369 59.1173 396.595 61.0088C418.269 63.145 432.511 79.2562 450.38 89.7595C470.252 101.442 492.037 103.556 513.667 95.3893C537.499 86.3991 559.218 75.9183 585.187 74.5609C597.626 73.9156 610.222 74.7835 622.639 74.7612C635.968 74.739 648.563 78.4104 661.804 78.9445C670.26 79.2783 676.067 67.0617 669.102 61.3205C631.161 30.1221 572.08 32.5031 527.908 46.9229C515.981 50.8171 504.165 57.3372 491.637 59.2064C490.502 59.3622 489.411 59.4511 488.343 59.4733C488.41 55.9796 486.697 52.5752 482.424 50.4389C469.851 44.1859 456.032 39.8021 442.28 35.663C434.669 31.0567 426.903 27.1403 418.447 24.4477C417.446 22.6452 415.732 21.0652 413.106 19.9303C375.788 3.66356 340.34 11.8304 310.41 38.6005C298.282 49.4598 287.757 63.3898 273.27 71.3117C254.911 81.3255 233.46 78.7889 213.477 77.0977Z" fill="#FFF7F7"/>
<path d="M1172.64 1094.54C1178.27 1044.83 1171.02 991.576 1147.72 947.159C1147.54 946.803 1147.32 946.536 1147.07 946.291C1146.02 944.11 1145.07 941.907 1143.98 939.749C1120.23 893.307 1077.09 864.802 1025.35 859.772C1011.2 858.393 996.976 858.838 982.89 860.685C982.245 859.372 981.176 858.259 979.685 857.525C935.914 835.828 870.625 840.858 829.146 865.402C805.558 879.31 788.823 900.651 775.405 924.15C763.366 945.156 745.319 967.253 739.333 992.087C730.944 1026.56 755.111 1025.91 783.038 1025.18C811.166 1024.42 840.739 1024.78 867.598 1015.27C867.776 1015.23 867.932 1015.16 868.11 1015.1C897.262 1009.73 922.718 996.048 942.968 972.394C955.452 957.885 964.954 941.284 972.03 923.549C976.414 912.556 983.758 897.246 983.068 883.983C992.37 882.604 1001.69 881.869 1010.97 881.981C1059.06 882.604 1100.76 905.924 1124.02 948.294C1133.21 965.028 1139.59 983.742 1143.51 1003.17C1143.73 1005.02 1144.02 1006.84 1144.16 1008.69C1146.23 1032.74 1146.16 1057.29 1141.26 1080.99C1136.5 1104.06 1127.55 1127.23 1111.29 1144.72C1104.35 1152.15 1096.16 1158.43 1087.12 1163.12C1080.51 1166.57 1073.08 1168.37 1067.23 1172.69C1051.34 1171.2 1035.32 1173.63 1019.5 1175.12C995.863 1177.41 972.208 1179.21 948.509 1180.59C899.909 1183.46 851.22 1184.46 802.553 1183.64C777.653 1183.24 752.729 1182.33 727.829 1180.95C716.324 1180.3 703.618 1180.95 692.291 1178.65C675.312 1175.25 677.115 1164.43 676.113 1149.01C669.549 1048.9 663.118 948.694 656.664 848.535C656.553 846.866 656.152 845.419 655.507 844.107C670.928 835.918 685.727 840.235 703.195 841.859C725.47 843.929 748.19 839.211 768.373 829.731C788.957 820.051 807.204 804.697 819.354 785.381C833.908 762.261 830.525 738.206 838.514 713.416C846.859 687.514 877.635 682.396 893.901 662.68C907.476 646.213 909.1 624.65 907.186 604.222C905.072 581.68 896.705 554.464 905.762 532.545C911.214 519.327 923.231 511.183 932.577 500.969C940.298 492.557 946.284 483.3 950.356 472.619C958.234 451.857 957.722 427.846 948.866 407.485C938.852 384.542 918.379 371.191 901.756 353.589C876.833 327.286 887.648 297.334 896.527 266.558C903.492 242.458 906.941 218.47 899.687 193.97C886.513 149.308 846.592 114.193 802.064 102.444C775.383 95.4343 746.543 99.8626 720.441 90.6945C693.737 81.2593 678.45 53.7106 651.702 42.6733C625.577 31.9252 595.848 28.0086 567.698 29.3215C553.701 29.9446 539.637 31.9252 525.996 35.1964C515.626 37.6664 504.878 42.5174 493.997 39.7358C485.385 37.5105 476.862 31.0572 469.074 26.9181C423.678 2.92966 365.599 -14.3163 319.38 17.7055C310.701 23.736 303.513 31.2354 297.505 39.8472C289.005 51.975 283.174 66.706 266.952 69.0203C252.977 71.0231 237.133 66.4167 223.159 65.1705C206.425 63.6796 189.668 63.3683 172.956 65.3488C127.338 70.823 79.0047 98.8835 70.4819 147.662C65.5418 175.923 76.8688 202.938 78.4043 230.887C79.962 259.304 62.8716 277.774 46.7161 298.891C34.3435 315.114 23.7513 333.072 25.8208 354.234C27.156 368.209 34.4328 380.069 38.8833 393.065C44.8248 410.378 42.6884 428.024 37.6148 445.248C23.9961 491.489 -9.82799 539.867 11.7349 589.535C21.3481 611.676 39.7957 621.156 61.4254 629.167C75.7339 634.508 87.8391 640.449 95.138 654.58C101.569 667.108 103.305 682.039 104.64 695.836C108.623 737.204 116.901 790.344 168.617 793.214C183.103 794.016 197.501 790.032 211.987 791.901C227.653 793.971 240.738 803.117 253.333 812.107C275.541 827.995 297.171 841.636 324.431 846.955C330.239 848.09 336.114 848.846 341.988 849.269C339.696 872.234 343.946 897.201 345.727 919.521C346.083 924.283 346.416 929.001 346.773 933.718C347.507 994.802 351.846 1056.2 354.584 1116.72C358.611 1205.2 363.618 1293.61 369.604 1381.98C371.05 1403.5 372.586 1424.99 374.144 1446.47C375.368 1463.22 375.345 1481.05 382.488 1496.58C394.171 1521.88 421.675 1531.32 447.489 1534.54C487.299 1539.55 528.6 1537.95 568.655 1538.5C612.938 1539.13 657.243 1539.19 701.504 1538.75C790.092 1537.88 878.591 1535.37 967.046 1530.29C1004.79 1528.16 1045.29 1529.27 1082.27 1520.7C1110.93 1514.03 1130.76 1496.31 1132.74 1465.89C1135.46 1423.84 1131.61 1380.4 1130.89 1338.25C1130.27 1301.2 1134.3 1260.59 1125.37 1224.29C1139.24 1209.34 1147.87 1186.91 1154.77 1168.8C1163.85 1144.94 1169.81 1119.93 1172.64 1094.54ZM352.759 828.485C325.499 828.151 300.397 819.116 278.145 803.695C258.362 789.988 239.714 773.899 215.036 770.561C188.644 766.934 157.001 781.888 139.732 754.161C116.545 716.932 134.948 666.596 105.441 631.459C89.5751 612.522 65.3419 612.121 46.1823 598.903C25.1979 584.417 24.5081 556.267 28.9141 533.502C38.4606 484.39 77.2915 439.462 59.6896 387.324C55.3948 374.551 46.8049 362.134 46.983 348.27C47.0942 336.743 53.2587 326.463 59.712 317.272C71.4615 300.538 86.1926 285.918 94.1146 266.714C113.942 218.915 70.3484 164.997 105.686 121.515C123.755 99.262 151.638 88.6029 179.565 86.0216C208.672 83.3735 236.977 92.0742 265.683 90.6055C286.178 89.5597 298.529 77.1873 309.188 60.8538C324.943 36.7096 345.304 23.0016 374.722 21.4439C404.252 19.8862 432.668 31.8583 458.259 45.388C468.851 50.9734 479.31 58.339 491.171 60.9648C504.011 63.7687 516.072 59.741 528.466 56.6033C559.42 48.7703 592.265 48.3253 623.374 55.9802C635.902 59.0289 648.342 63.3015 659.112 70.5782C670.662 78.2999 679.295 89.5151 690.132 98.0824C708.758 112.702 731.478 116.129 754.398 117.887C780.301 119.912 804.334 122.56 827.165 136.112C848.795 148.997 867.532 168.802 876.633 192.546C886.291 217.758 881.462 241.68 874.052 266.714C867.198 289.79 859.543 314.58 867.376 338.435C874.385 359.708 891.52 373.416 907.297 388.192C926.39 406.038 938.496 427.824 933.2 454.794C927.926 481.542 905.473 492.424 891.565 513.586C866.196 552.195 896.638 595.855 884.088 636.11C876.9 659.253 850.263 665.461 834.019 680.682C816.417 697.082 815.883 719.157 812.523 741.477C805.268 789.899 757.825 822.031 710.449 820.808C683.167 820.118 662.361 812.107 638.328 829.664C617.099 845.13 589.528 853.942 562.557 848.98C529.089 842.838 515.538 817.27 488.456 801.515C469.986 790.767 450.47 794.661 432.201 803.94C405.898 817.314 383.312 828.885 352.759 828.485ZM1110.35 1462.8C1108.13 1505.59 1055.92 1502.21 1024.35 1504.39C943.124 1509.95 861.813 1513.83 780.435 1516.03C696.675 1518.34 612.871 1518.5 529.134 1516.79C496.4 1516.14 457.969 1520.17 426.66 1508.62C387.873 1494.29 394.905 1444.58 392.547 1410.64C386.027 1317.51 380.619 1224.32 376.258 1131.06C371.985 1038.13 373.454 943.688 363.596 851.183C363.529 850.626 363.418 850.137 363.307 849.625C375.946 848.98 388.519 846.71 400.58 842.794C418.404 837.03 433.091 823.589 451.271 818.849C476.194 812.352 498.714 842.215 518.653 853.475C521.056 854.966 523.593 856.345 526.263 857.547C555.704 872.568 588.059 879.711 620.793 866.359C625.956 864.245 630.473 861.486 634.879 858.482C640.064 938.614 645.249 1018.77 650.367 1098.9C651.613 1117.99 652.792 1137.09 653.994 1156.18C654.818 1169.24 653.527 1185.17 664.742 1194.28C675.557 1203.07 693.492 1201.46 706.51 1202.38C727.806 1203.8 749.147 1204.89 770.532 1205.58C853.557 1208.34 936.783 1205.76 1019.47 1197.77C1053.81 1194.48 1093.11 1188.11 1103.52 1230.21C1111.93 1264.33 1107.73 1303.4 1108.35 1338.3C1109.09 1379.49 1112.49 1421.65 1110.35 1462.8Z" fill="#3D2938"/>
<path d="M502.053 699.039C504.656 695.634 507.416 691.495 509.864 687C546.803 716.173 610.201 703.556 647.808 682.817C695.162 656.714 726.004 607.224 736.463 554.997C759.139 441.263 688.842 318.539 592.176 260.615C543.287 231.375 480.69 216.955 424.924 232.599C397.153 239.497 370.094 252.159 347.507 265.399C303.157 291.457 265.817 328.753 240.115 373.37C191.96 457.062 175.204 585.416 246.68 661.877C280.036 697.592 335.602 716.975 381.865 696.168C382.11 696.569 382.422 696.992 382.667 697.392C395.774 717.019 418.85 728.346 442.215 728.702C465.669 729.08 487.789 717.331 502.053 699.039ZM332.731 595.586C330.728 592.671 326.879 594.829 327.435 597.989C331.797 622.333 351.468 639.824 374.366 645.81C369.604 655.468 370.183 667.084 373.498 677.966C316.887 693.031 263.102 663.924 237.667 611.919C212.166 559.737 215.17 495.426 232.038 441.174C249.128 386.388 282.618 337.499 327.992 302.228C350.845 284.47 376.948 270.184 404.029 260.014C407.834 258.59 411.64 257.366 415.49 256.165C482.226 239.898 547.048 251.981 602.858 293.66C655.04 332.669 695.696 391.862 711.941 454.971C727.651 515.765 718.26 584.949 675.58 633.148C654.974 656.38 627.558 672.603 597.228 679.212C568.166 685.554 543.421 678.455 515.315 674.316C517.34 667.685 517.919 660.964 516.049 655.156C547.226 656.069 584.143 637.421 584.633 603.797C584.677 600.793 580.828 599.703 578.825 601.616C558.82 621.132 535.81 642.584 505.012 633.705C478.442 626.005 467.628 601.082 461.531 576.515C463.355 576.359 465.158 576.159 467.049 575.826C485.964 572.31 516.005 548.21 522.325 524.622C526.13 517.968 528.6 510.424 529.535 504.194C533.83 475.599 518.765 447.405 503.922 424.217C501.385 420.256 496.267 423.305 496.957 427.422C500.45 447.716 508.995 467.121 511.643 487.371C511.888 489.44 512.089 491.51 512.156 493.535C489.146 471.838 445.197 470.859 418.315 481.095C412.441 483.343 407.901 486.258 404.452 489.663C405.098 465.897 413.754 442.554 422.566 418.165C423.946 414.426 418.471 413.091 416.535 415.85C395.952 445.357 373.743 496.005 398.822 527.448C406.922 549.945 429.553 572.109 450.471 575.959C450.293 576.604 450.07 577.227 449.915 577.895C449.336 578.34 448.78 578.807 448.468 579.497C437.409 601.015 426.327 623.869 400.024 629.143C372.542 634.595 347.529 617.171 332.731 595.586ZM396.53 683.039C390.099 671.98 389.854 659.896 387.606 647.902C392.725 648.236 397.909 648.058 403.027 647.146C423.211 643.585 443.639 629.766 453.43 611.319C461.708 630.011 479.31 645.877 497.913 652.041C496.667 656.135 497.29 659.051 496.178 665.615C494.731 673.96 490.014 682.238 484.673 688.691C474.192 701.242 458.66 708.986 442.215 708.874C423.678 708.763 405.921 699.15 396.53 683.039Z" fill="#3D2938"/>
<path d="M447.91 678.945C450.202 677.41 452.271 674.762 452.004 671.825C451.537 666.996 451.359 662.144 450.981 657.316C450.691 653.243 450.935 647.947 448.399 644.587C447.264 643.096 445.417 641.895 443.436 642.585C431.754 646.434 432.332 664.859 435.782 674.005C437.117 677.588 439.854 679.88 443.726 680.058C445.261 680.125 446.641 679.813 447.91 678.945Z" fill="#3D2938"/>
<path d="M620.723 402.234C616.184 393.489 608.173 387.036 598.96 383.609C588.724 379.826 577.041 379.826 567.205 384.744C548.58 394.001 539.923 419.191 548.869 437.972C571.433 485.192 644.689 448.564 620.723 402.234Z" fill="#3D2938"/>
<path d="M390.1 394.534C388.141 387.458 384.448 380.96 379.107 375.887C340.231 339.259 286.713 394.601 320.181 434.278C334.735 451.479 364.354 452.414 380.287 436.481C390.968 425.777 394.172 409.043 390.1 394.534Z" fill="#3D2938"/>
<path d="M222.846 294.285C227.319 294.752 231.591 292.26 236.376 289.389C252.642 279.709 267.841 267.248 283.307 256.299C301.443 243.459 330.638 229.04 334.043 204.228C337.448 179.839 316.441 158.031 296.325 147.684C276.72 137.67 253.911 134.91 232.414 139.561C185.305 149.753 159.359 197.619 168.216 243.504C171.843 262.263 183.391 287.387 202.373 294.886C209.093 297.556 216.014 296.933 222.846 294.285ZM188.176 224.033C188.688 190.832 211.141 163.283 244.676 159.366C269.576 156.473 334.532 180.062 305.604 213.263C292.831 227.927 220.287 282.224 203.019 267.982C191.826 258.725 187.998 237.473 188.176 224.033Z" fill="#3D2938"/>
<path d="M681.053 273.567C694.961 286.385 708.446 300.716 723.356 312.354C727.739 315.803 731.7 318.852 736.129 318.963C742.582 322.412 749.413 323.903 756.423 322.123C776.206 317.116 790.826 293.639 796.812 275.526C811.432 231.109 791.76 180.328 746.342 164.262C725.625 156.941 702.616 156.718 681.921 164.195C660.647 171.895 637.059 190.876 637.326 215.466C637.571 240.5 664.675 258.502 681.053 273.567ZM731.634 182.331C764.412 190.498 783.193 220.65 779.455 253.651C777.919 267.003 771.444 287.609 759.16 295.353C740.223 307.28 675.156 244.216 664.341 228.061C639.885 191.455 707.312 176.323 731.634 182.331Z" fill="#3D2938"/>
<path d="M509.109 589.334C504.102 589.334 499.317 593.718 499.562 598.88C499.784 604.043 503.746 608.427 509.109 608.427C514.071 608.427 518.877 604.043 518.655 598.88C518.388 593.696 514.427 589.334 509.109 589.334Z" fill="#3D2938"/>
<path d="M521.544 566.659C518.496 571.377 520.521 577.83 525.06 580.634C529.533 583.438 535.319 582.147 538.479 578.097C542.172 573.268 540.904 566.125 535.586 563.01C530.645 560.095 524.571 562.009 521.544 566.659Z" fill="#3D2938"/>
<path d="M547.157 585.931C541.504 585.931 536.097 590.938 536.342 596.79C536.587 602.665 541.104 607.605 547.157 607.605C552.853 607.605 558.261 602.643 558.016 596.79C557.771 590.893 553.276 585.931 547.157 585.931Z" fill="#3D2938"/>
<path d="M401.757 595.543C408.077 595.543 414.13 589.98 413.84 583.46C413.551 576.917 408.544 571.421 401.757 571.421C395.482 571.421 389.406 576.962 389.695 583.46C389.985 589.98 395.014 595.543 401.757 595.543Z" fill="#3D2938"/>
<path d="M366.042 585.64C359.767 585.64 353.736 591.158 354.026 597.656C354.359 604.154 359.322 609.628 366.042 609.628C372.318 609.628 378.303 604.109 378.014 597.656C377.725 591.136 372.763 585.64 366.042 585.64Z" fill="#3D2938"/>
<path d="M378.013 555.465C377.768 554.086 377.39 552.773 376.634 551.482C374.742 548.144 370.826 545.741 366.954 545.852C363.26 546.008 359.922 547.521 357.63 550.503C356.205 552.306 355.738 553.263 354.87 555.688C352.178 563.121 359.142 570.887 366.486 570.887C374.185 570.887 380.216 563.187 378.058 555.688C378.013 555.621 378.013 555.554 378.013 555.465Z" fill="#3D2938"/>
</g>
<defs>
<filter id="filter0_d_403_14267" x="0.726562" y="0.198242" width="1177.73" height="1546.84" filterUnits="userSpaceOnUse" color-interpolation-filters="sRGB">
<feFlood flood-opacity="0" result="BackgroundImageFix"/>
<feColorMatrix in="SourceAlpha" type="matrix" values="0 0 0 0 0 0 0 0 0 0 0 0 0 0 0 0 0 0 127 0" result="hardAlpha"/>
<feOffset dy="4"/>
<feGaussianBlur stdDeviation="2"/>
<feComposite in2="hardAlpha" operator="out"/>
<feColorMatrix type="matrix" values="0 0 0 0 0 0 0 0 0 0 0 0 0 0 0 0 0 0 0.25 0"/>
<feBlend mode="normal" in2="BackgroundImageFix" result="effect1_dropShadow_403_14267"/>
<feBlend mode="normal" in="SourceGraphic" in2="effect1_dropShadow_403_14267" result="shape"/>
</filter>
</defs>
</svg>
