<svg width="1462" height="1443" viewBox="0 0 1462 1443" fill="none" xmlns="http://www.w3.org/2000/svg">
<g filter="url(#filter0_d_403_14304)">
<path d="M77.7367 1403.37L81.3644 1403.91C97.7202 1406.36 114.565 1408.34 132.835 1409.98C166.103 1412.94 196.122 1414.43 223.671 1414.43C257.428 1414.43 287.469 1412.21 315.24 1407.74C333.577 1404.8 341.743 1394.61 343.435 1372.6C344.236 1361.81 344.481 1350.79 344.726 1340.13C344.837 1334.77 344.948 1329.41 345.148 1324.04L350.756 1160.11C352.269 1116.2 353.782 1072.28 355.251 1028.37C357.365 965.907 359.413 903.422 361.438 840.936C363.618 773.732 365.799 706.552 368.113 639.348C368.135 638.391 367.513 637.546 366.623 637.346C361.705 636.255 356.497 635.498 351.023 634.675C347.307 634.119 343.413 633.563 339.34 632.828L331.618 631.515C288.025 624.083 242.941 616.384 200.794 600.273C142.247 577.953 95.6727 544.93 62.3381 502.115C61.8263 501.47 61.003 501.225 60.2464 501.492C59.4898 501.782 59.0003 502.516 59.0003 503.339C58.8223 546.265 56.5968 590.036 54.4605 632.361C53.5036 651.031 52.5691 669.679 51.7903 688.282C48.7416 762.851 45.6037 837.465 42.4438 912.034L25.5987 1308.49C25.4652 1311.8 25.2427 1315.32 25.0201 1318.97C23.6182 1341.58 21.9047 1369.73 36.8141 1386.91C47.3174 1398.97 63.4726 1401.3 77.7367 1403.37Z" fill="#B7ADCC"/>
<path d="M1221.3 1280C1192.53 1032.49 1162.91 780.898 1134.3 537.586L1133.1 527.461C1133.01 526.66 1132.43 525.992 1131.67 525.792C1130.91 525.592 1130.11 525.926 1129.67 526.593C1113.56 551.271 1094.66 573.747 1073.5 593.418C1040.7 623.927 989.008 662.023 928.882 670.168C902.156 673.773 876.476 669.478 850.329 657.083C840.983 652.61 833.862 649.428 827.364 647.248C826.741 647.047 826.029 647.181 825.539 647.648C825.05 648.115 824.805 648.805 824.938 649.495C833.684 696.871 839.448 745.916 845.033 793.359C847.392 813.475 849.839 834.282 852.488 854.599C861.834 927.032 871.135 999.486 880.326 1071.92L909.922 1305.51C912.548 1326.36 915.196 1347.21 917.866 1368.06L918.311 1371.62C920.381 1388.55 922.517 1406.07 942.144 1410.54C946.839 1411.61 951.712 1411.96 956.63 1411.96C961.548 1411.96 966.51 1411.61 971.406 1411.25C974.188 1411.05 976.925 1410.85 979.595 1410.74C1001.14 1409.74 1023.08 1408.92 1044.28 1408.14C1083.05 1406.69 1123.13 1405.2 1162.42 1402.51C1179.25 1401.35 1210.56 1399.21 1223.42 1377.34C1231.27 1363.96 1229.18 1346.92 1227.34 1331.9C1227.11 1330.16 1226.91 1328.47 1226.73 1326.8L1221.3 1280Z" fill="#B7ADCC"/>
<path d="M39.3714 406.162C50.7648 454.584 79.3156 497.977 121.93 531.667C158.869 560.863 205.533 582.114 264.592 596.601C284.575 601.496 305.292 604.078 325.342 606.592C344.835 609.04 365.019 611.555 384.156 616.183C412.862 623.126 428.772 653.056 442.792 679.448C445.239 684.054 447.643 688.572 450.024 692.822C450.291 693.289 450.447 693.823 450.514 694.491C450.536 694.847 450.669 695.181 450.87 695.47C463.131 712.76 473.745 726.335 484.249 738.151C485.339 739.375 486.43 740.576 487.542 741.778C488.366 742.668 489.189 743.558 490.012 744.47C490.658 745.205 491.726 745.294 492.505 744.693C497.289 740.999 501.784 738.84 506.257 738.084C508.304 737.728 510.774 738.685 512.021 740.287C512.888 741.422 513.066 742.713 512.554 744.092C510.885 748.432 508.438 752.459 504.61 757.11C503.965 757.911 504.01 759.091 504.744 759.825C506.035 761.093 507.347 762.339 508.66 763.608L510.707 765.588C511.085 765.945 511.553 766.145 512.065 766.1C512.554 766.078 513.044 765.855 513.377 765.455C516.493 761.894 519.943 759.202 523.637 757.422C523.926 757.266 524.214 757.244 524.415 757.377C524.637 757.511 524.704 757.8 524.726 758.022C525.105 763.051 524.348 768.437 522.323 775.001C522.101 775.758 522.323 776.559 522.879 777.093L525.505 779.496C527.553 781.366 529.6 783.235 531.692 785.06L532.426 785.705C532.76 786.016 533.205 786.194 533.65 786.194C533.694 786.194 533.762 786.194 533.806 786.194C534.318 786.15 534.785 785.905 535.096 785.482C550.473 766.122 578.668 754.707 607.084 756.42C624.13 757.444 655.974 764.342 667.211 783.836C667.523 784.347 668.034 784.704 668.613 784.77C669.191 784.837 669.77 784.637 670.171 784.192C674.488 779.585 679.094 774.445 684.279 768.526C684.947 767.769 684.924 766.612 684.257 765.855C680.14 761.227 677.559 756.887 676.313 752.615C676.246 752.348 676.29 751.881 676.535 751.48C676.668 751.258 676.847 751.102 677.003 751.057C682.276 750.167 687.884 751.369 694.07 754.751C694.849 755.174 695.806 754.974 696.385 754.284C698.388 751.836 700.39 749.344 702.37 746.874C702.704 746.473 702.838 745.939 702.793 745.405C702.727 744.871 702.482 744.404 702.081 744.07C698.699 741.288 696.629 738.262 695.761 734.768C695.606 734.167 695.873 733.478 696.362 733.166C700.368 730.696 705.664 730.318 712.562 732.053C713.274 732.231 714.031 731.964 714.498 731.341C728.073 713.072 738.554 696.137 747.477 678.09C748.834 675.353 750.169 672.483 751.549 669.568C760.138 651.32 769.886 630.647 787.977 623.304C809.874 614.403 837.578 627.465 852.487 634.475C887.358 650.831 918.467 653.234 953.381 642.263C979.773 633.985 1007.06 619.165 1034.49 598.225C1072.79 569.03 1105.19 530.644 1128.24 487.229C1128.38 486.984 1128.47 486.694 1128.47 486.405C1128.62 483.868 1129.62 481.91 1131.47 480.553C1131.71 480.375 1131.92 480.13 1132.05 479.863C1155.7 432.598 1167.99 380.571 1167.54 329.434C1166.5 215.322 1105.79 109.577 1012.93 60.0647C916.865 8.86108 799.793 27.086 728.25 104.414C692.913 142.578 673.264 191.645 671.417 246.298C669.681 297.88 684.501 350.597 713.096 394.746C713.675 395.658 713.586 396.46 712.829 397.149C712.006 397.906 710.582 398.217 709.58 397.283C682.365 372.115 663.562 338.669 655.217 300.55C655.039 299.749 654.394 299.126 653.593 299.037C649.988 298.592 646.405 297.368 642.622 296.055C639.818 295.076 636.925 294.074 633.743 293.296C618.389 289.49 604.547 288.222 591.462 289.424C578.333 290.603 565.427 294.386 554.144 300.328C552.164 301.374 550.295 302.508 548.471 303.621C546.668 304.711 544.91 305.802 543.108 306.736C542.574 307.003 542.217 307.537 542.084 308.138C531.514 368.02 502.341 417.088 459.949 446.328C457.902 447.73 456.477 446.662 455.832 445.883C454.563 444.414 454.141 441.788 455.61 439.986C531.848 346.68 545.911 228.585 491.459 139.129C439.921 54.4791 338.827 9.3061 245.633 29.2223C150.769 49.5613 74.887 124.642 47.5606 225.136C30.0032 289.802 27.0878 354.09 39.3714 406.162ZM393.791 439.429C394.192 453.96 397.218 467.891 400.156 481.354C402.314 491.234 404.539 501.47 405.674 511.773C406.942 523.3 404.762 531.712 399.176 536.763C385.402 549.225 352.913 540.324 333.486 535.005L329.08 533.804C285.509 522.054 247.101 502.561 214.901 475.879C144.293 417.243 112.294 321.913 137.084 244.028C159.826 172.508 218.795 127.023 283.751 127.023C293.587 127.023 303.579 128.069 313.57 130.228C372.229 142.889 417.824 193.158 427.104 255.577C429.307 263.477 429.818 272.289 428.706 282.481C426.08 306.024 418.804 328.144 411.772 349.528C402.47 377.634 392.879 406.74 393.791 439.429ZM533.005 541.614C546.067 536.296 562.223 538.388 575.107 547.066C583.34 552.607 589.438 560.151 592.687 568.874C598.784 585.007 596.804 600.873 587.124 613.513C576.153 627.844 557.104 635.61 539.725 632.784C524.415 630.314 512.665 620.011 506.679 603.788C498.023 580.312 510.574 550.693 533.005 541.614ZM625.376 559.95C633.298 544.04 650.633 534.471 667.678 534.471C674.532 534.471 681.32 536.007 687.461 539.3C699.945 546.02 709.157 559.995 711.449 575.794C712.896 585.719 711.494 595.733 707.444 604.011C699.878 619.455 687.194 628.422 671.684 629.223C654.171 630.136 635.924 620.367 626.444 604.923C618.077 591.349 617.699 575.372 625.376 559.95ZM786.82 361.278C779.788 339.893 772.511 317.796 769.885 294.253C768.75 284.061 769.284 275.249 771.532 267.082C780.745 204.908 826.363 154.639 885.021 141.977C895.035 139.819 905.004 138.773 914.84 138.773C979.773 138.773 1038.74 184.28 1061.51 255.778C1086.28 333.662 1054.28 428.993 983.69 487.629C951.49 514.31 913.06 533.804 869.466 545.553L865.083 546.755C845.678 552.073 813.189 560.996 799.393 548.535C793.807 543.483 791.604 535.072 792.894 523.545C794.029 513.264 796.255 503.028 798.413 493.148C801.351 479.685 804.377 465.755 804.777 451.201C805.645 418.534 796.077 389.428 786.82 361.278Z" fill="#B7ADCC"/>
<path d="M814.768 378.191C826.05 417.667 827.052 462.106 817.572 503.318C817.439 503.875 817.061 505.076 816.549 506.678C811.564 522.344 809.405 531.98 813.144 534.962C814.167 535.785 815.769 536.119 817.817 536.119C822.134 536.119 828.387 534.583 835.352 532.714C837.355 532.18 839.002 531.735 840.003 531.535C857.694 528.064 874.807 523.324 890.895 517.449C928.614 503.741 962.104 482.712 987.739 456.632C1033.96 409.634 1067.38 328.189 1037.87 252.241C1010.28 181.232 940.23 144.982 874.94 167.902C837.266 181.121 807.648 213.588 795.72 254.733C785.217 290.871 795.297 320.089 805.979 351.021C808.983 359.81 812.098 368.867 814.768 378.191Z" fill="#FFA7B4"/>
<path d="M323.608 156.129C258.318 133.209 188.266 169.458 160.651 240.467C131.143 316.416 164.589 397.838 210.808 444.858C236.443 470.939 269.934 491.968 307.652 505.675C323.719 511.528 340.831 516.267 358.522 519.761C359.546 519.961 361.215 520.407 363.24 520.941C370.183 522.788 376.435 524.323 380.752 524.323C382.777 524.323 384.38 523.989 385.404 523.166C389.098 520.228 386.961 510.66 382.043 495.127C381.509 493.414 381.086 492.123 380.953 491.545V491.522C371.473 450.288 372.475 405.849 383.757 366.373C386.427 357.071 389.542 348.014 392.569 339.247C403.25 308.315 413.331 279.098 402.827 242.959C390.855 201.792 361.259 169.325 323.608 156.129Z" fill="#FFA7B4"/>
<path opacity="0.1" d="M355.206 667.231C313.838 666.586 280.525 702.168 260.854 736.616C224.359 800.481 225.161 873.537 227.497 945.235C230.034 1022.5 234.663 1099.76 232.593 1177.11C230.435 1257.93 220.621 1375.38 161.34 1432.77C201.595 1435.09 241.984 1434.8 282.261 1431.75C304.603 1430.06 335.401 1431.64 351.512 1412.05C367.689 1392.43 363.906 1359.51 364.707 1335.68C367.155 1264.38 369.603 1193.04 372.051 1121.72C377.169 973.073 382.644 824.447 387.806 675.776C377.948 670.547 367.133 667.409 355.206 667.231Z" fill="#592639"/>
<path opacity="0.1" d="M1454.58 743.427C1442.32 699.455 1398.57 674.487 1358.16 696.629C1312.47 721.597 1306.06 778.72 1315.88 826.43C1328.32 886.912 1363.97 946.55 1339.84 1009.48C1328.98 1037.81 1303.62 1062.46 1273.46 1064.22C1258.73 1065.13 1244.07 1059.62 1232.61 1049.98C1224.62 1043.26 1219.48 1034.09 1213.27 1025.79C1211.36 1009.24 1209.4 992.68 1207.46 976.124C1188.72 815.236 1169.92 654.327 1151.07 493.417C1181.27 434.269 1195.67 366.687 1189.04 298.928C1179.07 196.988 1126.26 102.547 1042.75 49.5635C1052.11 75.7327 1056.7 103.927 1055.59 132.21C1053.76 177.717 1036.07 215.436 1008.9 250.417C974.764 294.322 936.401 330.905 926.343 389.118C915.572 451.582 926.254 519.364 932.996 581.805C940.095 647.362 949.908 712.584 961.235 777.473C999.176 994.905 1054.85 1209.44 1083.98 1428.46C1095.49 1427.99 1106.99 1427.57 1118.5 1427.1C1158.91 1425.45 1220.26 1430.53 1243.33 1386.55C1257.46 1359.61 1248.16 1324.49 1244.8 1295.85C1240.73 1260.74 1236.61 1225.64 1232.52 1190.57C1229.74 1166.79 1226.98 1143.02 1224.2 1119.28C1248.54 1133.87 1287.02 1132.61 1309.31 1125.42C1349.99 1112.29 1381.52 1075.82 1392.81 1033.36C1404.49 989.186 1392.36 944.035 1376.12 903.023C1359.31 860.699 1334.5 815.192 1339.4 767.727C1343.43 728.829 1389.93 690.754 1420.8 729.074C1431.19 741.98 1436.06 761.095 1431.77 777.407C1427.63 793.295 1417.06 799.392 1404.51 807.181C1399.79 810.096 1399.64 817.573 1404.51 820.444C1420.44 829.879 1436.24 820.043 1445.81 805.69C1457.85 787.598 1460.39 764.3 1454.58 743.427Z" fill="#592639"/>
<path opacity="0.15" d="M796.588 215.679C820.065 168.125 855.202 128.715 898.127 99.5417C939.451 71.4587 985.603 54.1906 1033.49 43.9098C1026.3 39.7263 1018.94 35.8097 1011.35 32.2493C912.926 -13.8362 796.321 1.6963 717.724 80.9829C669.058 130.072 642.977 204.486 649.319 274.204C629.537 266.526 601.031 267.394 585.921 269.441C576.041 270.777 560.264 274.115 547.446 280.679C550.072 243.984 545.444 206.822 533.605 173.621C498.357 74.7965 403.426 6.03529 303.089 0.850401C202.706 -4.33449 103.749 56.5492 54.1027 146.717C24.3952 200.68 12 264.546 9.73024 326.253C7.8165 379.414 16.9623 432.087 43.1983 477.327C36.3 544.619 35.5217 613.046 32.5399 680.539C29.4022 752.482 26.2865 824.448 23.1934 896.413C17.0961 1040.79 8.46181 1185.3 4.83461 1329.79C4.27829 1352.39 5.50213 1377.18 18.5422 1396.3C31.6714 1415.55 52.9678 1420.44 74.0635 1423.6C152.838 1363.39 159.803 1210.27 161.806 1121.52C163.23 1058.5 160.27 995.594 157.733 932.663C155.441 875.785 158.112 818.684 157.934 761.761C157.733 699.365 153.684 637.524 148.766 575.394C144.938 527.128 141.956 476.615 154.863 429.439C165.21 391.654 190.312 352.244 226.005 336.133C283.462 310.208 324.073 379.882 364.439 409.033C392.255 429.127 427.037 430.485 439.187 391.743C449.111 360.099 448.755 318.086 480.977 300.64C520.654 279.166 548.114 323.516 573.815 347.193C613.114 383.42 672.262 398.774 715.009 360.5C755.999 323.805 772.6 264.279 796.588 215.679Z" fill="#FFFCFC"/>
<path opacity="0.3" d="M326.543 623.481C325.208 623.748 323.873 623.926 322.493 623.993C319.356 624.394 316.596 626.04 314.705 628.31C305.314 616.627 294.077 606.925 280.77 601.874C267.885 596.978 255 614.691 262.678 626.441C271.178 639.459 282.795 649.428 291.228 662.535C299.951 676.109 306.471 691.152 311.144 706.706C322.026 742.934 322.449 780.942 320.669 818.549C316.908 898.703 313.726 978.146 313.192 1058.43C312.68 1138.05 310.499 1218.52 291.584 1296.09C283.15 1330.67 272.068 1361 238.978 1376.34C215.346 1387.29 190.201 1393.03 164.81 1397.08C138.285 1397.63 111.47 1396.34 85.4568 1399.99C76.4445 1401.26 72.3941 1415.59 83.0976 1418.15C119.659 1426.92 160.471 1426.65 197.855 1426.38C238.6 1426.09 276.786 1430.99 315.55 1413.65C351.6 1397.54 347.438 1349.17 350.509 1314.83C354.47 1270.7 360.99 1223.3 355.538 1179.15C354.804 1173.21 351.912 1168.65 348.106 1165.8C351.333 1115.82 351.399 1065.67 351.6 1015.57C356.629 981.484 357.252 946.881 358.943 912.411C359.945 891.805 361.636 871.154 362.147 850.548C362.459 838.243 364.862 819.061 360.634 805.553C362.014 786.683 362.927 767.746 364.106 748.787C366.376 712.047 369.424 675.375 370.759 638.591C371.137 628.355 363.149 623.704 355.583 624.483C348.774 614.669 333.486 612.244 326.543 623.481Z" fill="#592642"/>
<path opacity="0.3" d="M818.308 639.972C819.688 640.017 820.912 639.772 822.047 639.349C819.911 641.53 818.22 644.334 817.374 647.827C815.015 657.441 815.616 668.456 815.149 678.336C814.681 688.461 822.848 697.05 831.949 698.519C818.131 731.787 817.686 776.515 833.708 807.068C837.78 814.834 850.13 813.321 852.088 804.554C858.608 775.469 857.273 743.492 869.001 715.832C873.985 704.082 881.062 696.85 893.011 693.112C898.196 691.487 904.026 691.532 909.078 689.462C915.887 686.703 919.647 681.696 925.344 677.268C930.64 673.151 931.931 665.184 926.635 660.667C950.868 655.282 974.011 645.246 995.774 632.963C1020.79 618.832 1043.53 601.007 1063.93 580.579C1063.93 582.538 1063.96 584.496 1064.13 586.454C1064.58 591.55 1067.03 596.112 1070.45 599.361C1070.08 604.034 1070.3 608.863 1071.26 613.892C1073.95 627.889 1080.78 640.907 1084.99 654.436C1089.64 669.412 1092.37 684.967 1094.33 700.544C1103.1 770.351 1112 839.624 1124.55 908.852C1137.01 977.569 1150.74 1046.04 1161.54 1115.07C1167.12 1150.81 1171.86 1186.66 1175.09 1222.71C1176.91 1243.18 1179.38 1264.65 1179.36 1285.75C1176.73 1315.54 1165.83 1342.27 1134.94 1360.2C1081.69 1391.11 1021.3 1399.5 961.461 1402.69C952.159 1403.17 948.977 1418.53 959.146 1420.58C981.933 1425.18 1006.79 1426.45 1031.87 1424.56C1059.24 1427.12 1087.81 1426.34 1114.47 1422.4C1136.12 1419.2 1158.4 1415.26 1177.62 1404.8C1195.54 1405.33 1215.14 1397.37 1225.51 1383.73C1244.45 1358.83 1238.57 1313.03 1231.52 1284.01C1231.3 1257.71 1228 1231.21 1225.67 1207.84C1217.26 1123.44 1201.63 1040.25 1186.15 957.074C1186.3 956.473 1186.44 955.85 1186.5 955.205C1189.77 925.097 1184.54 896.279 1179.85 866.661C1174.86 835.173 1169.61 803.73 1164.96 772.176C1160.33 740.777 1155.04 709.579 1151.12 678.047C1147.41 648.228 1146.69 616.384 1138.82 587.389C1138.41 585.876 1137.79 584.607 1137.08 583.584C1137.39 567.161 1138.24 550.761 1138.13 534.338C1138.08 527.106 1131.72 523.768 1126.35 525.126C1130.43 511.107 1135.17 497.288 1137.77 482.868C1138.19 480.554 1137.99 478.439 1137.37 476.615C1155.88 437.761 1167.9 395.637 1173.37 352.511C1177.36 321.135 1179.27 288.089 1173.06 256.869C1166.74 225.136 1157.8 190.578 1143.98 161.894C1139.17 151.902 1126.66 159.513 1128.02 168.903C1132.36 199.078 1138.33 227.829 1136.46 258.604C1134.76 286.42 1136.12 314.348 1132.9 342.141C1126.75 395.014 1109.09 446.084 1081.16 490.656C1031.58 569.831 934.646 646.448 838.893 632.006C835.889 631.561 833.04 632.607 830.881 634.453C829.235 634.81 827.655 635.388 826.186 636.189C828.79 632.762 829.368 627.599 827.432 623.305C818.709 604.012 795.388 602.009 777.475 606.904C756.335 612.69 739.868 629.202 728.274 647.894C714.989 669.346 708.024 694.425 696.208 716.744C689.888 728.672 682.723 740.065 674.467 750.635C666.879 760.359 657.733 768.949 652.348 780.254C649.143 786.974 654.551 796.988 662.517 794.05C695.451 781.9 719.707 737.395 733.837 706.308C742.093 688.149 749.414 668.589 762.543 653.524C769.664 645.357 778.409 638.793 789.091 637.28C798.815 635.944 808.562 639.683 818.308 639.972Z" fill="#592642"/>
<path opacity="0.3" d="M557.749 385.045C578.711 356.184 563.467 323.85 548.313 296.836C546.956 294.41 545.265 292.674 543.418 291.406C542.55 286.065 541.459 280.791 540.169 275.606C537.098 263.167 533.983 250.772 530.956 238.333C529.888 222.534 527.174 207.023 522.768 190.467C520.921 183.48 514.333 180.743 508.525 181.744C501.471 143.47 485.516 107.264 458.546 76.8448C452.226 69.7239 439.943 79.2035 445.461 87.3925C479.308 137.55 491.191 201.482 481.31 261.654C476.304 292.185 467.625 321.937 455.297 350.109C445.862 371.694 420.627 401.312 428.927 426.525C434.513 443.437 448.332 446.263 460.705 440.944C463.62 445.351 470.673 447.22 475.502 443.147C489.811 431.109 504.832 419.381 521.21 410.569C534.45 403.448 548.469 397.841 557.749 385.045Z" fill="#592642"/>
<path opacity="0.3" d="M187.216 431.039C191.911 434.978 196.851 435.646 200.99 434.288C218.592 462.282 241.98 486.36 269.373 503.761C278.319 509.436 288.845 495.884 280.767 488.363C228.006 439.384 185.569 367.441 197.43 290.669C202.459 258.024 217.769 227.226 239.844 203.616C264.388 177.358 292.872 166.031 326.585 159.022C342.696 155.684 338.557 129.87 322.78 129.715C298.458 129.47 275.359 137.169 254.753 150.121C254.842 149.987 254.954 149.876 255.043 149.764C260.561 142.287 251.415 131.094 243.382 133.943C217.546 143.089 196.874 167.077 180.473 189.129C162.56 213.162 149.431 240.979 143.422 270.864C132.563 324.96 143.868 394.678 187.216 431.039Z" fill="#592642"/>
<path opacity="0.3" d="M784.839 276.405C785.796 281.011 789.067 283.926 792.917 285.15C788.533 325.116 807.759 358.428 817.639 396.681C823.069 417.754 824.872 440.296 822.313 461.993C819.642 484.49 809.339 504.473 805.868 526.57C804.777 533.535 811.809 541.947 818.685 536.851C845.121 517.358 854.201 477.102 856.982 445.236C860.698 402.667 843.876 368.843 831.904 329.522C819.331 288.265 835.508 249.946 862.078 218.814C889.227 187.015 921.337 171.394 960.969 164.852C970.738 163.249 970.649 146.048 960.969 144.357C944.502 141.464 927.969 143.978 912.236 149.631C910.7 146.894 908.052 144.935 904.826 145.269C874.54 148.384 839.358 168.924 817.283 190.331C794.875 212.05 778.074 244.049 784.839 276.405Z" fill="#592642"/>
<path opacity="0.5" d="M56.5478 497.799C48.8039 533.96 50.4509 572.947 48.2479 609.864C45.9336 648.762 43.7307 687.66 41.461 726.558C36.9436 804.353 31.647 882.149 25.9503 959.856C20.2758 1037.47 17.3162 1115.4 15.5804 1193.22C14.7126 1231.98 14.2011 1270.79 14.5794 1309.56C14.891 1341.36 12.1763 1385.26 30.0453 1412.5C39.1912 1426.43 59.5298 1421.24 60.3977 1403.93C61.3323 1384.84 55.3463 1365.46 54.1669 1346.3C53.0988 1329.03 53.1211 1311.72 53.1211 1294.43C53.1211 1255.51 53.7884 1216.56 54.901 1177.64C57.0373 1102.41 61.221 1027.26 64.4254 952.067C67.6076 876.875 71.8804 801.705 75.5966 726.535C77.5104 687.66 79.0898 648.762 79.8464 609.842C80.5585 573.014 84.2973 534.138 77.9775 497.777C76.0193 486.473 58.8621 486.984 56.5478 497.799Z" fill="#FFF7F7"/>
<path opacity="0.5" d="M914.993 1134.6C898.593 1036.4 883.572 937.935 863.612 840.446C861.609 830.699 845.809 832.679 846.722 842.827C855.534 941.985 869.352 1040.54 881.792 1139.28C887.844 1187.28 894.276 1235.1 901.353 1282.96C904.957 1307.33 908.54 1331.72 912.145 1356.09C915.861 1381.32 916.551 1404.69 931.149 1425.63C936.267 1432.99 946.614 1432.1 949.529 1423.11C956.962 1400.26 952.334 1381.12 948.929 1357.53C945.391 1333.14 941.852 1308.75 938.314 1284.37C931.037 1234.32 923.315 1184.45 914.993 1134.6Z" fill="#FFF7F7"/>
<path opacity="0.5" d="M425.749 660.622C439.19 682.875 449.982 706.419 464.869 727.804C493.709 769.305 529.469 804.442 575.933 822.578C588.483 827.474 597.274 805.955 585.124 799.858C545.892 780.231 512.669 750.969 487.278 714.14C465.248 682.185 452.697 641.018 426.061 612.868C398.623 583.895 354.006 575.35 317.2 567.962C275.432 559.573 232.039 553.075 192.496 535.985C34.1449 467.58 20.9713 221.13 140.891 109.333C206.537 48.1597 299.487 30.0682 383.402 53.3669C395.441 56.7048 404.208 37.5009 392.169 31.6706C317.6 -4.51236 228.656 7.23715 158.871 50.4298C84.7028 96.3372 37.7722 176.425 26.5791 265.013C15.0744 355.938 40.6423 454.94 103.529 520.898C172.379 593.108 272.205 595.556 362.062 614.76C390.345 620.813 410.283 635.032 425.749 660.622Z" fill="#FFF7F7"/>
<path opacity="0.5" d="M709.512 371.404C695.849 325.697 687.281 281.347 695.003 233.326C702.235 188.397 721.395 145.227 753.372 113.74C789.154 78.5357 838.2 58.9087 886.822 54.5027C943.411 49.3623 995.66 65.8961 1049.91 79.537C1055.21 80.8722 1059.86 78.9805 1063.11 75.6203C1062.17 74.9305 1061.24 74.2406 1060.3 73.5508C1041.95 60.2659 1022.54 51.2314 1002.51 41.1509C983.199 31.4042 964.106 21.9021 943.544 16.6727C865.682 9.86337 784.348 32.7394 728.471 87.726C677.312 138.062 651.877 220.197 662.314 294.721C639.928 281.792 609.019 277.498 588.19 284.797C580.357 287.556 579.69 299.639 588.19 302.109C602.432 306.248 617.185 306.827 631.249 311.967C644.556 316.818 656.394 325.475 670.013 329.302C675.42 346.748 683.031 363.393 693.089 378.592C698.564 386.937 712.739 382.152 709.512 371.404Z" fill="#FFF7F7"/>
<path opacity="0.5" d="M381.418 422.028C382.086 431.374 396.684 435.068 398.308 424.409C406.742 369.111 443.682 322.892 447.955 266.259C451.426 220.151 422.72 172.374 379.994 157.309C370.537 153.971 364.195 167.256 370.604 174.155C384.356 189.019 401.379 199.3 411.549 217.77C424.322 240.957 422.274 267.727 415.265 292.517C402.826 336.622 378.036 374.162 381.418 422.028Z" fill="#FFF7F7"/>
<path opacity="0.5" d="M1081.62 380.927C1095.91 342.163 1098.02 298.548 1084.29 259.249C1072.72 226.115 1047.82 185.192 1011.97 178.205C1002.76 176.402 995.128 187.618 1002.45 195.273C1025.9 219.84 1048.8 237.664 1059.59 272.245C1070.85 308.294 1066.6 347.237 1051.52 381.395C1018.89 455.23 951.133 497.287 879.991 522.633C869.777 526.283 873.849 542.638 884.486 539.679C967.133 516.625 1049.47 468.203 1081.62 380.927Z" fill="#FFF7F7"/>
<path d="M54.0805 146.735C24.3731 200.698 11.9785 264.564 9.70876 326.271C7.79502 379.432 16.9409 432.105 43.1769 477.345C36.2785 544.637 35.4996 613.064 32.5177 680.556C29.3801 752.5 26.2644 824.465 23.1712 896.431C17.074 1040.81 8.44032 1185.32 4.81312 1329.8C4.2568 1352.41 5.48064 1377.2 18.5208 1396.32C33.8307 1418.77 60.2444 1421.69 84.4777 1425.11C149.99 1434.39 216.281 1436.71 282.238 1431.72C304.58 1430.03 335.377 1431.61 351.488 1412.03C367.666 1392.4 363.884 1359.49 364.685 1335.66C367.133 1264.36 369.58 1193.02 372.028 1121.7C377.458 964.101 383.288 806.552 388.717 648.936C391.811 651.228 394.859 654.009 397.908 657.392C426.146 689.169 447.109 726.687 475.37 758.619C467.337 767.343 459.014 777.133 455.498 788.705C452.249 799.409 465.067 805.039 472.165 798.852C479.509 792.399 484.983 783.476 491.08 775.487C493.951 778.402 496.844 781.273 499.781 784.143C498.312 787.37 497 790.597 495.709 793.667C490.235 806.797 482.557 824.421 493.484 836.348C495.709 838.752 499.736 838.106 501.316 835.28C507.458 824.154 510.841 810.691 515.292 798.585C521.367 804.015 527.508 809.289 533.806 814.407C552.543 829.539 573.081 845.761 597.315 848.899C639.039 854.328 673.441 816.187 700.033 784.01L700.702 784.722C708.957 793.601 717.102 809.823 730.52 809.578C732.478 809.534 733.724 808.243 734.392 806.463C740.111 791.798 723.244 776.733 714.12 768.121C713.942 767.966 713.697 767.721 713.519 767.565C716.456 763.938 719.438 760.244 722.42 756.55C723.065 756.817 723.666 757.106 724.222 757.373C737.307 763.537 750.014 770.591 762.564 777.779C765.835 779.626 769.418 776.555 768.661 772.906C765.145 756.461 752.35 747.181 738.353 740.817C737.485 740.417 736.551 739.949 735.594 739.482C751.349 718.631 766.547 696.445 779.543 673.881C789.446 656.724 797.946 648.78 807.781 646.888C812.188 713.246 823.114 779.782 831.236 845.672C840.026 917.126 849.016 988.557 858.117 1059.99C867.352 1132.71 876.587 1205.43 885.822 1278.15C890.162 1312.45 894.145 1346.83 898.862 1381.05C902.111 1404.64 910.322 1424.2 934.133 1430.65C959.835 1437.57 989.876 1432.08 1016.05 1431.12C1050.2 1429.85 1084.29 1428.49 1118.45 1427.11C1158.86 1425.47 1220.21 1430.54 1243.29 1386.57C1257.42 1359.62 1248.12 1324.51 1244.76 1295.87C1240.69 1260.75 1236.57 1225.66 1232.48 1190.59C1229.69 1166.8 1226.93 1143.04 1224.15 1119.29C1248.5 1133.89 1286.97 1132.62 1309.27 1125.43C1349.95 1112.3 1381.48 1075.83 1392.76 1033.37C1404.44 989.203 1392.32 944.051 1376.07 903.04C1359.27 860.715 1334.46 815.208 1339.36 767.743C1343.38 728.845 1389.89 690.771 1420.76 729.09C1431.15 741.997 1436.02 761.112 1431.73 777.423C1427.59 793.312 1417.02 799.409 1404.47 807.197C1399.75 810.112 1399.59 817.589 1404.47 820.46C1420.4 829.895 1436.2 820.059 1445.77 805.706C1457.83 787.659 1460.34 764.36 1454.56 743.487C1442.3 699.516 1398.55 674.548 1358.14 696.69C1312.45 721.657 1306.04 778.78 1315.86 826.49C1328.3 886.973 1363.94 946.611 1339.82 1009.54C1328.96 1037.87 1303.6 1062.53 1273.44 1064.28C1258.71 1065.2 1244.05 1059.68 1232.59 1050.04C1224.6 1043.32 1219.46 1034.15 1213.25 1025.85C1211.34 1009.3 1209.38 992.741 1207.44 976.185C1188.7 815.297 1169.9 654.387 1151.05 493.478C1181.25 434.33 1195.65 366.748 1189.02 298.989C1177.87 184.765 1112.96 79.9547 1011.31 32.3338C912.881 -13.7517 796.277 1.78079 717.68 81.0674C669.013 130.157 642.933 204.57 649.275 274.288C629.493 266.611 600.987 267.479 585.877 269.526C575.997 270.861 560.22 274.199 547.402 280.764C550.028 244.069 545.399 206.907 533.561 173.706C498.312 74.881 403.382 6.12012 303.044 0.935231C202.706 -4.31642 103.726 56.5668 54.0805 146.735ZM353.402 1028.3C351.177 1094.46 348.885 1160.62 346.615 1226.73C345.525 1259.17 344.39 1291.6 343.3 1324C342.744 1340.13 342.81 1356.37 341.608 1372.44C340.14 1391.6 333.887 1402.77 314.994 1405.8C255.713 1415.36 192.604 1413.34 133.011 1408.04C115.854 1406.51 98.7197 1404.55 81.6296 1401.99C66.4309 1399.7 49.0956 1398.14 38.214 1385.64C21.4799 1366.36 26.4868 1332.34 27.4659 1308.62C33.0736 1176.46 38.7039 1044.32 44.3116 912.163C47.4715 837.594 50.6088 762.981 53.6574 688.412C56.2165 627.061 60.6002 565.042 60.845 503.402C96.9613 549.777 146.585 581.754 200.125 602.16C244.898 619.273 292.162 626.772 339.005 634.805C349.107 636.563 358.031 637.475 366.22 639.278C361.792 768.945 357.808 898.656 353.402 1028.3ZM1219.44 1280.25C1221.24 1295.87 1223.08 1311.44 1224.91 1327.04C1226.69 1342.69 1230.27 1362 1221.86 1376.33C1210.18 1396.21 1182.47 1399.19 1162.36 1400.57C1101.56 1404.73 1040.43 1405.95 979.55 1408.78C967.645 1409.33 954.383 1411.29 942.567 1408.62C922.94 1404.13 922.027 1385.46 919.758 1367.79C915.418 1334.05 911.19 1300.25 906.895 1266.47C898.684 1201.54 890.428 1136.6 882.217 1071.67C873.027 999.216 863.703 926.783 854.357 854.328C845.545 786.279 839.269 716.717 826.808 649.113C833.395 651.316 840.827 654.699 849.572 658.86C875.163 671.01 901.088 675.883 929.148 672.123C983.645 664.735 1034.38 632.491 1074.79 594.884C1096.24 574.945 1115.2 552.292 1131.25 527.703C1160.73 778.536 1190.26 1029.35 1219.44 1280.25ZM246.055 31.1542C338.894 11.2825 439.187 56.8339 489.923 140.171C548.871 236.992 521.967 355.778 454.23 438.691C450.358 443.498 455.365 451.865 461.061 447.926C506.702 416.461 534.139 364.434 544.02 308.468C547.647 306.577 551.14 304.151 555.057 302.06C566.406 296.074 579.023 292.491 591.685 291.356C605.704 290.065 619.724 291.779 633.365 295.161C640.819 297.008 646.939 300.168 653.414 300.947C661.448 337.553 679.183 371.733 708.356 398.725C711.605 401.752 717.413 397.813 714.699 393.607C657.665 305.62 656.418 184.81 729.63 105.746C803.353 26.0584 919.001 12.1505 1012.08 61.7741C1107.59 112.711 1164.65 218.589 1165.67 329.408C1166.12 381.791 1153.34 433.039 1130.4 478.902C1128.24 480.482 1126.77 482.908 1126.6 486.245C1103.72 529.349 1071.74 567.357 1033.38 596.619C1008.99 615.223 981.887 631.222 952.825 640.346C917.51 651.428 886.601 648.29 853.244 632.646C834.618 623.879 808.739 612.708 787.287 621.431C765.546 630.288 755.621 657.213 745.785 677.152C736.328 696.267 725.424 713.335 712.984 730.091C706.576 728.489 700.39 728.333 695.383 731.427C694.137 732.205 693.536 733.785 693.914 735.232C694.982 739.526 697.564 742.865 700.88 745.579C698.921 748.049 696.918 750.542 694.916 752.967C689.152 749.83 682.966 748.005 676.668 749.073C675.021 749.34 674.02 751.543 674.488 753.123C676.001 758.308 679.116 762.914 682.855 767.12C678.248 772.394 673.575 777.623 668.791 782.741C657.553 763.27 626.956 755.571 607.173 754.391C581.026 752.811 550.762 762.603 533.65 784.165C533.383 783.921 533.116 783.698 532.893 783.498C529.911 780.894 527.019 778.18 524.104 775.554C525.884 769.768 527.041 763.871 526.596 757.818C526.44 755.726 524.593 754.703 522.835 755.571C518.651 757.573 515.069 760.533 511.975 764.071C509.973 762.135 507.97 760.244 506.012 758.33C509.327 754.28 512.265 749.963 514.267 744.756C516.337 739.17 510.395 735.276 505.9 736.055C500.582 736.967 495.798 739.593 491.347 743.02C489.433 740.884 487.475 738.859 485.584 736.723C473.589 723.237 462.753 708.884 452.338 694.198C452.272 693.419 452.071 692.595 451.626 691.75C435.337 662.799 419.137 622.566 384.534 614.199C345.681 604.786 304.357 604.252 264.97 594.616C214.456 582.222 164.721 562.995 123.019 530.039C83.5652 498.841 53.057 456.204 41.1518 405.646C27.5108 347.789 33.9194 282.432 49.3628 225.643C75.8658 128.332 150.124 51.7157 246.055 31.1542Z" fill="#3D2938"/>
<path d="M802.863 451.157C802.196 476.169 793.673 498.956 790.98 523.323C785.506 573.08 842.74 554.789 869.911 547.467C911.479 536.252 951.133 517.092 984.824 489.187C1050.02 435.024 1090.55 340.961 1063.27 255.177C1038.16 176.291 964.886 122.751 884.598 140.064C822.067 153.549 778.564 206.533 769.64 266.793C767.192 275.605 766.925 284.929 767.993 294.476C774.135 349.306 804.443 394.146 802.863 451.157ZM797.5 255.333C809.027 215.523 837.489 183.123 875.519 169.793C942.945 146.116 1010.19 186.305 1036.12 253.019C1063.55 323.649 1036.94 403.848 986.404 455.252C959.367 482.734 925.765 502.717 890.25 515.624C873.738 521.632 856.826 526.238 839.625 529.621C835.13 530.488 817.795 536.23 814.257 533.404C810.118 530.11 818.618 506.967 819.375 503.785C828.832 462.64 828.165 418.201 816.549 377.612C804.622 335.932 784.193 301.107 797.5 255.333Z" fill="#3D2938"/>
<path d="M213.703 477.394C247.394 505.322 287.004 524.481 328.594 535.674C355.81 542.996 413.021 561.287 407.547 511.53C404.877 487.141 396.354 464.376 395.664 439.364C394.084 382.331 424.392 337.491 430.534 282.683C431.58 273.114 431.313 263.812 428.866 255C419.942 194.74 376.438 141.778 313.908 128.271C233.62 110.958 160.364 164.498 135.24 243.384C107.981 329.168 148.503 423.231 213.703 477.394ZM162.411 241.226C188.336 174.512 255.583 134.324 323.009 158C361.039 171.33 389.456 203.73 401.027 243.54C414.334 289.314 393.906 324.139 381.957 365.819C370.341 406.408 369.673 450.847 379.13 491.992C379.842 495.174 388.41 518.295 384.249 521.611C380.711 524.437 363.376 518.695 358.836 517.828C341.679 514.445 324.767 509.839 308.255 503.831C272.74 490.924 239.139 470.963 212.102 443.459C161.588 392.055 134.973 311.856 162.411 241.226Z" fill="#3D2938"/>
<path d="M594.42 568.139C590.882 558.659 584.25 550.871 576.106 545.397C563.243 536.74 546.621 533.959 532.312 539.767C508.902 549.246 495.907 580.044 504.92 604.455C527.15 664.716 617.029 628.021 594.42 568.139Z" fill="#3D2938"/>
<path d="M709.109 604.945C713.516 595.888 714.761 585.519 713.293 575.527C711.001 559.75 701.989 544.93 688.303 537.586C665.984 525.592 635.275 535.806 623.703 559.06C595.175 616.316 681.071 662.291 709.109 604.945Z" fill="#3D2938"/>
</g>
<defs>
<filter id="filter0_d_403_14304" x="0.707031" y="0.542969" width="1460.86" height="1441.76" filterUnits="userSpaceOnUse" color-interpolation-filters="sRGB">
<feFlood flood-opacity="0" result="BackgroundImageFix"/>
<feColorMatrix in="SourceAlpha" type="matrix" values="0 0 0 0 0 0 0 0 0 0 0 0 0 0 0 0 0 0 127 0" result="hardAlpha"/>
<feOffset dy="4"/>
<feGaussianBlur stdDeviation="2"/>
<feComposite in2="hardAlpha" operator="out"/>
<feColorMatrix type="matrix" values="0 0 0 0 0 0 0 0 0 0 0 0 0 0 0 0 0 0 0.25 0"/>
<feBlend mode="normal" in2="BackgroundImageFix" result="effect1_dropShadow_403_14304"/>
<feBlend mode="normal" in="SourceGraphic" in2="effect1_dropShadow_403_14304" result="shape"/>
</filter>
</defs>
</svg>
