<svg width="1226" height="1672" viewBox="0 0 1226 1672" fill="none" xmlns="http://www.w3.org/2000/svg">
<g filter="url(#filter0_d_403_14330)">
<path d="M1002.6 665.416C1002.06 665.282 1001.49 665.394 1001.04 665.75C1000.6 666.106 1000.35 666.618 1000.35 667.196C1000.42 679.28 1001.51 694.01 1009.45 700.775C1012.3 703.201 1015.79 704.403 1019.87 704.403C1021.02 704.403 1022.23 704.314 1023.47 704.114C1032.66 702.667 1039.43 694.678 1042.7 687.691C1044.15 684.553 1044.7 681.371 1045.26 678.278C1045.55 676.631 1045.84 674.984 1046.28 673.36C1046.44 672.826 1046.33 672.248 1045.97 671.803C1045.64 671.358 1045.12 671.09 1044.55 671.068C1030.53 670.801 1016.42 668.91 1002.6 665.416Z" fill="#FFA7B4"/>
<path d="M160.976 262.328C156.147 293.637 156.214 326.638 155.213 358.281C153.188 423.882 153.255 489.617 153.833 555.262C155.035 685.797 159.997 816.265 168.742 946.51C173.059 1010.89 178.222 1075.27 184.497 1139.46C187.68 1171.8 192.998 1202.13 208.664 1230.99C219.546 1251.06 231.629 1269.87 240.063 1290.94C241.954 1295.66 245.47 1303.07 240.597 1307.27C238.594 1309.01 235.946 1309.7 233.409 1310.37C212.936 1315.64 195.201 1321 177.021 1332.22C149.65 1349.06 126.062 1371.89 104.877 1395.86C72.7886 1432.2 48.9114 1476.1 36.4943 1522.99C30.2858 1546.62 26.2135 1571.59 27.1704 1596.11C27.7935 1612.34 31.888 1630.29 47.4872 1638.5C62.4633 1646.45 72.6106 1635.01 84.2488 1627.04C129.244 1596.22 183.429 1635.83 231.228 1636.9C258.443 1637.53 286.971 1629.98 304.707 1608.13C319.661 1589.7 326.381 1564.51 318.526 1541.79C315.989 1534.43 326.804 1530.58 330.609 1536.68C339.599 1551.1 342.403 1567.12 340.044 1582.74C344.295 1593.8 351.304 1603.92 360.139 1611.98C381.012 1630.89 410.318 1634.01 437.155 1629.29C484.22 1620.99 531.796 1573.66 580.93 1597.29C593.637 1603.43 605.386 1613.18 619.027 1603.06C633.18 1592.58 634.493 1574.19 632.646 1558.06C629.886 1533.72 622.12 1509.64 612.351 1487.23C593.014 1442.75 562.772 1402.96 525.499 1371.94C504.158 1354.11 480.637 1339.14 455.425 1327.41C435.575 1318.15 414.524 1315.57 394.564 1308.39C373.913 1300.91 382.703 1292.05 387.954 1277.54C396.455 1254.02 410.63 1232.95 421.823 1210.58C438.29 1177.56 441.339 1144.09 440.226 1107.73C439.18 1072.68 437.422 1037.61 435.976 1002.57C435.286 986.165 434.596 969.72 433.862 953.32C433.283 939.612 430.123 923.346 432.838 909.438C431.503 905.365 433.283 901.783 436.132 899.958C439.447 895.574 446.613 894.016 449.661 900.002C451.842 904.319 453.155 908.904 453.956 913.577C482.262 957.882 506.94 1004.99 532.152 1051.05C558.455 1099.03 584.202 1147.36 609.926 1195.67C655.766 1281.84 700.984 1368.27 745.579 1455.08C757.528 1478.37 769.322 1501.74 781.316 1525.02C790.974 1543.77 800.543 1562.22 821.861 1569.48C842.912 1576.6 867.435 1573.73 889.22 1572.88C912.697 1571.95 936.173 1570.57 959.583 1568.79C985.352 1566.83 1011.08 1564.31 1036.78 1561.27C1046.17 1560.17 1063.66 1561.27 1071.29 1556.37C1082.15 1549.45 1078.3 1532.85 1078.01 1522.37C1076.57 1473.46 1074.61 1424.52 1072.16 1375.68C1067.2 1276.72 1060.19 1177.9 1051.29 1079.23C1051.06 1077.05 1051.51 1075.2 1052.27 1073.69C1050.46 1070.06 1054.49 1065.92 1058.25 1066.9C1060.1 1067.41 1061.92 1068.03 1063.73 1068.75C1065.86 1069.1 1067.98 1070.06 1069.67 1071.5C1085.65 1080.18 1098.82 1096.69 1108.57 1110.74C1116.58 1122.29 1127.5 1140.24 1139.01 1122.57C1146.48 1111.18 1146.42 1094.05 1146.73 1081.03C1148.18 1022.28 1127.17 967.628 1096.64 918.339C1069.49 874.501 1050.09 831.998 1055.34 779.192C1059.19 740.873 1072.76 700.773 1093.61 667.016C1083.31 669.775 1072.81 671.511 1062.21 672.357C1065.15 682.994 1058.52 696.635 1052.27 704.668C1044.26 714.926 1031.95 722.158 1018.6 721.401C990.003 719.777 978.832 686.532 987.6 663.01C984.328 661.92 981.08 660.763 977.875 659.45C937.664 643.361 883.078 607.891 869.326 564.253C868.57 561.783 871.551 559.535 873.688 560.87C898.411 576.536 916.791 601.015 941.47 617.304C966.482 633.86 994.743 645.898 1024.54 650.082C1080.35 657.959 1142.19 635.64 1170.56 584.859C1199.2 533.544 1204.23 464.85 1195.06 407.682C1187.16 358.326 1166.87 312.085 1133.33 275.434C1131.89 290.032 1130.35 304.608 1128.84 319.094C1126.3 343.127 1118.36 365.446 1093.12 372.946C1069.98 379.844 1041.36 378.064 1018.98 369.319C995.744 360.284 978.587 341.458 975.494 316.224C972.512 291.657 981.947 267.957 992.184 245.593C953.82 248.063 917.437 251.868 881.61 269.248C843.135 287.94 810.779 317.047 788.682 353.697C769.233 385.964 757.617 423.059 755.837 460.71C753.812 503.903 766.474 544.915 778.29 585.905C789.55 624.914 800.076 665.703 795.936 706.67C792.131 744.478 774.641 775.832 751.854 805.517C728.199 836.404 704.055 865.578 687.543 901.138C669.719 939.524 659.416 981.67 655.455 1023.73C653.719 1042.49 652.184 1062.2 655.299 1080.92C658.392 1099.45 670.32 1133.46 692.305 1110.2C717.785 1083.28 742.641 1060.2 778.312 1047.49C787.681 1044.16 793.311 1058.6 784.966 1063.25C761.311 1076.38 738.992 1091.02 720.233 1110.76C708.594 1123.02 696.823 1141.49 677.774 1141.47C637.096 1141.31 631.578 1076.24 632.512 1048.05C635.272 965.492 661.552 890.523 709.729 824.788C650.181 692.607 588.096 561.582 523.34 431.871C508.542 402.23 493.588 372.612 478.523 343.105C470.979 328.329 463.391 313.553 455.803 298.867C449.661 287.006 444.076 273.276 434.396 263.841C413.745 243.702 372.912 247.507 346.275 245.705C314.743 243.568 283.122 241.788 251.523 241.41C233.965 241.187 216.43 241.41 198.895 242.255C191.885 242.545 184.386 242.322 177.51 243.702C165.983 246.061 162.712 251.068 160.976 262.328ZM890.667 1237.22C864.564 1234.64 858.734 1181.14 880.297 1169.44C897.454 1160.07 911.006 1178.81 912.341 1194.07C913.609 1208.76 912.808 1239.42 890.667 1237.22ZM959.072 1284.4C957.914 1293.3 949.748 1319.2 936.129 1310.1C923.311 1301.53 923.645 1253.78 944.251 1254.82C958.426 1255.53 960.407 1273.69 959.072 1284.4ZM958.382 1217.44C926.85 1214.03 916.903 1149.03 946.343 1136.68C967.327 1127.87 985.308 1148.65 986.776 1168.1C988.178 1186.55 983.461 1220.18 958.382 1217.44ZM1001.53 1087.19C999.505 1090.2 996.879 1092.96 993.586 1094.49C990.292 1095.98 986.153 1096.03 983.171 1093.96C981.213 1092.58 979.945 1090.46 978.899 1088.37C973.669 1077.85 970.22 1058.22 978.387 1048.32C981.258 1044.82 985.686 1042.62 990.114 1042.44C991.894 1042.4 993.63 1042.66 995.299 1043.31C1000.42 1045.27 1003.8 1050.28 1005.6 1055.46C1009.25 1065.9 1007.74 1078.02 1001.53 1087.19ZM996.701 826.88C1016.08 822.674 1027.23 843.837 1028.41 859.881C1029.64 876.504 1019.71 898.845 999.371 892.681C976.05 885.65 969.241 832.866 996.701 826.88ZM957.18 900.091C958.026 899.98 958.916 899.913 959.784 899.913C969.909 899.646 979.7 904.854 986.354 912.508C992.963 920.163 996.656 930.044 998.192 940.057C999.928 951.562 998.926 963.756 993.519 974.059C988.067 984.34 977.875 992.418 966.304 993.575C949.325 995.289 933.459 981.559 928.518 965.203C922.087 943.774 930.299 903.206 957.18 900.091ZM923.467 1076.09C926.226 1095.25 920.419 1115.5 907.89 1130.27C904.263 1134.59 899.835 1138.57 894.316 1139.82C887.529 1141.33 880.23 1138.15 875.49 1133.03C870.728 1127.92 868.125 1121.17 866.456 1114.39C860.937 1092.07 861.96 1057.2 888.553 1049.1C892.402 1047.94 896.497 1047.6 900.458 1048.18C904.552 1048.76 908.513 1050.32 911.807 1052.86C918.861 1058.31 922.199 1067.3 923.467 1076.09ZM911.339 357.213C919.573 362.086 926.115 370.498 928.763 382.826C933.436 404.678 916.502 428.845 894.294 431.337C872.086 433.83 849.944 413.513 851.079 391.193C852.748 357.614 888.53 343.728 911.339 357.213ZM839.886 909.66C841.889 887.408 857.198 853.695 881.765 856.231C886.238 856.676 890.956 858.345 895.963 861.416C905.398 867.224 911.25 877.75 913.231 888.631C915.256 899.513 913.809 910.773 911.206 921.521C907.69 936.074 900.68 951.606 886.75 957.17C874.378 962.065 859.424 957.103 850.634 947.045C841.844 937.031 838.706 922.945 839.886 909.66ZM539.295 884.759C537.76 889.009 534.355 892.57 530.216 894.194C528.592 894.84 526.834 895.218 525.054 895.129C519.579 894.973 514.706 891.391 511.257 887.118C504.292 878.506 501.711 866.579 504.47 855.831C505.382 852.315 506.895 848.821 509.521 846.329C512.169 843.792 516.064 842.368 519.535 843.347C521.827 843.97 523.741 845.528 525.454 847.197C533.888 855.341 543.724 872.676 539.295 884.759ZM607.968 770.492C614.176 773.718 618.894 779.214 622.743 785.045C635.383 804.249 646.086 837.472 623.722 854.006C620.496 856.365 616.757 858.034 612.841 858.835C608.746 859.636 604.496 859.48 600.535 858.212C592.079 855.452 585.937 848.042 581.82 840.165C572.83 823.03 571.517 802.024 578.327 783.91C580.33 778.636 583.2 773.385 587.94 770.403C593.837 766.686 601.759 767.265 607.968 770.492ZM558.833 677.364C584.268 671.089 607.678 719.532 591.278 737.824C578.216 752.333 559.189 739.249 552.847 725.296C546.706 711.855 537.226 682.705 558.833 677.364ZM539.985 790.741C523.14 806.051 499.24 792.477 491.363 774.63C483.886 757.762 477.054 724.473 501.599 718.665C532.486 711.344 563.573 769.267 539.985 790.741ZM491.608 623.913C506.517 627.696 522.205 672.824 502.423 678.699C488.804 682.771 480.86 666.326 478.59 655.8C476.698 647.077 475.719 619.885 491.608 623.913ZM242.622 957.926C236.191 936.519 244.402 895.952 271.283 892.815C272.129 892.703 273.019 892.637 273.887 892.637C284.012 892.392 293.803 897.577 300.457 905.232C307.066 912.887 310.76 922.767 312.295 932.781C314.031 944.286 313.029 956.48 307.622 966.783C302.17 977.064 291.978 985.142 280.407 986.299C263.428 988.012 247.562 974.304 242.622 957.926ZM328.962 736.156C348.345 731.95 359.493 753.112 360.673 769.134C361.896 785.757 351.972 808.121 331.633 801.935C308.312 794.903 301.48 742.142 328.962 736.156ZM307.689 1079.98C304.395 1081.47 300.256 1081.5 297.274 1079.43C295.316 1078.05 294.048 1075.96 292.98 1073.84C287.75 1063.32 284.301 1043.69 292.468 1033.79C295.338 1030.29 299.767 1028.09 304.195 1027.91C305.975 1027.87 307.711 1028.13 309.38 1028.78C314.498 1030.74 317.88 1035.74 319.683 1040.93C323.355 1051.39 321.819 1063.49 315.611 1072.68C313.608 1075.69 311.004 1078.45 307.689 1079.98ZM349.39 1124.71C348.233 1133.61 340.067 1159.51 326.448 1150.41C313.63 1141.85 313.964 1094.09 334.57 1095.14C348.745 1095.87 350.748 1114.01 349.39 1124.71ZM389.712 990.527C390.936 1007.15 381.012 1029.51 360.673 1023.33C337.329 1016.3 330.52 963.512 357.98 957.526C377.384 953.32 388.511 974.483 389.712 990.527ZM373.446 601.993C374.87 620.419 370.152 654.043 345.073 651.305C313.541 647.901 303.594 582.901 333.012 570.55C353.997 561.738 371.999 582.544 373.446 601.993ZM317.903 358.771C320.773 355.277 325.202 353.074 329.63 352.896C331.41 352.851 333.146 353.118 334.815 353.764C339.933 355.722 343.315 360.729 345.118 365.914C348.79 376.373 347.254 388.479 341.046 397.669C339.021 400.673 336.395 403.432 333.101 404.967C329.808 406.458 325.669 406.503 322.687 404.433C320.729 403.054 319.46 400.94 318.415 398.848C313.185 388.322 309.736 368.673 317.903 358.771ZM314.454 681.792C316.479 692.673 315.032 703.933 312.429 714.681C308.913 729.234 301.903 744.767 287.973 750.33C275.6 755.226 260.646 750.263 251.857 740.205C243.067 730.191 239.929 716.105 241.109 702.821C243.111 680.568 258.421 646.855 282.988 649.392C287.461 649.837 292.179 651.506 297.185 654.577C306.598 660.385 312.451 670.91 314.454 681.792ZM256.085 541.599C273.241 532.231 286.793 550.968 288.129 566.233C289.397 580.92 288.596 611.606 266.454 609.381C240.374 606.822 234.544 553.327 256.085 541.599ZM264.363 421.279C268.212 420.121 272.307 419.788 276.268 420.367C280.362 420.945 284.323 422.503 287.639 425.039C294.671 430.491 298.009 439.482 299.277 448.271C302.037 467.431 296.229 487.681 283.7 502.457C280.073 506.774 275.645 510.78 270.126 512.004C263.339 513.539 256.04 510.334 251.3 505.216C246.538 500.098 243.935 493.356 242.266 486.569C236.747 464.249 237.771 429.356 264.363 421.279Z" fill="#7A6168"/>
<path d="M1109.37 288.944C1092.39 295.776 1068.51 296.911 1057.72 295.553C1039.98 293.328 1016.15 281.112 1006.96 264.533C1006.63 263.933 1005.98 263.554 1005.27 263.598C1004.58 263.643 1003.96 264.066 1003.69 264.711C997.213 280.422 989.469 303.654 997.168 324.104C1008.01 353.01 1042.56 357.194 1061.68 357.194C1065.33 357.194 1068.42 357.038 1070.67 356.882C1093.5 355.236 1104.76 346.245 1108.32 326.841C1110.32 315.803 1111.01 304.343 1111.68 293.261L1111.84 290.747C1111.88 290.124 1111.59 289.523 1111.08 289.167C1110.59 288.789 1109.95 288.7 1109.37 288.944Z" fill="#FFCC99"/>
<path d="M1113.91 263.909C1115 250.49 1116.11 237.027 1117.25 223.587C1117.29 222.963 1117.03 222.341 1116.51 221.985C1116 221.606 1115.33 221.517 1114.76 221.762C1105.99 225.255 1096.17 226.769 1092.37 227.281C1075.03 229.417 1045.5 222.474 1035.14 203.826C1034.8 203.225 1034.16 202.869 1033.47 202.892C1032.78 202.914 1032.18 203.337 1031.89 203.96C1030.62 206.83 1029.35 209.679 1028.06 212.527C1026.77 215.398 1025.5 218.246 1024.23 221.094C1021.96 226.101 1019.31 231.487 1016.49 237.183L1013.15 243.97C1012.88 244.549 1012.9 245.216 1013.26 245.75C1024.32 263.063 1034.69 276.548 1058.57 279.641C1062.51 280.153 1066.49 280.398 1070.43 280.398C1079.97 280.398 1089.3 278.929 1097.53 276.059C1104.7 273.566 1109.13 269.405 1113.38 265.021C1113.71 264.732 1113.89 264.332 1113.91 263.909Z" fill="#FFCC99"/>
<path d="M1119.18 200.222L1119.34 198.264C1120 189.986 1120.69 181.686 1121.38 173.408L1122.01 165.797C1122.07 165.152 1121.78 164.529 1121.25 164.173C1120.72 163.795 1120.05 163.728 1119.47 163.995C1111.62 167.511 1101.94 166.665 1096.86 165.842C1084.49 163.906 1068.91 156.317 1062.04 143.767C1061.7 143.166 1060.99 142.766 1060.37 142.832C1059.68 142.855 1059.05 143.277 1058.79 143.9L1053.85 154.96C1048.84 166.153 1043.86 177.369 1038.83 188.562C1038.47 189.341 1038.72 190.253 1039.41 190.765C1041.67 192.456 1043.88 194.214 1046.06 195.95C1054.45 202.67 1062.39 209.012 1074.14 211.326C1077.37 211.972 1080.64 212.283 1083.96 212.283C1095.04 212.283 1106.56 208.723 1118.31 201.624C1118.8 201.335 1119.14 200.801 1119.18 200.222Z" fill="#FFCC99"/>
<path d="M1123.72 143.967C1124.7 131.416 1125.39 119.845 1125.84 108.563C1125.86 107.94 1125.55 107.339 1125.03 106.983C1124.5 106.627 1123.85 106.582 1123.28 106.827C1115.49 110.365 1104.18 109.386 1097.49 106.649C1091.23 104.068 1086.56 100.151 1084 95.2778C1083.69 94.6769 1083.22 94.3211 1082.35 94.2988C1081.66 94.3211 1081.04 94.7216 1080.75 95.3446L1079.68 97.659C1075.94 105.692 1072.07 114.015 1068.49 122.115C1067.56 124.229 1066.6 126.343 1065.66 128.434L1064.33 131.416C1063.99 132.151 1064.2 132.996 1064.8 133.53C1071.14 139.116 1077.7 144.879 1085.71 148.506C1089.96 150.442 1098.53 153.291 1106.45 153.291C1112.51 153.291 1118.2 151.622 1121.27 146.571C1121.67 145.925 1122.23 145.591 1122.65 145.435C1123.23 145.235 1123.65 144.657 1123.72 143.967Z" fill="#FFCC99"/>
<path d="M1126.35 90.3589C1126.46 82.2367 1126.44 74.96 1126.28 68.1062C1126.01 58.0034 1125.46 48.813 1124.61 40.0899C1124.05 34.0371 1123.32 27.9622 1122.43 21.9763C1122.27 20.9971 1121.36 20.3295 1120.41 20.4408C1119.43 20.5743 1118.74 21.4644 1118.85 22.4435C1119.31 26.4712 1118.14 29.8314 1115.24 32.702C1115.09 32.8577 1114.98 33.0134 1114.89 33.2137C1110.48 42.5821 1105.05 51.9507 1099.82 61.0075C1096.46 66.8155 1092.97 72.8461 1089.79 78.8098C1089.25 79.8335 1088.54 80.6122 1087.63 81.2352C1087.38 81.391 1087.07 81.8361 1086.91 82.1031C1086.51 82.8375 1086.67 83.7722 1087.32 84.3285C1092.34 88.7346 1097.31 92.8511 1102.74 94.7425C1104.76 95.4324 1106.63 95.6997 1108.39 95.6997C1111.68 95.6997 1114.62 94.7649 1117.51 93.8526C1119.94 93.0737 1122.23 92.3617 1124.74 92.1392C1125.61 92.0724 1126.32 91.2936 1126.35 90.3589Z" fill="#FFCC99"/>
<path d="M875.783 941.971C877.742 941.971 879.722 941.548 881.591 940.614C887.021 937.854 889.558 931.824 891.516 926.394L891.761 925.727C892.428 923.835 893.096 921.899 893.697 919.941C896.79 910.016 899.594 897.199 893.897 885.85C890.782 879.73 883.972 873.922 876.429 875.614C870.732 876.882 867.105 881.889 864.88 885.56C860.963 891.992 849.058 914.4 860.607 933.003C863.722 938.01 869.731 941.971 875.783 941.971Z" fill="#B7ADCC"/>
<path d="M962.036 976.642C962.636 976.642 963.148 976.598 963.615 976.553C972.962 975.463 981.128 965.783 981.863 955.013C982.419 946.957 980.683 932.07 973.651 924.104C970.781 920.833 967.309 919.052 963.348 918.83C957.496 918.474 952.934 920.343 949.708 924.415C942.275 933.895 944.589 953.678 947.772 963.914C951.221 974.907 958.052 976.642 962.036 976.642Z" fill="#B7ADCC"/>
<path d="M997.173 874.413C999.866 877.061 1002.14 877.862 1003.92 877.862C1004.76 877.862 1005.5 877.684 1006.12 877.417C1010.3 875.659 1012.22 868.961 1012.22 863.464C1012.22 863.286 1012.1 845.039 1002.54 843.281C1000.62 842.925 998.776 843.459 997.24 844.794C993.902 847.732 992.611 854.007 992.789 857.367C992.856 858.502 992.856 859.615 992.856 860.727C992.812 865.111 992.79 870.051 997.173 874.413Z" fill="#B7ADCC"/>
<path d="M277.624 668.731C271.927 669.977 268.3 675.006 266.075 678.677C262.158 685.108 250.253 707.517 261.802 726.12C264.94 731.149 270.926 735.11 276.979 735.11C278.937 735.11 280.917 734.688 282.787 733.753C288.216 730.994 290.753 724.963 292.711 719.533L292.956 718.866C293.624 716.974 294.291 715.038 294.892 713.08C297.985 703.155 300.789 690.338 295.092 678.989C291.977 672.847 285.168 667.062 277.624 668.731Z" fill="#B7ADCC"/>
<path d="M277.47 911.554C271.617 911.198 267.033 913.068 263.829 917.14C256.396 926.62 258.71 946.402 261.893 956.639C265.297 967.631 272.151 969.367 276.134 969.367C276.735 969.367 277.247 969.322 277.714 969.278C287.06 968.188 295.227 958.508 295.962 947.738C296.518 939.682 294.782 924.795 287.75 916.828C284.902 913.579 281.431 911.799 277.47 911.554Z" fill="#B7ADCC"/>
<path d="M354.043 988.014C354.11 989.149 354.11 990.261 354.088 991.374C354.088 995.758 354.066 1000.7 358.449 1005.06C361.142 1007.71 363.412 1008.51 365.192 1008.51C366.038 1008.51 366.772 1008.33 367.395 1008.06C371.579 1006.31 373.492 999.607 373.492 994.111C373.492 993.933 373.381 975.686 363.812 973.928C361.899 973.572 360.052 974.106 358.516 975.441C355.156 978.378 353.865 984.676 354.043 988.014Z" fill="#B7ADCC"/>
<path d="M329.435 783.688C332.128 786.336 334.397 787.137 336.178 787.137C337.023 787.137 337.758 786.959 338.381 786.692C342.564 784.934 344.478 778.236 344.478 772.74C344.478 772.562 344.367 754.315 334.798 752.557C332.884 752.201 331.037 752.735 329.502 754.07C326.164 757.007 324.873 763.283 325.051 766.643C325.118 767.778 325.118 768.89 325.118 770.003C325.073 774.364 325.051 779.327 329.435 783.688Z" fill="#B7ADCC"/>
<path d="M893.785 1064.9C885.529 1066.08 882.392 1075.44 879.543 1084.08L879.321 1085.9C878.475 1092.65 877.585 1099.61 879.143 1107.09C880.634 1113.99 882.725 1121.33 887.087 1123.44C888.422 1124.09 889.735 1124.4 890.981 1124.4C892.027 1124.4 893.029 1124.18 894.008 1123.76C899.593 1121.31 902.308 1112.29 903.754 1107.47C903.932 1106.84 904.11 1106.31 904.244 1105.86C906.069 1100.14 911.32 1077.05 903.843 1068.26C901.44 1065.39 898.058 1064.27 893.785 1064.9Z" fill="#B7ADCC"/>
<path d="M957.742 1150.72C954.715 1149.99 950.309 1150.59 946.437 1157.71C942.677 1164.61 941.186 1179.7 945.013 1190.36C946.949 1195.74 950.109 1199.46 954.115 1201.06C955.717 1201.71 957.252 1202.02 958.676 1202.02C960.501 1202.02 962.148 1201.51 963.639 1200.46C970.938 1195.41 971.405 1178.99 971.272 1172.15C971.116 1164.81 965.375 1152.57 957.742 1150.72Z" fill="#B7ADCC"/>
<path d="M897.363 1197.12C896.918 1192.65 896.318 1188.09 894.048 1186.11C891.934 1184.28 889.976 1183.73 888.195 1184.39C885.859 1185.31 884.412 1188.24 883.789 1193.43C883.277 1197.68 883.745 1201.82 884.212 1205.82C884.568 1208.94 884.924 1211.88 884.813 1214.86C884.813 1215.04 884.835 1215.19 884.857 1215.35C885.436 1217.62 886.749 1222.89 890.799 1222.89C891.644 1222.89 892.891 1222.6 894.048 1221.33C898.699 1216.13 897.452 1198.3 897.43 1198.12L897.363 1197.12Z" fill="#B7ADCC"/>
<path d="M990.319 1054.35C984.844 1054.35 984.755 1064.74 984.711 1069.73L984.733 1070.59C985.2 1073.89 985.779 1077.96 987.337 1081.43C987.537 1081.9 987.938 1082.25 988.427 1082.41C988.605 1082.48 988.805 1082.5 988.983 1082.5C989.295 1082.5 989.607 1082.41 989.874 1082.28C993.657 1080.16 994.88 1076.27 995.593 1072.75C995.793 1071.68 996.883 1060.05 993.545 1055.97C992.433 1054.64 991.186 1054.35 990.319 1054.35Z" fill="#B7ADCC"/>
<path d="M304.42 1039.84C298.946 1039.84 298.857 1050.23 298.812 1055.22L298.835 1056.09C299.302 1059.38 299.881 1063.45 301.438 1066.92C301.639 1067.39 302.039 1067.75 302.529 1067.9C302.707 1067.97 302.907 1067.99 303.085 1067.99C303.397 1067.99 303.708 1067.9 303.975 1067.77C307.758 1065.65 308.982 1061.76 309.694 1058.24C309.894 1057.18 310.985 1045.56 307.647 1041.47C306.556 1040.11 305.288 1039.84 304.42 1039.84Z" fill="#B7ADCC"/>
<path d="M945.635 1267.91C944.567 1267.4 943.432 1267.35 942.364 1267.8C939.582 1268.98 937.98 1273.18 936.689 1277.05L936.533 1277.57L938.113 1278.43L936.333 1277.9C936.111 1278.28 936.044 1278.72 936.111 1279.17C936.422 1280.73 936.622 1282.33 936.823 1283.91C937.067 1285.89 937.334 1287.94 937.78 1289.96L938.047 1291.19C938.959 1295.48 939.582 1298.42 941.718 1298.42C941.852 1298.42 942.008 1298.4 942.163 1298.37C944.122 1297.97 945.123 1295.35 946.525 1290.01L946.77 1289.05V1289C946.836 1288.85 951.398 1270.69 945.635 1267.91Z" fill="#B7ADCC"/>
<path d="M589.969 805.742C590.147 811.706 592.817 835.182 602.875 841.057C604.433 841.969 606.057 842.415 607.771 842.415C609.618 842.415 611.532 841.88 613.534 840.834C620.945 836.918 620.722 826.615 620.522 818.003L620.166 816.356C618.719 809.658 617.251 802.738 613.267 796.24C609.573 790.209 605.145 783.979 600.249 783.445C597.557 783.133 595.354 783.823 593.618 785.469C589.19 789.653 589.635 799.066 589.902 804.117L589.969 805.742Z" fill="#B7ADCC"/>
<path d="M502.337 736.424C497.152 743.634 502.203 759.3 504.629 765.708C507.143 772.295 516.022 781.397 523.61 781.397C523.922 781.397 524.233 781.374 524.545 781.352C527.638 781.041 531.577 778.971 532.845 770.982C534.069 763.194 530.397 748.419 523.21 739.695C519.583 735.289 515.399 732.886 511.082 732.708C507.166 732.486 504.228 733.776 502.337 736.424Z" fill="#B7ADCC"/>
<path d="M565.847 717.33C567.783 721.469 569.897 725.585 572.701 726.698C573.858 727.143 574.926 727.365 575.861 727.365C577.018 727.365 578.019 727.009 578.82 726.319C580.734 724.651 581.09 721.402 579.911 716.373C578.976 712.234 577.151 708.495 575.393 704.868C574.014 702.042 572.701 699.371 571.788 696.501C571.744 696.345 571.655 696.19 571.566 696.056C570.275 694.098 567.226 689.514 563.443 690.96C562.642 691.249 561.574 691.917 560.907 693.497C558.281 699.905 565.38 716.328 565.469 716.484L565.847 717.33Z" fill="#B7ADCC"/>
<path d="M518.467 855.944C517.955 855.967 517.488 856.189 517.154 856.567C514.328 859.816 514.417 863.711 514.951 867.471C515.107 868.606 518.022 879.911 522.539 882.603C523.363 883.093 524.119 883.248 524.765 883.248C525.277 883.248 525.744 883.137 526.1 883.004C531.174 881.201 527.991 871.855 526.278 866.848L525.9 865.78C524.275 862.687 522.428 859.148 519.825 856.456C519.446 856.144 518.934 855.944 518.467 855.944Z" fill="#B7ADCC"/>
<path d="M488.604 647.345C488.626 647.523 490.406 666.171 496.77 666.839C496.926 666.861 497.082 666.861 497.215 666.861C498.217 666.861 499.129 666.505 499.864 665.838C502.089 663.79 502.2 659.273 502.111 655.223V654.666C502.133 654.577 502.2 654.266 502.2 654.266C502.267 653.843 502.2 653.42 501.978 653.064C501.176 651.707 500.464 650.282 499.752 648.88C498.84 647.078 497.905 645.209 496.793 643.451L496.281 642.606C493.766 638.444 492.075 635.707 489.894 636.953C488.114 637.977 488.025 640.825 488.537 646.455L488.604 647.345Z" fill="#B7ADCC"/>
<path d="M262.898 495.582C264.234 496.228 265.547 496.539 266.793 496.539C267.839 496.539 268.84 496.316 269.819 495.893C275.404 493.446 278.119 484.433 279.566 479.604C279.744 478.981 279.922 478.447 280.055 478.002C281.88 472.283 287.132 449.185 279.655 440.395C277.229 437.547 273.847 436.457 269.574 437.08C261.318 438.259 258.181 447.628 255.333 456.262L255.11 458.086C254.264 464.829 253.374 471.794 254.932 479.271C256.423 486.147 258.537 493.491 262.898 495.582Z" fill="#B7ADCC"/>
<path d="M333.146 591.581C329.407 598.479 327.894 613.567 331.722 624.226C333.658 629.611 336.817 633.327 340.823 634.929C342.425 635.574 343.961 635.886 345.385 635.886C347.209 635.886 348.856 635.374 350.347 634.328C357.646 629.277 358.113 612.854 357.98 606.022C357.824 598.679 352.083 586.463 344.45 584.593C341.424 583.859 336.995 584.46 333.146 591.581Z" fill="#B7ADCC"/>
<path d="M266.655 595.074C267.501 595.074 268.747 594.785 269.904 593.517C274.555 588.309 273.309 570.485 273.287 570.307L273.176 569.305C272.73 564.832 272.13 560.271 269.86 558.29C267.746 556.466 265.788 555.909 264.007 556.577C261.671 557.489 260.224 560.427 259.601 565.612C259.09 569.862 259.579 574 260.024 578.006C260.38 581.121 260.736 584.059 260.625 587.041C260.625 587.219 260.647 587.375 260.669 587.53C261.293 589.778 262.628 595.074 266.655 595.074Z" fill="#B7ADCC"/>
<path d="M326.85 391.931C327.05 392.398 327.45 392.754 327.94 392.91C328.118 392.977 328.318 392.999 328.496 392.999C328.808 392.999 329.119 392.91 329.386 392.777C333.169 390.663 334.393 386.768 335.105 383.252C335.306 382.184 336.396 370.546 333.058 366.474C331.968 365.139 330.699 364.871 329.854 364.871C324.38 364.871 324.291 375.263 324.246 380.248L324.268 381.116C324.691 384.387 325.27 388.481 326.85 391.931Z" fill="#EB63AD"/>
<path d="M335.954 1108.24C334.886 1107.73 333.751 1107.69 332.683 1108.13C329.901 1109.31 328.299 1113.52 327.008 1117.39L326.852 1117.9L328.41 1118.77L326.63 1118.24C326.407 1118.61 326.341 1119.06 326.408 1119.5C326.719 1121.06 326.919 1122.66 327.12 1124.24C327.364 1126.22 327.631 1128.27 328.076 1130.3L328.343 1131.52C329.256 1135.82 329.879 1138.75 332.037 1138.75C332.171 1138.75 332.327 1138.73 332.482 1138.71C334.441 1138.31 335.442 1135.68 336.844 1130.34L337.089 1129.38V1129.34C337.156 1129.18 341.717 1111 335.954 1108.24Z" fill="#B7ADCC"/>
<path opacity="0.1" d="M1214.31 391.373C1212.69 383.206 1210.69 375.15 1208.37 367.206C1189.77 444.089 1160.91 517.613 1105.68 575.381C1084.22 597.812 1058.86 618.173 1031.46 632.882C1010.95 643.897 982.484 651.329 968.954 671.713C959.697 685.665 959.096 703.379 959.185 719.534C959.297 739.317 960.031 759.1 961.188 778.838C963.324 814.799 965.705 850.336 960.521 886.163C957.049 910.285 949.283 933.539 946.924 957.817C945.099 976.621 945.589 995.513 945.967 1014.38C946.412 1038.1 947.391 1061.87 946.969 1085.59C946.101 1134.3 941.583 1185.17 924.872 1231.28C911.386 1268.49 886.997 1306.12 844.873 1312.66C792.735 1320.76 744.112 1285.18 710.377 1249.51C664.603 1201.08 630.022 1141.82 600.805 1082.3C589.033 1058.31 577.105 1033.72 568.627 1008.33C560.75 984.72 554.096 960.709 545.885 937.21C531.265 895.375 504.717 820.807 449.019 823.9C401.576 826.526 381.459 874.124 373.893 914.446C364.28 965.761 367.952 1019.66 372.892 1071.31C376.764 1111.81 386.711 1153.82 385.976 1194.56C385.353 1228.88 374.405 1262.48 370.711 1296.48C369.064 1311.59 367.062 1329.7 374.961 1343.43C382.038 1355.74 395.567 1363.82 407.584 1370.56C449.397 1394.02 519.56 1414.51 516.645 1475.42C513.685 1537.21 426.543 1539.19 383.195 1531.2C316.192 1518.85 224.955 1476.77 177.201 1551.39C162.292 1574.69 155.438 1608 147.961 1641.27C150.743 1641.96 153.502 1642.71 156.239 1643.49C187.816 1652.46 218.079 1662.14 251.392 1658.18C281.923 1654.6 310.184 1640.75 327.496 1614.74C328.364 1613.41 329.21 1612.05 330.011 1610.67C332.503 1614.63 335.418 1618.39 338.645 1621.95C359.696 1645.07 389.737 1654.44 420.446 1653.37C453.981 1652.21 482.42 1638.08 512.305 1624.42C530.731 1616.01 550.491 1608.38 570.341 1616.83C583.091 1622.24 593.394 1630.99 608.081 1630.18C635.519 1628.69 653.076 1602.9 655.546 1577.53C658.35 1549.23 648.715 1518.68 638.924 1492.44C618.718 1438.41 583.18 1390.46 539.009 1353.56C503.404 1323.83 454.048 1293.72 405.603 1286.45C418.31 1260.74 433.553 1236.4 445.369 1210.27C459.188 1179.65 462.637 1147.86 461.947 1114.54C461.213 1077.2 459.055 1039.86 457.564 1002.52C456.94 987.168 456.362 971.814 455.783 956.459C473.052 989.95 491.633 1022.91 509.39 1056.04C534.714 1103.26 560.349 1150.26 585.562 1197.5C636.543 1293.01 686.745 1388.96 736.213 1485.32C753.926 1519.83 769.57 1570.88 808.111 1587.68C827.026 1595.91 847.922 1596.09 868.172 1595.63C896.344 1594.94 924.538 1593.33 952.665 1591.26C978.434 1589.37 1004.16 1586.95 1029.86 1584.05C1047.46 1582.03 1073.36 1583.48 1088.18 1572.13C1101.54 1561.85 1100.74 1544.58 1100.38 1529.45C1099.64 1500.81 1098.6 1472.19 1097.44 1443.55C1092.84 1328.39 1085.4 1213.37 1075.41 1098.54C1077.13 1100.28 1078.82 1102.06 1080.46 1103.91C1089.07 1113.79 1095.06 1124.96 1102.96 1135.22C1114.87 1150.68 1134.14 1155.87 1148.98 1140.73C1163.93 1125.49 1165.16 1100.97 1165.74 1080.92C1166.65 1050.54 1161.64 1019.84 1152.45 990.884C1143.24 961.667 1129.55 934.496 1113.55 908.438C1097.98 883.025 1082.2 857.991 1076.57 828.239C1064.53 764.396 1093.01 708.341 1124.72 655.535C1217.9 610.674 1232.4 482.52 1214.31 391.373Z" fill="#592639"/>
<path opacity="0.15" d="M503.158 341.104C488.96 313.222 476.632 281.445 457.762 256.366C441.896 235.27 418.82 228.973 393.518 226.614C360.428 223.499 327.027 221.674 293.826 220.272C258.778 218.736 223.574 218.269 188.548 220.561C164.159 222.163 144.176 227.638 139.748 254.63C129.044 319.697 132.048 388.948 131.692 454.66C130.824 597.167 134.496 739.696 142.663 881.98C147.202 960.866 153.122 1039.69 160.443 1118.37C163.647 1152.77 165.672 1188.22 179.18 1220.44C189.594 1245.37 205.571 1267.4 218.589 1290.96C168.832 1303.45 121.256 1343.01 88.8556 1379.77C50.7811 1422.97 22.9207 1475.68 11.1267 1532.18C5.38549 1559.58 0.534386 1591.22 7.56626 1618.81C9.72478 1627.29 13.6858 1635.53 19.0042 1642.6C31.488 1600.48 54.9869 1562.49 93.2839 1538.7C127.197 1517.63 166.584 1508.24 201.766 1489.72C241.665 1468.74 271.061 1434 284.591 1390.86C296.83 1351.85 296.563 1310.3 294.671 1269.87C292.646 1226.65 289.375 1183.5 287.083 1140.31C281.943 1043.51 279.562 946.513 281.854 849.602C283.901 762.883 275.556 667.641 304.952 584.661C316.724 551.46 338.042 518.414 375.048 511.249C395.276 507.332 416.817 511.204 435.798 518.637C466.018 530.475 481.595 561.941 510.634 574.758C547.53 591.025 578.172 565.123 599.49 534.57C583.535 501.725 567.446 468.946 551.157 436.257C535.313 404.436 519.313 372.703 503.158 341.104Z" fill="#FFFCFC"/>
<path opacity="0.15" d="M1000.44 228.059C928.232 212.993 843.961 253.761 797.119 306.633C741.665 369.163 723.929 453.167 742.065 533.811C753.036 582.589 773.375 629.766 775.333 680.235C776.847 718.665 763.962 749.062 744.78 777.991C743.378 818.602 730.316 858.546 735.79 899.491C737.415 911.708 740.975 928.375 754.638 932.203C774.51 937.744 802.081 917.56 815.744 905.744C854.531 872.142 863.054 817.2 863.877 768.6C864.789 714.326 856.467 660.408 849.368 606.756C843.916 565.566 831.321 509.222 854.575 471.481C872.289 442.731 908.36 446.581 937.512 444.622C958.162 443.22 977.945 438.592 994.946 426.242C1015.11 411.6 1021.45 387.656 1027.37 364.468C1057.12 248.131 1071.45 126.386 1106.39 11.2275C1105.5 12.3847 1104.63 13.564 1103.81 14.7657C1103.01 15.1662 1102.29 15.745 1101.67 16.5683C1079.71 47.6777 1066 85.1291 1050.11 119.532C1033.49 155.604 1017.04 191.72 1000.58 227.858C1000.51 227.925 1000.49 227.992 1000.44 228.059Z" fill="#FFFCFC"/>
<path opacity="0.3" d="M1017.44 366.538C1034.2 397.825 1088.83 404.813 1115.31 383.049C1130.88 370.254 1134.38 352.496 1132.02 333.225C1129.66 313.932 1127.83 290.567 1119.96 271.919C1120.42 263.552 1120.85 255.319 1121.51 247.352C1127.59 174.519 1135.93 101.441 1136.82 28.3404C1136.94 19.1055 1122.12 16.5908 1120.31 26.115C1108.96 86.1752 1103.22 147.192 1096.15 207.875C1092.52 238.985 1088.96 270.072 1085.84 301.226C1084.73 312.397 1084.24 324.035 1080.41 334.716C1076.92 344.441 1068.75 348.691 1064.5 357.081C1062.59 359.017 1060.99 361.264 1060.01 364.179C1059.5 365.737 1059.39 367.361 1059.63 368.964C1047.81 367.25 1036.62 362.799 1030.21 356.724C1023.47 350.249 1013.03 358.327 1017.44 366.538Z" fill="#592642"/>
<path opacity="0.3" d="M947.456 661.676C956.691 670.399 966.593 681.437 978.743 685.665C987.978 688.891 997.569 676.808 991.828 668.619C984.64 658.338 972.312 651.751 962.677 643.807C952.952 635.796 943.228 627.807 933.103 620.308C926.36 615.323 916.97 625.092 921.598 631.813C929.12 642.694 937.843 652.597 947.456 661.676Z" fill="#592642"/>
<path opacity="0.3" d="M1195.98 343.105C1192.44 331.222 1175.19 336.207 1177.55 348.179C1184.39 382.804 1177.55 416.139 1170.94 450.052C1164.69 482.185 1156.59 513.606 1141.99 543.135C1117.72 592.27 1062.15 639.823 1005.7 643.896C994.035 644.741 994.458 660.363 1005.7 661.721C1029.8 664.68 1052.25 661.943 1072.9 654.822C1069.72 659.941 1067.27 665.637 1065.18 670.555C1062.84 676.074 1061.04 681.458 1059.86 686.866C1051.54 682.682 1041.03 693.72 1045.82 703.044C1055.43 721.803 1043.41 742.854 1037.58 760.99C1031.84 778.904 1029.06 797.929 1030.22 816.755C1032.58 855.03 1051.22 885.962 1072.9 916.47C1094.88 947.402 1113.27 978.889 1124.21 1015.52C1128.8 1030.83 1143.77 1078.05 1119.61 1084.7C1109.88 1087.37 1099.51 1082.79 1091.72 1076.38C1075.26 1062.85 1061.48 1038.59 1036.25 1047C1012.15 1055.06 1015.49 1081.21 1015.66 1101.72C1016.18 1163.39 1015.55 1224.89 1014.44 1286.49C1013.86 1318.4 1014.08 1350.51 1013.26 1382.53C1014.95 1399.38 1013.19 1417.11 1010.72 1433.67C1010.66 1434.58 1010.61 1435.49 1010.52 1436.41C1009.01 1454.88 1005.23 1473.79 997.64 1490.57C993.345 1501.87 987.648 1512.62 979.749 1522.48C952.333 1556.68 904.979 1579.07 860.496 1575.11C861.653 1577.18 863.745 1578.82 866.994 1579.58C873.803 1581.14 880.679 1582.05 887.556 1582.47C889.759 1586.28 894.076 1589.08 899.639 1588.3C932.239 1583.85 973.473 1587.72 1003.51 1571.84C1005.98 1571.72 1008.48 1571.55 1010.92 1571.46C1030.13 1570.81 1054.14 1575.69 1071.12 1564.76C1086.18 1555.08 1091.28 1537.37 1091.35 1518.14C1098.42 1489.63 1092.41 1456.86 1090.06 1428.88C1088.83 1414.22 1087.61 1399.56 1086.41 1384.89C1086.65 1372.47 1086.63 1360.03 1085.29 1347.68C1084.45 1340.03 1083.05 1332.51 1081.49 1325.01C1077.37 1275.52 1073.05 1226.03 1067.8 1176.69C1067.36 1172.6 1065.2 1169.71 1062.4 1168.06C1059.81 1150.41 1059.59 1131.72 1058.5 1113.99C1058.1 1107.6 1054.87 1094.31 1057.32 1088.39C1062.31 1076.33 1068.94 1092.6 1073.59 1098.16C1083.14 1109.58 1095.4 1115.05 1107.81 1116.03C1107.5 1118.24 1107.88 1120.57 1109.24 1122.73C1107.86 1120.51 1109.68 1124.13 1110.37 1125.25C1111.15 1126.47 1112.11 1127.6 1113.04 1128.72C1114.27 1130.21 1115.54 1131.85 1116.94 1133.19C1118.78 1134.93 1120.99 1136.57 1123.06 1138C1124.84 1139.24 1126.75 1139.84 1128.73 1140.22C1133.14 1144 1141.06 1144.09 1144 1138.13C1150.32 1125.22 1153.99 1110.49 1155.81 1095.2C1166.2 1081.99 1169.54 1063.83 1158.66 1044.51C1157.95 1043.24 1157.06 1042.22 1156.04 1041.4C1155.46 1034.99 1154.72 1028.76 1153.88 1022.77C1148 981.314 1133.09 946.512 1108.97 912.354C1084.2 877.283 1058.72 843.036 1058.66 798.041C1058.61 771.181 1076.28 741.007 1073.5 714.193C1074.03 713.659 1074.5 713.013 1074.83 712.257C1079.53 701.642 1082.89 690.271 1088.54 680.101C1093.77 670.666 1103.5 662.121 1102.87 650.638C1102.7 647.456 1101.27 644.742 1099.16 642.917C1102.67 640.937 1106.12 638.867 1109.5 636.619C1150.18 626.316 1199.47 585.616 1195.67 540.955C1195.47 538.663 1194.69 536.593 1193.55 534.813C1204.1 511.848 1211.24 487.415 1214.49 462.113C1219.63 422.103 1207.26 381.135 1195.98 343.105Z" fill="#592642"/>
<path opacity="0.3" d="M388.537 1323.63C413.771 1329.39 440.92 1320.87 467.156 1329.06C475.167 1331.57 482.622 1320.02 475.701 1314.37C463.684 1304.56 450.644 1302.09 435.29 1301.24C427.568 1300.82 419.913 1301.51 412.392 1301.76C410.367 1299.62 407.674 1298.06 404.737 1297.71C400.776 1297.24 396.859 1296.95 392.876 1296.64C392.031 1296.57 391.007 1296.44 389.916 1296.28C390.072 1295.95 390.25 1295.61 390.406 1295.28C390.428 1295.21 390.473 1295.19 390.517 1295.12C400.175 1277.9 410.834 1262.26 418.712 1244.01C426.322 1226.36 432.82 1208.43 437.604 1189.8C447.551 1150.99 447.796 1110.65 446.038 1070.84C444.235 1030.45 440.208 990.039 441.899 949.561C442.322 939.681 442.967 929.711 444.325 919.92C456.43 932.649 464.152 952.453 471.918 967.83C509.035 1041.2 543.572 1115.9 581.668 1188.78C618.942 1260.05 663.292 1326.92 702.968 1396.82C724.553 1434.87 740.798 1475.1 760.825 1513.85C769.793 1531.18 780.986 1550.61 796.853 1562.67C810.605 1573.11 829.742 1580.8 846.454 1584.74C857.58 1587.37 865.391 1571.35 854.51 1565.65C822.421 1548.85 803.284 1506.93 789.376 1474.93C772.263 1435.63 753.994 1397.6 732.475 1360.46C689.772 1286.71 644.51 1215.08 605.991 1138.93C586.386 1100.19 567.627 1061.05 548.757 1021.93C530.064 983.184 512.262 942.284 488.808 906.145C472.452 880.955 434.155 850.091 409.054 884.405C398.818 898.402 398.84 919.542 397.638 936.187C396.014 958.551 396.414 981.004 397.438 1003.39C399.596 1050.41 404.87 1097.61 400.598 1144.67C399.975 1151.5 399.107 1158.22 398.061 1164.92C397.527 1167.37 396.948 1169.8 396.37 1172.24C387.958 1201.95 375.897 1230.68 365.283 1260.1C359.764 1275.36 346.724 1300.15 360.988 1314.13C368.02 1321.07 378.301 1323.81 388.537 1323.63Z" fill="#592642"/>
<path opacity="0.3" d="M137.925 1617.41C128.067 1616.23 127.578 1630.69 135.722 1633.68C187.616 1652.7 249.189 1666.28 296.009 1627.58C312.231 1614.18 321.199 1597.32 325.894 1577.76C327.452 1606.55 355.446 1634.23 384.352 1639.37C390.761 1640.51 396.28 1639.33 400.597 1636.66C413.392 1640.46 426.967 1639.86 440.185 1631.92C442.388 1630.61 443.968 1628.83 445.036 1626.82C468.601 1625.49 491.21 1614.03 515.332 1607.55C534.803 1602.32 553.852 1608.78 573.456 1606.26C574.725 1606.11 575.949 1605.82 577.173 1605.59C577.751 1605.93 578.352 1606.24 578.997 1606.42C596.777 1611.69 621.144 1612.6 632.159 1594.58C643.731 1575.64 644.532 1551.94 630.78 1534.21C630.468 1533.81 630.067 1533.54 629.711 1533.21C628.621 1511.95 620.187 1490.24 612.065 1469.41C611.442 1467.85 610.574 1466.6 609.55 1465.62C600.494 1435.96 584.449 1408.26 560.95 1387.87C554.23 1382.04 541.858 1389.79 547.754 1398.06C566.959 1425.08 582.691 1453.96 589.857 1486.59C593.373 1502.63 594.641 1519.05 593.818 1535.45C593.417 1543.57 591.859 1551.45 590.747 1559.35C587.364 1563.96 582.958 1567.74 577.262 1570.32C562.041 1577.24 542.614 1569.57 526.659 1570.21C511.215 1570.86 496.551 1575.37 481.998 1580.2C468.713 1584.61 454.271 1591.02 439.984 1589.93C423.851 1588.7 411.367 1576.24 400.708 1565.29C386.511 1550.7 371.869 1535.74 353.822 1528.51C353.154 1528.09 352.487 1527.62 351.819 1527.24C324.626 1512.02 298.435 1524.93 292.515 1554.83C289.934 1567.87 289.444 1580 281.033 1591.06C272.688 1602.03 260.271 1610.27 247.587 1615.27C213.384 1628.76 173.463 1621.66 137.925 1617.41Z" fill="#592642"/>
<path opacity="0.3" d="M650.741 934.629C652.565 941.66 662.779 943.085 666.34 936.676C679.981 912.042 684.387 885.829 687.836 858.613C700.453 847.086 710.623 831.264 711.558 813.774C712.003 805.34 710.779 796.15 706.996 788.495C704.192 782.82 696.515 779.082 692.821 774.342C692.042 768.267 690.818 762.192 689.038 756.117C680.76 728.078 668.454 700.663 657.016 673.804C644.688 644.854 631.626 616.147 615.337 589.199C610.619 581.411 597.178 586.417 600.205 595.586C618.096 649.971 640.237 703.178 652.343 759.344C665.005 817.98 635.587 876.015 650.741 934.629Z" fill="#592642"/>
<path opacity="0.3" d="M722.263 1101.5C713.072 1102.73 705.24 1105.95 697.985 1111.87C690.731 1117.79 682.987 1124.24 683.343 1134.32C683.343 1134.61 683.432 1134.88 683.454 1135.17C676.422 1131.23 670.258 1122.93 665.452 1117.1C659.911 1110.38 647.894 1117.59 650.765 1125.65C660.289 1152.42 685.813 1180.3 715.142 1158.54C746.185 1135.5 752.504 1090.26 784.482 1068.43C793.472 1062.29 787.686 1049.74 777.316 1051.43C755.063 1055.06 737.773 1079.16 725.556 1096.36C724.466 1097.96 723.353 1099.7 722.263 1101.5Z" fill="#592642"/>
<path opacity="0.5" d="M1053.36 197.262C1071.65 147.037 1094.04 98.749 1115.13 49.7039C1119.05 40.6026 1106.97 32.814 1101.49 41.7374C1070.43 92.4514 1046.55 148.083 1025.34 203.537C1015.33 229.728 1004.56 256.477 998.017 283.803C992.609 306.434 990.05 333.827 1007.59 351.719C1016.26 360.575 1029.73 351.34 1027.39 340.191C1022.03 314.734 1021.36 296.109 1028.81 270.674C1036.05 245.929 1044.52 221.495 1053.36 197.262Z" fill="#FFF7F7"/>
<path opacity="0.5" d="M131.138 1359.15C101.631 1384.78 76.463 1416.11 57.4592 1450.25C38.4553 1484.36 24.5251 1522.28 20.03 1561.18C16.3138 1593.16 24.3025 1631.74 55.8124 1646.99C64.3352 1651.1 72.6133 1641.07 66.0042 1633.79C45.5984 1611.31 57.971 1571.82 64.2908 1545.69C71.8789 1514.29 84.2737 1484.74 101.386 1457.32C113.291 1438.23 127.377 1420.67 143.199 1404.76C163.583 1391.39 186.214 1381.13 210.803 1371.96C228.516 1365.35 252.927 1356.47 260.961 1337.67C264.922 1328.41 263.364 1317.51 259.893 1306.76C259.403 1301.89 258.29 1296.95 256.71 1292.01C256.666 1291.63 256.621 1291.25 256.555 1290.87C253.907 1275.45 246.007 1261.74 239.509 1247.73C231.587 1230.61 225.445 1212.77 220.483 1194.59C201.635 1125.42 203.348 1050.34 199.654 979.202C191.465 821.831 185.813 664.392 184.278 506.82C183.699 447.116 177.068 391.952 198.386 334.362C201.234 326.64 204.528 318.895 209.846 312.62C231.142 287.519 278.607 288.521 308.381 286.184C353.265 282.646 399.907 279.775 435.445 312.019C488.807 360.441 516.2 436.657 551.804 497.941C557.301 507.376 570.296 499.098 566.113 489.596C553.518 461.002 539.877 432.474 525.146 404.458C511.238 357.26 495.972 312.309 456.273 279.642C450.755 275.102 445.058 271.163 439.228 267.714C428.302 259.124 416.508 251.67 403.757 246.085C389.114 239.654 369.087 232.088 356.603 246.174C356.559 246.24 356.514 246.307 356.47 246.352C353.443 246.263 350.395 246.196 347.346 246.218C328.031 243.014 309.205 244.415 289.177 244.326C285.016 244.304 280.855 244.215 276.693 244.126C272.621 243.548 268.438 243.436 264.232 243.748C247.787 243.125 231.342 242.035 214.942 240.455C201.657 239.187 187.015 237.74 175.332 243.704C173.24 234.536 157.53 235.025 155.839 244.371C152.545 262.53 150.943 281.066 149.875 299.669C147.338 309.371 146.025 318.984 148.495 328.531C148.161 336.297 147.85 344.019 147.427 351.719C145.447 388.948 145.269 426.288 144.823 463.561C143.978 536.906 145.602 610.318 147.383 683.618C149.185 758.165 151.811 832.69 155.26 907.17C158.487 976.598 160.801 1046.61 170.726 1115.46C175.888 1151.28 182.942 1187.27 194.403 1221.65C200.255 1239.16 207.665 1255.89 215.676 1272.49C220.995 1283.53 227.248 1297.44 223.465 1308.41C189.885 1307.83 154.726 1338.65 131.138 1359.15Z" fill="#FFF7F7"/>
<path opacity="0.5" d="M981.928 260.814C995.814 258.567 991.319 238.362 978.768 237.538C928.788 234.222 879.81 254.049 841.758 286.027C838.976 284.981 835.661 285.226 832.79 287.807C761.982 351.383 721.237 474.018 766.032 563.229C766.877 564.898 767.923 566.211 769.125 567.19C771.728 583.902 774.577 600.57 777.292 617.259C783.3 654.243 791.689 696.457 781.386 733.374C775.356 754.982 765.653 774.942 754.238 794.102C751.234 793.345 747.918 793.946 745.203 796.728C712.892 830.018 688.792 875.547 671.035 918.006C666.161 929.644 661.978 941.437 658.484 953.365C648.092 983.673 643.619 1014.83 646.156 1046.29C646.267 1050.32 646.401 1054.35 646.668 1058.38C646.779 1060.13 647.335 1061.56 648.137 1062.76C650.963 1080.65 656.081 1098.63 663.713 1116.57C667.585 1125.65 681.115 1118.95 679.068 1110.09C663.424 1042.09 676.108 971.501 712.047 912.375C741.887 863.286 780.852 819.693 803.016 766.153C815.166 736.779 822.042 705.759 820.373 673.893C818.504 638.6 810.537 603.44 804.818 568.637C793.581 500.232 785.013 424.662 821.575 362.042C855.555 303.874 917.083 271.295 981.928 260.814Z" fill="#FFF7F7"/>
<path opacity="0.5" d="M996.574 665.772C994.015 681.438 995.817 699.73 1006.34 712.347C1011.22 718.199 1022.57 711.902 1019.54 704.67C1014.67 692.965 1009.93 683.152 1011.82 669.978C1013.22 660.098 998.243 655.669 996.574 665.772Z" fill="#FFF7F7"/>
<path d="M1100.36 1529.47C1099.62 1500.83 1098.58 1472.21 1097.42 1443.57C1092.81 1328.41 1085.38 1213.39 1075.39 1098.57C1077.1 1100.3 1078.79 1102.08 1080.44 1103.93C1089.05 1113.81 1095.04 1124.98 1102.94 1135.24C1114.84 1150.7 1134.11 1155.89 1148.96 1140.76C1163.91 1125.51 1165.13 1100.99 1165.71 1080.94C1166.62 1050.57 1161.62 1019.86 1152.43 990.907C1143.21 961.689 1129.53 934.518 1113.53 908.46C1097.95 883.047 1082.18 858.013 1076.55 828.261C1064.51 764.418 1092.99 708.363 1124.7 655.558C1217.9 610.674 1232.4 482.52 1214.31 391.373C1203.43 336.653 1177.19 285.628 1136.21 247.442C1141.1 195.905 1145.02 143.989 1145.86 92.6961C1146.22 71.6895 1145.51 50.7052 1142.93 29.8321C1141.59 18.7947 1141.1 4.61974 1128.42 1.0593C1117.31 -2.03383 1109.66 6.28882 1103.81 14.7449C1103 15.1454 1102.29 15.7239 1101.67 16.5472C1079.71 47.6566 1066 85.1079 1050.11 119.511C1033.49 155.582 1017.04 191.699 1000.57 227.837C1000.53 227.904 1000.51 227.993 1000.46 228.06C928.253 212.995 843.982 253.762 797.14 306.634C741.686 369.165 723.951 453.169 742.087 533.813C753.057 582.591 773.396 629.767 775.354 680.236C777.313 730.305 754.882 766.754 725.864 804.095C669.899 680.414 611.685 557.757 551.158 436.212C535.336 404.413 519.336 372.703 503.181 341.104C488.984 313.221 476.656 281.444 457.785 256.365C441.919 235.27 418.843 228.972 393.542 226.613C360.452 223.498 327.05 221.673 293.849 220.271C258.801 218.736 223.597 218.268 188.571 220.561C164.182 222.163 144.199 227.637 139.771 254.63C129.068 319.697 132.072 388.947 131.716 454.659C130.848 597.166 134.519 739.695 142.686 881.979C147.226 960.865 153.145 1039.68 160.466 1118.37C163.671 1152.77 165.696 1188.22 179.203 1220.44C189.617 1245.37 205.595 1267.4 218.613 1290.96C168.855 1303.45 121.279 1343.01 88.879 1379.77C50.8045 1422.97 22.9441 1475.68 11.1501 1532.18C5.40892 1559.58 0.557824 1591.22 7.5897 1618.81C13.9095 1643.54 35.1386 1666.34 62.4873 1663.7C77.1518 1662.25 86.0084 1652.06 97.8024 1644.76C116.094 1633.41 136.767 1637.93 156.305 1643.49C187.882 1652.46 218.145 1662.14 251.458 1658.18C281.989 1654.6 310.249 1640.75 327.562 1614.74C328.43 1613.41 329.276 1612.05 330.077 1610.67C332.569 1614.63 335.484 1618.39 338.711 1621.95C359.762 1645.07 389.803 1654.44 420.512 1653.37C454.047 1652.21 482.486 1638.08 512.371 1624.42C530.797 1616.01 550.557 1608.38 570.406 1616.83C583.157 1622.24 593.46 1630.99 608.147 1630.18C635.585 1628.69 653.142 1602.9 655.612 1577.53C658.416 1549.23 648.781 1518.68 638.989 1492.44C618.784 1438.41 583.246 1390.46 539.075 1353.56C503.47 1323.83 454.114 1293.72 405.669 1286.45C418.376 1260.74 433.619 1236.4 445.435 1210.27C459.254 1179.65 462.703 1147.86 462.013 1114.54C461.279 1077.2 459.12 1039.86 457.63 1002.52C457.006 987.169 456.428 971.814 455.849 956.46C473.117 989.95 491.698 1022.91 509.456 1056.04C534.78 1103.26 560.415 1150.26 585.627 1197.5C636.608 1293.01 686.811 1388.96 736.279 1485.32C753.992 1519.83 769.635 1570.88 808.177 1587.68C827.092 1595.91 847.987 1596.09 868.237 1595.63C896.409 1594.94 924.604 1593.33 952.731 1591.26C978.5 1589.37 1004.22 1586.95 1029.93 1584.05C1047.53 1582.03 1073.43 1583.48 1088.25 1572.13C1101.51 1561.87 1100.71 1544.6 1100.36 1529.47ZM1088.56 82.7493C1089.65 82.015 1090.59 81.0357 1091.32 79.656C1099.42 64.4796 1109.17 49.5035 1116.47 33.9933C1119.76 30.7221 1121.14 26.8502 1120.61 22.2438C1121.52 28.2298 1122.23 34.216 1122.79 40.2465C1123.7 49.5259 1124.21 58.872 1124.46 68.1514C1124.63 75.5615 1124.63 82.9495 1124.52 90.3152C1117.05 90.9382 1111.42 95.7894 1103.25 93.0078C1098 91.2053 1092.9 86.8658 1088.45 82.9493C1088.5 82.9048 1088.52 82.8383 1088.56 82.7493ZM1070.11 122.893C1074.03 114.037 1078.21 105.113 1082.38 96.1452C1085.2 101.508 1090.32 105.692 1096.77 108.34C1104.07 111.322 1115.75 112.212 1123.99 108.496C1123.52 120.29 1122.79 132.084 1121.87 143.833C1121.01 144.189 1120.21 144.812 1119.65 145.68C1113.6 155.627 1094.44 150.576 1086.38 146.904C1078.61 143.388 1072.27 137.802 1065.91 132.217C1067.33 129.124 1068.73 126.009 1070.11 122.893ZM1060.43 144.634C1067.33 157.229 1082.89 165.507 1096.57 167.643C1104.05 168.845 1112.97 168.867 1120.21 165.641C1119.98 168.177 1119.8 170.714 1119.58 173.251C1118.83 182.174 1118.09 191.143 1117.38 200.066C1104.49 207.832 1089.61 212.505 1074.48 209.546C1060.1 206.719 1051.31 197.351 1040.47 189.295C1047.15 174.431 1053.78 159.521 1060.43 144.634ZM1025.92 221.852C1028.46 216.11 1031.04 210.413 1033.58 204.694C1043.92 223.32 1073.54 231.442 1092.61 229.083C1098.53 228.327 1107.52 226.613 1115.44 223.454C1114.31 236.872 1113.2 250.334 1112.11 263.775C1107.81 268.203 1103.65 272.053 1096.97 274.368C1085.07 278.507 1071.25 279.441 1058.83 277.839C1035.58 274.835 1025.63 261.684 1014.82 244.772C1018.8 236.627 1022.76 228.861 1025.92 221.852ZM1005.38 265.4C1015.15 283.002 1039.94 295.13 1057.5 297.333C1068.31 298.713 1092.63 297.622 1110.04 290.612C1109.3 302.629 1108.7 314.756 1106.54 326.506C1102.8 346.867 1090.08 353.654 1070.54 355.056C1044.64 356.948 1009.32 351.318 998.861 323.457C992.141 305.544 997.281 285.005 1005.38 265.4ZM1071.36 1556.33C1063.75 1561.22 1046.26 1560.13 1036.85 1561.22C1011.14 1564.27 985.42 1566.79 959.652 1568.74C936.242 1570.52 912.765 1571.9 889.288 1572.84C867.503 1573.68 842.981 1576.53 821.93 1569.43C800.634 1562.18 791.043 1543.73 781.385 1524.97C769.368 1501.72 757.574 1478.33 745.647 1455.03C701.052 1368.22 655.835 1281.79 609.994 1195.63C584.27 1147.32 558.523 1098.99 532.221 1051.01C507.008 1004.95 482.33 957.861 454.025 913.534C453.223 908.861 451.911 904.277 449.73 899.96C446.681 893.974 439.493 895.531 436.2 899.915C433.329 901.74 431.549 905.322 432.907 909.395C430.192 923.303 433.352 939.547 433.93 953.277C434.665 969.678 435.354 986.123 436.044 1002.52C437.491 1037.57 439.249 1072.64 440.295 1107.69C441.43 1144.05 438.381 1177.52 421.892 1210.54C410.721 1232.91 396.523 1253.98 388.023 1277.5C382.771 1292.01 373.981 1300.87 394.632 1308.34C414.593 1315.53 435.644 1318.11 455.493 1327.37C480.706 1339.1 504.227 1354.07 525.567 1371.9C562.841 1402.92 593.06 1442.7 612.42 1487.19C622.189 1509.62 629.955 1533.67 632.714 1558.02C634.561 1574.17 633.248 1592.53 619.096 1603.01C605.455 1613.14 593.705 1603.37 580.999 1597.25C531.865 1573.62 484.288 1620.95 437.224 1629.25C410.409 1633.97 381.08 1630.85 360.207 1611.94C351.35 1603.88 344.341 1593.76 340.113 1582.7C342.471 1567.1 339.668 1551.05 330.677 1536.63C326.872 1530.54 316.057 1534.39 318.594 1541.75C326.427 1564.47 319.729 1589.66 304.775 1608.09C287.018 1629.94 258.512 1637.48 231.297 1636.86C183.498 1635.77 129.312 1596.18 84.3172 1627C72.679 1634.99 62.5317 1646.41 47.5556 1638.46C31.9565 1630.27 27.8619 1612.29 27.2389 1596.07C26.3043 1571.55 30.3543 1546.58 36.5628 1522.95C48.9798 1476.06 72.857 1432.16 104.945 1395.82C126.13 1371.83 149.718 1349 177.089 1332.18C195.269 1320.96 213.027 1315.6 233.477 1310.32C236.014 1309.68 238.662 1308.99 240.665 1307.23C245.538 1303.02 242 1295.61 240.131 1290.9C231.719 1269.8 219.614 1251.02 208.732 1230.95C193.066 1202.09 187.748 1171.75 184.566 1139.42C178.291 1075.22 173.128 1010.85 168.811 946.468C160.066 816.223 155.081 685.755 153.902 555.22C153.323 489.574 153.256 423.84 155.281 358.239C156.305 326.595 156.216 293.594 161.045 262.284C162.78 251.025 166.052 246.018 177.779 243.659C184.633 242.279 192.154 242.502 199.164 242.212C216.699 241.367 234.212 241.167 251.792 241.367C283.39 241.723 315.012 243.503 346.544 245.661C373.18 247.486 414.014 243.659 434.665 263.798C444.345 273.233 449.952 286.94 456.072 298.823C463.66 313.51 471.248 328.286 478.792 343.062C493.857 372.569 508.811 402.187 523.609 431.828C588.342 561.539 650.45 692.564 709.998 824.745C661.799 890.458 635.518 965.449 632.781 1048.01C631.846 1076.2 637.365 1141.27 678.043 1141.42C697.091 1141.47 708.863 1122.98 720.501 1110.72C739.26 1090.98 761.58 1076.36 785.235 1063.21C793.579 1058.56 787.949 1044.11 778.581 1047.45C742.91 1060.16 718.054 1083.23 692.574 1110.16C670.588 1133.41 658.639 1099.41 655.568 1080.87C652.452 1062.16 653.966 1042.44 655.724 1023.69C659.685 981.627 669.988 939.481 687.812 901.095C704.324 865.535 728.446 836.361 752.122 805.475C774.909 775.789 792.4 744.435 796.205 706.627C800.344 665.66 789.819 624.871 778.559 585.862C766.72 544.85 754.059 503.838 756.106 460.668C757.886 422.994 769.502 385.921 788.951 353.654C811.048 317.004 843.426 287.897 881.878 269.205C917.705 251.826 954.089 248.02 992.452 245.55C982.216 267.914 972.781 291.591 975.763 316.181C978.856 341.393 996.013 360.241 1019.24 369.276C1041.63 378.021 1070.23 379.801 1093.39 372.903C1118.6 365.382 1126.57 343.062 1129.11 319.051C1130.62 304.565 1132.16 289.989 1133.6 275.391C1167.14 312.041 1187.43 358.283 1195.33 407.64C1204.52 464.807 1199.47 533.501 1170.83 584.816C1142.46 635.597 1080.62 657.894 1024.81 650.039C995.011 645.855 966.75 633.816 941.738 617.26C917.06 600.971 898.657 576.515 873.956 560.827C871.82 559.492 868.838 561.74 869.595 564.21C883.347 607.825 937.933 643.319 978.144 659.407C981.348 660.72 984.597 661.878 987.868 662.968C979.078 686.489 990.272 719.735 1018.87 721.359C1032.22 722.116 1044.52 714.905 1052.53 704.625C1058.77 696.614 1065.42 682.951 1062.48 672.314C1073.07 671.468 1083.56 669.733 1093.88 666.973C1073.01 700.731 1059.43 740.83 1055.61 779.149C1050.33 831.955 1069.76 874.458 1096.91 918.296C1127.44 967.586 1148.44 1022.24 1147 1080.99C1146.66 1094 1146.73 1111.14 1139.28 1122.53C1127.77 1140.2 1116.85 1122.24 1108.83 1110.69C1099.07 1096.65 1085.89 1080.14 1069.94 1071.46C1068.22 1070.02 1066.13 1069.06 1063.99 1068.7C1062.17 1067.97 1060.37 1067.37 1058.52 1066.86C1054.74 1065.88 1050.71 1070.02 1052.53 1073.64C1051.78 1075.16 1051.33 1077.02 1051.56 1079.18C1060.43 1177.85 1067.44 1276.68 1072.43 1375.64C1074.85 1424.48 1076.81 1473.39 1078.28 1522.32C1078.37 1532.81 1082.2 1549.38 1071.36 1556.33ZM1044.5 672.87C1043.26 677.454 1043.12 682.305 1041.01 686.912C1037.71 693.988 1031.22 701.02 1023.16 702.289C1003.53 705.382 1002.22 681.638 1002.15 667.151C1016.08 670.689 1030.28 672.625 1044.5 672.87Z" fill="#3D2938"/>
<path d="M894.293 431.362C916.501 428.87 933.458 404.681 928.762 382.851C926.114 370.501 919.594 362.089 911.339 357.238C888.507 343.731 852.725 357.639 851.056 391.241C849.943 413.538 872.085 433.854 894.293 431.362Z" fill="#3D2938"/>
<path d="M886.754 957.171C900.684 951.608 907.694 936.076 911.21 921.522C913.835 910.774 915.282 899.537 913.235 888.633C911.232 877.751 905.402 867.226 895.967 861.418C890.96 858.325 886.242 856.656 881.769 856.233C857.202 853.696 841.892 887.409 839.89 909.662C838.688 922.947 841.848 937.033 850.638 947.046C859.427 957.105 874.381 962.067 886.754 957.171ZM862.142 932.026C853.353 917.873 858.404 899.625 866.415 886.474C868.885 882.402 872.178 878.374 876.785 877.373C883.104 875.948 889.313 880.889 892.25 886.674C897.302 896.733 895.343 908.46 891.917 919.408C891.271 921.589 890.492 923.725 889.78 925.795C887.933 930.957 885.597 936.543 880.746 939.013C874.27 942.262 865.992 938.19 862.142 932.026Z" fill="#3D2938"/>
<path d="M966.281 993.577C977.852 992.42 988.066 984.319 993.496 974.061C998.903 963.758 999.927 951.564 998.169 940.059C996.634 930.045 992.94 920.165 986.33 912.51C979.677 904.855 969.886 899.67 959.761 899.915C958.893 899.915 957.981 899.981 957.157 900.092C930.276 903.208 922.065 943.797 928.496 965.205C933.458 981.56 949.302 995.268 966.281 993.577ZM963.232 920.632C977.207 921.477 980.767 944.22 980.033 954.879C978.831 972.726 956.178 984.854 949.524 963.38C945.764 951.297 941.87 919.274 963.232 920.632Z" fill="#3D2938"/>
<path d="M996.699 826.883C969.217 832.869 976.049 885.63 999.392 892.684C1019.71 898.848 1029.66 876.506 1028.43 859.883C1027.23 843.839 1016.08 822.677 996.699 826.883ZM998.435 873.124C993.561 868.295 994.874 862.821 994.541 857.257C994.318 853.163 996.677 844.039 1002.15 845.063C1008.69 846.264 1010.36 858.414 1010.36 863.466C1010.38 870.653 1006.69 881.246 998.435 873.124Z" fill="#3D2938"/>
<path d="M282.992 649.393C258.425 646.856 243.115 680.569 241.112 702.822C239.911 716.107 243.07 730.193 251.86 740.206C260.65 750.265 275.604 755.227 287.977 750.332C301.907 744.769 308.916 729.236 312.432 714.682C315.036 703.934 316.505 692.697 314.457 681.793C312.455 670.911 306.624 660.386 297.189 654.578C292.16 651.507 287.443 649.816 282.992 649.393ZM293.139 712.524C292.494 714.705 291.737 716.841 291.003 718.911C289.156 724.073 286.819 729.659 281.968 732.129C275.471 735.4 267.192 731.328 263.343 725.164C254.553 711.011 259.604 692.764 267.638 679.612C270.108 675.54 273.401 671.512 278.007 670.511C284.327 669.087 290.536 674.027 293.473 679.813C298.524 689.849 296.566 701.576 293.139 712.524Z" fill="#3D2938"/>
<path d="M307.625 966.784C313.032 956.481 314.056 944.287 312.298 932.783C310.762 922.769 307.069 912.888 300.459 905.233C293.806 897.579 284.015 892.393 273.89 892.638C273.022 892.638 272.109 892.705 271.286 892.816C244.405 895.932 236.193 936.498 242.624 957.928C247.565 974.306 263.409 988.014 280.41 986.3C291.981 985.143 302.195 977.065 307.625 966.784ZM294.162 947.625C292.96 965.472 270.329 977.599 263.653 956.125C259.87 944.042 255.998 912.02 277.361 913.378C291.336 914.201 294.896 936.966 294.162 947.625Z" fill="#3D2938"/>
<path d="M358.006 957.528C330.547 963.514 337.356 1016.28 360.699 1023.33C381.016 1029.49 390.963 1007.15 389.739 990.529C388.515 974.485 377.389 953.322 358.006 957.528ZM359.742 1003.77C354.891 998.941 356.182 993.466 355.87 987.903C355.648 983.808 358.006 974.685 363.481 975.708C370.023 976.91 371.692 989.06 371.692 994.111C371.692 1001.3 367.976 1011.89 359.742 1003.77Z" fill="#3D2938"/>
<path d="M328.965 736.157C301.483 742.143 308.314 794.904 331.657 801.958C351.974 808.122 361.921 785.781 360.697 769.158C359.495 753.114 348.347 731.951 328.965 736.157ZM330.7 782.398C325.827 777.569 327.14 772.095 326.806 766.532C326.584 762.437 328.942 753.314 334.417 754.337C340.959 755.539 342.628 767.689 342.628 772.74C342.65 779.928 338.956 790.52 330.7 782.398Z" fill="#3D2938"/>
<path d="M911.828 1052.86C908.534 1050.32 904.573 1048.76 900.479 1048.18C896.518 1047.61 892.423 1047.94 888.574 1049.1C861.981 1057.2 860.958 1092.07 866.477 1114.39C868.146 1121.17 870.749 1127.92 875.511 1133.03C880.273 1138.15 887.572 1141.33 894.337 1139.82C899.856 1138.58 904.284 1134.59 907.911 1130.28C920.44 1115.5 926.247 1095.25 923.488 1076.09C922.197 1067.3 918.86 1058.31 911.828 1052.86ZM902.526 1105.26C900.968 1110.05 897.185 1126.27 887.862 1121.77C883.656 1119.75 881.697 1110.43 880.852 1106.53C879.25 1098.88 880.407 1091.58 881.319 1084.28C884.034 1076.16 886.949 1067.7 894.026 1066.68C912.117 1064.01 904.885 1097.87 902.526 1105.26Z" fill="#3D2938"/>
<path d="M946.346 1136.71C916.905 1149.03 926.852 1214.04 958.384 1217.46C983.463 1220.18 988.181 1186.58 986.757 1168.15C985.31 1148.68 967.308 1127.87 946.346 1136.71ZM954.802 1199.37C942.496 1194.43 942.763 1168.31 948.059 1158.58C956.916 1142.29 969.244 1161.67 969.466 1172.18C969.644 1181.01 968.687 1204.93 954.802 1199.37Z" fill="#3D2938"/>
<path d="M880.3 1169.44C858.737 1181.17 864.59 1234.66 890.67 1237.22C912.812 1239.45 913.613 1208.76 912.344 1194.08C910.987 1178.79 897.457 1160.07 880.3 1169.44ZM890.848 1221.07C888.712 1221.07 887.555 1218.35 886.665 1214.9C886.887 1207.78 884.751 1200.82 885.619 1193.63C886.086 1189.71 887.555 1182.86 892.873 1187.47C895.009 1189.36 895.365 1195.63 895.677 1198.33C896.077 1202.13 896.3 1221.05 890.848 1221.07Z" fill="#3D2938"/>
<path d="M995.302 1043.29C993.633 1042.64 991.897 1042.38 990.117 1042.42C985.688 1042.6 981.26 1044.82 978.389 1048.29C970.223 1058.2 973.672 1077.85 978.901 1088.35C979.947 1090.46 981.215 1092.56 983.174 1093.94C986.156 1096 990.295 1095.96 993.588 1094.47C996.881 1092.96 999.507 1090.2 1001.53 1087.17C1007.74 1077.98 1009.25 1065.87 1005.6 1055.42C1003.78 1050.25 1000.42 1045.25 995.302 1043.29ZM993.811 1072.39C993.188 1075.49 992.208 1078.89 988.982 1080.7C987.558 1077.58 987.023 1073.95 986.512 1070.35C986.556 1067.59 986.356 1056.15 990.295 1056.15C994.99 1056.13 994.211 1070.46 993.811 1072.39Z" fill="#3D2938"/>
<path d="M319.71 1040.93C317.885 1035.74 314.525 1030.74 309.407 1028.78C307.738 1028.13 306.002 1027.87 304.222 1027.91C299.794 1028.09 295.365 1030.32 292.495 1033.79C284.328 1043.69 287.777 1063.34 293.007 1073.84C294.053 1075.96 295.321 1078.05 297.301 1079.43C300.283 1081.5 304.422 1081.45 307.716 1079.98C311.009 1078.45 313.635 1075.69 315.66 1072.68C321.846 1063.49 323.382 1051.39 319.71 1040.93ZM307.916 1057.86C307.293 1060.96 306.314 1064.36 303.087 1066.16C301.663 1063.05 301.129 1059.42 300.617 1055.82C300.662 1053.06 300.484 1041.62 304.4 1041.62C309.118 1041.62 308.317 1055.95 307.916 1057.86Z" fill="#3D2938"/>
<path d="M944.278 1254.82C923.672 1253.78 923.338 1301.53 936.156 1310.1C949.774 1319.2 957.941 1293.3 959.098 1284.4C960.411 1273.69 958.431 1255.54 944.278 1254.82ZM945.035 1288.58C944.589 1290.07 943.21 1296.35 941.808 1296.64C940.94 1296.79 940.028 1291.67 939.56 1289.6C938.759 1286.04 938.581 1282.4 937.891 1278.86C938.003 1278.68 938.136 1278.5 938.225 1278.28C939.138 1275.63 941.43 1267.91 944.856 1269.58C948.55 1271.33 945.658 1286.24 945.035 1288.58Z" fill="#3D2938"/>
<path d="M622.744 785.047C618.894 779.195 614.176 773.721 607.968 770.494C601.759 767.267 593.86 766.688 587.94 770.427C583.178 773.409 580.33 778.66 578.327 783.934C571.496 802.048 572.809 823.055 581.821 840.189C585.96 848.067 592.102 855.477 600.535 858.236C604.496 859.505 608.725 859.66 612.841 858.859C616.758 858.058 620.496 856.39 623.723 854.031C646.065 837.475 635.361 804.251 622.744 785.047ZM612.686 839.232C596.53 847.8 591.99 813.509 591.79 805.698C591.634 800.646 589.787 784.135 600.068 785.27C604.741 785.782 609.681 793.881 611.751 797.242C615.845 803.962 617.203 811.216 618.76 818.404C618.916 826.949 619.005 835.895 612.686 839.232Z" fill="#3D2938"/>
<path d="M501.598 718.667C477.054 724.475 483.885 757.742 491.362 774.632C499.24 792.479 523.161 806.053 539.984 790.743C563.572 769.269 532.485 711.345 501.598 718.667ZM531.061 770.671C528.146 789.008 510.054 774.855 506.316 765.041C503.201 756.763 496.08 733.91 511.033 734.488C524.318 735 532.774 759.745 531.061 770.671Z" fill="#3D2938"/>
<path d="M591.277 737.825C607.678 719.533 584.268 671.089 558.833 677.365C537.248 682.705 546.705 711.834 552.847 725.297C559.189 739.249 578.215 752.334 591.277 737.825ZM573.386 725.008C570.738 723.962 568.268 718.154 567.111 715.728C565.486 712.279 558.944 694.521 564.062 692.674C566.065 691.918 568.09 694.098 570.048 697.058C572.229 703.845 576.546 709.72 578.148 716.752C579.038 720.624 579.951 727.567 573.386 725.008Z" fill="#3D2938"/>
<path d="M519.562 843.371C516.068 842.392 512.196 843.816 509.548 846.353C506.944 848.845 505.409 852.339 504.496 855.855C501.737 866.603 504.318 878.53 511.284 887.141C514.733 891.414 519.584 895.019 525.08 895.153C526.861 895.219 528.596 894.864 530.243 894.218C534.382 892.594 537.787 889.033 539.322 884.783C543.75 872.7 533.915 855.343 525.503 847.22C523.767 845.552 521.854 843.971 519.562 843.371ZM525.481 881.334C521.053 882.936 517.025 869.184 516.736 867.225C516.29 864.11 516.09 860.572 518.516 857.79C520.919 860.26 522.61 863.487 524.279 866.692C525.147 869.317 529.175 880.021 525.481 881.334Z" fill="#3D2938"/>
<path d="M502.425 678.721C522.208 672.847 506.52 627.696 491.611 623.936C475.722 619.908 476.701 647.078 478.593 655.846C480.885 666.349 488.829 682.771 502.425 678.721ZM490.787 638.511C491.544 638.066 494.125 642.583 495.26 644.385C497.174 647.479 498.598 650.839 500.423 653.976C500.378 654.199 500.311 654.377 500.311 654.622C500.356 657.426 500.779 665.437 496.974 665.036C492.879 664.591 490.654 649.571 490.431 647.189C490.32 645.61 489.519 639.223 490.787 638.511Z" fill="#3D2938"/>
<path d="M251.304 505.217C256.066 510.335 263.343 513.517 270.13 512.004C275.649 510.78 280.077 506.774 283.704 502.457C296.233 487.682 302.041 467.432 299.281 448.272C298.013 439.482 294.675 430.492 287.643 425.04C284.35 422.503 280.389 420.946 276.272 420.367C272.311 419.788 268.216 420.122 264.367 421.279C237.775 429.379 236.751 464.25 242.27 486.569C243.939 493.334 246.564 500.098 251.304 505.217ZM257.157 456.483C259.871 448.361 262.787 439.905 269.863 438.881C287.932 436.189 280.722 470.058 278.364 477.468C276.806 482.252 273.023 498.474 263.699 493.979C259.493 491.954 257.535 482.63 256.689 478.736C255.087 471.058 256.244 463.76 257.157 456.483Z" fill="#3D2938"/>
<path d="M333.039 570.575C303.599 582.903 313.546 647.903 345.1 651.33C370.179 654.045 374.897 620.443 373.473 602.018C372.004 582.547 354.001 561.741 333.039 570.575ZM356.16 606.068C356.338 614.88 355.403 638.802 341.495 633.239C329.19 628.299 329.457 602.174 334.753 592.449C343.587 576.16 355.937 595.543 356.16 606.068Z" fill="#3D2938"/>
<path d="M288.129 566.258C286.794 550.97 273.242 532.256 256.085 541.624C234.522 553.351 240.375 606.847 266.455 609.406C288.619 611.609 289.398 580.945 288.129 566.258ZM262.472 587.086C262.695 579.966 260.558 573.001 261.426 565.813C261.893 561.896 263.34 555.042 268.68 559.649C270.817 561.54 271.173 567.816 271.462 570.508C271.863 574.313 272.085 593.228 266.633 593.25C264.519 593.25 263.34 590.536 262.472 587.086Z" fill="#3D2938"/>
<path d="M322.689 404.435C325.671 406.504 329.81 406.46 333.104 404.969C336.397 403.456 339.023 400.697 341.048 397.67C347.256 388.48 348.77 376.374 345.12 365.916C343.295 360.731 339.935 355.723 334.817 353.765C333.148 353.12 331.412 352.853 329.632 352.897C325.204 353.075 320.776 355.301 317.905 358.772C309.738 368.675 313.187 388.301 318.417 398.827C319.463 400.941 320.731 403.055 322.689 404.435ZM329.81 366.65C334.528 366.605 333.727 380.958 333.326 382.872C332.703 385.965 331.724 389.37 328.497 391.172C327.073 388.057 326.539 384.43 326.027 380.825C326.072 378.088 325.872 366.65 329.81 366.65Z" fill="#3D2938"/>
<path d="M334.594 1095.14C313.988 1094.09 313.654 1141.85 326.472 1150.42C340.091 1159.52 348.257 1133.61 349.415 1124.71C350.75 1114.01 348.747 1095.87 334.594 1095.14ZM335.351 1128.9C334.906 1130.39 333.526 1136.66 332.124 1136.95C331.256 1137.11 330.344 1131.99 329.877 1129.92C329.076 1126.36 328.898 1122.71 328.208 1119.17C328.319 1118.99 328.452 1118.82 328.541 1118.59C329.454 1115.95 331.746 1108.22 335.195 1109.89C338.867 1111.65 335.974 1126.58 335.351 1128.9Z" fill="#3D2938"/>
</g>
<defs>
<filter id="filter0_d_403_14330" x="0.078125" y="0.399414" width="1224.99" height="1671.51" filterUnits="userSpaceOnUse" color-interpolation-filters="sRGB">
<feFlood flood-opacity="0" result="BackgroundImageFix"/>
<feColorMatrix in="SourceAlpha" type="matrix" values="0 0 0 0 0 0 0 0 0 0 0 0 0 0 0 0 0 0 127 0" result="hardAlpha"/>
<feOffset dy="4"/>
<feGaussianBlur stdDeviation="2"/>
<feComposite in2="hardAlpha" operator="out"/>
<feColorMatrix type="matrix" values="0 0 0 0 0 0 0 0 0 0 0 0 0 0 0 0 0 0 0.25 0"/>
<feBlend mode="normal" in2="BackgroundImageFix" result="effect1_dropShadow_403_14330"/>
<feBlend mode="normal" in="SourceGraphic" in2="effect1_dropShadow_403_14330" result="shape"/>
</filter>
</defs>
</svg>
