<svg width="1661" height="1622" viewBox="0 0 1661 1622" fill="none" xmlns="http://www.w3.org/2000/svg">
<g filter="url(#filter0_d_403_14401)">
<path d="M1186.71 1489.61C1187.09 1489.16 1188.34 1488.16 1189.45 1487.27C1193.57 1483.96 1195.37 1482.33 1195.41 1480.62C1195.41 1479.57 1195.06 1478.06 1193.28 1476.73C1189.32 1473.74 1180.24 1473.41 1177.59 1474.05C1158.67 1478.95 1146.1 1501.87 1146.68 1519.36C1147.84 1554.59 1189.25 1581.27 1218.69 1586.99C1227.5 1588.7 1236.27 1589.55 1244.9 1589.55C1270.85 1589.55 1295.59 1581.91 1316.4 1567.18C1343.77 1547.82 1360.88 1518.47 1364.56 1484.54C1371.77 1417.96 1319.54 1357.47 1245.7 1346.88C1243.83 1346.61 1242.37 1345.95 1241.3 1344.92C1240.96 1344.59 1240.5 1344.41 1240.01 1344.41C1239.63 1344.37 1239.05 1344.59 1238.69 1344.94C1223.21 1360.41 1204.94 1372.45 1184.35 1380.7C1183.66 1380.99 1183.22 1381.66 1183.24 1382.4C1183.26 1383.13 1183.77 1383.75 1184.49 1383.98C1210.86 1392.21 1232 1400.84 1249.46 1416.26C1274.68 1438.56 1284.82 1468.56 1276.64 1496.51C1269.58 1520.52 1250.78 1538.59 1228.73 1542.5C1214.44 1545.09 1198.8 1540.86 1188.91 1531.73C1183.42 1526.66 1177.28 1517.83 1179.26 1504.56C1180.08 1499.25 1182.31 1494.77 1186.71 1489.61Z" fill="#92C7F0"/>
<path d="M1561.03 1230.81C1558.47 1230.63 1555.62 1229.45 1552.89 1228.29C1546.99 1225.82 1539.64 1222.75 1535.28 1231.79C1530.61 1241.56 1539.58 1253.82 1545.61 1259.52C1561.3 1274.36 1586.24 1275.25 1606.27 1261.7C1622.4 1250.75 1632.82 1233.57 1635.58 1213.32C1638.54 1191.53 1631.97 1168.92 1618 1152.84C1593.79 1124.91 1548.61 1115.03 1508.11 1128.78C1472.04 1141.04 1450.68 1166.23 1428.07 1192.91C1424.55 1197.07 1420.99 1201.26 1417.37 1205.42C1394.11 1232.08 1361.47 1245.25 1327.75 1241.56C1311.4 1239.8 1296.18 1234.17 1283.78 1225.34C1283.2 1224.91 1282.4 1224.87 1281.78 1225.22C1281.16 1225.58 1280.8 1226.27 1280.89 1226.96C1284.63 1255.02 1279.31 1283.39 1265.56 1309.07C1265.31 1309.52 1265.29 1310.05 1265.49 1310.52C1265.56 1310.67 1265.6 1310.83 1265.65 1310.96L1265.8 1311.45C1265.98 1311.99 1266.43 1312.39 1266.98 1312.57C1267.89 1312.83 1268.78 1313.12 1269.7 1313.41C1271.79 1314.08 1273.97 1314.77 1276.26 1315.32C1276.42 1315.37 1276.71 1315.37 1276.71 1315.37C1281.58 1315.3 1287.34 1315.99 1292.04 1316.53C1295.53 1316.93 1298.54 1317.26 1300.49 1317.26C1312.64 1317.22 1324.62 1316.33 1336.08 1314.61C1357.17 1311.45 1377.62 1305.8 1396.89 1297.86C1435.59 1281.86 1468.61 1256.73 1497.83 1221.06C1516.88 1197.83 1535.28 1184.63 1551.04 1182.94C1559.47 1182.03 1567.35 1184.39 1574.45 1189.93C1583.44 1196.92 1584.48 1209.49 1580.83 1218.33C1579.19 1222.35 1573.91 1231.74 1561.03 1230.81Z" fill="#92C7F0"/>
<path d="M1009.27 1462.62C1016.24 1424.68 1008.8 1385.6 990.289 1351.64C974.423 1322.58 953.016 1296.75 936.104 1268.28C902.791 1212.14 896.649 1142.22 937.617 1087.77C944.849 1078.13 960.915 1086.55 954.484 1097.25C930.718 1136.84 922.685 1182.41 939.241 1226.05C953.861 1264.59 982.745 1296.21 1003.69 1331.5C1004.73 1333.28 1005.75 1335.06 1006.78 1336.84C1034.04 1358.85 1065.12 1373.25 1102.62 1375.1C1116.73 1375.83 1130.99 1374.9 1144.95 1372.34C1146.15 1371.56 1147.59 1371.23 1149.24 1371.49C1176.05 1365.93 1201.42 1354.2 1221.43 1335.89C1249.73 1309.96 1265.04 1271.73 1261.82 1234.22C1260.17 1215.14 1253.47 1192.96 1238.92 1179.12C1225.01 1165.94 1203.09 1162.69 1184.42 1164.1C1163.62 1165.7 1142.72 1174.02 1127.52 1187.93C1120.67 1194.18 1106.23 1208.78 1114.28 1218.82C1120.56 1226.65 1135.91 1219.11 1143.28 1217.48C1169.49 1211.83 1200.98 1220.37 1200.73 1251.19C1200.56 1280.01 1172.38 1301.95 1144.46 1305.29C1112.88 1309.01 1085.73 1289.71 1072.42 1263.14C1056.27 1230.81 1061.54 1195.32 1071.4 1162.05C1083.82 1120.21 1098.97 1081.45 1089.76 1037.28C1088.09 1029.36 1099.59 1023.73 1103.87 1031.54C1128.37 1076.2 1104.11 1126.09 1091.27 1170.59C1084.15 1195.16 1079.14 1221.51 1088.38 1246.16C1096.03 1266.75 1113.68 1285.89 1138.14 1284.97C1151.96 1284.44 1166.4 1277.45 1173.96 1266.08C1180.68 1255.98 1182.31 1241.94 1168.42 1237.04C1150.82 1230.86 1133.73 1246.9 1116.17 1243.9C1102.24 1241.51 1092.25 1228.81 1091.05 1215.59C1089.49 1198.86 1100.08 1184.01 1112.17 1173.04C1136.78 1150.75 1171.72 1139.82 1205.21 1143.58C1191.57 1121.88 1187.56 1089.35 1188.23 1069.57C1188.98 1045.38 1195.59 1021.63 1204.45 999.092C1210.99 982.47 1218.67 953.675 1237.01 946.465C1238.16 946.02 1239.41 946.999 1239.76 947.978C1244.3 961.574 1234.42 978.687 1227.61 992.817C1252.92 1056.77 1306.03 1097.96 1377.64 1109.6C1448.94 1121.17 1529.3 1104.93 1582.15 1055.48C1628.81 1011.8 1648.53 946.176 1625.45 886.338C1615.08 859.368 1594.52 832.976 1565.1 823.785C1541.96 816.509 1513.72 822.606 1496.65 839.607C1488.19 848.063 1479.49 863.573 1485.37 875.523C1491.91 888.741 1510.09 874.833 1521.55 873.565C1542.27 871.295 1563.59 881.22 1575.58 897.464C1606.98 939.945 1569.08 992.061 1524.8 1005.75C1471.88 1022.1 1400.36 999.849 1358.84 966.47C1338.92 950.47 1314.53 924.19 1307.12 899.734C1297.53 868.113 1315.69 823.674 1325.93 793.744C1339.57 753.667 1357.1 714.903 1370.57 674.736C1384.65 632.634 1396.47 589.263 1401.05 545.136C1410.44 454.434 1370.21 343.949 1321.43 268.179C1256.77 167.73 1159.3 78.9409 1040.51 42.8469C918.435 5.72928 781.402 18.6579 660.414 53.706C598.396 71.664 539.849 99.1907 490.893 140.47C446.254 178.077 410.048 224.162 382.232 274.476C319.858 387.475 286.501 515.651 317.922 642.002C334.789 709.762 360.158 776.209 366.01 846.127C373.821 939.099 339.44 1054.3 227.932 1066.83C181.78 1072.04 131.51 1053.1 113.374 1009.31C98.5764 973.524 115.466 928.774 154.609 915.845C175.883 908.791 213.979 912.084 211.865 880.93C209.952 852.424 179.532 842.144 153.83 844.525C103.049 849.176 59.7231 887.851 39.1171 930.866C18.0215 974.815 21.2259 1025.24 47.7067 1066.34C73.6089 1106.53 113.753 1128 160.016 1139.08C170.653 1129.03 183.894 1120.7 199.827 1114.74C245.979 1097.38 315.986 1089.57 346.94 1134.86C351.323 1132.48 355.752 1130.7 356.953 1130.03C374.778 1120.24 390.711 1108.09 404.685 1093.62C418.482 1079.36 430.12 1063.25 438.977 1045.76C444.162 1035.52 448.123 1024.84 452.284 1014.2C451.194 979.043 447.032 943.906 442.204 908.146C441.291 901.47 451.35 901.425 453.464 906.677C480.345 973.48 478.943 1051.85 464.924 1121.39C453.375 1178.83 432.012 1243.72 381.787 1280.88C345.827 1307.47 290.484 1315.55 251.675 1289.38C216.516 1265.66 200.405 1200.17 253.1 1184.7C264.938 1181.25 276.732 1183.52 288.014 1187.71C302.1 1192.91 317.744 1202.91 330.361 1189.78C353.704 1165.5 320.993 1131.92 296.982 1125C268.053 1116.68 232.894 1124.33 205.612 1134.92C172.255 1147.92 151.939 1173.95 149.068 1208.58C144.35 1265.39 178.308 1322.94 227.442 1353.09C283.119 1387.27 356.486 1385.89 411.762 1351.84C463.655 1319.84 506.959 1269.17 536.199 1217.41C565.996 1164.72 579.392 1107 576.299 1047.18C575.787 1037.14 593.144 1034.79 594.657 1044.8C604.849 1111.18 585.111 1177.83 550.775 1235.35C534.152 1263.23 513.168 1291.85 488.801 1317.15C487.599 1361.88 497.902 1404.05 525.206 1441.59C556.516 1484.71 606.095 1513.26 660.792 1517.51C712.152 1521.54 763.711 1504.54 798.359 1467.2C830.848 1432.2 846.87 1380.79 830.648 1335.33C823.104 1314.12 807.705 1295.32 786.743 1285.89C783.65 1284.91 780.69 1283.88 777.82 1282.57C775.572 1281.9 773.28 1281.28 770.921 1280.83C758.504 1278.43 742.171 1278.68 732.647 1288.11C720.385 1300.26 735.762 1310.36 744.73 1317.84C773.08 1341.5 782.025 1383.11 756.168 1412.28C731.556 1439.99 685.649 1443.21 654.473 1424.3C617.133 1401.69 601.6 1357.43 604.582 1316.62C607.987 1269.75 629.839 1223.53 655.162 1183.99C677.482 1149.14 706.945 1109.78 743.773 1087.52C749.915 1071.48 758.282 1055.77 770.877 1046.02C772.791 1044.55 776.329 1045.29 776.173 1048.12C775.038 1068.9 762.755 1088.64 756.613 1108.42C749.581 1131.1 745.442 1154.97 747 1178.69C748.335 1198.86 754.076 1219.13 764.201 1236.86C769.208 1245.68 775.261 1253.82 782.537 1261.05C783.049 1261.54 783.516 1262.08 783.984 1262.59C814.604 1271.96 839.393 1298.08 850.364 1327.28C851.098 1329.19 851.699 1331.15 852.322 1333.08C905.373 1371.31 949.21 1449.93 913.428 1509.26C899.898 1531.74 875.62 1548.8 848.205 1550.34C834.23 1551.12 797.358 1543.17 813.736 1567.92C823.238 1582.34 841.596 1589.86 858.597 1591.51C933.144 1598.54 997.299 1527.57 1009.27 1462.62ZM1280.29 331.198C1295.2 334.826 1310.88 378.308 1291.1 383.96C1277.48 387.876 1269.54 372.054 1267.27 361.907C1265.38 353.495 1264.4 327.326 1280.29 331.198ZM466.548 348.177C465.792 358.792 459.538 368.939 450.259 374.702C447.166 376.594 443.694 378.062 440.067 378.129C436.44 378.173 432.635 376.661 430.699 373.656C429.475 371.698 429.097 369.361 428.985 367.092C428.34 355.809 432.946 337.14 444.407 331.488C448.39 329.529 453.33 329.217 457.469 330.753C459.093 331.376 460.629 332.289 461.897 333.513C465.836 337.207 466.926 342.903 466.548 348.177ZM1175.77 176.964C1191.7 165.571 1210.57 179.679 1218.27 193.32C1226.26 207.361 1226.39 230.927 1205.34 233.597C1181.17 236.691 1153.2 193.12 1175.77 176.964ZM1169.94 256.852C1170.67 256.429 1171.47 256.006 1172.25 255.672C1181.35 251.4 1192.43 252.112 1201.65 256.162C1210.84 260.256 1218.27 267.444 1223.79 275.633C1230.11 285.024 1234.2 296.15 1233.51 307.321C1232.82 318.514 1226.84 329.64 1216.78 335.27C1202 343.526 1181.91 337.741 1170.69 325.346C1156.01 309.124 1146.75 270.248 1169.94 256.852ZM1125.19 264.24C1131.53 273.007 1134.84 283.421 1136.91 293.902C1139.72 308.055 1139.72 324.478 1129.32 334.848C1120.07 344.06 1104.36 345.641 1092.23 340.322C1080.1 335.004 1071.44 323.899 1067.04 311.771C1059.67 291.477 1059.74 255.828 1083.15 248.284C1087.4 246.927 1092.41 246.459 1098.24 247.194C1109.23 248.596 1118.87 255.517 1125.19 264.24ZM1045.97 105.065C1074.34 91.4689 1117.82 138.956 1099.71 164.258C1086.78 182.327 1060.41 174.806 1048.68 159.83C1037.58 145.588 1023.36 115.88 1045.97 105.065ZM869.301 218.799C875.865 200.641 893.712 186.644 913.584 184.352C929.628 182.505 946.206 187.979 958.445 198.149C973.043 210.277 978.984 223.806 978.94 236.646C978.784 277.19 918.924 310.904 881.317 272.496C867.587 258.476 862.692 236.957 869.301 218.799ZM883.721 378.196C887.348 368.271 883.276 358.969 882.23 349.089C881.829 345.284 887.081 342.547 890.285 344.661C904.66 354.163 904.215 374.68 896.672 388.544C888.216 404.121 870.725 414.023 852.656 414.779C835.098 415.558 816.873 408.081 806.926 393.773C797.936 380.888 793.708 361.417 805.658 349.089C807.794 346.819 811.132 348.778 811.421 351.404C812.556 362.174 811.199 372.922 817.452 382.646C824.35 393.372 837.368 399.581 850.297 399.447C864.183 399.292 878.914 391.236 883.721 378.196ZM752.407 210.9C773.97 186.555 806.815 198.438 819.009 220.09C825.975 232.418 826.242 247.928 813.847 261.703C799.984 277.079 772.88 278.993 756.835 265.753C740.813 252.468 738.699 226.365 752.407 210.9ZM691.546 111.029C708.792 120.42 702.984 142.762 693.148 155.045C682.978 167.729 660.659 177.365 649.644 159.896C636.982 139.824 667.09 97.6553 691.546 111.029ZM545.857 187.802C550.241 166.061 565.862 135.974 593.389 139.646C597.35 140.203 601.199 141.56 604.537 143.652C608.031 145.855 610.968 148.815 612.882 152.397C616.977 159.986 616.22 169.198 613.683 177.387C608.12 195.234 594.368 210.588 576.811 218.443C571.737 220.713 565.996 222.427 560.521 221.27C553.69 219.845 548.438 214.149 546.258 207.74C544.077 201.353 544.544 194.411 545.857 187.802ZM554.024 275.945C549.017 289.319 535.398 315.777 516.239 304.918C493.674 292.1 510.831 243.01 535.331 241.453C554.825 240.251 559.231 262.081 554.024 275.945ZM569.979 373.345C542.786 357.59 561.056 296.796 592.944 297.908C615.708 298.665 623.274 324.144 616.465 341.724C609.967 358.391 591.609 385.851 569.979 373.345ZM831.382 915.644C734.315 908.056 647.107 839.763 620.782 749.261C609.722 711.253 607.497 670.886 614.262 631.922C625.077 569.302 666.556 518.745 723.211 488.704C810.887 442.24 928.649 440.17 1008.67 503.546C1090.58 568.391 1113.32 684.728 1072.02 776.921C1032.21 865.732 931.542 923.455 831.382 915.644Z" fill="#92C7F0"/>
<path d="M1277.29 353.763C1277.31 353.941 1279.09 371.877 1285.43 372.522C1285.59 372.545 1285.74 372.545 1285.9 372.545C1286.9 372.545 1287.81 372.211 1288.55 371.543C1290.77 369.563 1290.88 365.224 1290.79 361.329V360.795C1290.82 360.706 1290.88 360.417 1290.88 360.417C1290.95 360.016 1290.86 359.616 1290.66 359.26C1289.86 357.947 1289.15 356.589 1288.44 355.232C1287.52 353.496 1286.59 351.694 1285.48 350.003L1284.96 349.179C1282.45 345.173 1280.76 342.525 1278.58 343.727C1276.8 344.706 1276.71 347.466 1277.22 352.873L1277.29 353.763Z" fill="#FFEFE6"/>
<path d="M1186.2 208.229C1188 212.056 1190.03 216.395 1195.79 218.442C1197.64 219.11 1199.17 219.355 1200.44 219.355C1202.78 219.355 1204.27 218.464 1205.16 217.552C1208.25 214.348 1207.23 207.716 1204.96 202.91C1202.87 198.415 1195.66 187.133 1187.83 189.024C1185.91 189.469 1184.47 190.649 1183.62 192.451C1181.77 196.367 1183.2 202.376 1184.73 205.247C1185.27 206.226 1185.73 207.227 1186.2 208.229Z" fill="#FFEFE6"/>
<path d="M1200.56 323.208C1203.58 323.208 1205.96 322.162 1207.32 321.361C1215.38 316.688 1218.85 304.939 1215.06 295.214C1212.24 287.938 1204.54 275.587 1194.84 271.359C1190.88 269.623 1186.98 269.423 1183.27 270.781C1177.79 272.784 1174.39 276.255 1173.14 281.128C1170.29 292.366 1180.53 308.833 1187.67 316.554C1192.48 321.739 1196.97 323.208 1200.56 323.208Z" fill="#FFEFE6"/>
<path d="M1079.15 159.316C1080.32 159.316 1081.46 159.161 1082.51 158.805C1085.44 157.826 1088.83 155.044 1088.25 147.256C1087.69 139.712 1080.79 126.65 1071.8 120.018C1067.26 116.68 1062.63 115.323 1058.38 116.102C1054.53 116.814 1051.93 118.638 1050.68 121.531C1047.26 129.453 1055.76 143.005 1059.59 148.457C1063.1 153.509 1072 159.316 1079.15 159.316Z" fill="#FFEFE6"/>
<path d="M1086.25 267.422C1081.6 270.782 1080.37 276.589 1079.84 280.684C1078.93 287.871 1077.32 312.283 1095.5 324.01C1098.6 325.991 1102.58 327.17 1106.45 327.17C1110.75 327.17 1114.93 325.746 1117.73 322.386C1121.56 317.824 1121.41 311.771 1120.92 305.807C1120.74 303.715 1120.56 301.579 1120.27 299.443C1119.09 290.32 1116.38 277.279 1106.38 269.468C1100.89 265.218 1092.21 263.149 1086.25 267.422Z" fill="#FFEFE6"/>
<path d="M664.819 153.263C665.531 153.508 666.243 153.619 666.999 153.619C671.406 153.619 676.234 149.814 678.682 147.233C678.793 147.099 690.855 133.97 684.935 126.516C683.734 125.002 681.998 124.201 679.928 124.201H679.884C675.389 124.201 670.315 127.851 668.29 130.321C667.578 131.166 666.822 131.968 666.087 132.769C663.15 135.884 659.812 139.422 660.213 145.364C660.524 150.704 662.905 152.618 664.819 153.263Z" fill="#FFEFE6"/>
<path d="M566.976 207.092C567.021 207.092 567.065 207.092 567.11 207.092C573.185 207.092 579.371 200.372 582.709 196.745L583.777 195.588C587.827 191.337 602.314 173.291 599.221 162.565C598.219 159.093 595.616 156.757 591.454 155.578C583.421 153.286 576.679 160.206 570.492 166.57L569.469 168.128C565.864 173.647 562.148 179.365 560.501 186.375C558.965 192.606 557.63 200.239 560.835 204.022C562.526 206.025 564.595 207.048 566.976 207.092Z" fill="#FFEFE6"/>
<path d="M536.201 257.764C533.664 257.609 531.172 259.612 528.457 263.862C526.209 267.356 524.919 271.16 523.651 274.832C522.671 277.703 521.737 280.418 520.379 282.999C520.313 283.132 520.246 283.289 520.224 283.444C519.779 285.647 518.733 290.81 522.449 292.457C522.872 292.635 523.45 292.813 524.14 292.813C524.696 292.813 525.342 292.701 526.054 292.412C531.906 289.986 538.137 275.589 538.871 273.519L539.205 272.585C540.696 268.49 542.053 264.262 540.785 261.637C539.65 259.166 538.092 257.876 536.201 257.764Z" fill="#FFEFE6"/>
<path d="M584.22 316.311C577.922 320.806 570.201 333.401 569.221 344.238C568.71 349.734 570.023 354.252 572.982 357.278C575.252 359.592 577.7 360.75 580.348 360.75C580.86 360.75 581.371 360.705 581.883 360.616C590.673 359.125 597.95 344.972 600.687 338.964C603.624 332.466 603.535 319.471 597.416 314.775C594.968 312.906 590.695 311.66 584.22 316.311Z" fill="#FFEFE6"/>
<path d="M452.928 341.367C447.921 339.32 443.715 348.443 441.713 352.827L441.379 353.628C440.422 357.078 439.42 360.638 439.509 364.176C439.532 364.666 439.732 365.133 440.11 365.445C440.444 365.734 440.867 365.89 441.312 365.89C441.379 365.89 441.423 365.89 441.49 365.89C446.297 365.422 449.056 361.684 450.525 359.659V359.636C451.17 358.746 456.733 348.888 455.264 343.993C454.775 342.413 453.729 341.701 452.928 341.367Z" fill="#FFEFE6"/>
<path opacity="0.1" d="M1545.08 1104.5C1584.2 1084.83 1617.47 1054.81 1637.05 1016.07C1663.33 964.154 1662.66 897.796 1628.59 849.085C1599.95 808.095 1546.86 786.043 1499.5 812.19C1480.81 822.493 1465.35 840.518 1462.99 861.658C1460.98 879.616 1471.55 903.96 1493.47 903.559C1507.05 903.315 1516.33 892.478 1530.39 893.635C1546.86 894.992 1560.59 906.853 1564.33 922.252C1573.47 959.636 1534.97 985.85 1501.22 989.923C1464.75 994.329 1423.42 980.977 1391.8 963.932C1370.22 952.293 1349.81 934.58 1337.15 914.041C1313.78 876.167 1336.97 820.913 1351.37 783.706C1367.52 742.094 1384.75 700.97 1398.19 658.401C1438.58 530.336 1424.53 409.437 1360.09 291.342C1336.9 248.839 1307.69 207.827 1273.64 170.754C1286.06 200.395 1298.41 230.08 1308.8 260.432C1334.54 335.536 1344.31 414.333 1321.37 491.394C1300.21 562.491 1252.23 623.553 1238.68 696.854C1227.22 758.805 1227.71 825.296 1183.69 876.211C1161.22 902.202 1130.58 916.066 1098.24 927.504C1079.28 934.202 1060.01 940.366 1042.14 949.579C1025.97 957.946 1012.12 969.851 997.905 980.91C974.406 999.202 948.971 1016.94 918.24 1021.14C893.895 1024.48 868.571 1019.01 845.251 1012.62C794.136 998.668 736.924 968.427 682.383 977.684C611.352 989.745 609.928 1069.39 602.295 1123.55C589.433 1214.76 537.05 1295.79 470.781 1363.59C478.926 1426.59 523.654 1486.63 580.554 1515.67C667.362 1560.02 782.542 1537.79 834.213 1454.49C850.547 1428.15 859.581 1396.81 858.157 1366.02C874.914 1386.04 891.803 1405.65 899.748 1432C910.718 1468.33 900.26 1516.13 857.356 1527.73C835.482 1533.62 795.738 1517.2 787.683 1548.33C780.784 1574.86 810.848 1598.87 833.256 1606.99C899.058 1630.87 973.738 1580.71 1006.58 1528.35C1036.62 1480.51 1039.94 1424.1 1022.67 1372.71C1060.06 1395.21 1113.29 1399.55 1155.39 1391.14C1165.8 1397.04 1177.6 1399.95 1189.55 1404.07C1209.39 1410.99 1228.84 1421.18 1242.82 1436.78C1255.3 1450.75 1262.31 1468.78 1258.48 1487.16C1254.81 1504.87 1241.04 1523.5 1220.7 1524.3C1215.63 1524.5 1207.06 1522.79 1203.14 1518.98C1195.33 1511.44 1200.34 1505.01 1205.43 1498.38C1209.31 1493.28 1214.36 1489.92 1216 1483.36C1219.39 1469.89 1208.88 1457.63 1195.98 1454.25C1165.6 1446.33 1136.09 1476.26 1129.2 1502.03C1110.5 1571.63 1202.72 1613.69 1261.36 1608.1C1328.89 1601.65 1378.03 1548.31 1384.48 1484.38C1391.09 1418.58 1345.94 1359.56 1284.32 1336.84C1294.04 1337.07 1303.84 1336.29 1311.42 1335.98C1351.68 1334.13 1391.33 1323.36 1426.83 1304.98C1445.3 1295.41 1462.61 1283.66 1478.25 1270.17C1492.07 1258.22 1502.93 1244.36 1514.66 1230.83C1509.3 1260.63 1541.16 1288.2 1570.53 1290.62C1608.68 1293.76 1641.65 1264.28 1652.18 1230.76C1674.46 1159.98 1612.53 1105.3 1545.08 1104.5ZM733.408 1335.42C753.102 1352.89 757.107 1384.2 736.101 1402.64C717.809 1418.76 688.413 1419.36 667.518 1407.81C604.186 1372.89 625.571 1288.09 649.849 1236.95C662.4 1210.6 677.977 1185.55 696.268 1162.49C707.261 1148.63 719.856 1136.39 732.407 1124.13C726.955 1146.07 724.819 1168.81 727.734 1191.29C730.449 1212.43 737.169 1233.08 748.607 1251.39C750.254 1253.97 751.989 1256.56 753.792 1259.07C751.166 1259.25 748.562 1259.56 745.914 1260C728.958 1262.9 711.111 1273.78 707.15 1290.87C702.366 1311.5 719.656 1323.2 733.408 1335.42ZM1406.04 1190.38C1388.08 1211.65 1363.76 1225.91 1334.54 1225.07C1312.45 1224.47 1293.24 1214.23 1276.62 1200.99C1269.12 1180.03 1255.73 1162.74 1236.19 1152.64C1230.45 1141.04 1221.52 1131.25 1216.56 1118.99C1209.53 1101.72 1207.26 1083.01 1208.28 1064.56C1209.26 1047.33 1213.51 1030.42 1219.14 1014.02C1232.56 1056.73 1271.15 1091.64 1312.27 1110.22C1359.78 1131.72 1415.66 1137.17 1467.84 1128.89C1444.12 1145.16 1425.42 1167.43 1406.04 1190.38ZM1562.35 1211.32C1560.72 1211.87 1553.82 1206.73 1551.89 1205.97C1549.77 1205.13 1547.68 1204.62 1545.66 1204.31C1546.81 1203.93 1547.97 1203.53 1549.17 1203.28C1552.33 1203.22 1555.49 1203.17 1558.65 1203.1C1563.37 1204.42 1564.55 1207.15 1562.35 1211.32Z" fill="#592639"/>
<path opacity="0.15" d="M1003.91 111.005C1068.11 97.1193 1135.76 98.4098 1200.18 110.159C1204.01 110.849 1207.86 111.606 1211.69 112.385C1173.43 81.342 1131.18 55.3951 1085.91 36.9699C961.031 -13.8777 818.19 -6.15574 689.08 24.7756C623.657 40.4638 559.457 64.4743 504.983 103.394C455.96 138.376 415.015 182.859 382.748 232.616C329.876 314.172 297.164 409.281 288.352 504.99C278.516 611.47 318.505 701.215 338.354 803.711C346.276 844.545 349.035 888.071 340.134 929.083C350.259 941.344 365.614 951.291 381.146 947.62C396.256 944.059 406.87 926.391 418.775 917.712C448.327 896.171 484.132 894.102 518.935 885.868C533.533 882.419 550.022 878.458 557.455 864.661C562.039 856.161 563.263 846.458 563.018 837.001C562.306 809.741 549.689 782.771 537.917 758.516C511.903 704.865 476.121 652.77 462.725 594.312C447.637 528.6 486.98 466.871 538.117 425.77C566.222 403.184 600.491 381.443 636.407 372.786C674.66 363.574 714.826 367.045 753.212 358.7C791.42 350.378 814.719 327.813 825.467 292.009C834.902 260.61 837.595 226.408 855.486 197.88C885.95 149.324 948.859 122.91 1003.91 111.005Z" fill="#FFFCFC"/>
<path opacity="0.3" d="M635.537 860.101C685.027 905.987 757.705 923.121 824.886 917.269C834.632 916.423 839.906 908.324 838.949 900.958C820.858 899.111 803.167 894.571 789.86 890.031C777.71 885.87 765.738 880.218 754.122 873.565C746.823 872.719 740.08 870.383 734.517 866.044C715.803 860.258 697.8 852.736 681.467 841.12C667.959 831.529 656.365 819.891 646.507 806.94C649.067 805.494 650.736 802.89 650.201 799.04C648.221 784.554 645.484 770.245 642.725 756.026C630.597 729.345 624.522 700.282 627.192 670.998C632.778 609.825 669.784 514.962 739.213 495.691C740.08 495.312 740.904 494.89 741.772 494.511C769.098 482.829 801.654 476.197 833.386 477.421C854.615 473.237 876 470.412 897.519 471.791C927.76 473.727 955.354 482.517 979.542 499.429C975.292 495.312 970.975 491.507 966.703 488.125C892.089 428.91 788.525 415.113 698.023 445.399C617.623 472.303 549.975 529.96 539.516 614.832C528.724 702.82 569.825 799.173 635.537 860.101Z" fill="#592642"/>
<path opacity="0.3" d="M1367.41 392.548C1372.57 423.947 1372.7 456.436 1369.14 487.99C1361.8 552.946 1335.45 615.476 1302.76 672.22C1272.61 724.559 1224.74 776.43 1234.89 840.54C1238.96 866.331 1252.34 893.791 1272.12 911.994C1281.89 920.984 1296.31 927.682 1308.64 932.667C1320.88 937.607 1332.49 944.772 1345.62 947.309C1348.29 947.821 1350.92 947.042 1352.99 945.573C1341.06 936.917 1331.67 925.057 1327.71 912.061C1325.77 910.192 1323.9 908.234 1322.14 906.031C1317.8 900.668 1313.75 895.06 1309.77 889.408C1314.51 877.769 1316 863.617 1317.56 851.044C1320.79 842.588 1323.81 834.131 1326.15 825.008C1329.73 810.989 1333.58 797.169 1338.34 783.462C1348.58 754.044 1361.4 725.561 1373.5 696.832C1393.64 649.033 1417.12 588.127 1404.61 535.255C1409.66 509.909 1412.42 484.185 1412.22 458.372C1412.2 456.836 1412.16 455.323 1412.11 453.788C1401.74 400.492 1385.94 348.31 1362.33 299.443C1360.2 296.461 1358.04 293.545 1355.86 290.652C1349.43 282.085 1336.41 289.295 1341.13 298.953C1355.55 328.571 1362.11 360.482 1367.41 392.548Z" fill="#592642"/>
<path opacity="0.3" d="M1280.95 1011.26C1266.58 992.105 1259.12 970.743 1249.2 949.447C1244.28 938.899 1228.88 945.241 1228.3 954.899C1227.86 962.264 1228.33 969.741 1229.55 977.174C1226.03 978.331 1223.32 981.246 1223.68 985.919C1224.45 996.333 1225.99 1006.88 1230.53 1016.43C1235.63 1027.15 1241.79 1033.34 1251.58 1039.99C1253.36 1041.22 1255.23 1041.75 1257.03 1041.77C1263.44 1051.23 1270.47 1060.02 1277.68 1067.83C1307.75 1100.32 1352.03 1122.35 1396.49 1128.98C1488.73 1142.71 1588.6 1098.47 1625.67 1013.4C1646.37 965.936 1647.35 913.686 1628.79 865.598C1624.98 855.763 1610.01 859.501 1612.32 869.96C1633.97 967.828 1567.19 1069.92 1464.58 1088.82C1416.76 1097.63 1366.76 1086.59 1328.06 1058.08C1310.19 1044.96 1294.11 1028.78 1280.95 1011.26Z" fill="#592642"/>
<path opacity="0.3" d="M1337.81 1319.22C1368.3 1317.28 1397.99 1309.12 1425.04 1295.43C1453.26 1281.19 1476.31 1259.92 1499.3 1239.06C1512.79 1226.85 1557.96 1178.43 1574.87 1209.33C1578.59 1216.12 1591.76 1215.32 1593.03 1207.04C1597.35 1179.29 1570.82 1162.38 1543.72 1166.81C1508.4 1172.6 1481.5 1204.71 1456.62 1226.96C1429.58 1251.13 1400.43 1269.91 1364.18 1278.39C1334.7 1285.28 1302.9 1284.68 1272.32 1283.75C1281.09 1259.52 1281.2 1233.19 1268.47 1207.58C1263.51 1197.63 1249.2 1203.48 1248.54 1212.78C1245.75 1250.86 1227.95 1292.89 1196.49 1317.22C1162.17 1343.74 1116.55 1346.9 1075.72 1334.17C984.418 1305.71 927.517 1204.66 949.37 1115.34C951.84 1105.21 936.107 1100.96 933.147 1111.04C917.615 1164.23 919.862 1224.2 945.431 1274.25C970.376 1323.07 1020.67 1361.83 1075.1 1375.54C1129.66 1389.29 1187.25 1378.81 1229.87 1342.56C1239.48 1334.4 1248.05 1325.23 1255.26 1315.37C1255.72 1316.59 1256.26 1317.77 1256.84 1318.8C1258.91 1322.4 1262.58 1325.05 1266.43 1326.61C1275.42 1330.26 1285.3 1326.87 1290.42 1319C1291.02 1318.06 1291.48 1317.08 1291.86 1316.1C1306.19 1319.49 1321.19 1320.26 1337.81 1319.22Z" fill="#592642"/>
<path opacity="0.3" d="M1077.25 1225.4C1082.59 1248.81 1097.14 1276.67 1121.15 1286.66C1144.1 1296.21 1172 1285.51 1181.99 1263.74C1188.45 1249.7 1180.86 1234.93 1164.19 1233.88C1151.33 1233.08 1138.35 1232.9 1125.45 1232.99C1120.69 1233.01 1116.77 1234.28 1113.65 1236.31C1111.76 1232.83 1110.25 1229.23 1109.11 1225.91C1105.13 1214.25 1105.18 1205.66 1112.07 1195.29C1117.57 1187.06 1122.78 1180.27 1125.4 1170.59C1136.46 1129.8 1127.38 1079.4 1112.01 1040.79C1108.91 1033.05 1094.23 1033.14 1095.5 1042.95C1099.17 1071.46 1101.33 1100.16 1099.97 1128.85C1099.3 1129.45 1098.7 1130.16 1098.25 1131.07C1090.13 1147.21 1081.97 1164.83 1083.7 1183.23C1082.39 1185.1 1081.14 1187.02 1080.14 1189.11C1074.6 1200.57 1074.47 1213.19 1077.25 1225.4Z" fill="#592642"/>
<path opacity="0.3" d="M1200.02 1500.51C1199.2 1485.27 1175.72 1485.11 1175.3 1500.51C1174.52 1528.48 1193.1 1552.56 1222.48 1556.12C1256.7 1560.28 1281.91 1538.85 1294.51 1510.28C1307.15 1481.62 1303.23 1447.2 1286.23 1420.91C1276.86 1406.45 1261.22 1396.21 1252.72 1381.44C1246.51 1370.67 1249.07 1364.64 1253.39 1353.84C1255.88 1347.59 1256.5 1343.59 1254.92 1337.07C1252.79 1328.23 1240.86 1329.88 1237.96 1337.07C1236.23 1341.41 1233.43 1344.52 1230.75 1347.75C1229.82 1347.92 1228.89 1348.21 1227.97 1348.66C1221.28 1351.91 1216.22 1356.89 1210.17 1361.03C1204.3 1365.04 1197.78 1368.35 1191.03 1370.76C1184.54 1373.07 1179.95 1378.55 1181.04 1385.51C1182 1391.61 1187.74 1397.75 1194.75 1397.17C1209.75 1395.9 1222.01 1411.08 1237.21 1405.96C1237.72 1405.78 1238.25 1405.58 1238.77 1405.34C1248.51 1417.24 1260.55 1427.68 1267.25 1441.68C1277.77 1463.62 1278.55 1494.37 1259.3 1511.77C1242.64 1526.79 1201.65 1531.02 1200.02 1500.51Z" fill="#592642"/>
<path opacity="0.3" d="M715.688 1517.11C680.306 1518.83 649.998 1517.31 617.754 1501.16C587.29 1485.87 561.766 1461.17 547.969 1430.73C512.788 1353.16 549.371 1272.22 569.554 1196.21C575.874 1182.25 581.371 1167.99 585.955 1153.53C589.76 1141.55 570.111 1133.01 564.525 1144.83C527.297 1223.47 472.577 1299.64 385.391 1331.7C302.366 1362.23 204.008 1339.09 160.126 1260.85C155.497 1252.62 140.365 1258.29 144.059 1267.37C162.173 1311.72 197.844 1342.85 240.392 1360.01C240.748 1360.97 241.282 1361.92 242.061 1362.84C258.706 1382.37 282.316 1384.95 307.306 1386.8C335.611 1388.89 369.124 1390.12 392.734 1372.69C396.628 1369.82 398.186 1366.08 397.919 1362.61C428.049 1352.13 455.042 1336.51 478.763 1317.13C478.296 1320.91 478.14 1324.78 478.296 1328.65C478.897 1343.01 483.258 1357.52 486.307 1371.56C489.845 1387.94 492.226 1403.29 500.682 1418.04C503.82 1423.54 509.227 1424.63 513.923 1423.01C516.882 1432.29 520.532 1441.45 525.049 1450.42C542.362 1484.83 572.47 1510.82 608.786 1525.75C640.897 1538.97 684.557 1544.91 717.869 1532.56C725.813 1529.58 725.569 1516.65 715.688 1517.11Z" fill="#592642"/>
<path opacity="0.3" d="M933.344 1354.71C907.398 1316.5 868.522 1292.09 831.315 1265.3C824.773 1260.58 818.364 1255.67 812.178 1250.53C810.331 1249.19 808.462 1247.9 806.682 1246.5C785.853 1230.16 772.168 1211.36 764.179 1191C760.774 1183.19 758.193 1174.98 756.746 1166.34C756.68 1164.99 756.702 1163.61 756.68 1162.25C753.275 1138.08 756.235 1112.47 763.6 1086.63C762.554 1085.45 761.197 1084.56 759.684 1084.1C760.663 1082.12 761.397 1080 761.776 1077.71C762.354 1074.26 761.731 1071.03 760.173 1068.43C764.691 1065.43 769.186 1062.36 773.614 1059.13C782.916 1052.34 778.02 1036.97 765.269 1040.06C713.198 1052.74 667.735 1100.32 640.231 1142.4C609.5 1189.42 595.058 1242.47 601.222 1297.59C602.312 1307.4 616.443 1307.65 617.266 1297.59C619.781 1267.06 627.324 1236.11 639.23 1207.07C658.389 1183.12 679.618 1160.82 701.471 1139.15C711.707 1128.98 722.032 1118.99 732.891 1109.47C737.409 1105.5 742.838 1101.81 747.779 1097.78C743.795 1113.03 740.546 1128.91 739.167 1144.87C727.328 1181.05 742.238 1221.66 765.692 1250.48C787.299 1277.05 815.004 1297.41 841.841 1318.71C841.707 1320.2 842.063 1321.78 843.132 1323.29C854.347 1339.27 867.854 1353.58 880.672 1368.38C893.2 1382.84 899.342 1396.77 907.509 1413.44C909.133 1416.75 912.271 1418.29 915.586 1418.44C916.499 1424.85 916.833 1431.48 916.41 1438.41C914.407 1471.16 894.291 1507.81 870.191 1530.51C859.91 1540.17 872.906 1553.39 884.544 1548.42C960.27 1516.07 976.626 1418.47 933.344 1354.71Z" fill="#592642"/>
<path opacity="0.3" d="M126.548 1099.52C92.2569 1089.44 64.8859 1069.32 40.0741 1044.95C32.9087 1037.92 22.2719 1046.82 26.4777 1055.06C44.1464 1089.82 78.5936 1114.87 115.311 1129.29C133.825 1136.57 157.502 1142.42 180.155 1142.22C209.484 1116.12 251.208 1110.11 289.238 1119.63C294.312 1118.66 299.341 1117.61 304.348 1116.39C312.159 1117.43 319.769 1117.5 327.179 1116.67C326.489 1120.03 326.801 1123.95 328.603 1128.74C332.008 1137.73 341.332 1141.64 350.367 1137.26C377.693 1124 401.058 1107.26 420.641 1084.43C438.51 1063.58 460.518 1036.77 464.857 1009.33C465.347 1006.19 464.924 1003.41 463.833 1001.09C470.598 984.605 472.423 967.514 464.412 951.493C462.454 947.598 458.738 946.218 455.044 946.574C456.757 932.31 457.18 917.334 452.729 905.14C450.014 897.752 438.999 897.173 436.507 905.14C433.414 915.087 434.148 925.59 432.969 935.893C431.567 948.154 429.141 960.349 426.093 972.343C423.867 981.133 421.153 989.789 418.015 998.29C401.77 1028.55 379.028 1054.39 347.518 1072.77C325.555 1085.59 301.7 1093.38 276.532 1097.89C254.012 1101.94 230.402 1103.34 208.06 1108.84C197.334 1108.2 186.408 1108.64 175.816 1108.31C158.904 1107.8 142.682 1104.28 126.548 1099.52Z" fill="#592642"/>
<path opacity="0.5" d="M1092.83 800.642C1138.25 718.373 1130.9 613.608 1072.78 538.861C1042.78 500.297 995.895 464.781 944.113 462.378C932.074 461.821 929.559 479.891 941.264 482.628C996.05 495.334 1036.35 527.155 1062.1 575.533C1086.15 620.706 1094.03 675.848 1083.88 725.628C1074.07 773.805 1046.54 819.69 1007.96 851.957C966.966 886.226 914.939 903.161 861.755 909.392C851.697 910.571 851.519 923.566 861.755 924.59C951.99 933.714 1050.75 876.858 1092.83 800.642Z" fill="#FFF7F7"/>
<path opacity="0.5" d="M894.956 50.4563C908.33 50.0557 921.726 49.9223 935.122 50.078C962.137 50.3896 989.33 50.1003 1016.14 53.772C1044.41 57.644 1072.15 64.1416 1100.13 69.4823C1111.19 71.5963 1120.15 55.708 1108.38 50.6566C1062.63 31.0297 1010.87 22.4622 961.403 16.3872C924.73 11.8699 887.168 12.6933 850.094 15.92C830.579 15.2301 810.774 17.0549 791.748 19.525C752.761 24.5763 713.729 31.1855 675.188 38.7737C601.687 53.238 534.728 80.9205 477.85 128.608C379.649 210.966 317.096 329.974 299.316 453.588C289.102 524.707 297.024 594.069 321.102 661.873C321.458 662.852 321.925 663.675 322.459 664.432C327.043 689.555 332.228 714.612 336.901 739.824C347.961 799.462 351.21 857.586 349.897 918.003C349.741 925.279 357.084 927.304 362.247 924.612C351.61 964.288 329.358 1002.81 298.404 1027.75C258.816 1059.69 189.21 1069.63 149.266 1032.45C141.099 1024.84 130.04 1036.1 137.027 1044.24C165.844 1077.84 208.503 1090.31 252.586 1082.41C298.827 1074.11 335.878 1042.6 360.378 1005.17C388.706 961.885 406.152 906.32 400.878 855.094C395.203 799.885 376.756 745.499 363.293 691.514C360.289 673.979 357.285 656.421 354.614 638.841C335.633 514.115 375.243 384.381 444.471 279.193C491.602 207.605 563.412 155.668 642.476 120.308C715.131 87.8188 814.023 52.8818 894.956 50.4563Z" fill="#FFF7F7"/>
<path opacity="0.5" d="M18.4658 956.746C16.4186 967.115 31.3056 971.187 34.9328 961.107C46.7713 928.173 72.362 898.065 103.716 880.641C119.338 871.962 136.917 866.533 154.942 865.286C176.616 863.773 189.901 870.783 208.571 879.351C218.963 884.113 229.622 874.432 224.259 864.241C214.312 845.304 188.388 839.362 168.071 838.539C144.394 837.56 120.806 844.814 99.8441 854.872C57.2523 875.3 27.3224 911.728 18.4658 956.746Z" fill="#FFF7F7"/>
<path opacity="0.5" d="M151.559 1224.27C159.37 1204.66 166.068 1182.81 181.533 1167.39C194.618 1154.35 212.91 1147.25 231.29 1144.49C249.805 1141.71 269.632 1142.93 287.723 1147.43C298.471 1150.1 309.375 1154.13 317.765 1161.31C325.331 1167.81 327.734 1175.98 333.342 1183.72C338.571 1190.93 353.725 1191.8 355.461 1180.94C359.11 1158.2 339.884 1138.73 320.034 1128.85C295.401 1116.56 263.668 1114.96 236.609 1118.32C212.153 1121.35 188.409 1129.54 169.851 1145.58C147.665 1164.74 139.097 1192.38 134.58 1219.79C132.844 1230.52 147.464 1234.55 151.559 1224.27Z" fill="#FFF7F7"/>
<path opacity="0.5" d="M454.957 941.769C461.322 1026.02 478.946 1116.9 445.767 1198.21C416.26 1270.53 336.461 1320.58 257.575 1282.97C249.809 1279.28 240.174 1289.22 247.695 1295.3C281.074 1322.22 326.492 1326.16 367.059 1313.21C409.05 1299.82 439.202 1269.04 461.633 1233.37C486.579 1193.69 494.79 1144.38 494.256 1098.65C493.655 1045.93 486.089 990.503 472.448 939.477C470.045 930.309 454.223 931.911 454.957 941.769Z" fill="#FFF7F7"/>
<path opacity="0.5" d="M768.212 1294.5C781.007 1282.64 761.58 1264.01 748.74 1275.76C747.806 1276.61 746.938 1277.5 746.137 1278.41C745.625 1278.32 745.113 1278.23 744.557 1278.23C735.3 1277.9 727.534 1283.73 724.262 1291.81C720.724 1300.57 723.283 1311.61 733.164 1315.04C734.743 1315.59 736.346 1315.57 737.837 1315.19C738.259 1316.91 738.727 1318.62 739.327 1320.29C747.561 1343.9 766.676 1358.76 759.555 1385.91C745.692 1438.92 670.21 1436.78 640.236 1399.02C633.961 1391.12 620.32 1397.97 625.95 1407.07C653.766 1452.05 711.578 1470.23 757.263 1435.85C777.536 1420.6 789.574 1396.62 789.218 1371.78C789.04 1358.79 785.302 1346.57 779.049 1335.13C773.218 1324.43 755.706 1306.07 768.212 1294.5Z" fill="#FFF7F7"/>
<path opacity="0.5" d="M1006.07 1458.7C1008.87 1468.49 1023.56 1468.29 1026.48 1458.7C1045.24 1396.77 992.118 1331.66 954.555 1287.02C933.193 1261.63 914.945 1234.86 910.918 1201.68C906.868 1168.5 917.883 1134.83 939.179 1108.64C945.41 1100.99 934.528 1089.99 927.83 1097.71C888.887 1142.6 877.361 1210.16 903.441 1263.74C919.418 1296.57 947.635 1322.42 967.239 1353.2C988.646 1386.82 995.389 1421.45 1006.07 1458.7Z" fill="#FFF7F7"/>
<path opacity="0.5" d="M1166.58 1183.3C1191.46 1173.82 1212.02 1183.03 1236.32 1187.95C1246.33 1189.98 1252.03 1179.45 1245.86 1172.17C1225.95 1148.7 1185 1148.43 1157.63 1158.49C1133.4 1167.39 1104.43 1190.87 1105.09 1218.1C1105.27 1225.07 1113.99 1228.54 1119.22 1223.73C1135.54 1208.8 1144.32 1191.78 1166.58 1183.3Z" fill="#FFF7F7"/>
<path opacity="0.5" d="M1098.77 1044.89C1097.53 1035.23 1083.28 1034.7 1082.73 1044.89C1079.57 1103.06 1046.28 1155.91 1046.54 1214.39C1046.72 1253.28 1065.37 1299.86 1107.61 1311.74C1119.82 1315.17 1126.77 1298.5 1116.15 1292.23C1022.87 1237.31 1108.9 1123.75 1098.77 1044.89Z" fill="#FFF7F7"/>
<path opacity="0.5" d="M1274.44 1359.96C1315.58 1377.34 1343.6 1411.9 1350.48 1454.65C1357.51 1498.31 1335.57 1536.41 1309.89 1570.56C1303.57 1578.98 1315.41 1587.1 1323.3 1583.49C1373.42 1560.6 1392.93 1498.82 1382.52 1448.78C1372.35 1399.91 1329.07 1359.81 1280.51 1346.08C1272.17 1343.7 1266.09 1356.43 1274.44 1359.96Z" fill="#FFF7F7"/>
<path opacity="0.5" d="M1360.31 1261.63C1395.65 1258.74 1420.44 1236.19 1441.29 1210.54C1464.32 1182.21 1486.42 1155.39 1525.81 1149.48C1566.51 1143.36 1600.06 1164.45 1629.06 1189.09C1635.65 1194.67 1648.93 1189.42 1645.24 1180.01C1618 1110.67 1520 1101.52 1463.59 1141.31C1434.08 1162.11 1419.24 1195.56 1391.24 1217.55C1356.95 1244.45 1321.15 1229.32 1284.61 1217.88C1278.22 1215.88 1271.52 1223.69 1275.55 1229.23C1293.53 1253.95 1330.09 1264.1 1360.31 1261.63Z" fill="#FFF7F7"/>
<path opacity="0.5" d="M1541.47 1018.23C1570.09 1002.27 1593.61 974.414 1599.93 942.748C1605.69 913.82 1588.69 872.14 1551.17 880.685C1541.47 882.888 1538.13 898.488 1548.19 902.671C1576.08 914.22 1572.45 940.055 1558.34 961.974C1545.57 981.824 1524.63 996.355 1501.15 1002.03C1446.03 1015.38 1397.27 975.304 1352.48 951.405C1344.02 946.91 1335.83 957.346 1342.29 964.111C1391.76 1015.89 1470.95 1057.53 1541.47 1018.23Z" fill="#FFF7F7"/>
<path opacity="0.5" d="M1497.1 881.82C1505.04 870.516 1508.94 857.587 1519.77 848.129C1532.39 837.114 1547.77 837.315 1562.9 832.152C1571.07 829.37 1574.58 817.22 1565.53 812.859C1528.16 794.923 1466.84 839.117 1480.32 879.706C1482.84 887.183 1492.67 888.14 1497.1 881.82Z" fill="#FFF7F7"/>
<path d="M817.452 382.623C811.199 372.898 812.556 362.151 811.421 351.38C811.132 348.754 807.794 346.796 805.658 349.066C793.73 361.394 797.936 380.865 806.926 393.749C816.873 408.036 835.098 415.512 852.656 414.756C870.725 413.977 888.215 404.097 896.671 388.52C904.215 374.657 904.66 354.14 890.285 344.638C887.08 342.546 881.829 345.261 882.229 349.066C883.275 358.946 887.348 368.248 883.72 378.173C878.936 391.213 864.205 399.268 850.297 399.424C837.368 399.58 824.35 393.349 817.452 382.623Z" fill="#3D2938"/>
<path d="M1083.17 248.306C1059.76 255.85 1059.7 291.499 1067.06 311.793C1071.45 323.921 1080.12 335.025 1092.25 340.343C1104.38 345.662 1120.09 344.082 1129.35 334.869C1139.72 324.499 1139.72 308.077 1136.93 293.924C1134.87 283.443 1131.57 273.029 1125.21 264.261C1118.89 255.516 1109.23 248.618 1098.28 247.238C1092.41 246.504 1087.4 246.949 1083.17 248.306ZM1118.47 299.688C1118.75 301.846 1118.93 304.027 1119.11 306.141C1119.56 311.393 1119.76 317.179 1116.31 321.295C1111.72 326.747 1102.55 326.436 1096.5 322.564C1082.68 313.663 1079.72 295.66 1081.61 280.907C1082.19 276.389 1083.53 271.538 1087.31 268.823C1092.5 265.085 1100.2 266.932 1105.25 270.848C1113.97 277.658 1117.06 288.717 1118.47 299.688Z" fill="#3D2938"/>
<path d="M1216.77 335.248C1226.83 329.618 1232.82 318.47 1233.51 307.299C1234.2 296.106 1230.1 285.002 1223.78 275.611C1218.27 267.444 1210.83 260.234 1201.64 256.14C1192.43 252.09 1181.35 251.378 1172.25 255.65C1171.45 256.006 1170.64 256.407 1169.93 256.83C1146.75 270.248 1156 309.102 1170.69 325.324C1181.9 337.741 1202.02 343.504 1216.77 335.248ZM1183.93 272.429C1196.99 267.667 1209.63 286.203 1213.37 295.839C1219.65 311.95 1204 331.621 1189.05 315.399C1180.64 306.275 1163.9 279.772 1183.93 272.429Z" fill="#3D2938"/>
<path d="M1205.36 233.597C1226.41 230.904 1226.26 207.361 1218.29 193.319C1210.59 179.701 1191.72 165.57 1175.79 176.964C1153.2 193.119 1181.17 236.69 1205.36 233.597ZM1188.27 190.738C1194.7 189.203 1201.27 199.194 1203.34 203.623C1206.32 209.92 1207.3 220.668 1196.44 216.796C1190.01 214.526 1188.96 209.185 1186.36 204.423C1184.44 200.929 1182.86 191.984 1188.27 190.738Z" fill="#3D2938"/>
<path d="M693.153 155.045C702.988 142.739 708.796 120.42 691.55 111.029C667.095 97.633 636.964 139.824 649.648 159.919C660.686 177.387 683.005 167.751 693.153 155.045ZM669.72 131.391C672.257 128.275 680.135 123.313 683.517 127.541C687.545 132.614 680.713 142.383 677.353 146.033C672.524 151.173 662.733 156.38 662.043 145.232C661.576 138.667 666.227 135.596 669.72 131.391Z" fill="#3D2938"/>
<path d="M457.492 330.752C453.353 329.217 448.412 329.529 444.429 331.487C432.969 337.139 428.34 355.809 429.008 367.091C429.119 369.361 429.475 371.698 430.722 373.656C432.635 376.66 436.463 378.173 440.09 378.128C443.717 378.062 447.211 376.593 450.282 374.702C459.583 368.938 465.814 358.814 466.571 348.177C466.927 342.903 465.836 337.206 461.92 333.49C460.629 332.288 459.116 331.375 457.492 330.752ZM449.036 358.657C447.211 361.15 444.963 363.798 441.314 364.131C441.247 360.838 442.182 357.456 443.139 354.073C444.273 351.67 448.613 341.501 452.24 342.969C456.535 344.75 450.148 357.077 449.036 358.657Z" fill="#3D2938"/>
<path d="M1099.71 164.236C1117.82 138.935 1074.34 91.4472 1045.97 105.044C1023.36 115.881 1037.58 145.566 1048.68 159.808C1060.41 174.806 1086.8 182.305 1099.71 164.236ZM1058.74 117.839C1071.76 115.436 1085.62 136.776 1086.42 147.391C1087.76 165.215 1066.93 155.891 1061.1 147.502C1056.16 140.448 1044.05 120.576 1058.74 117.839Z" fill="#3D2938"/>
<path d="M1291.1 383.959C1310.88 378.307 1295.2 334.825 1280.29 331.198C1264.4 327.326 1265.38 353.494 1267.27 361.906C1269.56 372.053 1277.5 387.876 1291.1 383.959ZM1279.46 345.239C1280.22 344.816 1282.8 349.155 1283.94 350.891C1285.85 353.873 1287.27 357.122 1289.1 360.126C1289.05 360.326 1288.99 360.505 1288.99 360.749C1289.03 363.442 1289.45 371.164 1285.65 370.785C1281.55 370.362 1279.33 355.898 1279.11 353.584C1278.97 352.093 1278.19 345.951 1279.46 345.239Z" fill="#3D2938"/>
<path d="M560.524 221.27C565.999 222.427 571.74 220.713 576.814 218.444C594.371 210.588 608.123 195.234 613.686 177.387C616.223 169.22 616.98 159.986 612.885 152.398C610.971 148.837 608.034 145.855 604.54 143.652C601.202 141.56 597.353 140.203 593.392 139.647C565.843 135.975 550.244 166.061 545.86 187.802C544.547 194.411 544.08 201.354 546.261 207.763C548.419 214.149 553.693 219.846 560.524 221.27ZM562.26 186.778C563.996 179.412 568.135 173.493 572.029 167.485C577.904 161.477 584.068 155.29 590.944 157.248C608.479 162.211 587.717 188.87 582.443 194.388C579.039 197.949 568.802 210.566 562.238 202.911C559.234 199.395 561.348 190.494 562.26 186.778Z" fill="#3D2938"/>
<path d="M592.941 297.908C561.053 296.795 542.783 357.589 569.976 373.344C591.606 385.85 609.964 358.391 616.462 341.723C623.293 324.144 615.705 298.664 592.941 297.908ZM599.016 338.252C595.5 346.04 584.574 366.557 574.293 356.076C565.192 346.774 576.407 324.077 585.286 317.712C600.173 307.053 603.222 328.95 599.016 338.252Z" fill="#3D2938"/>
<path d="M535.333 241.472C510.833 243.008 493.676 292.097 516.241 304.937C535.4 315.796 549.019 289.36 554.026 275.964C559.233 262.078 554.827 240.248 535.333 241.472ZM537.136 272.938C535.89 276.431 528.123 293.032 523.206 290.873C521.247 290.005 521.314 287.157 522.004 283.775C525.208 277.655 526.187 270.712 529.993 264.771C532.062 261.522 536.246 256.137 539.139 262.323C540.34 264.838 538.004 270.468 537.136 272.938Z" fill="#3D2938"/>
<path d="M978.936 236.644C978.981 223.782 973.017 210.275 958.442 198.148C946.203 187.978 929.624 182.504 913.58 184.351C893.73 186.665 875.884 200.639 869.297 218.798C862.688 236.956 867.583 258.497 881.313 272.494C918.898 310.902 978.78 277.167 978.936 236.644Z" fill="#3D2938"/>
<path d="M756.841 265.751C772.885 278.992 799.989 277.078 813.853 261.701C826.225 247.927 825.98 232.417 819.015 220.089C806.821 198.437 773.976 186.554 752.413 210.898C738.705 226.364 740.819 252.466 756.841 265.751Z" fill="#3D2938"/>
<path d="M1570.57 1290.63C1608.72 1293.76 1641.69 1264.28 1652.22 1230.77C1674.43 1159.98 1612.52 1105.28 1545.05 1104.48C1584.17 1084.81 1617.44 1054.79 1637.02 1016.05C1663.3 964.133 1662.63 897.776 1628.57 849.064C1599.93 808.075 1546.83 786.022 1499.48 812.169C1480.78 822.472 1465.32 840.496 1462.96 861.636C1460.96 879.594 1471.53 903.94 1493.45 903.539C1507.02 903.294 1516.3 892.457 1530.36 893.614C1546.83 894.971 1560.56 906.832 1564.3 922.231C1573.45 959.616 1534.95 985.829 1501.19 989.902C1464.72 994.308 1423.39 980.956 1391.77 963.91C1370.19 952.272 1349.78 934.559 1337.12 914.02C1313.76 876.145 1336.94 820.892 1351.34 783.685C1367.5 742.073 1384.72 700.95 1398.16 658.38C1438.55 530.316 1424.51 409.416 1360.06 291.32C1301.16 183.395 1203.65 84.9265 1085.93 36.9495C961.049 -13.898 818.209 -6.17642 689.098 24.7549C623.675 40.4431 559.476 64.454 505.001 103.374C455.978 138.355 415.033 182.839 382.767 232.596C329.894 314.152 297.182 409.26 288.37 504.97C278.535 611.449 318.523 701.195 338.372 803.691C349.254 859.812 350.5 921.029 324.976 973.813C312.826 999.003 294.89 1021.83 268.543 1034.36C239.014 1048.4 200.205 1052.85 169.897 1038.52C146.376 1027.42 126.615 1003.59 129.263 977.24C132.356 946.486 155.855 935.805 183.916 930.665C203.81 926.993 223.081 919.561 230.446 899.801C236.878 882.644 232.227 862.46 221.078 848.085C191.927 810.7 133.335 821.738 96.6851 841.098C55.7178 862.772 24.8755 901.024 11.2123 943.838C-17.1377 1032.69 47.462 1143.31 145.752 1155.91C128.774 1180.99 123.544 1212.9 129.53 1246.43C150.937 1366.4 290.729 1432.98 403.64 1380.3C427.294 1369.27 449.436 1353.71 469.641 1335.58C465.97 1408.19 515.26 1482.36 580.571 1515.69C667.379 1560.04 782.56 1537.81 834.231 1454.52C850.564 1428.17 859.599 1396.84 858.175 1366.04C874.931 1386.07 891.821 1405.67 899.765 1432.02C910.736 1468.36 900.277 1516.16 857.373 1527.75C835.499 1533.65 795.756 1517.23 787.7 1548.36C780.802 1574.88 810.865 1598.89 833.274 1607.02C899.075 1630.89 973.756 1580.73 1006.6 1528.37C1036.64 1480.53 1039.96 1424.12 1022.69 1372.74C1060.07 1395.24 1113.3 1399.58 1155.4 1391.16C1165.82 1397.06 1177.61 1399.98 1189.56 1404.09C1209.41 1411.01 1228.86 1421.2 1242.84 1436.8C1255.32 1450.78 1262.33 1468.8 1258.5 1487.18C1254.83 1504.9 1241.06 1523.52 1220.72 1524.32C1215.64 1524.52 1207.08 1522.81 1203.16 1519.01C1195.35 1511.46 1200.36 1505.03 1205.45 1498.4C1209.32 1493.3 1214.37 1489.94 1216.02 1483.38C1219.4 1469.92 1208.9 1457.65 1195.99 1454.27C1165.62 1446.35 1136.11 1476.28 1129.21 1502.05C1110.52 1571.66 1202.74 1613.71 1261.37 1608.13C1328.91 1601.67 1378.04 1548.33 1384.5 1484.4C1391.11 1418.6 1345.95 1359.59 1284.34 1336.87C1294.06 1337.09 1303.85 1336.31 1311.44 1336C1351.7 1334.15 1391.35 1323.38 1426.84 1305C1445.31 1295.43 1462.63 1283.68 1478.27 1270.2C1492.09 1258.25 1502.95 1244.38 1514.68 1230.85C1509.31 1260.65 1541.18 1288.22 1570.57 1290.63ZM1149.24 1371.49C1147.59 1371.2 1146.15 1371.56 1144.95 1372.34C1131.02 1374.9 1116.75 1375.83 1102.62 1375.1C1065.13 1373.25 1034.04 1358.85 1006.78 1336.84C1005.75 1335.06 1004.75 1333.28 1003.69 1331.5C982.745 1296.21 953.861 1264.59 939.241 1226.05C922.685 1182.41 930.719 1136.84 954.484 1097.25C960.916 1086.57 944.827 1078.13 937.617 1087.77C896.65 1142.2 902.769 1212.12 936.104 1268.28C953.016 1296.77 974.423 1322.58 990.289 1351.64C1008.8 1385.6 1016.24 1424.68 1009.27 1462.62C997.299 1527.57 933.122 1598.54 858.553 1591.42C841.574 1589.77 823.216 1582.27 813.691 1567.83C797.313 1543.08 834.186 1551.03 848.161 1550.25C875.554 1548.71 899.832 1531.62 913.384 1509.17C949.166 1449.84 905.328 1371.22 852.277 1332.99C851.654 1331.08 851.054 1329.12 850.319 1327.19C839.349 1298.01 814.581 1271.87 783.939 1262.5C783.472 1261.96 783.005 1261.45 782.493 1260.96C775.239 1253.73 769.186 1245.59 764.157 1236.77C754.032 1219.02 748.29 1198.77 746.955 1178.61C745.398 1154.88 749.537 1131.01 756.568 1108.33C762.71 1088.55 774.994 1068.81 776.129 1048.03C776.262 1045.2 772.746 1044.47 770.832 1045.93C758.237 1055.68 749.848 1071.41 743.729 1087.44C706.9 1109.69 677.415 1149.08 655.118 1183.9C629.794 1223.44 607.942 1269.69 604.538 1316.53C601.556 1357.34 617.088 1401.62 654.428 1424.21C685.604 1443.1 731.512 1439.9 756.123 1412.19C782.003 1383.02 773.036 1341.41 744.686 1317.75C735.718 1310.27 720.341 1300.17 732.602 1288.02C742.149 1278.59 758.482 1278.34 770.877 1280.75C773.236 1281.19 775.528 1281.84 777.775 1282.48C780.646 1283.82 783.628 1284.82 786.699 1285.8C807.683 1295.23 823.06 1314.04 830.603 1335.24C846.826 1380.7 830.781 1432.11 798.315 1467.11C763.667 1504.45 712.085 1521.45 660.748 1517.43C606.051 1513.15 556.494 1484.63 525.162 1441.5C497.88 1403.98 487.577 1361.79 488.757 1317.06C513.146 1291.76 534.13 1263.14 550.73 1235.26C585.066 1177.74 604.805 1111.11 594.613 1044.71C593.077 1034.67 575.743 1037.06 576.254 1047.09C579.348 1106.91 565.951 1164.63 536.155 1217.32C506.915 1269.06 463.611 1319.73 411.717 1351.75C356.442 1385.82 283.074 1387.18 227.398 1353C178.264 1322.85 144.306 1265.3 149.024 1208.49C151.894 1173.87 172.211 1147.83 205.568 1134.83C232.85 1124.24 268.031 1116.59 296.938 1124.91C320.971 1131.83 353.66 1165.41 330.317 1189.69C317.7 1202.82 302.056 1192.82 287.97 1187.62C276.688 1183.41 264.894 1181.16 253.055 1184.61C200.361 1200.1 216.472 1265.57 251.631 1289.29C290.418 1315.46 345.76 1307.38 381.743 1280.79C431.968 1243.65 453.352 1178.76 464.879 1121.3C478.898 1051.76 480.3 973.39 453.419 906.587C451.305 901.336 441.269 901.38 442.159 908.056C446.988 943.794 451.172 978.953 452.24 1014.11C448.056 1024.73 444.118 1035.43 438.933 1045.67C430.076 1063.18 418.438 1079.29 404.641 1093.53C390.666 1108 374.733 1120.17 356.909 1129.94C355.707 1130.61 351.279 1132.39 346.895 1134.77C315.942 1089.48 245.934 1097.27 199.782 1114.65C183.849 1120.61 170.609 1128.94 159.972 1139C113.709 1127.91 73.5646 1106.42 47.6624 1066.25C21.1816 1025.15 17.9771 974.748 39.0728 930.776C59.6788 887.762 103.005 849.086 153.786 844.435C179.488 842.054 209.885 852.335 211.821 880.841C213.935 911.972 175.816 908.679 154.564 915.755C115.444 928.684 98.5321 973.435 113.33 1009.22C131.466 1053.01 181.735 1071.95 227.887 1066.74C339.396 1054.23 373.776 939.032 365.966 846.038C360.113 776.119 334.767 709.65 317.878 641.913C286.457 515.562 319.791 387.386 382.188 274.386C409.982 224.073 446.209 177.987 490.848 140.38C539.804 99.1236 598.329 71.5747 660.37 53.6167C781.358 18.5686 918.39 5.63993 1040.47 42.7575C1159.25 78.8515 1256.72 167.64 1321.39 268.089C1370.17 343.838 1410.4 454.322 1401.01 545.047C1396.42 589.174 1384.61 632.545 1370.52 674.647C1357.06 714.835 1339.52 753.577 1325.88 793.654C1315.65 823.562 1297.51 868.001 1307.08 899.644C1314.49 924.1 1338.88 950.38 1358.8 966.38C1400.32 999.759 1471.84 1022.01 1524.76 1005.66C1569.04 991.971 1606.91 939.855 1575.54 897.375C1563.52 881.13 1542.22 871.205 1521.51 873.475C1510.05 874.721 1491.87 888.63 1485.32 875.434C1479.45 863.484 1488.15 847.974 1496.61 839.517C1513.67 822.494 1541.89 816.419 1565.06 823.696C1594.5 832.886 1615.04 859.278 1625.41 886.248C1648.48 946.108 1628.79 1011.73 1582.1 1055.39C1529.27 1104.84 1448.92 1121.08 1377.6 1109.51C1305.99 1097.87 1252.87 1056.68 1227.57 992.728C1234.4 978.62 1244.26 961.485 1239.72 947.888C1239.36 946.909 1238.12 945.93 1236.96 946.375C1218.62 953.563 1210.95 982.358 1204.41 999.003C1195.55 1021.54 1188.94 1045.29 1188.18 1069.48C1187.54 1089.26 1191.52 1121.79 1205.16 1143.49C1171.67 1139.71 1136.71 1150.66 1112.12 1172.95C1100.04 1183.92 1089.45 1198.77 1091.01 1215.5C1092.21 1228.72 1102.18 1241.42 1116.13 1243.81C1133.69 1246.81 1150.78 1230.77 1168.38 1236.95C1182.29 1241.85 1180.64 1255.89 1173.92 1265.99C1166.38 1277.39 1151.93 1284.37 1138.09 1284.88C1113.64 1285.8 1095.99 1266.64 1088.33 1246.08C1079.12 1221.4 1084.13 1195.05 1091.23 1170.5C1104.07 1126 1128.32 1076.09 1103.82 1031.45C1099.55 1023.61 1088.05 1029.24 1089.71 1037.19C1098.93 1081.36 1083.75 1120.15 1071.36 1161.96C1061.48 1195.23 1056.22 1230.72 1072.38 1263.05C1085.71 1289.6 1112.84 1308.9 1144.41 1305.2C1172.36 1301.89 1200.51 1279.94 1200.69 1251.1C1200.96 1220.28 1169.45 1211.72 1143.23 1217.39C1135.87 1218.99 1120.51 1226.54 1114.24 1218.73C1106.18 1208.69 1120.62 1194.09 1127.48 1187.84C1142.68 1173.93 1163.59 1165.61 1184.38 1164.01C1203.07 1162.61 1224.99 1165.85 1238.87 1179.03C1253.43 1192.87 1260.15 1215.06 1261.77 1234.13C1265 1271.64 1249.69 1309.87 1221.38 1335.8C1201.42 1354.18 1176.06 1365.93 1149.24 1371.49ZM733.403 1335.42C753.097 1352.89 757.103 1384.2 736.096 1402.65C717.804 1418.76 688.408 1419.36 667.513 1407.81C604.182 1372.89 625.567 1288.09 649.844 1236.95C662.395 1210.6 677.972 1185.55 696.263 1162.49C707.256 1148.63 719.851 1136.39 732.402 1124.13C726.95 1146.07 724.814 1168.81 727.729 1191.29C730.444 1212.43 737.164 1233.08 748.602 1251.39C750.249 1253.98 751.984 1256.56 753.787 1259.07C751.161 1259.25 748.558 1259.56 745.909 1260.01C728.953 1262.9 711.106 1273.78 707.145 1290.87C702.361 1311.5 719.651 1323.2 733.403 1335.42ZM355.284 1151.35C380.007 1145.72 417.169 1109.27 425.982 1099.25C434.86 1089.22 443.761 1077.69 451.35 1065.29C450.014 1084.19 447.478 1103.21 443.339 1122.35C430.855 1179.65 406.466 1256.25 343.112 1278.74C316.943 1288.07 284.788 1287.51 261.89 1270.78C248.583 1260.98 238.302 1244.96 240.549 1228.36C243.487 1206.35 263.091 1200.66 282.206 1207.85C305.616 1216.61 328.982 1224.65 347.674 1202.59C360.002 1188.04 361.27 1168.57 355.284 1151.35ZM1467.83 1128.89C1444.11 1145.18 1425.42 1167.43 1406.04 1190.38C1388.08 1211.65 1363.76 1225.91 1334.54 1225.07C1312.44 1224.47 1293.24 1214.23 1276.62 1200.99C1269.12 1180.03 1255.72 1162.74 1236.18 1152.64C1230.44 1141.04 1221.52 1131.25 1216.56 1118.99C1209.52 1101.72 1207.25 1083.01 1208.28 1064.56C1209.26 1047.34 1213.51 1030.42 1219.14 1014.02C1232.56 1056.73 1271.14 1091.64 1312.26 1110.22C1359.77 1131.72 1415.65 1137.17 1467.83 1128.89ZM1362.76 1484.38C1355.12 1554.5 1289.88 1599.07 1219.05 1585.3C1188.12 1579.29 1149.6 1552.52 1148.51 1519.32C1147.95 1502.47 1160.01 1480.42 1178.08 1475.75C1180.73 1475.08 1193.66 1475.75 1193.61 1480.6C1193.57 1482.24 1186.67 1486.92 1185.33 1488.5C1181.24 1493.28 1178.44 1498.07 1177.5 1504.36C1173.32 1532.42 1203.49 1548.87 1229.11 1544.26C1253.85 1539.86 1271.79 1519.63 1278.42 1497.02C1287.34 1466.56 1274.32 1435.87 1250.74 1415.02C1232.02 1398.48 1208.81 1389.76 1185.09 1382.35C1206.07 1373.92 1224.72 1361.48 1240.03 1346.19C1241.3 1347.41 1243.08 1348.28 1245.44 1348.64C1313.82 1358.45 1370.19 1415.62 1362.76 1484.38ZM1496.43 1219.95C1469.32 1253.04 1436.66 1279.5 1396.2 1296.23C1376.98 1304.15 1356.5 1309.76 1335.81 1312.86C1324.17 1314.59 1312.29 1315.44 1300.49 1315.48C1296.02 1315.48 1285.03 1313.52 1276.68 1313.59C1273.5 1312.81 1270.52 1311.77 1267.49 1310.88C1267.38 1310.56 1267.31 1310.21 1267.16 1309.85C1280.58 1284.84 1286.61 1256.18 1282.69 1226.72C1295.42 1235.79 1311.06 1241.49 1327.55 1243.27C1362.98 1247.14 1396.14 1232.43 1418.74 1206.51C1445.49 1175.82 1467.52 1144.42 1508.71 1130.41C1545.3 1117.97 1590.69 1124.04 1616.59 1153.93C1643.34 1184.75 1640.43 1236.35 1605.2 1260.25C1587.38 1272.31 1563.1 1273.62 1546.85 1258.27C1540.69 1252.44 1532.81 1241.07 1536.91 1232.52C1542.25 1221.44 1551.99 1231.92 1560.85 1232.57C1584.95 1234.35 1592.27 1201.5 1575.58 1188.53C1546.47 1165.85 1513.21 1199.5 1496.43 1219.95ZM1545.65 1204.28C1546.81 1203.91 1547.97 1203.51 1549.17 1203.26C1552.33 1203.19 1555.49 1203.15 1558.65 1203.08C1563.36 1204.42 1564.57 1207.13 1562.34 1211.29C1560.72 1211.85 1553.82 1206.71 1551.88 1205.95C1549.79 1205.13 1547.68 1204.6 1545.65 1204.28Z" fill="#3D2938"/>
<path d="M1008.67 503.523C928.648 440.147 810.887 442.195 723.211 488.681C666.556 518.722 625.077 569.281 614.262 631.9C607.519 670.864 609.722 711.208 620.782 749.238C647.084 839.74 734.293 908.057 831.382 915.622C931.541 923.455 1032.21 865.732 1072.02 776.899C1113.32 684.705 1090.56 568.39 1008.67 503.523ZM1058.96 749.55C1031.01 833.443 946.94 892.635 855.704 895.461C769.808 898.154 687.317 846.817 651.98 771.691C606.184 674.335 637.249 554.905 738.855 504.035C810.709 468.053 906.663 464.648 976.603 507.529C1058.63 557.864 1087.89 662.831 1058.96 749.55Z" fill="#3D2938"/>
</g>
<defs>
<filter id="filter0_d_403_14401" x="0.5" y="0.162109" width="1660.32" height="1620.97" filterUnits="userSpaceOnUse" color-interpolation-filters="sRGB">
<feFlood flood-opacity="0" result="BackgroundImageFix"/>
<feColorMatrix in="SourceAlpha" type="matrix" values="0 0 0 0 0 0 0 0 0 0 0 0 0 0 0 0 0 0 127 0" result="hardAlpha"/>
<feOffset dy="4"/>
<feGaussianBlur stdDeviation="2"/>
<feComposite in2="hardAlpha" operator="out"/>
<feColorMatrix type="matrix" values="0 0 0 0 0 0 0 0 0 0 0 0 0 0 0 0 0 0 0.25 0"/>
<feBlend mode="normal" in2="BackgroundImageFix" result="effect1_dropShadow_403_14401"/>
<feBlend mode="normal" in="SourceGraphic" in2="effect1_dropShadow_403_14401" result="shape"/>
</filter>
</defs>
</svg>
