<svg width="1140" height="1562" viewBox="0 0 1140 1562" fill="none" xmlns="http://www.w3.org/2000/svg">
<g filter="url(#filter0_d_403_14455)">
<path d="M86.073 305.52C86.8741 350.493 89.9229 386.676 95.6864 419.387C98.9798 438.08 103.208 456.104 108.192 472.928C108.526 474.04 108.882 475.553 109.283 477.334C111.619 487.214 114.112 496.293 119.052 498.896C120.721 499.786 122.501 500.165 124.348 500.165C132.782 500.165 142.439 491.998 148.648 486.747C149.827 485.745 150.895 484.833 151.785 484.143C178.222 463.426 203.011 439.571 225.42 413.246C246.694 388.233 268.257 360.93 291.355 329.776C292.935 327.662 294.626 325.525 296.34 323.389C300.033 318.783 303.861 313.999 306.665 308.947C315.099 293.86 313.719 284.38 301.413 272.719C290.331 262.216 275.8 253.493 255.639 245.237C231.717 235.446 206.527 227.502 182.161 219.825C172.191 216.687 162.222 213.527 152.342 210.278C150.005 209.521 146.512 208.075 142.439 206.384C125.661 199.441 100.293 188.96 90.8797 197.928C85.806 202.735 86.6517 211.658 87.3416 218.823C87.5196 220.848 87.7198 222.695 87.7198 224.208C87.7198 227.19 87.5862 230.195 87.3192 233.621C87.6752 246.172 87.1858 259.101 86.7185 271.607C86.3179 282.867 85.8727 294.482 86.073 305.52Z" fill="#EB63AD"/>
<path d="M698.128 24.5342C697.015 24.3339 695.747 24.0446 694.389 23.7553C689.071 22.5981 682.44 21.1516 677.878 22.1085C664.838 24.8233 664.37 33.1905 663.925 41.2683C663.858 42.6034 663.769 43.9832 663.636 45.3629L663.325 48.4559C662.791 53.9078 662.278 59.0482 661.566 64.1886C661.077 70.7977 660.387 77.4959 659.72 83.9715C658.852 92.4943 658.006 100.55 657.583 108.427C656.738 124.004 655.781 142.118 655.069 160.142C654.891 164.326 654.49 168.71 654.067 173.36C653.088 184.02 652.087 195.057 653.711 204.893C655.135 213.416 657.138 216.353 663.28 216.353C664.793 216.353 666.551 216.175 668.598 215.863C677.099 214.595 685.355 212.615 693.076 210.701C708.253 206.896 723.118 202.2 737.515 197.638L760.992 190.228C782.176 183.552 803.361 176.854 824.523 170.089L824.791 170C835.316 166.596 849.736 161.945 853.786 151.887C855.789 146.902 855.032 141.139 851.583 134.73C846.042 124.538 837.986 115.593 830.175 106.936L828.151 104.689C809.57 83.9715 789.676 66.77 769.003 53.5518C745.815 38.7538 721.983 28.9848 698.128 24.5342Z" fill="#EB63AD"/>
<path d="M575.186 1040.08C602.401 1038.79 626.323 1036.92 648.286 1034.39C703.852 1027.98 755.166 1016.72 800.829 1000.94C978.072 939.568 1103.8 776.366 1113.66 594.828C1123.18 419.499 1016.79 248.553 854.948 179.124C854.392 178.879 853.746 178.924 853.234 179.258C839.104 187.959 821.213 192.654 803.922 197.171C796.935 198.996 790.326 200.732 784.206 202.668C776.596 205.071 769.008 207.564 761.375 210.056C735.25 218.623 708.258 227.479 681.02 232.642C667.313 235.223 653.449 236.781 644.704 230.751C639.964 227.48 637.027 222.295 635.691 214.863C633.711 203.847 634.623 191.742 635.514 180.037C635.825 175.853 636.137 171.736 636.315 167.731C636.693 159.319 637.093 150.885 637.561 142.474C637.583 141.962 637.405 141.451 637.049 141.095C636.693 140.716 636.203 140.516 635.691 140.516C627.525 140.494 619.135 139.648 611.035 138.825C606.34 138.357 601.667 137.89 596.994 137.556C578.079 136.265 558.63 135.42 539.226 135.042C500.795 134.285 461.942 135.398 423.667 138.313C383.568 141.361 343.579 146.48 304.815 153.49C271.97 159.409 226.997 167.53 221.79 210.278C221.768 210.567 221.679 210.835 221.634 211.124L221.545 211.48C221.323 212.415 222.302 213.527 223.236 213.838C253.033 223.652 283.831 233.777 308.442 253.827C319.079 262.483 331.563 274.233 333.521 288.252C335.435 301.493 327.535 312.352 319.902 322.833L319.413 323.523C286.256 368.941 253.367 412.957 215.448 451.877C215.114 452.233 214.914 452.7 214.914 453.189C214.914 453.367 214.936 453.567 215.003 453.723C221.723 507.13 224.216 562.05 226.619 615.167C227.22 628.141 227.798 641.114 228.444 654.065C230.046 686.287 231.604 718.487 233.184 750.709C234.764 782.931 236.321 815.131 237.923 847.353L265.138 1404.87C265.405 1410.39 265.428 1417.07 265.428 1424.14C265.494 1464.11 265.606 1524.48 311.38 1528.8C321.883 1529.8 332.609 1530.11 343.379 1530.11C354.483 1530.11 365.632 1529.76 376.58 1529.4C386.683 1529.09 397.119 1528.75 407.2 1528.71C415.968 1528.67 424.78 1528.75 433.569 1528.82C451.26 1528.98 469.575 1529.13 487.488 1528.33C501.218 1527.75 516.439 1525.71 523.426 1508.26C527.387 1498.38 527.409 1487.45 527.432 1476.88L527.454 1473.88C527.543 1456.03 527.387 1437.9 527.209 1420.34C527.12 1410.82 527.031 1401.29 526.964 1391.77C526.653 1334.53 526.319 1277.32 525.985 1220.13L525.496 1130.54C525.451 1125.07 525.095 1119.21 524.695 1113.03C523.604 1095.43 522.358 1075.49 528.99 1060.76C537.468 1041.86 557.495 1040.91 575.186 1040.08ZM537.557 767.554C523.404 758.386 521.78 743.032 520.066 726.788L519.955 725.697C518.108 707.984 516.305 690.27 514.503 672.557L511.654 644.719C510.319 631.723 508.94 618.728 507.582 605.754C502.442 556.909 497.123 506.374 493.385 456.438C491.961 437.279 492.183 417.563 511.477 405.524C537.089 389.569 570.602 385.897 603.113 385.897C617.822 385.897 632.331 386.653 645.794 387.343L653.916 387.766C751.317 392.484 812.556 429.49 835.922 497.762C860.489 569.393 838.681 660.763 784.117 715.038C750.115 748.862 703.785 761.88 667.223 769.446L660.303 770.892C622.763 778.77 571.403 789.54 537.557 767.554ZM374.956 280.13C381.565 261.17 399.3 246.84 419.083 244.458C421.108 244.214 423.155 244.103 425.225 244.103C438.91 244.103 452.996 249.376 463.9 258.811C477.341 270.427 484.44 284.202 484.395 298.644C484.328 319.628 468.751 340.412 446.543 349.18C424.78 357.769 403.061 352.896 386.928 335.784C373.242 321.208 368.414 298.844 374.956 280.13ZM410.004 850.869C410.271 850.557 410.56 850.401 410.894 850.401C411.027 850.401 411.161 850.424 411.295 850.468C412.029 850.713 412.63 851.469 412.719 852.248C412.986 855.03 413.119 857.811 413.253 860.593C413.653 869.271 414.076 878.239 419.194 886.517C426.315 898.022 440.023 905.41 454.22 905.41C454.376 905.41 454.532 905.41 454.687 905.41C470.821 905.232 486.042 895.152 490.915 881.4C493.763 873.344 492.295 865.644 490.893 858.212C490.336 855.341 489.78 852.359 489.469 849.4C489.313 847.775 490.737 846.796 491.182 846.529C492.45 845.773 493.897 845.728 494.854 846.374C508.361 855.653 508.517 876.348 500.84 890.968C492.673 906.612 475.449 917.271 457.002 918.072C438.732 918.917 420.841 910.395 411.473 896.398C402.616 883.246 398.366 863.353 410.004 850.869ZM546.035 261.037C555.47 249.977 565.974 247.196 574.118 247.196C575.453 247.196 576.744 247.262 577.946 247.396C591.564 248.82 604.805 257.921 611.658 270.561C619.425 284.847 617.578 300.313 606.562 313.019C592.944 328.707 566.152 330.688 550.374 317.181C534.619 303.606 532.55 276.858 546.035 261.037Z" fill="#FFA7B4"/>
<path opacity="0.1" d="M1036 292.636C1056.56 364.913 1056.03 444.444 1039.81 517.9C1013.12 638.733 942.494 759.432 831.542 820.315C773.551 852.137 712.245 856.854 647.556 861.95C594.973 866.089 528.815 867.469 487.759 905.766C437.156 952.964 441.162 1036.92 443.921 1099.81C447.326 1177.63 456.004 1255.29 455.426 1333.24C454.892 1403.18 446.102 1474.28 415.126 1537.81C413.123 1541.93 411.009 1545.93 408.828 1549.92C434.997 1549.96 461.233 1550.47 487.336 1549.56C507.541 1548.8 527.391 1544.13 538.517 1525.59C549.065 1507.97 548.62 1486.21 548.553 1466.38C548.442 1434.07 548.219 1401.74 548.064 1369.38C547.73 1307.16 547.396 1244.99 547.062 1182.81C546.907 1155.44 546.751 1128.09 546.617 1100.72C546.55 1084.81 542.322 1065.07 562.817 1062C577.638 1059.8 593.326 1060.31 608.257 1059.2C662.265 1055.15 716.228 1047.72 768.544 1033.45C863.207 1007.59 949.059 958.439 1014.19 884.47C1074.12 816.444 1116.04 731.705 1130.24 641.893C1150 516.855 1112.53 389.547 1036 292.636Z" fill="#592639"/>
<path opacity="0.15" d="M954.617 223.605C958.667 223.026 962.717 222.559 966.745 222.114C938.061 198.749 906.351 178.833 872.059 163.3C880.248 147.723 873.973 129.565 862.891 114.456C831.492 71.5522 788.656 34.6348 738.899 15.0301C718.27 6.90787 676.613 -8.2907 656.541 7.17497C648.263 13.4948 645.526 23.6866 644.302 33.5668C643.479 39.8644 642.833 46.0284 642.433 52.1701C639.073 73.5105 638.962 96.2971 637.426 115.969C637.315 117.393 637.248 118.862 637.159 120.308C620.581 116.859 602.356 117.17 586.067 116.236C563.235 114.923 540.404 114.255 517.528 114.211C471.821 114.144 426.114 116.681 380.674 121.799C340.886 126.294 298.094 129.81 259.975 142.65C232.27 152.018 203.853 173.937 203.186 205.247C188.054 200.262 172.944 195.3 157.812 190.315C139.876 184.396 119.248 173.782 100.2 173.248C67.3772 172.357 67.5997 202.866 68.1115 227.789C64.7736 255.716 66.6872 285.668 66.9543 312.438C67.2881 350.134 69.7135 387.831 76.0556 425.015C79.082 443.018 83.0207 460.908 88.1833 478.466C92.0775 491.684 95.9051 507.328 107.432 516.095C132.222 534.966 163.731 501.72 181.4 486.566C188.209 480.736 194.841 474.705 201.361 468.519C200.582 525.353 204.387 582.364 206.946 639.153C209.706 701.105 212.91 763.057 215.892 824.986C220.876 928.128 225.839 1031.25 230.824 1134.39C230.712 1134.77 230.601 1135.17 230.556 1135.63C228.198 1165.14 219.63 1191.27 190.769 1204.77C164.087 1217.28 131.176 1214.92 104.005 1205.37C50.6874 1186.66 9.80908 1126.24 32.8407 1070.5C34.5542 1083.18 38.2703 1095.36 44.145 1106.28C78.2585 1169.44 179.931 1151.43 185.05 1078.13C187.253 1046.36 170.741 1015.51 141.212 1002.54C116.912 991.904 90.2527 993.707 67.0208 1004.14C80.3502 979.843 101.646 958.592 123.165 943.415C128.327 939.788 125.078 932.556 118.981 933.49C73.6746 940.633 42.9879 982.046 34.2203 1027.09C-19.2754 1081.52 3.60065 1170.24 62.971 1210.63C85.3573 1234.13 117.668 1248.28 149.601 1253.97C170.051 1257.6 191.147 1258.05 211.375 1253C218.518 1251.15 227.775 1248.21 236.164 1243.89C238.412 1290.09 240.659 1336.29 242.862 1382.51C244.242 1410.43 244.821 1438.54 247.09 1466.4C248.693 1485.67 251.808 1506.01 262.334 1522.63C267.852 1531.4 275.129 1537.96 283.652 1542.5C303.301 1527.53 315.562 1497.42 323.595 1477.17C352.435 1404.43 353.926 1322.36 351.278 1245.23C348.785 1172.89 340.641 1100.94 333.876 1028.91C327.178 957.635 325.464 886.115 320.146 814.728C313.648 727.542 306.149 639.599 314.85 552.301C321.971 480.736 338.705 404.253 388.262 349.334C426.982 306.43 481.501 286.136 537.711 279.104C607.897 270.314 678.215 283.71 748.2 271.983C817.985 260.3 884.476 233.663 954.617 223.605ZM54.359 1039.48C65.5521 1029.11 79.4381 1021.7 94.5254 1019.12C123.766 1014.18 153.028 1028.49 160.527 1058.19C175.548 1117.94 92.7674 1147.03 63.9724 1094.62C53.8028 1076.13 51.4439 1057.44 54.359 1039.48Z" fill="#FFFCFC"/>
<path opacity="0.3" d="M1091.43 450.763C1111.37 538.372 1092.7 630.41 1054.24 710.364C1050.42 718.331 1046.37 726.164 1042.18 733.93C1022.93 761.724 1004.13 789.183 981.388 814.885C955.776 843.792 926.78 869.071 895.27 890.634C877.512 901.159 859.132 910.661 840.195 918.828C793.508 938.944 742.794 951.895 692.147 956.324C639.742 960.908 589.94 953.454 538.047 948.157C512.078 945.509 485.352 949.492 465.436 967.606C447.745 983.695 438.799 1007.48 436.885 1030.92C430.432 1109.51 457.336 1195.1 464.701 1273.65C467.683 1305.51 469.375 1337.47 469.308 1369.47C469.263 1397.6 470.265 1427.06 465.881 1454.9C455.912 1518.43 383.123 1513.87 335.48 1524.44C324.732 1526.82 325.978 1541.95 335.48 1544.95C376.781 1558.06 430.121 1557.82 469.196 1535.45C472.89 1539.04 477.408 1541.79 481.792 1543.24C536.823 1561.4 530.659 1475.19 531.86 1445.17C533.796 1396.97 535.176 1348.77 536.044 1300.53C536.89 1253.55 537.201 1206.53 537.023 1159.56C536.934 1135.37 536.177 1111.16 536.355 1086.97C536.422 1078.51 536.622 1070.35 540.917 1062.83C545.479 1054.88 552.733 1052.23 558.319 1045.47C559.587 1043.91 560.678 1042.15 561.523 1040.28C579.147 1040.75 596.705 1041.15 614.418 1040.33C665.332 1037.93 716.402 1029.89 765.358 1015.58C857.974 988.546 944.315 939.056 1010.87 868.781C1045.05 832.688 1075.83 789.361 1093.01 742.341C1101.31 719.599 1106.14 694.476 1111.92 670.932C1118.06 645.831 1121.67 620.174 1123.18 594.383C1123.27 592.959 1123 591.712 1122.52 590.6C1128.46 542.244 1124.67 493.155 1107.16 446.424C1103.49 436.722 1089.07 440.371 1091.43 450.763Z" fill="#592642"/>
<path opacity="0.3" d="M483.395 375.77C439.49 416.76 453.866 488.125 462.789 540.13C468.82 575.178 477.943 609.135 486.755 643.538C495.612 678.007 505.092 715.415 522.404 746.702C526.632 754.335 540.362 751.33 539.539 742.051C537.002 712.922 528.991 684.149 523.851 655.399C518.733 626.648 515.172 598.12 511.968 569.125C508.674 539.284 506.449 509.332 504.424 479.379C503.111 460.22 501.464 436.543 512.279 419.586C525.119 399.47 553.848 402.163 574.698 402.007C603.182 401.784 631.799 401.473 660.171 404.388C674.19 405.834 688.632 410.819 702.629 411.286C715.514 411.731 724.726 412.065 736.832 417.695C759.574 428.287 779.713 443.241 796.158 462.178C805.86 473.349 824.441 458.84 816.608 446.401C783.474 393.84 722.612 365.846 663.442 354.541C612.528 344.817 524.518 337.384 483.395 375.77Z" fill="#592642"/>
<path opacity="0.3" d="M334.366 295.173C330.894 285.849 315.095 283.334 312.825 295.173C310.644 306.566 309.398 318.583 306.995 330.221C303.791 329.309 300.319 329.887 297.738 332.958C280.247 353.786 262.178 373.97 245.577 395.489C230.824 414.604 208.749 436.456 202.296 459.91C200.315 467.076 205.967 474.419 212.688 475.576C207.503 487.192 204.654 499.142 205.967 511.18C206.768 518.59 216.582 525.2 222.568 518.057C235.586 502.502 245.533 484.299 257.705 468.032C272.147 448.739 287.212 429.891 301.766 410.643C328.135 375.706 351.078 340.101 334.366 295.173Z" fill="#592642"/>
<path opacity="0.3" d="M767.004 236.203C791.75 228.014 909.066 202.913 865.161 155.181C858.819 148.282 846.247 151.709 844.066 160.744C839.215 180.927 825.374 184.065 807.393 190.184C791.216 195.681 775.038 201.199 758.905 206.763C742.749 212.326 726.593 217.889 710.438 223.452C691.545 229.972 674.21 239.029 660.525 218.445C656.097 211.792 644.236 213.794 644.614 222.762C647.396 288.296 734.782 246.862 767.004 236.203Z" fill="#592642"/>
<path opacity="0.5" d="M710.771 796.172C758.258 786.692 801.851 761.569 832.516 723.939C861.644 688.201 882.317 641.76 878.801 594.94C875.419 549.767 860.687 499.231 826.107 467.788C817.361 459.844 804.789 469.746 810.018 480.205C828.911 517.99 843.464 554.818 837.589 598.011C832.382 636.352 820.521 671.779 794.174 701.019C734.492 767.243 636.224 766.509 553.844 767.288C544.609 767.377 542.095 781.73 551.619 783.799C604.024 795.215 657.275 806.853 710.771 796.172Z" fill="#FFF7F7"/>
<path opacity="0.5" d="M673.254 18.7039C659.947 26.0473 655.318 42.6479 652.514 57.6018C647.752 82.7696 644.548 108.338 643.747 133.929C641.9 131.704 639.496 129.946 636.492 129.167C595.903 118.463 548.794 119.954 507.07 120.422C463.277 120.911 419.372 126.14 376.068 132.416C346.249 136.755 311.98 139.715 283.274 152.243C250.985 146.791 212.577 174.095 211.02 207.074C210.775 212.325 213.556 216.286 217.428 218.489C199.737 212.815 182.269 206.829 163.933 202.69C158.904 201.555 153.897 200.754 148.934 200.264C147.799 197.817 145.775 195.68 142.971 194.567C128.284 188.715 107.433 183.664 92.7906 192.231C86.3373 196.014 81.041 202.49 79.3943 209.855C77.7254 217.243 79.9732 222.896 84.4237 227.613C81.5086 232.709 79.1275 238.517 77.503 245.26C73.3195 262.862 74.7658 281.064 75.9007 298.911C77.3694 321.898 78.905 344.863 81.5308 367.761C86.7379 413.335 92.1899 462.446 116.735 502.345C123.121 512.737 141.88 509.222 140.99 495.781C138.498 458.574 129.663 421.924 125.458 384.918C125.213 382.826 124.99 380.734 124.746 378.642C123.411 350.915 124.211 323.122 127.75 295.818C131.288 268.558 142.103 249.888 172.077 250.177C177.218 250.221 182.291 250.578 187.343 251.112C204.121 254.072 221.144 255.874 237.901 259.212C256.816 262.972 275.82 266.355 295.135 265.599C304.348 265.243 308.553 252.558 299.986 247.729C289.461 241.81 278.401 237.404 267.074 233.599C270.724 227.502 273.439 220.782 277.934 214.773C287.436 202.023 300.72 195.88 315.741 191.763C348.786 182.707 383.99 178.679 417.926 174.785C453.508 170.69 489.246 168.243 524.962 165.706C561.857 163.102 599.976 165.394 636.492 159.853C639.519 159.386 641.9 158.162 643.702 156.426C644.081 169.956 645.171 183.441 647.196 196.815C648.553 205.761 654.473 217.31 663.018 214.35C668.047 212.592 669.938 206.606 671.006 201.399C677.882 168.02 671.83 132.705 679.952 100.149C695.039 39.7329 751.25 71.3098 789.013 87.0425C812.757 96.9227 832.917 109.74 850.008 129.189C855.704 135.665 868.21 128.833 864.939 120.488C853.501 91.3148 826.842 74.7365 800.228 60.4502C769.608 44.0055 734.649 21.3521 700.091 15.6999C691.034 14.2312 681.287 14.2756 673.254 18.7039Z" fill="#FFF7F7"/>
<path opacity="0.5" d="M295.604 1345.57C291.554 1281.3 287.971 1217.01 284.544 1152.7C277.601 1022.84 271.949 892.88 261.557 763.258C255.771 690.959 249.919 616.924 234.653 545.893C232.295 534.878 215.85 537.816 215.56 548.475C213.647 614.855 218.275 682.147 221.88 748.438C225.507 815.174 229.135 881.932 232.896 948.668C240.328 1080.98 246.848 1213.34 255.393 1345.59C257.774 1382.46 260.177 1419.34 263.092 1456.16C265.429 1485.65 267.944 1520.43 290.308 1542.22C302.302 1553.9 327.225 1542.28 320.416 1524.68C310.046 1497.89 304.46 1474.39 302.368 1445.66C299.943 1412.28 297.718 1378.93 295.604 1345.57Z" fill="#FFF7F7"/>
<path d="M495.919 844.859C492.626 842.612 487.196 845.527 487.619 849.621C488.709 860.214 492.893 870.183 489.154 880.797C484.214 894.772 469.016 903.406 454.685 903.561C441.355 903.717 427.915 897.042 420.816 885.559C414.385 875.145 415.765 863.618 414.608 852.091C414.318 849.287 410.869 847.196 408.644 849.621C396.338 862.839 400.678 883.69 409.957 897.509C420.215 912.819 438.997 920.83 457.133 920.007C475.78 919.183 493.805 908.591 502.528 891.901C510.294 877.014 510.739 855.029 495.919 844.859Z" fill="#3D2938"/>
<path d="M872.059 163.324C880.248 147.747 873.973 129.589 862.891 114.479C831.492 71.5756 788.656 34.6585 738.899 15.0538C718.27 6.93157 676.613 -8.26734 656.541 7.19833C648.263 13.5181 645.526 23.71 644.302 33.5902C643.479 39.8877 642.833 46.0517 642.433 52.1935C639.073 73.5339 638.962 96.3208 637.426 115.992C637.315 117.416 637.248 118.885 637.159 120.331C620.581 116.882 602.356 117.194 586.067 116.259C563.235 114.946 540.404 114.279 517.528 114.234C471.821 114.168 426.114 116.704 380.674 121.822C340.886 126.317 298.094 129.833 259.975 142.673C232.27 152.042 203.853 173.961 203.186 205.271C188.054 200.286 172.944 195.323 157.812 190.338C139.876 184.419 119.248 173.805 100.2 173.271C67.3772 172.381 67.5997 202.889 68.1115 227.813C64.7735 255.74 66.6872 285.692 66.9543 312.462C67.2881 350.158 69.7135 387.854 76.0556 425.038C79.082 443.041 83.0207 460.932 88.1833 478.49C92.0775 491.708 95.9051 507.352 107.432 516.119C132.222 534.99 163.731 501.744 181.4 486.59C188.209 480.76 194.841 474.729 201.361 468.543C200.582 525.376 204.387 582.388 206.946 639.177C209.706 701.129 212.91 763.08 215.892 825.009C220.876 928.151 225.839 1031.27 230.824 1134.41C230.712 1134.79 230.601 1135.19 230.556 1135.66C228.198 1165.17 219.63 1191.29 190.769 1204.8C164.087 1217.3 131.176 1214.95 104.005 1205.4C50.6874 1186.68 9.80908 1126.27 32.8407 1070.52C34.5541 1083.21 38.2703 1095.38 44.145 1106.31C78.2585 1169.46 179.931 1151.46 185.049 1078.16C187.253 1046.38 170.741 1015.54 141.212 1002.56C116.912 991.927 90.2527 993.73 67.0208 1004.17C80.3502 979.867 101.646 958.615 123.165 943.439C128.327 939.812 125.078 932.579 118.981 933.514C73.6746 940.657 42.9879 982.069 34.2203 1027.11C-19.2754 1081.54 3.60065 1170.26 62.971 1210.65C85.3573 1234.15 117.668 1248.3 149.601 1254C170.051 1257.63 191.147 1258.07 211.374 1253.02C218.518 1251.17 227.775 1248.23 236.164 1243.92C238.412 1290.11 240.659 1336.31 242.862 1382.53C244.242 1410.46 244.821 1438.56 247.09 1466.42C248.693 1485.69 251.808 1506.03 262.333 1522.66C272.036 1538.03 287.012 1546.91 304.903 1549.31C335.678 1553.43 368.702 1550.09 399.677 1549.96C428.873 1549.85 458.225 1550.63 487.398 1549.63C507.603 1548.87 527.453 1544.2 538.579 1525.66C549.127 1508.04 548.682 1486.27 548.615 1466.45C548.504 1434.13 548.281 1401.8 548.126 1369.45C547.792 1307.23 547.458 1245.05 547.124 1182.88C546.969 1155.51 546.813 1128.16 546.679 1100.79C546.612 1084.88 542.384 1065.14 562.879 1062.07C577.7 1059.87 593.388 1060.38 608.32 1059.26C662.327 1055.21 716.29 1047.78 768.606 1033.52C863.269 1007.66 949.12 958.504 1014.25 884.536C1074.18 816.509 1116.11 731.771 1130.3 641.959C1161.17 446.201 1052.08 244.813 872.059 163.324ZM54.359 1039.48C65.5521 1029.11 79.438 1021.7 94.5254 1019.12C123.766 1014.18 153.028 1028.49 160.527 1058.2C175.548 1117.94 92.7674 1147.03 63.9723 1094.62C53.8028 1076.13 51.4439 1057.44 54.359 1039.48ZM656.964 160.253C657.631 143.029 658.544 125.806 659.479 108.56C660.235 94.5629 662.327 79.431 663.439 64.3436C664.263 58.3576 664.819 52.2602 665.487 45.5621C666.422 35.9489 664.619 26.8031 678.26 23.9548C683.578 22.8422 692.568 25.4233 697.798 26.3802C722.877 31.0533 746.576 41.4677 767.983 55.1754C789.88 69.1724 809.418 86.6632 826.753 105.979C834.986 115.147 843.998 124.76 849.918 135.664C861.178 156.47 839.014 163.48 823.948 168.353C794.975 177.633 765.958 186.734 736.94 195.902C722.254 200.552 707.544 205.182 692.613 208.92C684.602 210.901 676.524 212.814 668.313 214.038C658.945 215.462 657.164 214.216 655.54 204.603C653.292 190.829 656.363 174.183 656.964 160.253ZM150.647 482.674C144.283 487.68 129.574 502.323 119.96 497.227C114.197 494.2 111.66 478.022 110.013 472.414C104.806 454.901 100.734 437.078 97.5518 419.075C90.965 381.646 88.6507 343.505 87.9609 305.497C87.5381 282.332 89.8967 257.587 89.2291 233.576C89.4961 230.505 89.6298 227.434 89.6298 224.207C89.5853 217.509 86.4476 204.736 92.211 199.284C102.981 189.026 140.233 208.274 151.804 212.057C186.14 223.406 221.477 233.287 254.968 246.972C271.145 253.603 287.345 261.948 300.141 274.076C311.623 284.979 313.248 293.347 305.036 308.033C300.986 315.266 294.778 322.008 289.838 328.662C268.72 357.145 246.979 385.006 223.992 412.021C202.117 437.745 177.261 461.823 150.647 482.674ZM1111.74 594.716C1101.75 778.679 972.375 939.523 800.183 999.16C751.026 1016.16 699.645 1026.55 648.04 1032.52C623.785 1035.32 599.485 1037.06 575.074 1038.21C556.137 1039.1 535.998 1040.53 527.23 1060C518.107 1080.25 523.403 1109.11 523.559 1130.56L524.048 1220.15C524.382 1277.34 524.716 1334.55 525.027 1391.79C525.183 1419.16 525.673 1446.51 525.517 1473.88C525.45 1484.96 525.806 1497.09 521.622 1507.57C515.369 1523.15 502.685 1525.84 487.331 1526.48C460.672 1527.69 433.791 1526.75 407.11 1526.86C375.667 1526.97 342.755 1529.89 311.467 1526.93C259.44 1522.03 268.675 1441.1 266.917 1404.78C264.158 1347.82 261.376 1290.8 258.617 1233.81C252.32 1104.97 246 976.106 239.702 847.262C236.52 782.84 233.405 718.419 230.223 653.997C226.885 587.127 225.127 519.68 216.738 453.277C216.693 453.277 216.693 453.211 216.693 453.211C255.146 413.757 288.503 368.984 320.836 324.656C328.78 313.73 337.348 302.315 335.278 288.006C333.209 273.364 320.369 261.236 309.532 252.401C284.675 232.151 253.744 221.96 223.725 212.08C223.569 212.013 223.436 211.968 223.28 211.924C223.391 211.434 223.547 210.945 223.569 210.433C228.554 169.666 271.457 161.432 305.059 155.357C344.335 148.236 383.922 143.23 423.733 140.203C462.096 137.288 500.616 136.198 539.113 136.954C558.384 137.333 577.588 138.156 596.792 139.469C609.699 140.359 622.695 142.384 635.623 142.429C635.178 150.862 634.756 159.274 634.377 167.686C633.71 182.996 631.04 200.019 633.777 215.24C638.316 240.652 661.103 238.338 681.286 234.511C716.468 227.857 750.581 215.262 784.672 204.492C805.79 197.794 833.94 193.298 854.123 180.859C1014.45 249.598 1121.22 420.187 1111.74 594.716Z" fill="#3D2938"/>
<path d="M654.002 385.897C609.051 383.694 550.526 378.976 510.472 403.943C490.934 416.116 489.91 435.498 491.49 456.572C496.208 519.569 503.284 582.099 509.759 644.919C512.541 671.911 515.256 698.904 518.06 725.897C519.818 742.431 521.286 759.253 536.507 769.134C573.113 792.9 628.255 779.437 667.576 771.314C710.969 762.324 753.294 748.327 785.427 716.395C840.347 661.786 862.911 570.772 837.676 497.182C809.949 416.16 732.955 389.724 654.002 385.897ZM780.798 687.377C755.741 718.063 721.828 734.62 683.998 744.233C646.258 753.824 596.768 767.821 558.604 754.269C545.43 749.596 542.738 743.121 541.114 729.569C539.623 717.33 538.532 705.046 537.264 692.762C534.794 669.486 532.368 646.165 529.92 622.844C526.404 589.598 523.222 556.085 518.282 522.973C517.503 511.446 516.747 499.875 515.968 488.348C514.61 468.81 505.553 434.919 524.402 422.391C554.688 402.252 604.934 407.415 639.404 408.394C707.831 410.308 782.667 424.639 812.019 494.824C837.988 556.954 822.856 635.75 780.798 687.377Z" fill="#3D2938"/>
<path d="M486.285 298.644C486.329 284.87 480.187 270.383 465.122 257.387C452.505 246.484 435.393 240.609 418.859 242.612C398.386 245.082 379.961 260.058 373.196 279.529C366.387 299 371.438 322.054 385.591 337.075C424.378 378.198 486.151 342.082 486.285 298.644Z" fill="#3D2938"/>
<path d="M549.197 318.603C565.731 332.8 593.703 330.731 608.011 314.264C620.784 299.51 620.517 282.887 613.33 269.669C600.757 246.46 566.866 233.731 544.636 259.811C530.461 276.412 532.641 304.361 549.197 318.603Z" fill="#3D2938"/>
<path d="M633.335 569.436C621.118 565.831 605.808 569.703 599.288 581.408C594.637 589.753 596.484 603.817 607.522 604.752C608.723 604.863 609.814 604.017 610.437 603.082C613.129 598.988 614.153 591.778 618.871 589.441C631.822 583.01 640.99 599.055 638.497 609.536C633.958 628.562 608.59 635.772 594.014 624.111C582.02 614.498 578.726 596.496 581.241 582.032C583.689 568.057 593.057 558.266 598.576 545.759C600.223 542.043 597.53 538.327 593.436 539.083C562.193 544.891 556.296 592.201 565.62 616.612C577.347 647.365 614.153 660.762 641.257 639.532C665.334 620.662 666.625 579.228 633.335 569.436Z" fill="#3D2938"/>
<path d="M703.65 527.27C700.602 528.961 701.937 533.967 705.431 533.856C729.241 533.233 754.453 544.96 754.898 572.131C755.099 584.793 747.733 598.767 734.982 602.773C715.066 609.026 698.287 580.164 728.373 577.917C733.113 577.561 737.92 571.975 734.448 567.302C717.603 544.582 688.363 570.528 692.034 593.293C696.44 620.575 729.219 630.055 750.759 616.436C800.672 584.948 757.547 497.584 703.65 527.27Z" fill="#3D2938"/>
</g>
<defs>
<filter id="filter0_d_403_14455" x="0.113281" y="0.507812" width="1139.39" height="1561.25" filterUnits="userSpaceOnUse" color-interpolation-filters="sRGB">
<feFlood flood-opacity="0" result="BackgroundImageFix"/>
<feColorMatrix in="SourceAlpha" type="matrix" values="0 0 0 0 0 0 0 0 0 0 0 0 0 0 0 0 0 0 127 0" result="hardAlpha"/>
<feOffset dy="4"/>
<feGaussianBlur stdDeviation="2"/>
<feComposite in2="hardAlpha" operator="out"/>
<feColorMatrix type="matrix" values="0 0 0 0 0 0 0 0 0 0 0 0 0 0 0 0 0 0 0.25 0"/>
<feBlend mode="normal" in2="BackgroundImageFix" result="effect1_dropShadow_403_14455"/>
<feBlend mode="normal" in="SourceGraphic" in2="effect1_dropShadow_403_14455" result="shape"/>
</filter>
</defs>
</svg>
