<svg width="1336" height="1412" viewBox="0 0 1336 1412" fill="none" xmlns="http://www.w3.org/2000/svg">
<g filter="url(#filter0_d_403_14476)">
<path d="M1144.67 1063.22C1084.63 995.109 1003.92 945.285 917.382 922.987C859.414 908.056 808.944 910.059 767.354 928.929C751.465 936.139 736.467 945.596 722.759 957.056C722.537 957.234 722.359 957.479 722.248 957.746C721.402 959.771 720.579 961.774 719.733 963.755C712.234 981.646 705.135 998.536 706.871 1020.34C708.651 1043.2 718.198 1056.77 734.509 1059.6C744.256 1061.29 753.624 1058.55 762.703 1055.9C765.552 1055.08 768.4 1054.23 771.249 1053.54C771.961 1053.37 772.517 1052.77 772.606 1052.03C774.208 1041.04 779.015 1026.51 792.834 1019.76C793.657 1019.36 794.413 1019.39 795.014 1019.81C795.682 1020.3 795.993 1021.21 795.86 1022.17C794.836 1028.93 793.034 1035.25 791.298 1041.35C787.248 1055.55 783.443 1068.96 789.518 1086.06C793.479 1097.18 799.843 1104.84 808.366 1108.84C819.381 1114 833.756 1113.18 852.293 1106.39C852.983 1106.15 853.45 1105.53 853.473 1104.79C853.806 1099.07 854.83 1093.6 856.499 1088.5C859.08 1080.74 862.618 1075.42 866.223 1073.95C868.004 1073.22 869.85 1073.37 872.009 1074.42C872.009 1074.51 871.898 1074.75 871.675 1074.88C871.119 1075.26 870.83 1075.89 870.896 1076.55C871.408 1082.56 870.496 1088.7 869.628 1094.65C868.026 1105.39 866.379 1116.5 872.854 1127.53C887.474 1152.41 914.422 1138.37 930.511 1130C931.112 1129.69 931.49 1129.07 931.49 1128.4C931.557 1119.01 933.983 1110.24 938.456 1103.06C938.678 1102.7 939.257 1102.5 939.724 1102.61C940.124 1102.7 940.169 1102.9 940.191 1103.06C941.103 1107.97 941.415 1113.27 941.726 1118.39C942.483 1130.96 943.285 1143.98 952.519 1154.24C958.906 1161.34 966.984 1164.94 976.219 1164.76C987.901 1164.5 1000.54 1157.73 1009.24 1147.14C1010.02 1146.18 1011 1146.38 1011.69 1146.74C1012.69 1147.25 1013.58 1148.45 1013.22 1149.65C1009.98 1161.31 1002.1 1170.22 991.039 1174.69C979.245 1179.45 965.404 1178.29 953.988 1171.6C943.196 1165.25 935.385 1153.66 932.559 1139.82C932.425 1139.15 931.935 1138.62 931.29 1138.44C930.645 1138.26 929.933 1138.44 929.465 1138.93C917.493 1151.57 906.612 1157.11 894.306 1156.8C881.4 1156.53 868.983 1149.01 861.15 1136.66C857.3 1130.56 854.83 1123.46 853.828 1115.59C853.739 1114.94 853.316 1114.38 852.715 1114.14C852.115 1113.89 851.402 1113.98 850.891 1114.41C841.522 1121.95 829.907 1129.4 814.953 1127.45C802.224 1125.8 790.185 1117.1 781.952 1103.63C776.433 1094.56 772.672 1081.25 771.894 1068.03C771.849 1067.41 771.516 1066.85 770.959 1066.54C770.425 1066.23 769.757 1066.23 769.201 1066.54C754.358 1074.6 737.29 1076.4 723.516 1071.37C711.789 1067.07 702.999 1058.17 698.103 1045.62C692.184 1030.53 690.961 1010.08 694.81 990.903C694.988 990.08 694.543 989.233 693.786 988.9C693.03 988.544 692.117 988.766 691.606 989.434C686.599 995.932 681.97 1002.74 677.831 1009.68C676.407 1012.11 675.05 1014.51 673.737 1016.98C673.581 1017.27 673.514 1017.61 673.514 1017.94C673.67 1020.63 672.246 1023.46 669.976 1024.97C669.709 1025.15 669.486 1025.42 669.353 1025.71C652.597 1060.84 646.967 1100.07 653.465 1136.15C658.293 1162.83 668.908 1186.5 684.195 1204.6C696.078 1218.7 710.676 1227.63 723.249 1228.45C731.616 1229.01 739.182 1226.2 745.791 1220.17C747.327 1218.79 748.995 1217.99 750.753 1217.84C751.243 1217.79 751.688 1217.57 751.999 1217.19C752.311 1216.81 752.467 1216.35 752.4 1215.86C749.44 1185.39 753.38 1154.97 763.505 1130.18C763.66 1129.76 763.949 1129.78 764.038 1129.78C764.105 1129.8 764.306 1129.83 764.328 1130.23C765.262 1142.56 765.551 1155.11 765.818 1167.23C766.575 1201.1 767.354 1236.13 782.642 1269.06C800.466 1307.52 838.14 1338.31 882.089 1320.42C883.002 1320.04 883.447 1319.02 883.091 1318.08L882.023 1315.28C871.675 1286.78 866.98 1247.08 884.804 1221.17C884.982 1220.91 885.606 1220.66 886.073 1220.77C886.295 1220.82 886.34 1220.91 886.362 1221.09C887.942 1231.63 888.209 1242.36 888.476 1252.75C888.877 1268.02 889.277 1283.82 893.817 1299.37C901.85 1326.96 918.562 1350.53 940.837 1365.73C958.35 1377.68 977.71 1383.6 997.448 1383.6C1021.19 1383.6 1045.54 1375.03 1067.92 1358.05C1068.32 1357.74 1068.59 1357.27 1068.63 1356.76C1068.68 1356.25 1068.5 1355.74 1068.14 1355.36C1041.6 1327.25 1023.95 1286.82 1019.72 1244.47C1019.39 1241.14 1021.64 1240.11 1022.99 1239.82C1025.66 1239.22 1029.16 1240.42 1030.2 1243.38L1032.58 1250.04C1048.5 1294.5 1066.52 1344.9 1113.1 1367.24C1138.78 1379.57 1166.79 1380.55 1189.98 1369.93C1210.25 1360.68 1224.83 1343.01 1231.03 1320.2C1244.21 1271.71 1230.46 1217.52 1216.62 1180.61C1201.26 1139.42 1177.05 1099.92 1144.67 1063.22Z" fill="#AB6550"/>
<path d="M779.505 1296.95C768.557 1280.21 760.368 1259.72 755.806 1237.66C755.672 1237.04 755.227 1236.51 754.604 1236.31C754.003 1236.11 753.314 1236.24 752.846 1236.66C741.564 1246.43 728.947 1249.7 715.283 1246.39C684.04 1238.8 655.668 1199.57 645.521 1174.13C626.985 1127.76 628.765 1072.82 650.395 1023.37C650.595 1022.9 650.595 1022.39 650.395 1021.92C650.194 1021.46 649.816 1021.1 649.349 1020.92C559.959 987.922 507.91 891.478 497.362 815.841C493.268 786.467 494.269 756.871 500.388 727.853C500.567 726.986 500.099 726.096 499.254 725.784C498.43 725.473 497.473 725.806 497.028 726.562C495.493 729.211 493.646 732.349 491.665 735.464C462.648 781.572 416.429 820.514 361.554 845.125C336.23 856.496 309.86 864.975 283.202 870.338L281.956 870.583C260.571 874.833 233.934 880.107 211.637 875.278C211.036 875.144 210.413 875.323 209.968 875.768C209.523 876.19 209.345 876.814 209.456 877.414C237.027 1011.8 315.179 1134.81 423.839 1214.88C480.873 1256.93 545.117 1287.31 614.812 1305.18C650.839 1314.39 687.556 1320.07 723.895 1322C733.864 1322.54 743.945 1322.8 754.025 1322.8C762.37 1322.8 770.715 1322.63 779.038 1322.25C784.267 1322.02 789.518 1321.56 794.592 1321.09L796.462 1320.93C797.174 1320.87 797.797 1320.38 798.02 1319.71C798.242 1319.02 798.042 1318.26 797.508 1317.8C790.409 1311.37 784.334 1304.36 779.505 1296.95ZM461.624 988.1C461.424 986.764 462.448 985.029 463.761 984.473C464.295 984.25 465.029 984.116 465.853 985.162C477.424 999.782 480.005 1025.82 471.505 1041.97C467.566 1049.43 459.51 1058.11 443.466 1057.02C429.936 1056.1 417.875 1046.96 409.486 1031.27C398.716 1011.13 397.202 985.562 405.859 970.497C406.393 969.585 407.35 969.63 407.661 969.652C408.284 969.741 409.041 970.119 409.308 970.987C411.066 977.173 412.045 983.85 413.069 990.904C415.539 1007.93 418.12 1025.51 432.473 1036.97C440.128 1043.06 446.626 1044.69 451.744 1041.75C465.185 1034.07 462.96 997.468 461.624 988.1ZM406.593 1090.51C406.994 1090.33 407.461 1090.26 407.928 1090.26C408.952 1090.26 410.065 1090.64 410.754 1091.31C411.377 1091.91 411.489 1092.62 411.133 1093.51C409.931 1096.52 411.756 1103.61 415.294 1114.83C415.628 1115.92 415.939 1116.85 416.14 1117.57C419.411 1128.51 423.461 1136.75 428.846 1143.47C430.626 1145.67 446.648 1164.94 461.602 1159.6C474.909 1154.84 472.417 1137.5 470.77 1126.02C470.392 1123.4 470.036 1120.9 469.925 1118.95C469.836 1117.63 471.015 1116.59 472.128 1116.16C472.573 1116.01 474.086 1115.54 474.998 1116.72C485.168 1129.74 490.063 1149.3 478.114 1163.7C466.787 1177.36 447.538 1174.58 434.432 1166.23C418.832 1156.33 410.777 1140.11 406.771 1128.25C402.877 1116.88 397.87 1094.33 406.593 1090.51ZM334.783 1046.29C337.098 1050.43 345.554 1064.03 356.792 1065.16C362.11 1065.69 367.05 1063.31 371.545 1058.08C374.928 1054.12 375.261 1046.71 375.506 1041.28C375.551 1040.15 375.595 1039.1 375.684 1038.21C376.663 1025.13 377.019 1012.31 376.73 1000.09C376.708 998.469 377.976 998.113 378.51 998.024C379.267 997.891 380.736 998.091 381.203 999.559C387.233 1019.43 396.335 1049.43 381.47 1068.5C376.686 1074.66 370.032 1078.22 362.244 1078.82C352.43 1079.58 341.838 1075.6 333.916 1068.14C313.399 1048.8 312.13 1018.12 313.221 1001.54L313.332 999.737C313.866 990.77 315.29 966.915 323.924 960.884C325.215 959.994 326.595 959.549 328.108 959.549C328.976 959.549 329.91 959.705 330.867 959.994C331.223 960.106 331.49 960.35 331.624 960.662C331.757 960.996 331.735 961.374 331.557 961.708C326.862 970.475 326.572 987.12 326.372 999.27C326.35 1001.23 326.305 1003.01 326.261 1004.59C325.682 1021.43 328.464 1035.07 334.783 1046.29Z" fill="#339E6E"/>
<path d="M418.899 690.111C393.108 723.869 356.68 749.571 313.599 764.436C292.081 771.846 269.428 776.23 246.24 777.431C232.688 778.143 214.129 779.122 198.953 774.916C198.397 774.761 197.774 774.895 197.329 775.251C196.884 775.629 196.617 776.185 196.661 776.764C198.419 806.048 201.645 834.22 206.274 860.501C206.43 861.369 207.186 861.991 208.054 861.991C208.099 861.991 208.166 861.991 208.21 861.991C213.351 861.524 218.647 861.435 223.765 861.346C227.703 861.279 231.753 861.213 235.759 860.968C250.913 860.1 266.824 857.808 284.381 854.003C310.773 848.262 335.696 839.895 358.438 829.147C408.863 805.336 449.564 770.978 476.111 729.811C505.507 684.259 518.502 631.431 512.761 581.073C509.646 553.591 499.877 525.819 483.699 498.47C476.979 487.166 468.701 476.663 460.69 466.516L457.708 462.71C457.374 462.287 456.885 462.043 456.351 462.02C455.839 461.976 455.305 462.198 454.949 462.599C451.166 466.649 446.915 470.121 442.331 472.925C441.553 473.392 441.263 474.371 441.619 475.217C452.857 500.34 464.161 531.004 462.759 568.1C461.113 611.96 445.536 655.263 418.899 690.111Z" fill="#FFEFE6"/>
<path d="M31.7693 151.618C18.7292 190.716 24.893 228.301 48.2362 252.133C60.8535 264.995 76.8756 271.448 96.1688 271.448C113.259 271.448 132.886 266.397 154.983 256.294C169.002 249.885 182.843 242.609 196.239 235.555C213.196 226.654 230.709 217.441 248.667 209.942C290.658 192.407 352.009 179.055 405.838 214.904C406.395 215.26 407.084 215.305 407.663 215.016C408.241 214.726 408.62 214.125 408.642 213.458C409.754 183.083 404.258 157.514 391.819 135.284C374.706 104.597 345.066 82.2552 301.228 67.0343C234.025 43.6022 158.121 46.9847 98.1938 76.0691C65.6158 91.9131 43.2518 117.326 31.7693 151.618Z" fill="#402F38"/>
<path d="M245.351 576.98C262.664 552.123 257.279 517.698 251.738 493.976C245.418 467.051 234.692 441.772 219.805 418.829C219.405 418.206 218.848 417.294 218.203 416.203C214.286 409.661 210.526 403.675 207.699 402.318C202.67 399.937 195.995 404.587 191.121 407.97C189.875 408.838 188.762 409.616 187.85 410.15C187.116 410.573 186.382 410.974 185.625 411.374L183.867 412.332C177.614 416.56 171.071 420.476 164.729 424.259C158.966 427.708 153.514 430.957 148.707 434.184C120.736 453.099 96.1243 469.922 73.4487 485.588C71.713 486.789 69.3543 488.213 66.8842 489.704C57.2042 495.512 45.1655 502.767 43.7191 511.668C43.1627 515.095 44.2308 518.41 46.9234 521.526C53.2209 528.869 63.6575 534.61 72.8701 539.684C76.0745 541.442 79.1674 543.155 81.949 544.847C106.405 559.734 133.064 573.085 161.214 584.568C177.28 591.11 193.413 596.406 208.056 596.406C222.475 596.406 235.449 591.221 245.351 576.98Z" fill="#FFCC99"/>
<path d="M1276.19 410.195C1239.8 272.316 1158.4 163.812 1040.75 96.364C948.181 43.3134 840.812 17.0325 730.194 20.3927C618.885 23.7973 511.07 59.6689 409.776 127.028C408.997 127.54 408.73 128.586 409.197 129.409C422.082 153.041 428.023 178.21 426.399 202.243C424.552 229.524 419.189 237.691 415.027 239.761C412.557 240.985 409.665 240.451 406.171 238.136L405.815 237.914C405.592 237.758 405.37 237.624 405.103 237.402C379.979 215.883 352.052 206.849 319.764 209.786C316.359 210.075 312.709 214.815 308.281 220.979C307.324 222.314 306.523 223.449 305.945 224.095L305.41 224.696C300.582 230.214 295.597 235.911 291.258 242.053C280.465 257.118 270.585 273.518 261.884 290.786C253.206 308.099 245.684 326.902 239.52 346.663C237.094 354.451 235.314 362.685 233.579 370.629C231.776 378.974 229.885 387.585 227.281 395.663C227.103 396.22 227.192 396.82 227.548 397.288C230.863 401.783 233.845 406.745 236.471 411.107C237.272 412.42 238.029 413.688 238.764 414.867C246.307 427.107 253.005 440.547 258.657 454.833C270.874 485.742 294.284 561.825 248.288 600.767C235.025 612.005 218.958 616.634 199.064 614.898C198.53 614.853 198.019 615.031 197.64 615.409C197.262 615.788 197.062 616.3 197.084 616.812C198.33 639.331 197.306 662.608 196.35 685.105C195.549 703.375 194.748 722.268 195.126 740.648C195.282 746.657 195.459 752.642 195.704 758.651C195.726 759.14 195.949 759.608 196.305 759.919C196.683 760.253 197.173 760.409 197.64 760.386C205.184 759.875 213.128 760.319 220.828 760.742C228.394 761.165 236.249 761.588 243.659 761.12C264.354 759.83 284.649 755.958 303.964 749.638C347.157 735.53 384.23 709.071 408.374 675.114C432.874 640.6 445.981 598.831 445.247 557.508C444.913 536.546 440.885 516.095 433.297 496.691C431.739 492.685 430.093 488.858 428.513 485.12L426.888 481.27C426.554 480.447 425.664 480.001 424.819 480.202C406.46 484.43 387.256 479.913 374.661 468.43C355.123 450.539 353.832 420.943 361.22 399.558C367.206 382.134 380.247 370.896 397.982 367.892C416.741 364.71 438.504 371.341 453.436 384.737C465.942 395.975 472.328 410.706 471.394 426.194C471.015 432.113 469.658 437.943 467.388 443.529C467.143 444.152 467.232 444.842 467.677 445.376C480.651 461.131 491.421 479.134 499.366 493.064C514.742 519.878 524.444 547.338 528.205 574.687C531.654 599.899 530.697 625.913 525.312 652.016C525.134 652.883 525.624 653.773 526.447 654.085C527.27 654.396 528.227 654.062 528.672 653.283C540.155 633.056 554.241 614.542 570.507 598.208C627.475 540.996 709.499 514.516 789.876 527.4C872.767 540.618 943.175 595.003 978.223 672.866C1012.27 748.525 1009.71 838.182 971.213 918.848C970.991 919.316 970.99 919.828 971.168 920.295C971.346 920.762 971.725 921.14 972.192 921.318C1058.62 954.564 1135.3 1014.09 1188.13 1088.99C1188.47 1089.46 1189 1089.75 1189.58 1089.77H1189.6C1190.18 1089.77 1190.71 1089.5 1191.05 1089.04C1264.66 990.101 1305.69 861.592 1309.68 717.416C1311.66 646.207 1310.81 568.189 1291.43 480.179C1286.4 452.697 1281.55 430.489 1276.19 410.195ZM1123.69 265.307C1131.03 258.519 1129.07 254.069 1125.85 246.703L1125.65 246.258C1117.41 227.588 1102.06 214.259 1087.22 201.375L1082.79 197.525C1082.1 196.924 1081.94 196.234 1082.32 195.456C1082.77 194.521 1083.97 193.719 1085.17 193.964C1103.86 197.658 1126.03 214.948 1136.71 234.219C1141.56 242.965 1146.28 256.206 1141.2 269.602C1136.26 282.553 1126.36 284.778 1118.88 284.355C1100.12 283.287 1075.8 264.617 1071.55 248.017C1071.24 246.815 1072.04 245.769 1072.91 245.324C1073.15 245.19 1073.53 245.035 1073.95 245.035C1074.38 245.035 1074.87 245.19 1075.31 245.702C1082.52 253.691 1090.53 261.88 1102.42 266.709C1110.38 269.936 1116.15 272.272 1123.69 265.307ZM1164.79 632.789C1165.08 632.678 1165.39 632.633 1165.75 632.633C1166.59 632.633 1167.53 632.967 1168.04 633.702C1176.38 645.629 1184.24 656.043 1195.94 662.764C1203.73 667.214 1209.09 665.767 1212.21 663.765C1219.31 659.225 1222.18 647.12 1221.33 637.507C1220.09 623.309 1213.39 610.492 1206.94 598.075C1202.26 589.084 1197.41 579.783 1194.79 570.192C1194.52 569.213 1195.14 568.367 1195.88 567.967C1196.26 567.766 1197.19 567.388 1197.99 568.234C1224.65 597.318 1251.2 638.775 1226.34 671.108C1219.26 680.299 1210.16 683.592 1200.02 680.566C1181.44 675.047 1164.95 650.925 1163.68 634.636C1163.61 633.701 1163.97 633.078 1164.79 632.789ZM1198.08 498.582C1191.98 512.49 1182.21 519.188 1169.86 517.964C1149.86 515.984 1125.54 492.708 1120.75 470.922C1120.66 470.477 1120.77 470.143 1121.09 469.943C1121.22 469.876 1121.37 469.809 1121.55 469.809C1121.78 469.809 1122 469.876 1122.24 470.076C1126.29 473.503 1130.12 477.531 1133.79 481.425C1140.42 488.413 1147.25 495.645 1156.07 500.207C1168.11 506.437 1175.29 503.5 1179.21 499.94C1186.33 493.464 1187.98 479.334 1183.04 467.117C1175.05 447.29 1159.76 430.845 1144.94 414.956C1139.44 409.059 1134.26 403.496 1129.43 397.755C1128.56 396.731 1128.45 395.596 1129.14 394.706C1129.7 393.972 1130.85 393.349 1132.41 394.016C1165.32 408.592 1215.26 459.373 1198.08 498.582ZM1115.39 608.934C1124.13 600.99 1121.04 579.049 1116.88 562.025C1113.12 546.493 1106.96 530.782 1098.52 515.294C1096.14 510.955 1093.16 506.683 1090.29 502.566C1085.41 495.578 1080.36 488.346 1078.14 480.647C1078.09 480.491 1078.18 480.291 1078.29 480.202L1078.65 480.09C1099.86 486.699 1115.59 517.542 1123.09 535.344C1135.35 564.584 1138.93 588.306 1133.73 605.863C1131.01 615.031 1125.16 621.907 1117.21 625.245C1109.05 628.672 1099.7 627.96 1090.93 623.287C1071.55 612.917 1060.07 590.998 1061.69 567.455C1061.83 565.741 1063.07 565.43 1063.45 565.385C1064.3 565.274 1065.34 565.608 1065.83 566.943C1070.93 580.629 1082.01 604.461 1098.94 610.38C1106.04 612.873 1111.56 612.383 1115.39 608.934ZM1138.33 762.834C1138.73 762.01 1139.58 761.721 1140.36 761.721C1140.49 761.721 1140.6 761.722 1140.73 761.744C1141.6 761.855 1142.69 762.367 1142.94 763.457C1144.43 770.2 1145.07 777.165 1145.67 783.929C1146.45 792.474 1147.23 801.309 1149.79 809.988C1153.08 821.203 1162.05 841.253 1174.76 845.281C1180.21 847.016 1185.73 845.726 1191.11 841.453C1212.54 824.385 1191.87 772.558 1178.7 755.157C1177.85 754.044 1177.87 753.087 1178.74 752.22C1179.94 751.04 1182.3 750.573 1183.77 751.752C1201.37 765.616 1219.04 803.979 1214.61 830.861C1212.34 844.613 1204.82 853.87 1192.23 858.321C1173.76 864.863 1160.83 856.051 1153.24 847.484C1134.84 826.7 1127.45 784.753 1138.33 762.834ZM861.551 165.904C864.578 166.994 867.56 168.485 870.453 169.932C875.349 172.379 880.422 174.916 886.118 175.828C893.284 177.03 900.516 175.25 904.566 171.311C907.57 168.396 908.816 164.457 908.171 159.895C906.057 144.407 892.283 140.736 880.133 137.487C873.524 135.729 867.292 134.06 862.708 130.811C862.041 130.344 861.596 129.387 861.663 128.586C861.707 128.074 861.952 127.74 862.442 127.518C875.348 121.42 893.573 124.447 906.769 134.839C917.918 143.629 922.858 155.579 920.343 167.64C917.361 181.948 903.097 187.979 889.946 187.667C877.239 187.333 863.443 180.702 861.262 166.638C861.24 166.304 861.418 165.926 861.551 165.904ZM792.457 87.0841C782.332 99.0783 762.549 105.643 751 100.881C750.087 100.503 749.242 99.4571 749.109 98.567C749.042 98.0552 749.22 97.6767 749.665 97.2984C753.514 94.2498 757.876 92.4251 762.504 90.4891C763.706 89.9772 764.908 89.4875 766.132 88.9312L768.29 87.9744C771.272 86.6837 774.365 85.3488 777.191 83.5018C779.684 81.8996 783.711 77.9164 784.646 73.5326C785.113 71.3741 784.757 69.3488 783.645 67.6353C781.264 63.9858 776.902 62.7621 772.118 62.7621C764.596 62.7621 756.051 65.7884 752.535 67.1681C748.485 68.7703 744.658 70.8175 740.942 72.8202C738.36 74.1999 735.69 75.6242 733.042 76.8704C731.974 77.3599 730.994 77.0036 730.46 76.4473C730.149 76.1135 729.704 75.3793 730.282 74.2667C736.803 62.1612 755.205 51.9027 771.294 51.3909C778.86 51.1461 789.119 52.904 795.238 62.6952C801.847 73.2207 796.329 82.5 792.457 87.0841ZM731.729 191.183C731.84 190.337 732.33 189.313 733.331 189.135C738.004 188.29 742.944 187.911 747.706 187.533C753.915 187.044 760.346 186.554 766.466 185.041C777.436 182.326 785.714 173.826 786.181 164.813C786.56 157.203 781.441 150.95 772.162 147.656C753.981 141.159 736.87 147.278 720.336 153.197C714.016 155.467 707.496 157.803 701.109 159.317C700.53 159.45 700.108 159.138 699.885 158.827C699.707 158.582 699.552 158.204 699.796 157.781C709.009 142.516 732.975 131.167 756.741 130.833C767.578 130.677 787.072 132.814 797.352 148.747C806.854 163.545 799.889 181.013 788.073 190.604C767.845 207.093 742.632 198.193 732.73 193.608C731.818 193.163 731.618 192.028 731.729 191.183ZM754.916 276.233C755.072 276.01 755.25 275.877 755.54 275.877C755.673 275.877 755.828 275.899 756.029 275.966C758.721 276.967 761.815 278.369 765.086 279.838C780.841 286.914 802.403 296.617 812.617 277.635C815.688 271.916 816.089 266.975 813.774 262.903C809.368 255.115 796.64 253.736 791.232 253.491C782.776 253.135 774.032 252.756 765.998 250.375C764.886 250.041 764.262 249.352 764.195 248.395C764.129 247.349 764.796 245.969 766.198 245.368C778.771 240.072 804.184 237.958 817.002 246.548C827.26 253.468 828.684 268.044 824.79 278.881C820.673 290.341 812.818 297.351 802.114 299.131C786.671 301.69 766.399 292.856 754.939 278.569C754.405 277.946 754.493 276.811 754.916 276.233ZM564.477 185.508C563.031 185.953 561.651 184.907 561.005 183.683C560.716 183.127 560.16 181.703 561.451 180.657C563.231 179.233 565.078 177.765 566.969 176.274C577.228 168.196 588.844 159.027 595.987 148.302C604.643 135.306 600.749 126.828 597.634 122.911C592.983 117.081 584.416 113.832 575.381 113.832C571.02 113.832 566.547 114.589 562.363 116.169C538.219 125.292 524.021 146.388 510.269 166.772C507.599 170.71 504.973 174.627 502.303 178.409C500.945 180.323 498.876 180.524 497.407 179.878C496.094 179.3 494.893 177.876 495.404 175.561C500.3 153.197 521.907 121.42 549.59 106.933C564.788 98.9892 579.698 97.6099 592.671 102.951C609.472 109.893 618.129 126.695 613.278 142.895C606.513 165.526 583.637 179.745 564.477 185.508ZM629.811 497.536C604.933 486.121 584.171 455.434 586.24 433.181C586.374 431.78 587.509 430.823 588.577 430.6C588.71 430.578 588.888 430.555 589.044 430.555C589.645 430.555 590.313 430.8 590.824 431.735C592.226 434.294 593.539 436.854 594.852 439.368C600.727 450.65 606.268 461.309 616.126 470.41C625.027 478.599 643.563 488.546 655.113 483.895C661.143 481.47 664.459 475.684 665.015 466.716C666.751 437.832 633.372 408.681 613.433 391.257L611.586 389.655C610.852 389.01 611.008 388.253 611.275 387.719C611.675 386.94 612.565 386.295 613.544 386.518C636.331 392.526 655.958 408.681 668.82 432.024C678.812 450.138 687.468 475.128 671.936 491.217C657.716 505.904 641.182 502.766 629.811 497.536ZM610.273 324.788C610.184 324.477 610.34 324.054 610.651 323.742C610.74 323.653 611.008 323.431 611.297 323.431C611.364 323.431 611.408 323.431 611.475 323.453C614.613 324.588 620.087 328.171 626.407 332.288C642.874 343.013 663.346 356.343 674.917 350.223C679.924 347.553 682.572 341.522 682.75 332.265C683.262 304.805 652.554 289.362 630.145 278.102C626.206 276.122 622.468 274.252 619.175 272.428C617.439 271.471 617.439 270.202 617.75 269.29C618.262 267.799 619.931 266.419 621.845 266.753C643.252 270.113 667.463 276.522 684.754 298.352C694.745 310.97 702.466 330.73 694.188 348.376C686.823 364.109 674.25 366.713 664.971 366.156C643.341 364.866 616.771 344.727 610.273 324.788ZM338.456 353.962C334.428 366.98 325.238 375.725 312.554 378.595C298.267 381.844 282.134 376.993 272.41 366.49C263.909 357.299 261.461 345.016 265.533 331.864C270.184 316.955 285.45 305.696 301.872 305.095C302.317 305.073 302.762 305.073 303.207 305.073C306.634 305.073 309.95 305.562 313.11 306.497C322.211 309.234 330.267 316.11 335.162 325.323C340.036 334.513 341.237 344.949 338.456 353.962Z" fill="#AB6550"/>
<path opacity="0.1" d="M1282.13 361.84C1271.8 333.757 1259.63 306.564 1245.57 280.483C1275.03 406.078 1284.24 536.234 1260.83 661.829C1252.26 707.825 1239.45 754.49 1219.02 796.748C1198.68 838.828 1164.48 876.813 1154.44 923.321C1145.34 965.468 1168.44 996.622 1183.64 1033.56C1197.94 1068.34 1194.58 1106.62 1165.5 1133.21C1138.75 1157.67 1098.72 1156.13 1065.52 1149.56C1030.74 1142.69 999.717 1127.85 968.808 1110.98C906.634 1077.07 821.317 1024.02 769.423 1102.17C758.497 1118.61 753.69 1134.43 751.154 1153.77C749.596 1165.61 748.861 1178.25 743.476 1189.13C731.148 1214.03 698.949 1212.67 676.362 1203.55C651.038 1193.31 641.381 1169.28 624.447 1150.12C601.037 1123.64 568.614 1164.1 557.777 1184.92C545.85 1207.82 541.355 1235.71 521.016 1253.33C508.376 1264.3 492.354 1269.37 475.598 1271.24C510.423 1290.51 547.363 1306.22 585.883 1317.86C624.869 1329.66 665.102 1337.2 705.669 1340.69C726.965 1342.5 748.417 1343.16 769.802 1342.54C787.515 1342.07 806.429 1342.14 823.653 1337.38C844.927 1347.15 868.648 1348.42 888.208 1333.64C899.713 1355.34 916.803 1373.9 937.921 1386.69C982.115 1413.44 1047.56 1409.54 1077.27 1366.62C1080.07 1369.09 1082.92 1371.45 1085.9 1373.65C1121.53 1400.06 1175.54 1407.07 1213.32 1380.9C1256.42 1351.06 1259.52 1291.78 1253.31 1244.56C1246.88 1195.61 1228.41 1148.87 1202.33 1107.06C1275.12 1011.26 1314.35 895.238 1326.12 775.986C1339.87 637.351 1330.5 493.465 1282.13 361.84Z" fill="#592639"/>
<path opacity="0.15" d="M771.852 0.607979C642.808 -3.99834 502.727 30.4268 401.188 113.14C388.748 95.4939 372.815 80.362 354.835 69.5917C290.413 30.8719 208.123 22.1264 135.979 41.1302C102.378 50.0313 67.307 64.6734 43.6301 91.0207C19.8864 117.412 5.26651 154.642 4.91046 190.157C4.57667 222.535 17.7948 254.824 43.8528 274.74C71.691 296.013 107.362 294.923 139.228 284.175C184.512 268.865 234.448 234.529 284.361 218.93C282.224 222.023 280.222 225.027 278.263 227.675C265.312 245.277 253.941 264.081 244.306 283.663C235.16 302.311 227.394 321.738 221.541 341.609C217.869 354.138 213.663 368.134 211.928 381.931C211.594 381.82 211.283 381.687 210.949 381.598C210.482 381.353 209.903 381.152 209.235 381.197C209.168 381.197 209.079 381.242 209.013 381.242C178.927 382.799 154.694 408.278 130.816 424.033C102.578 442.681 74.4948 461.641 46.7234 481.001C30.2786 492.461 11.0522 506.191 26.6291 527.487C33.8835 537.434 45.7441 544.154 55.8691 550.785C69.4878 559.753 83.4626 568.164 97.7489 575.975C120.758 588.503 151.756 606.684 182.221 613.872C174.721 650.388 175.255 690.154 175.322 726.805C175.433 767.639 177.97 808.428 184.067 848.817C195.171 922.629 219.494 993.793 257.301 1058.24C276.795 1091.46 299.515 1122.48 324.972 1150.92C320.633 1136.48 316.761 1121.92 313.823 1107.13C309.44 1085.25 307.125 1062.89 308.082 1040.57C309.328 1011.46 317.228 983.29 320.032 954.339C330.446 847.037 305.167 740.312 310.419 632.965C315.96 519.631 354.679 410.103 429.604 324.007C500.145 242.94 596.611 188.199 698.618 157.022C840.346 113.719 996.938 111.115 1143.07 146.52C1125.23 129.941 1105.98 114.453 1085.08 100.367C992.866 38.2819 882.715 4.59122 771.852 0.607979Z" fill="#FFFCFC"/>
<path opacity="0.3" d="M570.442 458.15C498.165 486.811 445.381 554.771 420.992 627.048C396.091 700.86 403.212 782.484 437.215 852.202C478.026 935.894 554.753 987.165 637.066 1024.08C647.948 1028.96 662.323 1014.78 651.13 1005.86C609.384 972.634 561.429 941.479 523.622 902.404C520.863 873.475 511.539 845.771 506.176 817.265C500.613 787.58 497.964 757.538 501.68 727.497C506.799 686.129 525.78 654.174 549.658 624.133C570.175 610.38 587.732 589.841 607.226 575.199C609.05 573.819 610.897 572.506 612.766 571.171C633.684 561.803 655.58 554.482 677.855 549.163C724.72 537.97 776.569 536.435 825.37 539.973C836.318 547.673 846.331 554.482 860.529 549.965C861.218 549.742 861.953 549.43 862.643 549.052C881.09 565.185 897.401 583.699 910.887 604.172C911.932 603.905 913.045 603.727 914.135 603.794C917.229 602.904 920.789 603.304 923.304 605.552C931.048 612.45 937.813 620.283 944.778 627.938C945.067 626.559 945.089 625.09 944.689 623.532C903.677 467.14 713.082 401.583 570.442 458.15Z" fill="#592642"/>
<path opacity="0.3" d="M1310.79 607.286C1318.2 525.129 1314.04 441.303 1279.26 367.78C1274.21 357.121 1259.92 365.265 1261.57 375.234C1266.82 407.056 1271.31 437.164 1272.05 469.43C1272.72 498.203 1272.72 526.687 1270.38 555.393C1265.68 612.85 1256.18 670.106 1245.52 726.739C1226.99 825.23 1197.9 927.081 1125.54 1000.29C1116.84 1009.1 1114.79 1027.33 1125.54 1035.79C1141.74 1048.54 1153.82 1062.96 1163.14 1081.36C1171.62 1098.05 1197.66 1097.27 1206.36 1081.36C1219.87 1056.66 1233.88 1031.31 1244.5 1005.08C1251.29 995.998 1257.07 987.052 1261.52 979.865C1282.13 946.441 1294.1 908.411 1301.62 870.091C1309.66 829.191 1312.04 786.488 1314.71 744.942C1317.58 700.125 1320.11 655.13 1312.15 610.758C1311.88 609.445 1311.41 608.288 1310.79 607.286Z" fill="#592642"/>
<path opacity="0.3" d="M771.315 1257.96C770.67 1253.86 768.712 1250.08 765.218 1247.32C764.818 1244.83 764.417 1242.31 764.083 1239.78C762.102 1224.73 742.632 1224.71 740.629 1239.78C740.562 1240.36 740.518 1240.91 740.473 1241.47C732.062 1242.02 723.539 1244.18 714.571 1245.23C697.77 1247.19 680.835 1248.19 663.923 1248.3C629.832 1248.57 596.409 1244.74 563.029 1238.09C530.718 1231.65 499.164 1223.09 468.589 1210.63C452.589 1204.08 436.433 1197.32 420.923 1189.69C405.992 1182.34 391.617 1172.64 375.684 1167.7C368.118 1165.36 360.018 1174.84 364.891 1181.74C383.761 1208.38 419.722 1228.81 448.539 1242.91C474.441 1255.58 501.701 1266.64 529.561 1274.85C529.739 1276.98 530.563 1279.16 532.121 1281.1C544.248 1296.1 563.408 1303.4 580.921 1310.16C600.792 1317.82 620.976 1323.56 642.004 1327.03C661.52 1330.26 681.192 1332.41 700.952 1333.06C722.916 1333.77 745.457 1330.75 767.265 1333.95C783.821 1336.38 804.739 1319.09 792.144 1301.62C782.331 1288.02 779.571 1271.8 771.315 1257.96Z" fill="#592642"/>
<path opacity="0.3" d="M184.89 709.471C187.315 716.592 199.599 718.283 201.112 709.471C204.316 690.823 206.719 672.442 217.29 656.197C227.771 640.086 244.193 629.361 257.078 615.386C277.216 593.534 291.013 556.372 275.214 528.645C276.927 524.328 277.75 519.855 277.216 515.338C275.748 502.898 265.178 496.645 253.629 501.808C240.277 507.772 233.734 524.484 221.562 533.184C208.277 542.686 191.921 548.45 175.677 549.562C139.939 552.055 100.396 541.418 67.1278 529.335C58.8498 526.331 53.1089 537.857 58.8279 543.598C74.5383 559.376 98.0592 564.138 118.688 570.369C131.372 574.196 143.766 578.891 156.473 581.851C156.628 582.318 156.829 582.786 157.096 583.253C165.129 597.873 181.552 600.299 196.973 599.431C189.429 611.937 188.316 627.692 187.36 641.911C187.048 646.339 188.383 649.7 190.564 652.103C181.819 670.017 178.347 690.178 184.89 709.471Z" fill="#592642"/>
<path opacity="0.3" d="M723.917 1233.68C741.386 1231.9 772.362 1217.5 764.707 1195.23C763.015 1190.31 758.788 1186.61 753.402 1186.61C740.073 1186.59 733.775 1198.94 722.092 1203.46C708.986 1208.53 694.41 1204.57 683.484 1196.49C676.697 1191.49 667.44 1201.26 671.979 1208C683.818 1225.47 702.288 1235.88 723.917 1233.68Z" fill="#592642"/>
<path opacity="0.3" d="M882.737 1295.5C889.301 1284.7 892.083 1271.93 886.431 1260.23C883.472 1254.11 874.415 1254.91 871.255 1260.23C864.913 1270.86 863.622 1283.41 853.986 1292.2C842.927 1302.28 825.28 1304.22 811.484 1299.75C802.249 1296.74 796.508 1310.65 804.897 1315.35C816.758 1321.98 829.553 1324.8 841.97 1323.14C842.927 1325.43 844.73 1327.36 847.4 1328.08C857.547 1330.83 868.384 1330.68 877.842 1325.54C886.854 1320.62 894.82 1309.9 888.634 1299.81C887.121 1297.37 885.029 1296.01 882.737 1295.5Z" fill="#592642"/>
<path opacity="0.3" d="M1239.34 1253.28C1239.27 1253.24 1239.18 1253.22 1239.11 1253.15C1241.96 1238.71 1241.96 1224.02 1238.2 1210.05C1236.11 1202.28 1224.96 1202.55 1222.74 1210.05C1211.59 1247.43 1206.38 1285.26 1174.4 1311.76C1144.05 1336.91 1097.97 1341.52 1064.59 1320.22C1063.63 1319.6 1062.63 1319.26 1061.65 1319.11C1060.83 1312.19 1058.13 1305.67 1052.75 1300.26C1048.65 1296.14 1041.69 1297.17 1038.75 1302.06C1028.85 1318.6 1031.92 1338.25 1017.9 1353.47C1003.15 1369.51 978.201 1373.76 957.684 1369.11C948.604 1367.06 942.686 1379.59 951.208 1384.49C978.245 1400 1010.04 1397.39 1034.14 1377.37C1035.01 1376.63 1035.88 1375.85 1036.77 1375.05C1039.28 1376.52 1042.56 1376.88 1045.65 1375.41C1049.12 1373.74 1052.26 1372.69 1055.4 1370.29C1058.38 1368 1061.18 1365.48 1064.05 1363.06C1069.33 1358.58 1074.6 1353.78 1075.91 1346.92C1082.3 1349.97 1088.93 1352.33 1095.72 1354.02C1096.56 1371.62 1121.71 1373.6 1135.02 1376.74C1157.31 1381.97 1179.94 1385.75 1201.13 1373.76C1234.22 1355 1280.26 1283.97 1239.34 1253.28Z" fill="#592642"/>
<path opacity="0.3" d="M40.0919 227.365C32.9265 220.222 20.3537 229.457 25.8946 238.336C40.4479 261.613 65.9942 272.071 92.8088 273.095C113.415 273.873 132.152 266.708 149.575 256.672C176.212 256.672 203.205 244.745 226.948 234.664C243.393 227.699 259.771 220.712 276.772 215.193C294.597 209.43 312.711 206.803 330.246 199.972C333.984 198.503 336.922 195.588 338.613 192.161C355.681 196.99 371.836 204.712 384.32 214.926C393.199 222.181 406.729 213.235 400.72 202.264C364.671 136.419 284.561 136.129 222.854 163.077C188.918 177.897 161.703 202.175 130.616 221.624C104.202 238.114 65.8606 253.023 40.0919 227.365Z" fill="#592642"/>
<path opacity="0.5" d="M1115.74 1021.83C1107.91 1016.11 1099.92 1010.69 1091.71 1005.63C1080.52 992.438 1068.72 979.82 1055.22 968.961C1036.9 954.23 1017.77 942.681 996.914 933.246C1014.72 915.31 1020.66 882.554 1026 859.366C1033.19 828.168 1036.17 796.814 1032.25 764.948C1025.84 712.609 1002.54 661.895 962.089 627.292C953.655 620.082 943.063 630.897 950.028 639.353C981.226 677.317 994.511 724.915 994.155 773.559C993.955 800.819 990.305 828.279 983.852 854.738C978.689 875.9 965.761 899.221 966.428 921.363C914.535 904.228 857.924 901.046 804.717 913.93C748.707 927.504 699.373 959.971 666.528 1007.46C650.684 1030.36 639.691 1056.1 636.108 1083.74C633.237 1105.99 632.837 1139.66 646.967 1158.38C651.596 1164.5 660.653 1163.98 663.256 1156.24C666.795 1145.8 666.016 1133.94 668.441 1123.06C671 1111.67 673.782 1100.34 677.832 1089.37C685.331 1068.99 694.544 1048.94 707.25 1031.25C735.444 991.948 779.171 967.937 825.968 958.413C873.545 948.733 923.058 955.565 967.964 973.145C1002.77 986.764 1036.57 1003.1 1068.37 1022.79C1099.21 1041.88 1124.47 1069.28 1155.18 1087.68C1164.23 1093.11 1174.65 1082.36 1169.46 1073.39C1156.93 1051.63 1135.7 1036.43 1115.74 1021.83Z" fill="#FFF7F7"/>
<path opacity="0.5" d="M77.5426 80.3857C42.8951 104.752 11.9639 144.207 16.6592 188.757C17.7274 198.926 30.7453 200.996 34.417 191.16C48.0357 154.688 67.9517 121.976 102.154 101.593C139.695 79.2064 185.001 74.8002 227.749 78.9392C264.11 82.4774 300.204 93.6483 331.469 112.608C363.268 131.901 384.698 159.539 404.08 190.604C411.09 201.819 426.243 194.097 424.33 182.059C424.04 180.256 423.662 178.476 423.284 176.718C424.129 176.54 424.975 176.295 425.821 175.873C451.256 163.367 474.577 145.92 499.655 132.457C525.669 118.505 552.684 106.555 580.611 96.9422C607.67 87.6183 635.397 80.4083 663.436 74.7784C687.447 69.9495 711.946 68.0577 735.801 62.6948C767.645 59.8909 799.667 59.179 831.756 59.8911C883.827 61.026 936.655 62.7392 987.68 73.6653C999.764 76.2466 1004.37 59.2903 992.754 55.2403C965.561 45.7606 937.723 38.4173 910.374 29.5384C883.471 20.7931 853.897 18.9681 825.769 17.2324C770.449 13.8277 714.128 19.035 659.697 29.0488C604.956 39.1293 551.771 55.6855 500.634 77.6489C475.155 88.5973 450.165 101.214 426.422 115.567C418.767 120.196 410.088 125.091 402.811 131.122C363.624 77.3816 282.179 51.0788 221.451 46.6728C172.206 43.0678 118.777 51.3904 77.5426 80.3857Z" fill="#FFF7F7"/>
<path opacity="0.5" d="M44.473 517.719C76.2055 500.406 107.604 482.07 140.405 466.693C155.737 459.506 172.983 450.515 190.384 451.094C209.344 451.717 224.698 465.158 242.611 469.876C253.538 472.746 259.657 459.884 253.026 451.984C250.378 448.846 247.552 446.065 244.614 443.484C244.703 442.727 244.681 441.97 244.614 441.169C248.509 442.326 252.848 441.281 255.006 436.786C263.596 418.961 267.223 398.956 273.253 380.175C275.768 372.319 278.483 364.531 281.287 356.765C305.431 307.987 333.625 262.324 371.789 221.802C381.224 211.788 371.366 197.858 360.796 198.703C360.64 198.214 360.462 197.747 360.24 197.279C353.675 195.076 347.066 193.429 340.323 192.316C339.122 193.14 337.965 194.164 336.986 195.499C336.741 195.81 336.518 196.144 336.296 196.456C333.047 192.428 326.927 190.759 322.499 195.476C270.094 251.509 238.072 329.483 217.511 402.984C212.637 398.132 206.384 397.019 199.508 400.157C181.194 408.524 157.94 414.978 142.964 428.685C140.583 430.866 140.049 433.781 140.739 436.429C102.353 454.098 65.8357 476.462 34.3035 504.478C26.9601 511.021 36.3285 522.169 44.473 517.719Z" fill="#FFF7F7"/>
<path opacity="0.5" d="M261.018 950.379C249.78 918.847 240.234 886.513 231.377 854.247C222.521 822.069 217.469 788.89 207.967 756.98C205.119 747.456 191.923 749.815 191.211 759.25C188.585 793.453 194.705 829.034 200.802 862.681C207.211 897.929 217.291 931.931 229.642 965.533C241.369 997.421 254.898 1028.71 270.208 1059.04C285.407 1089.15 301.295 1122.7 329 1143.22C336.544 1148.81 345.578 1139.62 343.776 1131.85C336.521 1100.5 316.027 1072.75 301.54 1044.33C286.03 1013.89 272.478 982.534 261.018 950.379Z" fill="#FFF7F7"/>
<path d="M1085.08 100.391C992.866 38.2617 882.738 4.59297 771.852 0.587471C642.808 -4.01885 502.727 30.4063 401.188 113.12C388.748 95.4734 372.815 80.3415 354.835 69.5712C290.413 30.8514 208.123 22.1059 135.979 41.1097C102.378 50.0108 67.307 64.6536 43.6301 91.0008C19.8864 117.393 5.26651 154.621 4.91046 190.137C4.57667 222.514 17.7948 254.803 43.8528 274.719C71.691 295.993 107.362 294.903 139.228 284.155C184.512 268.845 234.448 234.509 284.361 218.909C282.224 222.003 280.222 225.007 278.263 227.655C265.312 245.257 253.941 264.06 244.306 283.643C235.16 302.29 227.394 321.717 221.541 341.589C217.869 354.117 213.663 368.114 211.928 381.911C211.594 381.8 211.283 381.666 210.949 381.577C210.482 381.332 209.903 381.132 209.235 381.176C209.168 381.176 209.079 381.221 209.013 381.221C178.927 382.779 154.694 408.258 130.816 424.013C102.578 442.661 74.4948 461.62 46.7234 480.98C30.2786 492.441 11.0522 506.17 26.6291 527.466C33.8835 537.413 45.7441 544.133 55.8691 550.765C69.4878 559.733 83.4626 568.145 97.7489 575.955C120.758 588.484 151.756 606.664 182.221 613.852C174.721 650.369 175.255 690.134 175.322 726.784C175.433 767.618 177.97 808.407 184.067 848.796C195.171 922.608 219.494 993.773 257.301 1058.22C330.134 1182.43 448.007 1276.12 585.952 1317.79C624.939 1329.59 665.172 1337.13 705.739 1340.63C727.035 1342.43 748.486 1343.1 769.871 1342.47C787.584 1342.01 806.5 1342.07 823.723 1337.31C844.997 1347.08 868.718 1348.35 888.278 1333.57C899.783 1355.27 916.873 1373.83 937.991 1386.62C982.185 1413.37 1047.63 1409.48 1077.34 1366.55C1080.14 1369.02 1082.99 1371.38 1085.97 1373.58C1121.6 1400 1175.61 1407.01 1213.39 1380.84C1256.49 1351 1259.59 1291.72 1253.38 1244.49C1246.95 1195.54 1228.48 1148.81 1202.4 1106.99C1275.19 1011.2 1314.42 895.171 1326.19 775.918C1339.88 637.261 1330.51 493.353 1282.13 361.728C1243.81 257.562 1180.84 164.924 1085.08 100.391ZM247.977 208.25C215.755 221.713 185.959 240.117 154.249 254.625C120.692 269.98 78.656 280.527 49.5494 250.842C23.7362 224.495 22.4012 185.486 33.5053 152.174C44.832 118.349 66.9956 93.2484 99.0395 77.6715C160.924 47.6302 236.25 46.2502 300.672 68.7033C337.211 81.4096 371.013 101.593 390.284 136.129C403.813 160.34 407.841 186.643 406.862 213.346C358.952 181.48 301.028 186.109 247.977 208.25ZM161.881 582.875C134.555 571.727 108.096 558.642 82.8841 543.288C72.0692 536.723 56.4923 529.936 48.3033 520.345C36.3981 506.437 64.3029 494.154 74.5169 487.077C99.529 469.809 124.608 452.719 149.754 435.696C159.767 428.953 172.941 421.944 184.913 413.844C186.226 413.109 187.494 412.464 188.763 411.73C193.124 409.193 201.669 401.494 206.943 403.964C210.125 405.477 216.267 416.67 218.292 419.829C233.09 442.661 243.772 467.918 249.98 494.399C256.077 520.412 260.15 552.612 243.883 575.933C223.611 605.062 189.319 594.046 161.881 582.875ZM198.465 776.675C213.775 780.925 231.933 780.013 246.331 779.256C269.34 778.055 292.416 773.671 314.179 766.15C355.948 751.752 393.399 726.45 420.325 691.202C447.184 656.065 462.894 612.449 464.563 568.211C465.876 533.341 456.374 503.789 443.267 474.504C448.052 471.567 452.413 467.962 456.263 463.868C465.342 475.417 474.666 486.832 482.143 499.427C497.03 524.573 507.645 552.167 510.96 581.296C516.835 632.766 502.504 685.595 474.599 728.854C446.427 772.514 404.303 805.492 357.661 827.523C334.229 838.582 309.328 846.727 283.982 852.245C268.094 855.694 251.894 858.231 235.649 859.188C226.459 859.722 217.179 859.366 208.033 860.212C203.182 832.596 200.134 804.647 198.465 776.675ZM778.995 1320.49C760.703 1321.29 742.344 1321.22 724.008 1320.24C687.291 1318.28 650.886 1312.59 615.281 1303.49C546.765 1285.93 481.876 1255.47 424.931 1213.5C314.98 1132.45 238.653 1010.64 211.26 877.124C234.381 882.131 262.13 876.434 283.56 872.184C310.663 866.732 337.099 858.187 362.312 846.86C415.006 823.227 462.294 785.643 493.203 736.509C495.094 733.571 496.874 730.545 498.61 727.541C492.557 756.313 491.4 786.288 495.561 816.151C507.4 901.045 565.279 991.859 648.705 1022.68C627.81 1070.43 624.271 1126 643.809 1174.84C658.941 1212.74 711.057 1275.34 754.027 1238.06C758.522 1259.85 766.578 1280.57 777.971 1297.99C782.912 1305.53 789.186 1312.77 796.33 1319.22C790.588 1319.69 784.803 1320.22 778.995 1320.49ZM566.748 632.121C613.012 574.598 682.685 541.33 756.698 543.978C833.848 546.737 904.545 587.37 945.156 653.105C993.868 731.991 992.332 830.282 952.233 912.15C942.553 908.968 932.717 906.053 922.792 903.516C867.85 889.408 809.459 887.471 757.009 911.616C715.53 930.708 680.438 963.976 658.118 1003.79C627.387 986.474 598.681 968.694 574.759 941.368C550.148 913.351 532.635 879.238 523.044 843.278C503.483 769.955 519.083 691.38 566.748 632.121ZM1214.99 1181.23C1230.93 1223.69 1241.52 1274.96 1229.37 1319.71C1215.15 1371.96 1160.23 1387.78 1113.97 1365.57C1065.77 1342.45 1048.72 1289.22 1031.99 1242.74C1029.47 1235.73 1017.14 1236.11 1017.99 1244.63C1022.02 1284.95 1038.6 1326.61 1066.9 1356.58C1030.03 1384.53 982.518 1391.9 941.929 1364.19C919.209 1348.7 903.276 1325.12 895.622 1298.84C888.078 1272.96 892.128 1246.94 888.211 1220.77C887.855 1218.3 884.473 1218.46 883.338 1220.13C865.002 1246.76 869.919 1287.04 880.356 1315.86C880.712 1316.79 881.091 1317.75 881.447 1318.69C839.523 1335.75 802.16 1306.67 784.335 1268.24C763.796 1224 769.737 1177 766.199 1130.05C765.977 1127.47 762.795 1127.18 761.882 1129.47C751.334 1155.37 747.774 1186.01 750.667 1215.99C748.642 1216.17 746.573 1217.04 744.636 1218.79C724.72 1237.04 699.708 1220.11 685.667 1203.42C669.511 1184.3 659.765 1160.31 655.336 1135.81C648.661 1098.72 654.98 1060.29 671.091 1026.46C673.917 1024.57 675.631 1021.12 675.453 1017.83C676.766 1015.4 678.101 1013 679.525 1010.6C683.664 1003.68 688.226 996.955 693.166 990.524C689.25 1009.97 690.451 1030.73 696.549 1046.27C708.988 1078.13 743.546 1082.58 770.227 1068.12C771.028 1081.85 774.9 1095.29 780.53 1104.55C788.119 1116.96 800.046 1127.31 814.866 1129.23C829.664 1131.14 841.436 1124.44 852.184 1115.81C853.163 1123.51 855.589 1131.01 859.773 1137.61C867.361 1149.56 880.023 1158.31 894.42 1158.6C909.552 1158.93 921.101 1150.54 930.937 1140.17C933.696 1153.7 941.307 1166.16 953.212 1173.15C976.8 1187.02 1007.58 1177.22 1015.12 1150.14C1016.21 1146.29 1010.76 1142.55 1007.98 1146C994.736 1162.16 970.168 1170.97 954.013 1153.04C941.462 1139.11 945.223 1119.68 942.107 1102.74C941.662 1100.27 938.258 1100.23 937.056 1102.1C932.183 1109.91 929.869 1119.12 929.802 1128.4C911.8 1137.77 887.744 1149.1 874.526 1126.62C864.846 1110.11 874.304 1093.42 872.813 1076.4C874.059 1075.55 874.548 1073.64 872.813 1072.77C863.244 1067.9 857.391 1080.38 854.877 1087.95C853.097 1093.31 852.073 1098.98 851.761 1104.73C827.528 1113.63 801.938 1115.25 791.301 1085.5C782.8 1061.64 794.305 1044.95 797.732 1022.5C798.199 1019.16 795.306 1016.63 792.102 1018.18C779.462 1024.35 772.987 1037.3 770.873 1051.83C759.034 1054.7 747.173 1060 734.868 1057.86C716.175 1054.63 710.056 1037.03 708.743 1020.28C706.851 996.51 715.753 978.507 723.986 958.502C737.383 947.287 752.225 937.852 768.158 930.62C815.089 909.324 868.095 912.172 916.984 924.767C1004.26 947.265 1083.86 996.911 1143.36 1064.45C1173.58 1098.74 1198.93 1138.3 1214.99 1181.23ZM1307.9 717.26C1304.27 848.64 1268.78 981.49 1189.63 1087.86C1136.24 1012.15 1059.42 952.828 972.861 919.538C1009.96 841.854 1015.68 751.596 979.893 672.043C945.09 594.736 874.104 538.926 790.166 525.53C709.099 512.534 627.253 538.548 569.24 596.85C552.595 613.54 538.509 632.232 527.116 652.304C532.39 626.714 533.569 600.299 530.031 574.353C526.003 545.135 515.589 517.586 500.969 492.084C491.979 476.307 481.453 459.128 469.103 444.152C471.417 438.455 472.841 432.424 473.242 426.26C475.645 386.562 432.453 360.17 397.716 366.045C381.049 368.871 366.317 379.151 359.53 398.934C351.23 422.989 354.679 452.541 373.461 469.743C387.102 482.182 407.129 486.121 425.243 481.937C427.312 486.877 429.515 491.95 431.629 497.313C439.151 516.473 443.134 536.879 443.468 557.485C444.202 598.964 430.917 640.221 406.929 674.023C381.917 709.182 344.22 734.55 303.431 747.88C284.049 754.222 263.955 758.005 243.594 759.273C228.795 760.208 212.662 757.537 197.575 758.539C197.33 752.553 197.13 746.567 196.996 740.581C196.129 699.68 201.202 657.623 198.955 616.677C217.202 618.28 234.693 614.675 249.513 602.124C291.615 566.498 277.996 498.694 260.394 454.144C254.876 440.213 248.244 426.661 240.367 413.888C237.162 408.703 233.424 402.094 229.085 396.175C234.203 380.286 236.384 362.996 241.324 347.152C247.287 328.059 254.609 309.456 263.576 291.565C272.077 274.697 281.801 258.43 292.794 243.076C297.267 236.801 302.341 231.037 307.392 225.252C309.684 222.648 316.182 211.9 319.987 211.566C348.649 208.963 376.932 215.549 403.991 238.736C404.392 239.092 404.793 239.315 405.215 239.604C424.709 252.533 427.535 213.013 428.269 202.331C430.005 176.674 423.084 150.949 410.845 128.518C507.267 64.386 613.702 25.7555 730.306 22.1951C838.054 18.9239 946.202 44.2251 1039.91 97.9433C1160.39 166.994 1239.29 277.212 1274.5 410.662C1280.59 433.738 1285.42 457.036 1289.74 480.446C1307.5 561.246 1310.19 635.258 1307.9 717.26Z" fill="#3D2938"/>
<path d="M313.621 304.783C309.772 303.626 305.789 303.158 301.783 303.292C285.16 303.915 268.782 315.264 263.775 331.353C248.398 381.043 325.326 402.517 340.169 354.495C346.355 334.557 333.604 310.813 313.621 304.783Z" fill="#3D2938"/>
<path d="M374.908 1000.11C375.198 1012.66 374.797 1025.55 373.863 1038.08C373.462 1043.2 373.796 1052.67 370.169 1056.9C356.35 1073.01 341.93 1055.3 336.389 1045.4C329.379 1032.96 327.599 1018.72 328.089 1004.65C328.422 993.839 327.91 972.387 333.162 962.596C334.074 960.883 333.274 958.858 331.427 958.279C313.38 952.872 312.089 991.413 311.443 1001.43C309.886 1025.46 314.448 1052.27 332.717 1069.48C346.692 1082.6 370.035 1086.21 382.942 1069.63C398.251 1050 389.395 1020.21 382.986 999.046C381.629 994.729 374.842 995.396 374.908 1000.11Z" fill="#3D2938"/>
<path d="M443.311 1058.82C483.054 1061.51 485.814 1007.46 467.255 984.026C464.139 980.065 459.266 984.582 459.822 988.343C461.959 1003.41 463.405 1059.33 433.586 1035.56C414.026 1019.96 417.142 991.948 411.022 970.496C410.154 967.447 405.859 966.825 404.279 969.584C388.079 997.756 406.883 1056.37 443.311 1058.82Z" fill="#3D2938"/>
<path d="M468.102 1119.08C468.747 1129.65 475.712 1152.66 460.981 1157.91C449.766 1161.89 436.459 1150.08 430.25 1142.33C424.22 1134.83 420.592 1126.15 417.878 1117.03C416.431 1112.2 411.38 1097.69 412.804 1094.18C414.54 1089.9 409.132 1087.43 405.883 1088.84C394.712 1093.73 402.367 1120.93 405.038 1128.83C410.289 1144.36 419.413 1158.84 433.454 1167.77C447.763 1176.87 467.724 1179.09 479.518 1164.87C491.935 1149.92 487.417 1129.71 476.424 1115.63C473.843 1112.29 467.857 1115.07 468.102 1119.08Z" fill="#3D2938"/>
<path d="M613.989 384.782C610.54 383.914 607.447 388.476 610.362 391.013C629.566 407.814 664.903 437.721 663.168 466.605C661.432 495.49 629.699 480.469 617.327 469.075C605.488 458.149 599.881 444.619 592.404 430.867C590.201 426.839 584.771 429.065 584.415 433.004C580.944 470.41 638.778 528.112 673.226 492.485C689.693 475.44 680.258 449.048 670.4 431.156C658.183 409.015 638.779 391.302 613.989 384.782Z" fill="#3D2938"/>
<path d="M622.111 264.972C616.948 264.171 612.965 271.136 618.306 274.051C640.47 286.179 681.526 301.31 680.947 332.264C680.102 375.345 626.339 326.968 612.097 321.783C610.072 321.049 607.914 323.341 608.537 325.343C618.528 356.008 676.586 390.299 695.812 349.176C703.934 331.864 697.415 311.435 686.155 297.238C669.732 276.476 647.234 268.933 622.111 264.972Z" fill="#3D2938"/>
<path d="M615.012 143.451C620.419 125.382 610.227 108.292 593.337 101.327C551.124 83.9029 501.767 137.933 493.623 175.206C492.243 181.526 500.143 184.596 503.792 179.478C520.17 156.402 534.791 128.564 563.007 117.905C582.923 110.384 610.94 122.623 594.473 147.345C586.195 159.762 571.752 170.065 560.315 179.278C556.509 182.327 560.648 188.58 564.987 187.267C585.972 180.925 608.358 165.66 615.012 143.451Z" fill="#3D2938"/>
<path d="M789.227 192.007C802.401 181.303 808.566 162.878 798.886 147.768C778.413 115.969 715.46 128.363 698.259 156.847C696.946 159.072 699.126 161.631 701.53 161.097C724.539 155.579 747.081 140.625 771.559 149.37C793.078 157.025 785 178.632 766.04 183.305C755.381 185.953 743.876 185.42 733.017 187.378C729.456 188.001 728.7 193.72 731.971 195.255C750.374 203.756 772.582 205.581 789.227 192.007Z" fill="#3D2938"/>
<path d="M817.98 245.056C805.028 236.355 779.081 237.979 765.463 243.72C761.68 245.323 760.968 250.842 765.463 252.132C773.785 254.603 782.709 254.958 791.298 255.336C804.405 255.915 819.359 261.278 810.992 276.789C799.554 298.018 772.161 280.06 756.628 274.274C753.246 273.05 751.688 277.5 753.468 279.726C771.471 302.179 813.862 314.573 826.435 279.503C830.596 267.954 828.906 252.421 817.98 245.056Z" fill="#3D2938"/>
<path d="M733.819 78.4721C740.384 75.4235 746.481 71.5072 753.224 68.8147C759.855 66.2111 777.078 60.7812 782.152 68.5919C785.267 73.3763 779.615 79.7629 776.233 81.9437C772.851 84.1467 769.09 85.6156 765.418 87.24C759.477 89.8436 753.624 91.8239 748.55 95.8517C745.902 97.9657 747.905 101.504 750.286 102.527C770.892 111.028 812.194 86.3721 796.772 61.6715C781.819 37.7498 739.605 53.0599 728.701 73.3544C726.854 76.8481 730.481 80.0076 733.819 78.4721Z" fill="#3D2938"/>
<path d="M861.662 125.872C858.903 127.14 859.593 130.834 861.662 132.303C875.526 142.094 903.364 138.178 906.368 160.141C907.97 171.712 895.909 175.629 886.407 174.049C877.617 172.625 870.363 167.195 862.174 164.213C860.438 163.568 859.281 165.415 859.481 166.906C864.021 196.301 915.981 197.392 922.123 168.04C928.621 136.864 887.587 113.655 861.662 125.872Z" fill="#3D2938"/>
<path d="M1124.78 534.654C1116.66 515.338 1100.72 485.075 1079.2 478.377C1077.54 477.82 1075.93 479.534 1076.4 481.158C1080.07 493.753 1090.6 504.613 1096.94 516.184C1104.93 530.849 1111.2 546.225 1115.12 562.447C1117.95 574.063 1128.14 618.702 1099.54 608.689C1083.77 603.17 1072.8 580.45 1067.54 566.342C1066.03 562.203 1060.22 562.848 1059.89 567.365C1058.29 590.508 1069.19 613.74 1090.09 624.911C1108.89 634.925 1129.43 626.869 1135.48 606.397C1142.22 583.61 1133.59 555.66 1124.78 534.654Z" fill="#3D2938"/>
<path d="M1128.07 398.933C1146.25 420.496 1170.64 441.146 1181.39 467.805C1188.69 485.875 1181.39 511.287 1156.93 498.603C1143.49 491.638 1134.77 478.287 1123.44 468.696C1121.44 466.982 1118.39 468.584 1119.02 471.299C1126.27 504.322 1179.54 545.401 1199.77 499.271C1217.66 458.415 1166.68 407.167 1133.17 392.324C1128.81 390.432 1124.89 395.15 1128.07 398.933Z" fill="#3D2938"/>
<path d="M1193.03 570.681C1199.3 593.691 1217.42 613.606 1219.53 637.662C1220.69 650.902 1214.46 671.241 1196.85 661.183C1185.11 654.44 1177.14 643.558 1169.53 632.655C1167.41 629.651 1161.54 630.296 1161.87 634.769C1163.96 661.984 1203.57 703.73 1227.76 672.22C1254.73 637.128 1223.18 593.067 1199.3 567.009C1196.74 564.183 1192.05 567.165 1193.03 570.681Z" fill="#3D2938"/>
<path d="M1184.91 750.327C1181.03 747.234 1173.58 751.373 1177.25 756.246C1189.62 772.624 1210.5 823.716 1189.98 840.05C1170.42 855.538 1155.8 824.073 1151.5 809.497C1147.01 794.143 1148.1 778.432 1144.67 763.078C1143.87 759.517 1138.35 758.694 1136.68 762.032C1120.4 794.833 1143.58 877.501 1192.83 860.055C1238.36 843.922 1210.68 770.599 1184.91 750.327Z" fill="#3D2938"/>
<path d="M1142.89 270.247C1155.38 237.402 1114.59 197.925 1085.53 192.184C1081.9 191.45 1078.34 196.034 1081.61 198.904C1097.65 212.946 1115.1 226.853 1124 246.992C1127.3 254.491 1129.01 257.941 1122.47 263.971C1115.72 270.224 1110.89 268.177 1102.91 264.95C1092.02 260.522 1084.37 253.023 1076.67 244.477C1073.84 241.318 1068.84 244.656 1069.82 248.461C1076.25 273.762 1129.21 306.163 1142.89 270.247Z" fill="#3D2938"/>
</g>
<defs>
<filter id="filter0_d_403_14476" x="0.904297" y="0.181641" width="1335.02" height="1411.38" filterUnits="userSpaceOnUse" color-interpolation-filters="sRGB">
<feFlood flood-opacity="0" result="BackgroundImageFix"/>
<feColorMatrix in="SourceAlpha" type="matrix" values="0 0 0 0 0 0 0 0 0 0 0 0 0 0 0 0 0 0 127 0" result="hardAlpha"/>
<feOffset dy="4"/>
<feGaussianBlur stdDeviation="2"/>
<feComposite in2="hardAlpha" operator="out"/>
<feColorMatrix type="matrix" values="0 0 0 0 0 0 0 0 0 0 0 0 0 0 0 0 0 0 0.25 0"/>
<feBlend mode="normal" in2="BackgroundImageFix" result="effect1_dropShadow_403_14476"/>
<feBlend mode="normal" in="SourceGraphic" in2="effect1_dropShadow_403_14476" result="shape"/>
</filter>
</defs>
</svg>
