<svg width="1312" height="1734" viewBox="0 0 1312 1734" fill="none" xmlns="http://www.w3.org/2000/svg">
<g filter="url(#filter0_d_403_14515)">
<path d="M232.385 1315.63C220.101 1312.51 207.573 1314.18 195.468 1315.83C180.091 1317.9 165.56 1319.86 151.34 1312.82C142.929 1308.68 136.453 1300.98 130.2 1293.53C122.834 1284.78 115.246 1275.73 104.32 1272.19C67.1356 1260.15 48.8438 1310.69 41.9677 1329.74C25.1001 1376.38 12.2828 1443.49 47.0861 1498.3C73.0328 1539.16 121.254 1567.33 169.944 1570.09C172.792 1570.24 175.618 1570.33 178.445 1570.33C204.302 1570.33 228.891 1563.61 248.473 1551.08C267.21 1539.09 282.854 1518.1 289.263 1496.32C289.33 1496.12 289.352 1495.9 289.329 1495.7C286.948 1456.51 284.946 1417.46 283.344 1379.25C277.781 1354.7 264.473 1323.77 232.385 1315.63Z" fill="#FFEFE6"/>
<path d="M1141.5 1050.69C1122.16 1045.21 1106.81 1035.02 1097.13 1021.2C1096.75 1020.67 1096.08 1020.35 1095.44 1020.44C1094.77 1020.51 1094.22 1020.96 1093.97 1021.56C1087.14 1038.25 1076.68 1052.27 1062.88 1063.21C1062.48 1063.53 1062.22 1064.02 1062.19 1064.53C1062.17 1065.04 1062.35 1065.55 1062.73 1065.91C1064.06 1067.24 1065.46 1068.58 1066.96 1069.89C1077.12 1078.61 1089.14 1083.4 1100.78 1083.4C1100.87 1083.4 1100.94 1083.4 1101.02 1083.4C1119.81 1083.31 1134.98 1072.27 1142.68 1053.11C1142.88 1052.64 1142.86 1052.09 1142.64 1051.64C1142.41 1051.15 1141.99 1050.82 1141.5 1050.69Z" fill="#FFA7B4"/>
<path d="M1285.85 903.639C1276.78 826.066 1207.68 763.291 1121.59 754.412C1100.16 752.231 1078.08 753.254 1056.01 757.438C971.023 773.593 903.13 830.828 883.013 903.283C866.413 963.031 881.7 1039.18 954.444 1065.15C965.815 1069.22 977.632 1071.2 989.359 1071.2C1015.04 1071.2 1040.21 1061.72 1058.85 1043.96C1087.47 1016.79 1086.51 981.813 1085.6 947.966C1085.45 942.114 1085.29 936.239 1085.27 930.386C1085.27 929.674 1084.87 929.051 1084.22 928.74C1077.64 925.669 1071.38 919.483 1065.84 914.009C1064.75 912.94 1063.71 911.894 1062.68 910.915C1055.89 904.306 1049.44 897.208 1043.17 890.309C1038.74 885.458 1034.18 880.429 1029.5 875.6C1026.7 872.685 1023.38 869.837 1019.87 866.833C1013.26 861.181 1006.43 855.328 1003.07 848.875C1000.17 843.334 1000.08 838.104 1002.8 832.919C1013.15 813.048 1060.12 801.12 1076.06 799.029C1085.98 797.716 1119.85 794.444 1138.36 806.861C1152.81 816.586 1146.93 839.083 1139.45 856.263C1135.34 865.698 1130.62 875.133 1126.06 884.256C1124.28 887.795 1122.52 891.333 1120.76 894.872C1119.43 897.609 1118.25 900.323 1117.09 902.994C1113.89 910.404 1110.84 917.414 1104.7 923.355C1093.77 933.925 1100.09 962.297 1103.87 979.231C1104.25 980.945 1104.61 982.502 1104.9 983.904C1109.72 1006.47 1120.32 1020.89 1138.23 1029.3C1167.56 1043.1 1208.15 1040.03 1239.26 1021.67C1278.27 998.703 1290.77 945.83 1285.85 903.639ZM1184.23 940.868C1182.49 936.862 1184 932.456 1187.9 929.942C1188.45 929.63 1188.99 929.363 1189.66 929.074C1191.33 928.317 1192.97 927.939 1194.53 927.939C1197.62 927.939 1200.38 929.407 1202.25 932.211C1203.41 933.991 1203.74 936.351 1203.12 938.687C1202.5 941.113 1200.98 943.093 1199 944.116C1197.53 944.895 1196 945.496 1194.71 945.964C1190.64 947.41 1185.81 944.473 1184.23 940.868ZM1146.51 917.792C1146.91 916.056 1148.22 914.431 1150.51 912.918C1151.49 912.228 1152.74 911.828 1153.72 911.561C1156.39 910.827 1159.24 911.405 1161.53 913.141C1163.73 914.81 1165 917.28 1165 919.861C1165 922.487 1163.42 925.291 1160.99 927.026C1158.77 928.584 1156.17 929.029 1154.07 928.295C1153.87 928.206 1153.7 928.139 1153.65 928.139C1153.47 928.05 1153.3 928.006 1153.12 927.961C1152.03 927.783 1151.11 927.471 1150.27 926.937C1150.18 926.848 1150.07 926.76 1149.96 926.693C1149.22 926.225 1148.51 925.58 1147.87 924.779C1147.87 924.757 1147.84 924.757 1147.82 924.734C1147.62 924.512 1147.42 924.245 1147.26 924.023C1146.2 922.576 1145.93 920.262 1146.51 917.792ZM1153.01 957.134C1154.63 955.398 1156.43 954.441 1158.72 954.152C1159.81 953.996 1160.86 953.952 1161.91 953.885C1162.02 953.885 1162.13 953.885 1162.24 953.885C1167.2 953.885 1170.74 958.425 1170.94 962.786C1171.03 964.878 1170.1 967.082 1168.38 968.817C1166.65 970.553 1164.42 971.532 1162.24 971.532C1162.13 971.532 1162.02 971.532 1161.89 971.51C1160.82 971.488 1159.79 971.421 1158.72 971.265C1156.48 970.976 1154.65 970.018 1152.98 968.261C1149.91 964.967 1149.91 960.383 1153.01 957.134ZM1014.1 938.041L1014.5 936.061C1014.97 933.747 1016.53 932.322 1017.73 931.544C1019.98 930.097 1022.98 929.541 1025.61 930.097C1027.57 930.542 1029.75 932.189 1030.93 934.125C1031.95 935.816 1032.57 938.932 1031.93 940.489C1031.62 941.135 1031.33 941.825 1031.08 942.425C1030.04 944.807 1029.01 946.453 1026.9 947.788C1024.59 949.257 1021.63 948.923 1020.11 948.589C1015.19 947.499 1013.21 942.381 1014.1 938.041ZM1022.38 984.861C1022.47 986.775 1021.69 988.689 1020.22 990.246C1018.51 992.027 1016.11 993.095 1013.79 993.095C1009.12 993.095 1005.43 989.49 1005.18 984.706C1005.09 982.792 1005.87 980.856 1007.36 979.298C1009.05 977.518 1011.46 976.45 1013.77 976.45C1018.44 976.428 1022.16 980.055 1022.38 984.861ZM964.903 964.478C964.881 964.344 964.859 964.211 964.792 964.077C964.458 963.165 964.325 962.431 964.258 961.029C964.102 958.225 965.771 955.465 968.642 953.819C970.956 952.484 974.472 951.771 977.432 953.707C981.949 956.667 983.24 961.63 980.747 966.325C979.101 969.463 975.139 970.686 972.068 970.308C969.198 969.93 966.817 968.261 965.527 965.768C965.504 965.701 965.46 965.635 965.438 965.59C965.26 965.301 965.103 964.967 964.903 964.478Z" fill="#FFEFE6"/>
<path d="M515.778 366.102C516.111 366.658 516.69 366.992 517.402 366.97C530.553 366.414 546.108 365.79 561.751 365.345C562.241 365.323 562.731 365.1 563.065 364.744C563.398 364.366 563.554 363.877 563.509 363.388C562.619 353.53 562.263 343.226 562.419 331.766C561.863 324.222 561.463 316.657 561.062 309.091C560.328 295.717 559.593 281.875 558.058 268.368C554.208 234.477 547.554 201.009 538.252 168.92C522.141 113.489 500.578 58.5689 452.201 32.2216C427.389 18.7142 400.442 16.4668 376.32 25.8574C352.109 35.2926 332.971 56.0323 323.825 82.8024C309.272 125.35 315.414 179.179 342.05 242.822C351.886 266.321 364.793 289.308 380.347 311.116C388.759 322.954 398.105 334.37 408.074 345.074C409.521 346.631 410.967 348.122 412.413 349.613C418.176 355.576 423.629 361.207 427.211 368.817C427.412 369.24 427.545 369.73 427.634 370.286C427.768 371.176 428.547 371.821 429.437 371.821C429.481 371.821 429.525 371.821 429.57 371.821C441.853 370.976 454.738 370.174 468.958 369.396C469.67 369.351 470.293 368.906 470.56 368.238C470.827 367.571 470.648 366.814 470.137 366.302C456.941 353.129 445.191 337.329 434.488 322.197C417.331 297.92 403.868 273.553 394.522 249.809C385.042 225.799 378.344 189.059 390.672 164.559C396.525 152.943 406.16 145.244 419.356 141.683C468.379 128.487 497.241 180.003 512.84 225.554C521.963 252.191 526.592 278.871 526.592 304.818C526.637 324.779 525.368 347.454 515.733 364.3C515.421 364.834 515.421 365.523 515.778 366.102Z" fill="#FFEFE6"/>
<path d="M1089.99 1601.15C1086.87 1595.72 1083.91 1590.6 1081.2 1585.49C1072.05 1568.11 1062.84 1550.79 1053.54 1533.46C1034.09 1497.21 1014.59 1461.36 995.567 1426.96C956.424 1356.13 914.857 1283.18 872.02 1210.1C869.951 1206.61 869.461 1203.83 870.574 1201.87C873.511 1196.6 887.285 1196.33 893.894 1196.2C894.873 1196.17 895.763 1196.15 896.498 1196.13C914.411 1195.48 932.592 1193.79 950.528 1191.14C977.209 1187.16 999.417 1181.04 1018.35 1172.5C1042.68 1161.53 1061.77 1146.97 1075.12 1129.3C1081.53 1120.89 1086.51 1111.97 1089.94 1102.82C1090.1 1102.42 1090.23 1102.02 1090.34 1101.62L1090.52 1101.09C1090.68 1100.62 1090.63 1100.09 1090.39 1099.64C1090.14 1099.2 1089.72 1098.86 1089.23 1098.75C1074.01 1094.9 1055.94 1085.8 1049.91 1074.12C1049.69 1073.67 1049.29 1073.36 1048.82 1073.2C1048.35 1073.05 1047.84 1073.12 1047.42 1073.36C1009.43 1094.32 962.277 1092.97 924.359 1069.84C879.898 1042.76 856.265 997.902 857.801 943.516C857.823 942.804 857.422 942.136 856.777 941.825C856.131 941.513 855.353 941.602 854.819 942.069C841.111 953.685 824.978 963.143 806.842 970.13C766.876 985.552 722.481 988.689 684.318 989.713C649.559 990.692 606.322 991.938 580.865 965.724C565.955 950.459 564.287 929.63 562.662 909.492L562.528 907.934C561.638 896.674 560.726 885.436 559.792 874.199C558.657 860.224 557.5 846.249 556.431 832.274L555.586 820.993C554.785 810.244 553.961 799.474 553.204 788.637L542.857 701.25C542.568 698.847 542.256 696.399 541.922 693.929C539.341 674.769 536.671 654.987 554.985 643.593C570.718 633.869 592.859 631.221 612.397 628.885C617.359 628.284 622.166 627.727 626.705 627.06C662.866 621.764 692.017 620.005 718.409 621.518C793.267 625.858 887.508 664.489 906.712 758.996C910.228 776.331 911.608 794.512 910.851 813.004C910.829 813.76 911.251 814.45 911.941 814.739C912.631 815.029 913.432 814.873 913.966 814.339C979.812 746.557 1081.62 719.03 1167.31 745.845C1167.85 746.023 1168.45 745.912 1168.92 745.578C1169.38 745.244 1169.65 744.71 1169.67 744.154C1169.81 739.013 1170.01 733.895 1170.23 728.777C1170.81 714.624 1171.43 699.982 1170.07 685.428C1168.03 663.487 1162.64 640.745 1154.07 617.825C1138.74 576.835 1112.51 538.293 1078.19 506.338C947.257 384.593 756.105 379.364 571.563 384.415C521.739 385.795 471.603 388.221 422.558 391.648C397.902 393.383 372.891 395.386 348.212 397.634C346.276 397.812 344.273 397.967 342.226 398.123C323.801 399.592 300.881 401.417 289.754 418.818C279.896 434.195 280.074 454.756 280.23 472.937C280.252 476.519 280.297 480.013 280.252 483.351C279.896 508.386 280.319 532.73 280.764 553.247C282.122 612.128 283.947 657.257 286.639 699.559C286.661 700.004 286.594 700.427 286.461 700.872C286.394 701.072 286.372 701.295 286.372 701.517C289.798 769.989 290.733 839.773 291.645 907.266C291.912 926.804 292.18 946.32 292.492 965.791C292.825 986.686 293.159 1007.58 293.493 1028.45C294.961 1122.78 296.497 1220.32 299.679 1316.23C301.838 1380.65 304.552 1439.04 308.002 1494.72C308.78 1507.4 309.448 1520.17 310.116 1532.99C312.452 1577.72 314.855 1623.96 322.288 1668.22C325.448 1686.89 333.993 1697.04 350.015 1701.13C360.652 1703.85 372.045 1704.25 383.06 1704.63C385.196 1704.69 387.31 1704.76 389.402 1704.85C400.506 1705.34 411.655 1705.58 422.826 1705.58C441.051 1705.58 459.298 1704.94 477.412 1703.67L481.573 1703.38C510.079 1701.4 539.564 1699.38 566.645 1691.85C584.136 1687 585.827 1673.56 587.585 1659.34L587.808 1657.61C589.366 1645.21 590.166 1631.77 590.322 1615.35C590.789 1574.76 589.699 1533.46 588.653 1493.52C588.164 1475.05 587.675 1456.58 587.341 1438.13C587.029 1421.24 586.406 1404.08 585.805 1387.5C585.316 1374 584.848 1360.49 584.492 1346.96C584.047 1328.56 583.936 1314.51 584.136 1301.41C584.181 1297.74 584.047 1293.8 583.891 1289.64C583.535 1279.58 583.157 1269.19 585.449 1260.93C586.072 1258.73 587.184 1256.08 589.076 1255.83C593.304 1255.37 601.76 1264.69 610.639 1279.8C630.133 1312.67 650.249 1344.8 669.208 1374.89C687.589 1404.08 706.037 1433.88 723.883 1462.7C730.648 1473.64 737.435 1484.59 744.222 1495.54L756.016 1514.54C773.93 1543.41 791.865 1572.29 809.712 1601.2C813.406 1607.16 817.123 1613.88 821.061 1620.98C837.172 1650.04 855.442 1682.95 885.594 1692.83C922.467 1704.98 970.867 1698.97 1006.23 1694.57C1027.08 1691.97 1048.31 1687.87 1069.31 1682.4C1070.89 1682 1072.54 1681.57 1074.19 1681.17C1087.74 1677.79 1103.11 1673.96 1109.26 1663.39C1112.26 1658.21 1112.73 1651.8 1110.64 1644.37C1106.39 1629.59 1098.06 1615.13 1089.99 1601.15ZM1046.46 615.332C1052.02 606.298 1062.33 599.088 1075.05 599.088C1079.48 599.088 1084.2 599.956 1089.12 601.937C1094.81 604.229 1099.93 608.078 1104.27 613.419C1110.28 620.807 1112.57 631.31 1110.37 641.502C1108.28 651.226 1102.49 659.081 1094.48 663.087C1081.84 669.362 1064.84 666.536 1053.11 656.211C1037.91 642.726 1040.03 625.769 1046.46 615.332ZM1003.24 680.867C995.411 699.804 977.632 711.553 957.938 710.841C939.691 710.174 925.226 698.914 919.24 680.778C912.164 659.282 918.995 629.307 942.338 618.359C946.433 616.467 950.951 615.31 955.757 614.932C969.999 613.797 985.464 619.405 994.321 628.885C1006.94 642.347 1010.52 663.243 1003.24 680.867Z" fill="#92C7F0"/>
<path d="M478.832 187.901C468.507 170.61 444.14 144.975 418.372 158.438C409.292 163.2 403.195 170.588 400.235 180.446C391.223 210.488 414.01 256.64 424.224 275.11C434.683 294.024 446.989 312.294 460.808 329.406C466.683 336.683 473.18 343.581 479.5 350.257C484.707 355.775 490.092 361.473 495.032 367.303C495.388 367.703 495.9 367.948 496.434 367.948C496.479 367.948 496.545 367.948 496.545 367.948C497.08 367.926 497.569 367.881 498.103 367.881C498.904 367.881 499.617 367.347 499.862 366.568C500.952 362.741 502.131 358.913 503.288 355.086C504.712 350.413 506.159 345.717 507.494 340.777L508.228 335.592C509.541 326.491 510.899 317.056 510.877 307.844C510.877 286.948 507.872 265.519 501.908 244.156C495.767 221.948 488.201 203.567 478.832 187.901Z" fill="#FFA7B4"/>
<path d="M713.27 182.827C705.972 170.899 696.781 168.519 690.439 168.563C675.953 168.741 662.467 180.913 655.546 192.907C647.112 207.483 640.482 224.996 634.696 248.027C625.461 285.078 624.437 323.376 631.625 361.851C631.758 362.541 632.248 363.075 632.915 363.275C633.071 363.319 633.249 363.341 633.405 363.341C633.917 363.341 634.406 363.119 634.74 362.74C638.501 358.601 642.996 354.64 647.335 350.835C651.43 347.23 655.658 343.514 659.174 339.709C671.369 326.468 682.139 311.292 691.196 294.603C719.39 242.598 726.822 204.991 713.27 182.827Z" fill="#FFA7B4"/>
<path d="M660.729 363.765C676.24 363.81 689.146 363.988 701.408 364.321C702.008 364.344 702.454 364.121 702.81 363.72C706.126 359.982 709.819 356.399 713.402 352.906C715.939 350.413 718.498 347.944 720.946 345.362C731.694 334.147 741.618 322.62 750.408 311.093C767.253 288.996 781.762 264.829 793.512 239.216C803.859 216.719 811.893 192.708 817.411 167.874C823.464 140.637 827.692 112.086 817.945 87.7639C810.824 70.0062 797.762 57.8784 779.137 51.6921C745.891 40.6548 704.1 51.8925 679.378 67.0021C638.477 92.0365 611.44 135.474 596.753 199.851C582.199 263.783 577.17 317.168 581.398 363.075C581.487 364.01 582.267 364.722 583.201 364.722H583.245L592.97 364.477C599.779 364.321 606.656 364.232 613.51 364.121C614.044 364.121 614.533 363.877 614.867 363.476C615.201 363.075 615.356 362.519 615.267 362.007C606.766 312.561 610.95 262.648 627.373 217.675C635.762 194.733 645.62 171.345 665.736 159.574C682.137 149.916 700.963 150.761 714.871 161.71C750.164 189.57 731.293 244.068 714.003 282.632C704.434 303.928 692.551 323.198 678.621 339.955C672.858 346.898 666.627 354.196 659.528 360.65C658.972 361.161 658.794 361.94 659.061 362.652C659.306 363.32 659.995 363.765 660.729 363.765Z" fill="#FFEFE6"/>
<path opacity="0.1" d="M609.615 1483.72C609.459 1475.6 609.371 1467.46 609.304 1459.29C591.034 1450.77 572.341 1443.98 550.445 1446.9C535.958 1448.81 520.248 1451.9 511.68 1464.92C502.067 1479.54 501.066 1499.61 497.906 1516.3C484.799 1585.4 480.927 1656.92 462.502 1724.94C462.747 1724.92 462.991 1724.92 463.236 1724.92C493.478 1723.39 523.653 1720.09 553.538 1715.13C575.613 1711.46 596.842 1707.48 604.341 1684.13C613.954 1654.27 611.996 1619.31 611.551 1588.42C611.061 1553.51 610.26 1518.64 609.615 1483.72Z" fill="#592639"/>
<path opacity="0.1" d="M1188.99 752.053V751.697C1195.67 667.181 1177.71 588.785 1120.94 520.447C1113.6 511.612 1105.76 503.223 1097.53 495.212C1101.4 507.206 1103.27 519.801 1102.03 533.019C1097.69 578.971 1062.48 605.452 1038.36 640.901C1028.37 655.565 1036.09 665.98 1047.26 677.729C1062.39 693.617 1079.53 705.924 1097.75 717.896C1124.12 735.231 1157.32 754.879 1168.16 786.523C1178.95 818.033 1159.39 852.903 1133.09 870.171C1103.03 889.909 1062.48 893.292 1036.07 918.704C1001.96 951.572 1027.28 995.232 1030.11 1034.17C1033.18 1076.63 1003.94 1114.44 966.039 1130.97C898.035 1160.64 781.386 1112.37 744.825 1200.2C721.86 1255.37 763.384 1318.96 771.573 1373.33C775.4 1398.72 773.153 1424.87 756.775 1445.69C745.47 1460.05 728.825 1471.95 710.689 1478.49C716.186 1487.4 721.682 1496.32 727.179 1505.22C752.591 1546.57 778.026 1587.89 803.528 1629.19C821.931 1658.94 839.488 1696.04 874.736 1709.75C912.076 1724.3 960.298 1719.87 999.33 1715.78C1020.38 1713.53 1041.32 1710.19 1061.93 1705.47C1079.82 1701.4 1101.05 1697.66 1116.53 1687.4C1149.89 1665.24 1126.13 1625.56 1112.46 1599.46C1091.06 1558.56 1069.31 1517.82 1047.28 1477.23C999.129 1388.46 949.483 1300.49 898.502 1213.26C916.393 1215.91 938.468 1212 952.621 1210.15C980.882 1206.52 1008.72 1199.67 1034.42 1187.41C1056.92 1176.66 1076.81 1161.24 1091.88 1141.72C1099.13 1132.33 1110.99 1115.89 1112.95 1101.36C1135.21 1096.75 1160.77 1078.79 1163.82 1056.54C1174.99 1057.56 1186.39 1057.23 1197.31 1055.69C1248.52 1048.55 1284.3 1020.31 1299.94 971.889C1329.2 881.342 1274.04 789.104 1188.99 752.053Z" fill="#592639"/>
<path opacity="0.15" d="M728.648 363.476C741.176 352.149 752.125 338.285 761.605 326.491C780.297 303.259 796.341 278.181 809.003 251.411C831.39 204.123 855.756 137.387 837.954 85.3827C820.063 33.1555 756.598 18.402 707.197 33.3114C651.164 50.2235 612.845 94.9068 592.15 146.8C581.09 174.638 574.904 203.99 570.409 233.452C566.715 209.019 561.485 184.786 554.654 161.064C538.676 105.566 514.576 43.5922 459.679 14.4188C409.454 -12.2845 351.597 0.421768 319.754 46.9745C285.128 97.555 295.142 166.049 312.855 220.724C322.869 251.655 337.066 281.429 354.98 308.756C368.109 328.828 385.422 356.621 407.163 371.575C386.379 373.088 365.572 374.758 344.81 376.694C325.139 378.518 304.132 379.853 287.331 391.069C270.13 402.507 263.009 421.8 260.539 441.138C257.023 468.798 258.336 497.504 258.715 525.342C260.651 666.046 270.397 809.777 272.289 951.794C273.757 1062.95 274.981 1174.08 278.208 1285.18C284.906 1284.12 291.56 1284.09 298.035 1285.63C343.854 1296.58 332.126 1376.55 331.926 1409.87C331.77 1436.41 330.902 1465.52 341.473 1490.47C348.972 1508.16 366.151 1539.44 389.894 1529.99C412.036 1521.15 425.121 1489.95 432.709 1469.3C451.646 1417.88 450.511 1360.69 446.461 1306.84C442.834 1258.7 438.071 1209.81 430.061 1162.22C413.994 1066.57 389.561 972.555 375.786 876.468C362.902 786.522 353.155 685.762 387.336 599.11C403.113 559.144 428.659 528.568 468.847 511.812C510.326 494.522 556.501 492.297 600.828 490.338C709.244 485.576 816.992 466.016 925.763 468.865C987.893 470.489 1047.51 481.415 1103.96 501.843C1049.71 446.055 976.166 409.538 900.796 388.843C844.741 373.311 786.839 366.324 728.648 363.476Z" fill="#FFFCFC"/>
<path opacity="0.3" d="M287.954 1427.51C298.858 1400.32 303.175 1369.46 289.912 1342.98C285.039 1333.25 271.621 1337.01 268.483 1345.78C259.159 1371.95 256.911 1400.19 243.604 1425.04C229.585 1451.19 208.556 1471.91 181.875 1484.97C136.636 1507.11 57.26 1511.83 31.291 1457.56C26.9295 1448.43 12.6874 1454.91 15.2242 1464.32C23.6357 1495.45 45.666 1515.48 72.8812 1526.34C72.3248 1528.68 72.4809 1531.23 73.5046 1533.5C84.6977 1558.14 116.786 1572.02 141.665 1576.76C169.458 1582.08 198.053 1580.28 224.178 1569.13C272.911 1548.37 318.997 1482.28 290.091 1430.3C289.468 1429.21 288.733 1428.32 287.954 1427.51Z" fill="#592642"/>
<path opacity="0.3" d="M716.386 1422.44C704.503 1393.36 695.602 1363.38 683.452 1334.43C672.66 1308.66 660.331 1283.74 644.176 1260.84C630.668 1241.75 609.439 1209.75 583.849 1207.68C520.295 1202.49 530.998 1308.62 530.776 1345.89C530.575 1381.92 531.043 1419.24 534.425 1456.09C534.87 1483.59 536.561 1511.01 538.141 1538.49C539.721 1566.37 542.637 1595.77 539.188 1623.58C537.541 1636.8 535.293 1653.65 528.662 1665.37C520.584 1679.68 504.562 1682.33 489.742 1685.78C455.606 1693.75 420.713 1702.16 385.732 1705.45C374.606 1706.5 374.583 1721.72 385.732 1722.76C421.403 1726.15 456.763 1727.64 492.19 1720.38C514.02 1715.91 533.557 1710.88 548.734 1697.48C553.963 1705.9 564.333 1710.39 575.748 1703.98C603.431 1688.41 601.339 1648.33 601.962 1620.89C602.763 1585.44 601.873 1549.79 601.406 1514.32C600.939 1478.67 598.446 1443.29 595.998 1407.75C593.729 1374.66 592.883 1341.35 587.075 1308.68C588.41 1298.76 590.369 1289.15 593.417 1280.22C593.796 1278.69 594.329 1277.2 594.93 1275.77C595.62 1276.13 596.421 1276.48 597.445 1276.86C601.517 1283.34 609.551 1287.88 613.979 1294.82C621.634 1306.84 626.774 1320.34 632.026 1333.5C633.317 1336.72 634.563 1339.95 635.809 1343.2C643.998 1351.48 651.386 1360.67 658.218 1370.41C659.486 1372.62 660.776 1374.82 662.067 1377C671.969 1393.51 681.316 1410.27 690.44 1427.16C690.907 1428.14 691.396 1429.12 691.864 1430.09C691.886 1430.03 691.908 1429.96 691.93 1429.92C709.087 1461.76 725.354 1494.07 742.444 1526.12C746.828 1534.33 761.47 1528.59 757.821 1519.64C744.491 1487.02 729.715 1455.06 716.386 1422.44Z" fill="#592642"/>
<path opacity="0.3" d="M615.646 638.341C631.246 637.696 646.868 638.63 662.445 639.298C681.893 640.144 696.647 635.626 714.938 630.108C717.987 629.195 720.413 627.393 722.171 625.123C733.876 627.949 745.447 631.309 756.596 635.204C785.458 645.262 809.646 660.238 834.369 678.062C843.048 684.338 853.017 670.719 845.629 663.464C772.996 591.966 667.028 557.319 566.78 576.278C543.17 580.751 519.426 589.919 504.917 610.058C489.741 631.109 489.184 657.701 490.386 682.602C493.323 743.975 500.733 805.281 511.971 865.675C517.267 894.048 521.273 926.893 536.538 951.971C542.613 961.918 551.67 970.308 562.841 974.202C568.627 976.227 574.257 976.628 580.332 976.45C583.915 976.338 591.903 973.735 594.418 976.539C600.226 982.992 611.797 977.295 611.04 969.24C608.904 968.661 606.79 967.749 604.699 966.503C597.377 962.097 593.082 954.597 590.345 946.497C582.267 942.959 576.215 941.913 572.655 931.61C565.445 910.759 561.75 887.305 558.212 864.585C558.412 835.211 562.218 805.571 562.084 776.197C561.929 742.551 559.658 708.126 561.928 674.568C563.909 646.196 591.302 639.32 615.646 638.341Z" fill="#592642"/>
<path opacity="0.3" d="M1118.98 1641.32C1119 1640.54 1119.05 1639.76 1119.02 1638.96C1118.67 1631.22 1113.75 1624.47 1106.32 1622.56C1106.45 1620.51 1106.54 1618.46 1106.52 1616.37C1106.1 1585.17 1088.61 1557.34 1073.81 1531.01C1057.92 1502.75 1041.34 1474.89 1024.21 1447.36C989.848 1392.18 955.823 1337.59 916.636 1285.61C909.826 1276.57 902.884 1267.65 895.941 1258.73C894.116 1248.13 889.821 1238.99 885.193 1229.06C881.41 1220.94 877.471 1212.42 872.264 1204.94C919.373 1221.54 980.768 1199.82 1023.38 1180.15C1042.54 1171.29 1065.02 1157.52 1075.41 1138.32C1076.72 1135.87 1077.72 1133.38 1078.48 1130.84C1081.37 1130.17 1084.07 1128.7 1086.25 1126.17C1092.25 1119.2 1094.75 1110.08 1090.05 1101.58C1089.16 1099.93 1088.05 1098.42 1086.74 1097.04C1085.71 1095.68 1085.71 1095.79 1086.74 1097.35C1084.64 1095.1 1083.31 1092.9 1081 1090.92C1076.21 1086.87 1069.98 1082.44 1064.02 1080.37C1058.79 1078.55 1053.69 1078.43 1048.44 1078.12C1047.99 1076.52 1047.48 1074.9 1046.81 1073.29C1042.45 1062.79 1026.63 1057.56 1020.24 1069.82C1009.63 1090.23 1000.77 1109.99 980.412 1122.45C955.645 1137.63 925.715 1141.19 897.788 1147C852.17 1156.5 807.064 1189.07 831.052 1240.97C842.779 1266.34 864.609 1287.92 881.365 1310.06C900.28 1335.03 918.082 1360.78 936.619 1386.03C972.535 1434.92 1004.85 1485.46 1034.75 1538.27C1049.13 1563.66 1073.12 1595.3 1067.91 1626.12C1062.77 1656.56 1047.01 1679.13 1016.8 1688.07C1007.43 1690.85 1008.83 1706.05 1019.15 1705.58C1040.85 1704.6 1061.68 1695.01 1077.55 1680.26C1086.89 1684.67 1100.47 1677.77 1106.54 1670.8C1107.63 1669.56 1108.65 1668.24 1109.63 1666.93C1119.2 1663.68 1126.3 1651.91 1119.65 1642.25C1119.45 1641.96 1119.23 1641.65 1118.98 1641.32Z" fill="#592642"/>
<path opacity="0.3" d="M1257.64 841.243C1255.37 882.188 1258.22 923.154 1237.7 960.673C1218.27 996.21 1184.47 1025.98 1141.64 1022.96C1131.31 1022.22 1130.69 1036.82 1139.32 1039.98C1190.15 1058.47 1243.33 1035.4 1272.41 991.137C1301.01 947.633 1313.81 879.362 1279.96 835.212C1272.9 825.955 1258.35 828.559 1257.64 841.243Z" fill="#592642"/>
<path opacity="0.3" d="M1150.54 748.671C1151.09 748.537 1151.58 748.359 1152.12 748.204C1159.46 754.523 1171.63 755.346 1176.66 744.977C1181.36 735.297 1180.49 725.75 1178.95 715.336C1178.22 710.307 1177.33 704.788 1175.75 699.648C1176.73 682.558 1174.75 664.666 1170.61 650.402C1169.41 646.241 1166.82 643.46 1163.73 641.88C1161.71 610.637 1152.36 579.282 1139.99 553.892C1135.6 544.902 1120.25 551.222 1123.7 560.768C1140.83 608.145 1148.53 681.868 1109.32 721.01C1098.44 731.87 1109.39 752.498 1124.77 747.536C1132.51 744.999 1142.01 750.651 1150.54 748.671Z" fill="#592642"/>
<path opacity="0.3" d="M489.851 45.9744C483.041 37.7409 471.67 48.2218 475.854 56.7891C520.292 147.58 537.16 247.762 507.764 346.23C505.561 353.618 509.077 364.567 516.598 367.927C527.947 373.001 539.83 372.845 549.577 367.949C552.002 370.063 555.073 371.398 558.411 371.265C564.842 370.976 570.295 367.95 572.854 361.853C574.701 357.446 574.322 352.35 571.807 348.256C570.917 346.787 569.738 345.586 568.403 344.651C575.88 321.241 566.244 294.36 559.213 272.04C563.53 191.329 541.566 108.66 489.851 45.9744Z" fill="#592642"/>
<path opacity="0.3" d="M669.096 334.525C642.415 354.864 676.796 386.907 694.687 366.791C784.054 296.539 836.771 192.886 831.297 78.0169C830.74 66.579 815.386 67.2243 813.962 78.0169C801.167 175.662 747.804 274.531 669.096 334.525Z" fill="#592642"/>
<path opacity="0.3" d="M406.939 268.078C410.767 279.338 426.077 274.598 424.386 263.272C421.07 241.108 417.91 208.953 434.044 190.75C443.902 179.624 463.751 177.51 458.188 158.105C456.83 153.41 452.847 148.759 447.84 147.758C423.407 142.929 401.933 163.891 398.105 186.811C397.638 189.637 398.372 192.53 399.863 194.867C399.707 195.29 399.53 195.713 399.396 196.135C391.096 221.281 398.862 244.268 406.939 268.078Z" fill="#592642"/>
<path opacity="0.3" d="M615.802 313.718C617.227 323.576 631.09 321.462 633.738 313.718C643.107 286.169 643.218 255.661 659.64 230.627C666.739 219.812 676.619 209.954 688.836 205.147C699.428 200.986 709.197 201.364 717.564 192.708C723.061 187.033 723.595 177.086 717.564 171.479C698.071 153.298 668.719 168.319 651.74 183.05C647.779 186.499 647.735 192.04 650.072 196.246C643.463 202.699 637.743 210.043 633.003 218.031C616.381 245.981 611.218 281.919 615.802 313.718Z" fill="#592642"/>
<path opacity="0.5" d="M177.666 1315.58C177.488 1315.67 177.288 1315.83 177.11 1315.92C175.619 1315.49 173.95 1315.36 172.17 1315.74C163.202 1317.56 151.653 1316.45 143.397 1312.24C142.373 1311.73 141.327 1311.44 140.304 1311.26C132.026 1298.34 124.304 1283.52 112.399 1273.72C86.7191 1252.61 52.9838 1267.4 37.3846 1292.97C16.9121 1326.55 14.0415 1366.3 12.7285 1404.44C12.3725 1414.99 28.2835 1416.99 30.9984 1406.91C35.4712 1390.33 41.9244 1374.2 49.0231 1358.6C55.6321 1344.07 59.2372 1327.67 68.3163 1314.34C71.0311 1310.33 75.4367 1304.05 80.6216 1302.74C88.4323 1300.78 91.0587 1307.01 94.9975 1312.64C102.83 1323.86 109.328 1335.97 117.695 1346.8C133.517 1367.34 156.192 1374.64 179.291 1360.89C190.862 1353.99 200.297 1346.45 214.094 1344.22C228.536 1341.88 241.954 1343.78 256.196 1339.59C262.382 1337.77 267.278 1329.22 262.828 1323.3C242.6 1296.49 204.904 1301.67 177.666 1315.58Z" fill="#FFF7F7"/>
<path opacity="0.5" d="M1204.61 763.802C1110.26 732.893 997.46 737.655 924.827 812.802C861.118 878.715 851.839 989.267 928.032 1050.55C947.637 1066.31 972.026 1077.77 997.194 1080.61C1017.11 1082.86 1042.26 1079.64 1060.46 1068.71C1062.28 1074.65 1066.33 1080.01 1072.03 1084.04C1083.51 1092.19 1099.36 1093.43 1112.28 1088.2C1121.43 1084.49 1122.9 1071.25 1112.28 1068.06C1100.74 1064.59 1082.98 1067.33 1078.53 1052.78C1076.93 1047.55 1070.4 1044.83 1065.73 1046.9C1065.13 1046.75 1064.49 1046.63 1063.82 1046.63C1050.98 1046.46 1038.18 1049.55 1025.39 1048.82C1013.97 1048.17 1002.02 1045.3 990.941 1042.43C966.685 1036.13 945.345 1021.42 930.814 1000.97C902.953 961.851 902.597 911.761 926.096 870.593C981.594 773.371 1104.14 771.657 1201.92 783.607C1213.67 785.009 1214.85 767.162 1204.61 763.802Z" fill="#FFF7F7"/>
<path opacity="0.5" d="M943.632 435.173C977.345 445.498 1009.46 461.209 1040.08 478.589C1049.91 484.174 1058.39 475.362 1057.57 466.772C1050.02 461.098 1042.46 455.445 1034.56 450.394C1013.35 436.753 989.406 427.652 968.444 413.9C942.675 403.619 916.061 395.296 889.491 388.465C859.806 380.832 828.519 378.184 797.943 376.916C766.7 375.625 735.213 375.046 704.037 374.779C638.435 374.201 572.522 373.355 506.966 376.248C474.677 377.672 442.455 380.543 410.5 385.55C399.062 387.352 387.425 389.31 375.942 391.936C376.654 389.533 376.631 386.951 375.964 384.615C350.062 386.862 324.204 389.644 298.457 393.116C298.213 393.427 297.946 393.716 297.678 394.028C283.682 411.385 279.676 429.009 277.785 449.682C275.849 451.062 274.402 453.087 273.913 455.757C264.678 504.891 271.02 558.654 273.534 608.322C275.292 642.769 277.429 677.417 281.1 711.82C269.44 788.725 275.938 870.259 285.506 947.053C285.796 949.301 286.664 951.148 287.865 952.595C290.224 1109.68 292.806 1266.74 295.454 1423.8C296.344 1476.14 296.099 1528.63 299.17 1580.9C301.684 1623.54 303.487 1675.12 335.843 1706.99C349.283 1720.23 373.65 1702.89 362.679 1686.29C340.938 1653.42 338.557 1615.77 336.532 1577.39C334.218 1533.5 334.307 1489.46 333.661 1445.52L329.745 1177.75C327.186 1001.64 324.026 825.553 320.978 649.445C320.599 627.103 320.199 604.739 319.821 582.397C319.954 580.684 320.109 578.993 320.243 577.301C321.934 554.07 321.445 530.081 325.851 507.139C334.53 461.966 372.67 446.344 413.46 437.421C484.78 421.822 558.036 418.906 630.825 418.55C699.519 418.216 769.593 415.257 838.132 420.264C873.803 422.846 909.296 424.67 943.632 435.173Z" fill="#FFF7F7"/>
<path opacity="0.5" d="M310.54 169.097C312.03 172.369 314.657 173.882 317.505 174.127C319.285 209.264 331.458 243.622 347.724 274.598C357.872 293.958 370.333 311.27 384.708 327.648C399.306 344.249 414.015 362.496 432.863 374.402C439.917 378.874 447.928 370.129 444.012 363.253C435.556 348.321 423.94 335.326 414.572 320.95C404.669 305.752 395.901 289.619 387.378 273.597C370.466 241.864 358.027 208.44 356.803 172.124C355.824 143.195 363.323 115.135 380.547 91.6359C397.882 67.9812 422.849 57.0328 449.063 46.0176C460.835 41.0775 464.529 21.6731 449.063 18.2462C439.183 16.0432 429.703 15.7982 420.646 17.0666C419.133 14.5743 416.418 12.6606 412.524 12.2823C338.111 4.84989 281.322 104.876 310.54 169.097Z" fill="#FFF7F7"/>
<path opacity="0.5" d="M471.492 191.173C476.566 221.303 481.573 250.387 482.24 281.029C482.529 294.47 482.796 307.866 482.04 321.329C481.217 335.838 477.5 350.836 481.083 365.033C483.954 376.426 499.954 378.096 505.784 368.26C519.759 344.65 515.62 303.482 512.304 276.979C508.343 245.513 500.732 213.314 486.646 184.808C482.173 175.796 470.046 182.583 471.492 191.173Z" fill="#FFF7F7"/>
<path opacity="0.5" d="M641.838 157.06C656.703 129.645 677.376 105.545 704.703 90.0125C719.078 81.8457 734.944 76.1046 751.367 73.7236C767.478 71.4093 783.388 74.3022 799.522 73.6346C809.179 73.2341 815.633 65.1119 816.011 56.8561C803.282 46.7756 789.241 38.5865 774.109 32.9565C748.963 31.2208 721.949 38.809 700.452 48.4889C665.76 64.1326 637.633 90.9251 617.205 122.747C596.198 155.48 585.428 191.33 580.043 229.56C574.213 270.95 567.915 321.864 579.887 362.631C581.712 368.862 588.632 371.132 593.772 369.04C600.292 376.072 614.668 372.512 618.095 363.076C620.632 366.837 624.926 369.04 630.134 367.015C653.922 357.691 673.104 328.028 687.101 307.4C703.723 282.855 716.163 256.33 723.306 227.624C725.643 218.255 711.979 211.735 707.239 220.859C695.134 244.18 682.361 267.501 667.162 288.953C659.329 300.012 651.096 310.693 642.016 320.774C634.161 329.497 623.814 337.196 618.006 347.41C616.315 330.387 613.31 312.941 607.881 297.052C607.48 295.895 606.946 294.916 606.345 294.049C606.924 279.807 607.703 265.631 609.951 251.857C615.225 219.323 626.106 186.078 641.838 157.06Z" fill="#FFF7F7"/>
<path opacity="0.5" d="M952.643 1702.78C915.659 1684.44 879.654 1671.54 849.991 1641.32C816.701 1607.38 795.227 1564.03 767.233 1525.98C760.958 1517.44 748.274 1524.6 752.925 1534.35C774.399 1579.28 798.877 1629.39 834.993 1664.55C864.501 1693.28 905.624 1720.05 948.082 1719.65C956.627 1719.56 960.966 1706.9 952.643 1702.78Z" fill="#FFF7F7"/>
<path d="M1188.99 752.052V751.696C1195.66 667.18 1177.7 588.784 1120.94 520.445C1065.71 453.954 984.351 411.719 900.881 388.776C844.737 373.31 786.857 366.323 728.644 363.475C741.173 352.148 752.121 338.284 761.601 326.49C780.293 303.258 796.338 278.18 809 251.41C831.386 204.123 855.752 137.386 837.95 85.3818C820.059 33.1546 756.594 18.4011 707.193 33.3104C651.16 50.2225 612.841 94.9059 592.146 146.799C581.086 174.637 574.9 203.989 570.405 233.451C566.711 209.018 561.482 184.785 554.65 161.063C538.672 105.565 514.573 43.5912 459.675 14.4178C409.451 -12.2855 351.594 0.420792 319.75 46.9736C285.125 97.5541 295.138 166.048 312.852 220.723C322.865 251.654 337.063 281.428 354.976 308.755C368.105 328.827 385.418 356.621 407.159 371.574C386.375 373.088 365.568 374.757 344.807 376.693C325.135 378.517 304.128 379.853 287.328 391.068C270.126 402.506 263.006 421.799 260.536 441.137C257.02 468.797 258.333 497.503 258.711 525.341C260.647 666.045 270.393 809.776 272.285 951.793C273.954 1077.1 275.267 1202.4 279.54 1327.64C275.979 1322.77 271.818 1318.25 267.211 1314.22C241.776 1292.15 215.719 1296.22 184.275 1298.45C163.447 1299.94 152.743 1291.37 140.081 1276.82C130.757 1266.11 120.699 1255.72 106.146 1252.25C76.4159 1245.17 50.4028 1267.05 37.2292 1290.81C4.71787 1349.56 -8.4562 1430.78 21.3402 1492.74C46.8197 1545.76 102.986 1582.77 162.356 1588.76C198.072 1592.34 236.213 1584.15 265.209 1563.05C274.866 1555.98 283.389 1547.45 290.221 1537.75C292.246 1566.46 294.493 1595.17 297.075 1623.83C299.255 1647.99 297.631 1678.72 311.917 1699.86C323.889 1717.53 345.586 1721.83 365.769 1723.63C398.058 1726.46 430.836 1726.52 463.214 1724.9C493.455 1723.36 523.63 1720.07 553.515 1715.11C575.59 1711.44 596.819 1707.45 604.318 1684.11C613.931 1654.25 611.973 1619.29 611.528 1588.4C611.016 1553.49 610.215 1518.62 609.57 1483.7C608.48 1426.24 610.215 1367.72 607.322 1309.97C621.72 1335.16 637.875 1359.58 652.762 1384.12C677.285 1424.62 702.297 1464.88 727.131 1505.17C752.544 1546.52 777.979 1587.84 803.48 1629.14C821.883 1658.9 839.441 1695.99 874.69 1709.7C912.03 1724.25 960.251 1719.82 999.283 1715.73C1020.33 1713.48 1041.27 1710.14 1061.88 1705.43C1079.77 1701.36 1101 1697.62 1116.49 1687.36C1149.84 1665.19 1126.08 1625.52 1112.42 1599.42C1091.01 1558.51 1069.27 1517.77 1047.24 1477.18C999.082 1388.41 949.436 1300.45 898.455 1213.22C916.347 1215.87 938.421 1211.95 952.574 1210.1C980.835 1206.48 1008.67 1199.62 1034.38 1187.36C1056.87 1176.61 1076.77 1161.19 1091.83 1141.68C1099.09 1132.28 1110.95 1115.84 1112.91 1101.31C1135.16 1096.7 1160.73 1078.74 1163.78 1056.49C1174.95 1057.52 1186.34 1057.18 1197.27 1055.65C1248.47 1048.5 1284.25 1020.26 1299.9 971.843C1329.2 881.341 1274.04 789.103 1188.99 752.052ZM598.51 200.251C610.238 148.891 632.913 97.5541 680.311 68.5588C720.3 44.1252 794.735 34.8458 816.254 88.4527C826.201 113.242 821.216 142.304 815.63 167.495C810.223 191.839 802.301 215.716 791.864 238.481C780.293 263.693 765.873 287.837 748.961 310.001C739.882 321.906 730.024 333.3 719.632 344.115C713.646 350.368 707.148 356.131 701.452 362.518C687.878 362.162 674.303 362.006 660.729 361.983C668.206 355.196 674.77 347.386 680 341.111C694.597 323.553 706.347 304.06 715.649 283.365C731.515 247.938 753.634 189.992 715.982 160.262C700.984 148.424 681.113 148.401 664.824 157.97C643.595 170.387 633.581 195.355 625.659 217.007C608.635 263.649 605.119 313.695 613.464 362.273C606.61 362.384 599.756 362.495 592.925 362.629C589.654 362.695 586.427 362.807 583.201 362.874C578.261 309.378 586.672 252.189 598.51 200.251ZM657.837 338.485C650.76 346.184 640.857 353.327 633.403 361.539C626.393 324.087 627.194 285.612 636.451 248.494C641.124 229.846 647.377 210.642 657.102 193.842C668.784 173.636 696.067 158.193 711.71 183.783C729.891 213.535 704.456 266.297 689.569 293.735C680.846 309.846 670.32 324.91 657.837 338.485ZM381.835 310.023C366.703 288.839 353.752 266.007 343.738 242.086C323.666 194.153 308.223 134.093 325.558 83.3567C343.917 29.6831 399.771 5.73915 451.33 33.7776C501.087 60.8815 521.872 119.05 536.492 169.386C545.883 201.875 552.425 234.987 556.23 268.522C558.589 289.507 559.056 310.758 560.591 331.853C560.436 342.423 560.747 352.949 561.682 363.496C546.884 363.942 532.064 364.521 517.288 365.122C527.302 347.631 528.436 323.753 528.392 304.727C528.392 277.69 523.319 250.519 514.529 224.884C501.222 185.942 471.914 125.548 418.864 139.857C370.42 152.919 379.388 216.362 392.806 250.386C402.931 276.088 416.972 300.499 432.972 323.152C443.453 337.951 455.292 353.995 468.821 367.503C455.692 368.237 442.541 369.037 429.412 369.928C429.3 369.238 429.122 368.593 428.833 367.97C424.227 358.178 416.705 351.636 409.384 343.758C399.482 333.144 390.269 321.862 381.835 310.023ZM509.076 307.776C509.121 318.59 507.23 329.539 505.694 340.465C503.335 349.033 500.532 357.488 498.106 366.011C497.527 366.011 496.993 366.056 496.393 366.078C485.467 353.15 472.871 341.466 462.212 328.226C448.527 311.269 436.31 293.178 425.807 274.196C411.32 248.027 379.432 180.868 419.198 160.04C442.853 147.667 466.485 170.788 477.255 188.813C487.558 206.081 494.79 225.329 500.153 244.555C505.916 265.184 509.076 286.413 509.076 307.776ZM247.473 1549.52C224.798 1564.03 196.915 1569.77 170.033 1568.24C121.3 1565.48 74.2352 1537.64 48.6 1497.3C16.5115 1446.78 24.2781 1383.9 43.6602 1330.34C52.183 1306.79 69.8292 1262.91 103.765 1273.9C123.325 1280.24 131.825 1305.23 150.54 1314.45C176.954 1327.51 204.948 1310.53 231.941 1317.38C261.671 1324.93 275.49 1352.7 281.542 1379.62C283.145 1418.39 285.125 1457.11 287.484 1495.78C281.142 1517.32 265.72 1537.84 247.473 1549.52ZM1088.27 1102.13C1084.78 1111.43 1079.7 1120.27 1073.67 1128.19C1059.36 1147.13 1039.32 1161.04 1017.6 1170.83C996.368 1180.42 973.291 1185.89 950.237 1189.34C932.413 1191.99 914.455 1193.66 896.408 1194.3C887.44 1194.64 860.158 1193.57 870.417 1211.04C912.519 1282.82 953.731 1355.08 993.942 1427.82C1013.5 1463.21 1032.82 1498.7 1051.89 1534.3C1061.19 1551.62 1070.4 1568.93 1079.55 1586.31C1089.38 1604.89 1103.07 1624.67 1108.79 1644.92C1116.2 1671.11 1088.6 1675.54 1068.76 1680.7C1048.1 1686.07 1027.1 1690.18 1005.89 1692.83C969.063 1697.42 921.887 1702.96 886.06 1691.16C849.188 1679.08 829.672 1630.24 811.158 1600.28C789.394 1565.01 767.498 1529.81 745.646 1494.6C720.678 1454.35 695.888 1414.05 670.631 1373.95C650.782 1342.42 631.155 1311.02 612.085 1278.91C608.992 1273.66 589.253 1240.23 583.601 1260.48C580.263 1272.5 582.399 1288.94 582.221 1301.43C581.999 1316.63 582.221 1331.85 582.577 1347.05C583.334 1377.47 584.825 1407.8 585.404 1438.22C586.494 1497.23 589.075 1556.38 588.386 1615.39C588.23 1629.48 587.629 1643.52 585.871 1657.45C583.957 1672.65 583 1685.47 566.021 1690.18C537.783 1698.02 506.295 1699.91 477.144 1701.93C447.926 1704 418.619 1704.4 389.357 1703.14C376.584 1702.58 362.831 1702.67 350.347 1699.46C333.48 1695.15 326.693 1684.11 323.956 1668C314.454 1611.28 313.208 1551.97 309.692 1494.67C306.02 1435.23 303.372 1375.75 301.392 1316.23C297.52 1199.44 296.14 1082.62 294.204 965.812C292.758 877.981 292.468 789.504 288.062 701.472C288.24 700.893 288.351 700.225 288.307 699.513C285.191 650.802 283.545 602.069 282.432 553.268C281.92 530.014 281.587 506.738 281.921 483.439C282.21 463.256 279.673 437.754 291.133 419.863C302.927 401.393 328.473 401.282 348.212 399.502C372.957 397.254 397.746 395.251 422.536 393.515C472.115 390.066 521.783 387.663 571.473 386.284C744.355 381.522 943.272 383.524 1076.81 507.717C1109.99 538.604 1136.47 576.389 1152.23 618.514C1160.28 640.077 1165.98 662.752 1168.11 685.65C1169.94 705.255 1168.18 724.615 1167.71 744.153C1078.81 716.314 976.139 747.602 912.519 813.114C913.275 794.689 911.896 776.241 908.336 758.683C890.444 670.607 804.571 624.767 718.363 619.76C687.588 617.98 656.746 620.85 626.304 625.323C603.562 628.661 573.966 629.707 553.916 642.124C532.13 655.654 538.495 680.398 540.965 701.538C544.414 730.69 547.863 759.818 551.312 788.925C552.336 803.434 553.448 817.965 554.539 832.474C556.497 857.686 558.633 882.921 560.636 908.133C562.35 929.229 563.73 950.925 579.462 967.059C605.409 993.762 649.692 992.582 684.273 991.603C725.707 990.468 768.544 986.886 807.397 971.888C825.511 964.878 841.844 955.42 855.886 943.515C854.462 993.294 874.601 1041.78 923.312 1071.45C961.386 1094.68 1009.5 1096.35 1048.19 1075.01C1054.58 1087.38 1073.27 1096.68 1088.69 1100.55C1088.63 1101.04 1088.49 1101.6 1088.27 1102.13ZM573.966 798.716C573.053 790.95 572.185 783.228 571.273 775.462C570.183 763.49 569.093 751.518 567.869 739.569C565.755 718.406 564.53 696.665 559.368 675.948C559.412 669.628 560.747 663.82 564.953 660.282C576.703 650.379 604.296 650.112 618.56 647.798C642.549 643.926 666.76 641.055 691.104 640.544C769.59 638.941 859.313 668.894 883.613 749.627C892.714 779.824 894.183 813.203 887.484 844.423C875.446 863.049 866.545 883.7 861.315 904.929C847.496 924.2 828.826 940.021 805.127 950.035C772.282 963.943 735.854 968.171 700.428 969.952C669.252 971.487 623.5 977.072 597.954 955.331C579.306 939.465 582.266 909.357 580.419 887.505C578.394 863.405 576.792 839.306 574.722 815.25C574.366 811.067 573.966 806.905 573.61 802.722C574.01 801.498 574.144 800.207 573.966 798.716ZM1101.02 1081.57C1088.76 1081.64 1077.21 1076.27 1068.13 1068.51C1066.69 1067.24 1065.31 1065.93 1063.99 1064.64C1078.55 1053.09 1089.01 1038.47 1095.64 1022.25C1106.34 1037.53 1122.67 1047.26 1141.01 1052.44C1134.4 1068.82 1120.87 1081.46 1101.02 1081.57ZM1238.34 1020.15C1209.99 1036.89 1169.49 1042.03 1139.01 1027.7C1119.74 1018.66 1110.88 1003.26 1106.67 983.57C1103.63 969.195 1094.66 935.637 1105.94 924.711C1114.57 916.366 1117.22 906.197 1122.38 895.716C1128.7 882.876 1135.42 870.125 1141.12 857.041C1147.46 842.443 1156.1 816.652 1139.39 805.392C1123.16 794.51 1094.39 794.822 1075.85 797.27C1056 799.873 985.13 818.321 1001.49 849.742C1006.83 859.978 1020.13 868.479 1028.23 876.89C1039.49 888.529 1049.82 900.924 1061.43 912.228C1067.75 918.325 1075.25 926.603 1083.46 930.408C1083.58 970.508 1090.47 1011.48 1057.63 1042.65C1030.75 1068.24 990.137 1076.01 955.067 1063.44C887.084 1039.16 867.168 967.125 884.77 903.749C906.044 827.178 978.298 774.06 1056.36 759.195C1077.75 755.123 1099.73 753.966 1121.43 756.191C1201.96 764.514 1274.64 823.172 1284.07 903.816C1288.86 944.961 1277.15 997.255 1238.34 1020.15Z" fill="#3D2938"/>
<path d="M978.434 952.194C971.891 947.877 962.034 953.529 962.457 961.117C962.523 962.608 962.679 963.542 963.102 964.7C963.057 964.633 963.035 964.544 962.99 964.522C962.99 964.566 963.035 964.633 963.057 964.744C963.279 965.367 963.524 965.968 963.858 966.524C963.903 966.569 963.903 966.592 963.903 966.592C965.438 969.573 968.286 971.643 971.802 972.11C975.786 972.622 980.415 970.842 982.328 967.17C985.243 961.696 983.797 955.71 978.434 952.194ZM963.435 965.546C963.391 965.479 963.369 965.39 963.369 965.323C963.48 965.612 963.591 965.835 963.658 966.013C963.569 965.879 963.502 965.724 963.435 965.546Z" fill="#3D2938"/>
<path d="M1013.77 994.897C1019.22 994.897 1024.43 990.246 1024.18 984.772C1023.94 979.253 1019.6 974.603 1013.77 974.603C1008.32 974.603 1003.09 979.276 1003.36 984.772C1003.6 990.246 1007.92 994.897 1013.77 994.897Z" fill="#3D2938"/>
<path d="M1019.69 950.371C1022.41 950.95 1025.46 950.839 1027.86 949.326C1030.33 947.768 1031.55 945.809 1032.73 943.161C1032.98 942.538 1033.27 941.893 1033.58 941.27C1034.56 938.956 1033.73 935.217 1032.49 933.17C1031.15 930.944 1028.62 928.897 1026.03 928.297C1020.67 927.139 1013.95 929.899 1012.75 935.662C1012.59 936.307 1012.48 936.997 1012.35 937.665C1011.24 942.961 1013.84 949.058 1019.69 950.371Z" fill="#3D2938"/>
<path d="M1161.84 952.038C1160.71 952.105 1159.64 952.194 1158.5 952.327C1155.74 952.683 1153.56 953.863 1151.67 955.888C1147.93 959.849 1147.93 965.501 1151.67 969.506C1153.56 971.509 1155.74 972.688 1158.5 973.067C1159.64 973.223 1160.71 973.29 1161.84 973.312C1167.58 973.579 1173.01 968.261 1172.77 962.675C1172.5 957.112 1167.96 951.794 1161.84 952.038Z" fill="#3D2938"/>
<path d="M1152.8 929.764C1152.96 929.831 1153.09 929.83 1153.25 929.919C1159.9 932.278 1166.82 926.181 1166.82 919.861C1166.82 913.141 1159.97 907.956 1153.25 909.803C1151.94 910.159 1150.6 910.649 1149.47 911.428C1147.33 912.852 1145.33 914.81 1144.75 917.391C1144.17 919.861 1144.19 922.91 1145.77 925.09C1146 925.38 1146.22 925.67 1146.42 925.937C1147.15 926.849 1147.98 927.65 1148.96 928.251L1148.84 928.206C1150.07 929.074 1151.38 929.541 1152.8 929.764Z" fill="#3D2938"/>
<path d="M1188.9 927.428C1188.21 927.717 1187.58 928.006 1186.98 928.362C1182.44 931.255 1180.42 936.596 1182.55 941.581C1184.51 946.054 1190.25 949.48 1195.33 947.678C1196.88 947.099 1198.42 946.476 1199.87 945.719C1204.92 943.116 1206.88 935.884 1203.78 931.211C1200.33 926.071 1194.41 924.891 1188.9 927.428Z" fill="#3D2938"/>
<path d="M1004.92 681.579C1012.28 663.732 1008.94 641.836 995.659 627.661C986.179 617.536 970.223 611.995 955.626 613.152C950.663 613.553 945.901 614.754 941.584 616.735C918.463 627.594 909.696 657.568 917.529 681.379C931.637 724.215 988.181 721.99 1004.92 681.579Z" fill="#3D2938"/>
<path d="M1051.96 657.545C1063.53 667.737 1081.42 671.586 1095.33 664.688C1113.91 655.408 1118.69 628.216 1105.7 612.238C1100.93 606.43 1095.51 602.514 1089.81 600.221C1052.56 585.29 1021.78 630.908 1051.96 657.545Z" fill="#3D2938"/>
</g>
<defs>
<filter id="filter0_d_403_14515" x="0.683594" y="0.623047" width="1311.18" height="1733.35" filterUnits="userSpaceOnUse" color-interpolation-filters="sRGB">
<feFlood flood-opacity="0" result="BackgroundImageFix"/>
<feColorMatrix in="SourceAlpha" type="matrix" values="0 0 0 0 0 0 0 0 0 0 0 0 0 0 0 0 0 0 127 0" result="hardAlpha"/>
<feOffset dy="4"/>
<feGaussianBlur stdDeviation="2"/>
<feComposite in2="hardAlpha" operator="out"/>
<feColorMatrix type="matrix" values="0 0 0 0 0 0 0 0 0 0 0 0 0 0 0 0 0 0 0.25 0"/>
<feBlend mode="normal" in2="BackgroundImageFix" result="effect1_dropShadow_403_14515"/>
<feBlend mode="normal" in="SourceGraphic" in2="effect1_dropShadow_403_14515" result="shape"/>
</filter>
</defs>
</svg>
