<svg width="1024" height="1503" viewBox="0 0 1024 1503" fill="none" xmlns="http://www.w3.org/2000/svg">
<g filter="url(#filter0_d_403_14554)">
<path d="M29.2285 1138.74C31.476 1137.32 32.967 1139.41 33.2562 1139.83C33.6123 1140.39 34.2129 1140.7 34.8582 1140.7C34.9695 1140.7 35.0811 1140.7 35.1924 1140.68C41.6679 1139.54 47.0753 1137.49 52.1712 1134.22C54.0182 1133.04 55.8431 1131.55 57.7568 1129.97C60.0044 1128.13 62.3406 1126.19 64.7217 1124.85C65.5005 1124.41 65.8568 1123.52 65.612 1122.65C56.2881 1090.56 51.7037 1057.61 51.9485 1024.65C51.9485 1023.89 51.5035 1023.2 50.8137 1022.89C50.1239 1022.58 49.3001 1022.71 48.7438 1023.25C38.463 1032.82 32.3436 1046.7 28.8944 1068.24C25.3339 1090.47 24.3552 1113.75 25.9797 1137.43C26.0242 1138.12 26.4023 1138.74 27.0031 1139.03C27.6262 1139.32 28.3163 1139.3 28.8727 1138.92C28.9172 1138.9 29.184 1138.76 29.2285 1138.74Z" fill="#FFCC99"/>
<path d="M86.2197 1227.37C91.0263 1222.74 95.3654 1217.22 99.905 1209.99L101.552 1207.3C101.93 1206.7 101.93 1205.94 101.574 1205.34C89.2907 1184.62 79.121 1162.82 71.3325 1140.52C71.11 1139.85 70.5093 1139.36 69.8195 1139.27C69.1074 1139.16 68.4175 1139.45 67.9947 1140.03C66.2145 1142.45 64.6563 1144.21 63.8997 1144.86C54.7316 1152.71 41.8031 1157.79 30.1872 1158.1C29.6531 1158.12 29.1415 1158.37 28.7855 1158.77C28.4295 1159.19 28.2734 1159.72 28.3624 1160.26C30.6545 1176.72 34.1256 1193.1 38.6875 1208.97C41.6248 1219.16 45.1856 1229.64 49.2801 1240.12C49.5248 1240.72 50.0588 1241.19 50.7041 1241.3C51.8613 1241.52 52.8184 1242.12 53.3302 1242.97C53.664 1243.5 54.2421 1243.84 54.8874 1243.86C55.0432 1243.86 55.1994 1243.86 55.3329 1243.86C56.6458 1243.86 57.7808 1243.66 58.8045 1243.24C62.0756 1242.59 65.3241 1241.1 67.9499 1239.9C74.5812 1236.83 80.9236 1232.49 86.2197 1227.37Z" fill="#FFCC99"/>
<path d="M163.145 1296.42C163.924 1294.62 164.636 1292.82 165.348 1291.01L166.505 1288.1C166.794 1287.37 166.616 1286.54 166.038 1286.01C145.988 1266.98 128.052 1245.8 112.787 1223.08C112.431 1222.54 111.874 1222.25 111.162 1222.23C110.517 1222.25 109.916 1222.59 109.582 1223.14C104.508 1231.44 97.6101 1238.21 94.8952 1240.75C90.6227 1244.71 75.5355 1257.81 60.5816 1260.33C60.0031 1260.44 59.491 1260.8 59.2017 1261.33C58.9347 1261.86 58.9129 1262.49 59.18 1263.02C72.3314 1290.77 88.9093 1316.65 108.425 1339.95C108.803 1340.39 109.338 1340.64 109.894 1340.64C110.027 1340.64 110.161 1340.62 110.294 1340.59L111.518 1340.33C115.079 1339.57 118.773 1338.79 122.289 1337.41C131.145 1333.87 139.602 1328.22 146.767 1321.03C153.576 1314.16 159.095 1305.86 163.145 1296.42Z" fill="#FFCC99"/>
<path d="M251.556 1354.3C251.601 1352.48 251.645 1350.67 251.734 1348.85C251.757 1348.12 251.379 1347.43 250.711 1347.09C225.966 1333.94 202.511 1317.96 181.015 1299.56C180.525 1299.16 179.88 1299 179.257 1299.18C178.657 1299.36 178.167 1299.8 177.966 1300.43C173.494 1313.98 163.235 1326.11 159.03 1330.69C151.575 1338.88 138.712 1349.47 124.916 1354.59C124.315 1354.81 123.87 1355.33 123.714 1355.95C123.559 1356.57 123.759 1357.24 124.204 1357.68C149.528 1384.03 178.1 1405.53 209.098 1421.57L210.01 1422.02C210.367 1422.19 210.745 1422.37 211.079 1422.55C211.346 1422.71 211.657 1422.77 211.969 1422.77C212.058 1422.77 212.124 1422.77 212.213 1422.75C224.964 1421.13 245.304 1384.45 247.084 1380.56C251.156 1371.68 251.356 1362.85 251.556 1354.3Z" fill="#FFCC99"/>
<path d="M340.769 1381.32C330.422 1378.76 320.119 1375.82 310.172 1372.55C296.553 1368.03 283.157 1362.76 270.361 1356.84C269.783 1356.57 269.093 1356.62 268.537 1356.95C267.98 1357.29 267.646 1357.89 267.646 1358.53C267.424 1370.64 263.107 1383.61 259.146 1391.71C256.298 1397.54 245.95 1417.46 232.688 1429.52C232.198 1429.96 231.975 1430.61 232.087 1431.25C232.198 1431.9 232.621 1432.43 233.221 1432.68C261.616 1444.56 293.727 1453.57 331.356 1460.23C331.468 1460.25 331.579 1460.25 331.69 1460.25C332.38 1460.25 333.025 1459.87 333.359 1459.27C333.715 1458.65 334.36 1458.13 335.006 1458C335.473 1457.89 335.873 1457.62 336.141 1457.24C349.848 1437.73 352.185 1408.38 342.082 1382.48C341.859 1381.9 341.37 1381.47 340.769 1381.32Z" fill="#FFCC99"/>
<path d="M470.301 1393.04C469.923 1392.69 469.39 1392.49 468.856 1392.53C433.362 1394.96 397.424 1392.75 362.042 1385.97C361.397 1385.83 360.729 1386.06 360.284 1386.55C359.839 1387.04 359.661 1387.7 359.839 1388.35C361.374 1394 362.331 1400.72 362.665 1408.35C363.689 1429.74 360.195 1447.45 352.273 1461.03C351.961 1461.58 351.939 1462.25 352.206 1462.83C352.473 1463.41 353.03 1463.79 353.653 1463.9C361.397 1465.01 369.719 1466.12 379.066 1467.26C413.669 1471.37 447.715 1473.47 480.36 1473.47C481.74 1473.47 483.119 1473.47 484.477 1473.44C485.322 1473.44 486.079 1472.87 486.302 1472.04L486.858 1470.02C491.664 1452.59 495.826 1437.53 488.015 1418.68C484.321 1409.6 477.689 1400.03 470.301 1393.04Z" fill="#FFCC99"/>
<path d="M670.687 1415.77C667.416 1404.35 662.053 1394 654.777 1385.01C640.624 1367.66 625.492 1362.05 604.152 1358.24C603.751 1358.18 603.373 1358.22 602.995 1358.4C568.859 1374.53 531.43 1385.26 491.731 1390.26C491.019 1390.35 490.44 1390.82 490.173 1391.49C489.928 1392.16 490.062 1392.89 490.529 1393.42C493.178 1396.43 495.447 1399.39 497.116 1401.97C510.178 1422.42 513.16 1449.88 504.526 1470.31C504.282 1470.91 504.348 1471.6 504.704 1472.13C505.06 1472.64 505.661 1472.96 506.284 1472.96H506.351C512.537 1472.73 518.79 1472.44 525.021 1472.07C579.051 1468.71 628.786 1458.74 672.846 1442.42C673.692 1442.11 674.203 1441.27 674.07 1440.38C673.714 1437.71 673.469 1435.01 673.247 1432.32C672.78 1426.94 672.29 1421.31 670.687 1415.77Z" fill="#FFCC99"/>
<path d="M788.558 1252.38C774.761 1248.69 761.365 1250.07 748.392 1251.43C742.05 1252.09 735.508 1252.76 729.077 1252.81C728.454 1252.81 727.875 1253.12 727.519 1253.63C701.884 1290.9 668.549 1321.66 628.45 1345.04C627.805 1345.42 627.426 1346.16 627.515 1346.89C627.604 1347.63 628.116 1348.27 628.828 1348.49C642.38 1352.9 654.508 1361.71 661.339 1368.52C676.249 1383.39 691.203 1410.09 690.958 1432.34C690.958 1432.99 691.269 1433.59 691.803 1433.97C692.115 1434.17 692.493 1434.28 692.849 1434.28C693.116 1434.28 693.361 1434.23 693.606 1434.12C733.282 1416.9 767.73 1394.09 795.991 1366.32C815.084 1347.6 832.174 1325.8 846.794 1301.5C847.194 1300.85 847.15 1300.03 846.727 1299.43C831.284 1277.46 817.197 1260.04 788.558 1252.38Z" fill="#FFCC99"/>
<path d="M906.413 1073.3C902.763 1071.18 898.98 1069 894.73 1067.55C879.799 1062.39 863.042 1061.3 846.263 1064.39C832.022 1067.04 817.335 1072.89 801.357 1082.29C799.555 1083.35 797.797 1084.44 796.061 1085.53C791.343 1088.47 786.893 1091.25 781.998 1093.1C781.285 1093.37 780.796 1094.04 780.774 1094.79C778.326 1143.5 764.529 1191.1 740.896 1232.43C740.518 1233.09 740.563 1233.89 741.03 1234.52C741.475 1235.12 742.254 1235.41 742.989 1235.23C762.727 1230.6 785.558 1233.85 799.088 1238.05C822.409 1245.26 844.705 1261.49 855.899 1279.4C856.255 1279.96 856.855 1280.29 857.523 1280.29C857.523 1280.29 857.568 1280.29 857.613 1280.29C858.302 1280.27 858.925 1279.87 859.237 1279.25C888.277 1222.57 905.345 1155.19 909.951 1078.93L910.062 1076.59C910.085 1075.85 909.728 1075.19 909.083 1074.83C908.215 1074.34 907.325 1073.81 906.413 1073.3Z" fill="#FFCC99"/>
<path d="M869.536 851.389L864.686 848.518C852.513 841.13 841.988 834.744 825.61 834.009C810.077 833.253 792.854 835.767 774.495 841.464C758.339 846.471 742.651 854.17 726.54 864.963C724.36 866.409 722.246 868.145 720.02 869.97C717.572 871.972 715.036 874.042 712.454 875.688C712.009 875.978 711.698 876.445 711.609 876.979C711.52 877.513 711.653 878.047 711.987 878.492C755.135 933.034 779.657 1001.88 781.082 1072.36C781.104 1073.12 781.549 1073.78 782.239 1074.07C782.484 1074.16 782.728 1074.23 782.995 1074.23C783.463 1074.23 783.93 1074.05 784.286 1073.72C800.798 1058.58 830.75 1049.1 851.578 1046.7C864.173 1045.25 889.698 1045.77 908.412 1053.11C908.991 1053.33 909.659 1053.27 910.17 1052.91C910.682 1052.55 911.016 1051.98 911.016 1051.35C912.307 973.534 898.643 906.508 870.36 852.167C870.182 851.856 869.892 851.567 869.536 851.389Z" fill="#FFCC99"/>
<path d="M521.059 752.788C567.99 770.969 622.176 794.756 668.15 833.276C679.61 842.889 690.626 853.637 700.862 865.208C701.218 865.609 701.73 865.854 702.286 865.854C702.82 865.854 703.354 865.631 703.71 865.208C707.671 860.78 712.188 856.819 714.614 854.794C731.303 841.532 751.02 831.429 773.183 824.753C793.545 818.634 823.43 814.005 846.239 819.324C847.018 819.524 847.819 819.19 848.264 818.522C848.709 817.855 848.686 816.987 848.219 816.342C838.94 803.524 828.659 791.597 817.6 780.871C768.889 733.628 709.118 705.634 662.498 686.519C662.32 686.452 662.12 686.386 661.92 686.386C631.188 684.138 598.343 684.717 566.366 704.099C553.548 711.865 542.244 721.611 532.742 733.049C530.249 736.031 527.98 739.214 525.799 742.307C524.019 744.821 522.172 747.425 520.236 749.85C519.858 750.318 519.724 750.963 519.88 751.541C520.036 752.12 520.503 752.566 521.059 752.788Z" fill="#FFCC99"/>
<path d="M323.903 671.098C360.931 692.572 401.631 708.682 436.591 721.634C446.426 725.261 456.329 728.844 466.231 732.449C479.027 737.077 491.844 741.728 504.64 746.512C504.862 746.601 505.085 746.624 505.307 746.624C505.597 746.624 505.908 746.557 506.175 746.423C506.642 746.179 506.998 745.756 507.154 745.244C513.34 723.28 539.932 701.028 560.805 688.655C575.915 679.709 593.206 673.39 610.785 670.363C611.631 670.208 612.276 669.518 612.365 668.65C612.454 667.782 611.942 666.981 611.119 666.692C602.907 663.665 594.696 660.661 586.485 657.657C563.765 649.379 540.266 640.789 517.791 631.755C496.406 623.187 468.39 611.46 441.263 596.64C440.796 596.373 440.218 596.329 439.684 596.529C434.321 598.509 428.736 599.288 422.816 600.134C418.388 600.757 413.804 601.424 409.287 602.626C395.89 606.209 383.028 611.95 371.056 619.694C359.93 626.859 349.649 635.916 339.635 647.398C336.564 650.914 333.76 654.72 331.045 658.392C328.598 661.685 326.083 665.112 323.413 668.249C323.057 668.672 322.879 669.251 322.99 669.807C323.079 670.319 323.413 670.808 323.903 671.098Z" fill="#FFCC99"/>
<path d="M311.794 663.731C312.106 663.931 312.462 664.02 312.818 664.02C313.063 664.02 313.308 663.976 313.53 663.887C314.087 663.664 314.509 663.175 314.665 662.596C320.873 638.252 347.643 617.089 358.859 609.123C372.366 599.532 393.729 587.827 413.156 583.687C413.912 583.532 414.491 582.931 414.624 582.174C414.758 581.418 414.447 580.661 413.801 580.238C354.053 540.762 328.217 495.611 334.826 442.249C335.227 438.978 335.783 435.596 336.628 431.257C336.74 430.723 336.606 430.166 336.273 429.721C335.939 429.276 335.427 429.009 334.893 428.965C331.933 428.764 328.951 428.341 325.791 427.896C321.207 427.251 316.512 426.65 311.728 426.605C294.304 426.717 276.946 430.433 260.168 437.665C243.234 444.986 227.389 455.957 214.305 469.375C211.167 472.602 208.186 476.429 205.337 480.101C201.666 484.819 197.86 489.714 193.587 493.542C193.12 493.942 192.898 494.565 192.965 495.188C195.991 521.936 205.716 549.574 221.07 575.121C241.676 609.368 271.339 638.385 311.794 663.731Z" fill="#FFCC99"/>
<path d="M194.7 463.592C195.256 463.592 195.79 463.347 196.168 462.902C211.434 444.655 235.556 430.102 247.372 424.361C264.485 416.038 282.598 410.964 301.201 409.251C312.105 408.205 328.038 407.248 340.544 410.831C341.501 411.12 342.503 410.608 342.859 409.674C371.587 334.526 458.796 308.357 530.116 321.33C531.006 321.508 531.851 321.018 532.207 320.217C532.563 319.416 532.318 318.459 531.606 317.925C454.055 259.222 351.827 279.317 284.868 325.247C241.119 355.288 209.186 396.389 197.281 438.023C195.167 445.478 193.699 453.133 192.786 461.456C192.697 462.301 193.165 463.08 193.943 463.414C194.188 463.547 194.455 463.592 194.7 463.592Z" fill="#FFCC99"/>
<path d="M685.577 50.2456C626.673 36.1374 565.479 28.1486 505.018 24.922C446.916 21.8289 387.946 25.1444 332.469 43.948C133.975 111.196 2.81728 348.232 49.9264 551.511C71.6228 645.062 127.611 731.914 207.209 786.389C288.921 842.31 387.968 845.515 477.269 882.455C561.206 917.213 632.659 1001.48 604.109 1097.57C591.981 1138.43 561.829 1174.25 521.663 1189.7C473.397 1208.28 411.378 1202.47 364.224 1183.07C321.988 1165.67 285.45 1131.37 273.767 1086.13C268.427 1065.35 277.772 1023.56 253.539 1014.52C239.008 1009.12 220.271 1010.63 205.051 1009.94C190.097 1009.25 175.143 1008.83 160.144 1008.65C132.707 1008.27 103.177 1006.18 76.1845 1011.9C75.0051 1012.12 73.9369 1012.43 72.8243 1012.74C72.8688 1013.23 72.9357 1013.75 72.9357 1014.28C69.3975 1108.97 108.14 1201.63 175.521 1267.94C243.615 1334.92 338.834 1370.59 433.72 1372.35C519.282 1373.95 606.602 1349.61 669.51 1289.52C726.7 1234.85 761.459 1157.68 761.192 1078.3C760.925 996.633 725.631 915.7 666.194 859.712C601.15 798.406 513.051 772.125 431.205 741.839C354.211 713.334 273.678 678.664 221.585 612.395C176.144 554.627 154.737 476.163 186.714 407.046C217.534 340.355 283.469 289.663 353.432 270.125C420.502 251.389 509.201 258.976 553.373 319.059C553.862 319.749 554.218 320.461 554.441 321.151C556.355 323.132 557.312 325.846 556.088 328.895C537.974 373.044 548.611 421.288 575.314 459.63C606.513 504.336 657.182 528.368 709.321 539.294C758.499 549.553 817.847 553.937 867.248 542.655C896.577 535.934 918.296 519.467 928.288 490.472C937.1 465.037 941.061 437.132 944.51 410.54C951.497 355.977 951.386 299.343 934.741 246.426C899.781 135.207 792.568 75.8808 685.577 50.2456ZM321.855 156.725C312.464 155.924 284.894 148.403 293.884 133.716C302.317 119.897 352.52 118.228 352.297 139.924C352.141 154.856 333.137 157.704 321.855 156.725ZM368.497 82.8683C370.099 55.4084 426.02 46.9967 439.261 69.1382C449.831 86.7624 430.716 101.783 414.738 103.808C399.362 105.788 367.095 106.211 368.497 82.8683ZM445.158 180.936C425.865 183.139 390.327 179.645 392.129 153.165C394.421 119.941 462.248 106.701 476.467 137.098C486.57 158.772 465.519 178.577 445.158 180.936ZM470.971 82.6235C469.102 75.5248 472.106 67.7807 477.313 62.5513C482.453 57.3219 489.44 54.3178 496.495 52.2483C519.727 45.528 556.421 45.1053 566.034 72.7432C567.414 76.7042 567.904 81.021 567.481 85.1823C567.014 89.5216 565.545 93.7722 563.008 97.3104C557.623 104.943 548.277 108.837 539.086 110.506C519.103 114.245 497.585 108.993 481.563 96.4645C476.89 92.8596 472.507 88.3424 470.971 82.6235ZM576.65 184.608C574.78 190.06 569.662 193.798 564.277 195.934C553.484 200.251 540.667 199.139 530.786 192.997C527.515 191.017 524.489 188.368 522.775 184.986C521.062 181.559 520.817 177.198 522.931 173.993C524.266 171.902 526.447 170.455 528.628 169.253C539.42 163.334 559.915 158.883 570.663 167.05C574.446 169.921 576.961 174.482 577.295 179.111C577.45 180.98 577.273 182.85 576.65 184.608ZM681.437 370.04C654 373.089 626.229 350.925 623.18 323.487C618.374 280.562 660.498 259.889 692.876 269.012C710.566 273.975 725.387 287.816 728.013 311.805C731.084 339.264 708.875 366.992 681.437 370.04ZM841.591 285.212C824.345 297.385 798.376 293.847 783.912 278.47C771.45 265.23 767.689 244.445 774.766 227.644C781.441 211.845 793.391 203.344 806.276 201.097C827.26 197.47 850.714 210.376 858.035 235.433C863.265 253.302 856.856 274.487 841.591 285.212Z" fill="#72B84C"/>
<path d="M410.909 88.2534C415.604 87.6081 420.366 86.7624 422.325 84.2701C424.149 81.9781 424.661 79.8865 423.86 78.0618C422.792 75.6362 419.632 74.2567 414.202 73.8561C409.729 73.5001 405.413 74.1676 401.229 74.813C397.98 75.3248 394.909 75.7919 391.771 75.8364C391.593 75.8364 391.416 75.8586 391.238 75.9253C388.879 76.6374 383.36 78.2622 383.583 82.4902C383.627 83.3803 383.961 84.6708 385.34 85.828C388.322 88.298 394.998 88.8765 400.651 88.8765C405.613 88.8765 409.796 88.4315 409.885 88.4092L410.909 88.2534Z" fill="#FFBC57"/>
<path d="M546.583 89.6105C549.453 86.9624 550.499 83.3576 549.654 78.8848C548.029 70.184 537.638 67.2019 528.892 64.7541L526.979 64.5985C519.858 63.9755 512.492 63.3301 504.881 65.2661C498.628 66.8015 490.038 69.4049 487.858 74.345C486.723 76.9486 486.723 79.3964 487.836 81.644C490.684 87.4297 500.297 89.8775 505.46 91.1904L507.062 91.6132C510.467 92.5478 519.613 94.3948 528.581 94.3948C535.701 94.3725 542.644 93.2377 546.583 89.6105Z" fill="#FFBC57"/>
<path d="M548.432 174.593L547.475 174.638C543.87 175.305 539.776 176.062 536.238 177.82C535.77 178.065 535.392 178.488 535.258 178.999C535.103 179.511 535.192 180.067 535.459 180.512C537.862 184.473 542.001 185.564 545.695 186.142C546.028 186.187 547.498 186.298 549.523 186.298C553.773 186.298 560.382 185.809 563.23 183.294C564.588 182.092 564.832 180.757 564.788 179.823C564.565 174.059 553.662 174.415 548.432 174.593Z" fill="#FFBC57"/>
<path d="M454.39 138.098C446.936 134.449 430.98 133.537 419.965 138.032C414.424 140.302 410.686 143.751 409.173 148.023C407.793 151.918 408.149 155.256 410.196 157.993C414.625 163.845 426.196 164.98 434.452 164.98C436.722 164.98 438.724 164.891 440.282 164.802C447.981 164.312 460.577 157.77 462.201 149.67C462.847 146.465 462.001 141.859 454.39 138.098Z" fill="#FFBC57"/>
<path d="M328.616 132.914L327.637 132.535C327.237 132.335 326.769 132.269 326.346 132.38C324.788 132.736 323.186 133.003 321.584 133.292C319.448 133.648 317.245 134.026 315.064 134.627L313.885 134.939C309.056 136.163 305.874 136.964 306.43 139.545C306.92 141.637 309.768 142.594 315.598 143.84L316.488 144.04C316.6 144.062 322.831 145.353 328.705 145.353C333.178 145.353 337.45 144.596 338.607 141.926C339.097 140.769 339.097 139.59 338.563 138.499C337.206 135.606 332.711 134.093 328.616 132.914Z" fill="#FFBC57"/>
<path opacity="0.1" d="M539.687 617.402C486.436 596.885 427.377 573.675 387.389 531.172C347.445 488.759 344.997 427.563 383.606 383.08C418.587 342.78 473.93 332.299 524.488 341.557C526.825 323.977 526.046 306.375 518.547 289.307C506.441 261.781 477.78 249.074 449.43 245.536C388.101 237.903 315.691 261.024 274.612 307.955C201.49 391.514 203.537 504.224 263.352 594.481C319.54 679.287 408.017 716.293 496.806 757.327C578.451 795.045 648.992 843.245 690.36 925.647C720.424 985.529 729.213 1052.96 712.791 1118.13C677.587 1257.68 551.347 1361.82 431.85 1430.32C398.916 1449.21 364.713 1466.26 329.598 1481.05C357.525 1485.97 385.809 1489.13 413.825 1491.4C465.251 1495.61 517.167 1495.36 568.371 1488.73C666.572 1476.02 763.55 1438.06 829.507 1361.58C898.713 1281.25 927.063 1173.7 931.936 1069.67C936.899 963.455 915.848 850.722 839.387 772.036C758.966 689.212 644.163 657.679 539.687 617.402Z" fill="#592639"/>
<path opacity="0.15" d="M834.913 86.4729C789.317 57.5666 736.711 38.2289 684.818 26.3681C626.115 12.9497 565.098 5.0054 504.993 1.801C446.179 -1.35889 385.852 2.11243 329.508 20.5377C227.457 53.9836 141.272 132.958 86.3741 223.906C32.8117 312.561 6.53163 418.818 21.0182 522.004C33.2572 609.035 73.957 692.304 135.286 755.391C102.485 659.236 81.5451 557.208 93.7396 457.249C100.349 403.085 117.862 350.035 150.173 305.618C185.844 256.573 235.779 221.102 291.144 197.336C358.281 168.518 438.658 149.76 512.003 157.526C549.232 161.465 583.679 174.505 611.451 200.073C636.485 223.105 639.111 249.763 644.563 281.362C650.193 313.962 666.326 352.972 700.862 363.609C734.041 373.823 773.028 358.112 803.314 345.317C858.723 321.93 887.051 277.869 879.707 217.653C874.033 170.544 856.297 127.841 834.913 86.4729Z" fill="#FFFCFC"/>
<path opacity="0.15" d="M402.164 1171.18C343.039 1157.52 294.438 1115.6 292.68 1052.2C292.146 1032.24 290.477 1010.12 271.963 998.212C250.511 984.438 218.067 987.642 193.878 986.774C161.79 985.595 129.257 984.749 97.1681 986.619C75.8055 987.887 53.063 991.47 35.9506 1005.31C20.4849 1017.84 12.2734 1037.55 8.08984 1059.05C14.9882 1095.37 25.7362 1130.93 42.5148 1163.88C89.2679 1255.7 188.404 1319.96 293.37 1308.17C374.771 1299.02 439.66 1246.09 476.065 1176.35C451.632 1179.1 426.019 1176.7 402.164 1171.18Z" fill="#FFFCFC"/>
<path opacity="0.3" d="M264.709 421.333C254.472 481.482 277.015 541.32 324.19 580.329C374.259 621.719 439.059 637.385 500.922 651.738C598.878 674.48 715.283 705.367 799.198 762.802C808.01 768.832 817.601 755.614 810.391 748.293C775.009 712.421 728.145 691.838 680.568 674.325C651.818 662.264 622.222 651.849 594.005 641.279C536.037 619.605 475.909 599.333 421.768 569.225C390.147 551.623 355.7 529.726 338.098 497.349C341.058 494.589 342.838 490.339 342.104 485.777C337.631 458.228 335.962 434.284 347.556 407.959C354.743 391.626 364.513 377.517 371.878 361.874C372.368 361.495 372.813 361.095 373.302 360.739C394.131 345.273 421.101 336.438 446.825 334.213C461.913 332.9 477.223 334.413 492.154 333.056C504.66 331.921 518.657 332.389 529.45 325.223C534.056 322.175 537.328 316.166 535.414 310.536C526.201 283.254 490.018 274.509 464.649 271.972C433.051 268.812 400.251 275.266 371.3 287.794C316.602 311.426 274.789 362.096 264.709 421.333Z" fill="#592642"/>
<path opacity="0.3" d="M460.401 875.067C460.334 878.472 461.825 881.854 465.274 883.701C486.236 894.805 508.912 902.349 529.073 915.033C551.036 928.852 560.961 946.61 572.777 968.974C581.901 986.22 592.092 1004.84 595.675 1024.43C611.363 1046.64 602.018 1077.46 585.105 1102.98C577.206 1130.42 560.538 1157.92 541.846 1170.09C542.692 1170.85 543.604 1171.56 544.628 1172.12C588.354 1196.33 644.654 1163.35 670.912 1127.21C702.488 1083.75 701.621 1024.12 680.325 976.54C631.747 867.968 501.724 843.913 397.626 825.644C330.889 813.916 262.64 803.613 198.775 780.225C188.427 776.442 181.93 792.598 191.343 797.85C246.574 828.626 306.345 843.958 368.03 856.086C398.36 862.027 429.692 867.501 460.401 875.067Z" fill="#592642"/>
<path opacity="0.3" d="M892.768 928.363C889.029 988.78 874.231 1045.19 857.074 1103.05C840.385 1159.26 818.421 1213.78 782.416 1260.62C711.986 1352.26 605.596 1402.99 495.222 1428.2C422.3 1444.87 349.755 1443.25 275.609 1439.02C264.995 1438.42 263.348 1454.33 273.162 1457.18C347.508 1478.74 428.441 1484.5 506.593 1473.73C507.884 1475.89 509.931 1477.56 512.646 1478.05C540.44 1483.15 568.456 1477.98 595.248 1469.57C599.855 1469.73 604.461 1469.73 609.022 1469.53C632.655 1468.46 657.111 1463.32 679.43 1455.55C722.845 1440.47 761.766 1412.03 793.097 1378.74C826.12 1343.67 850.91 1302.21 869.469 1257.93C884.668 1221.68 900.422 1180.31 902.336 1139.72C920.65 1070.69 916.711 999.105 913.151 928.341C912.461 915.234 893.591 915.279 892.768 928.363Z" fill="#592642"/>
<path opacity="0.3" d="M969.81 294.582C968.987 280.34 949.761 280.963 948.114 294.582C939.235 367.615 914.757 462.879 840.766 495.725C805.207 511.502 763.905 509.699 726.031 506.139C683.862 502.178 635.529 498.305 597.054 479.546C586.551 474.428 578.006 488.781 587.864 495.279C649.86 536.024 735.066 560.791 811.215 547.173C837.184 562.594 881.934 540.052 905.255 527.701C934.985 511.969 956.481 480.37 946.779 446.056C947.179 445.277 947.58 444.52 947.98 443.764C971.501 396.41 972.792 346.275 969.81 294.582Z" fill="#592642"/>
<path opacity="0.5" d="M359.326 1163C305.674 1137.45 299.6 1081.73 275.456 1033.82C263.617 1010.34 241.231 1001.17 215.974 1000.55C187.245 999.838 157.961 1002.69 129.188 1004.62C88.4879 996.478 39.5759 1002.78 26.4912 1048.22C19.8377 1071.29 21.7295 1098.11 22.9979 1121.76C24.4666 1148.89 28.739 1175.77 35.0588 1202.16C35.7708 1205.14 37.7959 1207.01 40.2437 1207.9C43.5594 1221.92 47.632 1235.74 52.4831 1249.25C72.5106 1305.04 105.756 1356.62 150.528 1395.72C159.229 1403.33 170.89 1391.71 163.212 1383.03C123.18 1337.68 92.8494 1285.47 76.1375 1227.13C67.6592 1197.53 62.8305 1167.11 62.0516 1136.31C61.4063 1111.41 59.0918 1074.23 75.1583 1053.51C85.8174 1039.78 104.354 1039.45 120.287 1038.56C137.422 1037.6 154.578 1036.91 171.735 1036.07C187.201 1035.31 203.468 1033.15 218.978 1034.46C239.874 1036.22 244.969 1047.86 251.333 1065.86C268.868 1115.4 301.714 1160.75 351.604 1181.35C362.041 1185.67 369.584 1167.87 359.326 1163Z" fill="#FFF7F7"/>
<path opacity="0.5" d="M818.182 84.3362C800.558 70.94 782.844 56.7652 762.038 48.7319C737.983 39.4525 712.481 33.4218 687.179 28.7043C587.576 10.1677 479.806 7.92014 380.426 29.0825C313.222 39.7861 248.667 62.5063 193.369 104.787C103 173.859 56.314 292.555 34.4396 400.97C33.772 404.308 34.5732 407.068 36.1754 409.137C35.1517 416.525 34.3502 423.958 33.8162 431.501C26.228 538.804 61.6768 642.836 125.921 728.22C127.411 730.223 129.259 731.358 131.128 731.87C142.432 749.471 154.782 766.361 168.467 782.249C177.413 792.641 191.254 777.821 183.243 767.473C150.532 725.193 125.453 679.487 104.714 631.621C86.4218 579.549 73.8714 525.453 72.8923 470.355C71.3568 382.078 110.388 294.558 157.787 221.791C261.062 63.1735 467.344 44.7708 639.425 65.7774C665.483 68.9595 691.319 73.9666 716.709 80.5756C728.103 83.5353 739.273 87.1179 750.488 90.5893C761.414 93.9717 772.385 94.7284 783.311 97.599C831.333 110.216 867.85 140.191 901.118 176.173C907.482 183.049 920.255 173.659 914.358 165.96C887.521 130.711 852.718 110.594 818.182 84.3362Z" fill="#FFF7F7"/>
<path opacity="0.5" d="M589.6 339.798C588.198 292.733 551.926 266.008 510.491 251.788C492.934 245.758 475.31 242.242 457.752 240.818C407.105 231.56 350.027 242.909 306.99 263.827C246.485 293.223 199.264 348.343 181.707 413.321C178.035 426.895 196.995 431.101 202.113 418.951C217.668 381.945 241.389 348.454 271.675 322.507C341.237 283.009 424.284 255.282 501.724 286.703C518.636 293.579 540.377 303.704 548.077 321.55C554.552 336.526 550.391 354.44 547.676 369.773C542.38 399.68 540.31 437.109 554.263 464.97C560.271 476.986 581.478 468.441 576.293 455.668C567.436 433.816 572.666 415.702 580.477 394.718C586.796 377.85 590.157 357.845 589.6 339.798Z" fill="#FFF7F7"/>
<path opacity="0.5" d="M611.159 780.738C544.98 751.319 476.552 722.302 404.231 713.067C393.794 711.732 392.326 728.154 401.806 730.958C466.739 750.118 529.336 774.596 590.909 802.679C625.579 818.5 660.427 835.769 691.158 858.444C691.536 859.334 692.026 860.202 692.716 861.003C726.451 900.057 750.195 942.671 762.523 992.984C769.243 1020.44 771.446 1048.64 770.422 1076.86C769.376 1105.78 760.92 1134.4 762.968 1163.29C763.168 1166.31 764.303 1168.89 765.994 1170.89C757.382 1188.32 747.101 1205.01 735.463 1220.79C728.231 1230.6 743.831 1241.97 752.086 1233.6C842.989 1141.41 843.3 990.47 765.86 890.221C726.273 838.973 669.373 806.618 611.159 780.738Z" fill="#FFF7F7"/>
<path d="M539.107 110.506C548.298 108.837 557.644 104.943 563.029 97.3101C565.544 93.7719 567.035 89.5213 567.502 85.182C567.925 81.0208 567.435 76.7039 566.055 72.7429C556.442 45.1273 519.747 45.5499 496.516 52.248C489.461 54.3175 482.474 57.3216 477.334 62.551C472.149 67.7804 469.122 75.5245 470.992 82.6232C472.527 88.3421 476.911 92.8593 481.607 96.4643C497.606 108.993 519.124 114.244 539.107 110.506ZM489.64 75.0794C491.62 70.5843 501.322 68.092 505.35 67.1129C513.316 65.0879 521.038 66.0003 528.738 66.6456C537.394 69.1157 546.406 71.8304 547.764 79.2406C551.347 98.0887 515.498 91.9471 507.598 89.7663C502.48 88.3421 485.323 85.0709 489.64 75.0794Z" fill="#3D2938"/>
<path d="M392.127 153.164C390.324 179.645 425.862 183.16 445.155 180.935C465.517 178.576 486.59 158.771 476.487 137.097C462.245 106.7 394.419 119.941 392.127 153.164ZM440.148 162.889C430.869 163.467 405.746 163.467 410.975 148.669C415.626 135.495 443.086 134.694 453.544 139.812C471.013 148.446 451.164 162.199 440.148 162.889Z" fill="#3D2938"/>
<path d="M414.737 103.809C430.714 101.784 449.829 86.7632 439.259 69.139C426.019 47.0197 370.098 55.4091 368.495 82.869C367.093 106.212 399.36 105.789 414.737 103.809ZM385.474 82.4015C385.363 80.154 388.189 78.8188 391.772 77.7507C399.249 77.6839 406.503 75.1473 414.047 75.7704C418.208 76.0819 425.462 77.2835 420.834 83.0914C418.964 85.4502 412.356 86.0957 409.574 86.5185C405.591 87.0971 385.741 88.1204 385.474 82.4015Z" fill="#3D2938"/>
<path d="M570.659 167.051C559.911 158.884 539.416 163.357 528.623 169.254C526.443 170.433 524.284 171.88 522.927 173.994C520.835 177.198 521.057 181.559 522.771 184.986C524.484 188.391 527.489 191.017 530.782 192.998C540.662 199.139 553.48 200.252 564.273 195.935C569.658 193.799 574.776 190.06 576.645 184.608C577.246 182.85 577.446 180.981 577.29 179.111C576.957 174.483 574.442 169.921 570.659 167.051ZM546.003 184.252C542.732 183.763 539.104 182.828 537.079 179.512C540.284 177.91 544.067 177.198 547.805 176.508C550.698 176.442 562.715 175.752 562.87 179.913C563.093 184.831 548.028 184.608 546.003 184.252Z" fill="#3D2938"/>
<path d="M293.883 133.717C284.892 148.404 312.463 155.925 321.854 156.726C333.136 157.727 352.14 154.857 352.296 139.947C352.519 118.229 302.316 119.898 293.883 133.717ZM336.853 141.149C335.139 145.11 319.34 142.685 316.892 142.15C315.245 141.772 308.614 140.593 308.28 139.102C308.08 138.234 313.42 137.032 315.557 136.476C319.251 135.475 323.1 135.096 326.772 134.273C326.995 134.384 327.195 134.496 327.417 134.585C330.243 135.386 338.455 137.455 336.853 141.149Z" fill="#3D2938"/>
<path d="M1013.16 710.73C991.575 710.24 976.999 703.786 968.409 682.602C961.889 666.469 958.596 648.578 954.19 631.821C949.339 613.463 944.465 595.127 939.392 576.857C935.854 564.039 932.716 549.954 925.017 538.983C928.844 535.356 932.427 531.395 935.631 526.9C951.586 504.736 956.727 476.742 961.533 450.417C966.407 423.869 969.967 396.966 971.347 369.951C974.195 314.786 967.609 258.642 944.688 207.928C898.113 105.009 789.964 50.4011 684.887 26.3681C626.184 12.9497 565.167 5.0054 505.062 1.801C446.248 -1.35889 385.921 2.11243 329.577 20.5377C227.526 53.9836 141.341 132.958 86.4429 223.906C32.8805 312.561 6.60044 418.818 21.087 522.004C34.6612 618.603 83.2391 710.663 156.25 775.508C192.522 807.752 234.335 832.608 280.042 848.875C327.774 865.854 377.887 874.555 426.376 888.885C475.332 903.394 524.801 924.89 556.311 966.859C591.025 1013.06 598.702 1077.14 565.389 1126.21C529.117 1179.62 460.446 1184.65 402.188 1171.18C343.062 1157.52 294.462 1115.6 292.704 1052.2C292.17 1032.24 290.501 1010.12 271.987 998.213C250.535 984.439 218.091 987.643 193.902 986.775C161.813 985.596 129.28 984.75 97.1911 986.62C75.8284 987.888 53.0866 991.471 35.9742 1005.31C1.90525 1032.91 2.8619 1095.23 5.15394 1135.02C7.86877 1181.8 19.9073 1227.53 39.5565 1269.99C79.6115 1356.44 151.8 1425.13 241.412 1458.02C296.42 1478.25 355.702 1486.71 413.893 1491.45C465.319 1495.65 517.234 1495.41 568.438 1488.77C666.639 1476.07 763.617 1438.11 829.575 1361.62C898.781 1281.29 927.131 1173.74 932.004 1069.71C936.966 963.498 915.915 850.766 839.455 772.08C759.033 689.211 644.253 657.701 539.754 617.424C486.503 596.907 427.445 573.697 387.456 531.194C347.513 488.781 345.065 427.586 383.674 383.102C420.569 340.6 480.072 331.208 532.767 343.225C509.735 426.873 571.175 511.389 648.081 544.078C698.239 565.396 753.67 570.849 807.744 570.626C833.379 570.515 861.841 569.336 886.942 561.013C889.279 563.372 891.971 565.486 894.953 568C903.809 575.544 911.286 583.911 916.894 594.125C929.378 616.89 930.468 644.105 927.264 669.361C923.681 697.6 903.498 761.31 943.242 773.927C948.783 775.685 952.632 770.278 951.831 765.382C949.761 752.987 942.908 742.64 942.173 729.822C941.417 716.56 944.51 703.453 946.869 690.524C946.935 690.146 946.98 689.789 947.069 689.411C952.209 702.874 959.775 715.625 972.059 723.592C986.056 732.671 1006.19 735.986 1017.68 721.455C1020.9 717.316 1019.03 710.863 1013.16 710.73ZM27.8739 1137.29C26.3162 1114.33 27.1397 1091.25 30.7669 1068.55C33.7043 1050.24 38.8891 1035.02 50.0377 1024.65C49.7707 1058.61 54.6219 1091.67 63.7678 1123.18C59.2282 1125.74 55.1116 1130.08 51.1284 1132.6C45.8322 1136 40.5132 1137.78 34.8388 1138.78C33.4591 1136.65 30.8339 1135.47 28.208 1137.09C28.0968 1137.18 27.9852 1137.23 27.8739 1137.29ZM54.9334 1241.95C54.0878 1240.61 52.6416 1239.74 51.0394 1239.43C47.0784 1229.29 43.5175 1218.94 40.5133 1208.46C35.9738 1192.64 32.5469 1176.41 30.2549 1160.01C42.7164 1159.66 55.9345 1154.2 65.1694 1146.31C66.0818 1145.5 67.7512 1143.59 69.5537 1141.14C77.498 1163.89 87.7119 1185.67 99.9509 1206.3C99.4169 1207.17 98.8827 1208.06 98.3041 1208.97C94.4544 1215.11 90.1814 1220.92 84.9075 1225.99C79.7226 1231 73.648 1235.14 67.128 1238.16C64.3019 1239.46 61.2529 1240.83 58.2487 1241.41C57.1806 1241.88 56.0683 1241.99 54.9334 1241.95ZM109.853 1338.72C90.3595 1315.45 73.8704 1289.64 60.8748 1262.2C73.9594 1259.99 87.8451 1249.83 96.1677 1242.13C100.752 1237.9 106.782 1231.38 111.21 1224.12C126.632 1247.04 144.59 1268.27 164.728 1287.37C163.616 1290.1 162.592 1292.91 161.413 1295.64C157.563 1304.66 152.289 1312.73 145.391 1319.68C138.604 1326.46 130.504 1332.05 121.536 1335.63C117.798 1337.12 113.792 1337.9 109.853 1338.72ZM211.971 1420.86C211.326 1420.53 210.636 1420.21 209.946 1419.86C178.392 1403.52 150.042 1381.83 125.564 1356.35C139.183 1351.28 152.378 1340.79 160.434 1331.94C167.221 1324.55 175.855 1312.91 179.771 1301.01C201.178 1319.32 224.677 1335.41 249.823 1348.76C249.356 1359.02 250.09 1369.39 245.35 1379.78C242.168 1386.79 222.697 1419.48 211.971 1420.86ZM334.606 1456.15C333.427 1456.42 332.314 1457.26 331.713 1458.36C298.289 1452.44 265.177 1443.98 233.979 1430.92C246.04 1419.97 256.143 1402.19 260.883 1392.53C264.977 1384.19 269.361 1370.84 269.583 1358.55C282.557 1364.54 295.909 1369.81 309.594 1374.35C319.697 1377.67 329.955 1380.6 340.347 1383.16C349.404 1406.44 349.159 1435.43 334.606 1456.15ZM484.479 1471.48C449.342 1471.69 414.204 1469.46 379.289 1465.3C370.856 1464.27 362.4 1463.16 353.922 1461.94C363.157 1446.09 365.448 1426.69 364.558 1408.22C364.291 1402.19 363.579 1394.8 361.665 1387.81C397.07 1394.6 433.319 1396.85 468.968 1394.42C476.757 1401.79 482.965 1411.4 486.259 1419.37C494.136 1438.33 489.397 1453.59 484.479 1471.48ZM524.889 1470.19C518.659 1470.57 512.451 1470.84 506.264 1471.06C515.61 1448.96 511.226 1420.5 498.698 1400.94C497.051 1398.38 494.737 1395.34 491.956 1392.18C530.898 1387.26 568.794 1376.69 603.82 1360.13C623.269 1363.6 638.957 1368.63 653.288 1386.23C660.498 1395.11 665.683 1405.26 668.865 1416.3C671.179 1424.35 671.068 1432.59 672.181 1440.66C625.183 1458.07 574.669 1467.1 524.889 1470.19ZM794.682 1364.98C764.997 1394.13 730.282 1416.14 692.853 1432.39C693.12 1408.84 677.366 1381.83 662.679 1367.19C654.779 1359.33 642.34 1350.9 629.411 1346.69C668.131 1324.1 702.355 1293.6 729.103 1254.72C748.641 1254.57 767.89 1248.8 788.073 1254.23C816.156 1261.75 829.841 1278.73 845.173 1300.54C831.154 1323.86 814.443 1345.6 794.682 1364.98ZM908.06 1078.81C903.943 1146.95 888.945 1217.11 857.546 1278.38C844.84 1258.04 820.918 1242.79 799.667 1236.23C784.068 1231.38 761.525 1228.91 742.566 1233.38C767.222 1190.3 780.307 1142.77 782.688 1094.9C789.586 1092.3 795.617 1087.91 802.337 1083.95C816.156 1075.83 830.798 1069.22 846.62 1066.28C862.375 1063.39 878.886 1064.1 894.107 1069.38C899.226 1071.14 903.721 1074.03 908.149 1076.52C908.127 1077.3 908.082 1078.06 908.06 1078.81ZM868.672 853.081C899.849 912.985 910.263 982.903 909.106 1051.35C890.325 1043.99 864.623 1043.3 851.338 1044.83C832.156 1047.04 800.824 1055.98 782.977 1072.34C781.575 1002.4 757.609 933.123 713.459 877.314C718.466 874.109 723.072 869.57 727.568 866.544C742.299 856.664 758.054 848.541 775.033 843.267C791.21 838.26 808.523 835.1 825.502 835.901C843.215 836.702 853.541 844.113 867.961 852.725C868.228 852.858 868.45 852.969 868.672 853.081ZM661.811 688.276C718.199 711.397 772.051 739.324 816.312 782.25C827.683 793.265 837.763 805.059 846.709 817.454C822.298 811.735 790.943 817.409 772.652 822.905C751.333 829.314 730.928 839.395 713.437 853.281C712.948 853.704 707.229 858.443 702.289 863.918C692.186 852.502 681.237 841.754 669.377 831.807C625.65 795.179 574.424 771.413 521.729 751.007C526.046 745.6 529.74 739.592 534.213 734.251C543.604 722.969 554.841 713.311 567.37 705.723C597.144 687.676 628.076 685.806 661.811 688.276ZM517.057 633.512C547.543 645.751 579.053 656.856 610.451 668.449C592.493 671.543 574.98 678.018 559.826 686.986C541.178 698.046 512.094 720.632 505.307 744.71C482.61 736.231 459.8 728.153 437.258 719.831C399.451 705.834 360.464 690.079 324.882 669.429C330.556 662.753 335.296 655.231 341.104 648.6C350.227 638.141 360.442 628.773 372.124 621.251C383.762 613.73 396.424 608.011 409.82 604.428C420.012 601.713 430.605 601.869 440.374 598.286C466.254 612.439 493.268 623.966 517.057 633.512ZM412.758 581.819C392.508 586.136 371.034 598.153 357.749 607.566C340.659 619.694 318.495 639.81 312.799 662.13C276.816 639.588 245.083 611.393 222.719 574.12C208.3 550.131 198.041 522.849 194.881 494.966C202.692 487.979 208.656 477.943 215.71 470.711C228.594 457.471 244.015 446.745 260.949 439.424C276.971 432.526 294.284 428.631 311.775 428.52C319.474 428.475 327.307 430.345 334.784 430.879C334.05 434.529 333.404 438.2 332.959 442.027C325.171 504.758 363.512 549.263 412.758 581.819ZM341.082 409.005C328.309 405.333 312.197 406.29 301.026 407.358C282 409.116 263.753 414.3 246.552 422.667C232.599 429.41 209.368 444.186 194.703 461.699C195.549 453.91 196.951 446.211 199.132 438.578C212.172 392.915 247.397 353.306 285.961 326.847C357.905 277.49 458.732 265.207 530.452 319.481C454.415 305.618 368.965 336.06 341.082 409.005ZM867.271 542.633C817.87 553.915 758.499 549.531 709.342 539.272C657.182 528.368 606.535 504.335 575.336 459.607C548.633 421.266 537.996 372.999 556.11 328.872C557.334 325.823 556.377 323.109 554.463 321.128C554.241 320.438 553.885 319.704 553.395 319.037C509.223 258.954 420.524 251.366 353.454 270.103C283.492 289.641 217.557 340.332 186.737 407.024C154.759 476.141 176.166 554.626 221.606 612.372C273.722 678.641 354.255 713.311 431.228 741.817C513.096 772.103 601.172 798.383 666.217 859.69C725.654 915.7 760.947 996.611 761.214 1078.28C761.481 1157.68 726.722 1234.85 669.532 1289.5C606.624 1349.58 519.304 1373.93 433.742 1372.33C338.857 1370.57 243.637 1334.9 175.544 1267.92C108.185 1201.6 69.4199 1108.94 72.958 1014.26C72.958 1013.72 72.8912 1013.23 72.8467 1012.72C73.9593 1012.41 75.0275 1012.12 76.2069 1011.88C103.222 1006.16 132.751 1008.25 160.167 1008.63C175.165 1008.83 190.119 1009.23 205.073 1009.92C220.294 1010.61 239.03 1009.07 253.561 1014.5C277.795 1023.54 268.448 1065.33 273.789 1086.11C285.472 1131.35 322.011 1165.64 364.247 1183.04C411.4 1202.47 473.419 1208.26 521.685 1189.68C561.852 1174.23 592.004 1138.41 604.131 1097.55C632.659 1001.46 561.206 917.191 477.291 882.432C387.991 845.515 288.943 842.31 207.231 786.366C127.611 731.892 71.6452 645.017 49.9488 551.489C2.83966 348.187 133.997 111.173 332.492 43.9256C387.968 25.122 446.938 21.8061 505.04 24.8992C565.501 28.1481 626.696 36.1146 685.599 50.2229C792.613 75.8581 899.804 135.184 934.786 246.381C951.408 299.298 951.542 355.931 944.554 410.495C941.127 437.087 937.144 464.97 928.332 490.427C918.318 519.445 896.6 535.912 867.271 542.633Z" fill="#3D2938"/>
<path d="M692.896 269.034C660.496 259.911 618.393 280.583 623.2 323.509C626.248 350.947 654.02 373.111 681.458 370.062C708.895 367.013 731.081 339.264 728.032 311.849C725.384 287.838 710.587 273.997 692.896 269.034Z" fill="#3D2938"/>
<path d="M806.273 201.075C793.388 203.323 781.438 211.824 774.762 227.623C767.708 244.402 771.447 265.208 783.908 278.449C798.373 293.825 824.342 297.364 841.588 285.191C856.853 274.466 863.262 253.303 858.032 235.412C850.711 210.355 827.257 197.47 806.273 201.075Z" fill="#3D2938"/>
</g>
<defs>
<filter id="filter0_d_403_14554" x="0.193359" y="0.764648" width="1023.05" height="1501.48" filterUnits="userSpaceOnUse" color-interpolation-filters="sRGB">
<feFlood flood-opacity="0" result="BackgroundImageFix"/>
<feColorMatrix in="SourceAlpha" type="matrix" values="0 0 0 0 0 0 0 0 0 0 0 0 0 0 0 0 0 0 127 0" result="hardAlpha"/>
<feOffset dy="4"/>
<feGaussianBlur stdDeviation="2"/>
<feComposite in2="hardAlpha" operator="out"/>
<feColorMatrix type="matrix" values="0 0 0 0 0 0 0 0 0 0 0 0 0 0 0 0 0 0 0.25 0"/>
<feBlend mode="normal" in2="BackgroundImageFix" result="effect1_dropShadow_403_14554"/>
<feBlend mode="normal" in="SourceGraphic" in2="effect1_dropShadow_403_14554" result="shape"/>
</filter>
</defs>
</svg>
