<svg width="1410" height="1503" viewBox="0 0 1410 1503" fill="none" xmlns="http://www.w3.org/2000/svg">
<g filter="url(#filter0_d_403_14595)">
<path d="M854.15 30.4168C853.438 30.4391 852.793 30.8621 852.482 31.5519C852.17 32.2418 852.281 33.0203 852.726 33.6211C855.352 37.0258 857.866 40.6978 860.292 44.2582C862.695 47.7742 864.965 51.0897 867.324 54.1605C869.883 57.4984 872.487 61.0366 875.135 64.6638C884.593 77.5704 894.384 90.8998 906.022 100.001C910.606 103.584 915.168 105.409 919.596 105.409C921.176 105.409 922.733 105.186 924.269 104.719C940.58 99.89 951.418 70.9838 960.986 45.5044C962.967 40.2082 964.88 35.1121 966.727 30.5503C966.972 29.9272 966.906 29.2373 966.55 28.681C966.193 28.1247 965.592 27.8357 964.947 27.8135L854.15 30.4168Z" fill="#402F38"/>
<path d="M1178.66 347.074C1173.97 345.116 1170.45 342.112 1166.4 338.641C1164.67 337.15 1162.86 335.614 1160.88 334.057C1152.85 327.848 1144.02 322.196 1134.67 317.233C1120.67 309.756 1099.2 300.366 1076.28 298.051C1062.95 296.694 1053.4 299.52 1047.91 306.441C1036.38 320.95 1044.55 350.034 1051.76 375.692C1054.05 383.858 1056.23 391.602 1057.54 398.145C1057.72 399.057 1058.5 399.703 1059.39 399.703C1059.43 399.703 1059.48 399.703 1059.54 399.703C1062.57 399.458 1065.6 399.235 1068.65 398.945L1073.63 398.456C1101.4 395.764 1130.13 392.959 1157.61 386.773C1176.13 382.59 1179.73 371.819 1179.89 353.394V348.877C1179.84 348.098 1179.38 347.364 1178.66 347.074Z" fill="#402F38"/>
<path d="M994.679 390.29C993.343 388.287 991.986 386.239 990.518 384.237C989.249 382.523 987.981 380.743 986.69 378.94C978.702 367.836 969.667 355.241 957.695 347.987C946.769 341.378 935.308 340.621 926.229 345.94C917.039 351.325 911.632 362.073 911.387 375.38C911.298 380.854 912.677 386.329 914.012 391.625C914.925 395.274 915.793 398.701 916.215 402.106C916.327 403.063 917.105 403.797 918.04 403.819C930.524 404.131 942.585 404.309 954.357 404.309C970.245 404.309 985.6 404.02 1000.73 403.441C1001.49 403.419 1002.13 402.929 1002.42 402.195C1002.71 401.461 1002.53 400.637 1002 400.081C999.352 397.299 997.082 393.894 994.679 390.29Z" fill="#402F38"/>
<path d="M633.203 35.602C632.468 35.6242 631.801 36.0915 631.512 36.8036C631.222 37.5157 631.356 38.3391 631.868 38.9177C636.251 43.8578 640.079 49.7324 643.773 55.4069C645.531 58.0995 647.244 60.7255 648.913 63.1065C651.917 67.4236 654.81 71.8963 657.859 76.6138C666.27 89.6317 674.949 103.117 686.276 112.908C691.839 117.715 697.313 120.14 702.609 120.14C704.144 120.14 705.68 119.94 707.193 119.517C724.751 114.733 736.211 83.6457 746.314 56.2303C749.095 48.6866 751.721 41.5434 754.28 35.602C754.547 34.9789 754.48 34.267 754.124 33.7107C753.768 33.1543 753.167 32.865 752.499 32.8428C713.691 33.7329 674.837 34.6451 636.028 35.5575L633.203 35.602Z" fill="#402F38"/>
<path d="M528.679 38.0508L440.247 40.0979C432.459 40.2537 424.714 40.4097 416.97 40.61C416.191 40.6322 415.524 41.1216 415.257 41.8782C414.99 42.6348 415.168 43.4806 415.724 44.0146C420.464 48.621 424.87 53.9392 429.121 59.1019C431.435 61.9057 433.727 64.6872 436.063 67.3353C438.555 70.1614 441.337 73.8333 444.319 77.7276C454.822 91.5243 467.907 108.681 482.238 109.393C482.527 109.415 482.794 109.415 483.083 109.415C498.616 109.415 508.363 87.5633 515.528 71.5413C517.086 68.0476 518.576 64.7319 519.912 62.0838C521.247 59.458 522.493 56.7432 523.717 54.0283C525.808 49.3775 527.789 44.9937 530.326 41.1217C530.726 40.5208 530.771 39.7199 530.437 39.0745C530.036 38.4292 529.392 38.0508 528.679 38.0508Z" fill="#402F38"/>
<path d="M300.348 405.31C304.843 405.244 308.716 405.199 311.898 405.333C327.007 405.911 342.384 406.245 357.582 406.267C358.495 406.267 359.296 405.577 359.452 404.643C360.587 397.7 361.877 390.846 363.168 383.992C366.105 368.326 369.154 352.104 370.177 335.504C370.89 323.932 371.847 308.088 360.142 299.676C351.708 293.535 339.602 293.379 325.116 299.209C308.582 305.863 291.559 317.59 271.598 336.105C266.658 340.666 261.94 346.051 257.378 351.281C251.481 358.023 245.406 364.989 238.663 370.352C238.085 370.797 237.818 371.553 237.952 372.287C239.109 378.718 240.6 383.97 242.469 388.354C249.968 405.956 279.075 405.6 300.348 405.31Z" fill="#402F38"/>
<path d="M506.962 398.479C507.295 398.056 507.451 397.522 507.406 396.988C507.251 395.542 507.118 394.095 506.984 392.649C506.138 383.814 505.27 374.646 500.708 366.324C496.703 359.003 491.34 354.485 484.82 352.883C474.473 350.346 463.769 355.731 456.648 360.694C443.275 370.04 431.837 382.346 423.358 392.026C421.4 394.273 419.575 396.609 417.75 398.946L415.592 401.706C415.125 402.307 415.013 403.152 415.347 403.842C415.681 404.509 416.326 404.932 417.039 404.932H417.128C428.61 404.376 437.911 403.82 446.368 403.152L457.783 402.328C473.427 401.194 489.627 400.014 505.627 399.191C506.138 399.124 506.606 398.879 506.962 398.479Z" fill="#402F38"/>
<path d="M907.978 1177.1C898.899 1183.09 888.395 1188.01 878.248 1192.77C869.992 1196.64 862.204 1200.29 855.039 1204.5C852.569 1205.94 849.498 1207.61 846.071 1209.48C824.842 1220.98 792.731 1238.39 796.069 1261C799.563 1284.89 830.494 1294.98 853.081 1302.32C857.264 1303.7 861.225 1304.97 864.496 1306.19C869.859 1308.19 875.845 1310 882.165 1311.91C892.646 1315.07 903.505 1318.34 913.051 1322.95C913.296 1323.06 913.563 1323.12 913.853 1323.12C914.209 1323.12 914.587 1323.01 914.899 1322.79C915.455 1322.41 915.766 1321.77 915.744 1321.1C914.921 1291.44 914.098 1264.36 913.208 1238.32C912.674 1222.48 912.028 1206.68 911.383 1190.85L910.893 1178.7C910.871 1177.99 910.47 1177.37 909.892 1177.04C909.246 1176.7 908.534 1176.75 907.978 1177.1Z" fill="#402F38"/>
<path d="M897.788 967.126C889.888 973.423 880.275 978.965 871.796 983.838C867.257 986.441 862.985 988.911 859.268 991.292C854.684 994.252 849.455 997.301 843.891 1000.53C823.641 1012.3 800.721 1025.63 790.997 1044.59C787.971 1050.48 787.236 1055.87 788.794 1060.63C791.82 1069.84 802.546 1074.85 812.026 1079.28L814.674 1080.53C822.64 1084.31 830.607 1088.05 838.618 1091.79L860.002 1101.8C870.817 1106.87 881.654 1111.95 892.536 1116.91C894.294 1117.71 896.008 1118.47 897.654 1119.18C900.547 1120.45 903.284 1121.63 905.776 1122.96C906.021 1123.1 906.311 1123.16 906.578 1123.16C906.956 1123.16 907.335 1123.05 907.646 1122.83C908.202 1122.45 908.536 1121.74 908.514 1121.05C907.379 1095.37 906.244 1069.71 904.953 1044.03C903.663 1018.86 902.261 993.718 900.837 968.55C900.792 967.816 900.369 967.17 899.746 966.881C899.078 966.614 898.344 966.703 897.788 967.126Z" fill="#402F38"/>
<path d="M884.391 759.908C875.913 766.005 865.944 771.012 856.308 775.841C849.633 779.178 843.313 782.339 837.66 785.766C834.923 787.435 831.697 789.237 828.181 791.217C806.084 803.679 772.683 822.505 776.399 848.83C779.492 870.726 812.805 883.945 834.857 892.69C839.152 894.403 843.068 895.939 846.25 897.363C860.737 903.816 875.379 909.424 889.531 914.831C891.645 915.655 893.426 916.345 895.006 917.034C895.25 917.146 895.496 917.19 895.74 917.19C896.119 917.19 896.497 917.057 896.83 916.834C897.364 916.433 897.676 915.788 897.632 915.098C894.138 858.176 890.778 807.885 887.351 761.354C887.306 760.642 886.883 760.041 886.283 759.73C885.682 759.44 884.97 759.507 884.391 759.908Z" fill="#402F38"/>
<path d="M556.23 1001.06C556.475 1001.06 556.742 1001.02 556.987 1000.9C559.902 999.592 563.084 998.568 566.444 997.477C568.002 996.965 569.582 996.454 571.206 995.898C586.004 990.691 598.221 986.173 609.704 981.611C612.819 980.365 616.424 979.075 620.274 977.695C643.016 969.484 674.17 958.268 679.577 934.168C686.809 902.124 645.219 886.169 620.363 876.623C616.558 875.176 613.13 873.841 610.26 872.617L598.755 867.722C589.075 863.605 579.395 859.488 569.693 855.327C568.135 854.659 566.622 854.059 565.198 853.48C561.46 851.967 558.211 850.632 555.229 849.029C554.65 848.718 553.938 848.74 553.359 849.118C552.803 849.474 552.447 850.12 552.47 850.832C552.781 873.062 553.048 895.293 553.293 917.523C553.604 944.739 553.916 971.954 554.361 999.147C554.361 999.792 554.695 1000.41 555.229 1000.77C555.518 1000.95 555.874 1001.06 556.23 1001.06Z" fill="#402F38"/>
<path d="M562.995 1233.96C563.262 1233.96 563.529 1233.89 563.774 1233.78C570.405 1230.66 577.326 1227.77 584.002 1224.97C595.884 1220.01 608.168 1214.86 619.628 1208.14C622.676 1206.34 626.348 1204.38 630.376 1202.23C648.423 1192.57 673.168 1179.33 678.464 1161.99C688.233 1130.1 646.175 1115.8 625.97 1108.92L625.013 1108.59C604.518 1101.6 582.866 1095.08 558.811 1088.62C558.232 1088.47 557.632 1088.6 557.165 1089C556.698 1089.38 556.43 1089.98 556.452 1090.61C557.676 1133.15 559.168 1178.1 561.104 1232.04C561.126 1232.69 561.459 1233.29 561.993 1233.65C562.305 1233.87 562.639 1233.96 562.995 1233.96Z" fill="#402F38"/>
<path d="M542.946 1275.84C519.447 1271.05 500.31 1264.15 484.466 1254.76C483.843 1254.39 483.041 1254.43 482.441 1254.85C478.569 1257.7 474.697 1260.37 470.847 1263C458.118 1271.74 446.102 1280.02 435.799 1293.24C421.045 1312.2 413.813 1333.81 407.693 1354.32C407.404 1355.28 407.849 1356.3 408.739 1356.7C432.082 1367.34 457.762 1372.7 483.619 1372.7C504.871 1372.7 526.278 1369.08 546.595 1361.8C547.396 1361.51 547.908 1360.73 547.864 1359.84C546.684 1332.45 545.527 1305.05 544.459 1277.66C544.436 1276.77 543.814 1276.02 542.946 1275.84Z" fill="#FF9752"/>
<path d="M464.506 1243.7C465.084 1243.44 465.484 1242.86 465.596 1242.19C465.685 1241.52 465.463 1240.86 464.973 1240.43C461.301 1237.05 458.142 1233.78 455.316 1230.42C446.726 1220.23 439.872 1207.92 434.954 1193.81C434.665 1192.99 433.886 1192.46 433.04 1192.52C430.837 1192.7 428.59 1192.63 426.209 1192.59C422.426 1192.5 418.509 1192.41 414.526 1193.19C399.483 1196.06 385.241 1203.89 375.828 1209.52C350.749 1224.57 334.55 1244.08 323.334 1272.77C323.134 1273.3 323.156 1273.92 323.423 1274.44C333.326 1293.75 346.41 1311.06 362.343 1325.86C370.866 1333.83 380.546 1341.13 391.116 1347.51C391.405 1347.69 391.739 1347.78 392.073 1347.78C392.362 1347.78 392.63 1347.71 392.874 1347.58C393.431 1347.29 393.831 1346.76 393.92 1346.11C400.195 1303.88 430.526 1259.86 464.506 1243.7Z" fill="#402F38"/>
<path d="M427.052 1173.07C427.586 1173.14 428.187 1172.85 428.565 1172.41C428.943 1171.96 429.099 1171.34 429.01 1170.76C427.72 1163.55 426.852 1155.92 426.473 1148.06C425.784 1134.42 426.629 1120.09 429.099 1104.25C429.255 1103.27 428.521 1102.29 427.608 1102C427.252 1101.89 426.852 1101.78 426.518 1101.6C403.064 1090.29 376.094 1088.31 350.57 1096.03C339.71 1099.28 328.962 1104.65 316.723 1112.88L316.166 1113.26C313.162 1115.28 310.336 1117.2 307.421 1118.35C306.798 1118.6 306.353 1119.18 306.22 1119.87L305.574 1123.72C305.018 1126.99 304.484 1130.26 303.972 1133.55C297.919 1174.05 300.478 1211.86 311.56 1245.93C311.805 1246.69 312.473 1247.22 313.229 1247.26C313.274 1247.26 313.341 1247.26 313.341 1247.26C314.053 1247.26 314.72 1246.84 315.032 1246.15C334.748 1204.29 386.04 1170.89 427.052 1173.07Z" fill="#FF9752"/>
<path d="M373.247 976.36C358.404 980.365 346.121 988.109 334.839 995.697L333.014 996.921C330.945 998.323 329.164 999.547 327.406 1000.3C326.761 1000.59 326.316 1001.22 326.249 1001.95C324.024 1028.61 318.683 1055.51 313.498 1081.53L311.651 1090.81C311.495 1091.58 311.807 1092.36 312.43 1092.81C312.741 1093.03 313.12 1093.16 313.498 1093.16C313.854 1093.16 314.188 1093.08 314.5 1092.88C329.009 1083.4 347.5 1078.17 351.061 1077.21C377.297 1070.27 404.868 1072.38 430.748 1083.26C431.26 1083.48 431.838 1083.44 432.328 1083.17C432.817 1082.91 433.174 1082.44 433.307 1081.86C436.356 1068.04 439.983 1054.64 444.055 1039.8C449.107 1021.44 452.845 1006.07 455.849 991.402C456.027 990.49 455.582 989.578 454.758 989.199C429.635 977.628 404.467 967.926 373.247 976.36Z" fill="#402F38"/>
<path d="M459.056 968.705C459.634 968.416 460.012 967.882 460.123 967.215C463.261 945.83 464.396 926.158 463.617 907.088C462.772 885.97 459.501 864.718 453.871 843.979C453.715 843.423 453.337 842.955 452.802 842.71C450.444 841.62 448.129 840.507 445.837 839.394C437.87 835.5 429.615 831.495 419.734 829.782C402.221 826.755 383.774 830.449 363.368 841.064C348.058 849.008 335.887 858.799 327.163 870.192C324.226 874.064 322.068 878.916 319.976 883.611C317.929 888.218 315.792 893.002 312.988 896.629C312.543 897.207 312.454 898.008 312.743 898.698C318.729 912.094 322.891 926.915 325.138 942.759C326.652 953.551 327.341 964.544 327.319 976.361C327.319 977.14 327.742 977.829 328.41 978.163C328.654 978.274 328.943 978.341 329.21 978.341C329.655 978.341 330.078 978.185 330.434 977.874C362.856 949.524 419.734 945.385 457.253 968.661C457.831 968.95 458.477 968.994 459.056 968.705Z" fill="#FF9752"/>
<path d="M301.948 877.046C302.616 876.979 303.194 876.557 303.484 875.911C305.464 871.439 308.268 866.543 311.851 861.402C321.865 846.871 336.462 834.232 354.064 824.886C375.939 813.27 396.567 808.285 415.393 810.088C421.936 810.711 431.682 812.023 440.961 814.783C441.651 815.005 442.408 814.761 442.897 814.204C443.387 813.648 443.498 812.825 443.231 812.135C431.593 783.273 415.438 756.614 395.166 732.937C394.787 732.492 394.23 732.203 393.652 732.292C387.154 732.626 380.79 731.78 374.025 730.89C365.146 729.711 355.956 728.487 346.498 730.2C328.474 733.471 311.606 741.772 297.742 754.189C284.925 765.649 274.488 780.135 266.767 797.225C264.141 803.011 262.673 809.82 261.271 816.385C260.047 822.148 258.756 828.112 256.709 833.208C256.352 834.098 256.664 835.144 257.465 835.656C274.8 846.582 289.176 860.245 300.213 876.245C300.569 876.757 301.148 877.069 301.748 877.069C301.815 877.069 301.881 877.046 301.948 877.046Z" fill="#402F38"/>
<path d="M287.019 739.302C304.487 724.148 325.316 714.468 347.257 711.308C354.222 710.284 360.787 709.795 366.795 709.795C367.173 709.795 367.463 709.817 367.908 709.795C368.687 709.795 369.399 709.283 369.666 708.526C369.955 707.747 369.733 706.88 369.132 706.346C334.306 675.192 292.471 653.784 248.143 644.416C247.743 644.327 247.342 644.394 246.986 644.55L240.556 647.554C216.879 658.547 194.515 668.939 178.003 691.948C152.39 727.619 155.661 766.806 162.248 800.542C162.248 800.608 162.292 801.031 162.314 801.098C162.448 801.921 163.049 802.544 163.827 802.7C181.118 806.082 203.816 811.089 225.98 819.812C230.03 821.392 234.191 823.195 239.087 825.531C239.332 825.642 239.599 825.709 239.866 825.709C240.222 825.709 240.555 825.598 240.867 825.42C241.401 825.064 241.735 824.463 241.757 823.795C242.002 813.159 246.363 801.031 250.102 791.64C258.269 771.301 271.019 753.187 287.019 739.302Z" fill="#FF9752"/>
<path d="M162.578 683.001C174.127 666.089 189.482 651.848 205.793 642.858C206.55 642.435 206.95 641.544 206.75 640.677C206.55 639.809 205.816 639.186 204.97 639.141C159.53 637.65 99.7811 647.041 68.3825 678.24C54.1184 692.415 46.7524 709.994 46.4631 730.466C45.8846 772.101 86.5624 788.39 120.765 794.732C125.06 795.534 129.354 796.313 133.627 797.069C137.054 797.692 140.481 798.293 143.908 798.938C144.019 798.96 144.131 798.961 144.242 798.961C144.798 798.961 145.332 798.715 145.689 798.248C146.134 797.714 146.244 796.98 146.022 796.313C133.649 761.109 140.325 715.557 162.578 683.001Z" fill="#402F38"/>
<path d="M670.077 629.083C670.188 629.728 670.611 630.262 671.168 630.529C681.804 635.425 691.774 639.475 706.06 639.475C706.282 639.475 706.505 639.475 706.727 639.475C713.203 639.408 720.68 639.119 727.579 636.782C731.117 635.603 734.076 633.511 737.036 631.263C737.503 630.907 737.792 630.374 737.815 629.773C737.837 629.172 737.615 628.593 737.192 628.215C722.394 614.262 710.8 597.439 704.503 580.816C704.213 580.06 703.523 579.57 702.744 579.57C701.966 579.57 701.276 580.06 700.986 580.795C694.488 597.618 683.985 613.706 670.611 627.325C670.166 627.77 669.966 628.438 670.077 629.083Z" fill="#FF9752"/>
<path d="M916.994 1347.67C916.927 1346.76 916.282 1346 915.414 1345.85C906.335 1344.35 897.1 1340.26 888.154 1336.32C884.127 1334.54 880.322 1332.87 876.583 1331.43C871.309 1329.42 866.013 1327.46 860.717 1325.53C849.101 1321.23 837.106 1316.81 825.513 1311.98C794.248 1298.85 778.003 1280.64 777.224 1257.88C776.356 1230.71 802.081 1215.02 822.731 1202.43C824.645 1201.27 826.492 1200.13 828.294 1199.02C843.493 1189.59 859.693 1180.82 876.427 1172.94L881.033 1170.74C889.89 1166.49 899.058 1162.1 908.516 1160.32C909.45 1160.15 910.117 1159.28 910.073 1158.3C909.984 1156.05 909.895 1153.83 909.829 1151.58C909.762 1149.33 909.672 1147.08 909.583 1144.84C909.539 1143.84 908.783 1143.03 907.826 1142.95C899.592 1142.39 892.093 1138.58 884.127 1134.56C881.501 1133.22 878.83 1131.89 876.115 1130.64C861.873 1124.07 843.114 1115.33 824.422 1106.14C820.951 1104.43 817.056 1102.73 812.917 1100.93C791.866 1091.79 765.653 1080.39 767.901 1055.38C770.415 1027.19 803.638 1005.62 821.463 994.052C836.439 984.35 852.172 975.226 867.37 966.414L870.13 964.812C872.622 963.365 875.181 961.763 877.807 960.116C884.416 955.955 891.27 951.66 898.324 949.168C899.147 948.879 899.659 948.055 899.614 947.165C899.414 944.005 899.236 940.823 899.058 937.686L899.014 936.751C898.992 936.172 898.702 935.639 898.257 935.282C897.812 934.926 897.256 934.793 896.699 934.927C888.177 936.952 878.741 932.5 869.618 928.228C866.97 926.982 864.366 925.758 861.874 924.735C843.271 917.146 826.647 909.602 811.004 901.658L806.286 899.277C785.658 888.974 759.978 876.134 757.798 850.432C755.038 817.876 785.591 797.939 805.819 784.72C823.755 773.038 840.021 763.335 855.598 755.035C857.378 754.078 859.181 753.077 860.984 752.075C868.483 747.914 876.249 743.619 884.282 741.617C885.194 741.394 885.795 740.504 885.729 739.547C883.815 714.312 881.879 689.078 879.832 663.843C879.765 663.064 879.787 662.308 879.898 661.529C879.988 660.817 879.721 660.127 879.164 659.682C878.608 659.259 877.895 659.148 877.272 659.459C838.597 677.284 788.64 664.155 756.285 643.215L754.793 642.213C754.059 641.724 753.08 641.813 752.457 642.458C731.206 663.999 673.615 657.101 657.994 640.7C657.348 640.01 656.303 639.921 655.546 640.478C653.566 641.946 651.608 643.349 649.627 644.661C619.897 664.066 583.091 667.47 548.666 654.007C548.065 653.762 547.398 653.874 546.886 654.274C546.374 654.675 546.085 655.321 546.129 655.988C549.089 705.345 550.936 758.484 552.137 828.313C552.16 829.359 552.938 830.183 553.94 830.249C564.755 830.828 575.592 836.124 586.051 841.242C589.945 843.156 593.951 845.114 597.823 846.739C602.785 848.853 607.747 850.922 612.71 852.992C624.726 858.021 637.143 863.228 649.182 868.68C668.987 877.603 701.72 897.764 698.382 932.301C695.401 963.121 667.629 977.407 639.435 989.401C622.412 996.656 604.676 1003.22 585.227 1009.45C583.18 1010.1 581.111 1010.83 578.997 1011.57C571.586 1014.15 563.954 1016.88 556.632 1016.68C556.165 1016.77 555.631 1016.88 555.275 1017.26C554.919 1017.64 554.719 1018.15 554.719 1018.69C555.03 1034.75 555.409 1050.86 555.809 1066.89C555.832 1067.78 556.433 1068.53 557.256 1068.73L559.236 1069.24C592.526 1077.72 626.973 1086.47 658.016 1101.13C678.978 1111.06 700.452 1131.48 697.849 1159.15C695.49 1184.05 672.191 1197.95 651.63 1210.24C648.715 1211.97 645.866 1213.69 643.174 1215.36L639.591 1217.58C617.405 1231.44 589.789 1248.69 563.665 1250.74C562.641 1250.83 561.884 1251.72 561.929 1252.78L562.485 1268.23C563.687 1299.36 564.933 1330.51 566.312 1361.65C566.557 1367.1 566.535 1373.13 566.513 1379.51C566.424 1402.28 566.357 1428.09 577.75 1445.25C587.631 1460.07 605.722 1462.7 621.677 1465.01L625.505 1465.57C640.37 1467.81 655.858 1469.55 672.792 1470.86C690.572 1472.24 708.641 1472.93 726.755 1472.93C735.234 1472.93 743.712 1472.78 752.168 1472.49C785.102 1471.33 817.902 1467.81 849.657 1462.07C852.639 1461.54 855.865 1461.03 859.225 1460.51C882.413 1456.91 914.19 1451.97 917.773 1422.88C920.487 1400.85 918.952 1377.11 917.439 1354.12L916.994 1347.67Z" fill="#FF9752"/>
<path d="M1286.41 47.6649C1264.87 48.466 1242.88 57.7008 1224.5 73.7006C1219.14 78.3736 1214.33 84.9827 1209.66 91.347C1205.21 97.4665 1200.6 103.764 1195.55 108.37C1195.13 108.749 1194.88 109.305 1194.91 109.906L1195.6 141.483C1195.62 142.328 1196.15 143.084 1196.95 143.329C1197.73 143.574 1198.58 143.262 1199.04 142.573C1213.13 121.432 1239.68 104.409 1263.6 101.16C1298.23 96.465 1328.24 117.806 1333.36 150.784C1337.17 175.084 1326.98 195.001 1304.7 206.906C1271.48 224.641 1223.48 218.899 1199.93 194.355C1199.4 193.776 1198.58 193.621 1197.87 193.932C1197.15 194.244 1196.71 194.978 1196.71 195.779L1196.93 209.909C1196.93 210.399 1197.13 210.867 1197.44 211.223C1222.61 239.083 1259.28 269.236 1300.03 269.236C1307.66 269.236 1315.45 268.167 1323.33 265.853C1349.27 258.154 1363.94 228.001 1372.71 205.993C1382.63 181.092 1386.5 155.924 1383.9 133.204C1378.13 82.5571 1336.23 45.7956 1286.41 47.6649Z" fill="#FF9752"/>
<path d="M1260.4 198.248C1260.49 198.248 1260.6 198.248 1260.69 198.248C1276.91 198.248 1299.07 191.616 1309.69 177.018C1315.72 168.718 1317.28 159.083 1314.34 148.402C1311.09 136.563 1303.66 127.729 1292.87 122.878C1278.33 116.358 1258.68 117.671 1242.8 126.238C1230.69 132.78 1222.32 142.905 1214.2 152.674C1210.37 157.303 1206.41 162.064 1202.14 166.359C1201.74 166.76 1201.54 167.316 1201.56 167.895C1201.58 168.473 1201.87 169.007 1202.3 169.341C1204.26 170.899 1206.17 172.457 1208.06 173.992C1223.33 186.409 1237.72 198.114 1260.4 198.248Z" fill="#FFA7B4"/>
<path d="M206.327 185.696C200.007 183.716 194.044 180.266 187.746 176.617C179.646 171.944 171.257 167.093 161.933 165.491C147.001 162.909 130.045 167.226 119.698 176.239C112.31 182.692 108.349 191.282 108.26 201.095C108.171 211.309 111.575 218.853 118.407 223.526C123.525 227.042 130.111 228.489 136.987 228.489C145.688 228.489 154.834 226.174 162.022 222.881C169.276 219.52 176.286 215.003 183.073 210.619C190.728 205.679 198.65 200.561 206.861 197.201C207.618 196.89 208.107 196.111 208.063 195.287L207.685 187.499C207.64 186.653 207.106 185.941 206.327 185.696Z" fill="#FFA7B4"/>
<path d="M105.39 300.899C112.623 302.657 120.188 303.525 127.865 303.525C139.637 303.525 151.632 301.478 163.025 297.405C173.662 293.622 183.52 288.26 192.554 281.294C209.578 268.343 211.714 263.782 211.67 261.201C211.647 260.555 211.736 259.999 211.87 259.331C211.892 259.153 211.914 258.975 211.914 258.797C211.113 246.714 210.334 234.564 209.577 222.391C209.533 221.701 209.132 221.078 208.532 220.767C207.931 220.455 207.219 220.5 206.663 220.878C196.382 227.888 184.677 233.629 174.352 238.703L173.328 239.215C158.218 246.669 145.512 249.807 133.407 249.028C106.815 247.314 87.8774 225.64 89.3461 198.603C91.0373 167.316 117.718 148.179 143.176 145.419C159.353 143.706 186.079 148.935 203.658 161.998C204.237 162.42 205.016 162.487 205.639 162.131C206.285 161.775 206.663 161.085 206.64 160.328C206.217 146.999 205.995 135.873 205.973 125.347C205.973 124.657 205.617 123.99 205.016 123.656C199.252 120.207 193.979 115.89 188.371 111.328C180.115 104.585 171.57 97.6202 161.378 93.6814C137.301 84.402 108.817 85.9598 85.207 97.8206C45.9086 117.492 21.1639 163.822 26.3711 207.971C31.6005 252.655 64.1116 290.886 105.39 300.899Z" fill="#FF9752"/>
<path d="M713.091 381.343C733.229 380.586 756.038 379.696 771.571 391.601C772.083 392.002 772.751 392.091 773.351 391.868C773.952 391.623 774.397 391.089 774.53 390.444C780.004 363.741 770.48 328.381 765.896 311.358C760.021 289.662 752.656 269.278 743.978 250.763C743.087 248.872 742.153 246.802 741.174 244.644C734.097 229 724.395 207.593 709.775 200.205C702.298 196.444 694.688 196.177 687.144 199.448C657.837 212.177 636.786 276.11 629.866 297.138L629.709 297.628C623.924 315.03 616.959 338.017 614.355 361.671C613.064 373.532 613.866 384.258 616.826 395.362C616.981 395.963 617.426 396.452 617.983 396.675C618.205 396.764 618.428 396.809 618.65 396.809C619.006 396.809 619.384 396.697 619.674 396.497L620.341 396.03C620.942 395.607 621.521 395.184 622.255 394.784C633.426 388.152 648.179 386.194 658.327 385.304C662.666 384.926 666.983 384.481 671.322 384.058C682.026 382.99 693.086 381.877 704.078 381.654C706.949 381.565 709.975 381.454 713.091 381.343Z" fill="#FF9752"/>
<path d="M1025.68 330.92C1023.96 305.707 1035.07 287.571 1055.38 282.431C1074.43 277.602 1099.69 281.719 1130.44 294.67C1143.84 300.322 1163.2 309.201 1176.44 321.061C1177.02 321.573 1177.82 321.684 1178.49 321.351C1179.15 321.017 1179.58 320.305 1179.58 319.526C1179.47 313.985 1179.35 308.4 1179.31 302.859C1179.31 302.859 1179.31 302.859 1179.31 302.836C1178.6 247.316 1177.64 191.083 1176.48 135.696C1176.15 119.652 1175.79 103.608 1175.44 87.5635L1175.39 85.1602C1175.3 81.4885 1175.42 77.5498 1175.53 73.3662C1175.84 62.4179 1176.15 51.091 1173.17 41.6336C1166.16 19.2696 1136.78 21.8509 1115.33 23.7423C1110.95 24.1206 1106.79 24.499 1103.43 24.5657L988.959 27.2363C987.98 27.2586 987.179 28.0595 987.112 29.0831C986.133 46.4625 974.918 66.7572 967.508 80.1756L967.062 80.9766C955.802 101.494 942.117 123.568 922.356 125.927C900.905 128.464 884.928 106.79 872.043 89.3658C870.664 87.4966 869.306 85.672 868.015 83.9585C865.679 80.8876 862.942 77.5273 860.027 73.9669C850.102 61.8391 837.729 46.7295 833.479 32.2875C833.234 31.4419 832.455 30.9079 831.632 30.9079L773.664 32.2875C772.752 32.3097 771.973 33.0217 771.839 33.9563C770.326 43.9923 766.276 53.9171 762.337 63.5081C760.958 66.9128 759.578 70.2731 758.31 73.6111C757.308 76.2591 756.328 78.9738 755.349 81.6886C751.678 91.7914 747.895 102.228 742.71 111.396C731.428 131.468 714.404 141.705 697.136 138.789C677.042 135.429 664.536 116.581 653.499 99.9581L652.341 98.2003C650.005 94.6843 647.669 91.146 645.31 87.6301C639.836 79.4188 634.184 70.9407 628.821 62.4847C627.864 60.9937 626.884 59.4803 625.905 57.9894C621.655 51.4916 617.249 44.7712 615.58 37.5614C615.38 36.6712 614.556 36.1151 613.711 36.0483L551.559 37.4724C551.047 37.4946 550.557 37.7173 550.201 38.1179C549.845 38.5184 549.667 39.0524 549.712 39.5864C550.09 45.3944 547.798 49.7116 544.616 55.6753C543.993 56.8547 543.348 58.0786 542.68 59.3693C540.388 63.8421 538.118 68.3147 535.826 72.8097C531.709 80.9542 527.437 89.388 523.075 97.5548C514.463 113.71 504.116 128.931 486.848 130.912C466.82 133.159 451.911 114.801 441.029 101.405C437.558 97.1098 433.552 92.637 429.324 87.8749C416.996 74.0337 403.044 58.3454 397.258 42.3011C396.969 41.5223 396.279 40.9662 395.456 41.0329C346.656 42.1233 309.36 42.8355 274.512 43.3473C271.909 43.3695 269.194 43.3251 266.412 43.2583C256.932 43.058 246.162 42.8353 237.35 46.3958C222.129 52.5153 222.952 68.849 223.62 81.9558C223.687 83.469 223.776 84.9377 223.82 86.3618C224.198 96.6204 223.842 107.19 223.508 117.426C223.063 131.134 222.596 145.331 223.82 159.061C225.311 175.261 226.001 191.884 226.668 207.973C227.18 220.39 227.714 233.208 228.604 245.513C230.273 268.612 232.076 293.223 234.234 317.701C234.768 323.576 234.969 330.163 235.213 337.106C235.302 339.598 235.369 342.113 235.48 344.65C235.503 345.473 236.037 346.207 236.794 346.452C237.573 346.697 238.373 346.43 238.863 345.762C249.5 331.209 264.743 318.592 278.184 307.911C301.059 289.708 325.715 273.374 350.995 277.045C373.67 280.339 387.756 297.964 388.713 324.222C389.715 351.66 385.687 381.277 377.899 403.463C377.676 404.064 377.765 404.732 378.121 405.266C378.477 405.8 379.055 406.112 379.656 406.112H381.014C386.198 406.023 391.383 405.867 396.568 405.711C397.369 405.689 398.059 405.132 398.304 404.331C402.933 389.222 417.13 375.002 427.522 364.632L428.168 363.987C441.185 350.858 456.918 337.173 475.054 335.125C486.737 333.813 496.884 337.306 505.162 345.517C517.178 357.445 524.188 378.897 522.986 400.17C522.964 400.771 523.186 401.372 523.631 401.772C530.552 408.092 521.517 426.517 510.191 440.959C510.102 441.07 510.013 441.204 509.946 441.36L508.7 444.03C505.696 450.506 502.581 457.182 500.467 463.991C496.795 475.852 494.169 488.091 492.678 500.419C492.611 501.02 492.811 501.643 493.234 502.065C493.657 502.488 494.258 502.689 494.836 502.6C501.623 501.554 505.963 503.089 508.077 507.295C508.833 508.742 508.967 510.121 508.477 511.478C507.187 515.061 501.824 518.755 492.478 522.472C491.743 522.761 491.254 523.495 491.254 524.318V525.943C491.298 529.993 491.477 534.266 491.855 539.05C491.899 539.695 492.255 540.274 492.789 540.585C493.323 540.919 493.968 540.941 494.547 540.674C499.376 538.315 503.471 537.892 507.009 539.383C507.743 539.695 509.457 540.607 509.39 542.365C509.145 549.887 502.759 556.073 496.239 561.747C495.682 562.237 495.437 562.994 495.615 563.728C502.447 592.59 516.956 614.131 538.764 627.772C570.964 647.888 609.839 647.888 640.236 627.772C673.081 606.075 683.785 572.985 689.927 543.478C689.949 543.345 689.971 543.189 689.971 543.055C689.971 541.653 689.971 540.273 690.082 538.805C690.082 538.76 690.105 538.338 690.105 538.293L690.126 537.736C690.126 536.935 689.66 536.202 688.948 535.912C675.551 530.282 663.913 513.748 655.435 501.687C653.855 499.462 652.386 497.37 651.029 495.501C641.237 482.061 630.156 465.95 622.212 448.147L621.454 446.99C621.054 446.389 620.654 445.788 620.276 445.187C615.602 437.71 610.106 427.941 609.015 418.617C608.971 418.195 608.793 417.817 608.503 417.505C578.039 383.903 608.17 303.459 618.073 277.045C630.957 242.62 661.131 161.977 713.247 181.27C735.7 189.548 749.341 218.254 759.288 239.216L759.978 240.663C772.373 266.743 782.075 295.338 788.862 325.646C795.138 353.84 800.3 383.458 789.04 408.559C788.106 410.607 787.082 412.61 785.969 414.457C785.747 414.813 785.658 415.235 785.702 415.658C787.015 431.057 775.711 446.189 765.742 459.518C763.605 462.389 761.514 465.171 759.6 467.886L730.204 509.654C728.958 511.434 727.689 513.348 726.399 515.328C721.77 522.36 716.519 530.327 709.642 534.555C708.886 535.022 708.552 535.957 708.797 536.824C719.634 573.297 732.541 607.833 770.949 629.841C790.086 640.811 813.518 648.2 835.86 648.2C854.241 648.2 871.91 643.192 885.885 631.087C906.179 613.507 919.019 588.362 923.046 558.365C923.158 557.541 922.757 556.719 922.045 556.34C916.95 553.603 911.742 550.466 908.026 546.148C906.78 544.702 906.335 542.588 906.869 540.763C907.136 539.829 907.915 538.16 910.051 537.603C913.656 536.669 917.684 536.669 922.023 537.626C922.579 537.737 923.18 537.603 923.625 537.225C924.07 536.847 924.315 536.268 924.315 535.667C924.204 528.702 923.647 521.759 922.668 515.016C922.557 514.238 922 513.615 921.288 513.414C913.344 511.211 908.471 508.118 905.489 503.334C904.643 501.999 905.6 500.441 906.557 499.752C909.227 497.838 912.476 496.814 916.504 496.614C917.083 496.591 917.617 496.28 917.95 495.79C918.284 495.301 918.395 494.677 918.217 494.099C912.943 475.295 904.176 457.227 890.669 437.199C875.849 415.28 877.006 407.692 878.185 405.444C879.253 403.442 881.879 402.529 885.951 402.707L898.034 403.174C898.635 403.241 899.281 402.885 899.659 402.329C900.015 401.772 900.104 401.083 899.859 400.46C896.076 390.958 895.431 378.385 896.098 369.751C897.745 348.433 909.717 331.609 926.584 326.936C951.508 320.038 972.826 337.729 980.837 345.673C987.535 352.26 993.276 360.093 998.817 367.681L1000.69 370.24C1002.33 372.488 1004.14 374.691 1005.96 376.894C1012.15 384.415 1018 391.514 1017.93 400.571C1017.93 401.105 1018.13 401.639 1018.51 401.995C1018.89 402.373 1019.38 402.551 1019.91 402.551C1027.92 402.106 1035.96 401.594 1043.95 401.016C1044.61 400.971 1045.21 400.548 1045.53 399.903C1045.81 399.258 1045.75 398.501 1045.37 397.923C1030.17 375.47 1026.52 343.582 1025.68 330.92ZM796.317 584.401C796.317 584.423 796.317 584.423 796.317 584.401C793.646 586.559 790.242 587.027 787.193 585.647C783.788 584.156 781.519 580.64 781.519 576.879C781.519 573.964 783.21 570.004 785.814 568.713C786.059 568.602 786.259 568.512 786.392 568.445C788.128 567.6 789.619 567.199 791.065 567.199C792.178 567.199 793.246 567.444 794.336 567.912C796.807 569.024 798.253 570.738 799.521 574.12L799.699 574.521C800.945 577.836 798.965 582.309 796.317 584.401ZM862.942 271.015C846.72 265.563 833.479 250.254 829.985 232.896C826.914 217.609 831.855 203.033 843.938 191.862C851.637 184.741 862.163 180.869 873.156 180.869C875.804 180.869 878.497 181.092 881.167 181.559C891.292 183.295 900.326 188.257 906.646 195.534C922.134 213.447 920.688 244.601 903.598 260.913C891.67 272.217 877.228 275.822 862.942 271.015ZM830.586 561.658C832.01 559.878 834.391 559.1 836.683 559.1C838.018 559.1 839.309 559.366 840.4 559.834C843.716 561.28 845.54 564.173 846.03 568.668C846.252 570.827 845.673 573.297 844.561 574.899C842.847 577.391 839.866 580.195 835.304 579.594C831.677 579.082 828.895 576.568 827.671 572.651C826.491 569.091 827.426 565.575 830.586 561.658ZM803.483 531.817C803.661 530.927 803.883 530.127 804.128 529.281C805.418 524.808 809.157 522.026 813.496 522.026C814.297 522.026 815.098 522.115 815.922 522.315C817.969 522.783 820.328 524.697 821.507 526.878C822.62 528.814 823.31 532.129 822.531 534.31C822.531 534.31 822.531 534.31 822.531 534.332C821.974 535.934 821.329 537.492 820.662 539.05L820.417 539.628C818.636 543.812 812.74 545.08 808.845 543.367C804.573 541.52 802.37 536.78 803.483 531.817ZM625.149 558.677C628.487 558.209 632.937 559.634 634.562 563.239C635.786 565.931 636.787 569.87 634.695 573.297C633.783 574.743 631.847 577.236 628.999 577.903C623.747 579.172 618.606 576.167 617.271 571.027C616.559 568.334 617.026 565.441 618.517 563.06C620.031 560.657 622.456 559.055 625.149 558.677ZM563.731 573.119C564.154 571.094 565.178 569.202 566.557 567.778C566.713 567.711 566.846 567.622 566.98 567.511C569.361 565.486 571.364 564.618 573.856 564.485C576.86 564.329 579.286 566.265 580.488 567.444C582.179 569.047 583.158 571.516 583.158 574.231C583.158 576.991 582.179 579.527 580.465 581.196L580.443 581.219C579.597 582.042 578.641 582.776 577.572 583.555C575.57 585.091 573.344 585.046 571.831 584.757C569.027 584.223 566.246 582.287 564.733 579.861C563.576 577.947 563.197 575.544 563.731 573.119ZM600.582 534.109C600.671 536.401 599.803 538.693 598.089 540.54C596.242 542.543 593.684 543.745 591.213 543.745C586.207 543.745 582.112 539.428 581.889 533.931C581.8 531.617 582.691 529.303 584.404 527.434C586.229 525.431 588.787 524.252 591.235 524.252C596.242 524.252 600.359 528.568 600.582 534.109ZM543.459 281.808C533.846 290.22 520.449 294.314 506.742 293.046C493.012 291.777 480.506 285.302 472.45 275.266C452.089 249.942 460.434 221.725 477.747 204.969C487.315 195.712 500.444 189.236 514.04 189.236C524.789 189.236 535.849 193.286 545.662 203.211C547.242 204.813 548.577 206.326 549.756 207.84C566.646 228.913 563.665 264.162 543.459 281.808Z" fill="#FF9752"/>
<path opacity="0.1" d="M1383.48 73.9439C1358.51 39.3408 1315.32 21.3605 1274.24 27.5022C1251.38 30.9292 1229.87 41.7217 1212.42 57.3654C1208.12 61.2373 1202.76 66.5559 1197.73 72.5864C1196.62 90.2106 1194.53 107.813 1191.06 125.348C1181.87 171.834 1161.39 215.115 1129.51 249.273C1091.19 290.307 1042.99 307.909 989.892 317.433C949.036 324.777 899.034 325.756 863.786 351.391C839.53 369.015 843.758 395.563 851.68 421.487C869.616 480.212 903.351 556.472 853.416 609.3C826.245 638.029 789.483 655.564 778.379 698.022C771.236 725.393 777.511 757.615 780.293 785.498C785.233 834.854 793.222 883.9 799.786 933.034C816.943 1061.57 833.499 1194.04 820.971 1323.86C815.452 1381.07 801.611 1448.76 766.43 1493.67C809.378 1491.93 852.904 1486.44 893.271 1474.53C911.674 1469.06 929.587 1458.8 935.706 1438.64C939.712 1425.58 938.51 1411.16 938.243 1397.69C937.865 1379.56 937.442 1361.4 936.952 1343.26C935.172 1273.32 932.792 1203.36 929.81 1133.46C923.112 976.805 913.343 820.323 900.636 664.064C900.525 662.774 900.213 661.617 899.835 660.571C899.39 656.477 898.767 652.427 898.01 648.399C921.976 628.794 936.018 601.356 941.804 571.404C944.497 573.763 947.144 576.166 949.926 578.414C954.977 582.419 961.497 585.29 966.215 589.629C970.599 593.723 976.162 588.694 973.959 583.398C970.932 576.077 969.797 569.313 964.746 562.926C960.184 557.185 953.82 552.467 947.923 548.284C946.9 547.572 945.809 546.837 944.719 546.08C945.052 537.58 944.83 528.991 944.007 520.446C955.712 523.116 967.283 525.319 979.032 521.358C982.103 520.334 983.839 515.839 981.08 513.369C969.887 503.445 956.847 501.486 942.716 498.838C942.004 498.682 941.314 498.571 940.602 498.393C934.905 471.556 923.623 446.032 907.801 425.537C962.565 427.696 1017.46 425.983 1072.03 420.509C1101.58 417.549 1131.62 414.322 1160.75 408.336C1179.98 404.353 1195.06 394.984 1199.49 373.867C1205.39 345.561 1200.4 312.182 1199.98 283.409C1199.82 271.036 1199.56 258.687 1199.38 246.336C1223.95 271.104 1258.93 286.413 1291.73 289.64C1343.91 294.758 1374.15 260.422 1392.67 213.046C1410.16 168.496 1412.43 114.021 1383.48 73.9439Z" fill="#592639"/>
<path opacity="0.15" d="M318.484 687.454C273.845 646.487 217.056 624.412 158.509 619.049C109.041 624.924 57.3481 644.483 35.1621 690.547C22.8341 716.137 21.5213 747.781 37.3875 772.037C55.7461 800.075 87.8341 810.979 118.476 816.319C188.528 828.492 277.005 841.154 300.081 923.778C320.331 996.255 290.935 1069.89 282.101 1141.57C272.665 1217.8 294.34 1294.17 351.908 1344.91C365.816 1357.19 381.17 1367.19 397.392 1374.95C390.316 1362.94 383.663 1350.65 377.61 1337.97C345.455 1270.45 331.035 1193.82 343.318 1119.05C356.358 1039.76 397.392 967.148 400.953 885.926C404.268 810.711 372.492 737.011 318.484 687.454Z" fill="#FFFCFC"/>
<path opacity="0.15" d="M1118.51 2.46845L1024.32 4.71593C960.275 6.25137 896.21 7.78683 832.166 9.32227C702.789 12.4377 573.433 15.375 444.056 18.6239C408.919 19.5363 373.737 20.404 338.556 21.2496C306.957 22.0285 273.154 19.6698 242 25.3888C220.727 29.2385 206.641 43.3022 205.351 66.2893C204.861 75.6132 204.527 84.9816 204.282 94.35C195.782 87.2292 185.923 81.4879 177.645 77.4157C155.348 66.4451 130.781 63.352 106.481 67.7803C62.5764 75.7245 27.0833 110.061 11.9069 153.009C-19.5363 241.886 56.0789 336.282 144.89 324.154C168.122 320.994 190.129 311.359 208.532 296.205C209.623 295.271 210.98 294.113 212.493 292.734C213.962 312.405 215.564 332.054 217.411 351.703C219.192 370.529 218.168 395.586 231.876 410.228C244.805 424.047 265.878 423.491 282.99 424.626C309.56 426.406 336.197 427.229 362.811 427.185C388.246 427.14 413.636 426.272 439.026 424.581C459.054 423.246 480.172 422.6 500.399 419.307C489.785 433.015 483.777 453.087 479.549 468.241C475.877 481.348 473.474 494.9 472.339 508.541C471.538 508.897 470.826 509.208 470.225 509.475C455.026 516.04 436.779 523.851 430.927 541.119C429.836 544.39 432.707 547.461 435.644 547.572C448.262 548.128 460.211 541.03 471.694 534.466C471.805 537.069 471.916 539.673 472.116 542.232C472.45 546.927 473.029 551.511 473.697 556.095C469.914 560.456 466.664 564.685 464.372 567.756C458.965 574.877 442.342 602.759 462.147 603.894C463.972 603.961 466.309 602.715 467.065 600.935C469.869 594.437 474.653 587.627 479.682 581.374C488.005 606.876 502.892 629.039 525.479 644.149C525.167 654.741 526.68 665.289 527.258 675.993C528.015 689.967 528.661 703.942 529.262 717.872C526.948 832.385 532.288 947.743 535.425 1061.86C536.516 1101.22 537.784 1140.61 539.12 1179.97C539.943 1181.22 540.477 1182.69 540.544 1184.36C543.637 1254.52 548.354 1324.99 547.331 1395.29C547.909 1414.43 549.155 1434.37 557.567 1451.08C569.472 1474.67 592.638 1481.65 616.337 1485.39C643.93 1489.78 671.768 1492.47 699.651 1493.58C670.7 1445.27 649.359 1392.18 636.23 1335.54C612.776 1234.43 612.642 1129.26 612.731 1025.83C612.82 912.829 609.55 799.763 604.743 686.852C603.653 661.284 606.1 631.91 596.798 607.677C591.881 594.904 582.712 585.357 574.457 574.965C550.757 545.102 534.936 509.231 541.323 469.91C548.577 425.204 574.635 384.882 553.339 339.575C537.384 305.618 502.892 296.695 470.002 290.62C441.229 285.323 410.165 281.785 385.709 263.604C358.605 243.443 339.69 210.242 356.091 176.529C372.624 142.527 410.966 121.142 443.944 108.748C488.205 92.1026 536.739 90.4338 583.269 92.4588C666.695 96.086 749.119 112.174 832.344 118.405C948.17 127.084 1107.21 121.498 1170.16 7.36408C1154.39 0.287703 1134.85 2.0679 1118.51 2.46845Z" fill="#FFFCFC"/>
<path opacity="0.3" d="M547.463 1254.88C510.657 1260.86 470.157 1250.4 447.08 1218.29C430.346 1194.99 423.938 1166.35 423.337 1137.29C425.117 1135.91 426.564 1133.89 427.342 1131.06C436.021 1099.15 444.611 1067.26 452.399 1035.08C459.231 1006.91 468.399 974.802 461.589 945.784C472.849 890.33 475.364 834.588 446.213 784.207C441.139 775.462 426.809 781.092 429.968 791.35C466.886 911.204 379.009 1019.26 382.614 1138.63C384.15 1188.96 400.929 1239.52 440.605 1270.65C475.854 1298.31 524.72 1310.11 559.702 1276.84C569.96 1267.09 558.767 1253.03 547.463 1254.88Z" fill="#592642"/>
<path opacity="0.3" d="M534.557 1322.59C488.694 1333.81 437.134 1345.38 391.471 1326.95C353.976 1311.82 328.519 1280.44 313.053 1242.73C308.513 1231.62 294.405 1240.34 295.829 1250.29C302.483 1296.8 334.571 1340.15 374.827 1360.89C429.168 1388.86 489.05 1378.49 545.75 1365.03C572.231 1358.71 561.037 1316.12 534.557 1322.59Z" fill="#592642"/>
<path opacity="0.3" d="M903.506 488.714C904.241 522.961 895.34 573.474 867.257 595.304C836.904 618.892 796.738 616.622 761.089 617.112C754.391 617.201 749.161 626.525 753.923 632.021C750.919 632.243 748.049 633.713 746.38 636.205C743.353 636.227 740.372 636.984 737.79 638.898C715.649 655.164 674.08 656.611 652.362 637.718C646.754 632.845 638.142 635.916 637.875 643.971C637.074 667.181 671.766 680.02 688.834 686.34C712.867 695.219 742.196 691.191 760.154 671.253C766.763 678.73 774.752 685.049 783.297 690.546C806.106 705.255 823.552 715.692 831.163 744.532C839.774 777.065 839.708 811.201 842 844.624C844.425 880.051 846.695 915.499 849.165 950.926C854.016 1020.96 860.225 1090.92 865.81 1160.88C868.57 1195.48 871.64 1230.06 874.021 1264.69C876.202 1296.47 877.515 1329.09 869.838 1360.2C852.681 1429.69 790.195 1457.87 728.777 1472.98C718.652 1475.47 720.745 1492.38 731.248 1491.98C760.154 1490.87 788.949 1489.49 817.433 1483.84C834.545 1480.45 850.456 1472.15 864.208 1460.96C873.443 1460.6 882.411 1463.63 891.757 1461.85C903.595 1459.62 912.652 1452.75 918.238 1441.6C931.077 1415.92 932.146 1380.23 924.135 1353.19C923.49 1351.01 922.377 1349.36 921.042 1348.05C926.093 1308.53 922.488 1266.96 919.306 1227.88L900.858 1000.62C900.279 993.429 899.701 986.219 899.123 979.009C900.547 977.006 901.526 974.647 901.793 972.021C907.468 917.547 903.239 862.983 900.124 808.375C898.655 782.428 897.164 756.436 894.961 730.556C892.781 705.033 892.936 677.617 881.409 654.452C877.181 645.93 866.144 647.286 861.56 654.185C856.33 652.338 850.233 653.429 845.961 657.813C838.773 665.156 831.163 661.372 823.041 658.413C817.255 656.299 811.602 660.082 809.154 665.334C793.577 658.947 777.311 653.295 766.785 641.412C806.64 664.933 862.205 655.231 896.853 625.657C917.258 608.255 929.031 580.974 936.53 555.183C944.63 527.322 944.829 501.642 925.225 479.323C917.792 470.844 903.262 477.454 903.506 488.714Z" fill="#592642"/>
<path opacity="0.3" d="M1356.77 80.9981C1358.15 105.276 1360.51 126.839 1353.15 150.582C1346.36 172.457 1336.66 194.109 1319.37 209.151C1274.66 248.027 1239.48 191.35 1198.47 178.51C1196.18 177.798 1194.06 177.997 1192.26 178.821C1190.81 130.332 1188.5 81.9104 1184.43 33.4662C1183.49 22.2508 1168.74 22.2953 1167.71 33.4662C1162.46 91.2788 1157.95 149.803 1156.92 207.883C1156.9 208.617 1156.9 209.33 1156.88 210.064C1155.56 225.864 1153.81 241.574 1151.14 256.995C1148.24 273.662 1142.86 289.35 1138.36 305.528C1134.31 320.126 1132.09 335.08 1119.34 344.449C1107.28 353.305 1090.61 354.818 1076.34 356.109C1056.01 357.956 1035.91 359.647 1015.68 362.54C972.535 368.748 928.23 373.577 886.105 385.438C876.381 388.175 874.868 405.911 886.105 407.557C934.883 414.723 985.13 414.122 1034.31 414.634C1069.6 414.99 1111.62 414.522 1143.59 395.741C1162.77 403.908 1186.41 385.683 1192.59 365.166C1202.16 333.5 1194.51 294.625 1194.04 262.136C1193.79 245.468 1193.48 228.801 1193.1 212.156C1218.18 268.589 1295.87 289.862 1344.51 252.878C1394.49 214.893 1417.72 130.243 1381.99 73.8994C1375.09 62.9956 1355.93 66.1555 1356.77 80.9981Z" fill="#592642"/>
<path opacity="0.3" d="M70.7188 294.156C93.9507 318.167 135.208 312.671 164.092 303.502C194.778 293.778 219.946 268.877 219.612 233.762C219.434 214.847 198.717 208.216 186.01 219.253C162.378 239.793 129.956 257.216 98.3568 251.453C69.3837 246.157 48.4436 230.557 29.64 207.904C23.2757 200.249 12.0605 208.505 14.13 217.317C20.5611 244.977 41.2783 268.143 66.0011 280.96C65.3558 285.255 66.6243 289.928 70.7188 294.156Z" fill="#592642"/>
<path opacity="0.3" d="M309.557 415.101C332.878 416.748 356.333 418.283 379.676 417.282C401.862 416.325 423.959 413.054 445.989 410.317C455.202 409.182 464.971 407.358 474.295 408.114C482.884 408.804 489.115 414.122 497.46 415.48C509.053 417.371 520.536 408.315 517.042 395.074C505.738 352.171 434.039 373.022 405.489 376.159C379.587 379.008 353.862 384.059 327.96 386.551C300.923 389.177 274.02 386.507 247.072 388.042C237.592 388.576 235.812 401.972 244.846 405.132C265.119 412.253 288.328 413.611 309.557 415.101Z" fill="#592642"/>
<path opacity="0.3" d="M730.427 199.939C726.087 194.866 720.28 194.02 715.139 195.8C714.427 194.532 713.804 193.219 713.047 191.973C706.282 180.601 692.063 188.635 693.643 200.495C699.184 241.974 713.737 282.03 719.812 323.643C722.816 344.182 721.77 367.258 726.599 387.285C729.982 401.327 740.663 411.252 755.239 409.071C791.889 403.597 786.682 349.7 779.005 324.065C772.685 303.014 765.164 282.319 758.109 261.513C750.721 239.594 745.514 217.563 730.427 199.939Z" fill="#592642"/>
<path opacity="0.3" d="M305.307 909.624C306.464 917.635 307.287 925.669 307.91 933.368C307.933 933.724 307.933 934.081 307.955 934.437C313.185 956.823 314.141 980.477 311.938 1003.91C316.678 1004.93 322.286 1002.62 324.333 996.833C331.766 975.671 334.725 952.35 338.53 930.186C341.735 911.449 341.334 893.892 336.973 875.4C328.65 840.085 307.465 810.021 275.889 793.799C207.439 758.662 128.465 793.131 59.0806 763.735C49.8235 759.819 43.7928 775.485 52.3378 780.403C99.981 807.774 153.41 801.699 204.769 810.466C204.97 813.226 206.483 815.918 209.821 817.81C229.492 829.003 250.231 840.151 267.054 855.84C277.113 865.23 283.077 877.046 289.552 888.707C290.798 890.754 291.978 892.824 293.113 894.916C295.405 898.788 297.852 902.593 300.611 906.22C301.991 908 303.616 909.09 305.307 909.624Z" fill="#592642"/>
<path opacity="0.5" d="M672.37 189.993C657.239 204.146 649.071 227.088 641.795 246.47C634.251 266.565 628.532 287.393 624.838 308.6C623.57 309.646 622.524 311.181 621.901 313.251C612.622 344.383 599.871 382.613 616.293 413.5C617.873 416.459 620.611 418.039 623.548 418.44C626.018 430.946 630.869 442.406 641.461 447.168C647.803 450.017 653.455 448.681 657.616 442.762C668.52 427.208 658.551 404.042 656.148 386.752C653.211 365.745 652.588 344.427 654.012 323.243C655.48 301.813 659.308 280.562 665.672 260.111C672.036 239.661 684.12 220.88 689.193 200.229C691.774 189.748 679.758 183.072 672.37 189.993Z" fill="#FFF7F7"/>
<path opacity="0.5" d="M1157.63 5.24949C1147.18 3.95883 1138.41 0.487256 1127.82 0.865553C1117.89 1.2216 1107.86 2.84629 1097.98 3.82541C1075.59 6.02844 1053.2 8.1868 1030.79 10.2786C988.492 14.2173 946.167 17.889 903.798 21.0267C889.868 22.0503 875.959 22.9849 862.007 23.8972C795.961 25.4104 729.915 26.9904 663.868 28.2588C641.638 28.6816 619.408 29.2379 597.177 29.8387C534.647 27.7692 472.094 23.6748 409.586 24.9655C371.712 25.7443 333.593 29.2378 296.52 37.6049C296.275 32.5535 293.249 27.4802 288.287 26.5678C283.502 25.6999 279.007 23.0293 274.223 21.8722C267.525 20.2477 259.825 20.7597 253.105 21.9391C240.488 24.1643 229.027 30.6177 222.552 42.434C221.217 44.8595 220.104 47.4853 219.169 50.2446C218.368 51.7133 217.879 53.3601 217.745 55.0513C214.407 68.6477 215.587 84.5362 222.419 96.2411C219.192 106.01 217.033 116.313 215.653 126.883C195.27 90.8114 139.727 81.7322 103.833 89.2759C62.9774 97.8655 28.3077 129.732 19.8294 172.457C17.4039 184.718 33.092 188.701 37.4758 177.53C49.8484 145.954 80.579 125.37 112.044 120.341C126.932 117.96 142.197 119.295 156.461 124.346C172.394 129.976 184.166 141.77 199.164 148.958C204.549 151.539 210.001 150.582 213.829 147.578C212.649 171.188 213.962 195.333 214.14 217.363C214.496 264.227 214.808 317.344 229.139 362.228C232.232 371.93 245.472 370.039 246.073 359.847C248.476 319.102 243.403 277.623 244.471 236.678C245.45 198.759 248.187 159.95 255.998 122.811C260.382 101.982 266.79 87.9183 287.508 81.8656C336.352 67.5793 387.712 65.4655 438.181 66.1108C557.3 67.6017 679.69 77.1482 800.011 69.7603C922.001 62.2834 1045.53 49.3101 1166.58 31.8862C1176.39 23.9642 1171.28 6.9407 1157.63 5.24949Z" fill="#FFF7F7"/>
<path opacity="0.5" d="M1254.01 44.3478C1225.86 55.2961 1191.26 79.2181 1184.87 111.952C1182.87 122.188 1193.42 127.796 1200.83 121.632C1222.57 103.585 1236.66 81.977 1264.34 72.2748C1278.31 67.3792 1293.2 65.5099 1307.91 66.4223C1322.8 67.3569 1336.75 74.211 1351.64 73.4099C1361 72.8981 1365.05 61.9941 1359.05 54.7842C1336.15 27.3243 1283.23 32.9766 1254.01 44.3478Z" fill="#FFF7F7"/>
<path opacity="0.5" d="M297.653 643.257C261.425 629.928 222.439 623.253 184.03 623.475C122.969 623.831 29.7076 658.256 35.382 737.565C36.1609 748.335 49.4901 750.048 53.095 740.057C77.5508 672.364 140.393 660.214 202.923 664.687C232.697 666.823 262.115 673.121 290.176 683.802C319.171 694.862 344.94 713.087 373.935 724.235C383.816 728.041 393.051 714.622 387.576 705.766C367.126 672.698 332.144 655.941 297.653 643.257Z" fill="#FFF7F7"/>
<path opacity="0.5" d="M319.64 1002.91C308.914 1046.43 302.928 1091.63 296.653 1136.07C291.49 1172.72 281.254 1211.9 298.321 1246.51C305.086 1260.24 322.243 1249.82 320.396 1236.81C314.9 1198.29 323.044 1159.23 328.162 1121.16C333.281 1083.04 338.198 1044.19 339.467 1005.71C339.823 993.85 322.466 991.446 319.64 1002.91Z" fill="#FFF7F7"/>
<path opacity="0.5" d="M616.2 1405.5C588.785 1341.28 591.077 1260.11 585.914 1191.28C576.879 1070.67 588.206 951.593 589.786 831.095C590.565 771.746 593.725 706.479 580.551 647.954C617.157 655.119 656.21 643.37 678.841 608.478C687.453 595.193 668.005 579.727 657.59 591.388C623.321 629.796 568.045 626.28 535.801 586.938C519.734 567.333 510.455 541.519 508.474 515.973C505.893 482.616 517.375 455.201 524.207 423.669C526.477 413.166 514.238 408.96 508.452 416.748C486.533 446.322 479.435 493.52 483.017 529.837C486.244 562.393 499.951 593.702 522.471 616.734C533.286 627.771 546.215 636.25 560.078 641.88C560.012 643.326 559.945 644.772 559.9 646.218C553.18 642.435 543.144 647.042 542.321 656.811C539.094 694.596 542.366 733.25 542.499 771.19C542.61 809.465 541.898 847.651 541.809 885.903C541.631 963.721 539.673 1041.54 539.873 1119.38C540.073 1195.68 542.365 1272.08 550.421 1347.96C554.137 1382.99 559.789 1448.21 589.363 1475.85C594.593 1476.87 599.822 1477.98 605.029 1479.14C617.624 1479.65 630.019 1481.25 641.968 1485.01C646.196 1482.66 648.644 1478.56 649.49 1474.11C649.179 1475.8 674.591 1479.43 676.215 1479.09C680.288 1478.25 683.381 1475.29 684.761 1471.31C678.174 1465.32 671.454 1460.42 664.867 1455.86C645.685 1442.51 627.527 1432.03 616.2 1405.5Z" fill="#FFF7F7"/>
<path d="M1274.24 27.503C1251.39 30.9299 1229.87 41.7224 1212.42 57.3661C1207.7 61.6164 1201.7 67.5581 1196.24 74.3229C1196.4 53.7391 1196.8 29.9287 1182.07 15.4422C1165.47 -0.891339 1139.37 1.93443 1118.51 2.44624L1024.32 4.69407C960.275 6.22951 896.21 7.76496 832.166 9.3004C702.789 12.4158 573.433 15.3531 444.056 18.602C408.919 19.5144 373.737 20.3822 338.556 21.2278C306.957 22.0066 273.154 19.6479 242 25.3669C220.727 29.2166 206.641 43.2803 205.351 66.2674C204.861 75.5913 204.527 84.9598 204.282 94.3282C195.782 87.2073 185.923 81.4661 177.645 77.3938C155.348 66.4232 130.781 63.3301 106.481 67.7584C62.5764 75.7026 27.0833 110.039 11.9069 152.986C-19.5363 241.864 56.0789 336.26 144.89 324.132C168.122 320.972 190.129 311.337 208.532 296.183C209.623 295.248 210.98 294.091 212.493 292.711C213.962 312.383 215.564 332.032 217.411 351.681C219.192 370.507 218.168 395.564 231.876 410.206C244.805 424.025 265.878 423.469 282.99 424.604C309.56 426.384 336.197 427.207 362.811 427.162C388.246 427.118 413.636 426.25 439.026 424.559C459.054 423.224 480.172 422.578 500.399 419.285C489.785 432.993 483.777 453.065 479.549 468.219C475.877 481.326 473.474 494.878 472.339 508.519C471.538 508.875 470.826 509.186 470.225 509.453C455.026 516.018 436.779 523.828 430.927 541.096C429.836 544.368 432.707 547.439 435.644 547.55C448.262 548.106 460.211 541.008 471.694 534.443C471.805 537.047 471.916 539.65 472.116 542.209C472.45 546.905 473.029 551.489 473.697 556.073C469.914 560.434 466.664 564.663 464.372 567.733C458.965 574.854 442.342 602.737 462.147 603.872C463.972 603.939 466.309 602.693 467.065 600.912C469.869 594.414 474.653 587.605 479.682 581.352C488.005 606.854 502.892 629.017 525.479 644.127C525.167 654.719 526.68 665.267 527.258 675.971C528.015 689.945 528.661 703.92 529.262 717.851C526.948 832.363 532.288 947.721 535.425 1061.83C537.25 1126.94 539.386 1192.06 541.856 1257.15C509.879 1244.04 476.211 1232.36 459.254 1198.47C442.253 1164.42 445.391 1123.56 453.291 1087.42C461.858 1048.22 475.521 1010.47 481.018 970.509C486.225 932.768 485.98 894.292 478.57 856.863C452 722.323 337.287 622.542 205.929 617.224C146.67 614.82 64.8019 629.151 35.2503 690.524C22.9222 716.115 21.6095 747.758 37.4757 772.014C55.8342 800.052 87.9223 810.956 118.564 816.297C188.616 828.469 277.093 841.131 300.169 923.755C320.419 996.233 291.023 1069.87 282.189 1141.54C272.754 1217.78 294.428 1294.15 351.996 1344.89C405.737 1392.29 480.439 1406.37 547.064 1384.5C547.709 1406.73 547.598 1431.19 557.612 1451.06C569.517 1474.64 592.682 1481.63 616.381 1485.37C647.023 1490.24 677.977 1493.11 708.953 1493.96C769.48 1495.58 834.792 1491.8 893.406 1474.51C911.809 1469.04 929.722 1458.78 935.842 1438.62C939.847 1425.55 938.645 1411.14 938.378 1397.67C938 1379.54 937.578 1361.38 937.088 1343.24C935.308 1273.3 932.927 1203.34 929.945 1133.44C923.247 976.784 913.477 820.302 900.771 664.044C900.66 662.753 900.349 661.595 899.971 660.549C899.525 656.455 898.902 652.405 898.146 648.377C922.112 628.773 936.153 601.335 941.939 571.383C944.631 573.742 947.279 576.145 950.061 578.393C955.112 582.398 961.633 585.269 966.351 589.608C970.734 593.703 976.297 588.673 974.094 583.377C971.068 576.056 969.933 569.291 964.882 562.904C960.32 557.163 953.955 552.446 948.058 548.262C947.035 547.55 945.945 546.816 944.854 546.059C945.188 537.559 944.965 528.969 944.142 520.424C955.847 523.094 967.418 525.297 979.168 521.336C982.239 520.312 983.975 515.818 981.215 513.348C970.022 503.423 956.982 501.464 942.852 498.816C942.14 498.661 941.45 498.55 940.738 498.372C935.041 471.535 923.759 446.01 907.937 425.516C962.701 427.674 1017.6 425.961 1072.16 420.487C1101.71 417.527 1131.75 414.301 1160.88 408.315C1180.11 404.331 1195.2 394.963 1199.63 373.845C1205.52 345.539 1200.54 312.16 1200.12 283.387C1199.96 271.015 1199.69 258.665 1199.51 246.315C1224.08 271.082 1259.06 286.391 1291.86 289.618C1344.05 294.736 1374.29 260.401 1392.8 213.024C1410.25 168.474 1412.52 113.977 1383.59 73.9222C1358.51 39.3414 1315.32 21.3612 1274.24 27.503ZM205.773 187.589C205.884 190.193 206.04 192.797 206.151 195.378C190.463 201.787 176.556 214.004 161.223 221.08C142.286 229.781 109.864 231.272 110.131 201.119C110.398 174.349 140.328 163.734 161.602 167.428C177.624 170.188 190.886 182.894 205.773 187.589ZM209.778 261.313C209.845 265.808 194.736 277.224 191.22 279.894C182.452 286.659 172.75 291.91 162.425 295.56C144.4 301.968 124.417 303.504 105.814 298.987C65.0688 289.107 33.2701 250.765 28.1965 207.706C23.0116 163.734 47.8451 118.673 85.9641 99.5797C109.018 88.0082 136.634 86.2727 160.667 95.5299C177.223 101.894 189.306 116.559 204.015 125.371C204.059 137.054 204.327 148.714 204.705 160.397C187.103 147.334 159.999 141.66 142.931 143.462C114.893 146.488 89.0796 167.829 87.4106 198.493C85.8529 227.021 106.192 249.274 133.251 251.01C147.604 251.922 161.245 247.36 174.107 241.018C184.7 235.811 196.939 229.87 207.664 222.549C208.421 234.721 209.222 246.871 210.001 258.954C209.868 259.688 209.756 260.445 209.778 261.313ZM964.993 29.7729C951.842 62.1284 935.886 120.942 907.136 98.4225C892.404 86.8956 880.188 67.7582 868.772 52.9156C864.01 46.7294 859.404 39.1411 854.196 32.3762L964.993 29.7729ZM752.546 34.7796C737.993 68.7595 721.08 140.436 687.479 111.374C672.369 98.3116 661.888 78.3505 650.45 61.928C645.243 54.5178 639.88 44.9936 633.248 37.5612C672.992 36.6266 712.78 35.6919 752.546 34.7796ZM440.295 42.0565C469.78 41.3889 499.242 40.6766 528.727 40.009C524.611 46.3065 521.852 54.0727 518.224 61.149C510.747 75.8359 500.378 108.303 482.331 107.39C464.907 106.522 448.596 78.6622 437.469 65.9781C430.771 58.3899 424.384 49.7334 417.019 42.5458C424.763 42.3677 432.506 42.2122 440.295 42.0565ZM368.263 335.392C366.839 358.98 361.342 381.255 357.559 404.309C342.339 404.265 327.14 403.953 311.941 403.374C294.072 402.618 252.682 407.58 244.182 387.553C242.179 382.879 240.821 377.561 239.797 371.931C251.925 362.296 261.605 347.965 272.821 337.595C288.264 323.264 306.311 308.911 325.76 301.056C335.996 296.917 349.237 294.18 359.006 301.301C369.71 308.978 368.997 323.576 368.263 335.392ZM446.236 401.171C436.534 401.928 426.766 402.462 417.019 402.952C419.556 399.77 422.004 396.454 424.718 393.338C434.576 382.079 445.502 370.818 457.674 362.318C472.139 352.237 489.073 349.1 499.043 367.281C504.116 376.582 504.405 386.93 505.495 397.188C485.668 398.212 465.997 399.747 446.236 401.171ZM442.253 1039.27C438.426 1053.18 434.621 1067.22 431.483 1081.44C405.67 1070.58 377.854 1068.09 350.616 1075.3C342.071 1077.59 325.983 1083.04 313.499 1091.21C319.351 1061.52 325.627 1032.02 328.119 1002.13C330.545 1001.06 332.925 999.304 335.818 997.368C347.835 989.29 359.695 982.058 373.692 978.275C403.555 970.197 427.433 978.787 454.003 991.026C450.731 1007.16 446.682 1023.23 442.253 1039.27ZM461.725 907.177C462.548 927.494 461.124 947.321 458.253 966.926C420.735 943.672 362.878 946.921 329.254 976.339C329.298 965.123 328.653 953.863 327.051 942.448C324.737 926.159 320.509 911.316 314.5 897.853C320.308 890.287 323.001 878.872 328.675 871.395C338.088 859.111 350.817 849.787 364.235 842.822C381.436 833.899 400.217 828.425 419.444 831.718C431.839 833.854 441.408 839.617 452.045 844.513C457.497 864.63 460.857 885.592 461.725 907.177ZM121.101 792.82C89.013 786.878 47.8006 771.524 48.3569 730.513C49.3805 655.32 147.471 639.143 204.905 641.123C187.37 650.759 171.927 665.913 161.023 681.868C139.327 713.6 131.137 759.686 144.2 797.048C136.545 795.624 128.845 794.289 121.101 792.82ZM239.865 823.773C235.592 821.726 231.208 819.768 226.647 817.988C206.13 809.91 185.279 804.926 164.183 800.786C164.138 800.564 164.138 800.275 164.116 800.03C156.661 762.045 156.061 725.794 179.537 693.127C197.251 668.449 222.307 658.324 247.786 646.352C292.87 655.876 334.016 677.528 367.907 707.837C360.541 707.748 353.242 708.46 347.012 709.372C324.336 712.643 303.396 722.568 285.838 737.789C269.549 751.92 256.554 770.5 248.387 790.884C245.005 799.273 240.132 812.313 239.865 823.773ZM301.771 875.088C290.445 858.643 275.892 844.936 258.468 833.943C262.918 822.839 263.652 808.664 268.481 798.05C275.78 781.917 285.95 767.296 298.968 755.658C312.498 743.531 329.232 735.297 346.811 732.115C362.9 729.199 378.299 735.074 393.742 734.229C413.591 757.416 429.836 783.986 441.475 812.87C432.44 810.199 422.96 808.82 415.55 808.108C393.809 806.016 372.402 812.914 353.198 823.106C336.53 831.962 321.265 844.313 310.316 860.223C307.468 864.34 304.219 869.547 301.771 875.088ZM305.844 1133.82C306.534 1129.26 307.313 1124.72 308.069 1120.16C311.363 1118.87 314.411 1116.73 317.749 1114.48C328.253 1107.41 338.978 1101.49 351.084 1097.88C375.873 1090.41 402.243 1092.05 425.719 1103.36C426.209 1103.6 426.743 1103.76 427.232 1103.91C424.963 1118.51 423.828 1133.29 424.585 1148.15C424.963 1155.83 425.786 1163.55 427.166 1171.09C384.463 1168.78 332.97 1203.69 313.387 1245.26C302.038 1210.46 300.103 1172.21 305.844 1133.82ZM363.59 1324.37C347.301 1309.22 334.617 1292.06 325.092 1273.48C335.929 1245.78 351.662 1226.28 376.785 1211.22C388.535 1204.16 401.464 1197.69 414.882 1195.13C421.158 1193.9 427.388 1194.93 433.219 1194.5C437.936 1208.06 444.656 1220.76 453.914 1231.73C456.984 1235.41 460.301 1238.79 463.75 1241.93C427.166 1259.33 397.948 1306.17 392.073 1345.8C382.015 1339.73 372.424 1332.65 363.59 1324.37ZM409.497 1354.92C416.039 1333.07 423.25 1312.53 437.269 1294.51C450.487 1277.51 467.043 1268.56 483.532 1256.48C501.668 1267.23 522.297 1273.64 542.591 1277.77C543.659 1305.17 544.816 1332.56 545.996 1359.95C501.245 1375.98 452.089 1374.33 409.497 1354.92ZM554.34 850.766C558.568 853.058 563.264 854.749 568.961 857.153C582.49 862.938 596.02 868.68 609.505 874.443C631.268 883.7 685.61 898.721 677.71 933.724C671.635 960.806 630.022 971.443 609.015 979.788C596.287 984.817 583.469 989.512 570.585 994.029C565.489 995.81 560.615 997.145 556.232 999.103C555.431 949.679 555.052 900.212 554.34 850.766ZM558.346 1090.56C580.576 1096.5 602.629 1103.05 624.436 1110.48C644.664 1117.38 685.988 1130.91 676.664 1161.41C670.455 1181.73 635.207 1196.73 618.695 1206.45C600.893 1216.89 581.4 1223.34 562.997 1232C561.283 1184.85 559.703 1137.72 558.346 1090.56ZM911.275 1238.36C912.232 1265.96 913.055 1293.55 913.811 1321.15C898.323 1313.71 879.275 1309.62 865.1 1304.34C844.961 1296.78 801.88 1287.81 797.919 1260.68C794.248 1235.81 839.154 1216.13 855.955 1206.21C872.043 1196.77 892.583 1189.56 908.983 1178.77C909.784 1198.64 910.607 1218.49 911.275 1238.36ZM908.182 1158.39C896.855 1160.52 886.196 1166.18 875.648 1171.14C859.07 1178.93 842.914 1187.63 827.315 1197.31C805.596 1210.82 774.331 1227.02 775.31 1257.92C776.289 1287.14 801.502 1304.01 824.778 1313.78C841.624 1320.79 858.869 1326.82 875.915 1333.25C888.042 1337.9 901.728 1345.58 915.102 1347.78C916.682 1372.77 918.818 1398.76 915.859 1422.64C911.964 1454.22 873.267 1455.77 849.278 1460.16C817.168 1465.99 784.612 1469.42 752.056 1470.55C725.687 1471.48 699.228 1470.97 672.903 1468.93C657.148 1467.7 641.393 1466.01 625.75 1463.65C609.55 1461.2 589.477 1459.47 579.263 1444.16C565.022 1422.75 569.25 1386.26 568.159 1361.58C566.802 1330.45 565.556 1299.31 564.332 1268.16C564.132 1263 563.954 1257.88 563.753 1252.74C591.792 1250.54 621.454 1231.18 644.086 1217.07C665.626 1203.65 696.869 1188.96 699.673 1159.37C702.321 1131.37 681.382 1110.08 658.751 1099.37C626.929 1084.33 591.57 1075.47 557.656 1066.86C557.234 1050.84 556.855 1034.75 556.566 1018.69C566.268 1018.84 576.371 1014.35 585.739 1011.36C604.142 1005.47 622.278 998.858 640.125 991.248C665.849 980.299 697.07 965.435 700.252 932.523C703.434 899.7 675.507 878.427 649.916 866.9C632.937 859.222 615.669 852.213 598.512 844.936C584.382 838.95 569.339 829.114 554.007 828.291C553.028 770.701 551.425 713.2 547.998 655.877C581.622 669.028 619.563 666.625 650.628 646.352C652.631 645.017 654.634 643.593 656.637 642.102C673.482 659.815 732.585 665.334 753.747 643.882C754.281 644.238 754.771 644.594 755.26 644.906C789.507 667.07 839.487 679.041 878.007 661.284C877.896 662.151 877.851 663.064 877.94 664.044C879.987 689.278 881.901 714.512 883.837 739.747C873.645 742.306 864.076 748.337 854.73 753.321C837.64 762.423 821.062 772.481 804.818 783.074C781.608 798.228 753.169 817.921 755.928 850.611C758.376 879.495 788.618 892.49 810.203 903.439C826.87 911.895 843.938 919.528 861.206 926.582C872.355 931.144 885.395 939.644 897.144 936.862C897.322 940.333 897.523 943.828 897.745 947.299C887.665 950.837 878.029 958.002 869.262 963.076C852.906 972.556 836.416 982.058 820.506 992.361C799.655 1005.89 768.59 1026.85 766.053 1055.18C763.227 1086.71 802.436 1097.46 823.643 1107.9C840.755 1116.33 858.068 1124.43 875.381 1132.42C886.463 1137.49 896.366 1144.1 907.737 1144.9C907.892 1149.42 908.003 1153.89 908.182 1158.39ZM735.923 629.663C733.164 631.754 730.337 633.802 727 634.892C720.502 637.095 713.47 637.406 706.705 637.495C693.02 637.607 683.317 633.957 671.946 628.706C684.942 615.488 695.935 599.154 702.744 581.508C709.62 599.71 721.926 616.489 735.923 629.663ZM658.15 383.347C646.022 384.415 632.047 386.685 621.299 393.072C620.32 393.628 619.496 394.251 618.606 394.852C615.847 384.526 614.868 374.112 616.181 361.895C618.562 340.333 624.637 318.747 631.446 298.297C639.88 272.706 669.432 182.093 708.908 202.009C724.886 210.087 734.899 235.989 742.243 251.655C751.322 270.97 758.465 291.221 764.051 311.916C769.792 333.212 777.78 365.211 772.662 390.045C754.148 375.825 725.665 379.23 704.013 379.697C688.569 379.987 673.415 381.989 658.15 383.347ZM885.484 761.532C889.267 812.736 892.627 863.985 895.765 915.255C894.185 914.543 892.36 913.831 890.202 913.007C875.693 907.466 861.206 901.903 847.009 895.561C827.471 886.905 781.786 873.397 778.27 848.563C774.197 819.546 818.77 799.474 838.619 787.48C852.46 779.09 871.042 771.924 885.484 761.532ZM898.925 968.706C900.371 993.851 901.751 1019.02 903.041 1044.17C904.332 1069.87 905.467 1095.52 906.602 1121.23C902.596 1119.09 898.146 1117.38 893.25 1115.13C880.21 1109.19 867.259 1103.09 854.285 1097.02C841.334 1090.92 828.316 1084.89 815.41 1078.75C801.724 1072.25 782.654 1064.97 792.623 1045.52C804.751 1021.87 839.22 1006.51 860.227 992.961C870.997 986.063 886.775 978.43 898.925 968.706ZM918.084 401.884C917.038 393.227 913.144 384.215 913.277 375.425C913.723 349.412 934.707 336.327 956.737 349.678C970.222 357.867 979.791 372.866 989.003 385.417C993.12 391.047 996.369 396.988 1000.64 401.483C973.137 402.551 945.633 402.573 918.084 401.884ZM1019.89 400.615C1019.96 388.02 1009.5 378.963 1002.24 369.083C995.924 360.493 989.738 351.725 982.172 344.271C967.485 329.717 946.723 319.348 926.14 325.067C906.713 330.452 895.787 349.656 894.251 369.617C893.561 378.429 894.185 391.269 898.146 401.216C894.096 401.06 890.09 400.905 886.062 400.749C863.387 399.681 884.126 430.901 889.155 438.334C901.06 455.958 910.652 474.072 916.437 494.655C912.476 494.856 908.738 495.834 905.511 498.126C903.575 499.506 902.529 502.221 903.931 504.424C907.714 510.499 913.989 513.436 920.821 515.328C921.8 522.093 922.334 528.903 922.445 535.712C918.106 534.755 913.745 534.644 909.628 535.712C904.443 537.092 903.353 543.656 906.646 547.483C910.474 551.934 915.725 555.161 921.199 558.12C917.527 585.447 906.045 611.104 884.705 629.596C853.462 656.678 804.773 646.998 771.861 628.15C735.433 607.277 722.015 574.699 710.599 536.268C719.745 530.638 725.798 519.267 731.717 510.833C741.508 496.947 751.299 482.995 761.113 469.064C772.15 453.354 789.219 435.018 787.572 415.48C788.751 413.522 789.797 411.475 790.753 409.383C802.547 383.125 796.718 352.216 790.709 325.179C784.123 295.738 774.576 266.876 761.691 239.75C751.344 217.987 737.57 188.101 713.893 179.378C660.776 159.707 630.69 237.903 616.337 276.289C603.564 310.38 576.883 385.438 607.147 418.818C608.192 427.741 613.088 437.199 618.718 446.211C619.363 447.235 620.053 448.214 620.676 449.193C628.264 466.283 639.035 482.216 649.538 496.636C658.484 508.83 671.88 530.794 688.28 537.692C688.28 537.959 688.235 538.293 688.235 538.604C688.124 540.14 688.124 541.564 688.124 543.01C681.092 576.79 669.12 606.342 639.257 626.058C608.838 646.174 570.362 645.151 539.765 626.013C516.488 611.46 503.515 588.74 497.485 563.194C504.361 557.208 511.059 550.643 511.304 542.365C511.415 539.962 509.724 538.315 507.743 537.492C503.315 535.645 498.531 536.513 493.769 538.827C493.435 534.532 493.212 530.215 493.168 525.876V524.251C502.358 520.602 514.019 514.616 509.768 506.316C506.898 500.686 501.045 499.618 494.569 500.597C496.038 488.402 498.62 476.342 502.269 464.548C504.605 456.959 508.21 449.593 511.637 442.161C520.093 431.368 534.313 408.849 524.856 400.237C526.636 368.638 510.191 329.139 474.831 333.123C456.05 335.237 439.872 349.367 426.832 362.518C416.128 373.222 401.353 387.797 396.479 403.686C391.294 403.842 386.132 403.998 380.947 404.087H379.612C388.224 379.52 391.45 348.744 390.538 324.11C389.626 298.92 376.207 278.692 351.195 275.065C323.802 271.082 297.61 289.907 276.982 306.308C264.699 316.077 248.454 329.295 237.305 344.538C236.927 334.97 236.771 325.557 236.059 317.501C233.945 293.446 232.165 269.391 230.429 245.358C228.382 217.297 228.271 187.767 225.622 158.883C223.464 135.028 226.49 110.35 225.622 86.2948C225.133 72.4313 222.374 54.4958 237.951 48.2427C248.899 43.8367 262.918 45.4831 274.445 45.3274C314.767 44.7488 355.089 43.9034 395.411 43.0133C403.311 64.9323 425.786 85.8052 439.516 102.695C451.488 117.449 466.308 135.206 486.981 132.892C505.451 130.778 516.333 114.111 524.656 98.5339C531.376 85.8943 537.74 73.0321 544.26 60.3036C548.466 52.1145 552.004 47.0408 551.515 39.4304C572.254 38.9631 592.971 38.4736 613.667 38.0063C615.781 47.2635 621.989 55.3634 627.151 63.5524C634.784 75.5911 642.84 87.4074 650.695 99.2904C662.222 116.603 675.15 137.076 696.758 140.703C717.275 144.174 734.432 129.843 744.245 112.353C750.899 100.581 755.194 86.9623 759.956 74.3005C764.829 61.3494 771.527 48.0424 773.597 34.2234C792.912 33.7561 812.25 33.3111 831.565 32.8438C837.195 51.8922 855.976 71.3855 866.435 85.16C879.653 102.628 897.567 130.867 922.468 127.863C944.164 125.26 958.851 99.6687 968.598 81.9332C976.23 68.1143 987.869 47.3748 988.893 29.1943L1103.36 26.5238C1122.68 26.0564 1163.29 16.844 1171.28 42.2344C1175.28 54.9407 1173.08 71.9862 1173.39 85.1821C1173.77 102.027 1174.15 118.873 1174.48 135.718C1175.66 191.417 1176.59 247.16 1177.31 302.859C1177.35 308.399 1177.46 314.007 1177.57 319.548C1164 307.376 1144.51 298.497 1131.06 292.823C1108.61 283.388 1079.06 274.353 1054.85 280.494C1031.57 286.391 1022.12 307.621 1023.72 331.031C1025.19 352.794 1030.93 380.076 1043.81 399.057C1035.91 399.68 1027.9 400.192 1019.89 400.615ZM1177.95 353.417C1177.8 370.774 1174.75 380.899 1157.17 384.86C1128.19 391.402 1097.91 394.117 1068.45 396.988C1065.42 397.255 1062.39 397.5 1059.39 397.744C1052.25 362.229 1020.85 294.425 1076.08 300.01C1095.95 302.013 1116.18 309.579 1133.78 318.992C1142.86 323.799 1151.58 329.34 1159.75 335.637C1166.36 340.755 1170.9 345.94 1177.95 348.9V353.417ZM1370.95 205.169C1361.76 228.245 1347.36 256.617 1322.82 263.894C1274.6 278.18 1229.56 243.822 1198.82 209.82C1198.76 205.102 1198.67 200.407 1198.6 195.69C1239.84 238.638 1346.38 221.68 1335.23 150.427C1329.65 114.444 1296.63 94.6839 1263.36 99.179C1240.08 102.317 1212.49 118.895 1197.49 141.415C1197.27 130.911 1197.04 120.364 1196.8 109.839C1207.35 100.27 1215.43 84.1362 1225.71 75.2129C1242.75 60.3703 1264.09 50.4457 1286.48 49.6223C1334.34 47.8421 1376.34 83.5576 1382.01 133.382C1384.81 157.793 1379.94 182.627 1370.95 205.169ZM1203.45 167.784C1216.76 154.432 1226.2 137.431 1243.66 127.996C1267.43 115.156 1303.95 117.716 1312.51 148.936C1321.33 180.891 1285.3 196.401 1260.4 196.29C1235.63 196.134 1221.03 181.759 1203.45 167.784Z" fill="#3D2938"/>
<path d="M801.256 573.297C800.01 569.959 798.341 567.556 795.092 566.087C791.776 564.641 788.772 565.108 785.612 566.644C785.457 566.71 785.301 566.8 785.123 566.889C781.762 568.535 779.648 573.186 779.648 576.88C779.648 581.53 782.452 585.692 786.48 587.472C790.152 589.119 794.313 588.541 797.473 585.982C800.677 583.423 803.059 578.081 801.479 573.809L801.256 573.297Z" fill="#3D2938"/>
<path d="M816.323 520.402C810.159 518.955 804.15 522.338 802.303 528.702C802.036 529.615 801.813 530.482 801.613 531.417C800.323 537.113 802.859 542.9 808.111 545.192C812.762 547.239 819.86 545.747 822.13 540.429C822.887 538.627 823.644 536.847 824.289 535C825.268 532.24 824.511 528.302 823.109 525.876C821.774 523.384 819.037 521.025 816.323 520.402Z" fill="#3D2938"/>
<path d="M841.109 558.032C837.371 556.385 831.919 556.941 829.137 560.39C826.178 564.062 824.264 568.379 825.844 573.297C827.245 577.703 830.517 580.93 835.034 581.553C839.685 582.176 843.424 579.906 846.072 576.034C847.518 573.942 848.141 571.005 847.897 568.446C847.385 563.817 845.493 559.945 841.109 558.032Z" fill="#3D2938"/>
<path d="M629.42 579.795C632.335 579.127 634.672 576.88 636.252 574.365C638.544 570.582 637.943 566.176 636.252 562.393C634.293 558.054 629.064 556.14 624.881 556.719C618.183 557.654 613.621 564.641 615.445 571.517C617.114 577.903 623.412 581.241 629.42 579.795Z" fill="#3D2938"/>
<path d="M579.997 534.02C580.264 540.362 584.937 545.703 591.213 545.703C597.11 545.703 602.739 540.318 602.472 534.02C602.205 527.678 597.533 522.293 591.213 522.293C585.36 522.293 579.73 527.678 579.997 534.02Z" fill="#3D2938"/>
<path d="M573.767 562.525C570.584 562.681 568.248 563.905 565.8 565.996C566.29 565.574 566.757 565.173 567.247 564.728C562.217 567.999 559.792 575.476 563.196 580.95C566.267 585.868 573.588 589.05 578.729 585.156C579.775 584.377 580.843 583.576 581.8 582.641C586.139 578.435 586.228 570.202 581.8 565.996C579.619 563.882 576.793 562.347 573.767 562.525Z" fill="#3D2938"/>
<path d="M881.476 179.601C867.791 177.242 853.104 180.736 842.668 190.394C797.739 231.918 860.581 304.461 904.864 262.359C922.733 245.313 924.246 212.958 908.046 194.221C901.17 186.255 891.601 181.337 881.476 179.601Z" fill="#3D2938"/>
<path d="M551.159 206.593C549.801 204.857 548.355 203.277 546.931 201.831C503.093 157.459 429.303 224.706 470.982 276.533C488.584 298.408 523.699 301.656 544.661 283.298C565.645 265.006 568.738 228.445 551.159 206.593Z" fill="#3D2938"/>
</g>
<defs>
<filter id="filter0_d_403_14595" x="0.650391" y="0.836914" width="1409.04" height="1501.46" filterUnits="userSpaceOnUse" color-interpolation-filters="sRGB">
<feFlood flood-opacity="0" result="BackgroundImageFix"/>
<feColorMatrix in="SourceAlpha" type="matrix" values="0 0 0 0 0 0 0 0 0 0 0 0 0 0 0 0 0 0 127 0" result="hardAlpha"/>
<feOffset dy="4"/>
<feGaussianBlur stdDeviation="2"/>
<feComposite in2="hardAlpha" operator="out"/>
<feColorMatrix type="matrix" values="0 0 0 0 0 0 0 0 0 0 0 0 0 0 0 0 0 0 0.25 0"/>
<feBlend mode="normal" in2="BackgroundImageFix" result="effect1_dropShadow_403_14595"/>
<feBlend mode="normal" in="SourceGraphic" in2="effect1_dropShadow_403_14595" result="shape"/>
</filter>
</defs>
</svg>
