<svg width="1497" height="1607" viewBox="0 0 1497 1607" fill="none" xmlns="http://www.w3.org/2000/svg">
<g filter="url(#filter0_d_403_14651)">
<path d="M354.218 53.7526C353.084 52.5732 351.949 51.3939 350.769 50.2145C349.145 48.5678 347.52 46.8988 345.918 45.2299C340.956 40.134 335.838 34.8599 330.386 30.1423C326.046 26.4039 322.53 23.8673 319.037 21.9313C313.051 18.7047 301.769 17.4804 296.161 23.5999C284.456 36.2839 291.377 65.769 295.493 83.3709C295.983 85.4404 296.406 87.3098 296.762 88.9565L298.186 95.2762C298.342 95.9438 298.854 96.4779 299.521 96.6337C303.082 97.5016 306.753 97.9023 310.47 97.9023C321.084 97.9023 331.877 94.4527 340.355 88.0662C350.369 80.567 353.551 71.7773 356.889 62.4756L358.09 59.182C358.335 58.5144 358.18 57.7801 357.69 57.2683C356.511 56.1334 355.353 54.932 354.218 53.7526Z" fill="#FFCC99"/>
<path d="M319.619 176.564C324.826 178.5 330.523 179.368 336.398 179.368C352.954 179.368 370.733 172.491 381.749 163.435C400.374 148.125 402.956 128.676 405.47 109.873C405.537 109.361 405.381 108.827 405.025 108.426C399.929 102.64 394.856 96.8768 389.648 91.1579C384.018 85.0161 378.366 78.9189 372.625 72.8439C372.202 72.3989 371.601 72.1982 371.001 72.3095C370.4 72.3985 369.91 72.799 369.643 73.3553C364.325 84.9712 353.532 96.6096 342.161 103.018C329.722 110.006 315.391 111.853 303.864 107.959C303.241 107.759 302.551 107.892 302.062 108.337C301.572 108.782 301.372 109.449 301.505 110.095L304.376 122.756C306.178 130.723 308.003 138.69 309.783 146.678C310.985 151.952 312.209 157.249 313.522 162.634C313.589 162.879 313.7 163.123 313.856 163.323C316.326 166.505 317.861 169.91 318.44 173.426C318.506 173.804 318.484 174.205 318.417 174.717C318.328 175.474 318.818 176.274 319.619 176.564Z" fill="#FFCC99"/>
<path d="M461.015 203.579C463.084 197.972 465.554 192.453 468.336 187.134C468.67 186.511 468.603 185.755 468.158 185.176C452.803 165.149 436.381 144.877 419.357 124.938C418.912 124.404 418.156 124.181 417.466 124.381C416.776 124.581 416.264 125.16 416.175 125.873C413.082 147.391 396.86 169.955 376.721 180.748C362.502 188.358 339.225 192.92 322.291 186.912C321.668 186.69 320.978 186.823 320.488 187.268C319.999 187.713 319.776 188.381 319.932 189.026C321.89 197.415 324.36 208.475 326.207 219.757C327.031 222.516 327.832 225.298 328.655 228.079L331.081 236.335C332.304 240.518 333.662 244.725 335.042 248.975C337.022 255.095 339.092 261.436 340.716 267.711C340.805 268.045 340.983 268.334 341.206 268.557C342.519 269.825 343.965 270.382 345.478 270.382C348.972 270.382 353 267.556 357.428 264.418C362.813 260.636 367.864 256.163 372.782 251.846C377.322 247.84 382.017 243.701 386.935 240.162C404.648 227.278 431.441 209.588 459.635 204.736C460.258 204.625 460.792 204.18 461.015 203.579Z" fill="#FFCC99"/>
<path d="M207.753 390.836C189.216 388.5 173.283 379.531 162.891 365.534C162.468 364.978 161.801 364.711 161.111 364.823C160.421 364.956 159.887 365.445 159.687 366.113C158.975 368.539 158.018 371.053 157.083 373.479C155.614 377.284 154.101 381.223 153.434 385.206C150.185 404.722 155.525 426.663 174.73 431.714C174.885 431.759 175.041 431.781 175.197 431.781C175.731 431.781 176.243 431.558 176.577 431.136C186.702 419.075 197.539 406.257 208.865 393.885C209.333 393.395 209.466 392.661 209.221 392.038C208.999 391.37 208.42 390.925 207.753 390.836Z" fill="#EB63AD"/>
<path d="M454.982 219.467C454.404 219.044 453.625 218.978 453.002 219.334C447.505 222.427 441.809 225.386 436.29 228.279C425.542 233.887 414.416 239.695 404.135 246.704C393.008 254.27 382.572 262.481 373.092 271.071C371.356 272.651 369.621 274.364 367.885 276.122C363.256 280.773 358.45 285.58 352.686 287.939C336.242 294.659 327.207 278.459 324.826 273.319C323.335 270.114 322 266.955 320.709 263.928C313.833 247.684 307.892 233.642 285.327 228.88C265.122 224.607 240.021 231.417 216.388 247.572C189.774 265.775 170.859 291.633 167.032 315.02C162.359 343.548 177.802 367.937 204.55 374.346C215.943 377.061 227.96 375.793 241.311 370.452C259.403 363.331 269.328 357.479 270.841 353.095C274.624 342.102 279.809 331.755 286.24 322.342C286.551 321.897 286.885 321.941 287.108 322.03C287.352 322.119 287.597 322.364 287.486 322.876C286.507 327.549 285.394 332.333 284.259 337.207C277.494 366.313 269.817 399.314 288.465 426.061C298.456 440.392 313.499 449.627 330.834 452.075C333.838 452.498 336.82 452.698 339.78 452.698C353.933 452.698 367.484 447.914 378.7 438.835C396.925 424.081 402.622 401.695 408.118 380.065C410.499 370.675 412.969 360.95 416.441 352.205C421.025 340.633 433.798 313.351 452.868 309.613C453.825 309.435 454.471 308.523 454.315 307.544C449.219 275.722 449.664 246.704 455.628 221.292C455.828 220.624 455.561 219.89 454.982 219.467Z" fill="#EB63AD"/>
<path d="M238.416 152.019C231.762 152.887 227.178 155.402 224.797 159.519C219.568 168.509 225.621 183.24 231.473 197.504C234.588 205.07 237.504 212.236 238.727 218.266C238.839 218.778 239.15 219.223 239.618 219.49C240.085 219.757 240.619 219.802 241.131 219.624C267.233 210.389 291.066 210.433 308.201 219.734C308.468 219.89 308.757 219.957 309.068 219.957C309.469 219.957 309.847 219.824 310.181 219.579C310.76 219.134 311.004 218.399 310.826 217.709C309.091 210.945 307.488 203.98 305.909 197.237C305.219 194.255 304.529 191.251 303.817 188.269C302.993 184.82 302.215 181.393 301.413 177.944L300.345 173.249C300.234 172.781 299.945 172.381 299.544 172.114C298.053 171.179 296.562 170.177 295.071 169.176C291.867 167.018 288.551 164.792 284.902 162.945C276.869 158.873 256.263 149.683 238.416 152.019Z" fill="#FFA7B4"/>
<path d="M688.551 660.784C730.386 655.666 760.294 628.808 770.619 587.084C776.427 563.652 774.691 540.865 765.723 522.884C760.316 511.98 752.06 503.881 744.094 496.048L742.758 494.734C742.046 494.044 740.934 494.045 740.244 494.712C720.862 513.093 696.161 520.103 668.835 514.94C667.143 514.629 666.988 512.96 666.965 512.448C666.943 511.246 667.522 509.8 668.901 509.488L671.127 508.976C687.505 505.193 704.439 501.299 718.992 492.62C734.369 483.497 745.251 468.075 752.305 445.444C759.982 420.9 759.292 397.334 750.347 379.064C745.673 369.473 738.664 362.954 731.877 356.634C729.874 354.764 727.849 352.896 725.891 350.937C725.245 350.292 724.2 350.225 723.465 350.804C715.766 356.945 706.175 361.974 694.959 365.713C692.556 366.514 690.375 364.956 689.307 363.042C688.372 361.351 688.061 358.97 690.019 357.324C692.467 355.276 694.915 353.296 697.318 351.36C712.138 339.41 726.136 328.128 729.518 306.342C732.589 286.515 734.191 261.125 719.282 240.563C708.177 225.164 690.375 213.616 670.481 208.876C658.999 206.139 648.318 207.206 638.015 208.252C633.675 208.697 629.18 209.142 624.663 209.298C623.706 209.343 622.927 210.099 622.905 211.056C622.749 216.976 622.415 222.405 621.859 227.657C618.922 256.185 606.816 295.038 581.715 318.515C581.314 318.893 581.114 319.427 581.159 319.983C581.203 320.54 581.493 321.029 581.938 321.341C596.758 331.421 606.594 352.228 610.488 366.981C616.83 390.881 613.047 416.405 599.272 442.908C594.822 451.431 589.949 459.731 585.231 467.764C570.923 492.153 557.393 515.185 554.255 544.759C551.696 568.97 555.19 587.039 564.914 599.99C576.619 615.634 596.869 620.351 615.317 611.762C615.74 611.561 616.296 611.494 616.963 611.561C617.342 611.606 617.72 611.495 618.054 611.317C620.479 609.848 622.994 608.535 625.531 607.378C626.087 607.133 626.732 607.356 627.044 607.69C627.2 607.89 627.333 608.112 627.044 608.579C622.927 615.233 618.21 621.642 613.648 627.85C607.484 636.217 601.12 644.851 596.068 654.353C586.232 672.868 579.868 691.538 577.109 709.83C571.301 748.527 582.494 796.46 633.163 804.204C633.965 804.337 634.41 805.205 634.521 806.028C634.61 806.785 634.454 807.764 633.698 808.098C625.442 811.591 617.475 812.815 610.065 811.68C609.531 811.614 608.975 811.769 608.574 812.125C608.174 812.481 607.951 813.016 607.973 813.572C609.665 847.507 627.979 868.047 658.22 869.938C659.8 870.027 661.38 870.094 662.938 870.094C697.207 870.094 725.802 846.684 741.512 824.031C760.093 797.261 767.348 764.26 761.406 733.484C758.669 719.242 753.44 705.602 745.874 692.94C743.092 688.267 739.865 683.927 736.75 679.744C733.879 675.894 730.898 671.911 728.383 667.772C727.938 667.037 727.026 666.726 726.225 667.015C713.585 671.443 700.567 671.399 687.549 666.86C685.324 666.081 685.257 664.434 685.324 663.766C685.547 662.431 686.57 661.007 688.551 660.784Z" fill="#EB63AD"/>
<path d="M1376.91 993.306C1399.77 996.466 1420.71 1008.04 1437.46 1026.75C1438.11 1027.46 1439.18 1027.55 1439.93 1026.97C1497.01 982.425 1466.77 886.182 1428.36 835.156C1406.75 806.517 1377.18 785.533 1345.11 776.075C1328.96 771.291 1312.4 769.399 1296 770.423C1288.39 770.935 1280.98 772.982 1273.82 774.94L1271.81 775.497C1271.66 775.541 1271.52 775.608 1271.39 775.675C1250.9 787.491 1237.68 803.802 1229.76 827.034C1220.94 852.87 1221.32 880.085 1221.68 906.432C1221.74 911.75 1221.83 917.046 1221.83 922.343C1221.81 950.448 1219.72 983.338 1204.43 1014.29C1197.42 1028.44 1188.37 1041.73 1179.6 1054.57C1170.3 1068.19 1160.7 1082.27 1153.43 1097.54C1135.29 1135.57 1132.29 1179.67 1145.6 1212.61C1155.74 1237.71 1174.9 1256.13 1201.03 1265.9C1212.98 1270.35 1224.35 1272.36 1235.12 1272.36C1284.03 1272.36 1320.32 1231.01 1338.35 1189.49C1338.86 1188.33 1339.77 1187.84 1341.02 1188.06C1342.53 1188.33 1344.22 1189.71 1344.31 1191.4C1344.85 1202.5 1343.07 1213.52 1338.95 1224.11C1338.75 1224.65 1338.79 1225.25 1339.11 1225.71C1339.42 1226.2 1339.91 1226.52 1340.48 1226.56L1345.31 1227.03C1366.63 1229.12 1386.77 1231.1 1407.38 1221.84C1432.92 1210.38 1450.3 1185.77 1456.33 1152.5C1462.27 1119.7 1455.29 1085.01 1437.15 1057.31C1422.46 1034.83 1401.92 1020.68 1380.21 1005.7L1373.57 1001.12C1371.71 999.805 1371.02 997.935 1371.73 996.11C1372.31 994.442 1374.2 992.906 1376.91 993.306Z" fill="#EB63AD"/>
<path d="M1121.68 1209.47C1103.85 1152.81 1127.15 1094.91 1158.9 1048.29C1178.87 1018.94 1196.82 991.037 1200.43 954.765C1203.77 921.185 1199.32 887.272 1203.72 853.759C1208.26 819.49 1226.37 773.895 1260.78 759.631C1263 758.184 1265.43 756.915 1267.92 755.825C1260.22 666.302 1260.58 575.467 1257.44 485.655L1252.66 349.757C1251.85 327.104 1251.1 304.428 1250.25 281.775C1249.43 258.988 1248.69 235.867 1220.61 233.865C1182.2 231.15 1141.75 236.335 1103.36 238.293C1062.91 240.318 1022.43 242.543 982.04 245.303C973.116 245.926 962.413 245.548 953.957 248.974C941.54 254.026 942.118 266.91 941.807 278.415C941.228 298.732 940.939 319.026 940.761 339.342C940.36 378.797 940.538 418.206 941.005 457.638C943.031 620.106 950.396 782.573 945.211 945.085C943.075 1012.91 945.1 1091.44 906.825 1150.79C876.806 1197.28 820.752 1230.01 765.186 1210.4C713.516 1192.16 681.316 1140.44 663.069 1091.49C638.858 1026.6 628.332 952.784 638.546 883.979C634.763 882.71 631.069 881.064 627.442 879.106C604.588 866.555 584.449 833.932 595.932 808.475C571.699 794.256 559.237 755.269 559.927 728.565C560.728 697.456 571.387 658.625 592.839 631.633C579.153 632.1 564.578 626.047 555.098 616.212C531.977 592.112 533.068 552.969 540.144 522.727C549.29 483.496 577.484 454.746 591.125 417.784C597.556 400.404 597.868 381.823 591.704 364.333C586.808 350.425 576.683 341.435 568.561 330.575C561.729 334.558 554.186 337.473 545.952 338.964C541.568 339.787 537.563 334.492 541.301 330.976C555.387 317.669 571.387 307.143 582.447 290.876C595.22 272.117 601.829 250.22 604.143 227.812C606.613 204.157 605.122 180.013 599.715 156.87C597.312 146.523 594.664 133.149 588.967 123.981C585.696 118.796 577.751 112.542 571.32 112.342C566.38 112.164 558.258 119.129 554.275 122.111C523.499 144.876 490.921 173.76 477.369 210.544C469.314 232.574 469.381 256.229 469.892 279.349C470.404 302.069 470.426 324.567 470.627 347.242C470.671 352.494 463.038 353.384 461.637 348.466C459.567 341.323 457.72 333.957 456.051 326.391C451.734 329.952 447.15 333.245 443.634 337.852C437.648 345.618 433.62 354.519 430.416 363.732C424.43 381.222 421.604 399.692 414.527 416.871C401.932 447.469 374.65 469.454 340.67 469.899C310.518 470.3 280.766 450.807 269.15 422.946C263.387 409.016 261.784 393.907 263.298 378.931C252.817 386.363 240.333 391.014 227.515 392.638C209.735 423.592 183.722 450.962 160.557 477.31C133.163 508.441 104.991 538.905 78.711 571.016C54.0994 601.102 29.7549 634.771 25.3934 674.559C20.6758 717.373 44.8423 749.238 75.6178 775.986C101.565 798.551 134.921 817.287 170.37 814.751C187.571 813.549 205.173 807.318 218.347 795.992C230.964 785.133 234.414 771.135 242.336 757.338C257.757 730.524 293.205 736.799 319.041 733.417C354.089 728.833 390.784 717.529 420.291 699.304C483.333 660.406 508.946 595.583 502.493 523.774C501.981 517.921 511.394 515.317 513.819 520.725C547.71 596.251 489.719 682.569 425.52 719.842C396.013 736.932 362.99 747.236 329.388 752.532C331.347 780.37 330.523 808.453 331.213 836.336C332.014 869.025 333.416 901.692 335.864 934.293C340.693 998.603 348.971 1062.62 360.676 1126.02C370.445 1178.61 381.682 1231.41 398.661 1282.21C415.462 1332.57 439.807 1377.43 471.316 1419.94C528.462 1497.04 624.682 1548.11 717.12 1567.38C820.151 1588.83 933.128 1574.68 1025.92 1524.24C1069.92 1500.31 1108.64 1469.07 1138.1 1428.46C1167.63 1387.78 1186.12 1341.72 1193 1291.94C1193.35 1289.34 1194.62 1287.47 1196.38 1286.2C1161.6 1273.74 1133.02 1245.63 1121.68 1209.47ZM80.0239 721.245C64.8475 724.516 48.8033 710.296 44.6865 696.633C39.7464 680.477 50.895 624.556 76.4857 639.265C89.7261 646.853 93.6426 673.201 94.4882 686.886C95.2003 699.036 95.3115 717.951 80.0239 721.245ZM199.499 745.099C186.615 755.558 166.298 759.297 150.031 758.896C133.965 758.495 120.079 746.857 125.308 729.656C132.718 705.222 201.079 645.607 211.671 695.031C215.499 712.944 214.698 732.727 199.499 745.099ZM255.576 472.948C244.65 482.895 225.668 481.938 215.721 471.034C197.897 451.407 215.499 425.928 235.704 424.081C243.181 423.391 250.992 425.928 257.512 433.116C267.437 444.064 266.524 463.045 255.576 472.948ZM421.515 523.64C420.424 541.487 406.717 557.798 389.36 562.138C372.002 566.455 352.375 558.688 342.473 543.824C327.408 521.17 337.31 495.557 356.626 484.23C367.04 478.133 380.214 476.219 393.632 481.249C410.611 487.568 422.583 505.571 421.515 523.64ZM500.423 328.439C496.907 330.108 491.9 327.793 490.943 324.3C489.163 323.254 487.783 321.496 487.361 319.048C481.419 285.847 478.66 248.751 493.324 217.33C503.227 196.213 525.88 171.023 551.271 184.641C608.705 215.328 537.318 311.015 500.423 328.439Z" fill="#FFA7B4"/>
<path d="M538.494 199.039C529.304 198.616 519.468 207.362 514.172 215.64C508.431 224.563 504.381 235.222 502.111 247.283C498.573 265.998 500.531 284.912 502.445 303.182L502.667 305.296C502.734 306.008 503.223 306.609 503.913 306.831C504.091 306.898 504.291 306.92 504.469 306.92C504.981 306.92 505.471 306.698 505.827 306.32L509.877 301.803C517.421 293.413 525.231 284.735 531.774 275.099C542.455 259.255 562.371 229.77 551.49 208.764C547.506 201.042 542.233 199.217 538.494 199.039Z" fill="#FFA7B4"/>
<path opacity="0.1" d="M671.499 312.84C659.416 357.189 653.207 400.115 656.812 446.156C660.773 496.358 673.391 545.358 679.065 595.338C683.071 630.542 681.313 664.433 676.617 699.37C673.546 722.379 669.163 753.288 648.356 767.708C624.702 784.086 607.033 773.427 586.85 759.497C569.849 747.77 546.461 752.71 532.13 766.729C501.866 796.303 505.36 853.226 507.852 891.589C511.19 942.882 521.137 993.618 532.197 1043.71C543.457 1094.65 553.07 1151.23 586.382 1193.03C619.049 1234.01 686.453 1263.77 734.564 1231.41C749.807 1221.15 761.734 1206.98 771.347 1190.96C771.08 1190.87 770.813 1190.8 770.546 1190.71C739.125 1179.36 716.183 1151.66 700.116 1123.46C659.616 1052.48 652.584 967.493 652.785 887.317C682.581 891.166 714.047 877.192 736.099 857.387C764.85 831.462 782.006 792.454 781.539 753.778C781.183 725.028 769.456 679.609 743.109 660.405C765.584 645.118 781.873 617.368 788.148 592C796.426 558.577 790.151 497.938 752.321 483.741C760.132 473.193 766.14 460.709 770.057 446.979C776.777 423.436 777.111 397.622 766.964 375.013C761.445 362.596 750.296 346.53 736.433 339.877C741.306 333.223 744.956 325.457 747.003 316.4C753.145 289.185 753.1 257.319 737.278 233.486C727.064 218.087 712.466 206.138 695.799 198.416C692.817 236.157 681.958 274.476 671.499 312.84Z" fill="#592639"/>
<path opacity="0.1" d="M1447.63 825.901C1424.04 793.79 1391.66 768.666 1353.35 756.805C1337.86 752.021 1312.02 747.66 1289.32 750.374C1290.15 673.001 1284.54 595.117 1281.78 517.833C1278.89 436.767 1276.84 355.655 1273.1 274.61C1272.63 264.663 1271.5 254.538 1268.67 245.393C1244.17 261.993 1220.63 279.84 1199.33 300.601C1170.05 329.174 1149.95 361.485 1139.25 401.028C1125.5 451.898 1126.08 505.349 1130.13 557.487C1133.55 601.481 1140.56 645.163 1143.52 689.179C1146.28 730.236 1147.13 771.492 1146.95 812.615C1146.55 899.134 1140.16 985.764 1125.63 1071.08C1101.78 1211.14 1058.18 1364.39 946.409 1460.15C870.482 1525.22 774.818 1562.67 676.527 1578.42C785.677 1610.76 906.821 1604.15 1012.9 1555.26C1116.93 1507.28 1201.78 1411.48 1214.27 1294.81C1214.42 1293.39 1214.22 1292.1 1213.82 1290.96C1221.43 1292.41 1229.2 1293.25 1237.07 1293.21C1275.66 1292.92 1316.76 1269.91 1335.61 1235.55C1356.79 1253.11 1390.42 1249.57 1414.61 1239.29C1446.54 1225.76 1465.99 1197.17 1473.8 1163.99C1482.61 1126.47 1474.78 1079.49 1452.57 1043.93C1518.79 991.394 1491.11 885.093 1447.63 825.901Z" fill="#592639"/>
<path opacity="0.15" d="M747.046 316.401C747.825 312.996 748.493 309.502 749.049 305.986C747.914 285.402 745.911 264.863 743.241 244.39C741.572 240.607 739.636 236.958 737.344 233.464C724.059 213.437 703.409 199.173 680.377 192.608C664.088 187.935 641.546 185.577 624.678 192.764C623.766 174.406 620.695 156.114 615.533 138.557C610.081 119.909 601.803 96.0534 579.973 92.3594C556.607 88.3984 534.755 111.296 518.666 125.249C503.601 138.267 489.159 152.643 477.543 168.976C449.482 132.66 419.908 97.5894 388.488 64.1435C383.369 58.7361 378.296 53.1501 373.111 47.5646C373.066 47.4534 373.044 47.3424 373 47.2312C372.466 45.896 371.486 45.0504 370.307 44.5385C360.026 33.5457 349.367 22.7977 337.751 13.7631C325.846 4.55043 309.98 -3.43871 294.937 3.0591C256.751 19.5706 278.247 85.3276 284.745 113.856C287.171 124.604 289.708 135.263 292.178 146.011C286.37 143.43 280.539 141.405 275.622 139.847C259.066 134.484 232.362 128.743 216.941 139.691C203.033 149.572 204.791 168.953 208.018 183.485C210.421 194.455 215.317 214.438 225.175 224.385C217.542 228.079 210.443 232.285 204.19 236.758C168.764 262.082 134.049 309.079 153.432 353.006C138.433 359.682 135.607 387.52 136.386 401.317C137.432 420.054 145.71 437.723 162.11 445.555C154.188 454.924 146.177 464.248 137.966 473.238C108.859 505.237 79.2409 537.081 52.6489 571.261C29.3502 601.236 9.03345 634.704 4.91669 673.201C1.73454 703.065 10.2574 728.989 25.9011 751.843C28.2821 751.932 30.6854 751.976 33.0219 751.998C65.6667 752.176 92.1253 743.676 110.239 715.259C124.036 693.607 133.337 669.508 151.941 651.149C176.441 626.96 207.039 619.639 240.395 617.925C274.086 616.19 307.065 612.651 335.459 592.49C358.802 575.934 371.086 549.921 382.902 524.753C401.973 484.142 429.054 446.067 466.906 420.677C500.953 397.823 538.449 401.539 558.009 440.237C578.615 480.959 561.147 521.904 570.337 564.073C576.034 590.198 601.447 607.355 628.172 601.569C656.522 595.428 678.641 568.168 694.04 545.426C728.777 494.156 745.6 434.941 749.138 373.457C749.583 365.579 749.872 357.724 749.984 349.891C745.911 345.774 741.372 342.258 736.498 339.921C741.35 333.223 745.021 325.458 747.046 316.401Z" fill="#FFFCFC"/>
<path opacity="0.15" d="M926.493 242.544C918.772 254.004 919.551 268.735 919.261 281.997C918.727 303.516 918.438 325.012 918.282 346.53C917.993 385.94 918.327 425.394 918.927 464.804C920.196 546.093 922.733 627.316 924.268 708.606C925.826 789.828 926.404 871.072 923.756 952.25C921.887 1010.51 923.2 1079.47 893.648 1132.12C897.476 1131.5 901.326 1130.7 905.22 1129.49C941.403 1118.41 969.797 1088.06 991.294 1058.24C1031.04 1003.12 1061.35 934.671 1072.63 867.423C1088.6 772.226 1078.68 671.599 1074.3 575.801C1069.89 479.669 1066.29 382.113 1084.2 287.049C1088.83 262.549 1095.15 238.627 1103.14 215.439C1072.25 217.064 1041.38 218.866 1010.52 220.914C985.085 222.583 943.094 217.91 926.493 242.544Z" fill="#FFFCFC"/>
<path opacity="0.3" d="M499.775 583.188C458.207 655.598 380.011 702.241 297.275 707.737C259.846 710.207 222.439 702.908 201.833 741.583C191.241 761.5 177.667 777.432 155.681 785.176C129.512 794.389 108.015 787.936 83.3149 778.567C75.0591 775.43 69.7629 786.979 75.1258 792.609C94.0184 812.436 121.857 819.09 148.471 815.529C149.183 817.621 150.563 819.423 152.81 820.38C177.845 830.995 199.43 818.622 218.99 802.311C229.204 793.788 236.748 782.417 245.982 772.871C255.351 763.169 266.744 753.333 277.314 745.032C279.629 743.208 280.764 740.537 280.942 737.711C291.133 738.512 301.258 739.692 310.427 739.18C316.969 738.824 323.422 738.156 329.831 737.266C329.764 737.333 329.675 737.4 329.608 737.467C319.439 748.348 314.432 764.325 318.371 778.834C320.062 785.065 323.845 792.853 329.786 795.145C321.286 814.372 318.794 835.401 316.457 856.363C315.344 866.443 331.055 867.912 333.725 858.7C341.202 832.909 350.303 804.18 368.595 783.863C385.151 765.46 408.316 754.111 427.498 738.779C446.391 723.67 462.747 705.712 476.365 685.729C488.404 668.06 503.892 644.561 502.846 622.42C502.824 622.064 502.779 621.73 502.713 621.396C508.454 611.649 513.55 601.436 517.911 590.821C522.273 580.273 505.249 573.641 499.775 583.188Z" fill="#592642"/>
<path opacity="0.3" d="M258.623 372.59C254.506 376.662 248.721 382.002 243.38 384.383C237.082 387.21 230.14 386.92 223.397 387.298C215.853 387.721 212.36 396.244 217.367 401.874C225.978 411.531 240.598 412.155 252.103 407.838C265.633 402.764 274.044 393.952 275.157 379.443C275.825 370.787 264.253 367.026 258.623 372.59Z" fill="#592642"/>
<path opacity="0.3" d="M279.387 442.73C297.033 500.12 364.593 507.752 410.011 477.755C432.286 463.046 448.597 441.594 457.631 416.56C467.356 389.634 462.772 358.125 459.834 330.309C458.989 322.253 449.932 317.491 443.523 323.566C438.383 328.439 435.891 334.114 434.733 340.144C430.439 339.477 425.743 341.39 424.697 346.442C418.266 377.462 403.157 405.879 396.236 436.477C395.613 439.214 396.303 441.973 397.705 444.287C367.285 467.964 320.399 470.011 295.453 435.942C289.957 428.465 276.249 432.494 279.387 442.73Z" fill="#592642"/>
<path opacity="0.3" d="M550.805 201.443C553.475 195.413 550.471 187.491 542.883 187.647C525.214 188.003 509.993 208.387 501.537 222.406C491.078 239.741 485.805 259.968 487.83 280.107C488.697 288.852 502.783 292.635 504.586 282.377C507.456 266.154 512.04 250.622 520.719 236.492C524.969 229.571 529.82 223.118 535.695 217.488C541.414 211.991 547.556 208.831 550.805 201.443Z" fill="#592642"/>
<path opacity="0.3" d="M585.117 291.967C585.228 291.544 585.273 291.1 585.317 290.677C594.93 276.769 601.94 261.281 605.233 243.1C611.842 206.584 610.084 168.42 602.852 132.192C601.005 122.98 586.43 125.16 586.585 134.395C587.142 167.174 586.986 200.797 580.911 233.153C574.68 266.376 555.654 286.204 531.643 308.412C521.897 317.425 531.999 335.65 544.884 331.177C564.043 324.479 579.798 312.239 585.117 291.967Z" fill="#592642"/>
<path opacity="0.3" d="M469.802 180.859C468.845 175.941 465.974 172.069 461.746 169.398C459.922 168.241 457.941 167.507 455.849 167.218C448.528 151.574 438.448 136.042 427.277 124.804C424.406 121.911 421.068 121.066 417.975 121.578C402.421 90.8465 381.414 62.7413 356.58 37.9517C350.104 31.4984 338.844 39.821 343.785 47.832C375.561 99.4806 408.54 152.998 415.194 214.66C416.373 225.542 427.544 234.71 438.314 227.923C454.425 217.776 467.354 210.967 464.906 193.054C469.112 190.272 470.736 185.755 469.802 180.859Z" fill="#592642"/>
<path opacity="0.3" d="M287.753 222.649C290.623 222.694 292.737 224.006 294.072 226.543C299.124 232.596 310.384 229.347 311.941 221.826C313.633 213.659 313.722 205.648 309.049 198.46C308.537 197.681 307.98 197.036 307.402 196.458C309.672 183.551 307.802 170.088 300.103 159.007C294.762 151.329 281.299 155.735 284.281 165.682C288.621 180.235 289.6 193.743 281.477 207.183C278.095 212.702 281.099 221.247 287.753 222.649Z" fill="#592642"/>
<path opacity="0.3" d="M676.264 356.702C680.47 367.739 691.774 370.343 700.853 363.2C718.544 349.292 732.296 333.292 735.256 310.527C735.701 307.145 734.277 304.519 732.007 302.828C733.387 298.4 734.588 293.949 735.434 289.432C739.618 267.001 738.038 242.745 725.888 222.918C719.746 212.904 706.75 220.025 708.197 230.373C711.668 255.518 712.959 280.441 701.276 303.874C693.132 320.252 668.498 336.296 676.264 356.702Z" fill="#592642"/>
<path opacity="0.3" d="M737.478 488.927C754.79 469.322 766.34 444.243 765.717 417.807C765.539 410.664 760.176 406.035 754.279 404.789C755.347 390.236 753.834 375.505 749.205 361.752C745.823 351.694 729.556 352.807 729.934 364.356C730.846 392.461 726.774 419.809 712.021 444.176C702.719 459.531 668.984 480.359 682.469 501.945C697.222 525.599 725.617 502.368 737.478 488.927Z" fill="#592642"/>
<path opacity="0.3" d="M712.756 658.18C732.962 670.731 757.64 641.045 767.899 627.761C783.12 608.089 794.402 583.967 788.549 558.755C787.414 553.837 782.853 551.367 778.402 551.568C779.203 536.347 776.511 521.192 768.522 507.573C764.405 500.564 752.544 503.323 752.856 511.824C753.991 543.49 748.628 571.506 731.026 598.276C721.902 612.184 687.321 642.381 712.756 658.18Z" fill="#592642"/>
<path opacity="0.3" d="M769.344 1233.37C813.159 1237.98 855.796 1219.06 885.058 1186.48C891.934 1178.83 884.457 1166.26 875.222 1169.08C860.335 1186.08 841.487 1198.72 817.788 1202.53C788.993 1207.16 763.491 1198.32 743.152 1181.97C717.028 1171.93 696.711 1152.97 681.668 1128.38C678.33 1104.3 667.293 1081.61 660.795 1058.33C653.652 1032.67 649.757 1006.35 648.289 979.776C646.776 952.806 655.788 903.183 638.52 876.079C658.97 891.523 702.808 870.627 720.343 859.322C752.365 838.672 784.364 801.866 771.814 761.277C770.501 757.004 767.007 754.267 763.157 753.355C766.673 727.297 761.266 700.171 744.999 676.739C740.104 669.685 726.707 673.756 730.09 683.014C744.688 722.802 740.838 769.911 708.927 800.353C692.193 816.308 675.259 819.246 653.919 824.853C638.653 828.859 625.613 839.94 628.372 857.208C629.04 861.347 630.175 864.863 631.688 867.845C626.926 863.506 620.94 860.302 613.396 858.588C613.307 858.566 613.241 858.566 613.174 858.543C612.662 855.028 612.15 851.534 611.638 848.04C611.038 844.057 607.989 841.943 604.54 841.498C604.451 839.206 604.317 836.914 604.295 834.622C604.05 817.176 603.694 803.067 593.391 788.158C580.796 769.955 570.36 759.764 571.984 735.998C572.474 728.699 562.015 724.293 557.208 729.878C546.705 742.051 547.684 757.294 553.002 771.892C560.056 791.274 566.109 804.603 565.508 825.699C564.285 869.781 572.474 912.863 580.218 956.122C587.294 995.621 595.639 1035.03 608.857 1072.99C612.239 1082.7 615.822 1092.38 619.738 1101.9C628.573 1124.98 639.632 1147.01 653.763 1166.32C681.779 1204.69 721.99 1228.38 769.344 1233.37Z" fill="#592642"/>
<path opacity="0.3" d="M1486.6 946.309C1485.73 938.788 1480.21 932.402 1473.65 929.464C1475.38 902.316 1468.95 869.56 1454.6 847.975C1450.86 842.345 1439.49 841.877 1438.31 850.111C1436.06 865.821 1439.09 881.532 1437.8 897.398C1436.57 912.33 1434.32 928.018 1428.14 941.814C1422.91 953.475 1416.1 962.354 1406.13 970.298C1395.69 978.621 1388.46 988.234 1391.98 1002.77C1394.49 1013.16 1401.12 1020.1 1409.49 1024.02C1408.73 1025.69 1408.53 1027.62 1409.25 1029.6C1420.35 1060.42 1428.03 1091.66 1421.49 1124.71C1414.83 1158.33 1391.69 1186.95 1355.48 1186.31C1349.41 1186.19 1344.47 1187.73 1340.62 1190.31C1337.5 1187.62 1332.9 1186.77 1328.13 1189.04C1318.72 1193.56 1308.53 1196.52 1299.3 1201.5C1291.35 1205.8 1284.27 1211.67 1276.35 1216.08C1258.91 1225.83 1239.3 1230.54 1219.34 1229.68C1202.5 1228.94 1183.65 1223.09 1170.76 1211.92C1153.5 1196.99 1149.42 1173.67 1143.13 1152.95C1140.9 1145.63 1128.33 1144.29 1126.9 1152.95C1122.45 1180.1 1120.92 1211.41 1135.67 1235.84C1135.69 1235.89 1135.74 1235.93 1135.76 1235.97C1130.46 1239.49 1126.24 1244.65 1124.28 1251.28C1096.42 1345.41 1035.82 1426.68 951.574 1477.77C905.711 1505.59 853.951 1523.19 801.367 1533.05C775.443 1537.9 748.228 1540.15 721.881 1540.41C707.572 1540.55 693.263 1540.28 678.977 1540.5C664.824 1540.73 650.939 1537.94 636.786 1538.43C628.085 1538.72 624.792 1550.18 632.358 1554.81C656.502 1569.59 687.856 1577.06 715.739 1580.74C746.804 1584.83 776.845 1585.45 808.043 1582.27C820.616 1580.98 833.077 1579.09 845.383 1576.69C846.696 1580.67 850.057 1583.87 854.974 1583.5C913.099 1579.18 966.772 1564.85 1018.93 1538.54C1039.87 1527.97 1059.52 1513.98 1077.72 1499.09C1112.79 1478.13 1142.72 1441.03 1162.37 1412.02C1179.8 1386.29 1193.35 1357.54 1202.54 1327.88C1207.21 1312.81 1212.78 1295.23 1207.84 1279.7C1236.81 1283.6 1266.16 1277.68 1292.55 1265.28C1312.25 1256.05 1327.11 1244.3 1336.06 1227.54C1340.22 1233.19 1346.72 1237.35 1355.55 1238.11C1371.46 1239.47 1384.17 1237.55 1396.32 1231.19C1432.14 1217.64 1458.42 1185.46 1466.9 1145.58C1475.69 1104.26 1465.99 1055.79 1432.92 1027.64C1440.69 1026.89 1448.3 1024.39 1454.46 1020.32C1476.87 1005.48 1489.58 972.278 1486.6 946.309Z" fill="#592642"/>
<path opacity="0.3" d="M1278.31 502.278C1277.87 459.486 1276.24 416.604 1273.97 373.879C1271.68 330.575 1270.9 285.981 1261.73 243.456C1259.68 233.998 1246.82 237.181 1245.98 245.592C1241.73 288.028 1244.51 331.287 1244.09 373.879C1243.66 416.716 1242.42 459.464 1240.81 502.278C1239.26 543.913 1239.61 586.326 1235.14 627.761C1232.87 648.901 1230.84 669.908 1229.47 691.137C1228.17 711.098 1225.13 731.749 1225.21 751.865C1225.01 752.956 1224.86 754.068 1224.64 755.158C1219.25 783.263 1209.55 810.122 1203.94 838.116C1202.09 847.307 1214.09 852.937 1219.3 844.592C1231.42 825.255 1239.97 803.113 1245.67 779.903C1255.41 781.305 1265.56 776.833 1268.14 764.505C1272.46 744.076 1272.7 722.603 1274.13 701.796C1275.66 679.232 1277.02 656.757 1276.46 634.148C1275.44 590.288 1278.78 546.227 1278.31 502.278Z" fill="#592642"/>
<path opacity="0.5" d="M642.641 790.161C609.596 777.077 595.599 749.662 594.286 715.081C593.129 684.528 602.697 654.108 619.276 628.651C621.167 625.758 620.589 622.621 618.853 620.24C622.547 615.277 620.344 606.554 613.646 604.551C576.462 593.402 557.769 560.513 572.767 522.995C584.406 493.911 609.151 472.615 620.099 442.774C637.39 395.598 630.958 330.241 587.143 299.377C579.822 294.237 569.719 304.451 574.77 311.749C593.307 338.564 604.9 365.846 602.364 399.203C599.538 436.053 579.221 460.108 559.416 489.371C541.035 516.564 532.29 551.657 545.686 582.944C555.677 606.265 577.084 624.356 602.141 624.601C577.863 656.267 566.403 694.808 570.809 735.019C573.836 762.679 587.699 795.636 612.778 807.541C603.009 816.464 597.513 830.461 604.211 841.766C607.682 847.596 616.65 847.841 620.055 841.766C623.103 836.314 624.082 829.772 627.865 824.743C631.07 820.47 636.811 817.533 641.039 814.551C642.396 813.594 643.376 812.326 644.021 810.946C654.168 807.897 651.097 793.522 642.641 790.161Z" fill="#FFF7F7"/>
<path opacity="0.5" d="M205.194 405.478C192.355 416.449 182.964 430.579 170.992 442.596C158.152 455.458 145.846 468.498 133.852 482.161C110.665 508.553 86.8319 534.367 65.3802 562.227C44.5294 589.309 25.5256 618.259 15.2448 651.127C9.68159 668.907 7.07803 688.2 13.1975 706.113C19.5396 724.783 30.5324 738.38 42.3486 753.734C44.2623 756.226 46.6657 757.406 49.0467 757.65C50.1371 760.41 51.2275 763.169 52.3624 765.906C56.5236 776.076 72.3009 772.493 69.319 761.233C61.397 731.415 52.5182 700.26 60.1509 669.485C66.938 642.092 83.7833 618.794 100.206 596.385C137.212 545.894 180.672 496.314 210.691 441.261C211.403 439.97 211.781 438.657 211.915 437.366C215.787 430.223 219.214 422.924 221.038 414.669C223.063 405.167 212.36 399.381 205.194 405.478Z" fill="#FFF7F7"/>
<path opacity="0.5" d="M166.449 431.047C174.037 436.41 183.494 427.576 181.425 419.543C179.2 410.886 174.749 403.032 172.746 394.286C170.721 385.363 172.079 376.35 171.011 367.36C169.943 358.281 159.684 355.277 154.165 362.798C140.102 381.936 147.601 417.74 166.449 431.047Z" fill="#FFF7F7"/>
<path opacity="0.5" d="M343.073 461.378C373.804 460.309 395.924 435.231 407.006 408.728C414.215 391.46 417.687 373.212 422.983 355.365C428.858 335.538 439.517 325.614 451.956 310.148C459.233 301.091 452.49 288.897 440.807 290.989C419.845 294.749 406.294 317.669 398.216 335.561C386.911 360.573 384.619 391.081 367.551 413.156C351.73 433.606 322.912 431.137 304.22 416.16C280.209 396.956 279.92 362.13 282.835 334.092C278.741 337.964 274.068 341.257 269.061 344.061C267.503 343.149 265.589 342.681 263.364 342.926C237.729 345.663 204.928 343.727 203.415 309.836C202.614 291.99 216.299 273.297 230.23 259.545C239.665 253.247 250.124 248.686 261.317 247.128C273.177 245.482 285.083 247.284 295.541 253.337C307.558 260.302 314.189 272.474 324.047 281.82C330.701 288.118 341.649 281.865 339.379 272.897C338.779 270.538 338.089 268.268 337.288 266.043C338.511 267.223 339.847 268.313 341.293 269.27C351.218 275.945 365.215 275.233 373.493 265.976C382.416 255.984 381.504 242.477 376.452 231.017C361.788 197.727 342.562 167.53 330.389 132.86C318.128 97.99 309.049 61.6955 300.815 25.6905C298.879 17.2122 285.149 18.9706 285.55 27.7604C287.775 75.2033 298.657 120.799 314.456 165.371C310.362 167.619 307.558 172.203 308.893 178.634C312.832 197.66 317.216 216.664 322.401 235.401C323.268 238.561 324.203 241.81 325.271 245.014C309.049 225.454 282.902 216.197 255.887 220.603C255.798 220.625 255.709 220.648 255.62 220.67C252.838 207.763 247.32 195.702 245.05 182.573C242.891 170 245.896 158.718 245.428 146.301C245.161 139.091 237.506 134.351 231.053 138.045C203.793 153.622 218.102 204.559 235.548 226.411C205.596 238.494 178.892 264.975 166.409 293.236C152.056 325.725 162.693 368.74 201.568 375.949C218.124 379.02 236.95 376.817 253.239 369.719C257.979 368.695 262.63 367.004 267.058 364.6C265.678 411.954 290.98 463.202 343.073 461.378Z" fill="#FFF7F7"/>
<path opacity="0.5" d="M478.456 333.247C481.905 288.118 476.186 239.474 499.463 198.551C509.454 180.971 523.385 166.262 538.717 153.2C554.338 139.915 573.876 130.791 588.229 116.238C596.151 108.205 588.207 93.8295 577.08 97.0784C555.74 103.309 536.224 119.754 519.446 133.929C501.799 148.861 485.688 166.797 474.762 187.291C451.619 230.618 452.509 288.452 461.455 335.561C463.369 345.686 477.744 342.415 478.456 333.247Z" fill="#FFF7F7"/>
<path opacity="0.5" d="M459.366 1369.34C432.974 1320.6 413.837 1268.4 398.994 1215.1C383.84 1160.69 373.226 1105.28 361.966 1049.99C356.247 1021.86 351.017 993.62 346.634 965.248C342.161 936.319 342.806 905.41 335.663 877.083C333.816 869.761 322.044 869.361 320.442 877.083C314.367 906.345 319.508 939.057 322.289 968.542C325.004 997.225 329.121 1025.78 333.66 1054.21C343.251 1114.32 355.579 1174.4 372.58 1232.86C401.798 1333.35 449.375 1446.24 537.785 1508.68C547.287 1515.38 556.255 1501.32 549.512 1493.48C515.977 1454.41 484.022 1414.82 459.366 1369.34Z" fill="#FFF7F7"/>
<path opacity="0.5" d="M1219.54 239.628C1231.92 239.739 1231.74 221.247 1219.54 220.513C1179.09 218.087 1138.81 218.955 1098.33 219.979C1067.25 220.78 1032.49 218.532 1002.78 230.015C1001.56 228.435 999.843 227.166 997.506 226.499C948.328 212.48 928.968 267.132 927.944 305.919C926.364 366.402 926.831 427.063 926.564 487.568C926.052 602.526 923.204 717.84 939.048 831.93C938.447 853.493 937.735 875.056 936.8 896.596C933.262 979.399 922.603 1059.62 896.857 1138.55C893.408 1149.12 908.406 1154.37 914.081 1145.8C951.354 1089.79 964.772 1020.74 970.847 954.831C977.634 881.286 979.593 806.962 980.883 733.127C982.196 656.244 982.619 579.339 983.353 502.455C983.709 464.003 984.221 425.572 985.044 387.141C985.69 357.056 980.505 317.379 993.923 289.362C1007.83 260.278 1056.79 255.428 1084.51 249.642C1128.71 240.429 1174.55 239.205 1219.54 239.628Z" fill="#FFF7F7"/>
<path opacity="0.5" d="M1378.45 781.661C1368.01 772.849 1356.19 767.286 1343.82 764.527C1322.48 751.731 1291.88 754.779 1270.61 765.817C1245.51 778.835 1229.46 804.314 1221.32 830.684C1211.13 863.707 1214 898.8 1213.86 932.846C1213.8 950.537 1212.97 968.206 1208.57 985.407C1204.21 1002.45 1195.48 1017.16 1187.32 1032.52C1186.14 1034.74 1186 1037.12 1186.56 1039.3C1165.84 1059.46 1142.12 1077.4 1135.27 1106.97C1133 1116.79 1146.88 1123.49 1152.02 1114.05C1168.69 1083.43 1198.18 1066.92 1221.92 1042.66C1247.73 1016.29 1255.92 984.629 1254.72 948.29C1253.52 912.174 1243.17 870.984 1260.66 837.204C1282.16 795.658 1327.67 790.228 1369.55 796.993C1377.53 798.284 1386.23 788.248 1378.45 781.661Z" fill="#FFF7F7"/>
<path d="M76.4862 639.264C50.8956 624.577 39.7692 680.498 44.6871 696.631C48.8261 710.272 64.8703 724.492 80.0244 721.243C95.3121 717.95 95.2009 699.035 94.4665 686.885C93.6432 673.199 89.7266 646.852 76.4862 639.264Z" fill="#3D2938"/>
<path d="M1447.63 825.897C1424.05 793.786 1391.67 768.663 1353.35 756.802C1337.86 752.018 1312.02 747.656 1289.33 750.371C1290.15 672.998 1284.54 595.114 1281.78 517.83C1278.89 436.763 1276.84 355.651 1273.1 274.607C1271.9 248.371 1265.87 220.933 1236.99 213.056C1222.68 209.184 1207.19 210.764 1192.62 211.32C1172.37 212.077 1152.16 212.944 1131.91 213.901C1091.46 215.815 1050.98 218.218 1010.57 220.911C985.087 222.58 943.096 217.907 926.518 242.541C918.796 254.001 919.575 268.732 919.286 281.995C918.752 303.513 918.462 325.009 918.307 346.528C918.017 385.937 918.351 425.391 918.952 464.801C920.221 546.09 922.757 627.313 924.293 708.603C925.851 789.825 926.429 871.07 923.781 952.248C921.489 1023.06 924.003 1109.69 869.952 1163.6C843.827 1189.66 806.509 1203.64 770.548 1190.71C739.128 1179.36 716.185 1151.65 700.118 1123.46C659.618 1052.47 652.586 967.491 652.787 887.314C682.583 891.164 714.049 877.189 736.101 857.384C764.852 831.46 782.009 792.451 781.541 753.776C781.185 725.025 769.458 679.607 743.111 660.403C765.586 645.115 781.875 617.366 788.15 591.998C796.428 558.574 790.153 497.936 752.323 483.738C760.134 473.191 766.142 460.707 770.059 446.977C776.779 423.433 777.113 397.62 766.966 375.011C761.447 362.594 750.298 346.528 736.435 339.874C741.308 333.221 744.958 325.455 747.005 316.398C753.147 289.183 753.102 257.316 737.281 233.484C723.996 213.456 703.345 199.192 680.313 192.628C664.024 187.955 641.482 185.596 624.615 192.783C623.702 174.425 620.632 156.133 615.469 138.575C610.017 119.928 601.739 96.0729 579.909 92.379C556.544 88.418 534.691 111.316 518.603 125.268C503.538 138.286 489.095 152.662 477.48 168.995C449.419 132.679 419.845 97.6083 388.424 64.1623C383.306 58.7549 378.232 53.1696 373.047 47.5842C373.003 47.4729 372.981 47.362 372.936 47.2507C372.402 45.9155 371.423 45.0699 370.243 44.5581C359.963 33.5652 349.304 22.8172 337.688 13.7826C325.783 4.56996 309.916 -3.41918 294.873 3.07863C256.688 19.5902 278.184 85.3472 284.682 113.875C287.107 124.623 289.644 135.283 292.114 146.031C286.306 143.449 280.476 141.424 275.558 139.866C259.002 134.504 232.299 128.763 216.877 139.711C202.969 149.591 204.727 168.973 207.954 183.504C210.357 194.475 215.253 214.458 225.111 224.405C217.478 228.099 210.38 232.305 204.127 236.777C168.7 262.101 133.986 309.099 153.368 353.026C138.37 359.702 135.544 387.54 136.322 401.336C137.368 420.073 145.646 437.742 162.047 445.575C154.125 454.943 146.114 464.267 137.902 473.257C108.796 505.257 79.1774 537.1 52.5853 571.281C29.2867 601.255 8.96991 634.723 4.85315 673.22C0.358089 715.345 19.1171 749.681 48.3573 778.543C94.6653 824.205 170.035 859.655 228.694 813.347C240.955 803.667 248.944 791.761 255.085 777.519C261.628 762.387 268.771 757.737 285.282 756.802C294.762 756.268 304.153 755.712 313.543 754.733C306.534 809.03 311.029 866.352 314.478 920.36C318.283 980.709 325.248 1040.84 335.195 1100.5C353.732 1211.47 377.476 1329.59 446.57 1421.38C576.082 1593.39 819.527 1644.46 1012.84 1555.32C1116.87 1507.34 1201.72 1411.54 1214.2 1294.87C1214.36 1293.45 1214.16 1292.16 1213.76 1291.02C1221.37 1292.47 1229.13 1293.32 1237.01 1293.27C1275.6 1292.98 1316.7 1269.97 1335.55 1235.61C1356.73 1253.17 1390.35 1249.63 1414.54 1239.35C1446.48 1225.82 1465.93 1197.23 1473.74 1164.05C1482.55 1126.53 1474.71 1079.56 1452.51 1044C1518.8 991.391 1491.11 885.089 1447.63 825.897ZM623.725 227.809C624.303 222.246 624.637 216.661 624.771 211.076C640.014 210.519 654.122 206.802 670.099 210.608C688.814 215.08 706.505 225.851 717.854 241.606C731.473 260.409 731.161 283.953 727.756 306.05C723.951 330.572 706.416 341.21 688.881 355.919C683.585 360.347 689.237 369.537 695.557 367.423C706.438 363.796 716.363 358.811 724.619 352.225C733.208 360.836 742.844 367.824 748.719 379.885C758.621 400.09 757.13 423.945 750.566 444.907C744.713 463.644 735.278 480.846 718.054 491.06C703.056 499.983 685.276 503.833 668.475 507.727C664.113 508.751 663.913 515.894 668.475 516.717C697.915 522.28 722.994 513.557 741.464 496.022C749.987 504.411 758.51 512.466 764.073 523.682C773.731 543.064 773.953 566.007 768.835 586.635C758.844 626.913 729.781 653.883 688.302 658.956C682.961 659.602 681.56 666.611 686.989 668.547C701.253 673.51 714.672 672.976 726.866 668.704C732.162 677.404 739.061 684.925 744.357 693.849C751.723 706.177 756.952 719.685 759.667 733.815C765.653 764.813 757.998 797.146 740.062 822.982C721.948 849.106 691.328 870.202 658.372 868.132C625.416 866.063 611.241 841.963 609.817 813.48C617.227 814.592 625.416 813.591 634.428 809.786C637.521 808.451 636.743 802.932 633.449 802.42C586.518 795.232 572.521 752.596 578.908 710.093C581.823 690.778 588.521 672.419 597.667 655.196C606.39 638.795 618.896 625.266 628.598 609.533C630.2 606.952 627.152 604.638 624.793 605.728C622.145 606.93 619.608 608.265 617.138 609.756C616.315 609.689 615.402 609.755 614.601 610.112C597.622 618.034 578.018 614.429 566.402 598.896C555.053 583.764 554.162 563.114 556.098 544.934C560.237 505.769 583.38 477.33 600.916 443.728C613.466 419.584 619.385 393.281 612.264 366.511C608.125 350.867 597.956 330.039 582.98 319.847C607.591 296.838 620.542 258.718 623.725 227.809ZM466.709 186.286C463.883 191.693 461.413 197.234 459.299 202.953C432.774 207.537 407.161 223.203 385.843 238.691C375.562 246.124 366.638 255.714 356.38 262.924C349.259 267.931 345.498 270.179 342.45 267.241C339.69 256.604 335.796 246.079 332.792 235.821C331.168 230.302 329.565 224.76 327.919 219.242C326.25 209.005 324.047 198.77 321.688 188.622C339.067 194.786 362.589 190.358 377.565 182.347C396.902 171.955 414.615 149.279 417.953 126.136C434.732 145.763 450.999 165.791 466.709 186.286ZM371.289 74.0874C377.031 80.1402 382.683 86.2372 388.313 92.379C393.498 98.0757 398.593 103.839 403.667 109.625C401.019 129.474 398.193 147.544 380.591 162.03C366.283 173.78 339.579 182.058 320.241 174.87C320.308 174.247 320.353 173.668 320.241 173.045C319.596 169.017 317.816 165.391 315.301 162.164C313.988 156.801 312.765 151.505 311.563 146.231C308.848 134.036 306.044 121.842 303.285 109.647C315.769 113.853 330.656 111.539 343.051 104.574C353.621 98.6098 365.392 86.994 371.289 74.0874ZM297.477 24.8418C302.306 19.5901 312.564 20.5249 318.172 23.5291C322.133 25.7098 325.782 28.5806 329.209 31.518C336.352 37.682 342.85 44.7585 349.504 51.4788C351.818 53.8376 354.066 56.2404 356.402 58.5992C352.597 68.8354 350.016 78.5825 339.268 86.6603C328.408 94.827 313.276 98.1203 299.969 94.8937L298.545 88.574C295.296 73.7536 285.06 38.3047 297.477 24.8418ZM238.663 153.819C253.327 151.905 271.263 158.07 284.103 164.567C289.288 167.215 293.872 170.664 298.59 173.646C299.747 178.653 300.882 183.66 302.083 188.667C304.398 198.502 306.578 208.405 309.093 218.129C289.288 207.381 263.72 209.718 240.532 217.907C236.015 195.498 208.243 157.736 238.663 153.819ZM168.834 315.307C176.133 270.668 239.241 220.956 284.971 230.636C310.695 236.088 313.744 253.756 323.179 274.073C328.764 286.112 339.401 295.347 353.376 289.605C361.698 286.201 367.773 278.323 374.316 272.404C384.018 263.614 394.343 255.559 405.158 248.193C420.624 237.623 437.714 230.012 453.892 220.911C447.327 248.883 447.95 279.058 452.556 307.853C433.931 311.48 420.98 335.936 414.771 351.557C403.422 380.219 403.267 416.668 377.565 437.452C350.35 459.483 310.028 453.786 289.956 425.036C268.726 394.594 282.434 355.985 289.266 323.251C289.844 320.448 286.328 318.957 284.726 321.338C278.295 330.728 272.977 341.343 269.127 352.514C267.213 358.099 246.451 366.488 240.643 368.78C229.206 373.342 217.122 375.501 204.972 372.586C178.158 366.155 164.517 341.721 168.834 315.307ZM155.237 385.492C156.283 379.172 159.621 372.897 161.446 366.622C172.795 381.91 189.64 390.388 207.531 392.636C196.472 404.719 185.79 417.314 175.198 429.954C156.127 424.925 152.367 402.76 155.237 385.492ZM1193.02 1291.91C1186.12 1341.69 1167.65 1387.76 1138.12 1428.44C1108.66 1469.05 1069.94 1500.29 1025.94 1524.21C933.149 1574.66 820.172 1588.81 717.142 1567.36C624.704 1548.09 528.505 1497.02 471.338 1419.91C439.828 1377.41 415.483 1332.57 398.682 1282.19C381.704 1231.39 370.444 1178.58 360.697 1126C348.97 1062.6 340.692 998.578 335.885 934.268C333.46 901.668 332.035 869.023 331.234 836.311C330.545 808.428 331.39 780.346 329.41 752.507C363.011 747.211 396.034 736.908 425.542 719.818C489.741 682.545 547.732 596.204 513.841 520.701C511.415 515.293 502.002 517.919 502.514 523.749C508.967 595.559 483.354 660.381 420.312 699.279C390.805 717.504 354.11 728.83 319.062 733.392C293.227 736.774 257.778 730.477 242.357 757.314C234.457 771.111 230.986 785.108 218.368 795.967C205.195 807.294 187.593 813.524 170.391 814.726C134.943 817.263 101.586 798.548 75.6392 775.961C44.8636 749.214 20.6971 717.348 25.4147 674.534C29.7762 634.768 54.1208 601.077 78.7323 570.991C105.013 538.881 133.163 508.417 160.578 477.285C183.743 450.938 209.757 423.567 227.537 392.613C240.354 390.989 252.838 386.338 263.319 378.906C261.806 393.904 263.386 408.991 269.171 422.922C280.787 450.804 310.539 470.275 340.692 469.875C374.65 469.43 401.954 447.444 414.549 416.846C421.625 399.689 424.451 381.22 430.437 363.707C433.642 354.494 437.669 345.593 443.655 337.827C447.171 333.221 451.755 329.905 456.072 326.367C457.741 333.911 459.588 341.276 461.658 348.441C463.082 353.337 470.692 352.469 470.648 347.217C470.47 324.542 470.425 302.045 469.914 279.324C469.402 256.204 469.335 232.549 477.391 210.519C490.92 173.713 523.521 144.829 554.296 122.086C558.279 119.104 566.424 112.139 571.342 112.317C577.773 112.54 585.717 118.771 588.988 123.956C594.685 133.102 597.333 146.498 599.736 156.845C605.144 179.988 606.635 204.132 604.164 227.787C601.85 250.218 595.241 272.092 582.468 290.852C571.409 307.118 555.387 317.644 541.323 330.951C537.584 334.467 541.568 339.763 545.974 338.94C554.207 337.449 561.751 334.556 568.582 330.55C576.705 341.41 586.83 350.4 591.725 364.308C597.889 381.798 597.578 400.38 591.147 417.759C577.506 454.743 549.311 483.472 540.166 522.703C533.089 552.922 531.999 592.087 555.119 616.187C564.599 626.022 579.175 632.075 592.86 631.608C571.408 658.6 560.749 697.432 559.948 728.541C559.258 755.245 571.698 794.231 595.953 808.451C584.448 833.886 604.587 866.508 627.463 879.081C631.09 881.039 634.784 882.663 638.567 883.954C628.375 952.76 638.901 1026.57 663.09 1091.46C681.337 1140.42 713.537 1192.13 765.208 1210.38C820.773 1229.98 876.828 1197.25 906.847 1150.77C945.121 1091.44 943.096 1012.89 945.233 945.06C950.418 782.548 943.052 620.081 941.027 457.613C940.56 418.159 940.382 378.75 940.782 339.318C940.96 319.001 941.249 298.707 941.828 278.39C942.162 266.885 941.583 254.001 953.978 248.95C962.434 245.545 973.138 245.901 982.061 245.278C1022.45 242.518 1062.91 240.315 1103.38 238.268C1141.77 236.31 1182.25 231.125 1220.63 233.84C1248.72 235.842 1249.45 258.963 1250.27 281.75C1251.1 304.404 1251.88 327.079 1252.68 349.732L1257.46 485.63C1260.62 575.442 1260.27 666.277 1267.94 755.8C1265.43 756.891 1263 758.16 1260.8 759.606C1226.4 773.87 1208.28 819.488 1203.74 853.735C1199.31 887.225 1203.79 921.161 1200.45 954.74C1196.87 990.99 1178.89 1018.89 1158.93 1048.27C1127.17 1094.87 1103.87 1152.79 1121.7 1209.45C1133.05 1245.63 1161.62 1273.71 1196.42 1286.15C1194.64 1287.44 1193.37 1289.29 1193.02 1291.91ZM1372.46 1002.61C1395.94 1018.94 1419.57 1033.8 1435.57 1058.3C1453.53 1085.76 1460.32 1119.9 1454.49 1152.19C1449.24 1181.3 1434.35 1207.75 1406.58 1220.19C1384.84 1229.96 1363.14 1226.91 1340.6 1224.78C1344.63 1214.36 1346.65 1203.1 1346.07 1191.31C1345.83 1186.77 1338.82 1183.79 1336.64 1188.73C1313.16 1242.76 1264.27 1287.55 1201.61 1264.19C1132.11 1238.2 1126.88 1157.29 1155.01 1098.32C1169.1 1068.81 1191.53 1044.35 1205.99 1015.09C1220.43 985.85 1223.55 954.518 1223.59 922.34C1223.59 890.519 1220.99 858.253 1231.43 827.633C1239.44 804.112 1252.61 788.579 1272.26 777.252C1280.09 775.116 1287.97 772.779 1296.11 772.245C1312.45 771.222 1328.89 773.18 1344.6 777.831C1377.58 787.555 1406.29 808.941 1426.92 836.267C1462.94 884.133 1496.01 980.932 1438.82 1025.55C1422.84 1007.7 1402.17 994.951 1377.16 991.502C1370.48 990.589 1366.57 998.467 1372.46 1002.61Z" fill="#3D2938"/>
<path d="M551.269 184.618C525.879 170.999 503.226 196.19 493.323 217.308C478.659 248.729 481.418 285.824 487.359 319.025C487.804 321.495 489.184 323.23 490.942 324.276C491.877 327.77 496.906 330.084 500.422 328.415C537.317 311.014 608.704 215.327 551.269 184.618ZM530.285 274.074C522.675 285.29 513.44 295.058 504.472 305.094C502.469 285.935 500.266 266.776 503.893 247.616C505.918 236.734 509.657 225.986 515.687 216.618C522.919 205.336 540.521 191.472 549.867 209.586C560.193 229.48 541.278 257.785 530.285 274.074Z" fill="#3D2938"/>
<path d="M393.651 481.248C380.232 476.197 367.058 478.133 356.644 484.23C337.329 495.557 327.426 521.17 342.491 543.823C352.394 558.71 372.021 566.476 389.378 562.137C406.735 557.775 420.443 541.486 421.533 523.639C422.579 505.57 410.607 487.568 393.651 481.248Z" fill="#3D2938"/>
<path d="M235.724 424.059C215.518 425.906 197.916 451.386 215.741 471.013C225.688 481.939 244.669 482.874 255.596 472.927C266.566 463.024 267.456 444.042 257.554 433.071C250.989 425.906 243.201 423.369 235.724 424.059Z" fill="#3D2938"/>
<path d="M125.331 729.631C120.102 746.832 133.965 758.493 150.054 758.871C166.321 759.272 186.637 755.533 199.522 745.074C214.72 732.702 215.521 712.919 211.716 695.006C201.102 645.582 132.719 705.197 125.331 729.631Z" fill="#3D2938"/>
</g>
<defs>
<filter id="filter0_d_403_14651" x="0.189453" y="0.694336" width="1495.93" height="1605.77" filterUnits="userSpaceOnUse" color-interpolation-filters="sRGB">
<feFlood flood-opacity="0" result="BackgroundImageFix"/>
<feColorMatrix in="SourceAlpha" type="matrix" values="0 0 0 0 0 0 0 0 0 0 0 0 0 0 0 0 0 0 127 0" result="hardAlpha"/>
<feOffset dy="4"/>
<feGaussianBlur stdDeviation="2"/>
<feComposite in2="hardAlpha" operator="out"/>
<feColorMatrix type="matrix" values="0 0 0 0 0 0 0 0 0 0 0 0 0 0 0 0 0 0 0.25 0"/>
<feBlend mode="normal" in2="BackgroundImageFix" result="effect1_dropShadow_403_14651"/>
<feBlend mode="normal" in="SourceGraphic" in2="effect1_dropShadow_403_14651" result="shape"/>
</filter>
</defs>
</svg>
