<svg width="1538" height="1472" viewBox="0 0 1538 1472" fill="none" xmlns="http://www.w3.org/2000/svg">
<g filter="url(#filter0_d_403_14694)">
<path d="M880.007 1394.9C866.811 1399.13 852.769 1399.73 835.835 1396.77C835.123 1396.62 834.411 1396.95 834.01 1397.55C833.61 1398.15 833.61 1398.93 833.988 1399.53C836.703 1403.74 839.218 1408.19 841.665 1412.48C842.6 1414.13 843.512 1415.73 844.425 1417.36L857.019 1438.96C858.199 1441.01 859.378 1443.04 860.58 1445.06C860.914 1445.62 861.515 1445.93 862.138 1445.93C862.383 1445.93 862.65 1445.89 862.894 1445.77C863.74 1445.4 864.163 1444.44 863.874 1443.57C863.807 1443.39 863.784 1443.3 864.185 1442.95C867.211 1439.99 869.059 1434.16 870.683 1429.02C871.284 1427.13 871.84 1425.39 872.396 1423.99C874.8 1417.91 877.603 1410.7 880.296 1403.4C881.03 1401.38 881.676 1399.27 882.299 1397.13C882.499 1396.48 882.299 1395.79 881.831 1395.33C881.342 1394.86 880.652 1394.7 880.007 1394.9Z" fill="#FFEFE6"/>
<path d="M687.008 1399.35C678.841 1400.2 671.342 1399.87 664.021 1398.33C658.592 1397.2 653.184 1395.59 647.955 1393.52C647.265 1393.26 646.464 1393.44 645.952 1393.99C645.44 1394.55 645.329 1395.35 645.663 1396.02C647.243 1399.22 648.667 1402.58 650.046 1405.83C651.181 1408.5 652.316 1411.15 653.496 1413.69C653.718 1414.18 654.119 1415.04 654.631 1416.2C657.702 1423.03 664.911 1439.01 668.895 1444.26C669.251 1444.73 669.785 1444.97 670.341 1444.97C670.564 1444.97 670.808 1444.93 671.031 1444.84C671.788 1444.53 672.255 1443.77 672.166 1442.95C672.01 1441.57 672.789 1438.01 677.417 1428.88C677.684 1428.37 677.862 1428.02 677.951 1427.82L684.494 1413.2C685.517 1410.93 686.43 1408.48 687.364 1405.99C687.876 1404.61 688.41 1403.2 688.944 1401.85C689.167 1401.25 689.078 1400.58 688.699 1400.09C688.254 1399.58 687.653 1399.31 687.008 1399.35Z" fill="#FFEFE6"/>
<path d="M909.136 1207.09C856.553 1139.91 727.22 1137.89 662.153 1183.39C630.287 1205.71 608.835 1236.62 601.714 1270.4C594.838 1302.98 605.92 1338.65 629.975 1361.28C644.907 1375.32 662.843 1382.58 681.913 1382.58C688.945 1382.58 696.155 1381.6 703.409 1379.59C708.505 1378.19 713.378 1376.72 718.141 1375.3C741.239 1368.4 761.178 1362.44 786.946 1367.47C794.49 1368.94 802.278 1371.07 809.8 1373.12C832.587 1379.33 856.13 1385.76 879.54 1376.52C904.218 1366.75 922.065 1345.73 929.787 1317.29C939.889 1280.1 931.589 1235.82 909.136 1207.09ZM804.103 1292.94C798.651 1284.75 797.783 1275.21 801.722 1266.73C805.705 1258.12 813.85 1252.6 822.328 1252.6C822.884 1252.6 823.441 1252.62 824.019 1252.66C831.719 1253.33 839.841 1257.54 839.485 1267.26C839.418 1269 838.239 1270.98 836.681 1271.96C835.524 1272.69 834.389 1272.8 833.254 1272.34L832.698 1272.09C825.777 1269.18 820.592 1267.6 817.833 1269.44C814.74 1271.51 813.383 1274.47 813.894 1278.03C814.829 1284.33 821.594 1290.76 825.688 1292.03C836.881 1295.5 848.008 1286.53 851.435 1276.03C858.111 1255.76 842.177 1234.35 823.085 1227.1C822.284 1226.79 822.328 1226.1 822.35 1225.96C822.417 1225.54 822.706 1225.32 823.218 1225.29C837.86 1224.72 850.189 1231.12 858.111 1243.56C866.989 1257.49 868.302 1276.56 861.293 1289.96C857.309 1297.57 848.942 1306.81 831.719 1307.5C821.037 1308.03 810.267 1302.2 804.103 1292.94ZM727.709 1224.32C711.22 1230.7 688.589 1242.36 682.358 1269.67C680.177 1279.26 682.781 1289.38 688.856 1294.86C693.818 1299.33 700.605 1300.44 707.971 1297.93C711.042 1296.9 724.037 1289.52 724.037 1283.57C724.037 1279.95 722.925 1277.34 720.744 1275.79C716.182 1272.56 708.483 1275.27 703.899 1276.92C703.12 1277.21 702.43 1277.43 701.919 1277.59C699.204 1278.39 696.6 1276.54 695.398 1274.29C694.953 1273.43 693.685 1270.47 696.355 1268.33C708.127 1258.9 718.163 1256.38 727.865 1260.45C736.633 1264.1 741.261 1272.69 739.704 1282.33C738.146 1291.94 731.626 1300.73 721.812 1306.45C711.665 1312.35 699.982 1313.77 690.569 1310.23C669.34 1302.33 667.961 1280.86 673.746 1263.37C680.912 1241.76 699.537 1221.82 719.543 1221.82C722.302 1221.82 725.106 1222.2 727.91 1223.02C728.355 1223.16 728.355 1223.36 728.355 1223.47C728.31 1223.76 728.132 1224.14 727.709 1224.32Z" fill="#B7ADCC"/>
<path d="M1354.61 216.376C1369.12 185.89 1389.04 158.875 1412.25 138.247C1423.08 128.633 1435.17 120.467 1447.18 114.636C1447.9 114.303 1448.3 113.546 1448.18 112.767C1448.1 111.988 1447.49 111.365 1446.74 111.21L1443.62 110.586C1433.16 108.494 1422.35 106.358 1411.8 104.622C1349.27 94.4751 1282.05 85.8411 1214.17 91.2041L1212.33 91.3603C1197.28 92.5619 1181.73 93.7855 1167.67 99.6602C1150.2 106.915 1142.72 121.869 1137.22 136.978C1126.21 167.175 1118.93 199.909 1115.64 234.245L1115.15 239.141C1112.5 265.466 1108.85 301.515 1137.65 315.734C1158.14 325.837 1181.73 330.844 1204.54 335.673C1208.99 336.63 1213.4 337.565 1217.74 338.521C1224.48 340.012 1231.42 341.481 1238.52 342.972C1269.94 349.581 1305.54 357.058 1335.32 371.255C1335.56 371.367 1335.83 371.433 1336.1 371.433C1336.54 371.433 1336.99 371.255 1337.34 370.944C1337.88 370.432 1338.08 369.631 1337.79 368.941C1331.58 353.297 1329.42 330.822 1331.38 302.094C1333.36 273.61 1341.15 244.748 1354.61 216.376Z" fill="#C7AAA3"/>
<path d="M1225.3 572.464C1236.3 536.837 1252.1 504.994 1272.23 477.823C1283.05 463.247 1294.93 448.36 1308.64 438.013C1309.24 437.545 1309.51 436.766 1309.28 436.032C1309.06 435.297 1308.39 434.786 1307.64 434.741C1299.18 434.296 1290.75 433.895 1282.29 433.517C1271.39 432.983 1260.51 432.404 1249.6 431.804C1228.06 430.647 1205.81 429.423 1183.89 428.733C1144.44 427.553 1121.81 442.975 1116.58 474.707C1112.01 502.59 1123.01 531.763 1132.71 557.465C1134.24 561.537 1135.76 565.565 1137.2 569.526C1147.77 598.655 1159.15 627.917 1170.94 656.468C1181.73 682.526 1193.57 709.452 1206.14 736.489C1206.45 737.134 1207.1 737.535 1207.79 737.535C1207.95 737.535 1208.12 737.513 1208.3 737.468C1209.15 737.223 1209.7 736.377 1209.59 735.487C1206.9 714.77 1207.32 693.43 1208.08 675.316C1209.61 639.111 1215.42 604.508 1225.3 572.464Z" fill="#C7AAA3"/>
<path d="M1155.52 782.843C1153.71 779.683 1151.96 776.612 1150.22 773.72C1095.14 681.927 1058.07 581.366 1040.02 474.775C1039.89 474.019 1039.31 473.441 1038.58 473.285C1037.8 473.151 1037.06 473.485 1036.69 474.153C960.849 601.795 884.233 750.621 935.392 902.006C935.592 902.607 936.082 903.052 936.705 903.186C936.838 903.208 936.972 903.23 937.106 903.23C937.595 903.23 938.062 903.03 938.418 902.674C951.191 889.456 968.838 878.819 984.415 869.451L989.444 866.424C1011.01 853.295 1034.24 841.724 1058.49 832.044C1073.8 825.969 1091.52 820.405 1106.74 825.168C1107.54 825.412 1108.38 825.101 1108.83 824.389C1115.17 814.041 1129.75 806.743 1141.99 801.447C1145.68 799.844 1152.53 796.885 1159.86 794.815C1160.41 794.659 1160.86 794.259 1161.06 793.747C1161.26 793.213 1161.21 792.634 1160.92 792.145C1159.03 789.007 1157.25 785.869 1155.52 782.843Z" fill="#C7AAA3"/>
<path d="M431.833 844.394C432.144 845.129 432.923 845.595 433.702 845.484C448.967 843.682 468.35 845.195 491.381 850.002C520.265 855.943 542.385 864.689 561.01 877.484C561.455 877.796 562.612 878.552 564.259 879.642C589.783 896.465 596.481 901.829 597.527 903.297C597.683 903.92 598.172 904.41 598.795 904.588C598.951 904.632 599.129 904.655 599.285 904.655C599.908 904.655 600.509 904.343 600.843 903.765C606.272 894.752 608.987 884.427 611.279 874.658C626.411 810.703 621.293 740.34 596.058 665.527C585.622 634.529 571.736 602.084 553.6 566.324C545.811 550.969 537.422 535.348 527.987 518.613C523.247 510.113 518.307 501.568 514.101 494.358C513.478 493.29 512.277 491.599 510.741 489.462C508.16 485.857 502.107 477.402 502.441 475.377C502.597 474.397 501.951 473.463 500.95 473.285C500.06 473.129 499.17 473.686 498.903 474.553C498.903 474.553 498.903 474.575 498.903 474.598C498.903 474.598 498.903 474.598 498.903 474.62C498.903 474.62 498.903 474.62 498.903 474.642C498.903 474.665 498.903 474.687 498.88 474.709C480.833 581.3 443.76 681.882 388.685 773.652C386.882 776.634 385.08 779.817 383.211 783.088C379.383 789.808 375.422 796.751 370.927 803.315C370.549 803.872 370.504 804.584 370.816 805.185C371.127 805.786 371.75 806.142 372.418 806.142C372.418 806.142 372.418 806.142 372.44 806.142C380.251 806.12 389.286 807.967 397.452 811.327C412.851 817.825 425.691 830.152 431.833 844.394Z" fill="#C7AAA3"/>
<path d="M337.148 718.466C336.97 719.356 337.504 720.246 338.394 720.535C338.572 720.602 338.751 720.624 338.929 720.624C339.618 720.624 340.286 720.223 340.575 719.556C350.255 698.26 359.468 677.053 367.969 656.492C379.807 627.875 391.156 598.634 401.704 569.55C403.128 565.589 404.663 561.561 406.199 557.489C415.901 531.765 426.894 502.614 422.332 474.709C417.103 442.976 394.316 427.444 355.017 428.734C333.099 429.447 310.824 430.648 289.283 431.805C278.379 432.406 267.497 432.985 256.593 433.519C250.429 433.808 244.288 434.098 238.124 434.431C237.345 434.476 236.677 435.01 236.455 435.767C236.254 436.523 236.566 437.324 237.211 437.747C248.115 444.845 259.553 454.236 271.213 465.674C293.266 487.326 311.469 515.721 323.841 547.787C343.179 597.744 348.008 659.963 337.148 718.466Z" fill="#C7AAA3"/>
<path d="M1199.09 811.371C1202.85 813.307 1205.3 814.197 1207.39 813.351C1209.7 812.439 1210.59 809.88 1212.1 805.652L1212.53 804.472C1215.98 794.793 1212.66 788.606 1208.83 781.441C1207.99 779.861 1207.1 778.192 1206.21 776.367C1202.74 769.113 1199.24 761.858 1195.84 754.582C1190.23 742.654 1184.44 729.97 1178.61 716.952C1167.38 691.762 1156.65 666.35 1146.66 641.427C1135.47 613.522 1124.83 585.305 1115.04 557.533L1114.66 556.443C1106.11 532.188 1097.26 507.131 1098.93 481.473C1101.73 438.325 1131.44 411.667 1176.59 411.667C1176.99 411.667 1177.39 411.667 1177.81 411.667C1198.15 411.867 1218.91 413.069 1239.01 414.226C1248.67 414.782 1258.32 415.338 1267.96 415.806L1314.16 417.986C1316.38 418.098 1318.61 418.231 1320.83 418.365C1325.53 418.654 1330.38 418.943 1335.18 418.943C1335.83 418.943 1336.76 419.01 1337.81 419.054C1343.02 419.366 1347.18 419.478 1349.29 417.942C1349.63 417.697 1349.87 417.319 1349.98 416.919C1350.52 414.693 1351.07 412.468 1351.61 410.242C1352.14 408.017 1352.67 405.814 1353.21 403.589C1353.41 402.81 1353.08 402.009 1352.39 401.608L1350.09 400.229C1344.33 392.997 1329.27 387.745 1318.21 383.895C1315.8 383.05 1313.62 382.293 1311.89 381.625C1302.12 377.864 1291.26 374.349 1277.73 370.566C1259.9 365.626 1241.57 361.598 1223.83 357.726C1216.29 356.08 1208.72 354.433 1201.2 352.697C1197.66 351.896 1194.04 351.095 1190.32 350.293C1150.31 341.57 1104.98 331.668 1098.08 287.563C1089.87 235.158 1105.89 174.475 1120.78 132.795C1127.14 114.993 1136.47 95.4551 1157.41 85.5971C1177.95 75.9172 1202 74.6488 1225.26 73.4249L1228.5 73.247C1289.43 70.0648 1350.83 77.8976 1402.83 85.9754C1421.24 88.846 1439.93 92.0277 1457.98 95.1208C1468.7 96.9455 1479.43 98.7931 1490.15 100.573C1490.64 100.662 1491.47 100.84 1492.53 101.085C1503.46 103.555 1510.71 104.489 1513.18 101.463C1515.97 98.0805 1511.45 91.4275 1499.7 81.6807C1490.35 73.959 1479.32 66.8375 1465.96 59.9169C1415.98 33.9925 1358.19 28.9411 1308.26 27.4057C1295.57 27.0274 1282.67 26.8496 1270.21 26.6716C1254.34 26.449 1237.92 26.2045 1221.81 25.5592C1210.99 25.1142 1200 24.2015 1189.36 23.3114C1173.41 21.9762 1156.83 20.6192 1140.61 20.7749C1106.69 21.0642 1080.7 30.8774 1061.12 50.7491C1044.32 67.8169 1032.03 90.6929 1023.58 120.69C1014.61 152.511 1009.16 185.912 1003.91 218.223C1000.12 241.455 996.208 265.489 991.001 288.676C971.797 374.216 945.249 463.872 904.905 579.341C887.637 628.72 869.323 678.655 851.609 726.966C843.621 748.774 835.61 770.582 827.666 792.434C817.051 821.674 803.143 860.238 789.769 899.18C789.324 900.493 788.679 902.874 787.878 905.878C785.163 916.026 777.953 942.974 770.854 943.886C768.651 944.153 766.537 941.283 765.113 938.79C758.838 927.864 754.054 915.914 750.204 905.656C745.464 893.083 741.325 880.043 737.342 867.426C734.048 857.011 730.621 846.241 726.883 835.76C714.087 799.955 700.78 763.661 687.918 728.568L684.38 718.933C636.247 587.686 581.706 438.904 547.948 288.676C542.763 265.511 538.847 241.478 535.042 218.223C529.768 185.912 524.338 152.511 515.37 120.69C506.914 90.6929 494.631 67.8169 477.83 50.7491C458.247 30.8774 432.256 21.0642 398.343 20.7749C382.031 20.6637 365.542 21.9985 349.587 23.3114C338.95 24.2015 327.958 25.1142 317.143 25.5592C301.032 26.2045 284.609 26.449 268.743 26.6716C256.259 26.8496 243.375 27.0274 230.69 27.4057C180.755 28.9189 122.965 33.9925 72.9852 59.9169C59.6113 66.8375 48.5962 73.959 39.25 81.6807C27.5006 91.4275 22.9609 98.0805 25.7648 101.463C28.2348 104.489 35.5115 103.577 46.4154 101.107C47.4835 100.862 48.3292 100.662 48.7965 100.595C59.5446 98.8148 70.2704 96.9902 80.9962 95.1432C99.0432 92.0501 117.713 88.8679 136.116 86.0195C188.121 77.9418 249.472 70.109 310.444 73.2911L313.694 73.4691C336.948 74.693 361.003 75.9613 381.587 85.6413C402.504 95.4992 411.828 115.037 418.17 132.839C433.057 174.519 449.079 235.18 440.913 287.585C433.97 331.69 388.641 341.593 348.63 350.316C344.914 351.117 341.287 351.918 337.749 352.719C330.205 354.455 322.661 356.101 315.095 357.748C297.36 361.62 279.024 365.648 261.199 370.588C247.669 374.349 236.81 377.865 227.041 381.648C225.305 382.315 223.125 383.072 220.721 383.918C209.684 387.768 194.597 393.019 188.833 400.251L186.541 401.631C185.851 402.054 185.517 402.854 185.718 403.611C186.808 408.039 187.898 412.49 188.944 416.919C189.033 417.342 189.3 417.697 189.634 417.965C191.726 419.5 195.887 419.388 201.117 419.077C202.163 419.01 203.097 418.966 203.742 418.966C208.527 418.966 213.4 418.676 218.096 418.387C220.321 418.253 222.546 418.12 224.771 418.009L271.012 415.828C280.648 415.383 290.306 414.804 299.964 414.248C320.035 413.091 340.797 411.889 361.159 411.689C407.111 411.155 437.174 437.947 440 481.473C441.647 507.131 432.812 532.21 424.267 556.466L423.889 557.533C414.12 585.238 403.483 613.477 392.268 641.449C382.299 666.372 371.55 691.784 360.313 716.974C354.483 730.015 348.697 742.677 343.089 754.604C339.93 761.391 336.68 768.134 333.454 774.877L332.72 776.39C331.852 778.192 330.939 779.861 330.094 781.463C326.266 788.629 322.951 794.815 326.4 804.517L326.823 805.696C328.314 809.924 329.226 812.483 331.54 813.396C333.632 814.241 336.08 813.351 339.84 811.393C342.8 809.858 345.515 807.053 347.762 804.717C351.612 800.689 354.683 795.972 357.62 791.388L358.733 789.652C365.787 778.882 372.93 767.288 380.563 754.226C394.493 730.215 407.355 705.336 418.793 680.324C441.647 630.322 459.761 577.249 472.623 522.552C478.52 497.451 483.304 471.727 487.243 443.888C487.777 440.061 490.825 438.904 492.606 438.548C496.344 437.791 500.483 439.372 502.197 442.22C539.27 503.971 574.696 564.899 600.91 631.168C630.039 704.669 641.276 769.825 635.224 830.308C633.532 847.443 630.372 864.421 625.877 880.777C625.321 882.802 624.743 885.25 624.12 887.898C621.271 899.937 617.399 916.448 608.698 920.832C596.37 927.13 580.704 914.201 568.154 903.809C563.681 900.115 559.475 896.644 555.937 894.485C542.251 886.14 523.938 875.815 503.554 870.074C485.04 864.822 465.969 862.174 446.854 862.174C445.719 862.151 444.54 862.152 443.271 862.152C435.461 862.018 424.779 861.862 418.593 866.869C409.892 873.879 411.672 887.832 412.963 898.023C413.141 899.448 413.319 900.805 413.452 902.051C424.289 1004.08 462.787 1067.3 531.17 1095.29C532.46 1095.83 532.994 1097.3 532.75 1098.41C532.549 1099.32 531.86 1099.79 530.836 1099.7C525.829 1099.5 520.889 1098.9 515.726 1097.9C515.014 1097.74 514.28 1098.05 513.879 1098.65C513.456 1099.25 513.456 1100.03 513.835 1100.66C518.129 1107.47 521.579 1115.08 524.895 1122.44C526.074 1125.07 527.253 1127.67 528.455 1130.23L529.123 1131.68C536.889 1148.03 544.633 1164.39 552.354 1180.79C557.406 1191.52 562.702 1202.37 567.842 1212.9C574.006 1225.52 580.37 1238.56 586.357 1251.49C586.668 1252.13 587.291 1252.53 588.003 1252.53C588.003 1252.53 588.07 1252.53 588.114 1252.53C588.849 1252.49 589.494 1252 589.739 1251.29C590.429 1249.24 591.141 1247.21 591.92 1245.21C602.979 1216.79 620.581 1191.65 641.499 1174.42C685.982 1137.75 760.551 1123.53 827.065 1139C880.36 1151.39 919.814 1180.63 938.195 1221.31C941.6 1228.81 944.448 1237.09 946.696 1245.94C946.874 1246.7 947.519 1247.24 948.298 1247.3C949.143 1247.37 949.789 1246.95 950.1 1246.23C952.392 1241.18 955.085 1236.24 957.711 1231.46C959.647 1227.9 961.494 1224.54 963.052 1221.36C973.154 1200.44 982.79 1181.08 992.492 1162.16C1003.13 1141.51 1013.83 1120.95 1024.58 1100.37C1026.07 1097.52 1027.52 1094.67 1028.96 1091.84L1032.37 1085.19C1032.72 1084.48 1032.59 1083.61 1032.01 1083.06C1031.43 1082.5 1030.57 1082.39 1029.88 1082.77C1023.36 1086.33 1016.81 1089.35 1010.47 1091.78C1007.11 1093.05 1005.49 1091.02 1004.8 1089.73C1003.48 1087.22 1003.73 1083.34 1006.44 1081.47C1077.94 1031.96 1115.91 971.213 1119.33 900.894L1119.44 898.535C1120.31 880.71 1121.96 847.554 1101.4 840.277C1084.8 834.403 1059.94 846.998 1043.47 855.343C1040.71 856.744 1038.15 858.035 1035.88 859.125C1017.15 868.093 998.767 878.463 981.277 889.99C979.808 890.946 977.382 892.927 974.022 895.687C962.962 904.699 940.02 923.525 929.65 920.899C927.736 920.409 926.379 919.163 925.489 917.049C854.436 746.036 964.142 563.253 1036.75 442.286C1038.44 439.438 1042.54 437.88 1046.34 438.615C1048.1 438.971 1051.15 440.128 1051.68 443.956C1055.62 471.794 1060.41 497.54 1066.3 522.619C1079.17 577.317 1097.26 630.389 1120.13 680.391C1131.57 705.426 1144.43 730.282 1158.36 754.292C1165.95 767.31 1173.1 778.904 1180.17 789.719L1181.33 791.499C1184.27 796.061 1187.31 800.779 1191.25 804.873C1193.41 807.032 1196.13 809.835 1199.09 811.371ZM879.982 1094.67C862.847 1104.04 838.547 1096.98 829.023 1079.85C819.588 1062.85 826.331 1038.39 843.154 1028.56C849.473 1024.86 855.882 1023.02 862.157 1023.02C866.452 1023.02 870.68 1023.88 874.775 1025.64C885.968 1030.45 894.824 1041.49 897.895 1054.44C901.856 1071.33 895.158 1086.37 879.982 1094.67ZM708.168 1095.67C700.847 1105.66 688.964 1112.58 675.545 1114.68C662.105 1116.77 648.687 1113.76 638.695 1106.44C617.688 1091.13 612.504 1058.02 627.814 1036.99C637.315 1023.97 650.311 1017.1 664.753 1017.1C669.337 1017.1 674.055 1017.79 678.861 1019.21C695.885 1024.22 710.349 1037.73 715.712 1053.61C719.05 1063.49 720.474 1078.85 708.168 1095.67Z" fill="#7A6168"/>
<path d="M198.783 370.21C198.582 370.9 198.783 371.657 199.339 372.124C199.673 372.414 200.096 372.547 200.518 372.547C200.785 372.547 201.075 372.48 201.319 372.347C231.561 357.437 268.078 349.76 300.277 342.995C307.398 341.504 314.386 340.036 321.151 338.523C325.49 337.566 329.896 336.631 334.369 335.674C357.178 330.846 380.766 325.816 401.261 315.735C430.056 301.516 426.429 265.467 423.758 239.142L423.269 234.246C419.953 199.888 412.698 167.154 401.683 136.979C396.187 121.892 388.71 106.916 371.242 99.6837C357.178 93.8312 341.623 92.5847 326.58 91.383L324.733 91.2275C256.862 85.8646 189.614 94.4986 127.084 104.646C116.514 106.382 105.633 108.563 95.1071 110.655L88.2086 112.034C87.452 112.19 86.8513 112.813 86.7623 113.569C86.6733 114.348 87.0738 115.105 87.7636 115.439C102.717 122.715 116.759 133.82 127.351 142.676C149.849 161.524 168.652 185.179 181.693 211.059C196.379 240.121 204.502 272.944 205.236 306.011C205.77 333.137 203.656 354.144 198.783 370.21Z" fill="#C7AAA3"/>
<path opacity="0.1" d="M1366.85 388.524C1363.47 385.809 1359.89 383.294 1356.26 380.913C1356.41 369.965 1351.87 358.816 1350.01 348.068C1347.54 333.737 1346.78 319.251 1347.69 304.742C1349.47 277.126 1356.97 249.845 1368.76 224.877C1380.16 200.822 1395.38 178.48 1413.98 159.409C1402.59 158.764 1391.15 158.386 1379.71 158.408C1315.89 158.453 1240.52 169.512 1208.63 232.354C1193.52 262.15 1186.43 295.685 1179.42 328.107C1171.23 366.026 1161.12 403.166 1150.13 440.373C1125.61 523.353 1098.64 605.577 1071.8 687.823C1045.05 769.891 1018.46 852.048 994.763 935.073C975.803 1001.54 963.609 1072.11 937.796 1136.39C916.188 1190.2 877.268 1235.24 818.454 1247.75C785.186 1254.82 748.692 1252.15 717.36 1266.84C695.997 1276.85 684.248 1295.72 674.234 1316.2C660.282 1344.72 651.314 1377.59 633.289 1404.25C635.759 1412.84 639.765 1421.25 643.214 1428.84C647.931 1439.23 654.718 1461.4 668.426 1463C682.735 1464.62 687.83 1446.31 692.236 1436.43C696.598 1426.7 700.982 1416.93 705.299 1407.19C707.101 1403.09 708.792 1399.89 709.66 1396.62C730.889 1390.7 751.651 1382.02 774.505 1385C789.637 1386.96 804.435 1391.46 819.255 1395.08C822.482 1410.68 831.583 1426.15 838.815 1439.68C844.223 1449.85 850.898 1467.52 865.563 1463.04C879.204 1458.86 883.699 1439.79 888.35 1428.24C892.444 1418 896.339 1407.7 900.033 1397.33C901.657 1392.72 903.126 1389.34 903.326 1385.89C940.711 1361.97 955.976 1315.89 952.616 1271.42C965.389 1261.37 971.486 1240.18 978.518 1226.5C988.643 1206.89 998.768 1187.33 1008.89 1167.75C1019.02 1148.19 1029.25 1128.67 1039.51 1109.13C1047.68 1093.56 1056.65 1078.47 1062.3 1061.96C1112.57 1017.54 1140.94 944.442 1137.16 879.82C1136.22 863.308 1134.06 843.859 1121.56 831.888C1123.98 830.152 1126.41 828.194 1129.1 826.258C1138.76 819.426 1149.64 814.397 1161.08 811.304C1163.08 810.792 1166.53 810.28 1170.18 809.523C1176.23 817.512 1183.2 824.433 1191.66 828.684C1206.39 836.049 1227.9 832.666 1235.38 816.444C1242.1 801.846 1232.96 783.176 1223.88 767.043C1226.3 738.559 1223.23 709.698 1224.34 681.103C1225.61 648.703 1230.04 616.437 1238.85 585.149C1247.6 554.307 1260.55 524.733 1278.33 497.985C1287.23 484.633 1297.24 471.816 1309.04 460.867C1318.54 452.011 1330.71 446.537 1340.06 437.814C1348.51 437.703 1356.84 436.545 1364.11 431.872C1380.63 421.369 1381.8 400.585 1366.85 388.524Z" fill="#592639"/>
<path opacity="0.15" d="M1075.65 15.1668C1029.05 39.6893 1008.18 92.5622 998.388 141.34C986.238 201.801 977.559 262.484 962.717 322.455C947.874 382.27 930.116 441.307 910.89 499.832C876.754 603.485 837.79 705.447 800.783 808.077C796.555 836.538 790.124 864.666 779.087 890.724C768.027 916.827 747.332 944.82 715.199 937.21C697.642 933.049 682.688 920.365 670.382 907.77C647.417 884.293 628.903 856.121 613.46 827.304C540.226 690.56 537.133 525.267 448.967 395.489C427.115 363.311 399.633 336.43 372.062 309.282C348.14 285.716 322.794 260.881 307.685 230.462C282.539 179.837 304.569 115.282 357.642 92.5177C397.23 75.5388 441.49 72.6233 482.124 58.693C488.577 56.4678 496.255 53.7531 503.309 49.9924C492.672 35.8396 479.565 23.7339 463.254 15.1444C413.14 -11.2029 350.254 5.08636 296.469 6.35476C238.078 7.73444 178.774 6.10958 121.741 20.6851C97.8633 26.7824 74.2309 35.6396 53.0463 48.3014C36.7796 58.0704 7.07202 75.3829 5.02476 96.523C3.20004 115.327 20.891 122.581 36.735 121.535C44.4345 121.001 52.1117 120.088 59.8557 118.931C76.1224 131.66 96.8397 140.094 112.706 153.29C133.423 170.558 150.847 191.72 163.576 215.486C177.906 242.346 185.784 272.498 186.919 302.828C187.497 318.361 186.474 333.893 183.581 349.136C181.178 361.687 175.414 374.037 174.435 386.743C173.678 387.322 172.833 387.878 172.076 388.479C157.122 400.518 158.279 421.324 174.724 431.85C184.983 438.414 197.333 438.125 209.127 437.591C215.158 440.751 221.21 443.866 226.84 447.649C239.88 456.35 251.808 466.653 262.333 478.247C284.141 502.302 300.475 531.275 310.6 562.118C333.832 632.948 319.234 702.132 311.468 773.474C303.813 787.983 297.671 803.782 303.479 816.444C310.956 832.666 332.474 836.049 347.206 828.684C351.923 826.325 356.173 823.098 360.045 819.359C370.282 820.784 380.362 820.628 390.376 825.234C401.814 830.486 409.313 838.185 415.588 848.066C402.815 853.362 393.803 863.375 393.224 881.088C392.423 906.412 398.12 934.54 403.527 959.173C409.113 984.541 417.546 1009.69 430.675 1032.16C447.053 1060.13 469.662 1083.81 498.546 1094.83C499.993 1107.96 506.201 1120.04 511.431 1132.21C518.841 1149.35 526.496 1166.39 534.262 1183.37C549.505 1216.79 564.125 1251.2 581.95 1283.35C580.348 1312.99 588.959 1342.81 606.895 1365.22C616.731 1322.56 648.886 1297.5 671.451 1261.61C717.514 1188.31 639.874 1136.55 596.236 1087.99C578.145 1067.86 561.344 1043.47 564.504 1015.07C567.708 986.233 587.758 966.383 616.353 963.112C650.466 959.196 685.804 972.036 717.647 982.606C743.461 991.173 770.408 1004.08 797.668 995.134C857.083 975.64 885.522 896.91 903.636 843.793C926.556 776.567 940.553 706.805 955.262 637.443C969.326 571.129 985.526 505.462 998.165 438.815C1012.56 363.022 1026.43 286.517 1051.93 213.505C1075.23 146.836 1109.21 82.949 1161.43 34.3935C1173.7 23 1186.69 12.7414 1200.26 3.48421C1157.67 -0.387772 1113.1 -4.50467 1075.65 15.1668Z" fill="#FFFCFC"/>
<path opacity="0.3" d="M704.766 933.36C717.317 954.078 741.305 975.975 767.586 970.523C797.694 964.292 808.442 925.527 813.026 899.492C819.769 861.239 830.049 823.098 832.519 784.156C833.387 770.693 814.673 770.092 810.489 781.174C799.585 810.036 794.089 840.389 783.63 869.317C778.757 882.825 772.526 895.33 768.187 909.172C768.142 909.327 768.098 909.461 768.053 909.617C763.625 892.015 752.654 873.656 746 858.48C735.92 835.537 726.218 812.484 717.295 789.074C699.537 742.499 683.982 695.1 666.58 648.436C664.489 642.851 659.46 641.182 655.276 642.384C634.047 573.556 612.751 504.728 592.501 435.655C573.163 369.698 556.563 302.851 546.66 234.779C546.327 232.554 545.192 230.974 543.678 229.929C537.559 185.601 533.909 140.806 524.919 97.013C522.961 87.5333 509.053 90.2259 508.653 99.216C506.605 145.858 513.481 192.677 520.18 238.807C527.234 287.452 535.979 335.852 546.438 383.873C560.858 450.164 576.657 518.191 599.243 583.125C605.007 603.797 610.86 624.448 616.712 645.076C636.161 713.77 655.744 782.42 675.638 850.981C683.649 878.441 689.79 908.66 704.766 933.36Z" fill="#592642"/>
<path opacity="0.3" d="M1100.26 837.918C1097.42 849.512 1098.02 861.951 1096.24 873.79C1094.39 886.229 1091.81 898.468 1088.67 910.64C1082.64 933.939 1074.05 955.502 1060.21 975.351C1046.41 995.112 1026.96 1007.89 1011.41 1025.75C995.321 1044.25 994.609 1067.61 995.877 1091.02C995.988 1092.98 996.5 1094.89 997.301 1096.7C986.019 1110.25 976.562 1125.65 964.056 1138.2C948.746 1153.57 925.046 1175.78 901.481 1167.46C893.203 1164.54 886.994 1176.16 893.047 1181.92C896.518 1185.24 900.235 1187.62 904.084 1189.36C906.376 1197.81 911.873 1204.51 916.501 1211.99C921.108 1219.4 924.824 1226.99 927.873 1235.02C927.361 1236.02 926.893 1237.11 926.56 1238.33C918.838 1266.73 913.609 1296.08 893.025 1318.6C872.886 1340.63 846.65 1348.24 817.432 1345.66C787.524 1343.03 763.291 1338.27 733.717 1347.33C703.365 1356.63 673.435 1371.78 641.057 1363.11C630.954 1360.39 625.569 1374.12 634.092 1379.64C663.955 1398.98 698.291 1389.52 729.823 1379.95C749.094 1374.1 767.364 1369.89 787.614 1372.56C805.572 1374.94 823.552 1381.31 841.843 1380.37C844.313 1380.24 846.739 1380 849.164 1379.71C862.472 1393.95 880.675 1384.45 894.227 1375.48C908.669 1365.93 919.461 1354.58 922.398 1338.36C943.739 1313.55 956.623 1280.84 956.134 1248.84C957.847 1247.1 959.138 1244.77 959.672 1241.74C963.121 1222.87 970.197 1206.05 980.189 1189.73C989.379 1174.74 1001.44 1162.05 1005.94 1144.74C1006.89 1141.07 1005.94 1137.53 1003.91 1134.81C1015.53 1120.37 1024.4 1106.22 1028.52 1096.34C1028.66 1096.05 1028.7 1095.76 1028.79 1095.47C1032.28 1090.82 1034.2 1084.97 1034.75 1077.8C1035.93 1062.87 1034.73 1056.75 1046.35 1045.78C1066.42 1026.82 1085.22 1009.82 1099.44 985.677C1112.88 962.868 1123.14 936.632 1126.21 910.262C1128.93 886.874 1128.7 856.277 1115.4 835.893C1111.66 830.219 1102.05 830.686 1100.26 837.918Z" fill="#592642"/>
<path opacity="0.3" d="M981.835 668.04C995.053 635.395 1015.41 609.226 1036.6 581.566C1054.18 558.601 1071.82 525.911 1055.34 500.098C1057.12 494.201 1057.96 488.082 1057.2 481.584C1056.14 472.616 1048.37 467.765 1039.96 471.682C1022.18 479.982 1014.9 498.318 1005.69 514.562C994.964 533.499 984.193 552.437 973.49 571.396C954.197 605.576 935.949 640.358 924.578 678.098C913.652 714.37 908.222 752.734 908.378 790.586C908.512 823.053 911.182 874.723 935.616 899.001C941.157 904.52 951.615 902.228 953.507 894.284C954.419 890.412 954.864 886.406 954.975 882.379C961.673 887.118 969.573 887.942 975.626 882.356C983.637 886.095 993.117 876.459 985.64 869.338C968.372 852.871 962.452 827.659 958.336 804.738C957.69 792.41 957.935 779.904 958.647 767.71C960.538 734.153 969.239 699.171 981.835 668.04Z" fill="#592642"/>
<path opacity="0.3" d="M1159.12 172.873C1163.82 163.883 1169.54 155.583 1176.5 148.417C1202.72 121.469 1241.97 120.824 1275.35 109.097C1276.4 108.718 1277.29 108.229 1278.04 107.65C1305.08 104.579 1331.16 103.845 1359.11 103.8C1370.68 103.778 1371.77 88.2457 1361.71 84.5295C1324.57 70.844 1276.55 74.7601 1237.97 79.678C1202.61 84.173 1168.32 91.0718 1144.66 120.112C1121.43 148.595 1114.86 185.624 1113.42 221.384C1112.04 255.431 1110.77 299.825 1136.45 325.972C1137.29 326.818 1138.18 327.463 1139.14 327.908C1139.43 328.242 1139.72 328.598 1140.03 328.932C1144.77 333.916 1155.5 332.069 1156.63 324.548C1159.08 308.326 1151.65 292.125 1149.76 275.881C1147.6 257.411 1147.51 238.452 1149.36 219.937C1150.96 204.004 1154.32 188.183 1159.12 172.873Z" fill="#592642"/>
<path opacity="0.3" d="M504.337 458.576C500.042 456.373 493.121 457.041 490.918 462.092C484.621 476.468 485.934 488.15 486.089 503.505C486.245 518.659 483.686 533.434 480.393 548.166C473.695 578.14 464.794 607.514 454.824 636.554C444.588 666.417 431.103 694.367 414.858 721.426C399.103 747.662 378.364 770.782 362.987 797.04C356.467 808.167 370.664 816.801 379.588 809.858C404.756 790.276 424.249 759.923 441.451 733.42C460.232 704.447 477.233 673.56 491.408 642.072C505.093 611.675 515.396 579.231 521.471 546.452C526.612 518.636 534.823 474.331 504.337 458.576Z" fill="#592642"/>
<path opacity="0.3" d="M330.184 107.16C358.2 107.338 378.605 113.079 394.227 137.179C399.434 145.19 412.43 142.253 412.519 132.217C412.942 70.9548 318.568 80.3672 280.092 81.5021C246.001 82.5034 211.977 84.395 178.064 87.9332C146.042 91.2711 112.106 94.6091 82.1097 106.848C74.1655 110.075 74.0097 124.228 84.3572 123.36C111.216 121.112 137.719 115.326 164.556 112.612C192.773 109.741 221.078 108.673 249.428 108.117C276.31 107.583 303.302 107.004 330.184 107.16Z" fill="#592642"/>
<path opacity="0.3" d="M418.884 481.585C424.803 488.039 435.106 482.743 435.418 474.732C436.887 435.745 388.22 424.374 357.934 422.06C335.77 420.368 313.406 419.456 291.198 419.011C270.97 418.588 250.876 415.784 232.918 426.732C224.106 432.118 230.359 443.623 239.505 442.332C256.35 439.929 274.419 443.222 291.22 444.802C307.198 446.315 323.175 447.249 339.197 448.295C354.018 449.252 369.283 449.631 383.569 454.126C398.946 458.955 408.336 470.081 418.884 481.585Z" fill="#592642"/>
<path opacity="0.3" d="M1323.08 448.718C1324.01 447.739 1324.93 446.715 1325.86 445.803C1329.38 442.376 1333.12 439.839 1336.83 438.259C1337.19 433.675 1334.9 429.002 1329.24 427.667C1301.16 420.946 1270.1 418.855 1241.28 418.098C1215.24 417.431 1184.45 418.232 1159.39 425.798C1113.17 439.773 1097.95 497.808 1112.12 539.91C1113.1 542.847 1115.35 544.65 1117.86 545.362C1119.47 552.527 1121.76 559.693 1124.81 566.814C1125.28 567.926 1125.92 568.772 1126.63 569.439C1126.81 571.642 1127.01 573.845 1127.28 576.048C1128.46 586.173 1143.61 586.819 1143.59 576.048C1143.5 538.975 1152.56 497.14 1183.22 473.129C1201.89 458.509 1222.68 453.725 1244.08 449.72C1270.36 448.941 1296.62 449.141 1323.08 448.718Z" fill="#592642"/>
<path opacity="0.5" d="M656.494 1389.83C652.243 1381.06 640.894 1387.85 642.074 1395.91C644.722 1414.26 650.597 1436.25 659.053 1452.81C662.724 1459.99 676.009 1456.99 674.963 1448.49C672.56 1429.06 665.039 1407.45 656.494 1389.83Z" fill="#FFF7F7"/>
<path opacity="0.5" d="M848.962 1395.48C844.534 1387.21 831.805 1392.95 834.053 1401.76C838.659 1419.72 843.021 1442.82 853.992 1458.1C859.065 1465.2 874.063 1464.02 872.75 1453.03C870.325 1433.02 858.308 1413.02 848.962 1395.48Z" fill="#FFF7F7"/>
<path opacity="0.5" d="M863.629 1153.91C832.32 1138.69 795.024 1136.73 760.644 1137.73C726.842 1138.73 693.262 1148.48 665.513 1168.13C636.696 1188.51 614.91 1217.19 604.095 1249.17C588.496 1211.76 572.763 1173.87 559.011 1135.79C555.117 1124.98 552.87 1115.08 551.891 1103.62C551.223 1096.01 550.933 1088.42 547.017 1081.54C539.317 1068.08 521.604 1060.53 510.256 1050.52C484.131 1027.49 463.28 998.85 449.595 966.806C441.851 948.648 436.332 928.041 433.372 908.592C428.588 877.127 440.671 872.121 472.582 877.283C490.54 880.176 508.208 885.717 524.631 893.55C541.031 901.383 554.783 911.864 569.136 922.812C580.886 931.78 594.282 935.229 608.346 929.555C638.899 917.227 645.308 880.643 645.597 851.425C645.753 836.516 629.108 736.868 629.486 736.668C626.571 738.114 624.39 740.94 624.39 745.013C624.479 786.336 625.28 827.882 616.49 868.494C614.666 876.972 612.974 886.74 608.501 894.306C599.177 910.017 588.229 903.519 577.214 895.085C562.438 883.781 546.817 874.168 529.704 866.758C502.333 854.919 463.414 841.768 433.862 853.005C430.457 854.296 427.364 856.076 424.538 858.145C419.62 855.275 412.344 856.365 411.097 863.241C398.391 932.492 423.937 1001.7 467.419 1055.06C478.056 1068.12 490.829 1079.23 504.359 1089.22C507.941 1091.87 512.903 1094.31 515.418 1098.14C518.4 1102.75 517.688 1107.27 518.222 1112.72C519.223 1122.71 521.582 1132.39 524.764 1141.91C539.006 1184.39 560.68 1223.54 581.843 1262.79C585.425 1269.42 593.325 1270.11 599.244 1267.31C594.237 1292.43 596.04 1318.93 606.477 1344.57C609.814 1352.76 623.7 1352.76 623.233 1342.3C620.763 1286.69 639.744 1227.45 688.033 1195.83C712.288 1179.94 738.502 1174.27 767.075 1171.87C796.337 1169.4 825.978 1166.86 854.439 1175.83C867.145 1179.81 875.958 1159.89 863.629 1153.91Z" fill="#FFF7F7"/>
<path opacity="0.5" d="M1061.88 836.628C1023.83 837.963 987.22 870.385 960.338 894.708C952.928 901.428 945.741 908.371 938.687 915.47C936.194 917.984 934.169 923.325 930.453 920.788C928.472 919.43 927.16 904.855 926.87 903.186C922.175 876.527 919.082 849.579 917.902 822.542C917.457 812.217 902.281 812.195 901.858 822.542C901.057 842.503 891.889 967.674 939.488 946.69C949.368 942.328 956.934 931.714 964.566 924.437C975.048 914.468 985.885 904.855 997.323 895.954C1019.53 878.663 1045.94 868.472 1068 851.404C1074.05 846.731 1068.87 836.383 1061.88 836.628Z" fill="#FFF7F7"/>
<path opacity="0.5" d="M1445.76 62.5435C1467.24 68.8856 1486.82 79.6558 1507.98 86.4207C1516.33 89.091 1523.29 77.4309 1516.66 71.5117C1484.75 42.9837 1433.03 33.3701 1392.02 27.7179C1388.44 27.2283 1384.88 26.8499 1381.32 26.4493C1380.54 23.7345 1378.4 21.4646 1374.51 20.6858C1339.42 13.6094 1301.9 11.051 1266.2 8.40291C1233.58 5.97736 1200.02 3.3955 1167.31 5.06446C1150.51 5.91006 1134.82 8.80298 1120.36 13.6096C1117.27 11.5401 1113.35 10.6054 1108.99 11.7848C1065.04 23.6901 1042.79 64.1236 1030.44 105.825C1020.09 135.088 1016.11 165.997 1010.5 196.438C1009.18 203.537 1007.72 210.591 1006.14 217.623C1002.73 231.909 999.082 246.107 995.233 260.26C991.895 271.964 988.334 283.625 984.64 295.263C963.611 361.487 938.021 426.376 915.056 491.955C893.671 553.039 875.001 615.035 856.197 676.964C846.184 701.42 835.702 726.321 830.94 751.422C829.583 758.588 831.83 761.325 835.257 761.703C859.557 707.584 886.461 655.713 908.558 600.371C937.643 527.582 964.969 453.97 990.515 379.868C1012.99 318.206 1034.69 256.365 1046.59 191.654C1049.89 173.763 1052.6 155.449 1056.41 137.758C1069.29 90.0925 1093.59 48.7914 1149.38 40.4021C1189.88 34.3271 1230.98 38.0876 1271.55 41.5145C1308.6 44.6521 1345.8 45.5872 1382.74 49.9265C1404.04 52.4411 1425.22 56.4685 1445.76 62.5435Z" fill="#FFF7F7"/>
<path opacity="0.5" d="M457.313 43.9173C470.62 45.9646 475.471 28.7632 462.876 23.7786C427.071 9.5591 386.905 12.4964 349.187 13.9873C305.816 15.6786 262.468 17.3254 219.297 22.0652C153.073 29.3196 64.4849 39.467 17.3535 92.5844C10.6109 100.173 19.1115 112.389 28.4577 106.982C57.7646 90.0921 86.2036 74.7823 119.026 65.5474C155.098 55.4001 192.527 49.948 229.778 46.432C304.258 39.4002 383.1 32.5239 457.313 43.9173Z" fill="#FFF7F7"/>
<path opacity="0.5" d="M461.073 279.439C463.587 243.813 446.653 210.723 433.012 178.924C429.452 170.646 416.078 176.564 418.592 184.998C425.825 209.387 435.282 234.978 435.46 260.769C434.659 261.748 434.058 262.95 433.813 264.397C422.843 326.727 364.229 333.891 311.579 343.838C285.899 348.69 260.131 355.077 236.009 365.313C228.932 368.317 221.166 371.588 213.467 375.349C202.073 380.578 191.103 386.453 180.711 393.173C176.393 395.955 174.903 400.516 175.481 404.744C175.37 404.922 175.236 405.078 175.125 405.256C171.253 411.287 177.662 419.142 184.338 417.228C188.632 416.004 192.749 414.224 196.755 412.221C232.537 401.34 266.873 386.23 303.167 376.55C338.861 367.048 378.693 365.424 412.562 350.403C441.424 337.586 458.87 310.771 461.073 279.439Z" fill="#FFF7F7"/>
<path opacity="0.5" d="M451.196 457.329C449.327 444.757 444.098 433.163 433.35 423.928C417.15 410.02 395.564 407.706 375.047 406.349C365.99 405.748 363.765 420.791 372.889 422.371C387.286 424.841 402.529 428.512 414.323 437.614C414.101 439.683 414.435 441.797 415.592 443.711C431.502 469.902 430.568 495.604 424.292 524.689C417.661 555.397 408.07 585.439 396.566 614.657C384.594 645.032 370.129 674.249 355.22 703.245C341.423 730.081 321.307 758.654 314.052 787.961C311.983 796.373 322.419 802.848 328.739 796.506C352.683 772.473 368.794 734.955 384.104 704.98C400.949 672.024 416.437 638.267 429.099 603.464C442.74 566.012 467.218 501.345 451.196 457.329Z" fill="#FFF7F7"/>
<path opacity="0.5" d="M1301.21 364.892C1281.07 358.238 1260.68 352.541 1239.99 347.891C1220.41 343.485 1200.71 339.501 1180.91 336.275C1160.84 333.003 1131.62 332.625 1124.18 309.082C1120.96 298.868 1106.87 303.23 1108.47 313.422C1115.44 357.794 1169.58 358.216 1204.03 365.27C1228.04 370.188 1251.67 377.019 1275.06 384.341C1298.07 391.528 1321.05 403.367 1344.91 406.905C1356.99 408.685 1363.25 394.755 1353.17 387.345C1337.94 376.107 1319.01 370.767 1301.21 364.892Z" fill="#FFF7F7"/>
<path opacity="0.5" d="M1213.51 821.317C1220.85 827.036 1236.54 824.633 1235.05 812.394C1233.09 796.349 1224.39 783.532 1217.02 769.335C1209.86 755.56 1202.8 741.741 1195.95 727.811C1180.62 696.635 1165.95 664.88 1152.58 632.792C1139.54 601.549 1128.37 569.549 1118.89 537.038C1110.54 508.443 1099.91 475.042 1119.69 448.784C1125.1 441.618 1113.28 432.673 1107.3 439.215C1088.63 459.576 1087.16 485.635 1091.21 511.871C1096.81 548.165 1109.5 584.37 1120.71 619.262C1132 654.288 1144.12 688.847 1159.03 722.493C1166.67 739.739 1174.59 756.873 1183.24 773.63C1191.52 789.696 1199.04 810.057 1213.51 821.317Z" fill="#FFF7F7"/>
<path d="M679.372 1017.43C661.192 1012.09 640.675 1016.23 626.344 1035.9C610.478 1057.71 615.818 1092 637.626 1107.91C659.411 1123.84 693.703 1118.5 709.636 1096.74C734.337 1062.98 710.237 1026.55 679.372 1017.43Z" fill="#3D2938"/>
<path d="M842.241 1026.98C824.484 1037.35 817.452 1062.72 827.443 1080.72C837.457 1098.72 862.825 1106.13 880.872 1096.25C898.63 1086.57 903.303 1069.46 899.676 1054.01C894.135 1030.65 869.523 1011.04 842.241 1026.98Z" fill="#3D2938"/>
<path d="M1485.88 48.345C1464.72 35.6832 1441.06 26.8266 1417.18 20.7294C1360.13 6.13155 1300.85 7.77798 1242.46 6.39831C1188.67 5.1299 1125.79 -11.1587 1075.67 15.1886C1029.07 39.7111 1008.2 92.5833 998.41 141.361C986.26 201.822 977.582 262.506 962.739 322.477C947.896 382.292 930.139 441.329 910.913 499.854C872.193 617.393 827.264 732.773 786.03 849.444C780.4 865.311 774.926 881.199 769.474 897.132C764 881.199 758.503 865.311 752.896 849.444C711.661 732.773 666.733 617.393 628.058 499.854C608.787 441.329 591.051 382.27 576.231 322.477C561.344 262.483 552.687 201.822 540.56 141.361C530.724 92.5833 509.851 39.7111 463.254 15.1886C413.14 -11.1587 350.254 5.1299 296.469 6.39831C238.078 7.77798 178.774 6.15381 121.741 20.7294C97.8633 26.8266 74.2309 35.6832 53.0463 48.345C36.7796 58.1139 7.07202 75.4264 5.02476 96.5666C3.20004 115.37 20.891 122.625 36.735 121.579C44.4345 121.045 52.1117 120.133 59.8557 118.976C76.1224 131.704 96.8397 140.138 112.706 153.334C133.423 170.602 150.847 191.764 163.576 215.53C177.906 242.389 185.784 272.542 186.919 302.872C187.497 318.405 186.474 333.937 183.581 349.18C181.178 361.731 175.414 374.081 174.435 386.788C173.678 387.366 172.833 387.923 172.076 388.523C157.122 400.562 158.28 421.368 174.724 431.893C184.983 438.458 197.333 438.169 209.127 437.635C215.158 440.795 221.21 443.91 226.84 447.693C239.88 456.394 251.808 466.697 262.334 478.291C284.141 502.346 300.475 531.319 310.6 562.161C333.832 632.992 319.234 702.176 311.468 773.518C303.813 788.027 297.671 803.827 303.479 816.488C310.956 832.711 332.474 836.093 347.206 828.727C351.923 826.368 356.173 823.142 360.045 819.403C370.282 820.827 380.362 820.672 390.376 825.278C401.814 830.53 409.313 838.229 415.588 848.109C402.815 853.405 393.803 863.419 393.224 881.133C392.423 906.456 398.12 934.584 403.527 959.218C409.113 984.586 417.546 1009.73 430.676 1032.21C447.054 1060.18 469.662 1083.85 498.546 1094.87C499.993 1108 506.201 1120.08 511.431 1132.26C518.841 1149.39 526.496 1166.43 534.262 1183.41C549.505 1216.84 564.125 1251.24 581.95 1283.4C579.725 1324.19 596.792 1365.42 631.039 1387.05C630.105 1401.36 637.47 1416.22 643.189 1428.86C647.907 1439.25 654.694 1461.42 668.402 1463.02C682.71 1464.64 687.806 1446.33 692.212 1436.45C696.574 1426.73 700.958 1416.96 705.275 1407.21C707.077 1403.12 708.768 1399.91 709.636 1396.64C730.865 1390.72 751.627 1382.04 774.481 1385.02C789.612 1386.98 804.411 1391.48 819.231 1395.1C822.458 1410.7 831.559 1426.17 838.791 1439.7C844.199 1449.87 850.875 1467.54 865.539 1463.06C879.18 1458.88 883.675 1439.81 888.326 1428.26C892.42 1418.03 896.315 1407.72 900.009 1397.35C901.633 1392.75 903.102 1389.36 903.302 1385.91C940.686 1361.99 955.952 1315.91 952.592 1271.45C965.365 1261.39 971.462 1240.2 978.494 1226.52C988.619 1206.91 998.744 1187.35 1008.87 1167.77C1018.99 1148.21 1029.23 1128.69 1039.49 1109.16C1047.66 1093.58 1056.62 1078.49 1062.28 1061.98C1112.54 1017.56 1140.92 944.464 1137.13 879.842C1136.2 863.33 1134.04 843.881 1121.53 831.909C1123.96 830.174 1126.39 828.216 1129.08 826.28C1138.74 819.448 1149.62 814.419 1161.06 811.326C1163.06 810.814 1166.51 810.302 1170.16 809.545C1176.21 817.534 1183.17 824.454 1191.63 828.705C1206.36 836.07 1227.88 832.688 1235.36 816.466C1242.08 801.868 1232.93 783.198 1223.85 767.065C1226.28 738.581 1223.21 709.719 1224.32 681.125C1225.59 648.725 1230.02 616.458 1238.83 585.17C1247.57 554.328 1260.53 524.754 1278.31 498.007C1287.21 484.655 1297.22 471.837 1309.01 460.889C1318.52 452.032 1330.69 446.558 1340.03 437.835C1348.49 437.724 1356.81 436.566 1364.09 431.893C1380.53 421.368 1381.69 400.584 1366.74 388.523C1363.36 385.809 1359.77 383.294 1356.15 380.913C1356.3 369.964 1351.76 358.815 1349.89 348.067C1347.42 333.737 1346.67 319.25 1347.58 304.741C1349.36 277.126 1356.86 249.844 1368.65 224.876C1380.31 200.265 1395.93 177.433 1415.12 158.096C1426.04 147.058 1438.17 137.4 1452.23 130.725C1462.89 125.651 1474.37 123.248 1485.48 119.843C1491.02 120.578 1496.54 121.179 1502.06 121.579C1517.92 122.625 1535.61 115.37 1533.77 96.5666C1531.85 75.4042 1502.17 58.1139 1485.88 48.345ZM183.314 210.234C170.029 183.886 151.114 160.232 128.505 141.272C117.579 132.127 103.538 121.089 88.5395 113.791C101.58 111.209 114.553 108.539 127.37 106.425C192.482 95.855 258.551 87.799 324.575 93.0284C339.951 94.2746 356.151 95.3426 370.526 101.351C386.793 108.093 394.181 121.757 399.967 137.601C411.294 168.622 418.303 201.622 421.441 234.423C424.089 261.816 429.83 299.601 400.434 314.11C376.112 326.082 347.005 330.911 320.747 336.763C282.65 345.264 237.522 352.473 200.515 370.721C206.857 349.781 207.414 324.301 207.058 305.943C206.323 272.808 198.268 239.852 183.314 210.234ZM272.503 464.405C263.068 455.148 251.207 444.689 238.212 436.233C244.376 435.899 250.517 435.61 256.681 435.321C289.46 433.719 322.26 431.582 355.061 430.537C387.839 429.513 414.676 439.504 420.528 474.997C425.713 506.707 410.581 539.708 399.989 568.904C389.397 598.077 378.137 627.073 366.276 655.779C357.531 676.941 348.385 697.947 338.905 718.776C349.564 661.319 345.648 599.168 325.553 547.118C313.693 516.41 296.091 487.57 272.503 464.405ZM398.142 809.746C390.821 806.741 381.408 804.338 372.418 804.405C379.16 794.525 384.79 783.71 390.242 774.653C445.362 682.771 482.792 580.676 500.683 475.086C500.038 478.891 510.474 491.665 512.543 495.27C517.216 503.325 521.867 511.381 526.407 519.503C535.263 535.213 543.831 551.079 551.998 567.146C568.22 599.145 582.885 632.08 594.345 666.104C616.954 733.174 625.944 804.694 609.521 874.234C607.207 884.07 604.559 894.084 599.285 902.829C599.285 900.137 565.06 878.04 562.056 875.97C540.938 861.461 516.794 853.361 491.76 848.221C476.294 844.994 453.373 841.322 433.524 843.681C426.915 828.393 413.341 816.065 398.142 809.746ZM682.777 1412.46C680.596 1417.33 678.416 1422.23 676.235 1427.08C675.701 1428.28 669.848 1439.03 670.315 1443.15C665.776 1437.21 656.674 1416.27 655.117 1412.93C652.469 1407.28 650.155 1401.07 647.284 1395.22C652.447 1397.24 657.876 1398.91 663.64 1400.11C671.74 1401.82 679.573 1401.96 687.183 1401.16C685.67 1405.01 684.335 1408.97 682.777 1412.46ZM878.601 1402.8C876.064 1409.7 873.417 1416.51 870.724 1423.34C868.721 1428.31 866.696 1437.96 862.913 1441.66C862.068 1442.41 861.867 1443.21 862.156 1444.13C860.421 1441.21 858.752 1438.27 857.038 1435.34C853.367 1429.06 849.673 1422.74 846.001 1416.42C842.619 1410.57 839.281 1404.38 835.52 1398.53C850.296 1401.11 865.161 1401.54 880.56 1396.62C879.937 1398.73 879.313 1400.8 878.601 1402.8ZM878.891 1374.83C848.293 1386.92 817.406 1371.56 787.298 1365.69C755.722 1359.52 732.801 1369.56 702.916 1377.84C638.939 1395.48 591.074 1329.57 603.491 1270.78C610.923 1235.44 633.977 1205.36 663.195 1184.88C727.527 1139.89 856.482 1142.76 907.708 1208.23C945.182 1256.16 942.711 1349.58 878.891 1374.83ZM1140.98 799.865C1130.21 804.538 1114.19 812.127 1107.27 823.409C1091.23 818.402 1073.09 824.276 1057.8 830.329C1033.81 839.92 1010.56 851.425 988.485 864.844C972.152 874.746 951.479 886.518 937.104 901.383C886.323 751.132 961.894 603.552 1038.24 475.042C1056.13 580.654 1093.54 682.727 1148.66 774.608C1152.07 780.26 1155.51 786.625 1159.34 793.011C1151.71 795.192 1144.5 798.352 1140.98 799.865ZM1270.78 476.755C1249.6 505.35 1234.07 537.972 1223.56 571.952C1213.26 605.332 1207.74 640.358 1206.25 675.272C1205.43 695.01 1205.16 715.705 1207.79 735.777C1195.53 709.385 1183.75 682.749 1172.63 655.823C1160.77 627.117 1149.51 598.121 1138.91 568.948C1128.32 539.73 1113.19 506.752 1118.38 475.042C1124.23 439.549 1151.06 429.579 1183.84 430.581C1216.64 431.627 1249.47 433.763 1282.22 435.365C1290.68 435.766 1299.09 436.166 1307.55 436.589C1292.64 447.826 1279.75 464.672 1270.78 476.755ZM1411.04 136.889C1386.77 158.474 1366.92 186.312 1352.99 215.597C1340.1 242.745 1331.65 271.986 1329.62 302.005C1328.4 320.185 1327.91 348.891 1336.16 369.653C1299.58 352.206 1255.5 345.086 1218.18 336.763C1191.9 330.911 1162.79 326.104 1138.49 314.11C1109.1 299.601 1114.84 261.816 1117.48 234.423C1120.64 201.622 1127.65 168.622 1138.96 137.601C1144.72 121.735 1152.13 108.093 1168.4 101.351C1182.77 95.3648 1198.95 94.2746 1214.35 93.0284C1280.35 87.799 1346.44 95.855 1411.56 106.425C1423.1 108.317 1434.74 110.675 1446.43 112.989C1433.23 119.398 1421.03 128.032 1411.04 136.889ZM1511.76 100.238C1509.04 103.576 1493.4 99.2148 1490.42 98.703C1461.27 93.8741 1432.25 88.6446 1403.08 84.105C1345.33 75.1372 1286.87 68.328 1228.37 71.3767C1204.65 72.6451 1178.44 73.6017 1156.58 83.9047C1136.15 93.5179 1126.32 111.699 1119.02 132.127C1102.38 178.769 1088.42 237.939 1096.23 287.785C1104 337.386 1159.79 345.041 1200.75 354.409C1226.26 360.24 1252 365.269 1277.22 372.256C1288.68 375.461 1300.11 378.977 1311.22 383.249C1320.7 386.877 1342.39 393.018 1348.85 401.541L1351.43 403.099C1350.34 407.527 1349.29 412 1348.2 416.428C1345.91 418.097 1338.08 417.073 1335.18 417.073C1328.22 417.073 1321.21 416.451 1314.24 416.139C1298.82 415.405 1283.45 414.692 1268.05 413.958C1238.03 412.534 1207.85 410.109 1177.83 409.819C1132.91 409.352 1100.13 434.942 1097.12 481.317C1095.41 507.731 1104.71 533.611 1113.35 558.111C1123.29 586.35 1133.84 614.322 1144.99 642.093C1155.16 667.506 1165.82 692.674 1176.97 717.686C1182.6 730.281 1188.32 742.831 1194.21 755.36C1197.62 762.659 1201.11 769.913 1204.58 777.168C1209.46 787.182 1214.71 792.945 1210.84 803.871C1207.9 812.104 1207.79 813.773 1199.95 809.746C1197.24 808.321 1194.61 805.607 1192.52 803.426C1188.32 799.042 1185.04 793.701 1181.75 788.628C1174.16 777.056 1166.95 765.218 1159.97 753.291C1146.06 729.347 1133.33 704.734 1121.82 679.544C1098.75 629.053 1080.81 576.158 1068.11 522.107C1062.01 496.16 1057.25 469.99 1053.51 443.621C1052.24 434.653 1039.2 434.542 1035.22 441.262C951.412 580.876 854.924 751.799 923.841 917.649C931.897 936.987 974.533 896.532 982.299 891.414C999.723 879.953 1017.86 869.672 1036.71 860.682C1052.57 853.094 1082.33 835.359 1100.84 841.923C1121.02 849.067 1118.38 883.647 1117.57 900.737C1113.79 978.51 1067.1 1037.24 1005.46 1079.89C999.122 1084.28 1002.82 1096.56 1011.16 1093.4C1017.95 1090.82 1024.47 1087.75 1030.79 1084.3C1028.18 1089.35 1025.63 1094.38 1022.98 1099.48C1012.23 1120.06 1001.53 1140.62 990.889 1161.27C980.808 1180.9 970.995 1200.64 961.426 1220.49C957.843 1227.9 952.503 1236.53 948.475 1245.41C946.294 1236.78 943.468 1228.39 939.863 1220.49C892.977 1116.66 721.185 1106.31 640.363 1172.95C618.289 1191.14 600.954 1216.97 590.25 1244.48C589.449 1246.5 588.737 1248.57 588.047 1250.64C577.054 1226.92 565.149 1203.53 554.045 1179.94C546.101 1163.07 538.112 1146.23 530.123 1129.38C525.472 1119.55 521.267 1108.96 515.392 1099.63C520.354 1100.61 525.472 1101.26 530.768 1101.48C535.664 1101.66 535.731 1095.16 531.859 1093.58C451.371 1060.62 423.777 982.16 415.254 901.828C414.209 891.947 410.648 875.547 419.727 868.248C426.27 862.974 438.664 863.953 446.475 863.953C465.59 863.909 484.616 866.557 503.041 871.786C521.578 877.016 538.601 886.006 554.979 895.997C568.331 904.12 591.452 931.646 609.521 922.411C620.981 916.603 624.475 892.659 627.635 881.222C632.219 864.599 635.334 847.62 637.026 830.463C643.857 762.058 627.657 693.764 602.578 630.455C576.342 564.119 540.337 502.235 503.731 441.24C499.748 434.52 486.708 434.631 485.44 443.598C481.701 469.99 476.939 496.137 470.842 522.084C458.136 576.114 440.222 629.031 417.124 679.523C405.619 704.713 392.89 729.302 378.982 753.268C372.017 765.218 364.785 777.034 357.219 788.605C353.926 793.679 350.655 799.02 346.449 803.403C344.335 805.584 341.731 808.299 339.016 809.723C331.183 813.751 331.072 812.082 328.135 803.848C324.263 792.922 329.515 787.159 334.388 777.145C337.859 769.891 341.353 762.636 344.758 755.337C350.633 742.809 356.374 730.259 362.004 717.664C373.152 692.652 383.811 667.484 393.981 642.071C405.129 614.299 415.677 586.328 425.624 558.089C434.258 533.589 443.56 507.709 441.846 481.295C438.842 434.92 406.064 409.33 361.18 409.797C331.139 410.086 300.986 412.512 270.967 413.936C255.546 414.67 240.147 415.382 224.726 416.117C217.761 416.45 210.752 417.051 203.786 417.051C200.894 417.051 193.038 418.075 190.769 416.406C189.723 411.978 188.632 407.505 187.542 403.076L190.123 401.519C196.577 392.996 218.295 386.854 227.753 383.227C238.857 378.955 250.295 375.416 261.755 372.234C286.967 365.224 312.714 360.217 338.215 354.387C379.183 345.019 434.97 337.364 442.759 287.763C450.525 237.939 436.595 178.746 419.927 132.105C412.628 111.677 402.793 93.4962 382.409 83.883C360.535 73.58 334.321 72.6449 310.6 71.3543C252.097 68.3056 193.639 75.1377 135.893 84.0833C106.72 88.6229 77.6801 93.8517 48.5512 98.6806C45.5693 99.1924 29.9256 103.554 27.2108 100.216C24.2957 96.7001 37.8699 85.1288 40.4512 82.9703C50.6875 74.5142 62.1254 67.5047 73.8748 61.4075C122.141 36.3731 177.261 30.7434 230.801 29.119C259.619 28.2511 288.458 28.429 317.276 27.2718C344.313 26.1369 371.305 22.2205 398.387 22.4876C428.005 22.7323 455.398 30.3872 476.583 51.9279C495.298 70.9318 506.535 95.7214 513.679 121.09C529.055 175.698 533.817 233.555 546.234 288.965C579.302 436.078 630.906 578.094 682.71 719.444C696.974 758.341 711.261 797.239 725.213 836.271C733.491 859.413 739.878 883.202 748.556 906.211C752.829 917.604 757.524 929.042 763.577 939.59C777.329 963.757 788.656 907.969 791.526 899.669C803.788 863.953 816.538 828.438 829.4 792.945C855.214 721.936 881.694 651.15 906.618 579.852C939.974 484.366 970.594 387.744 992.78 288.986C1005.2 233.577 1009.94 175.72 1025.34 121.111C1032.48 95.7431 1043.69 70.9542 1062.43 51.9503C1083.62 30.4319 1111.03 22.7763 1140.65 22.5093C1167.73 22.2645 1194.72 26.1816 1221.76 27.2942C1250.58 28.4514 1279.42 28.2728 1308.24 29.1407C1361.75 30.7652 1416.9 36.3955 1465.16 61.4299C1476.91 67.5271 1488.35 74.5366 1498.59 82.9927C1501.08 85.129 1514.65 96.7225 1511.76 100.238Z" fill="#3D2938"/>
<path d="M728.533 1258.76C716.183 1253.6 704.811 1259.21 695.176 1266.88C689.256 1271.65 695.687 1281.33 702.408 1279.3C706.97 1277.92 722.213 1270.78 722.213 1283.55C722.213 1288.02 710.597 1295.1 707.37 1296.17C689.835 1302.13 680.623 1285.31 684.116 1270.04C689.524 1246.39 707.192 1234.19 728.355 1225.98C730.535 1225.14 730.869 1222 728.355 1221.27C685.206 1208.72 642.014 1294.1 689.88 1311.92C710.286 1319.53 737.901 1304.67 741.439 1282.59C743.131 1272.4 738.19 1262.79 728.533 1258.76Z" fill="#3D2938"/>
<path d="M823.15 1223.49C819.99 1223.65 819.634 1227.74 822.46 1228.79C840.284 1235.57 856.24 1255.6 849.719 1275.45C846.715 1284.71 836.657 1293.52 826.243 1290.29C821.058 1288.69 810.199 1276.72 818.833 1270.96C821.525 1269.18 829.692 1272.8 832.54 1274C836.902 1275.85 841.152 1271.31 841.286 1267.33C841.642 1257.27 833.675 1251.69 824.151 1250.86C813.67 1249.95 804.368 1256.63 800.051 1265.95C790.149 1287.25 809.954 1310.19 831.806 1309.32C885.791 1307.18 875.444 1221.09 823.15 1223.49Z" fill="#3D2938"/>
</g>
<defs>
<filter id="filter0_d_403_14694" x="0.894531" y="0.217773" width="1537" height="1471.56" filterUnits="userSpaceOnUse" color-interpolation-filters="sRGB">
<feFlood flood-opacity="0" result="BackgroundImageFix"/>
<feColorMatrix in="SourceAlpha" type="matrix" values="0 0 0 0 0 0 0 0 0 0 0 0 0 0 0 0 0 0 127 0" result="hardAlpha"/>
<feOffset dy="4"/>
<feGaussianBlur stdDeviation="2"/>
<feComposite in2="hardAlpha" operator="out"/>
<feColorMatrix type="matrix" values="0 0 0 0 0 0 0 0 0 0 0 0 0 0 0 0 0 0 0.25 0"/>
<feBlend mode="normal" in2="BackgroundImageFix" result="effect1_dropShadow_403_14694"/>
<feBlend mode="normal" in="SourceGraphic" in2="effect1_dropShadow_403_14694" result="shape"/>
</filter>
</defs>
</svg>
