<svg width="1626" height="1433" viewBox="0 0 1626 1433" fill="none" xmlns="http://www.w3.org/2000/svg">
<g filter="url(#filter0_d_403_14731)">
<path d="M46.1824 65.4952C34.522 67.1864 24.4412 68.6551 24.6638 84.6771C24.7305 91.7312 26.5997 99.3196 28.4022 106.663C29.1588 109.778 29.9156 112.827 30.4942 115.719C34.6555 136.459 39.4175 157.51 45.0697 180.074C62.3601 249.258 84.702 323.049 115.344 412.26C115.589 412.995 116.279 413.484 117.057 413.484H117.124C117.925 413.462 118.615 412.905 118.815 412.149C133.903 356.428 188.889 310.543 233.573 291.517C268.932 276.407 310.501 269.153 353.76 270.577C367.646 271.044 393.481 271.889 411.617 280.323C412.285 280.635 413.064 280.502 413.62 280.012C414.154 279.523 414.354 278.743 414.087 278.054C399.623 238.867 385.159 198.99 371.095 159.513C368.38 151.925 365.732 144.292 363.062 136.66C358.678 124.02 354.116 110.958 349.332 98.2292C342.723 80.5828 332.842 61.4899 309.499 53.5234C279.08 43.1313 242.029 45.9573 209.362 48.4274C202.241 48.9615 195.254 49.4956 188.555 49.8739C141.958 52.4775 95.5389 57.5067 50.566 64.8501C49.0751 65.0726 47.6066 65.295 46.1824 65.4952Z" fill="#CC9999"/>
<path d="M318.02 603.144C364.64 565.67 443.837 534.939 515.736 550.694C516.404 550.849 517.071 550.605 517.516 550.093C517.961 549.581 518.072 548.869 517.828 548.246C487.007 470.873 456.454 391.698 427.036 312.879C426.792 312.211 426.191 311.766 425.479 311.699C424.077 311.588 422.742 310.942 421.607 309.874C410.302 299.104 401.602 291.805 384.578 288.69C366.776 285.396 348.195 285.463 332.373 285.975C294.788 287.221 260.541 295.165 230.611 309.563C199.279 324.65 173.132 347.014 154.974 374.252C139.508 397.484 132.455 422.919 127.047 444.949C126.958 445.283 126.98 445.638 127.092 445.972C142.869 490.967 159.469 536.541 175.491 580.579C188.064 615.093 201.037 650.787 213.521 685.857L230.389 733.255C230.656 733.99 231.323 734.457 232.102 734.457H232.169C232.97 734.435 233.638 733.879 233.86 733.122C237.265 720.616 242.272 707.242 249.104 692.199C264.97 657.418 288.802 626.643 318.02 603.144Z" fill="#CC9999"/>
<path d="M523.527 850.507C541.262 840.026 560.622 830.903 581.051 823.381C583.254 822.558 585.612 821.645 588.06 820.71C599.253 816.371 613.206 810.964 625.534 810.029C626.223 809.985 626.824 809.54 627.069 808.895C627.336 808.249 627.203 807.514 626.758 807.003C621.973 801.551 618.991 794.185 616.099 787.087C615.453 785.484 614.786 783.882 614.14 782.302C596.872 741.647 579.96 701.213 563.894 662.115C552.923 635.456 541.396 607.04 526.531 569.967C526.287 569.366 525.73 568.92 525.062 568.831C490.081 564.403 458.26 561.377 423.345 569.232C387.207 577.354 353.872 593.332 326.969 615.473C300.51 637.17 278.524 665.586 263.37 697.653C254.447 716.478 249.863 736.417 245.434 755.688C244.567 759.426 243.721 763.165 242.831 766.903C242.742 767.237 242.764 767.593 242.898 767.949C288.093 893.855 328.793 1003.94 367.357 1104.48C367.624 1105.19 368.314 1105.64 369.049 1105.64C369.138 1105.64 369.249 1105.63 369.36 1105.61C370.206 1105.46 370.851 1104.74 370.873 1103.88C371.296 1088.08 373.343 1070.68 376.97 1052.14C385.471 1009.01 404.208 967.512 431.178 932.108C455.945 899.53 487.032 872.07 523.527 850.507Z" fill="#CC9999"/>
<path d="M760.252 1238.86C749.481 1233.79 739.601 1227.38 733.104 1223.04C712.097 1208.86 692.871 1189.59 674.289 1164.09C633.812 1108.68 607.242 1050.34 599.431 999.756C591.843 950.733 598.452 899.974 618.502 852.976C621.773 845.299 625.445 837.667 629.361 830.279C629.717 829.611 629.628 828.81 629.138 828.254C628.649 827.697 627.87 827.474 627.158 827.741C621.15 829.878 614.541 831.413 608.154 832.882C602.168 834.261 596.004 835.686 590.485 837.599C572.082 843.986 553.991 852.197 536.767 862.011C500.963 882.35 470.61 908.185 446.599 938.827C421.164 971.205 402.939 1009.99 393.86 1050.96C389.231 1071.7 386.984 1093.33 387.184 1115.25C387.273 1123.95 387.985 1132.74 388.675 1141.22C389.254 1148.36 389.877 1155.75 390.077 1163C390.077 1163.2 390.122 1163.4 390.211 1163.6C393.838 1172.97 397.465 1182.34 401.137 1191.66C404.541 1200.3 407.879 1209 411.217 1217.7C422.633 1247.38 434.427 1278.09 448.513 1307.09C461.086 1332.99 481.847 1369.71 516.962 1389.53C537.168 1400.93 558.219 1405.94 579.048 1405.94C634.791 1405.94 688.843 1370.02 720.219 1324.2C730.567 1309.09 739.468 1292.56 746.678 1275.11C748.057 1271.75 749.259 1268.23 750.527 1264.52C753.287 1256.44 756.135 1248.12 760.964 1241.6C761.298 1241.15 761.409 1240.6 761.275 1240.09C761.097 1239.55 760.741 1239.11 760.252 1238.86Z" fill="#CC9999"/>
<path d="M1176.29 1302.97C1190 1275.35 1200.32 1245.6 1210.31 1216.83C1213.41 1207.93 1216.48 1199.05 1219.66 1190.24L1230.41 1160.38C1230.65 1159.71 1230.47 1158.95 1229.96 1158.46C1229.45 1157.97 1228.69 1157.82 1228.03 1158.08C1203.53 1167.85 1169.97 1168.68 1135.97 1160.33C1094.51 1150.14 1052.96 1126.53 1018.96 1093.86C984.58 1060.75 959.635 1019.07 946.862 973.363C939.941 948.529 936.514 923.116 936.692 897.882L936.715 894.611C936.759 885.22 936.826 873.537 938.45 862.633C938.562 861.921 938.25 861.231 937.649 860.853C937.048 860.453 936.292 860.452 935.691 860.831C933.71 862.077 931.73 863.279 929.749 864.503C922.517 868.931 915.063 873.493 908.743 878.967C894.279 891.451 881.238 905.892 870.001 921.892C847.837 953.491 831.682 990.631 821.957 1032.31C811.988 1074.92 809.473 1120.83 814.703 1165.12C820.088 1210.67 836.51 1251.63 852.043 1285.99C857.005 1292.94 861.923 1300.23 866.685 1307.29C893.433 1346.92 921.071 1387.89 972.408 1395.9C982.489 1397.48 993.392 1398.23 1004.7 1398.23C1036.07 1398.23 1070.59 1392.34 1099.25 1381.57C1130.69 1369.77 1155.88 1344.07 1176.29 1302.97Z" fill="#CC9999"/>
<path d="M810.766 1240.8C811.078 1241.04 811.479 1241.15 811.857 1241.15C812.235 1241.15 812.614 1241.04 812.947 1240.8C813.593 1240.33 813.838 1239.48 813.57 1238.73C791.807 1177.73 789.115 1100.85 806.16 1027.77C816.686 982.577 835.423 940.964 860.324 907.496C873.297 890.072 887.65 874.962 902.96 862.612C909.324 857.516 916.556 851.708 924.3 846.835C924.745 846.545 925.057 846.078 925.124 845.566C925.19 845.032 925.034 844.52 924.701 844.119C919.293 837.933 915.266 830.212 911.394 822.735C908.278 816.726 905.051 810.518 901.068 805.022C889.652 789.267 875.277 775.403 859.523 764.945C827.723 743.916 789.293 736.238 754.022 743.893C736.197 747.765 719.953 754.819 705.756 764.877C696.298 771.553 689.244 779.92 682.435 788.02C678.229 793.027 673.868 798.213 668.972 802.952C667.214 804.621 665.745 805.934 664.366 807.024C664.254 807.113 664.143 807.225 664.054 807.358C649.189 827.141 638.775 845.143 631.231 864.058C613.807 907.762 608.356 953.937 615.454 997.597C622.82 1042.9 644.316 1091.44 681.166 1146.02C698.256 1171.32 717.683 1191.77 738.89 1206.8C750.15 1214.74 761.721 1221.04 773.271 1225.51C776.809 1226.89 780.481 1228.02 784.019 1229.09L786.266 1229.74C793.654 1230.54 801.91 1234.26 810.766 1240.8Z" fill="#CC9999"/>
<path d="M1240.05 1133.67L1297.92 972.853C1314.06 928.058 1330.19 883.285 1346.3 838.468C1346.55 837.778 1346.35 837 1345.81 836.51C1345.26 836.021 1344.48 835.909 1343.81 836.221C1338.87 838.58 1334.02 840.582 1329.75 842.34L1327.25 843.364C1310.72 850.373 1292.85 855.18 1274.09 857.606C1234.15 862.813 1193.2 857.071 1155.71 841.049C1120.13 825.873 1087.86 802.018 1059.8 770.13C1046.07 754.576 1034.01 737.975 1023.88 720.796L1022.59 718.637C1020.74 715.544 1018.81 712.273 1016.92 708.89C1016.56 708.267 1015.89 707.911 1015.18 707.956C1014.47 708.023 1013.87 708.49 1013.62 709.18C1000.81 746.075 986.854 783.103 972.189 819.22C971.432 821.067 970.698 823.025 969.942 825.027C966.871 833.127 963.399 842.296 957.258 848.015C956.924 848.326 956.724 848.749 956.679 849.216C956.434 852.398 955.945 855.737 955.455 858.941C955.054 861.544 954.676 864.148 954.387 866.751C953.297 876.876 952.74 887.336 952.696 897.817C952.651 921.071 955.655 944.013 961.575 966.043C972.723 1007.57 994.509 1045.77 1024.59 1076.55C1054.59 1107.26 1090.89 1129.76 1129.56 1141.57C1145.63 1146.47 1161.05 1148.94 1176.25 1148.94C1197.32 1148.94 1217.93 1144.2 1239.04 1134.67C1239.51 1134.52 1239.87 1134.14 1240.05 1133.67Z" fill="#CC9999"/>
<path d="M1162.54 824.871C1188.79 836.087 1216.81 841.805 1244.8 841.805C1254.26 841.805 1263.74 841.16 1273.13 839.825C1291.76 837.244 1309.36 832.148 1325.43 824.693C1329.76 822.668 1334.06 819.82 1338.6 816.838C1344.56 812.899 1350.75 808.805 1356.94 806.824C1357.47 806.646 1357.89 806.246 1358.09 805.712L1385.17 730.475C1406.05 672.484 1426.9 614.515 1447.79 556.547C1448.04 555.857 1447.86 555.101 1447.33 554.612C1446.79 554.122 1446.01 553.988 1445.35 554.277C1345.39 598.449 1223.35 583.896 1134.45 517.226C1117.3 504.342 1101.34 489.233 1087.03 472.298C1086.56 471.764 1085.83 471.52 1085.16 471.72C1084.5 471.898 1083.96 472.477 1083.85 473.166C1082.85 479.019 1081.18 484.604 1079.44 490.501C1078.31 494.306 1077.15 498.268 1076.19 502.251C1073.9 511.642 1070.92 520.965 1067.49 531.446C1063.56 547.09 1060.19 559.819 1056.9 571.501C1046.38 609.109 1034.63 647.272 1021.94 684.923C1021.79 685.413 1021.83 685.925 1022.08 686.37C1059.86 755.354 1105.81 800.682 1162.54 824.871Z" fill="#CC9999"/>
<path d="M1327.87 19.2774C1327.69 19.2107 1327.52 19.1885 1327.32 19.1885C1275.44 18.8992 1230.4 29.358 1189.06 51.2325C1128.44 83.232 1083.27 136.149 1058.39 204.242C1032.78 274.383 1033.62 342.454 1060.84 401.09C1084.92 452.961 1133.45 501.895 1187.5 528.777C1230.94 550.429 1277.67 561.021 1323.4 561.021C1391.25 561.021 1456.89 537.722 1506.38 492.727C1590.65 416.066 1622.83 292.853 1584.62 193.094C1545.46 90.8424 1445.74 22.8153 1330.56 19.8112C1329.74 19.7889 1328.94 19.6335 1327.87 19.2774ZM1422.58 284.931C1407.27 298.06 1381.35 296.146 1368.15 280.903C1357.49 268.597 1355.69 253.576 1363.19 239.735C1369.84 227.474 1382.7 218.662 1395.92 217.283C1397.08 217.171 1398.32 217.082 1399.61 217.082C1407.51 217.082 1417.71 219.775 1426.85 230.501C1439.91 245.811 1437.89 271.757 1422.58 284.931ZM1364.7 408.634C1369.64 400.645 1370.06 391.967 1370.49 383.577C1370.62 380.863 1370.75 378.148 1371.04 375.388C1371.11 374.654 1371.69 373.92 1372.38 373.675C1372.87 373.497 1373.27 373.63 1373.67 374.053C1384.91 386.159 1380.79 405.43 1372.18 418.225C1363.08 431.799 1345.72 440.011 1328.07 439.232C1310.16 438.431 1293.47 428.128 1285.55 412.951C1278.14 398.754 1278.29 378.704 1291.4 369.714C1291.82 369.424 1292.33 369.269 1292.91 369.269C1293.56 369.269 1294.27 369.469 1294.92 369.847C1295.34 370.092 1296.74 371.049 1296.58 372.629C1296.3 375.522 1295.76 378.437 1295.23 381.241C1293.87 388.428 1292.47 395.839 1295.23 403.627C1299.94 416.957 1314.7 426.748 1330.3 426.903C1330.45 426.903 1330.59 426.903 1330.74 426.903C1344.54 426.948 1357.85 419.805 1364.7 408.634ZM1203.52 256.046C1203.46 242.072 1210.31 228.72 1223.4 217.438C1233.99 208.315 1247.63 203.174 1260.87 203.174C1262.85 203.174 1264.85 203.285 1266.81 203.53C1285.99 205.845 1303.19 219.73 1309.62 238.111C1315.94 256.269 1311.27 277.943 1297.96 292.052C1282.34 308.63 1261.29 313.37 1240.2 305.048C1218.68 296.547 1203.59 276.408 1203.52 256.046Z" fill="#CC9999"/>
<path opacity="0.1" d="M1615.93 227.541C1608.72 192.426 1593.93 159.202 1573.79 129.539C1568.09 190.334 1556.79 250.505 1533.09 306.738C1494.41 398.553 1421.51 467.648 1329.34 504.632C1308.85 512.866 1287.3 520.12 1269.19 533.116C1245.54 550.072 1234.14 575.129 1225.69 602.188C1205.75 666.165 1195.47 732.523 1181.18 797.857C1159.31 897.905 1120.61 993.748 1052.03 1071.39C1025.57 1101.34 991.321 1130.94 950.198 1136.14C914.95 1140.59 882.127 1128.53 854.978 1106.39C800.014 1061.53 770.685 977.08 700.477 952.157C667.432 940.43 624.462 946.438 598.649 971.228C575.728 993.213 567.272 1026.15 561.219 1056.26C549.937 1112.35 550.85 1189.71 500.982 1228.16C467.914 1253.64 431.508 1252.1 398.062 1237.73C401.823 1247.16 405.539 1256.64 409.322 1266.05C422.273 1298.32 435.492 1331.17 456.031 1359.49C497.844 1417.24 567.918 1438.87 635.566 1415.59C705.996 1391.36 746.429 1329.59 772.354 1263.43C783.302 1235.46 809.36 1265.03 820.108 1277.25C831.546 1290.27 841.226 1304.71 850.928 1319.06C868.241 1344.67 885.62 1371.29 910.365 1390.4C939.294 1412.79 974.409 1419.11 1010.35 1417.22C1048.33 1415.19 1090.9 1410.5 1124.7 1391.92C1187.88 1357.22 1209.11 1278.92 1231.81 1215.94C1296.54 1036.12 1361.32 856.315 1426.07 676.49C1441.65 633.231 1457.2 589.971 1472.74 546.712C1473.36 544.998 1473.54 543.441 1473.38 542.039C1476.08 540.481 1478.75 538.924 1481.37 537.255C1582.51 473.768 1640.06 345.08 1615.93 227.541Z" fill="#592639"/>
<path opacity="0.15" d="M401.201 446.373C357.63 309.341 313.837 170.973 290.538 28.8221C261.677 24.7054 230.456 27.9099 202.818 29.1338C158.224 31.0921 113.718 35.409 69.5683 41.7733C52.5895 44.1988 27.5775 43.6202 13.714 54.9023C2.72116 63.8257 3.29976 77.6451 5.32476 90.4627C19.433 179.362 46.6258 266.682 75.0426 351.91C104.327 439.742 135.904 526.839 166.791 614.114C187.041 671.282 207.402 728.382 227.941 785.438C228.587 789.422 229.499 793.427 230.767 797.299C231.123 798.389 231.969 799.013 232.881 799.191C238.467 814.657 244.097 830.1 249.704 845.565C282.305 885.509 318.466 922.493 360.212 950.176C384.401 966.22 415.733 982.019 445.395 972.762C492.26 958.142 503.408 898.594 504.053 856.269C504.944 797.789 490.568 740.332 474.101 684.656C450.536 604.969 426.391 525.571 401.201 446.373Z" fill="#FFFCFC"/>
<path opacity="0.15" d="M1066.54 143.893C1029.73 207.335 1010.57 286.399 1027.15 358.832C1034.85 392.3 1049.58 424.077 1069.39 452.36C1049.03 536.454 1025.2 619.812 996.623 701.48C989.413 722.086 981.891 742.626 974.125 763.054C970.03 773.802 965.891 784.505 961.597 795.208C957.814 804.71 954.587 820.799 947.911 828.632C939.3 838.757 933.981 823.291 930.354 816.482C926.482 809.272 922.231 802.285 917.469 795.609C906.81 780.811 894.349 767.659 879.907 756.444C827.769 716.055 754.134 708.912 698.168 746.497C697.946 746.631 697.768 746.808 697.568 746.942C697.167 748.767 696.744 750.569 696.322 752.35C688.978 783.993 679.076 815.013 672.533 846.835C667.215 872.648 661.585 904.559 674.625 929.081C681.078 941.231 692.116 948.998 704.711 953.915C724.16 961.504 737.645 950.511 756.048 945.749C794.656 935.779 815.774 967.579 830.083 997.753C838.962 1016.45 848.219 1033.05 868.38 1041.08C881.042 1046.13 894.816 1048.58 908.412 1046.95C968.272 1039.88 1006.24 970.338 1030.07 922.361C1056.06 870 1075.4 814.19 1092.26 758.313C1108.02 706.064 1131.63 651.679 1127.51 596.158C1123.89 547.046 1093.82 505.166 1093.11 454.986C1091.02 306.493 1185.68 181.054 1312.59 112.271C1369.71 81.2952 1433.44 60.4894 1498.44 52.3894C1361.5 -44.3879 1151.5 -2.48596 1066.54 143.893Z" fill="#FFFCFC"/>
<path opacity="0.3" d="M819.47 1028.71C814.152 1024.63 806.074 1024.3 802.669 1031.76C788.806 1062.2 758.987 1102.12 722.871 1104.52C683.617 1107.13 653.442 1079.58 633.081 1049.2C628.185 1041.88 614.5 1046.26 617.949 1055.59C622.244 1067.18 628.119 1078.2 635.328 1088.12C633.838 1089.43 632.858 1091.24 632.925 1093.35C631.946 1094.91 631.523 1096.91 632.058 1099.23C642.049 1143.29 641.648 1188.35 632.792 1232.61C628.452 1254.28 621.91 1275.69 612.942 1295.9C612.875 1296.05 612.809 1296.19 612.742 1296.32C601.349 1317.77 586.328 1334.33 564.253 1332.28C539.864 1330.03 520.282 1301.19 506.129 1284.06C488.193 1262.36 471.793 1239.44 456.483 1215.83C425.797 1168.45 400.851 1118.74 375.327 1068.52C360.752 1039.83 346.176 1010.9 332.624 981.709C319.139 952.647 308.791 921.783 292.658 894.033C287.74 885.577 275.835 891.474 277.526 900.42C282.912 928.97 293.682 956.586 303.117 984.001C312.619 1011.62 321.075 1039.39 331.556 1066.69C352.251 1120.52 378.042 1173.28 408.217 1222.48C410.954 1226.93 413.758 1231.32 416.584 1235.7C419.677 1248.07 423.393 1260.29 428.356 1272.71C437.479 1295.52 448.828 1316.28 460.556 1337.75C471.348 1357.51 480.004 1374.87 498.452 1388.76C518.257 1403.67 542.268 1409.16 566.812 1407.03C576.136 1406.23 585.216 1404.53 594.028 1402.15C603.73 1408.72 616.681 1410.45 628.542 1407.29C636.686 1405.13 644.007 1400.88 650.727 1395.61C652.352 1394.94 653.999 1394.08 655.623 1392.94C677.965 1377.61 697.169 1359.69 713.28 1337.86C722.938 1324.78 730.459 1312.14 735.177 1298.3C743.299 1287.73 750.932 1276.07 750.798 1263.76C763.482 1260.67 773.919 1248.32 764.217 1234.92C764.15 1234.83 764.083 1234.75 764.016 1234.66C770.803 1235.79 777.056 1234.37 782.197 1231.32C782.419 1231.41 782.664 1231.45 782.887 1231.54C783.421 1232.3 783.999 1233.05 784.645 1233.77C788.606 1238.17 794.28 1242.62 800.266 1243.45C805.74 1244.2 811.771 1243 814.641 1237.59C817.245 1232.68 816.867 1226.18 812.661 1222.17C812.305 1221.84 811.926 1221.57 811.57 1221.24C815.465 1215.39 817.423 1207.82 816.177 1199.63C814.218 1186.68 808.321 1174.13 806.007 1161.11C804.672 1153.61 803.893 1146.16 803.582 1138.55C803.448 1135.97 803.426 1133.41 803.426 1130.82C805.006 1128.31 806.452 1125.71 807.765 1123.06C806.92 1112.8 806.875 1102.54 807.298 1092.66C806.052 1090.48 804.627 1088.41 802.936 1086.65C804.694 1084.58 806.408 1082.47 808.055 1080.33C809.434 1063.18 812.483 1044.84 819.47 1028.71Z" fill="#592642"/>
<path opacity="0.3" d="M910.875 1378.14C943.475 1397.37 980.125 1399.19 1017.06 1398.77C1040.41 1398.5 1063.28 1395.25 1083.69 1385.88C1123.79 1392.32 1161.8 1343.63 1176.48 1312.03C1188.06 1287.13 1195.18 1260.67 1203.59 1234.61C1208.02 1220.88 1212.96 1207.55 1219.28 1194.56C1225.2 1182.41 1230.71 1172.77 1231.58 1158.93C1231.63 1158.22 1231.58 1157.53 1231.49 1156.84C1232.56 1156.21 1233.54 1155.39 1234.43 1154.3C1249.34 1135.9 1258.11 1115.02 1265.67 1093.28C1274.86 1078.75 1280.83 1062.69 1274.93 1048.67C1278.82 1042.17 1282.61 1035.56 1286.21 1028.75C1302.08 998.708 1315.25 967.243 1327.18 935.444C1333.41 918.843 1339.24 902.087 1344.94 885.309C1350.79 868.04 1359.29 852.909 1350.86 835.463C1349.85 833.371 1348.39 831.702 1346.65 830.433C1359.67 813.076 1366.63 788.887 1374.98 769.238C1385.01 745.561 1394.78 721.751 1404.22 697.829C1413.59 674.041 1422.49 650.075 1431.1 625.975C1439.24 603.188 1451.26 577.441 1449.7 552.83C1449.5 549.692 1447.54 546.866 1444.96 545.242C1449.1 543.506 1453.24 541.614 1457.36 539.389C1492.56 520.385 1522.63 491.991 1546.52 460.169C1565.48 434.935 1584.89 403.781 1588.38 371.425C1590.43 366.619 1592.37 361.746 1594.15 356.694C1600.33 339.137 1605.01 320.378 1606.38 301.775C1607.43 287.689 1604.56 276.407 1600.13 264.857C1601.96 248.502 1602.53 231.989 1601.47 215.567C1599.66 187.84 1590.52 162.895 1579.97 137.593C1575.08 125.866 1553.62 125.354 1555.18 140.953C1557.56 164.719 1555.63 188.886 1554.74 212.675C1553.85 236.752 1552.18 260.406 1547.28 284.061C1537.76 330.213 1518.44 374.519 1489.27 411.703C1485.06 417.066 1480.59 422.207 1476.03 427.236C1450.68 450.512 1420.71 470.139 1388.98 483.446C1310.56 516.336 1221.66 518.026 1139.7 498.132C1128.86 495.507 1125.53 510.283 1135.23 514.333C1157.01 523.457 1179.69 530.778 1202.81 536.074C1203.3 537.298 1204.08 538.477 1205.26 539.612C1215 548.824 1225.24 552.964 1236.86 554.877C1237.92 557.993 1240.64 560.596 1245.04 560.93C1272.26 562.977 1296.56 567.895 1324.13 564.112C1333.37 562.844 1342.33 560.908 1351.15 558.549C1353.1 561.553 1356.31 563.756 1360.14 563.801C1362.83 563.823 1365.52 563.756 1368.17 563.623C1366.86 566.093 1366.08 569.03 1366.1 572.412C1366.17 586.32 1373.09 598.693 1374.44 612.578C1375.85 626.887 1374.07 641.463 1370.91 655.393C1365.1 680.828 1355.31 705.551 1343.76 728.894C1332.99 750.657 1320.15 771.219 1304.48 789.8C1296.16 799.658 1287.7 808.113 1278.33 816.97C1269.63 825.181 1257.77 830.923 1250.47 840.135C1246.96 844.586 1247.11 853.509 1254.3 854.622C1277.33 858.138 1302.84 841.337 1320.97 826.606C1320.9 828.831 1321.55 830.811 1322.68 832.502C1312.09 841.025 1310.09 854.956 1305.75 868.04C1301.17 881.904 1296.52 895.723 1291.62 909.475C1280.74 940.073 1268.81 970.269 1254.28 999.332C1240.42 1027.08 1223.64 1052.94 1206.75 1078.89C1198.56 1091.46 1189.01 1102.54 1178.2 1112.98C1167.45 1123.35 1154.28 1131.82 1144.42 1142.84C1142.35 1145.15 1141.48 1148.54 1141.72 1151.79C1140.79 1152.3 1139.86 1152.92 1138.99 1153.72C1128.75 1163.16 1127.28 1179.6 1121.61 1192.09C1115.18 1206.17 1106.94 1219.68 1097.22 1231.74C1076.99 1256.77 1050.56 1276.09 1020.74 1288.02C957.784 1313.23 885.707 1298.08 831.967 1258.64C824.645 1253.26 816.122 1264.9 822.398 1271.04C833.012 1281.43 844.806 1290.44 857.424 1298.01C857.001 1299.39 856.89 1300.88 857.246 1302.37C864.522 1333.37 883.104 1361.76 910.875 1378.14Z" fill="#592642"/>
<path opacity="0.3" d="M605.257 902.711C607.371 897.615 607.772 892.697 607.772 887.668C608.039 887.446 608.284 887.268 608.528 887.023C625.619 868.954 638.258 838.579 626.509 814.301C626.242 813.745 625.93 813.233 625.619 812.788C626.509 802.974 624.551 793.717 617.029 785.573C616.918 784.171 616.851 782.769 616.673 781.345C613.98 758.803 604.211 737.796 596.089 716.789C587.744 695.182 580.779 671.349 567.65 652.078C566.404 650.231 564.535 649.03 562.488 648.407C559.439 637.169 556.212 625.976 552.741 614.827C534.939 557.771 510.973 502.606 490.478 446.463C469.382 388.672 449.399 330.481 427.947 272.824C424.342 263.167 409.166 266.927 412.214 277.164C447.151 394.169 482.578 511.241 518.627 627.89C535.606 682.876 547.467 738.686 552.029 796.121C556.079 847.191 559.238 902.177 587.744 946.438C594.086 956.274 611.043 950.243 607.305 938.182C604.323 928.591 601.942 918.956 599.983 909.298C602.253 907.674 604.145 905.381 605.257 902.711Z" fill="#592642"/>
<path opacity="0.3" d="M885.335 793.049C863.015 791.491 844.568 805.799 834.176 824.647C806.582 874.716 818.22 937.135 808.852 991.454C806.983 1002.34 821.981 1006.79 825.564 996.06C826.454 993.435 827.233 990.787 827.989 988.139C829.057 987.427 830.037 986.447 830.771 985.112C840.295 967.933 845.658 947.95 850.665 928.39C852.245 927.967 853.736 927.166 854.893 925.875C866.175 913.57 875.855 899.439 887.782 887.845C898.887 877.052 913.996 870.377 923.654 858.138C936.115 842.316 932.221 821.843 918.758 810.94C911.682 800.614 897.329 793.872 885.335 793.049Z" fill="#592642"/>
<path opacity="0.5" d="M1425.65 28.3115C1395.75 16.918 1363.26 11.2215 1331.37 9.24096C1273.87 5.70277 1215.92 19.1206 1166.52 48.8726C1070.7 106.619 1014.51 215.212 1028.17 326.877C1034.38 377.524 1054.37 423.298 1088.19 459.281C1087.54 459.748 1086.94 460.327 1086.39 460.994C1079.65 469.161 1075.86 478.596 1072.35 488.343C1061.58 506.568 1055.12 528.865 1048.76 547.179C1037.03 580.914 1026.39 615.117 1024.75 651.055C1024.52 655.906 1024.59 660.668 1024.9 665.341C1023.66 668.634 1022.79 672.039 1022.28 675.444C1014.36 700.812 1007.92 726.692 1000.83 752.327C993.616 765.834 987.341 779.92 980.687 794.073C974.256 807.736 967.269 821.533 961.127 835.619C960.103 835.53 959.035 835.597 957.967 835.864C914.574 846.723 880.283 890.984 862.236 929.726C861.902 930.438 861.679 931.128 861.524 931.818C814.236 991.856 792.584 1072.23 806.848 1147.29C807.16 1148.87 807.805 1150.12 808.673 1151.12C808.918 1167.61 810.542 1184.14 813.724 1200.59C815.571 1210.07 830.792 1207.86 830.481 1198.32C828.523 1137.12 838.937 1075.28 867.131 1020.52C881.551 992.523 899.887 966.732 922.362 944.635C929.684 937.448 936.96 930.461 944.037 923.384C947.708 968.068 968.092 1012.6 989.165 1050.36C993.905 1058.84 1008.73 1053.12 1005.23 1043.59C985.583 990.187 965.511 936.847 981.421 879.457C981.644 878.612 981.933 877.811 982.178 876.987C982.267 876.854 982.356 876.72 982.445 876.564C985.048 872.225 987.563 867.819 990.011 863.39C1002.74 846.901 1012.13 827.764 1019.61 806.112C1026.08 787.331 1032.4 768.038 1038.28 748.544C1040.5 741.98 1042.68 735.415 1044.82 728.85C1053.12 743.493 1063.42 757.223 1074.79 770.13C1077 772.867 1079.27 775.581 1081.63 778.252C1082.23 778.941 1082.92 779.431 1083.63 779.809C1093.93 790.758 1104.81 801.127 1115.58 811.03C1123.08 817.928 1133.59 807.403 1126.75 799.859C1098.47 768.683 1072.39 735.793 1062.22 696.984C1061.2 692.512 1060.33 687.994 1059.62 683.477C1080.98 618.276 1100.32 552.453 1121.3 487.186C1122.1 487.319 1122.88 487.274 1123.66 487.141C1124.08 487.564 1124.53 487.964 1124.95 488.387C1099.92 463.264 1090.86 403.849 1086.88 370.425C1081.63 326.365 1085.14 280.724 1099.96 238.733C1128.4 158.201 1203.86 95.9375 1283.3 69.0561C1358.63 43.5545 1420.91 58.6639 1495.35 71.526C1478.66 52.3664 1449.4 37.3461 1425.65 28.3115Z" fill="#FFF7F7"/>
<path opacity="0.5" d="M839.957 760.003C849.704 760.448 851.528 747.742 844.586 742.913C780.186 698.252 702.947 752.326 663.225 804.509C620.3 860.875 597.602 932.396 605.724 1003.09C606.948 1013.8 622.258 1014.31 622.792 1003.09C625.73 942.565 643.688 881.749 681.139 833.438C698.919 810.517 720.882 789.711 746.963 776.537C774.934 762.362 809.137 758.601 839.957 760.003Z" fill="#FFF7F7"/>
<path opacity="0.5" d="M424.549 314.037C432.872 313.436 440.861 305.959 438.168 295.901C426.552 252.441 408.082 211.674 389.167 170.907C379.599 150.256 369.585 129.806 359.393 109.445C350.692 92.0211 342.214 73.2839 328.084 59.4205C298.065 30.0023 254.449 35.8329 216.13 37.4128C171.535 39.2598 125.762 38.6591 81.7234 46.8259C72.0435 48.6283 63.0087 51.5651 54.8419 55.5706C45.8073 56.5498 35.2373 57.1735 27.7604 62.7589C15.7439 71.7713 13.9637 91.3978 15.5882 107.309C15.3434 108.822 15.054 110.335 14.8982 111.915C10.7592 150.256 28.784 189.355 40.5112 224.914C70.3966 315.572 99.8146 406.43 130.412 496.821C147.258 546.556 166.017 595.712 182.929 645.492C192.92 674.932 202.467 705.152 213.526 734.659C213.259 737.351 213.059 740.044 212.992 742.758C212.881 747.32 216.308 750.725 220.269 751.927C226.211 766.68 232.619 781.189 239.852 795.208C244.636 804.487 257.298 797.634 255.673 788.532C251.957 767.526 246.461 746.698 240.23 726.025C246.171 711.182 251.868 696.317 260.19 682.297C272.919 660.846 289.542 641.865 308.323 625.509C316.089 618.744 305.764 605.081 297.219 611.111C271.027 629.514 244.28 656.93 228.124 688.083C225.565 680.295 222.984 672.529 220.447 664.785C207.807 626.243 195.168 587.724 182.996 549.048C166.729 497.355 150.24 445.729 133.75 394.058C139.981 378.637 147.258 364.372 159.519 351.132C175.697 333.686 196.08 320.601 216.709 309.03C226.255 303.667 219.802 286.777 209.054 290.871C178.679 302.465 142.206 324.251 120.844 353.669C116.237 339.227 111.631 324.807 107.047 310.365C99.5034 286.599 92.1155 262.789 84.7498 238.956C84.5718 237.977 84.3492 237.02 84.1712 236.041C79.2311 210.228 73.3117 181.922 80.4104 155.953C93.1834 109.156 153.934 88.3049 196.258 79.4261C199.441 78.7585 202.667 78.2023 205.871 77.7127C213.994 77.3789 222.094 77.0672 230.216 76.7334C233.776 76.5999 237.448 76.3548 241.164 76.11C328.751 70.5023 361.24 193.026 392.439 253.42C393.218 254.911 394.019 256.402 394.798 257.893C366.937 250.438 333.558 254.355 308.724 262.255C299.4 265.214 300.379 281.37 311.171 280.279C328.907 278.455 346.598 277.988 364.355 280.013C380.244 281.815 395.465 287.534 411.264 289.092C415.693 297.459 420.121 305.737 424.549 314.037Z" fill="#FFF7F7"/>
<path opacity="0.5" d="M518.03 847.902C482.448 850.038 451.138 875.362 428.796 901.598C401.359 933.82 388.052 969.669 380.308 1010.57C378.238 1021.52 393.303 1025.75 397.019 1015.18C408.502 982.487 426.059 947.75 448.356 921.158C469.296 896.168 495.91 882.75 522.859 865.726C530.402 860.942 527.954 847.301 518.03 847.902Z" fill="#FFF7F7"/>
<path d="M1369.22 375.231C1368.06 386.402 1369.39 397.595 1363.16 407.676C1356.31 418.824 1343.27 425.278 1330.32 425.122C1316.41 424.966 1301.72 416.599 1296.94 403.047C1293.27 392.744 1297.39 383.086 1298.39 372.828C1298.79 368.867 1293.51 366.041 1290.38 368.221C1276 378.102 1276.45 399.398 1283.94 413.795C1292.4 429.973 1309.94 440.254 1328 441.055C1345.56 441.856 1363.74 434.09 1373.69 419.247C1382.7 405.851 1386.91 385.645 1375 372.828C1372.82 370.491 1369.48 372.516 1369.22 375.231Z" fill="#3D2938"/>
<path d="M1311.34 237.508C1304.73 218.638 1286.91 204.129 1267.04 201.726C1250.99 199.812 1234.46 205.509 1222.22 216.056C1207.62 228.651 1201.63 242.693 1201.72 256.045C1201.88 298.147 1261.72 333.15 1299.3 293.273C1313.01 278.742 1317.91 256.379 1311.34 237.508Z" fill="#3D2938"/>
<path d="M1361.61 238.866C1354.69 251.684 1354.42 267.795 1366.79 282.081C1380.61 298.058 1407.74 300.039 1423.76 286.287C1439.81 272.49 1441.94 245.386 1428.23 229.32C1406.67 204.018 1373.83 216.369 1361.61 238.866Z" fill="#3D2938"/>
<path d="M1510.79 61.6651C1374.4 -46.8394 1154.1 -6.9178 1066.54 143.889C1029.73 207.332 1010.57 286.396 1027.15 358.829C1034.85 392.297 1049.58 424.074 1069.39 452.357C1049.02 536.45 1025.19 619.809 996.618 701.476C989.409 722.082 981.887 742.622 974.121 763.05C970.026 773.798 965.887 784.501 961.592 795.205C957.81 804.707 954.583 820.796 947.907 828.629C939.295 838.754 933.977 823.288 930.35 816.478C926.478 809.268 922.227 802.281 917.465 795.606C906.806 780.807 894.345 767.656 879.903 756.44C827.765 716.052 754.13 708.909 698.164 746.494C687.35 753.793 678.137 762.383 669.681 772.151C662.961 778.538 656.752 785.503 650.989 792.935C647.539 795.072 643.845 795.739 640.218 793.113C633.943 788.618 629.403 768.969 626.644 762.493C608.13 718.767 589.927 674.884 571.947 630.913C501.873 459.3 436.005 285.928 374.676 110.977C363.728 79.6454 352.824 49.1365 319.489 36.1187C283.818 22.1884 240.047 27.44 202.818 29.109C158.223 31.0672 113.718 35.3848 69.5683 41.7491C52.5895 44.1746 27.5775 43.596 13.714 54.8781C2.72116 63.8015 3.29976 77.6203 5.32476 90.4379C19.433 179.338 46.6258 266.657 75.0426 351.885C104.327 439.717 135.904 526.815 166.791 614.09C187.041 671.258 207.402 728.358 227.941 785.414C228.587 789.397 229.499 793.403 230.767 797.275C231.123 798.365 231.969 798.988 232.881 799.166C273.671 912.277 315.306 1025.08 358.632 1137.25C375.255 1180.29 392.122 1223.21 409.324 1266.05C422.275 1298.32 435.493 1331.16 456.032 1359.49C497.845 1417.24 567.919 1438.87 635.567 1415.59C705.997 1391.36 746.431 1329.58 772.355 1263.43C783.303 1235.45 809.361 1265.03 820.109 1277.24C831.547 1290.26 841.227 1304.7 850.93 1319.06C868.242 1344.67 885.622 1371.28 910.367 1390.4C939.295 1412.79 974.41 1419.11 1010.35 1417.21C1048.33 1415.19 1090.9 1410.49 1124.71 1391.91C1187.88 1357.22 1209.11 1278.91 1231.81 1215.94C1296.54 1036.11 1361.32 856.311 1426.07 676.487C1441.65 633.227 1457.21 589.968 1472.74 546.708C1473.36 544.995 1473.54 543.438 1473.38 542.036C1476.08 540.478 1478.75 538.92 1481.37 537.251C1582.56 473.742 1640.1 345.054 1615.98 227.515C1602.49 162.025 1562.8 103.033 1510.79 61.6651ZM46.8484 179.627C41.5077 158.286 36.6119 136.879 32.2949 115.361C30.3812 105.748 26.5982 94.4876 26.4869 84.6519C26.2644 68.4297 37.0571 68.8746 50.8761 66.6048C96.4943 59.1724 142.513 54.2324 188.665 51.651C226.406 49.5148 272.358 42.7278 308.941 55.2116C329.926 62.3547 340.229 78.9328 347.661 98.8268C355.271 119.121 362.103 139.683 369.402 160.089C383.51 199.677 397.863 239.198 412.417 278.652C394.303 270.24 369.313 269.261 353.847 268.749C312.724 267.414 270.845 273.622 232.881 289.822C184.905 310.25 131.809 357.204 117.078 411.656C90.7528 335.062 66.4085 257.868 46.8484 179.627ZM232.103 732.631C226.473 716.853 220.843 701.032 215.235 685.232C186.863 605.456 156.955 525.658 128.783 445.347C134.836 420.669 141.89 397.148 156.465 375.229C175.002 347.391 201.349 325.628 231.368 311.186C262.767 296.098 297.748 288.933 332.396 287.776C349.53 287.219 367.333 287.33 384.222 290.468C400.489 293.449 408.834 300.237 420.339 311.186C421.852 312.632 423.61 313.366 425.301 313.499C454.697 392.296 484.961 470.782 516.092 548.911C448.421 534.069 368.646 560.083 316.863 601.718C287.223 625.573 263.234 656.837 247.435 691.418C241.693 704.102 236.064 718.144 232.103 732.631ZM369.001 1103.81C326.187 992.142 284.953 879.855 244.564 767.322C250.127 744.068 254.466 720.658 264.992 698.45C279.835 667.051 301.197 638.968 328.101 616.916C355.694 594.24 389.007 578.841 423.721 571.053C458.569 563.22 490.457 566.336 524.816 570.697C537.166 601.473 549.56 632.204 562.2 662.868C578.712 703.012 595.468 743.067 612.469 783.055C616.096 791.622 619.301 801.302 625.376 808.245C610.133 809.402 593.042 817.035 580.403 821.708C560.375 829.074 540.949 838.109 522.59 848.968C486.741 870.153 454.92 897.879 429.663 931.013C402.737 966.351 383.711 1008.14 375.121 1051.78C372.006 1067.65 369.469 1085.65 369.001 1103.81ZM744.962 1274.4C737.93 1291.46 729.14 1307.89 718.681 1323.17C675.889 1385.64 590.15 1428.7 517.806 1387.95C485.984 1369.99 465.645 1338.37 450.091 1306.31C431.977 1269.01 417.891 1229.56 402.759 1191.02C399.087 1181.69 395.46 1172.32 391.833 1162.95C391.365 1147.02 389.074 1131.2 388.94 1115.22C388.762 1093.7 390.898 1072.36 395.571 1051.36C404.539 1010.9 422.364 972.559 447.977 939.937C472.388 908.805 503.253 883.103 537.611 863.588C554.634 853.908 572.525 845.741 591.017 839.31C602.233 835.438 615.874 833.658 627.712 829.43C623.684 837.018 620.013 844.717 616.786 852.261C596.981 898.68 589.86 950.062 597.582 1000.04C606.616 1058.57 638.149 1117.76 672.774 1165.16C689.441 1188.01 708.49 1208.64 732.033 1224.53C739.644 1229.65 749.19 1235.68 759.426 1240.48C752.261 1250.23 749.39 1263.69 744.962 1274.4ZM786.441 1227.95C782.235 1226.64 778.03 1225.42 773.913 1223.82C761.896 1219.16 750.392 1212.71 739.911 1205.3C717.146 1189.19 698.164 1168.01 682.632 1145C653.058 1101.2 625.776 1049.91 617.209 997.305C609.977 952.888 616.274 906.424 632.875 864.745C641.264 843.694 652.613 825.558 665.475 808.468C667.1 807.155 668.657 805.753 670.193 804.284C683.121 791.756 691.711 777.002 706.776 766.366C721.04 756.285 737.329 749.387 754.397 745.671C790.469 737.838 827.92 746.204 858.518 766.454C874.384 776.98 888.425 790.666 899.596 806.087C908.453 818.348 913.415 833.992 923.318 845.318C915.507 850.214 908.23 856.066 901.799 861.207C885.51 874.336 871.313 889.646 858.829 906.425C832.304 942.096 814.413 984.22 804.355 1027.39C789.045 1093.04 787.91 1172.32 811.831 1239.37C803.865 1233.43 795.142 1228.87 786.441 1227.95ZM1217.97 1189.64C1204.39 1227.26 1192.49 1266.25 1174.66 1302.17C1158 1335.7 1134.79 1366.3 1098.63 1379.85C1061.42 1393.83 1012.15 1400.26 972.697 1394.07C912.97 1384.75 885.889 1330.27 853.511 1284.9C836.087 1246.25 821.534 1207.5 816.504 1164.85C811.319 1120.94 813.634 1075.75 823.737 1032.66C832.838 993.611 848.415 955.803 871.491 922.891C882.484 907.225 895.413 892.805 909.922 880.277C917.821 873.446 927.479 868.083 936.669 862.32C934.823 874.648 934.956 887.799 934.889 897.813C934.711 923.359 938.272 949.194 945.126 973.806C957.966 1019.78 983.333 1062.04 1017.71 1095.13C1050.34 1126.48 1091.39 1151.2 1135.54 1162.04C1164.25 1169.07 1199.85 1171.23 1228.69 1159.73L1217.97 1189.64ZM1264.63 1059.88L1238.33 1133.05C1203.24 1148.87 1168.54 1151.58 1130.11 1139.86C1090.7 1127.82 1054.63 1104.7 1025.93 1075.3C996.018 1044.7 974.455 1006.94 963.373 965.595C957.409 943.498 954.516 920.733 954.561 897.835C954.605 887.532 955.139 877.184 956.23 866.948C956.853 861.073 958.077 855.154 958.522 849.346C966.51 841.914 969.982 829.497 973.921 819.906C988.696 783.545 1002.52 746.828 1015.4 709.777C1017.71 713.96 1020.16 717.988 1022.36 721.704C1032.73 739.351 1044.93 755.951 1058.48 771.305C1085.23 801.68 1117.7 826.759 1155.06 842.692C1192.58 858.737 1233.88 864.656 1274.38 859.382C1292.85 856.979 1310.85 852.306 1328.01 845.007C1332.72 843.048 1338.64 840.69 1344.63 837.819C1317.95 911.899 1291.27 985.889 1264.63 1059.88ZM1356.38 805.108C1345.32 808.668 1334.75 818.348 1324.67 823.066C1308.34 830.654 1290.71 835.594 1272.89 838.064C1235.88 843.248 1197.58 837.886 1163.25 823.221C1099.56 796.051 1055.97 744.469 1023.68 685.499C1036.32 647.981 1048 610.129 1058.66 571.987C1062.4 558.658 1065.89 545.285 1069.25 531.888C1072.41 522.231 1075.57 512.484 1077.95 502.67C1080.36 492.768 1083.94 483.355 1085.65 473.453C1099.87 490.298 1115.92 505.563 1133.38 518.67C1221.39 584.672 1345.47 600.382 1446.1 555.944C1416.15 638.969 1386.29 722.038 1356.38 805.108ZM1505.16 491.366C1419.67 569.139 1289.67 577.662 1188.3 527.148C1136.59 501.424 1086.9 452.935 1062.49 400.307C1033.34 337.532 1036.67 268.927 1060.08 204.839C1084.03 139.26 1127.91 85.5645 1189.91 52.8306C1233.45 29.7768 1279.78 20.7201 1327.29 21.0094C1328.32 21.3431 1329.36 21.5879 1330.57 21.5879C1440.27 24.4586 1542.95 89.3028 1582.93 193.713C1622.5 297.032 1585.58 418.199 1505.16 491.366Z" fill="#3D2938"/>
</g>
<defs>
<filter id="filter0_d_403_14731" x="0.15625" y="0.181641" width="1625.3" height="1432.62" filterUnits="userSpaceOnUse" color-interpolation-filters="sRGB">
<feFlood flood-opacity="0" result="BackgroundImageFix"/>
<feColorMatrix in="SourceAlpha" type="matrix" values="0 0 0 0 0 0 0 0 0 0 0 0 0 0 0 0 0 0 127 0" result="hardAlpha"/>
<feOffset dy="4"/>
<feGaussianBlur stdDeviation="2"/>
<feComposite in2="hardAlpha" operator="out"/>
<feColorMatrix type="matrix" values="0 0 0 0 0 0 0 0 0 0 0 0 0 0 0 0 0 0 0.25 0"/>
<feBlend mode="normal" in2="BackgroundImageFix" result="effect1_dropShadow_403_14731"/>
<feBlend mode="normal" in="SourceGraphic" in2="effect1_dropShadow_403_14731" result="shape"/>
</filter>
</defs>
</svg>
