<svg width="1266" height="1682" viewBox="0 0 1266 1682" fill="none" xmlns="http://www.w3.org/2000/svg">
<g filter="url(#filter0_d_403_14757)">
<path d="M1203.28 1258.24C1145.47 1134.87 1087.77 1011.45 1030.11 888.039C1029.75 887.282 1028.89 886.859 1028.06 887.059C1027.22 887.237 1026.64 887.994 1026.66 888.818C1027.17 907.132 1026.57 926.691 1024.86 946.897C1020.56 997.277 1011.84 1060.96 982.199 1106.69C967.802 1128.92 945.393 1144.48 922.317 1148.31C903.447 1151.44 885.155 1146.7 869.423 1134.62C853.022 1122 839.314 1102.93 828.677 1077.9C819.821 1056.91 815.415 1039.78 815.215 1025.49C815.215 1024.78 814.747 1024.14 814.058 1023.87C813.368 1023.6 812.588 1023.78 812.077 1024.31L811.721 1024.69C803.598 1033.13 795.21 1041.87 786.843 1050.31C786.286 1050.88 786.174 1051.73 786.575 1052.42C802.708 1079.19 815.304 1109.05 827.498 1137.91C832.416 1149.55 837.489 1161.61 842.697 1173.16C857.784 1206.61 872.938 1240.7 887.603 1273.66L899.13 1299.58C901.444 1304.77 903.67 1310.08 905.873 1315.43C911.235 1328.31 916.776 1341.62 923.964 1353.63C934.601 1371.39 950.689 1375.08 971.584 1375.15C974.099 1375.15 976.614 1375.17 979.128 1375.17C1004.36 1375.17 1029.91 1374.64 1054.68 1374.13C1068.16 1373.86 1081.65 1373.57 1095.13 1373.37C1117.16 1373.02 1139.15 1372.7 1161.18 1372.39C1165.09 1372.35 1169.08 1372.39 1173.15 1372.44C1186.97 1372.61 1201.21 1372.79 1214.1 1368.97C1223.4 1366.18 1229.74 1361.02 1232.94 1353.57C1242.33 1331.78 1223.04 1295.58 1210.27 1271.63C1207.4 1266.36 1204.97 1261.82 1203.28 1258.24Z" fill="#B7ADCC"/>
<path d="M454.99 1292.68C454.144 1292.33 453.187 1292.62 452.698 1293.35C452.208 1294.11 452.364 1295.09 453.076 1295.64C509.042 1341.39 542.666 1414.47 561.024 1467.72C573.82 1504.82 581.875 1541.8 584.968 1577.65C586.326 1593.76 586.37 1607.36 585.146 1619.15C585.057 1619.98 585.591 1620.75 586.392 1621.02C586.57 1621.09 586.771 1621.11 586.949 1621.11C587.594 1621.11 588.195 1620.78 588.529 1620.22C597.274 1605.11 602.859 1587.13 605.129 1566.79C610.959 1514.07 599.477 1457.26 572.818 1406.82C545.18 1354.59 503.345 1314.04 454.99 1292.68Z" fill="#CF4848"/>
<path d="M543.426 1466.3C531.432 1432.9 515.833 1400.65 497.029 1370.43C487.972 1355.88 477.803 1341.73 468.835 1329.24C468.301 1328.51 467.299 1328.26 466.498 1328.69C465.697 1329.11 465.319 1330.04 465.653 1330.87C470.103 1342.24 474.109 1353.88 477.959 1365.11C479.494 1369.59 481.007 1373.99 482.543 1378.33C493.847 1410.29 504.684 1443.91 514.765 1478.25C525.201 1513.83 534.503 1549.03 542.425 1582.83C546.542 1600.28 550.48 1618.08 554.463 1637.26C554.864 1639.09 555.354 1641.03 555.843 1642.96L555.999 1643.61C556.199 1644.36 556.867 1644.92 557.69 1644.94C557.69 1644.94 557.735 1644.94 557.779 1644.94C558.558 1644.94 559.248 1644.45 559.493 1643.74C560.338 1641.34 561.251 1638.96 562.163 1636.55C564.878 1629.43 567.704 1622.07 568.661 1614.21C570.708 1596.92 569.151 1579.65 567.571 1566.57C563.587 1533.7 555.465 1499.94 543.426 1466.3Z" fill="#CF4848"/>
<path d="M532.139 1609.58C528.667 1593.94 524.885 1577.78 520.924 1561.61C513.091 1529.61 504.456 1497.61 495.288 1466.45C486.943 1438.24 477.085 1407.42 464.29 1369.45C461.82 1362.09 459.039 1354.52 456.368 1347.2C453.854 1340.3 451.228 1333.16 448.825 1326.11C448.536 1325.26 447.645 1324.77 446.711 1324.93C445.798 1325.13 445.197 1325.95 445.286 1326.84C446.666 1339.61 447.311 1352.79 447.935 1365.56C448.469 1376.44 449.025 1387.7 450.026 1398.49C454.009 1440.97 458.46 1473.15 464.49 1502.86C472.079 1540.33 482.315 1569.42 496.735 1594.43C505.057 1608.89 514.492 1621.64 524.751 1632.37C528.512 1636.33 532.606 1639.98 536.456 1643.36C536.767 1643.63 537.146 1643.76 537.524 1643.76C537.88 1643.76 538.259 1643.65 538.592 1643.45C539.282 1643.03 539.571 1642.12 539.349 1641.36C538.637 1638.96 537.969 1636.69 537.657 1635.29C535.877 1626.7 534.03 1618.11 532.139 1609.58Z" fill="#CF4848"/>
<path d="M489.573 1611.05C473.507 1585.97 461.602 1555.89 453.146 1519.08C444.49 1481.27 440.306 1441.84 437.368 1408.24C436.99 1403.88 436.567 1399.45 436.145 1394.98C433.942 1371.61 431.672 1347.45 433.163 1324.1C433.229 1323.24 432.606 1322.46 431.739 1322.26C430.848 1322.1 429.98 1322.55 429.669 1323.37C428.155 1327.24 426.398 1331.76 424.351 1336.34C410.398 1384.79 397.625 1442.2 408.529 1500.79C418.81 1556.09 448.361 1604.07 489.618 1632.44C496.049 1636.84 503.036 1640.89 510.335 1644.5C510.602 1644.63 510.869 1644.68 511.159 1644.68C511.715 1644.68 512.249 1644.43 512.605 1643.99C513.139 1643.32 513.095 1642.36 512.516 1641.74C504.906 1633.42 497.406 1623.38 489.573 1611.05Z" fill="#CF4848"/>
<path d="M57.4429 1365.87C72.7528 1355.72 89.5982 1345.93 108.958 1335.92C142.248 1318.67 177.274 1304.01 213.078 1292.3C250.196 1280.17 288.471 1271.21 326.79 1265.62C345.861 1262.84 364.754 1260.84 382.912 1259.63L384.937 1259.5C385.805 1259.46 386.517 1258.81 386.65 1257.99C386.762 1257.14 386.272 1256.34 385.427 1256.08C335.247 1239.61 276.722 1239.39 216.128 1255.41C153.041 1272.1 95.8511 1304.59 50.7225 1349.36C49.3651 1350.69 47.9188 1352.07 46.4279 1353.52C37.015 1362.51 25.3323 1373.7 23.5966 1386.59C23.4853 1387.32 23.886 1388.06 24.5758 1388.39C24.8429 1388.52 25.1096 1388.59 25.3989 1388.59C25.8439 1388.59 26.3112 1388.43 26.645 1388.1C34.3667 1380.98 43.5796 1374.97 52.4807 1369.14L57.4429 1365.87Z" fill="#CF4848"/>
<path d="M400.316 1273.48H398.848C394.264 1273.48 389.969 1273.48 385.719 1273.72C365.113 1274.97 344.751 1277.15 325.169 1280.2C289.765 1285.69 254.272 1294.13 219.691 1305.23C183.219 1316.96 147.592 1331.87 113.834 1349.56C98.8582 1357.39 83.1477 1366.4 64.4332 1377.91C62.4304 1379.16 60.3831 1380.47 58.3804 1381.78C57.6238 1382.27 57.3793 1383.21 57.7576 1384.01C58.0692 1384.63 58.7146 1385.01 59.4044 1385.01C59.5825 1385.01 59.76 1384.99 59.9158 1384.94C71.0867 1381.67 82.614 1378.76 93.7404 1375.91C104.444 1373.19 115.503 1370.37 126.095 1367.3C167.397 1355.26 201.466 1344.86 233.31 1334.58C273.832 1321.48 309.592 1309.46 342.704 1297.78C359.683 1291.81 376.885 1285.61 393.774 1279.35C395.532 1278.71 397.601 1278.04 399.827 1277.3L400.917 1276.95C401.763 1276.68 402.253 1275.84 402.119 1274.99C401.963 1274.1 401.206 1273.48 400.316 1273.48Z" fill="#CF4848"/>
<path d="M127.268 1418.19C133.276 1418.19 139.306 1417.99 145.381 1417.5C183.634 1414.4 221.441 1405.04 257.802 1389.61C288.867 1376.49 319.42 1358.97 348.616 1337.54C363.414 1326.71 378.412 1314.42 393.144 1301.07C393.433 1300.83 393.678 1300.6 393.922 1300.36C394.523 1299.78 394.634 1298.87 394.189 1298.16C393.722 1297.47 392.832 1297.15 392.031 1297.44C388.404 1298.71 384.776 1300 381.149 1301.27C376.098 1303.05 371.047 1304.81 366.04 1306.59C323.515 1321.77 287.799 1333.85 253.641 1344.62C211.316 1357.97 173.019 1369.39 136.569 1379.51C128.336 1381.8 119.835 1384.32 111.601 1386.79C85.1207 1394.67 57.7275 1402.81 30.7349 1405.61C30.134 1405.68 29.6001 1406.04 29.3108 1406.55C29.0437 1407.08 29.0439 1407.71 29.3332 1408.22C29.5557 1408.6 29.7782 1408.93 30.0007 1409.26L30.379 1409.86C30.7128 1410.4 31.2915 1410.71 31.9369 1410.71C32.0926 1410.71 32.2486 1410.67 32.2486 1410.67C45.9563 1411.33 59.6415 1412.82 72.8819 1414.25C90.5506 1416.21 108.731 1418.19 127.268 1418.19Z" fill="#CF4848"/>
<path d="M417.313 1299.94C416.601 1299.51 415.711 1299.6 415.11 1300.16C412.507 1302.56 409.814 1304.9 407.188 1307.19C405.097 1309.02 403.027 1310.84 401.024 1312.64C387.116 1325.11 372.563 1336.94 357.765 1347.8C325.921 1371.23 292.587 1390.13 258.718 1403.92C221.667 1419.06 183.437 1428.11 145.117 1430.87C100.679 1434.08 66.7653 1430.12 41.3971 1418.72C40.6183 1418.37 39.6835 1418.61 39.1717 1419.28C38.6599 1419.95 38.7045 1420.88 39.2831 1421.5C43.8671 1426.42 49.3635 1431.25 55.1937 1435.46C85.0792 1457.17 122.108 1466.23 147.921 1469.99C159.649 1471.71 171.354 1472.53 182.947 1472.53C288.648 1472.53 386.115 1403.79 418.114 1301.96C418.315 1301.18 418.003 1300.36 417.313 1299.94Z" fill="#CF4848"/>
<path d="M970.38 1085.93L970.246 1087.51C970.18 1088.33 970.736 1089.09 971.537 1089.34C971.715 1089.38 971.894 1089.4 972.049 1089.4C972.695 1089.4 973.318 1089.07 973.651 1088.49C978.191 1080.39 982.018 1071.76 984.733 1063.5C999.242 1019.77 1007.59 973.042 1009.55 924.643C1010.57 898.941 1010.03 877.845 1007.9 858.307C1006.7 847.381 1004.67 837.078 1001.8 827.487L997.64 818.63C997.373 818.074 996.839 817.674 996.216 817.607C995.593 817.518 994.97 817.785 994.569 818.252C982.708 832.605 970.069 847.604 955.894 864.115C955.404 864.694 955.337 865.495 955.716 866.14C964.683 881.005 967.087 900.899 969.223 918.456C969.557 921.149 969.868 923.797 970.202 926.356C973.562 951.969 975.276 975.579 975.41 998.522C975.588 1023.53 974.252 1048.9 971.426 1073.96C971.003 1077.72 970.692 1081.7 970.38 1085.93Z" fill="#FFBC57"/>
<path d="M872.34 1068.24C870.938 1063.34 869.38 1058.25 867.778 1053.02C861.236 1031.57 853.803 1007.25 853.18 984.926C853.158 984.191 852.691 983.569 852.001 983.324C851.311 983.079 850.532 983.257 850.02 983.791C842.343 992.114 833.42 1001.79 824.385 1011.32C823.94 1011.78 823.784 1012.48 824.007 1013.08C826.833 1021.06 828.68 1029.59 830.483 1037.82C832.953 1049.15 835.489 1060.85 840.63 1071.85C851.934 1096.23 865.464 1114.08 880.841 1124.87C884.312 1127.32 887.961 1129.41 891.744 1131.08C891.989 1131.19 892.234 1131.24 892.501 1131.24C893.013 1131.24 893.525 1131.02 893.858 1130.64C894.392 1130.04 894.459 1129.19 894.014 1128.52C884.557 1114.13 879.305 1094.28 875.077 1078.34C874.12 1074.72 873.23 1071.31 872.34 1068.24Z" fill="#FFBC57"/>
<path d="M936.336 1127.79C936.625 1127.97 936.959 1128.05 937.293 1128.05C937.627 1128.05 937.96 1127.97 938.25 1127.79C942.544 1125.21 946.839 1121.94 951 1118.02C951.356 1117.69 951.557 1117.22 951.557 1116.73C951.49 1112.72 952.113 1108.65 952.781 1104.33L953.203 1101.44C955.584 1085.8 957.209 1073 958.344 1061.16C960.347 1039.53 961.259 1017.33 961.036 995.139C960.769 970.194 959.457 947.563 957.076 925.911C956.43 920.081 955.406 913.939 954.427 907.975C952.625 897.027 950.756 885.7 950.845 874.885C950.845 874.151 950.377 873.483 949.665 873.216C948.953 872.949 948.152 873.172 947.64 873.728C934.333 889.172 920.136 905.438 905.449 922.105C904.982 922.639 904.871 923.396 905.205 924.019C912.125 937.749 915.151 953.66 918.066 969.059C918.533 971.551 919.001 974.021 919.491 976.469C923.051 994.627 925.989 1013.76 928.503 1034.97C931.107 1056.91 932.909 1078.25 933.821 1098.39C933.955 1101.33 934.311 1104.44 934.689 1107.74C935.401 1113.9 936.136 1120.29 935.49 1126.05C935.424 1126.76 935.735 1127.43 936.336 1127.79Z" fill="#FFBC57"/>
<path d="M907.16 1120.58C909.719 1125.03 912.346 1129.64 914.482 1134.31C914.771 1134.95 915.439 1135.35 916.129 1135.35C916.173 1135.35 916.24 1135.35 916.307 1135.35C917.508 1135.24 918.71 1135.09 919.867 1134.91C920.423 1134.82 920.89 1134.51 921.157 1134.04C921.424 1133.57 921.469 1133.02 921.269 1132.51C918.843 1126.59 919.155 1119.07 919.489 1111.77C919.645 1108.21 919.778 1104.85 919.622 1101.62C918.643 1080.66 917.13 1060.36 915.105 1041.29C912.857 1020.09 909.853 997.922 905.914 973.555C905.224 969.194 904.379 964.765 903.511 960.315C901.842 951.525 900.106 942.423 899.417 933.522C899.35 932.81 898.883 932.188 898.17 931.965C897.481 931.743 896.702 931.943 896.234 932.499C883.528 946.852 871.867 959.826 860.63 972.154C860.162 972.665 860.051 973.377 860.318 974C863.945 982.612 866.104 992.07 868.174 1001.19C868.908 1004.35 869.62 1007.51 870.399 1010.63C875.005 1029.39 879.1 1044.61 883.306 1058.47C888.09 1074.32 892.496 1088.58 898.082 1102.69C900.552 1109.01 903.911 1114.9 907.16 1120.58Z" fill="#FFBC57"/>
<path d="M496.91 398.966C522.011 386.371 552.831 380.229 579.668 375.867C610.933 370.816 656.885 365.186 694.514 374.532C695.226 374.71 695.983 374.443 696.406 373.887C705.574 362.048 713.896 351.634 721.841 341.977C722.308 341.42 722.375 340.641 722.019 340.018C721.663 339.395 720.973 339.039 720.216 339.128C712.962 339.951 705.329 339.862 697.963 339.795C693.402 339.751 689.084 339.707 684.99 339.863C657.04 340.997 634.632 343.067 614.427 346.383C571.902 353.437 536.008 366.833 507.747 386.193C503.452 389.152 499.135 392.49 494.907 396.095C494.217 396.673 494.084 397.675 494.595 398.409C494.951 398.899 495.508 399.188 496.087 399.188C496.354 399.144 496.643 399.1 496.91 398.966Z" fill="#FFBC57"/>
<path d="M475.101 417.279L474.789 417.702C474.077 418.703 473.388 419.705 472.698 420.684C472.297 421.262 472.297 422.019 472.675 422.597C473.054 423.176 473.743 423.51 474.455 423.399C506.455 419.26 535.495 417.412 563.177 417.702C581.002 417.902 599.338 418.881 617.63 420.595C619.677 420.795 621.724 420.973 623.794 421.151C634.519 422.086 645.624 423.042 655.593 426.714C655.793 426.781 656.016 426.825 656.238 426.825C656.817 426.825 657.396 426.559 657.73 426.069C666.542 413.585 675.865 400.857 685.412 388.195C685.812 387.683 685.879 386.993 685.59 386.393C685.3 385.814 684.722 385.413 684.054 385.368C678.869 385.057 673.685 384.635 668.478 384.19C658.264 383.322 647.693 382.432 637.168 382.565C618.008 382.788 598.804 384.478 580.134 387.594C562.087 390.62 543.706 395.049 525.526 400.745C519.874 402.526 514.177 404.595 508.658 406.598C498.133 410.403 487.229 414.364 476.191 416.522C475.768 416.656 475.346 416.901 475.101 417.279Z" fill="#FFBC57"/>
<path d="M463.934 440.846C463.289 443.694 462.888 446.475 462.688 449.346C462.621 450.258 463.311 451.06 464.224 451.193C470.655 452.106 477.153 453.641 483.45 455.132C487.901 456.178 492.507 457.268 497.069 458.136C512.601 461.096 529.313 463.277 546.759 464.656C557.975 465.546 569.323 465.991 580.65 465.991C584.633 465.991 588.617 465.925 592.6 465.813C597.74 465.658 603.148 465.034 608.399 464.411C616.076 463.499 623.998 462.587 631.386 463.121C632.031 463.21 632.699 462.854 633.055 462.32C638.173 454.598 643.358 446.92 648.61 439.265C648.988 438.731 649.011 438.042 648.699 437.463C648.388 436.885 647.786 436.529 647.119 436.529C640.487 436.462 633.678 435.705 627.091 434.993C622.997 434.548 618.746 434.081 614.585 433.769C598.852 432.657 582.697 432.101 566.653 432.145C531.939 432.256 497.892 434.726 465.47 439.466C464.691 439.599 464.09 440.134 463.934 440.846Z" fill="#FFBC57"/>
<path d="M705.891 284.186C691.716 254.968 677.562 225.728 663.432 196.488C656.823 182.803 650.258 168.739 643.894 155.121C630.031 125.391 615.7 94.6374 599.655 65.5085C590.265 48.4407 577.18 30.3491 551.234 25.498C534.366 22.3381 516.541 21.6264 499.295 20.9589C495.245 20.8031 491.24 20.6472 487.257 20.4692C441.416 18.3107 394.864 18.7111 348.89 21.604L340.611 22.1154C320.094 23.3615 298.91 24.6304 278.548 28.124C252.846 32.5746 241.364 47.5285 245.37 71.3834C248.285 88.6738 256.184 105.074 263.839 120.918C265.731 124.834 267.6 128.729 269.402 132.601C277.858 150.893 286.403 169.14 294.993 187.365C331.932 265.539 371.565 345.582 412.821 425.247C434.651 467.461 457.216 509.295 474.417 541.028C479.424 550.285 484.542 559.52 489.66 568.777C493.777 576.232 497.916 583.687 502.055 591.253C504.681 595.369 507.418 599.508 510.2 603.669C511.579 605.739 512.959 607.83 514.383 609.989L515.184 611.08C520.525 618.423 526.043 626.034 530.471 633.933C530.783 634.512 531.407 634.845 532.074 634.845H532.118C532.808 634.823 533.409 634.445 533.721 633.867C547.251 606.941 561.648 580.104 576.535 554.046C578.627 550.374 580.763 546.725 582.922 543.097L584.657 540.16C584.968 539.626 584.991 538.959 584.679 538.425C584.368 537.891 583.789 537.534 583.144 537.512C541.108 536.11 493.755 531.704 464.047 496.745C439.057 467.349 440.882 429.786 468.809 398.744C502.389 361.359 552.813 343.646 589.197 335.368C611.872 330.228 636.751 327.023 665.234 325.554C669.44 325.332 674.024 324.953 678.853 324.553C692.805 323.373 708.627 322.061 722.224 324.197C722.891 324.33 723.559 324.041 723.959 323.507C724.36 322.973 724.449 322.283 724.16 321.705L705.891 284.186Z" fill="#B7ADCC"/>
<path d="M592.713 522.003C592.98 522.003 593.203 522.048 593.448 522.092L593.849 522.159C593.938 522.181 594.049 522.181 594.138 522.181C594.783 522.181 595.384 521.847 595.695 521.313C603.595 508.162 612.029 494.632 620.708 481.147C621.086 480.569 621.086 479.856 620.708 479.278C620.33 478.699 619.684 478.365 618.995 478.454C612.986 479.033 606.8 479.077 600.836 479.122C597.965 479.144 595.162 479.166 592.491 479.255C575.49 479.7 558.044 478.989 540.62 477.142C518.991 474.827 489.372 471.645 466.474 461.209C465.851 460.919 465.094 461.008 464.56 461.431C464.026 461.854 463.781 462.544 463.937 463.211C465.895 471.156 469.967 478.877 476.087 486.221C504.236 519.845 551.167 520.979 592.713 522.003Z" fill="#FFBC57"/>
<path d="M566.071 1045.36C565.359 1045.28 564.692 1045.7 564.358 1046.32C558.75 1056.87 551.385 1070.75 544.219 1084.71C543.93 1085.26 543.974 1085.93 544.308 1086.47C545.666 1088.51 547.001 1090.6 548.313 1092.67C550.895 1096.75 553.565 1100.95 556.569 1104.91L557.415 1106.05C568.652 1121.14 572.814 1124.34 575.462 1124.34C575.506 1124.34 575.529 1124.34 575.573 1124.34C577.799 1124.27 579.556 1123.54 580.825 1122.11C583.606 1119.04 583.05 1113.66 582.672 1110.08C582.605 1109.48 582.539 1108.92 582.516 1108.43C581.493 1093.74 578.422 1078.01 573.415 1061.65C572.08 1057.38 570.366 1053.18 568.742 1049.13L567.673 1046.5C567.406 1045.83 566.783 1045.39 566.071 1045.36Z" fill="#FFEFE6"/>
<path d="M489.746 1066.39L489.991 1065.73C494.441 1054.58 499.315 1042.69 504.856 1029.39C505.145 1028.7 504.945 1027.87 504.367 1027.38C503.766 1026.9 502.942 1026.83 502.253 1027.21C497.847 1029.7 492.995 1031.92 488.3 1034.08C482.114 1036.93 476.283 1039.62 471.677 1042.76C466.759 1046.14 461.152 1050.39 456.946 1056.16C454.542 1058.85 452.807 1062.01 451.761 1065.44C449.825 1071.11 449.803 1073.96 451.672 1075.29C452.228 1075.7 452.851 1075.85 453.474 1075.85C454.898 1075.85 456.456 1075.03 457.725 1074.2C464.712 1075.14 472.055 1073.05 479.154 1071.04C482.18 1070.2 485.051 1069.38 487.877 1068.77C488.433 1068.66 488.923 1068.29 489.145 1067.77C489.412 1067.31 489.568 1066.86 489.746 1066.39Z" fill="#FFEFE6"/>
<path d="M587.482 851.92C587.815 851.253 587.704 850.474 587.192 849.94C586.681 849.406 585.879 849.228 585.19 849.495C583.854 850.006 582.497 850.519 581.14 851.008C579.916 851.453 578.669 851.921 577.468 852.366C573.929 853.679 570.37 854.969 566.809 856.237C555.393 860.354 543.599 864.582 532.562 870.234C523.795 874.752 517.519 878.802 512.223 883.363C506.17 888.548 501.096 896.426 503.344 902.278C504.434 905.105 507.661 908.464 516.896 908.487C517.007 908.487 517.118 908.487 517.252 908.487C525.307 908.487 533.318 907.196 541.062 905.95C547.471 904.904 554.081 903.836 560.578 903.547C561.246 903.525 561.846 903.124 562.136 902.545C569.768 886.813 578.046 870.257 587.482 851.92Z" fill="#FFEFE6"/>
<path d="M666.034 870.546C665.3 870.457 664.588 870.769 664.209 871.392C655.798 885.166 646.941 899.942 637.128 916.61C636.794 917.188 636.816 917.9 637.172 918.434C642.201 925.978 646.251 934.345 650.168 942.423C652.682 947.608 655.286 952.971 658.134 958.133C659.136 959.958 660.115 961.805 661.094 963.674C664.544 970.216 668.104 977.004 672.955 982.7C673.155 982.945 673.444 983.301 673.8 983.746C677.717 988.619 682.101 993.649 685.795 993.649C686.44 993.649 687.063 993.493 687.664 993.159L687.686 993.137C689.11 992.313 689.399 990.511 688.643 980.208C688.576 979.385 688.532 978.762 688.532 978.472C687.308 946.784 678.896 914.963 670.752 884.187C669.661 880.071 668.571 875.953 667.503 871.859C667.347 871.169 666.768 870.657 666.034 870.546Z" fill="#FFEFE6"/>
<path d="M666.84 709.393C668.998 705.832 671.179 702.272 673.36 698.733L676.208 694.105C676.586 693.482 676.542 692.681 676.074 692.102C675.607 691.523 674.828 691.301 674.094 691.523C665.282 694.283 655.802 696.263 646.656 698.155C634.974 700.58 622.89 703.095 612.12 707.256C608.293 708.369 604.599 709.993 601.127 712.063C600.972 712.152 600.838 712.263 600.727 712.397C596.187 717.404 594.429 721.454 595.364 724.747C596.054 727.195 598.168 729.019 601.661 730.176C607.224 734.938 617.016 736.407 624.226 737.498L625.427 737.676C628.765 738.188 632.125 738.322 635.419 738.322C637.243 738.322 639.046 738.276 640.849 738.232C643.475 738.165 646.1 738.121 648.681 738.188C649.394 738.121 649.995 737.854 650.328 737.297C656.314 726.972 661.722 717.849 666.84 709.393Z" fill="#FFEFE6"/>
<path d="M884.352 610.412C882.26 600.91 878.856 591.586 875.54 582.552C874.316 579.191 873.07 575.831 871.913 572.471C871.713 571.848 871.156 571.403 870.488 571.291C869.865 571.202 869.154 571.447 868.753 571.981C860.275 583.063 851.262 595.079 840.358 609.833C839.936 610.412 839.913 611.191 840.291 611.792C844.208 617.956 847.301 625.01 850.305 631.841C852.619 637.137 855.023 642.611 857.804 647.618C861.476 654.272 866.015 661.971 872.046 668.759L872.536 669.315C879.545 677.259 883.439 680.686 885.931 681.131C886.688 681.265 887.334 681.376 887.912 681.376C888.558 681.376 889.092 681.22 889.559 680.797C890.405 680.04 890.293 679.039 890.204 678.216C890.115 677.504 890.004 676.503 890.204 675.012C892.786 653.449 888.424 629.171 884.352 610.412Z" fill="#FFEFE6"/>
<path d="M767.113 714.287C766.423 714.221 765.734 714.488 765.355 715.044C754.229 731.288 744.193 746.153 734.669 760.529C734.202 761.241 734.313 762.198 734.958 762.777C744.104 771.077 750.557 782.181 756.81 792.929C758.813 796.356 760.816 799.782 762.863 803.098C763.575 804.233 764.309 805.501 765.11 806.837C769.806 814.736 775.636 824.55 783.691 827.932C785.494 828.689 786.962 829.178 788.208 829.178C788.898 829.178 789.522 829.023 790.078 828.667C791.725 827.621 791.769 825.618 791.814 822.836C791.836 821.79 791.858 820.544 791.969 819.143C792.303 814.314 792.326 809.218 792.014 803.565C790.857 782.759 784.737 762.687 778.039 742.237C776.659 738.009 775.08 733.692 773.477 729.33C771.831 724.813 770.117 720.14 768.604 715.489C768.359 714.844 767.803 714.376 767.113 714.287Z" fill="#FFEFE6"/>
<path d="M778.409 540.493C782.771 534.507 787.177 528.543 791.628 522.624C792.051 522.045 792.095 521.289 791.717 520.688C791.339 520.087 790.627 519.753 789.915 519.842C787.489 520.154 785.063 520.377 782.705 520.621C779.055 520.977 775.606 521.311 772.535 521.867C751.284 525.762 735.306 529.701 720.775 534.641C719.306 535.13 717.682 535.664 715.946 536.199C707.557 538.869 697.12 542.184 691.268 547.48C686.773 551.575 684.992 555.18 685.882 558.495C687.462 564.481 697.143 566.863 704.931 568.776L707.29 569.355C713.276 570.868 720.174 571.135 726.85 571.38C735.684 571.714 744.83 572.048 751.795 575.319C752.04 575.43 752.307 575.497 752.574 575.497C753.153 575.497 753.731 575.23 754.065 574.718C763.01 561.989 770.955 550.796 778.409 540.493Z" fill="#FFEFE6"/>
<path d="M909.947 489.891C921.763 474.025 933.98 457.602 948.132 444.539C948.533 444.161 948.733 443.649 948.689 443.115C948.644 442.581 948.355 442.092 947.888 441.803L947.576 441.602C947.287 441.402 946.998 441.224 946.731 441.046C937.273 434.326 927.927 426.693 918.937 418.37C918.291 417.769 917.29 417.725 916.6 418.237C916.467 418.326 916.333 418.46 916.177 418.615C856.696 461.853 812.591 521.668 768.953 584.309C695.541 689.765 629.829 802.164 573.64 918.367C544.823 977.983 518.098 1039.67 494.243 1101.73C483.228 1130.37 472.457 1160.03 461.308 1192.41C458.349 1201.02 455.567 1209.97 452.897 1218.62C450.427 1226.59 447.868 1234.82 445.176 1242.84C444.864 1243.75 445.353 1244.73 446.288 1245.04C446.488 1245.11 446.689 1245.15 446.889 1245.15C447.623 1245.15 448.313 1244.73 448.58 1244.01C455.056 1227.77 463.044 1211.59 470.744 1195.95C474.482 1188.34 478.377 1180.48 481.959 1172.85C496.446 1142.07 511.778 1110.99 528.824 1077.81C587.326 963.786 653.172 851.476 724.581 744.017C760.431 690.099 798.038 636.804 836.401 585.6C855.784 559.72 875.744 533.84 895.66 508.716C900.422 502.664 905.051 496.456 909.947 489.891Z" fill="#FFEFE6"/>
<path d="M1145.81 566.997C1159.76 540.25 1172.49 512.255 1183.66 483.772C1183.93 483.126 1183.77 482.392 1183.26 481.903C1182.77 481.413 1182.01 481.257 1181.35 481.48C1171.91 484.751 1160.98 486.064 1151.35 487.243C1149.06 487.51 1146.83 487.8 1144.72 488.067C1121.4 491.138 1097.7 491.316 1074.27 488.623C1035.1 484.106 997.27 471.689 964.893 452.707C964.047 452.217 962.957 452.462 962.423 453.286C956.949 461.764 950.161 469.73 943.597 477.452C940.771 480.768 937.967 484.062 935.252 487.399C923.124 502.287 911.175 517.24 899.737 531.838C896.021 536.555 892.371 541.318 888.721 546.057L883.27 553.134C882.824 553.712 882.78 554.469 883.158 555.07C895.553 575.943 900.115 604.426 903.431 629.505C905.634 646.128 906.413 660.926 905.767 674.723L905.723 675.702C905.344 683.401 904.944 692.146 898.513 696.797C895.397 699.045 892.037 699.824 888.21 699.179C874.792 696.931 860.26 677.66 854.631 669.471C849.779 662.417 838.007 643.858 833.779 623.719C833.624 623.029 833.09 622.496 832.378 622.34C831.666 622.184 830.931 622.473 830.531 623.052C812.951 647.04 796.017 670.762 780.173 693.548C779.861 694.016 779.772 694.595 779.95 695.106C781.864 700.581 783.488 706.322 785.046 711.862C786.403 716.691 787.806 721.699 789.408 726.505L791.499 732.803C795.305 744.218 799.243 756.012 802.136 767.895C805.652 782.204 807.477 794.932 807.722 806.771L807.744 807.661C807.922 816.518 808.234 831.36 803.427 838.859C800.734 843.043 797.129 845.313 792.679 845.624C781.975 846.47 769.18 836.234 763.082 829.246C755.872 820.902 750.443 810.91 745.191 801.23C744.123 799.25 743.033 797.247 741.943 795.289L741.119 793.797C737.002 786.454 733.131 779.511 730.527 772.057C730.304 771.411 729.726 770.944 729.036 770.877C728.301 770.788 727.656 771.1 727.278 771.678C709.988 798.048 693.498 823.838 678.299 848.361C677.943 848.94 677.944 849.697 678.344 850.253C678.856 850.987 679.189 851.721 679.345 852.434C681.392 860.956 683.529 869.479 685.665 878.002C691.317 900.521 697.148 923.82 701.064 946.919C701.398 948.877 701.821 951.147 702.31 953.617C705.582 970.573 711.033 998.99 696.814 1008.25C692.141 1011.3 687.668 1012.3 683.128 1011.32C671.691 1008.83 662.678 994.25 656.603 984.415L654.133 980.409C644.898 965.433 635.352 949.945 630.812 933.323C630.612 932.633 630.011 932.121 629.277 932.032C628.542 931.92 627.83 932.299 627.474 932.922C626.851 934.012 626.206 935.103 625.583 936.171L624.292 938.351C607.803 966.857 591.38 996.186 575.469 1025.56C575.158 1026.14 575.203 1026.87 575.603 1027.41C587.33 1043.43 591.491 1068.86 594.54 1087.42L594.629 1087.93C594.874 1089.49 595.186 1091.14 595.475 1092.87C597.878 1106.52 601.194 1125.19 591.737 1135.35C587.175 1140.25 582.079 1142.23 576.582 1141.21C562.763 1138.67 547.921 1117.84 540.399 1098.59C540.132 1097.95 539.509 1097.48 538.775 1097.46C538.085 1097.37 537.373 1097.81 537.061 1098.44C536.461 1099.64 535.837 1100.82 535.214 1102C534.569 1103.22 533.946 1104.45 533.323 1105.67C519.282 1133.31 505.374 1161.52 491.977 1189.59C487.638 1198.64 483.476 1208.12 479.449 1217.31C471.504 1235.43 463.271 1254.16 453.079 1271.03C452.812 1271.48 452.746 1272.01 452.924 1272.5C453.102 1272.99 453.48 1273.39 453.969 1273.57C458.554 1275.35 463.049 1277.24 467.321 1279.24C467.499 1279.33 467.722 1279.38 467.966 1279.38C468.478 1279.38 469.057 1279.17 469.435 1278.89C469.613 1278.75 469.769 1278.62 469.947 1278.53C671.913 1165.44 826.658 991.424 967.852 822.904C1049.32 725.66 1104.22 646.729 1145.81 566.997Z" fill="#B7ADCC"/>
<path d="M862.282 343.646C844.391 308.798 835.045 276.976 834.488 249.094C834.466 248.382 834.021 247.759 833.353 247.492C832.686 247.225 831.929 247.38 831.395 247.87C719.998 353.838 623.532 488.066 544.69 646.84C497.759 741.391 461.866 838.169 437.966 934.479C415.179 1026.32 403.764 1124.09 402.028 1242.17C402.006 1242.86 402.429 1243.48 403.052 1243.79C409.505 1246.77 415.802 1250.22 421.766 1254.05C422.078 1254.25 422.411 1254.34 422.767 1254.34C422.99 1254.34 423.235 1254.3 423.457 1254.21C424.014 1253.98 424.414 1253.52 424.548 1252.94C429.221 1232.04 436.675 1211.13 443.885 1190.9C446.311 1184.07 448.737 1177.3 451.029 1170.58C459.841 1144.72 469.765 1117.55 481.426 1087.51C481.671 1086.89 481.515 1086.18 481.048 1085.69C480.58 1085.2 479.868 1085 479.2 1085.2C468.519 1088.25 454.166 1090.31 445.844 1087.02C435.207 1082.82 435.897 1067.53 439.769 1058.03C445.999 1042.72 461.643 1032.75 472.858 1026.58C474.194 1025.85 475.618 1025.05 477.131 1024.2C487.011 1018.64 500.541 1011.03 511.467 1010.98C512.202 1010.98 512.869 1010.56 513.136 1009.89C525.931 979.986 539.038 950.901 552.078 923.397C552.367 922.796 552.279 922.062 551.834 921.55C551.389 921.016 550.699 920.771 550.009 920.949C528.134 925.8 508.618 925.511 497.781 920.215C491.284 917.055 487.011 912.159 485.454 906.084C483.651 899.052 485.587 890.93 490.794 883.787C503.211 866.764 524.351 856.772 541.397 849.985C544.601 848.716 548.028 847.226 551.633 845.69C565.831 839.593 581.919 832.672 596.339 832.539C597.007 832.539 597.63 832.161 597.941 831.582C611.137 806.525 624.823 781.602 638.619 757.458C638.931 756.902 638.931 756.234 638.597 755.7C638.263 755.166 637.774 754.81 637.017 754.854C618.57 755.099 594.336 748.513 583.944 735.428C579.249 729.531 577.891 722.944 579.894 715.846C584.478 699.623 603.571 693.994 618.903 689.499L622.82 688.341C641.29 682.823 664.299 675.969 684.193 678.928C684.927 679.04 685.64 678.705 686.018 678.105C704.643 648.241 723.514 619.291 742.117 592.098C742.517 591.519 742.518 590.785 742.139 590.184C741.761 589.606 741.093 589.272 740.359 589.361C715.48 592.543 675.425 581.506 665.968 564.571C662.185 557.806 663.543 550.619 669.996 543.209C685.684 525.206 721.288 516.906 740.404 512.433C755.624 508.895 770.779 506.692 783.574 505.023C785.465 504.778 787.357 504.467 789.226 504.155C794.878 503.22 800.219 502.352 804.936 503.532C805.649 503.71 806.383 503.465 806.828 502.909C839.74 461.608 870.582 430.876 903.894 406.176C904.295 405.887 904.562 405.419 904.607 404.93C904.651 404.44 904.495 403.951 904.139 403.595C887.494 385.503 873.386 365.342 862.282 343.646Z" fill="#B7ADCC"/>
<path d="M1196.07 51.444C1179.32 45.191 1158.53 45.7024 1132.56 53.0236C1088.08 65.5296 1046.45 89.3622 1004.14 114.775C964.244 138.83 925.191 166.602 888.118 197.355C874.811 208.392 861.37 220.097 847.039 233.182C846.572 233.605 846.372 234.228 846.505 234.829C847.841 240.859 849.064 246.867 850.288 252.831C856.185 281.515 861.748 308.619 875.834 335.678C895.528 373.463 923.656 405.396 957.191 428.049C993.129 452.305 1035.41 467.459 1079.51 471.843C1088.84 472.778 1098.1 473.245 1107.29 473.245C1120.1 473.245 1132.76 472.332 1145.11 470.53C1150.66 469.729 1156.53 468.104 1162.2 466.547C1171.66 463.943 1181.39 461.228 1190.49 461.94C1191.22 462.007 1192.07 461.517 1192.34 460.761C1215.28 397.14 1230.48 331.405 1237.51 265.359L1238.18 259.329C1238.26 258.594 1237.86 257.883 1237.17 257.571C1236.49 257.238 1235.66 257.371 1235.13 257.882C1226.23 266.138 1215.1 273.482 1203.8 278.533C1171.08 293.109 1121.91 295.089 1096.23 273.17C1096 272.97 1095.78 272.68 1095.96 272.169C1096.18 271.568 1096.8 271.078 1097.38 271.034H1097.41C1106.4 270.433 1115.65 271.59 1124.64 272.703C1131.92 273.615 1139.46 274.55 1146.92 274.572C1147.03 274.572 1147.12 274.572 1147.23 274.572C1166.46 274.572 1183.43 271.056 1197.65 264.113C1216.64 254.923 1226.74 240.971 1237.42 226.172C1238.75 224.325 1240.11 222.456 1241.47 220.587C1241.67 220.32 1241.78 220.009 1241.8 219.697C1245.1 175.414 1244.03 141.034 1238.47 111.482C1232.55 79.9275 1218.3 59.7443 1196.07 51.444ZM1040.22 234.028C1039.73 251.296 1028.58 267.986 1011.84 276.553C996.734 284.275 980.311 283.807 966.737 275.262C956.323 268.697 949.647 257.794 947.933 244.531C945.975 229.199 951.049 213.066 961.196 202.407C970.075 193.127 982.002 188.142 994.375 188.142C999.248 188.142 1004.17 188.921 1009.02 190.479C1026.33 196.131 1038.21 210.662 1040.06 228.375C1040.22 230.4 1040.28 232.247 1040.22 234.028Z" fill="#FFCC99"/>
<path opacity="0.1" d="M1251.32 308.775C1259.56 255.657 1263.07 201.872 1261.2 148.199C1260.31 122.675 1257.22 94.0357 1244.87 71.0264C1232.61 117.557 1217.27 163.242 1198.36 207.569C1171.43 270.7 1137.03 330.694 1093.06 384.145C1069.76 412.472 1044.28 439.087 1015.73 462.452C985.935 486.797 954.003 508.471 923.806 532.348C862.321 580.948 821.844 645.214 784.726 712.395C746.896 780.889 710.58 849.183 668.077 915.118C620.189 989.397 573.636 1064.59 532.023 1142.41C511.662 1180.48 492.413 1219.16 475.212 1258.7C459.101 1295.68 448.709 1330.75 458.612 1370.9C467.224 1405.79 485.916 1437.37 502.049 1469.32C518.872 1502.66 532.446 1537.19 542.927 1572.93C552.14 1604.37 558.949 1636.89 562.02 1669.62C586.987 1659.34 604.323 1632.9 613.468 1609.34C636.433 1550.15 622.036 1478.22 598.67 1421.35C576.506 1367.27 539.811 1319.38 489.787 1289.19C594.932 1228.97 687.214 1151.82 772.375 1067.35C776.047 1073.56 778.762 1082.1 781.633 1087.75C784.637 1093.72 787.663 1099.66 790.712 1105.62C795.496 1115.08 800.369 1124.52 805.198 1133.97C811.718 1148.06 818.305 1162.01 824.358 1175.92C842.827 1218.24 861.52 1260.46 880.168 1302.72C893.787 1333.49 904.601 1380.56 942.542 1390.84C960.211 1395.6 979.704 1393.66 997.773 1393.44C1022.12 1393.13 1046.44 1392.8 1070.78 1392.46C1115.27 1391.91 1162.18 1395.31 1206.3 1389.68C1238.82 1385.52 1259.4 1363.49 1254.28 1330.93C1251.63 1313.91 1243.53 1298.31 1236.28 1282.78C1225.58 1259.9 1214.89 1237 1204.19 1214.11C1184.27 1171.43 1164.31 1128.79 1144.35 1086.13C1103.12 998.165 1062.02 910.111 1020.78 822.101C1018.65 814.046 1015.66 806.458 1011.39 800.539C1059.26 741.413 1104.19 680.018 1142.15 614.394C1196.85 519.642 1234.65 416.389 1251.32 308.775Z" fill="#592639"/>
<path opacity="0.15" d="M1088.93 49.531C1043.66 69.5585 1000.38 93.9696 959.415 121.34C877.947 175.748 805.826 241.75 742.183 315.006C722 273.305 701.817 231.625 681.611 189.924C660.382 146.108 640.666 101.18 617.568 58.2541C609.557 43.3892 599.632 28.6799 585.234 18.8887C568.5 7.56202 548.295 5.95964 528.579 4.3797C478.065 0.329694 427.262 -0.626919 376.637 1.44259C353.628 2.39946 330.618 3.95743 307.676 6.18271C287.203 8.1632 262.992 8.45219 245.435 20.3352C215.46 40.6297 225.051 79.5054 237.023 106.965C275.61 195.509 319.247 282.451 363.574 368.369C388.765 417.124 414.333 465.702 440.703 513.857C466.249 560.499 490.861 609.522 522.282 652.759C444.798 812.534 393.349 986.505 388.476 1162.97C388.053 1178.03 388.075 1193.03 388.52 1208.05C420.275 1166.29 445.665 1119.91 468.808 1073.25C500.941 1008.47 530.76 942.734 563.582 878.268C639.398 729.441 718.551 577.1 824.229 445.764C843.968 421.241 868.178 402.393 899.777 394.76C914.998 391.088 927.705 396.874 942.614 397.141C960.06 397.453 969.918 383.878 975.748 369.659C987.119 341.932 987.542 311.134 995.62 282.539C1003.99 252.899 1021.1 224.104 1038.92 198.936C1086.12 132.267 1152.37 85.0241 1223.96 45.7702C1220.57 43.1221 1216.97 40.6297 1212.94 38.4712C1173.91 17.6426 1126.29 32.975 1088.93 49.531Z" fill="#FFFCFC"/>
<path opacity="0.3" d="M485.985 1581.99C474.169 1559.67 464.4 1536.46 456.545 1512.54C445.975 1480.41 440.457 1448.03 435.761 1415.25C435.761 1411.31 435.761 1407.39 435.805 1403.46C436.028 1378.73 441.547 1347.67 433.736 1323.99C433.158 1322.23 432.067 1320.79 430.665 1319.67C433.847 1312.44 435.805 1304.72 436.874 1295.37C437.764 1287.67 427.639 1283.29 421.542 1286.81C394.393 1302.45 372.83 1325.68 347.996 1344.89C320.625 1366.05 291.63 1386.52 260.453 1402.05C230.479 1416.98 195.676 1425.6 162.386 1429.78C125.98 1434.34 90.0199 1429 54.9495 1419.99C44.5575 1417.32 38.1043 1431.63 47.584 1436.97C57.3975 1442.51 67.5671 1447.29 78.0036 1451.32C78.3374 1451.85 78.7375 1452.37 79.1825 1452.88C107.199 1483.28 158.202 1490.26 197.59 1485.21C230.479 1480.98 267.886 1469.19 293.811 1446.89C326.211 1432.72 354.65 1411.15 375.412 1380.74C386.694 1371.9 397.242 1362.38 406.988 1352.03C403.851 1370.43 403.65 1390.37 402.961 1406.79C401.714 1436.57 403.227 1466.56 408.167 1495.98C415.845 1541.71 434.115 1606.89 480.756 1628.76C481.98 1629.34 483.182 1629.7 484.361 1629.92C490.414 1638.67 497.334 1646.63 505.723 1652.75C512.533 1657.72 522.057 1649.5 519.765 1642.25C512.978 1620.82 496.578 1602.02 485.985 1581.99Z" fill="#592642"/>
<path opacity="0.3" d="M541.707 1344.98C532.072 1333.45 521.102 1323.99 508.484 1315.78C495.244 1307.15 483.139 1296.29 467.428 1292.15C460.463 1290.32 453.698 1298.11 457.792 1304.34C465.091 1315.42 475.839 1323.48 484.139 1333.81C493.107 1344.98 501.341 1356.86 510.22 1368.16C527.31 1389.93 542.019 1413.83 553.034 1439.06C564.005 1464.21 571.393 1490.98 575.487 1517.99C577.156 1529.07 580.138 1539.71 582.319 1550.61C578.313 1572.2 576.978 1595.36 582.141 1615.64C583.743 1621.89 594.313 1624.05 597.273 1617.55C599.476 1612.72 601.323 1607.63 602.858 1602.37C603.103 1602.02 603.326 1601.64 603.526 1601.22C628.449 1543.78 615.186 1478.85 590.775 1423.64C578.18 1395.2 561.779 1368.99 541.707 1344.98Z" fill="#592642"/>
<path opacity="0.3" d="M1252.79 117.379C1251.88 106.921 1251.3 95.2377 1249.48 83.8888C1244.32 82.5537 1238.75 84.4234 1237.28 91.255C1232.72 112.684 1228.83 134.18 1224.8 155.677C1221.89 165.156 1219.24 174.658 1217.37 184.65C1214.27 201.272 1210.78 217.806 1206.51 234.184C1198.25 265.916 1187.79 297.049 1175.38 327.49C1163.61 356.308 1150.83 386.549 1133.92 412.918C1117.48 438.554 1097.38 453.752 1069.3 465.835C1063.62 468.283 1064.14 474.025 1067.3 477.808C1062.07 477.897 1056.99 477.563 1052.99 475.783C1046.98 473.09 1041.39 474.18 1037.57 477.207C1030.6 470.598 1022.28 464.745 1012.46 459.85C1002.12 454.687 994.818 468.039 1003.59 474.603C1061.71 518.129 1029.42 603.358 1008.04 656.497C997.065 683.779 984.248 710.327 970.095 736.184C885.067 851.765 784.908 956.553 678.918 1054.42C638.485 1091.76 597.717 1129.12 555.882 1164.95C516.25 1198.91 477.641 1232.58 433.781 1261.04C420.496 1269.65 425.904 1288.7 441.748 1289.7C490.303 1292.77 531.093 1255.88 565.785 1227.61C605.306 1195.41 644.649 1162.86 682.634 1128.92C718.06 1097.28 752.841 1064.92 786.754 1031.77C774.871 1062.12 812.946 1128.19 821.046 1145.97C847.483 1204.05 873.919 1262.13 900.311 1320.23C910.614 1342.91 919.314 1367.67 946.396 1375.08C975.258 1382.98 1010.04 1380.69 1039.84 1381.05C1071.26 1381.43 1102.68 1380.54 1134.03 1378.33C1150.43 1377.18 1168.75 1376.73 1184.99 1371.7C1185.12 1371.9 1185.21 1372.08 1185.35 1372.28C1199.43 1391.46 1227.03 1382.05 1237.95 1364.4C1248.39 1347.58 1247.97 1318.16 1233.28 1303.56C1231.92 1302.21 1230.07 1301.43 1228.14 1301.12C1227.92 1296.46 1227.49 1291.81 1226.94 1287.27C1224.91 1270.65 1221.22 1255.72 1213.39 1240.74C1204.77 1224.25 1198.36 1207.74 1191.53 1190.36C1190.38 1187.43 1188.24 1185.6 1185.79 1184.69C1175 1153 1161.65 1120.13 1141.04 1095.59C1135.39 1088.85 1125.69 1096.3 1127.2 1103.42C1131.63 1124.18 1141.75 1144.3 1148.99 1164.28C1156.75 1185.73 1164.54 1207.1 1171.04 1228.97C1175.6 1244.39 1179.92 1260.06 1183.41 1275.84C1183.74 1279.62 1184.14 1283.42 1184.66 1287.27C1186.12 1298.11 1189.44 1313.6 1184.12 1323.7C1179.49 1332.51 1169.1 1334.07 1159.89 1335.43C1098.45 1344.35 1031.8 1343.31 970.05 1338.21C954.34 1336.92 950.669 1331.98 944.571 1319.01C937.673 1304.3 931.131 1289.43 924.433 1274.63C912.416 1248.15 900.4 1221.69 888.383 1195.19C910.792 1197.53 936.048 1186.71 954.318 1175.97C976.392 1162.99 991.814 1143.23 1000.14 1119.6C1006.08 1102.73 1006.39 1085.71 1005.08 1068.6C1008.59 1055.27 1011 1042.05 1012.6 1029.92C1015.31 1009.49 1016.74 988.886 1017.12 968.258C1025.88 944.537 1020.34 919.992 1017.32 894.246C1014.09 866.719 1013.09 834.097 997.8 809.952C995.997 807.104 993.349 805.702 990.612 805.479C1083.16 686.805 1162.07 556.805 1211.34 416.101C1229.27 364.897 1247.12 310.689 1252.39 256.637C1252.64 254.078 1252.91 251.519 1253.15 248.982C1253.8 235.875 1254.37 222.768 1254.75 209.639C1255.69 178.841 1255.46 148.066 1252.79 117.379ZM941.456 1129.12C909.101 1151.75 871.293 1130.9 851.844 1102.84C841.007 1087.22 820.112 1052.93 827.299 1030.41C820.713 1030.74 814.749 1023.13 820.98 1017.95C837.135 1004.53 853.224 991.023 870.247 978.606C885.134 967.768 902.937 953.304 921.785 949.944C962.886 942.601 966.156 992.091 968.248 1019.28C971.03 1054.93 975.481 1105.34 941.456 1129.12Z" fill="#592642"/>
<path opacity="0.3" d="M619.679 492.828C622.238 483.66 615.028 475.025 605.526 474.758C572.37 473.801 538.545 467.237 505.255 466.236C502.763 465.145 500.315 463.966 497.867 462.586C492.104 459.337 486.941 461.941 484.738 466.28C480.71 463.588 476.705 460.495 472.611 456.867C470.897 455.332 468.494 454.664 466.112 454.753C454.252 434.993 442.369 415.254 430.308 395.627C412.907 367.322 392.567 341.086 374.075 313.471C355.628 285.899 337.959 257.883 318.844 230.734C312.725 222.034 299.595 229.488 304.335 238.99C319.089 268.609 335.333 297.426 350.777 326.711C352.156 329.315 353.492 331.918 354.827 334.544C353.136 336.769 352.557 339.862 354.292 343.155C404.294 437.863 454.207 532.882 509.595 624.764C519.519 641.231 548.359 634.756 547.514 614.773C547.469 613.483 547.491 612.236 547.491 610.967C555.191 601.933 559.641 589.316 562.467 576.921C563.113 575.163 563.535 573.36 563.602 571.469C563.624 571.402 563.624 571.336 563.624 571.291C574.706 569.311 584.319 564.126 589.949 554.134C593.888 547.125 592.33 536.065 585.477 530.991C586.967 531.08 588.525 530.902 590.149 530.301C606.639 524.248 615.206 508.805 619.679 492.828Z" fill="#592642"/>
<path opacity="0.5" d="M372.168 1247.58C340.058 1235.74 309.038 1237.36 275.414 1241.97C241.856 1246.57 207.721 1254.05 176.411 1266.82C145.947 1279.24 116.507 1294.46 89.0468 1312.38C65.1918 1327.93 30.255 1349.4 17.5932 1375.26C14.8116 1380.94 19.5953 1390.15 27.0945 1387.28C40.3571 1382.18 51.1726 1372.48 62.7663 1364.51C75.5171 1355.75 88.7792 1347.69 102.309 1340.1C130.036 1324.57 158.943 1312.75 189.473 1303.45C219.537 1294.28 249.689 1286.21 281.021 1282.22C311.841 1278.31 341.927 1277.57 372.168 1270.3C384.652 1267.27 382.605 1251.42 372.168 1247.58Z" fill="#FFF7F7"/>
<path opacity="0.5" d="M1183.93 35.2665C1160.03 39.0717 1137.69 46.7716 1115.39 55.7617C1089.8 66.087 1061.96 71.9391 1038.37 86.2031C997.517 110.926 956.639 136.717 918.297 165.045C851.739 214.223 790.3 273.193 736.07 335.835C732.976 335.279 729.839 334.923 726.679 334.7C725.344 304.436 709.01 277.555 695.992 250.317C682.908 222.946 669.378 195.798 655.381 168.85C641.606 142.325 627.543 115.91 612.7 89.9415C600.15 68.0226 585.908 46.5488 565.057 31.2611C521.152 -0.938611 454.149 4.58023 402.189 6.24919C371.881 7.22831 340.839 8.98643 310.998 14.3271C288.545 18.3326 262.842 22.1597 245.641 38.2484C238.676 44.7685 234.025 52.0898 231.199 59.945C238.787 96.9958 251.738 132.934 266.18 168.405C270.92 174.302 275.682 179.643 280.2 184.205C287.432 191.504 299.315 182.202 294.397 173.546C279.955 148.066 267.782 118.069 265.668 88.8067C263.488 58.5875 291.059 54.2036 316.293 52.5346C348.493 50.3984 380.292 50.0423 412.514 50.1313C442.422 50.2203 474.421 48.0843 503.929 53.4249C532.724 58.6321 550.103 74.7875 564.834 98.4866C580.5 123.677 594.119 150.291 607.961 176.46C622.692 204.276 636.911 232.36 650.663 260.643C662.791 285.588 672.226 314.116 689.405 336.236C682.017 336.925 674.718 337.637 667.642 337.86C642.051 338.706 614.97 337.682 589.691 341.754C566.325 345.515 544.006 355.773 522.554 365.186C502.571 373.954 484.146 384.391 469.682 400.68C461.737 409.625 473.821 421.396 483.011 413.652C500.324 399.055 521.753 391.489 543.16 384.39C565.302 377.047 586.798 371.417 610.386 371.706C634.174 371.996 657.451 375.155 681.306 374.087C689.094 373.731 697.127 373.575 705.094 373.019C581.435 526.608 485.125 705.119 440.82 896.137C427.958 951.635 415.585 1007.18 407.997 1063.63C404.058 1092.96 400.543 1122.69 399.23 1152.27C398.584 1167.06 398.762 1181.95 398.873 1196.75C399.007 1211.93 402.256 1226.23 403.836 1241.3C405.238 1254.74 423.663 1254.61 425.243 1241.3C428.247 1215.84 432.386 1190.56 435.213 1164.97C438.016 1139.63 440.019 1114.21 443.246 1088.89C443.646 1085.84 444.069 1082.77 444.469 1079.72C448.008 1081.95 453.793 1081.66 456.73 1077.81C471.729 1058 492.113 1044.99 515.745 1036.71C489.286 1097.15 463.963 1158.03 443.847 1220.76C440.375 1231.55 456.575 1235.14 460.803 1225.3C509.27 1112.48 556.29 999.79 610.608 889.439C663.17 782.67 717.667 678.839 791.724 584.443C833.581 531.103 879.466 480.856 925.663 431.077C938.391 417.369 917.541 396.963 904.745 410.738C873.48 444.428 842.527 478.408 812.819 513.278C768.87 505.512 714.952 522.557 679.392 546.969C669.445 553.778 677.879 567.175 688.782 562.591C709.589 553.845 730.439 545.678 752.625 540.849C766.467 537.845 780.419 536.733 794.349 535.331C753.983 584.22 716.309 635.112 683.864 689.765C683.152 690.967 682.462 692.19 681.75 693.392C681.35 693.014 680.927 692.658 680.482 692.324C664.66 681.242 642.897 691.5 626.408 696.53C611.721 701.002 592.628 703.094 587.421 719.339C584.106 729.619 598.681 734.36 604.422 726.304C608.138 721.075 631.615 718.983 638.18 717.336C649.395 714.51 659.921 711.128 671.425 711.172C646.547 754.699 623.76 799.426 602.152 844.711C601.663 844.555 601.174 844.444 600.662 844.377C564.879 839.838 521.174 867.72 498.454 892.398C490.888 900.61 502.148 911.091 510.716 904.304C524.891 893.044 539.867 882.741 556.646 875.509C568.284 870.479 580.768 868.121 592.807 864.471C568.173 917.054 544.918 970.261 521.664 1023.16C520.329 1021.06 517.993 1019.62 514.61 1019.71C485.771 1020.55 460.647 1037.2 447.051 1061.32C452.814 1021.73 460.091 982.3 469.526 943.424C492.98 846.936 530.966 751.494 575.516 662.483C645.011 523.648 740.676 396.696 854.031 288.325C857.302 303.257 862.376 317.721 869.942 331.495C870.521 332.541 871.278 333.365 872.123 333.988C880.156 357.086 893.018 378.716 908.351 397.698C911.043 401.036 914.47 401.547 917.496 400.434C927.576 413.564 938.926 425.691 951.321 436.506C958.709 442.959 969.501 432.678 962.313 425.825C918.787 384.256 871.099 306.594 906.793 248.403C934.319 203.542 991.42 165.201 1033.14 133.134C1079.65 97.3964 1130.83 66.8436 1188.54 51.8229C1199.75 48.8411 1194.85 33.5085 1183.93 35.2665Z" fill="#FFF7F7"/>
<path d="M1251.33 308.776C1259.56 255.658 1263.08 201.873 1261.21 148.2C1259.78 107.944 1253.04 59.9896 1212.9 38.4712C1173.93 17.6426 1126.31 32.975 1088.93 49.531C1043.66 69.5585 1000.38 93.9696 959.414 121.34C877.947 175.748 805.826 241.75 742.183 315.006C722 273.305 701.817 231.625 681.611 189.924C660.382 146.108 640.666 101.18 617.568 58.2541C609.557 43.3892 599.632 28.6799 585.234 18.8887C568.5 7.56202 548.295 5.95964 528.579 4.3797C478.065 0.329694 427.262 -0.626919 376.637 1.44259C353.628 2.39946 330.618 3.95743 307.676 6.18271C287.203 8.1632 262.992 8.45219 245.435 20.3352C215.46 40.6297 225.051 79.5054 237.023 106.965C275.61 195.509 319.247 282.451 363.574 368.369C388.765 417.124 414.333 465.702 440.703 513.857C466.249 560.499 490.861 609.522 522.282 652.759C444.797 812.534 393.349 986.505 388.476 1162.97C387.786 1187.54 388.142 1211.97 389.9 1236.52C339.92 1218.65 280.083 1222.03 230.214 1232.47C156.513 1247.82 87.2625 1285.03 34.9462 1337.81C11.1803 1361.82 -6.28839 1384.87 12.5597 1417.52C29.316 1446.6 61.1594 1464.16 92.2243 1475.55C163.344 1501.61 246.748 1495.49 313.083 1459.42C344.794 1442.2 372.209 1418.41 393.861 1390.44C376.793 1486.17 394.595 1587.71 480.802 1647.37C501.186 1661.48 534.298 1679.95 559.844 1670.53C585.969 1660.92 604.038 1633.62 613.451 1609.36C636.416 1550.17 622.019 1478.25 598.653 1421.37C576.49 1367.29 539.795 1319.41 489.77 1289.21C594.915 1228.99 687.197 1151.84 772.358 1067.37C776.03 1073.58 778.744 1082.13 781.615 1087.78C784.619 1093.74 787.645 1099.68 790.694 1105.65C795.478 1115.1 800.352 1124.54 805.181 1134C811.701 1148.08 818.288 1162.04 824.341 1175.94C842.81 1218.27 861.503 1260.48 880.151 1302.74C893.769 1333.52 904.584 1380.58 942.525 1390.86C960.193 1395.62 979.687 1393.69 997.756 1393.46C1022.1 1393.15 1046.42 1392.82 1070.77 1392.48C1115.25 1391.93 1162.16 1395.33 1206.29 1389.7C1238.8 1385.54 1259.38 1363.51 1254.26 1330.96C1251.62 1313.93 1243.52 1298.33 1236.26 1282.8C1225.56 1259.93 1214.88 1237.03 1204.17 1214.13C1184.26 1171.45 1164.3 1128.81 1144.33 1086.15C1103.1 998.188 1062 910.134 1020.77 822.125C1018.63 814.069 1015.65 806.481 1011.38 800.562C1059.24 741.436 1104.17 680.04 1142.13 614.417C1196.85 519.642 1234.66 416.39 1251.33 308.776ZM889.318 198.713C925.746 168.494 964.399 140.812 1005.12 116.289C1044.82 92.4344 1087.97 67.4 1133.08 54.716C1152.88 49.1305 1175.53 45.6807 1195.43 53.0909C1221.02 62.6596 1232.08 87.2272 1236.68 111.772C1243.18 146.286 1242.67 183.426 1239.98 219.542C1227.74 236.165 1217.77 252.365 1196.83 262.512C1181.34 270.056 1164.1 272.815 1146.89 272.793C1130.32 272.726 1113.69 268.164 1097.25 269.255C1094.76 269.388 1092.82 272.615 1095 274.484C1122.66 298.094 1173.31 294.044 1204.53 280.136C1215.05 275.441 1226.67 268.164 1236.35 259.174L1235.71 265.204C1228.63 331.651 1213.34 397.208 1190.64 460.205C1175.69 459.115 1159.36 466.703 1144.89 468.817C1123.4 471.955 1101.34 472.267 1079.76 470.131C1036.43 465.813 994.04 450.793 958.302 426.648C923.899 403.417 896.395 371.15 877.524 334.945C860.568 302.389 855.895 269.01 848.351 234.518C861.703 222.257 875.344 210.285 889.318 198.713ZM886.247 679.418C883.154 678.884 875.677 670.205 873.408 667.624C867.822 661.304 863.416 654.094 859.388 646.795C853.113 635.468 848.907 622.005 841.831 610.901C851.199 598.217 860.634 585.6 870.203 573.05C874.52 585.556 879.749 597.928 882.576 610.79C886.959 630.906 890.876 654.205 888.384 674.833C887.805 679.551 889.83 680.041 886.247 679.418ZM834.933 584.532C796.102 636.358 758.828 689.208 723.046 743.038C651.481 850.741 586.058 962.273 527.177 1076.99C511.022 1108.43 495.356 1140.09 480.291 1172.09C469.431 1195.21 456.547 1219.05 446.867 1243.37C452.519 1226.59 457.348 1209.43 463.023 1192.97C473.481 1162.61 484.407 1132.35 495.934 1102.35C519.811 1040.27 546.27 979.117 575.265 919.146C631.342 803.187 696.588 691.412 770.445 585.333C812.435 525.028 856.674 464.078 917.246 420.062C917.424 419.928 917.535 419.773 917.69 419.684C926.503 427.828 935.827 435.505 945.663 442.492C946.063 442.782 946.464 443.026 946.909 443.293C926.881 461.785 910.793 486.775 894.259 507.648C874.12 532.949 854.337 558.607 834.933 584.532ZM776.275 742.771C782.772 762.576 789.003 782.804 790.183 803.677C790.472 808.795 790.516 813.958 790.138 819.031C789.604 826.33 791.228 829.156 784.397 826.308C775.54 822.592 769.109 809.796 764.392 802.208C755.758 788.344 748.414 772.634 736.153 761.508C746.233 746.287 756.469 731.155 766.817 716.046C769.821 725.169 773.449 734.137 776.275 742.771ZM665.767 872.305C674.846 907.152 685.372 942.868 686.752 978.561C686.796 980.008 687.887 991.023 686.796 991.668C683.392 993.582 676.137 983.657 674.379 981.61C668.282 974.445 664.254 965.521 659.759 957.332C652.46 944.158 647.03 930.006 638.708 917.522C647.631 902.345 656.622 887.258 665.767 872.305ZM571.66 1062.16C576.267 1077.16 579.605 1092.92 580.695 1108.56C580.984 1112.7 583.009 1122.36 575.51 1122.58C571.66 1122.71 559.755 1106.14 558.019 1103.87C553.546 1097.97 549.897 1091.61 545.825 1085.51C552.434 1072.65 559.176 1059.87 565.963 1047.12C567.966 1052.08 570.08 1057.02 571.66 1062.16ZM487.545 1067.02C477.598 1069.11 466.894 1073.89 457.303 1072.31C452.074 1075.98 450.806 1073.87 453.498 1065.95C454.477 1062.7 456.08 1059.81 458.327 1057.27C462.222 1051.97 467.295 1047.92 472.724 1044.16C480.713 1038.73 493.019 1034.46 503.166 1028.7C498.115 1040.78 493.152 1052.89 488.279 1065.06C488.057 1065.73 487.834 1066.39 487.545 1067.02ZM560.489 901.789C545.936 902.457 531.561 906.796 516.896 906.73C498.382 906.663 503.834 892.932 513.402 884.699C519.433 879.514 526.331 875.442 533.386 871.815C547.694 864.516 563.071 859.642 578.091 854.012C580.673 853.033 583.276 852.099 585.813 851.12C577.223 867.921 568.723 884.81 560.489 901.789ZM625.668 735.962C618.747 734.893 607.955 733.536 602.547 728.663C595.182 726.371 595.003 721.364 602.035 713.598C605.329 711.617 608.867 710.06 612.605 708.969C631.921 701.559 654.485 699.534 674.624 693.214C671.509 698.31 668.348 703.383 665.255 708.502C659.67 717.759 654.151 727.105 648.7 736.451C641.178 736.251 633.367 737.141 625.668 735.962ZM752.62 573.717C739.958 567.776 721.488 571.113 707.803 567.642C697.611 565.038 678.407 561.611 692.56 548.749C699.302 542.63 713.099 539.114 721.422 536.288C738.111 530.613 755.535 526.763 772.914 523.581C777.877 522.691 784.063 522.335 790.183 521.578C785.71 527.52 781.281 533.484 776.942 539.47C768.731 550.819 760.63 562.257 752.62 573.717ZM515.828 608.943C511.689 602.667 507.483 596.482 503.567 590.295C494.421 573.517 485.03 556.871 475.995 540.159C455.167 501.751 434.472 463.209 414.422 424.401C373.744 345.826 334.401 266.54 296.616 186.563C288.026 168.338 279.481 150.091 271.025 131.799C262.013 112.284 250.731 92.3008 247.148 71.0049C243.187 47.3502 255.048 33.9096 278.859 29.7706C301.824 25.8096 325.745 24.7187 348.999 23.2723C394.973 20.3794 441.148 19.979 487.144 22.1375C508.151 23.1166 530.226 23.2725 550.877 27.1445C574.286 31.5283 587.304 46.7268 598.052 66.2648C621.418 108.701 640.733 153.63 661.784 197.156C681.967 238.924 702.217 280.648 722.423 322.372C703.842 319.434 681.411 322.861 665.055 323.707C639.398 325.02 613.74 327.868 588.706 333.565C544.289 343.668 497.915 363.473 467.34 397.497C440.525 427.338 435.718 466.236 462.555 497.79C492.195 532.66 539.261 537.756 583.009 539.203C580.295 543.831 577.535 548.46 574.887 553.11C559.933 579.28 545.647 605.917 532.028 632.998C527.333 624.698 521.48 616.753 515.828 608.943ZM592.533 464.078C577.335 464.5 562.092 464.122 546.915 462.921C530.337 461.608 513.736 459.538 497.403 456.422C486.454 454.33 475.55 451.06 464.491 449.457C464.669 446.676 465.07 443.961 465.693 441.224C499.161 436.328 532.785 434.014 566.609 433.925C582.542 433.88 598.519 434.414 614.408 435.549C625.267 436.328 636.216 438.197 647.075 438.309C641.823 445.964 636.616 453.663 631.498 461.385C618.814 460.428 605.062 463.722 592.533 464.078ZM619.17 480.21C610.603 493.518 602.258 506.892 594.136 520.421C593.669 520.355 593.223 520.243 592.711 520.243C552.5 519.264 505.147 518.129 477.487 485.128C471.278 477.674 467.518 470.197 465.693 462.809C488.368 473.157 517.364 476.428 540.418 478.898C557.73 480.745 575.109 481.479 592.533 481.012C600.856 480.767 610.18 481.078 619.17 480.21ZM617.835 418.86C599.699 417.169 581.429 416.167 563.227 415.967C533.43 415.655 503.745 417.881 474.238 421.686C474.995 420.551 475.795 419.416 476.596 418.304C493.575 414.988 509.687 407.667 526.131 402.482C543.867 396.896 562.092 392.446 580.495 389.375C599.254 386.238 618.235 384.569 637.261 384.368C652.927 384.168 668.46 386.238 684.015 387.15C674.58 399.656 665.322 412.295 656.288 425.068C644.138 420.618 630.719 420.084 617.835 418.86ZM579.36 374.132C553.413 378.337 521.725 384.502 496.068 397.386C500.162 393.892 504.413 390.599 508.774 387.617C540.062 366.188 577.246 354.327 614.697 348.119C637.929 344.313 661.517 342.577 685.016 341.62C695.786 341.197 708.559 342.221 720.398 340.886C711.719 351.412 703.263 362.071 694.918 372.841C658.869 363.851 615.409 368.301 579.36 374.132ZM439.768 934.901C464.38 835.699 500.763 739.478 546.359 647.618C618.859 501.573 713.077 362.917 832.685 249.138C833.331 282.072 846.259 316.386 860.657 344.447C871.872 366.343 886.092 386.638 902.87 404.774C865.464 432.479 834.065 465.924 805.47 501.818C798.727 500.127 791.139 502.285 783.395 503.264C768.842 505.178 754.289 507.403 740.025 510.719C717.483 515.971 684.17 524.249 668.638 542.074C641.312 573.383 706.022 595.524 740.648 591.118C721.31 619.402 702.617 648.13 684.504 677.192C663.408 674.055 639.643 681.509 620.194 687.295C604.194 692.034 583.209 697.575 578.158 715.4C570.748 741.636 607.776 757.013 637.061 756.635C623.064 781.135 609.49 805.88 596.339 830.803C577.802 830.981 556.461 842.13 540.729 848.383C521.725 855.971 501.564 866.029 489.347 882.808C479.467 896.404 480.535 913.806 497.002 921.861C510.22 928.315 532.429 926.735 550.453 922.752C536.879 951.391 523.928 980.252 511.489 1009.31C498.382 1009.36 482.204 1019.55 472.013 1025.14C458.26 1032.7 444.13 1042.65 438.121 1057.47C434.138 1067.24 433.003 1083.91 445.198 1088.76C453.476 1092.05 467.629 1090.45 479.756 1087C469.097 1114.53 458.861 1142.21 449.337 1170.14C440.235 1196.86 429.087 1224.63 422.812 1252.67C416.759 1248.8 410.439 1245.33 403.874 1242.3C405.388 1138.29 414.645 1036.11 439.768 934.901ZM400.314 1275.24C397.666 1276.13 395.196 1276.93 393.126 1277.66C376.17 1283.94 359.169 1290.08 342.056 1296.09C305.807 1308.86 269.29 1321.05 232.706 1332.87C197.146 1344.35 161.386 1355.1 125.537 1365.56C104.018 1371.81 81.3428 1376.77 59.3348 1383.21C61.3375 1381.89 63.3624 1380.6 65.3652 1379.36C81.5207 1369.43 97.8548 1359.86 114.656 1351.07C148.435 1333.38 183.795 1318.61 220.222 1306.88C254.514 1295.86 289.762 1287.47 325.433 1281.91C345.439 1278.8 365.599 1276.68 385.827 1275.46C390.478 1275.21 395.329 1275.24 400.314 1275.24ZM25.3995 1386.79C27.3132 1372.52 42.3559 1360.17 52.0358 1350.56C97.0977 1305.83 154.555 1273.5 216.618 1257.08C272.405 1242.32 331.086 1240.05 384.849 1257.72C384.159 1257.77 383.469 1257.83 382.824 1257.86C363.998 1259.1 345.194 1261.15 326.546 1263.86C287.826 1269.52 249.618 1278.51 212.523 1290.61C176.562 1302.36 141.581 1317.03 108.113 1334.36C90.4 1343.51 72.9756 1353.43 56.4418 1364.4C46.1165 1371.23 34.6789 1378.22 25.3995 1386.79ZM31.8971 1408.95C31.5633 1408.42 31.2075 1407.93 30.8737 1407.37C66.6116 1403.66 102.794 1390.7 137.019 1381.2C176.273 1370.3 215.327 1358.55 254.158 1346.29C291.898 1334.41 329.35 1321.54 366.624 1308.24C375.235 1305.17 383.936 1302.16 392.615 1299.09C392.392 1299.29 392.17 1299.51 391.925 1299.71C377.772 1312.55 362.996 1324.77 347.508 1336.12C319.559 1356.64 289.228 1374.39 257.073 1387.97C221.758 1402.94 183.661 1412.6 145.231 1415.72C106.645 1418.79 70.439 1410.73 32.2978 1408.91C32.142 1408.93 32.0306 1408.95 31.8971 1408.95ZM148.168 1468.23C116.013 1463.54 82.5227 1453.12 56.2422 1434.03C50.8792 1430.14 45.4272 1425.49 40.5984 1420.3C72.0638 1434.43 111.941 1435.01 145.231 1432.63C184.574 1429.8 223.071 1420.37 259.388 1405.55C294.925 1391.08 328.126 1371.79 358.835 1349.2C373.9 1338.17 388.386 1326.37 402.228 1313.93C406.767 1309.84 411.663 1305.74 416.336 1301.43C381.755 1411.53 269.201 1485.81 148.168 1468.23ZM490.638 1630.97C446.645 1600.7 419.718 1551.19 410.283 1500.46C399.935 1444.89 410.684 1390.24 426.083 1336.79C427.974 1332.58 429.665 1328.29 431.334 1323.97C429.554 1352.01 433.181 1381.51 435.54 1408.37C438.811 1445.56 443.017 1482.96 451.362 1519.44C458.772 1551.7 469.987 1583.79 488.012 1611.96C494.554 1622.24 502.232 1633.15 511.133 1642.9C504.034 1639.4 497.136 1635.42 490.638 1630.97ZM526.087 1631.15C515.227 1619.82 506.082 1607.05 498.315 1593.56C482.049 1565.37 472.658 1534.08 466.271 1502.52C459.306 1468.17 455.1 1433.19 451.829 1398.36C449.648 1375.06 449.648 1350.49 447.067 1326.71C452.03 1341.33 457.749 1355.79 462.533 1370.05C473.392 1402.21 483.896 1434.48 493.531 1466.99C502.811 1498.47 511.355 1530.19 519.143 1562.05C523.06 1578.01 526.799 1593.96 530.359 1609.98C532.251 1618.48 534.098 1627.07 535.878 1635.62C536.212 1637.13 536.901 1639.47 537.658 1642.05C533.675 1638.53 529.758 1635 526.087 1631.15ZM566.854 1614.06C565.63 1624.29 561.113 1633.68 557.775 1643.21C557.241 1641.05 556.685 1638.93 556.262 1636.93C552.479 1618.71 548.495 1600.57 544.223 1582.46C535.989 1547.34 526.688 1512.45 516.54 1477.78C506.66 1444.18 495.956 1410.82 484.274 1377.78C478.911 1362.49 473.614 1346.18 467.361 1330.27C477.064 1343.75 486.699 1357.24 495.489 1371.34C514.293 1401.56 529.736 1433.52 541.73 1466.88C553.302 1499.16 561.691 1532.81 565.785 1566.81C567.632 1582.46 568.701 1598.39 566.854 1614.06ZM603.326 1566.61C601.301 1584.84 596.25 1603.29 586.948 1619.35C588.55 1604.02 587.682 1588.33 586.77 1577.52C583.543 1540.06 575.021 1502.75 562.737 1467.17C541.463 1405.5 506.771 1337.25 454.232 1294.28C555.66 1339.1 615.009 1461 603.326 1566.61ZM1026.64 947.029C1028.26 927.759 1029 908.198 1028.46 888.749C1086.12 1012.16 1143.82 1135.58 1201.64 1258.97C1213.21 1283.65 1259.69 1353.5 1213.5 1367.27C1197.1 1372.15 1178 1370.39 1161.09 1370.63C1139.06 1370.94 1117.08 1371.28 1095.05 1371.61C1053.92 1372.21 1012.71 1373.55 971.542 1373.37C951.982 1373.3 935.938 1370.19 925.502 1352.72C915.443 1335.92 908.701 1316.67 900.756 1298.85C881.997 1256.7 863.305 1214.51 844.323 1172.43C826.365 1132.53 810.9 1089.34 788.113 1051.53C796.613 1042.96 804.981 1034.24 813.37 1025.51C813.615 1043.65 820.691 1063.7 826.988 1078.57C836.134 1100.11 849.263 1121.38 868.289 1136C908.545 1166.95 958.614 1146.35 983.737 1107.63C1013.29 1061.99 1022.14 999.768 1026.64 947.029ZM972.032 926.134C969.451 906.507 967.826 882.718 957.3 865.228C970.341 850.051 983.247 834.764 995.976 819.343C997.356 822.303 998.78 825.24 1000.16 828.199C1003.1 838.079 1004.99 848.249 1006.1 858.486C1008.5 880.382 1008.62 902.613 1007.73 924.576C1005.83 971.307 997.778 1018.42 983.002 1062.97C980.399 1070.87 976.683 1079.34 972.055 1087.64C972.411 1082.95 972.744 1078.36 973.256 1074.16C976.082 1049.01 977.44 1023.76 977.239 998.5C977.106 974.333 975.192 950.144 972.032 926.134ZM959.214 995.184C959.437 1017.17 958.569 1039.13 956.522 1061.03C955.254 1074.47 953.429 1087.87 951.404 1101.2C950.603 1106.69 949.668 1111.72 949.735 1116.77C945.818 1120.45 941.635 1123.69 937.295 1126.3C938.319 1117.22 936.027 1106.74 935.626 1098.37C934.647 1077.16 932.8 1055.93 930.286 1034.84C927.971 1015.21 925.056 995.651 921.251 976.202C917.802 958.756 914.976 939.53 906.809 923.33C921.007 907.241 935.07 891.108 949.023 874.93C948.867 891.887 953.451 909.8 955.276 926.156C957.791 949.076 958.969 972.131 959.214 995.184ZM913.307 1041.49C915.421 1061.52 916.867 1081.59 917.802 1101.71C918.269 1111.63 915.799 1123.98 919.582 1133.17C918.448 1133.35 917.29 1133.49 916.133 1133.6C911.26 1122.89 904.116 1113.15 899.777 1102.11C894.081 1087.71 889.497 1072.8 885.046 1058C880.262 1042.18 876.078 1026.23 872.162 1010.25C869.113 998.01 866.932 985.081 861.992 973.354C873.964 960.225 885.825 946.985 897.619 933.678C898.643 947.163 902.003 960.781 904.117 973.844C907.744 996.319 910.904 1018.91 913.307 1041.49ZM870.604 1068.73C875.366 1085.35 880.684 1111.54 892.478 1129.48C888.985 1127.92 885.447 1125.94 881.886 1123.45C863.951 1110.88 851.177 1090.4 842.254 1071.13C833.464 1052.28 832.418 1031.57 825.698 1012.54C834.332 1003.44 842.855 994.228 851.355 985.015C852.156 1012.94 863.327 1043.47 870.604 1068.73ZM966.447 821.79C823.094 992.892 667.881 1165.66 469.053 1277.02C468.697 1277.22 468.43 1277.44 468.096 1277.68C463.712 1275.64 459.195 1273.72 454.633 1271.96C470.099 1246.37 480.758 1217.18 493.598 1190.39C507.016 1162.28 520.813 1134.29 534.943 1106.51C536.19 1104.09 537.458 1101.71 538.682 1099.28C548.807 1125.16 573.597 1157.5 593.09 1136.6C604.372 1124.45 598.72 1101.8 596.428 1087.71C593.379 1069.15 589.173 1042.94 577.09 1026.43C592.956 997.165 609.201 968.103 625.912 939.263C626.958 937.461 628.049 935.658 629.095 933.833C634.146 952.214 645.384 969.549 655.086 985.371C663.408 998.811 678.029 1022.71 697.878 1009.76C715.235 998.456 705.599 962.606 702.929 946.673C697.566 914.874 688.71 883.453 681.188 852.055C680.966 851.098 680.498 850.141 679.92 849.295C695.897 823.571 712.253 798.003 728.876 772.657C731.702 780.779 736.019 788.3 740.425 796.177C746.878 807.838 752.954 820.211 761.766 830.424C771.156 841.217 793.921 857.083 805.025 839.838C810.299 831.604 809.787 815.76 809.609 806.77C809.364 793.574 807.139 780.334 803.979 767.516C800.53 753.43 795.746 739.722 791.206 725.992C787.801 715.712 785.331 704.875 781.726 694.572C798.193 670.873 814.994 647.418 832.062 624.119C835.556 640.72 844.501 657.943 853.18 670.516C860.991 681.843 882.865 710.415 899.666 698.266C907.076 692.903 907.254 682.933 907.655 674.856C908.345 659.679 907.299 644.347 905.296 629.327C902.203 605.961 897.596 575.809 884.801 554.246C890.275 547.147 895.683 540.026 901.246 532.95C912.929 518.063 924.767 503.265 936.739 488.533C945.885 477.274 956.143 466.436 964.021 454.264C997.489 473.846 1035.32 485.93 1074.13 490.425C1097.72 493.14 1121.48 492.962 1145.05 489.869C1156.08 488.378 1170.13 487.331 1182.03 483.192C1170.93 511.498 1158.33 539.247 1144.25 566.262C1096.18 658.233 1033.29 742.014 966.447 821.79Z" fill="#3D2938"/>
<path d="M965.753 276.731C998.598 297.426 1041.01 269.276 1042.04 234.095C1042.1 232.159 1042.04 230.223 1041.86 228.242C1037.76 188.677 987.85 171.898 959.878 201.205C940.162 221.856 940.006 260.531 965.753 276.731Z" fill="#3D2938"/>
</g>
<defs>
<filter id="filter0_d_403_14757" x="0.589844" y="0.383789" width="1265.11" height="1680.72" filterUnits="userSpaceOnUse" color-interpolation-filters="sRGB">
<feFlood flood-opacity="0" result="BackgroundImageFix"/>
<feColorMatrix in="SourceAlpha" type="matrix" values="0 0 0 0 0 0 0 0 0 0 0 0 0 0 0 0 0 0 127 0" result="hardAlpha"/>
<feOffset dy="4"/>
<feGaussianBlur stdDeviation="2"/>
<feComposite in2="hardAlpha" operator="out"/>
<feColorMatrix type="matrix" values="0 0 0 0 0 0 0 0 0 0 0 0 0 0 0 0 0 0 0.25 0"/>
<feBlend mode="normal" in2="BackgroundImageFix" result="effect1_dropShadow_403_14757"/>
<feBlend mode="normal" in="SourceGraphic" in2="effect1_dropShadow_403_14757" result="shape"/>
</filter>
</defs>
</svg>
