<svg width="1097" height="1621" viewBox="0 0 1097 1621" fill="none" xmlns="http://www.w3.org/2000/svg">
<g filter="url(#filter0_d_403_14839)">
<path d="M545.69 1516.86C545.713 1516.15 545.312 1515.48 544.689 1515.14C542.285 1513.85 539.882 1512.12 537.635 1510.43C518.631 1495.96 501.786 1488.64 483.094 1486.73C464.112 1484.7 444.685 1488.62 426.927 1498.01C423.077 1500.06 419.517 1502.51 416.09 1504.89C411.217 1508.27 406.588 1511.45 401.359 1513.41C400.602 1513.7 400.091 1514.43 400.113 1515.23C400.202 1518.59 400.113 1522.55 400.002 1526.74C399.623 1541.94 399.156 1560.85 407.345 1570.51C418.182 1583.28 444.196 1588 458.126 1590.54C459.594 1590.83 461.063 1591.03 462.532 1591.25L464.134 1591.49C464.668 1591.58 465.225 1591.43 465.647 1591.05C466.07 1590.69 466.315 1590.18 466.315 1589.63C466.36 1578.85 466.715 1569.2 467.383 1560.14C467.516 1558.38 467.628 1556.56 467.739 1554.71C468.318 1545.5 468.896 1535.97 472.123 1528.03C472.434 1527.25 473.235 1526.78 473.814 1526.76C474.058 1526.76 474.481 1526.81 474.793 1527.43C484.362 1545.05 484.073 1572.56 483.005 1591.69C482.938 1592.74 483.739 1593.63 484.785 1593.7C492.618 1594.19 500.518 1594.39 508.328 1594.39C520.79 1594.39 533.006 1593.92 544.31 1593.47C544.822 1593.45 545.29 1593.23 545.624 1592.85C545.958 1592.47 546.136 1591.98 546.113 1591.49C544.956 1565.55 545.245 1539.22 545.69 1516.86Z" fill="#CC9999"/>
<path d="M725.094 1525.96V1525.27C725.094 1524.63 724.782 1524.05 724.248 1523.69C720.354 1521.11 716.838 1517.82 713.144 1514.34C709.005 1510.45 704.71 1506.42 699.726 1503.37C681.056 1491.98 660.161 1492.27 638.575 1493.63C619.572 1494.81 601.079 1496.43 583.744 1503.26C580.874 1504.42 577.981 1506.18 575.177 1507.87C572.552 1509.45 569.859 1511.1 567.188 1512.21C566.476 1512.5 566.031 1513.21 566.031 1513.99C566.588 1542.58 566.721 1566.55 565.631 1590.58C565.608 1591.12 565.809 1591.63 566.165 1592.01C566.521 1592.36 567.01 1592.56 567.522 1592.56H567.589L630.431 1590.58C630.965 1590.56 631.477 1590.27 631.833 1589.85C632.189 1589.43 632.322 1588.82 632.233 1588.29C632.167 1587.91 632.099 1587.56 632.077 1587.24C631.966 1583.84 631.633 1579.99 631.299 1575.92C629.964 1559.67 628.295 1539.45 637.73 1528.56C637.886 1528.56 638.174 1528.65 638.308 1528.76C648.388 1538.47 648.656 1559.23 648.856 1575.92C648.923 1580.08 648.967 1584.02 649.145 1587.51C649.123 1587.69 649.123 1587.87 649.123 1588.05C649.123 1588.56 649.324 1589.05 649.702 1589.4C650.08 1589.76 650.503 1589.89 651.081 1589.94L651.994 1589.92C657.446 1589.74 662.942 1589.56 668.416 1589.43C670.241 1589.36 672.133 1589.34 674.069 1589.29C689.935 1588.98 709.673 1588.6 719.219 1573.11C726.34 1561.57 725.806 1546.12 725.295 1532.48C725.228 1530.23 725.139 1528.03 725.094 1525.96Z" fill="#CC9999"/>
<path d="M566.611 1493.16C567.212 1493.49 567.946 1493.45 568.524 1493.09C594.182 1476.96 630.81 1475.16 659.894 1475.47C680.789 1475.62 698.369 1480.85 713.635 1491.42C716.194 1493.16 718.864 1495.03 721.512 1497.01C721.846 1497.25 722.246 1497.39 722.647 1497.39C722.936 1497.39 723.248 1497.32 723.515 1497.19C724.16 1496.85 724.56 1496.19 724.538 1495.47C724.16 1472.95 723.737 1450.46 723.337 1427.94L719.354 1210.86C719.332 1210.17 718.953 1209.55 718.352 1209.24C717.751 1208.9 717.017 1208.95 716.439 1209.3C703.755 1217.4 689.201 1224.95 673.179 1231.73C585.815 1268.81 493.466 1263.07 426.151 1216.36C413.957 1207.88 402.296 1197.6 391.459 1185.78C390.903 1185.18 390.035 1185 389.279 1185.34C388.522 1185.67 388.077 1186.45 388.166 1187.25C390.257 1207.17 390.391 1227.8 390.547 1247.78C390.614 1257.28 390.68 1267.09 390.97 1276.55L391.325 1287.86C392.483 1325.62 393.662 1364.65 395.175 1403.04C396.266 1431.16 397.556 1460.91 399.003 1491.51C399.025 1492.25 399.492 1492.91 400.182 1493.18C400.872 1493.45 401.651 1493.29 402.207 1492.78C418.496 1477.16 450.807 1469.68 467.341 1468.64C492.22 1467.03 522.083 1475.25 543.29 1489.53C543.868 1489.91 544.603 1489.95 545.226 1489.62C545.849 1489.31 546.227 1488.66 546.249 1487.97C546.405 1480.01 546.561 1472.06 546.628 1464.14C546.85 1440.84 547.117 1417.59 547.429 1394.33C547.473 1391.6 547.496 1388.84 547.518 1386.06C547.651 1369.08 547.807 1351.52 552.636 1335.23C553.148 1333.43 554.683 1332.78 555.929 1332.78H555.952C557.22 1332.78 558.755 1333.43 559.289 1335.23C564.252 1352.08 564.341 1370.28 564.408 1387.86C564.43 1391.31 564.43 1394.76 564.474 1398.18C564.697 1415.05 564.875 1431.94 565.053 1448.83L565.209 1464.12C565.298 1473.22 565.431 1482.32 565.631 1491.47C565.631 1492.2 566.01 1492.83 566.611 1493.16Z" fill="#D9A482"/>
<path d="M731.68 999.816C695.564 976.851 652.327 986.576 618.703 997.613C603.46 1002.62 586.17 1008.27 568.835 1008.9C554.393 1009.43 544.201 1005.33 531.339 1000.15L527.845 998.748C493.954 985.263 464.781 981.881 438.678 988.49C403.074 997.48 365.711 1026.01 362.485 1069.51C357.099 1141.43 421.766 1203.52 485.364 1225.39C508.262 1233.27 533.03 1237.12 558.398 1237.12C607.844 1237.12 659.581 1222.48 704.176 1194.55C741.182 1171.34 762.879 1141.81 768.642 1106.81C774.628 1070.25 768.063 1022.94 731.68 999.816ZM632.477 1094.28C633.456 1094.28 634.413 1094.35 635.348 1094.46C643.782 1095.5 654.107 1101.71 655.398 1115.8C655.687 1118.82 653.996 1119.89 652.549 1120.25C649.968 1120.89 646.408 1119.65 645.25 1116.8C645.161 1116.58 645.028 1116.4 644.872 1116.22C638.308 1109.19 633.078 1106.38 628.895 1107.7C625.09 1108.88 622.664 1113.15 621.507 1120.87C620.728 1128.37 622.708 1135.18 627.47 1141.21C632.789 1147.11 641.245 1149.31 647.387 1149.38C647.476 1149.38 647.587 1149.38 647.676 1149.38C666.012 1149.38 676.671 1133.24 678.807 1118.16C680.944 1103.31 675.559 1087.83 664.366 1076.77C650.814 1063.37 634.77 1061.68 617.769 1059.9L616.01 1059.7C615.165 1059.61 614.519 1058.88 614.386 1058.23C614.275 1057.72 614.475 1057.34 615.031 1057.05C629.518 1049.15 643.581 1051.73 652.794 1055.27C669.15 1061.52 683.436 1076.1 689.2 1092.37C694.852 1108.3 692.96 1127.12 684.259 1141.5C679.341 1149.62 670.107 1159.79 653.996 1162.11C639.843 1164.13 625.446 1158.54 616.433 1147.55C607.844 1137.09 605.507 1123.7 610.024 1110.81C614.341 1098.48 624.244 1094.28 632.477 1094.28ZM514.894 1061.92C487.701 1068.31 455.968 1086.89 455.968 1118.31C455.968 1129.39 461.154 1139.56 469.854 1145.46C477.932 1150.93 487.924 1151.96 497.27 1148.26C504.391 1145.44 510.666 1140.48 514.315 1134.8C518.321 1129.97 519.3 1124.57 517.275 1118.73C517.586 1113.62 516.318 1110.06 513.514 1108.14C509.598 1105.45 503.122 1106.34 493.754 1110.79C493.42 1110.95 493.131 1111.21 492.953 1111.52C490.861 1114.95 487.634 1114.82 485.52 1113.68C483.05 1112.35 481.181 1109.23 482.939 1105.56C487.723 1095.53 496.424 1090.61 506.838 1092.05C519.033 1093.74 529.002 1103.54 531.094 1115.86C532.918 1126.59 529.292 1137.74 520.88 1147.29C511.267 1158.21 497.314 1164.71 484.474 1164.11C471.857 1163.6 460.864 1157.43 453.498 1146.75C444.597 1133.84 442.194 1116.44 447.245 1101.36C452.475 1085.8 465.893 1070.78 481.47 1063.08C486.922 1060.39 494.355 1057.76 502.633 1057.76C506.505 1057.76 510.554 1058.34 514.671 1059.74C515.25 1059.94 515.539 1060.61 515.517 1061.12C515.517 1061.68 515.183 1061.86 514.894 1061.92Z" fill="#CC9999"/>
<path d="M787.289 796.247C767.284 791.351 752.396 781.538 745.365 768.586C745.031 767.986 744.43 767.608 743.763 767.608C743.251 767.652 742.449 767.919 742.093 768.498C722.021 800.096 676.181 819.19 632.966 813.916C601.59 810.111 579.292 797.003 566.675 775.018L565.651 773.06C565.34 772.481 564.761 772.103 564.116 772.058C563.493 771.991 562.825 772.303 562.447 772.837C549.785 790.417 528.846 801.81 505.057 804.08C479.266 806.55 453.319 798.049 435.651 781.36C432.802 778.689 430.087 775.708 427.306 772.214C426.994 771.814 426.527 771.546 426.016 771.502C425.504 771.435 424.991 771.613 424.613 771.925C402.605 790.306 367.157 791.507 343.48 786.968C342.79 786.834 342.055 787.101 341.633 787.679C341.187 788.258 341.121 789.015 341.433 789.66L346.128 799.318C349.933 806.928 353.872 814.783 357.544 822.972C366.645 838.171 373.744 853.17 378.617 867.545C388.698 897.275 390.389 931.21 392.013 964.033C392.369 971.109 392.703 978.119 393.148 985.017C393.192 985.685 393.571 986.263 394.172 986.575C394.75 986.887 395.462 986.864 396.041 986.508C420.474 971.687 451.072 964.3 482.293 965.724C503.967 966.748 521.925 973.802 540.929 981.256C544.089 982.502 547.293 983.749 550.564 984.995C557.618 987.687 564.583 988.778 571.482 988.778C585.723 988.778 599.654 984.149 613.25 979.632C615.587 978.853 617.901 978.074 620.215 977.34C649.5 967.905 673.933 964.989 697.121 968.105C710.072 969.841 722.289 973.646 733.393 979.387C733.993 979.699 734.75 979.654 735.306 979.276C735.885 978.898 736.196 978.23 736.152 977.54C735.707 972.044 736.085 966.191 736.441 960.539C736.686 956.712 736.909 953.084 736.887 949.768L736.842 944.918C736.664 928.206 736.486 912.406 741.826 896.674C752.374 865.564 768.507 831.851 788.513 799.14C788.824 798.628 788.891 797.983 788.646 797.427C788.357 796.826 787.89 796.403 787.289 796.247ZM665.633 911.094C659.914 920.418 651.169 926.959 641.645 929.051C625.779 932.589 607.887 922.309 602.635 906.665C597.495 891.289 605.083 872.329 619.548 864.407C625.2 861.314 631.208 859.779 637.127 859.779C644.048 859.779 650.857 861.893 656.821 866.076C669.037 874.732 677.005 892.513 665.633 911.094ZM535.544 914.12C519.433 927.85 497.714 929.741 480.223 918.926C463.267 908.401 454.366 886.705 459.105 867.345C463.778 847.963 481.625 832.742 501.541 831.184C507.883 830.672 514.292 831.562 520.523 833.809C533.451 838.416 544.133 848.296 549.117 860.268C557.017 879.206 551.677 900.345 535.544 914.12Z" fill="#D9A482"/>
<path d="M874.253 588.808C849.24 567.423 817.263 563.151 776.518 575.746C773.781 576.591 771.667 574.9 770.666 573.209C769.665 571.517 769.242 568.825 771.311 566.889C781.214 557.565 793.631 552.002 808.228 550.355C809.208 550.244 809.942 549.376 809.898 548.375C808.496 518.066 797.436 464.615 739.267 447.169C714.589 439.736 689.465 441.539 668.459 452.221C656.42 458.385 647.029 467.018 638.017 480.259C637.772 480.615 637.661 481.06 637.706 481.505C639.575 501.888 631.096 520.892 610.223 543.078C609.355 543.991 608.488 544.147 607.598 543.59C606.53 542.9 605.773 541.232 606.418 539.763L606.663 539.162C616.476 516.13 627.603 490.006 615.519 464.482C606.307 444.988 587.503 428.632 565.184 420.71C542.709 412.722 518.253 413.923 498.025 423.982C487.655 429.144 479.733 436.799 472.078 444.209C470.677 445.567 469.252 446.947 467.828 448.282C467.45 448.638 467.249 449.127 467.227 449.617C467.205 450.129 467.405 450.619 467.761 450.975C481.247 464.771 485.964 482.217 481.001 500.064C480.445 502.067 478.086 503.135 476.128 503.001C475.104 502.934 473.347 502.489 473.035 500.309C470.187 479.636 459.772 463.992 442.927 455.069C419.561 442.696 384.158 444.187 354.851 458.741C335.558 468.376 320.092 484.71 308.876 507.274C303.38 518.356 296.593 535.068 301.377 552.091C302.534 556.119 304.27 559.812 305.961 563.417C307.229 566.088 308.409 568.625 309.366 571.273C309.544 571.785 309.945 572.185 310.434 572.385C310.924 572.586 311.48 572.563 311.97 572.341C337.182 560.102 370.761 554.783 389.409 576.569C390.254 577.57 390.233 578.861 389.832 579.707C389.565 580.263 388.942 580.886 387.784 580.931C382.644 580.819 377.526 580.374 372.564 579.929C361.927 578.994 350.934 578.015 339.541 580.508C323.763 583.934 309.144 591.79 297.216 603.228C271.959 627.683 261.612 666.804 271.492 700.583C280.927 732.872 307.719 759.376 339.741 768.099C365.799 775.197 386.939 768.01 409.303 760.422C411.528 759.665 413.776 758.908 416.024 758.151C416.535 757.973 416.936 757.595 417.158 757.106C417.381 756.616 417.359 756.06 417.158 755.57C410.839 741.729 408.635 726.842 410.816 712.511C414.399 688.99 428.017 663.733 450.404 660.373C451.071 660.284 451.673 660.595 451.917 660.973C452.051 661.174 452.184 661.486 451.895 661.975C449.314 666.359 446.488 670.542 443.773 674.592C435.517 686.853 427.728 698.447 426.148 714.625C424.168 734.942 432.29 755.392 447.867 769.367C478.821 797.094 519.988 792.554 557.974 757.217C558.486 756.727 558.686 756.015 558.508 755.326C553.746 737.768 555.014 720.166 562.135 705.747C562.291 705.435 562.869 705.257 563.426 705.346C563.604 705.368 564.183 705.502 564.249 705.924C564.65 708.951 565.028 712 565.384 715.048C567.32 731.07 569.323 747.648 577.178 762.402C588.149 782.919 607.753 794.223 637.127 796.961C640.687 797.294 644.203 797.45 647.675 797.45C692.047 797.45 727.607 770.88 741.893 726.175C743.006 722.703 746.21 721.568 748.792 721.968C751.173 722.324 753.709 724.016 753.709 727.688C753.753 736.722 752.285 745.467 749.348 753.634C749.058 754.413 749.325 755.259 749.97 755.77C751.795 757.195 753.598 758.641 755.378 760.065C763.812 766.83 772.557 773.818 783.55 777.845C799.683 783.675 817.419 784.031 833.485 778.891C873.496 766.029 895.793 727.62 903.315 695.977C913.217 654.409 901.802 612.352 874.253 588.808Z" fill="#CF4848"/>
<path d="M289.206 587.072C291.542 585.025 294.302 582.91 297.395 580.774C297.907 580.418 298.218 579.84 298.218 579.194C298.218 578.571 297.907 577.97 297.373 577.637C279.326 565.553 280.549 530.283 288.316 510.5C301.066 477.833 322.919 453.778 351.536 440.938C361.527 436.443 372.187 433.038 383.224 430.835C383.936 430.68 384.515 430.145 384.693 429.433C384.871 428.721 384.603 427.965 384.047 427.498C375.88 420.955 366.2 413.166 356.52 405.155C347.619 398.324 338.295 390.602 328.014 381.523C327.458 381.034 326.68 380.922 326.034 381.189C321.05 383.259 315.687 384.171 310.012 385.15C306.674 385.729 303.203 386.307 299.82 387.153C286.936 390.424 274.608 394.942 263.192 400.594C240.383 411.809 220.623 426.963 204.489 445.633C187.043 465.727 173.915 490.406 166.482 516.976C164.791 523.051 163.968 529.905 163.1 537.181C162.499 542.233 161.854 547.44 160.919 552.38C160.808 552.914 160.941 553.471 161.297 553.916C184.885 583.668 210.476 609.881 237.558 637.63C241.697 641.881 245.857 646.153 250.041 650.425C250.397 650.804 250.887 651.004 251.398 651.004C251.576 651.004 251.755 650.982 251.933 650.937C252.6 650.737 253.112 650.203 253.268 649.513C258.475 624.879 271.248 602.716 289.206 587.072Z" fill="#AB6550"/>
<path d="M262.927 382.035C274.276 377.028 291.411 369.441 307.544 367.215C308.279 367.104 308.88 366.615 309.08 365.903C309.302 365.213 309.102 364.434 308.568 363.944L305.474 361.051C302.248 358.047 299.043 355.043 295.884 352.039C269.581 327.16 244.213 300.168 220.469 271.818C219.891 271.128 218.889 270.95 218.133 271.373C212.703 274.288 206.005 275.667 199.529 277.025C194.211 278.137 188.693 279.272 183.752 281.253C166.618 288.084 149.171 299.033 128.832 315.678C114.168 327.65 102.441 339.266 92.9833 351.171C88.911 356.267 85.5285 362.142 82.2351 367.794C78.3631 374.47 74.38 381.391 69.3064 386.909C68.8169 387.443 68.6834 388.2 68.9282 388.867C86.7304 435.153 109.628 479.458 136.954 520.559C138.401 522.762 139.892 524.92 141.36 527.079L142.674 528.971C143.03 529.483 143.608 529.794 144.232 529.794C144.343 529.794 144.476 529.794 144.587 529.772C145.322 529.616 145.922 529.059 146.078 528.325C148.036 519.491 150.64 511.213 153.155 503.58C161.722 477.567 175.052 454.023 192.765 433.573C211.435 411.877 235.712 394.074 262.927 382.035Z" fill="#AB6550"/>
<path d="M121.846 300.457C141.361 285.058 157.294 275.066 173.472 268.057L176.076 266.922C184.51 263.228 195.035 258.644 204.959 257.309C205.649 257.22 206.206 256.774 206.473 256.129C206.718 255.484 206.629 254.772 206.184 254.238L204.715 252.413C203.78 251.278 202.868 250.143 201.956 248.986C180.927 222.238 161.255 194.511 143.497 166.562C143.097 165.939 142.407 165.605 141.65 165.694C138.98 166.028 136.31 166.317 133.617 166.584C126.785 167.274 119.709 167.986 112.767 169.877C98.9699 173.593 85.7959 179.624 73.5791 187.769C60.8506 196.225 49.5459 206.95 39.9773 219.657C38.3751 221.771 36.862 224.063 35.3933 226.288C33.7911 228.691 32.1667 231.184 30.4087 233.431C30.0972 233.832 29.9637 234.321 30.0305 234.833C35.3711 277.247 45.0512 319.661 58.8257 360.895L60.2273 364.834C60.4721 365.568 61.1625 366.08 61.9414 366.103H62.0079C62.7645 366.103 63.4544 365.657 63.7437 364.967C71.9327 346.074 90.9364 324.957 121.846 300.457Z" fill="#AB6550"/>
<path d="M70.7296 171.457C90.134 159.641 111.919 152.097 130.456 150.74C131.123 150.695 131.702 150.295 131.991 149.717C132.303 149.138 132.258 148.426 131.925 147.869C129.722 144.242 127.541 140.615 125.427 136.987C111.341 112.866 98.9686 87.2752 86.9744 62.5078C83.3249 54.9864 79.6975 47.4649 76.0035 39.9658C72.8659 33.5792 65.4553 18.6255 53.7949 22.1414C45.0273 24.8117 38.0183 37.1398 32.9669 58.7918C30.341 69.9182 29.3841 81.4228 28.4495 92.5492C28.2047 95.4866 27.96 98.4238 27.693 101.361C25.0894 129.511 24.4436 158.284 25.801 186.923C26.0903 193.198 26.5352 199.318 26.9358 204.481C27.0025 205.259 27.5148 205.904 28.2492 206.149C28.4272 206.216 28.6275 206.238 28.8278 206.238C29.3841 206.238 29.9177 205.993 30.296 205.548C41.8452 191.551 58.7576 178.756 70.7296 171.457Z" fill="#AB6550"/>
<path d="M956.232 530.327C954.964 519.023 952.36 507.607 948.533 496.347C939.743 470.913 924.923 448.215 905.674 430.724C885.624 412.432 860.457 399.592 832.908 393.606C820.78 390.936 808.296 391.158 796.28 391.381C789.648 391.492 782.772 391.625 776.163 391.247C775.673 391.18 775.206 391.381 774.828 391.693C758.917 405.178 743.185 416.326 728.075 424.871C727.385 425.272 727.006 426.073 727.14 426.852C727.296 427.631 727.919 428.254 728.698 428.387C732.147 428.944 735.04 429.478 737.799 430.145C791.918 442.74 832.573 495.925 828.434 548.731C828.345 549.732 829.08 550.621 830.059 550.755C849.664 553.47 869.603 562.238 884.801 574.855C896.795 584.824 906.32 597.597 913.107 612.84C913.374 613.441 913.93 613.864 914.597 613.953C914.686 613.953 914.753 613.975 914.842 613.975C915.42 613.975 915.955 613.709 916.311 613.263C930.998 595.083 944.839 574.7 957.479 552.669C957.679 552.313 957.768 551.89 957.701 551.467C957.212 547.951 957.078 544.414 956.922 540.675C956.789 537.337 956.633 533.887 956.232 530.327Z" fill="#AB6550"/>
<path d="M1027.53 356.578C1025.24 348.812 1022.86 340.801 1018.81 333.813C1009.15 317.168 995.644 302.837 979.711 292.356C962.265 280.874 940.88 273.776 919.473 272.396C910.683 271.84 901.849 272.73 893.326 273.62C888.697 274.087 883.891 274.599 879.218 274.821C878.617 274.844 878.082 275.155 877.749 275.623C864.464 294.805 851.379 311.85 837.783 327.761C824.008 343.872 811.08 357.78 798.284 370.286C797.728 370.82 797.572 371.643 797.861 372.355C798.151 373.067 798.841 373.512 799.619 373.535C810.635 373.557 823.007 374.892 837.494 377.852C865.51 383.593 891.879 396.277 913.798 414.502C934.493 431.681 951.183 454.557 962.087 480.637C967.183 492.787 971.077 504.314 973.658 514.906C973.836 515.685 974.504 516.264 975.305 516.353C975.372 516.353 975.438 516.353 975.505 516.353C976.217 516.353 976.885 515.952 977.218 515.285C994.398 479.658 1010 439.181 1026.26 387.866C1028.13 382.102 1029.91 376.294 1031.69 370.486C1031.83 370.086 1031.8 369.663 1031.65 369.262C1030.09 365.19 1028.8 360.806 1027.53 356.578Z" fill="#AB6550"/>
<path d="M1063.87 202.033C1062.91 200.141 1061.85 198.005 1060.44 195.78C1052.81 183.296 1041.97 174.061 1027.33 167.541C1012.11 160.776 994.665 157.616 976.885 158.395C971.299 158.64 965.803 159.485 960.462 160.286C955.856 160.976 951.093 161.711 946.42 162.022C945.775 162.067 945.174 162.445 944.863 163.024C925.147 200.208 907.924 229.871 890.655 256.374C890.233 257.02 890.254 257.887 890.7 258.51C891.145 259.133 891.946 259.445 892.702 259.245C923.255 251.456 963.889 262.471 988.212 277.403C1006.81 288.818 1022.7 305.197 1034.16 324.824C1035.7 327.449 1037.35 330.386 1039.01 333.502C1039.35 334.125 1039.99 334.504 1040.68 334.504C1040.75 334.504 1040.82 334.504 1040.88 334.504C1041.66 334.415 1042.29 333.858 1042.51 333.124C1054.95 287.906 1063.18 247.429 1067.63 209.377C1067.7 208.887 1067.54 208.397 1067.25 207.997C1066.01 206.328 1065.03 204.347 1063.87 202.033Z" fill="#AB6550"/>
<path d="M1071.5 130.089C1071.26 105.21 1070.75 53.4503 1049.85 33.8902C1043.8 28.238 1036.43 25.5903 1028.02 26.0798C1010.75 27.0367 999.782 52.1596 991.771 70.5181C989.924 74.7684 988.322 78.4404 986.853 81.3111L980.088 94.6628C973.568 107.525 967.048 120.409 960.461 133.226L955.81 142.239C955.454 142.907 955.543 143.73 956.033 144.308C956.523 144.887 957.301 145.132 958.036 144.931C981.824 138.011 1013.09 143.93 1033.49 152.831C1042.15 156.614 1056.99 166.405 1067.45 177.087C1067.81 177.465 1068.32 177.665 1068.81 177.665C1069.03 177.665 1069.25 177.621 1069.48 177.554C1070.19 177.287 1070.66 176.642 1070.7 175.885C1071.52 162.111 1071.84 148.581 1071.61 135.697C1071.55 134.028 1071.52 132.158 1071.5 130.089Z" fill="#AB6550"/>
<path opacity="0.1" d="M1073.13 31.4204C1066.92 21.6514 1057.33 13.7959 1046.65 9.41211C1031.18 141.638 1017.83 278.07 931.044 384.995C907.456 414.057 880.04 438.09 850.222 460.476C818.667 484.175 785.488 512.481 748.927 528.013C722.58 539.206 683.771 537.938 663.632 560.68C644.651 582.132 668.661 627.305 671.888 651.849C675.404 678.619 667.882 705.857 645.318 722.48C625.179 737.322 583.878 735.587 573.308 760.866C564.007 783.074 577.559 817.343 584.591 838.639C592.669 863.051 601.236 887.017 620.618 904.708C638.509 921.063 660.228 932.925 670.553 956.001C683.994 986.086 676.673 1019.58 666.659 1049.42C659.916 1069.49 651.905 1089.29 648.056 1110.21C643.961 1132.44 645.296 1156.08 646.743 1178.53C649.591 1223.26 656.912 1267.58 660.74 1312.22C669.352 1412.65 663.9 1511.36 650.548 1609.45C652.617 1609.41 654.664 1609.34 656.734 1609.3C684.617 1608.5 720.044 1610.88 736.333 1583.04C752.199 1556.02 744.922 1516.1 744.432 1486.55C742.763 1389.46 741.094 1292.4 739.425 1195.31C739.425 1195.13 739.381 1194.99 739.381 1194.86C750.485 1185.49 760.521 1174.9 768.777 1162.77C792.609 1127.84 796.659 1081.33 785.666 1041.14C779.725 1019.35 767.442 1001.49 751.086 988.512C754.913 979.277 752.488 967.305 752.532 957.113C752.532 937.063 750.908 917.481 758.028 898.388C770.69 864.341 789.36 832.787 806.851 801.032C815.418 801.522 823.63 800.987 830.751 799.474C877.415 789.594 911.373 745.712 922.009 701.051C926.861 680.734 927.417 658.926 923.233 638.231C977.93 574.788 1012.18 498.15 1038.55 419.286C1067.08 333.947 1090.75 244.846 1092.33 154.344C1092.98 116.27 1094.49 64.9998 1073.13 31.4204Z" fill="#592639"/>
<path opacity="0.15" d="M499.072 403.487C482.472 409.962 463.624 421.979 455.056 438.602C452.364 436.977 449.56 435.464 446.6 434.128C434.517 428.721 421.344 426.407 407.992 426.362C375.748 394.875 339.208 368.016 306.742 336.617C273.251 304.239 241.964 269.481 213.369 232.675C184.663 195.779 158.694 156.614 135.752 115.892C123.624 94.3288 113.944 71.542 102.373 49.712C93.5159 33.0002 80.4761 -2.60406 56.7546 0.244292C48.8771 1.20116 41.489 5.1395 35.8146 10.5469C21.3725 24.2546 15.2087 45.0166 11.7595 63.9982C9.33392 77.4167 8.19875 91.0131 7.01936 104.565C2.43529 156.28 4.81614 208.33 12.9384 259.578C25.1107 336.394 53.2387 411.587 91.0906 480.348C130.189 551.445 178.187 623.077 245.346 670.586C246.437 671.388 247.572 671.877 248.685 672.099C248.507 681.49 249.329 690.925 251.377 700.138C258.987 734.007 283.154 763.336 313.996 778.891C328.082 810.823 350.179 839.04 360.749 872.353C373.322 911.94 371.809 958.225 375.37 999.371V999.594C369.228 1005.31 363.664 1011.63 358.858 1018.75C326.814 1066.04 341.723 1122.27 373.3 1166.33C367.469 1203.5 371.319 1243.26 372.276 1280.42C373.367 1322.61 374.813 1364.78 376.482 1406.91C378.195 1450.39 380.154 1493.85 382.357 1537.29C383.069 1550.99 381.912 1567.28 390.234 1579.08C398.713 1591.05 413.956 1597.19 427.352 1601.95C434.651 1604.56 442.083 1606.54 449.605 1608.1C446.979 1531.21 445.421 1454.31 448.603 1377.42C450.583 1329.82 461.065 1279.69 448.96 1232.87C443.419 1211.42 437.7 1188.48 429.666 1167.96C422.456 1149.6 411.819 1132.44 410.907 1112.19C410.128 1094.61 416.782 1077.28 431.268 1066.86C436.876 1062.84 443.374 1060.46 449.204 1056.89C460.13 1050.2 464.536 1039.78 468.831 1027.99C484.363 985.307 475.751 941.558 457.504 901.258C440.058 862.694 415.936 827.624 395.597 790.618C377.951 758.485 359.859 723.615 364.866 685.763C373.3 622.098 439.257 590.677 495.29 574.9C474.35 517.243 476.597 456.359 504.391 401.573C502.589 402.174 500.808 402.797 499.072 403.487Z" fill="#FFFCFC"/>
<path opacity="0.3" d="M554.525 1325.91C507.594 1317.47 514.181 1408.09 513.958 1433.63C513.735 1460.2 514.937 1486.66 517.43 1513.08C517.407 1520.71 517.318 1528.32 516.962 1535.93C516.25 1550.99 518.008 1571.36 502.832 1579.72C491.193 1586.13 476.173 1585.15 463.311 1587.09C454.61 1588.38 456.702 1600.31 463.311 1602.73C482.381 1609.72 502.72 1609.39 518.431 1600.89C521.056 1603.2 524.75 1604.31 528.6 1603.38C572.082 1592.85 552.611 1515.95 550.208 1485.93C548.005 1458.58 547.204 1431.16 547.626 1403.75C547.827 1390.53 547.404 1376.91 549.54 1363.83C551.076 1354.41 555.682 1348.03 560.288 1339.97C563.07 1335.03 560.733 1327.02 554.525 1325.91Z" fill="#592642"/>
<path opacity="0.3" d="M770.022 1051.04C769.933 1037.07 767.486 1022.98 762.123 1009.01C757.072 995.855 736.71 996.901 736.51 1012.48C735.776 1073.12 707.225 1130.51 658.38 1166.53C609.625 1202.49 550.9 1218.54 490.728 1220.65C480.381 1221.01 477.911 1236.03 488.258 1238.94C511.001 1245.35 534.432 1247.49 557.642 1245.98C552.079 1249.6 551.945 1258.24 559.667 1261.13C579.65 1268.63 601.769 1268.87 622.776 1266.83C633.502 1265.78 646.498 1262.33 657.068 1266C667.326 1269.56 673.579 1280.29 678.341 1289.44C684.505 1301.25 688.021 1313.51 690.135 1325.97C691.136 1352.3 691.404 1378.65 691.982 1404.99C692.672 1436.75 692.917 1468.46 691.982 1500.21C691.292 1523.71 694.83 1552.33 678.519 1569.35C661.919 1581.15 637.73 1582.82 618.815 1586.04C608.357 1587.82 612.317 1601.95 621.107 1603.02C634.481 1604.62 648.545 1605.09 662.052 1603.18C662.742 1604.2 663.543 1605.16 664.478 1605.98C679.81 1603.22 695.165 1600.48 710.519 1597.79C725.606 1582.5 731.303 1555.67 732.549 1533.17C735.219 1484.64 735.976 1435.19 732.438 1386.7C732.26 1384.37 732.059 1382.03 731.881 1379.69C733.506 1360.87 732.727 1341.51 729.344 1322.86C733.127 1299.67 730.658 1272.59 724.338 1248.78C725.851 1239.95 724.605 1229.89 724.76 1221.65C724.916 1213.64 716.483 1206.9 708.672 1209.39C697.768 1212.86 689.623 1218.52 682.77 1227.64C682.614 1227.84 682.525 1228.04 682.414 1228.24C669.107 1222.17 654.13 1222.3 641.135 1234.03C641.023 1234.14 640.934 1234.25 640.845 1234.36C631.277 1235.69 621.863 1238.12 612.317 1239.59C603.616 1240.95 594.871 1241.59 586.126 1242.22C606.799 1238.17 626.937 1231.16 645.941 1221.79C680.811 1230.55 723.714 1190.37 744.409 1166.4C758.095 1150.56 768.376 1133.67 775.141 1113.75C782.284 1092.74 782.262 1076.08 773.694 1055.98C772.76 1053.82 771.491 1052.22 770.022 1051.04Z" fill="#592642"/>
<path opacity="0.3" d="M896.129 696.2C871.807 736.322 789.449 784.588 761.455 721.879C758.006 714.158 746.033 717.674 745.166 725.218C744.075 726.62 743.386 728.445 743.386 730.781C743.408 741.262 746.412 753.923 751.886 765.517C745.388 760.199 733.283 760.8 729.455 769.3C724.226 780.872 715.97 789.773 708.494 799.853C707.848 800.721 707.425 801.589 707.091 802.435C702.73 801.879 698.235 801.79 693.718 802.146C680.121 803.236 667.081 808.554 653.462 809.111C638.998 809.711 624.667 805.216 612.027 798.518C603.349 793.912 595.316 804.615 601.725 811.87C614.52 826.401 631.121 834.59 650.547 835.458C669.151 836.281 711.497 817.789 716.304 845.205C719.887 865.655 710.741 891.023 709.361 911.695C707.826 934.46 704.577 963.122 715.147 983.928C720.754 994.988 737.466 991.605 740.671 980.59C744.498 967.461 741.962 954.265 741.873 940.691C741.784 926.204 742.496 911.674 744.076 897.254C744.988 888.864 746.59 880.097 747.747 871.285C748.125 871.129 748.504 870.951 748.86 870.729C759.764 864.053 767.263 853.06 773.071 841.822C779.146 830.095 785.822 815.831 785.51 802.457C785.466 800.877 785.176 799.409 784.731 798.007C787.869 798.941 791.14 799.497 794.567 799.52C802.466 799.609 808.653 790.062 803.98 783.119C803.646 782.608 803.268 782.163 802.912 781.695C808.875 782.407 814.884 782.429 820.737 781.673C859.746 776.577 903.25 742.486 912.885 703.276C915.377 693.218 901.603 687.188 896.129 696.2Z" fill="#592642"/>
<path opacity="0.3" d="M1051.43 39.854C1048.65 90.8351 1048.07 140.993 1038.72 191.462C1029.76 239.928 1014.69 287.393 996.177 333.034C987.498 354.463 977.707 375.826 966.848 396.632C956.767 412.654 945.73 428.12 933.647 442.673C917.513 462.078 899.778 479.991 880.707 496.503C861.993 512.681 835.823 525.654 821.048 545.348C816.197 551.823 822.784 558.187 829.081 558.833C829.704 561.392 830.995 563.729 833.131 565.487C846.505 576.457 862.349 574.499 877.125 568.223C878.193 573.252 878.705 578.349 880.085 583.445C882.199 591.189 885.893 598.242 888.741 605.719C895.595 623.699 918.582 628.017 929.597 611.06C947.177 584.023 960.395 554.004 974.859 525.232C1033.45 451.642 1055.3 344.227 1065.12 255.327C1069.19 237.592 1072.59 219.678 1075.11 201.52C1082.54 147.913 1084.5 89.7667 1068.9 37.5172C1065.98 27.6593 1051.96 29.8625 1051.43 39.854Z" fill="#592642"/>
<path opacity="0.3" d="M297.776 569.381C285.804 561.325 270.627 558.7 257.698 551.823C243.902 544.48 230.706 535.913 217.599 527.457C207.518 520.959 197.549 514.283 187.624 507.541C144.454 474.228 105.89 435.308 72.9778 391.203C65.7901 381.568 50.2804 389.823 56.4444 400.861C68.8169 423.047 83.214 443.853 98.6797 463.858C95.1415 466.907 93.2725 472.159 95.8315 477.077C112.877 509.766 135.353 538.139 158.985 566.288C170.735 580.285 182.417 594.349 195.012 607.589C204.67 617.759 211.501 627.194 223.607 628.974C223.74 630.955 223.963 632.913 224.275 634.915C227.768 657.213 260.502 653.83 266.11 634.915C270.049 621.631 271.295 611.639 280.819 600.824C281.798 599.711 282.643 598.488 283.422 597.242C284.468 597.13 285.514 597.064 286.56 596.886C288.875 596.463 290.721 595.083 291.967 593.214C292.88 593.147 293.792 593.125 294.705 592.991C306.677 591.3 305.898 574.855 297.776 569.381Z" fill="#592642"/>
<path opacity="0.3" d="M518.656 817.365C538.617 812.002 572.041 798.384 569.393 772.86C568.347 762.824 557.733 757.995 549.855 764.782C536.303 776.465 526.289 786.879 508.22 792.131C503.169 793.599 498.317 794.356 493.577 794.556C519.791 787.636 542.4 773.038 559.735 750.629C569.771 737.656 551.88 723.57 541.777 736.766C524.086 759.886 497.316 775.552 468.966 781.294C464.983 782.095 463.024 785.411 462.802 788.904C457.572 786.924 452.366 784.587 447.047 782.028C445.89 781.471 444.755 781.16 443.687 781.048C443.776 780.626 443.887 780.225 443.954 779.802C445.089 771.836 439.637 765.672 431.359 767.208C423.014 768.765 415.96 773.705 407.971 776.175C407.726 774.328 407.104 772.504 406.169 770.924C411.154 769.255 415.96 766.807 419.676 763.269C427.42 755.948 420.789 741.06 410.664 742.04C421.39 728.732 428.177 712.31 425.595 695.376C424.282 686.764 412.577 687.253 408.594 693.15C398.246 708.438 393.195 725.017 378.82 737.678C362.019 752.454 340.189 758.061 318.248 756.303C308.546 755.524 306.476 771.168 315.956 773.282C327.505 775.841 339.077 776.509 350.337 775.218C350.381 775.263 350.404 775.308 350.448 775.352C352.228 777.511 354.587 779.736 357.324 781.916C356.078 785.499 356.923 789.616 361.352 791.864C376.973 799.852 391.526 806.439 409.662 804.437C418.652 803.435 428.733 800.542 435.698 794.578C436.321 795.513 437.144 796.403 438.235 797.182C462.69 814.962 488.17 825.577 518.656 817.365Z" fill="#592642"/>
<path opacity="0.3" d="M784.218 574.454C795.144 567.711 805.825 560.212 810.699 547.862C816.106 534.154 811.122 521.626 810.632 507.651C810.365 500.018 803.778 495.412 797.392 495.256C794.744 483.195 790.182 471.268 783.618 459.496C778.9 451.018 764.124 456.736 767.573 466.261C777.876 494.677 776.741 527.211 764.658 554.961C759.428 566.977 770.866 582.709 784.218 574.454Z" fill="#592642"/>
<path opacity="0.5" d="M306.227 423.158C319.646 433.573 338.16 448.905 356.051 447.125C361.369 446.59 365.219 443.653 366.999 439.803C370.493 440.871 374.054 441.495 377.681 441.472C385.714 441.406 391.744 433.617 389.608 425.806C384.045 405.467 359.522 392.962 344.168 379.921C325.053 363.699 306.783 346.542 288.714 329.184C253.466 295.36 224.025 255.773 188.755 222.194C185.773 219.367 182.391 219.056 179.609 220.257C143.938 164.136 114.987 104.076 96.7615 39.7878C93.4681 28.2164 77.135 33.2231 79.071 44.6611C93.6688 131.158 135.148 210.266 185.016 281.541C208.893 315.655 234.729 348.879 262.055 380.3C275.585 395.81 289.938 410.519 306.227 423.158Z" fill="#FFF7F7"/>
<path opacity="0.5" d="M978.219 67.1137C969.452 82.8686 964.044 100.137 957.902 117.049C952.072 133.115 945.196 148.692 938.364 164.313C935.56 164.447 932.89 165.493 930.999 167.785C913.82 188.569 902.738 214.983 888.986 238.104C875.256 261.158 860.079 283.544 843.345 304.55C826.945 325.156 809.143 344.761 790.517 363.342C770.601 383.214 747.013 400.037 729.255 421.867C725.272 426.762 726.207 434.952 730.479 438.868C695.209 436.643 654.197 455.714 633.591 483.685C628.094 461.878 610.537 441.716 589.975 432.637C585.213 430.546 580.295 428.899 575.288 427.608C574.91 424.381 573.286 421.333 570.104 419.664C535.389 401.372 484.631 415.948 463.023 448.192C438.701 431.28 396.554 438.089 372.032 450.328C370.764 450.951 369.562 451.686 368.338 452.375C363.865 448.926 357.501 447.502 351.359 450.195C322.208 462.99 303.315 490.628 296.64 521.337C292.679 539.473 292.968 572.985 310.814 582.354C295.059 593.614 281.73 608.546 273.341 623.255C254.137 656.968 243.901 719.92 279.661 746.557C286.337 751.542 294.703 744.665 295.059 737.722C295.905 721.878 289.786 706.725 289.051 690.97C288.228 673.056 292.189 655.053 300.978 639.41C319.003 607.388 347.621 594.771 380.755 583.199C388.855 580.373 389.3 568.936 380.755 566.288C370.096 562.972 359.147 562.883 348.377 565.108C349.69 560.546 350.38 555.584 351.069 550.688C353.206 535.445 358.035 520.491 366.558 507.585C375.904 493.432 389.099 484.442 405.166 479.412C420.253 474.695 450.25 464.993 460.62 481.638C466.984 491.874 482.939 485.287 480.069 473.471C480.892 473.916 481.738 474.272 482.65 474.473C496.491 477.588 504.391 469.688 516.808 465.171C531.05 459.986 547.116 459.118 562.004 461.499C593.469 466.55 615.722 489.315 604.506 522.093C601.213 531.751 614.631 539.028 621.396 531.929C626.537 526.544 630.119 520.691 632.366 514.616C634.525 514.55 636.684 513.882 638.442 512.502C655.354 499.395 670.976 484.887 691.337 477.209C711.943 469.465 731.014 472.359 752.154 470.267C763.08 469.177 770.178 454.601 760.72 447.502C790.495 441.961 818.6 417.461 839.785 398.301C868.179 372.644 891.678 341.757 911.439 309.09C932.779 273.797 950.403 235.478 964.244 196.602C971.521 176.152 975.349 154.901 981.09 134.027C986.72 113.488 993.062 92.838 994.82 71.5421C995.577 62.641 982.336 59.7258 978.219 67.1137Z" fill="#FFF7F7"/>
<path opacity="0.5" d="M713.59 747.113C688.867 762.312 665.034 775.909 634.904 768.855C608.2 762.602 585.169 741.039 576.178 715.203C572.485 704.589 556.752 708.772 559.267 719.876C566.966 753.967 588.351 780.848 622.153 792.175C660.116 804.881 695.587 791.752 726.741 769.655C740.204 760.087 728.143 738.168 713.59 747.113Z" fill="#FFF7F7"/>
<path opacity="0.5" d="M440.056 662.999C423.344 696.2 402.271 746.335 435.36 776.955C443.26 784.254 454.721 775.131 449.981 765.673C433.158 732.116 442.593 702.765 455.856 669.652C459.483 660.596 444.439 654.298 440.056 662.999Z" fill="#FFF7F7"/>
<path opacity="0.5" d="M879.48 577.704C850.595 558.655 814.034 553.782 781.278 564.129C771.687 567.155 772.844 583.044 783.748 582.421C811.453 580.841 838.846 585.959 861.856 602.159C883.953 617.736 892.72 639.967 907.674 661.196C913.905 670.03 927.345 666.87 927.99 655.699C929.837 624.167 904.447 594.148 879.48 577.704Z" fill="#FFF7F7"/>
<path opacity="0.5" d="M725.83 975.672C680.056 955.889 632.012 987.844 587.907 997.257C536.548 1008.21 490.084 972.779 438.613 979.944C430.647 981.057 422.814 983.193 415.27 986.175C422.08 974.114 422.035 958.938 422.169 944.83C422.347 925.737 419.165 906.955 412.4 889.086C400.139 856.664 375.727 827.09 351.961 802.301C345.152 795.202 334.048 804.237 338.61 812.604C353.497 840.019 369.185 864.942 378.42 895.05C383.026 910.093 385.273 925.559 385.407 941.269C385.518 956.557 379.488 972.913 385.095 987.332C386.875 991.894 390.437 995.388 394.576 997.035C373.435 1011.17 356.968 1032.46 350.848 1057.1C339.121 1104.2 361.508 1150.76 396.979 1181.02C404.144 1187.14 417.118 1179.11 410.976 1170.23C387.588 1136.36 365.313 1096.01 388.033 1056.2C409.752 1018.11 447.826 1010.74 487.681 1021.27C528.648 1032.1 564.386 1042.59 606.688 1031.48C626.182 1026.36 645.03 1018.95 663.967 1012.14C683.639 1005.09 702.82 1001.89 723.026 997.502C732.394 995.521 735.354 979.788 725.83 975.672Z" fill="#FFF7F7"/>
<path opacity="0.5" d="M419.873 1499.1C418.204 1467.84 416.535 1436.57 414.888 1405.31C413.219 1374.04 411.817 1342.75 409.881 1311.51C408.034 1281.71 409.503 1247.62 400.58 1218.98C398.021 1210.73 384.58 1209.53 382.622 1218.98C375.657 1252.83 381.353 1292.08 382.911 1326.51C384.558 1362.78 386.226 1399.05 387.873 1435.3C389.409 1468.93 389.164 1503.22 392.991 1536.67C395.64 1559.67 403.317 1579.21 425.859 1588.56C436.073 1592.79 441.525 1578.41 435.695 1571.67C419.228 1552.64 421.119 1522.58 419.873 1499.1Z" fill="#FFF7F7"/>
<path opacity="0.5" d="M580.294 1379.38C579.671 1367.48 562.937 1367.68 561.958 1379.38C558.62 1418.9 558.798 1458.62 559.644 1498.26C560.067 1518.04 560.823 1537.82 561.869 1557.6C562.714 1573.34 562.136 1586.49 572.038 1599.15C578.959 1608.01 596.672 1600.88 595.204 1589.56C586.125 1519.64 583.988 1449.72 580.294 1379.38Z" fill="#FFF7F7"/>
<path d="M1001.03 16.1773C987.586 28.6834 980.532 48.3104 972.343 64.3324C961.328 85.9175 950.446 107.636 939.32 129.177C918.781 169.032 897.418 208.463 872.985 246.07C847.372 285.591 818.399 322.931 784.263 355.51C753.243 385.172 717.816 405.467 682.812 428.81C674.022 431.169 665.5 434.596 657.556 439.313C648.966 444.342 640.51 451.174 633.767 459.207C623.798 436.109 603.793 417.662 581.184 407.159C555.349 395.187 525.752 393.072 499.049 403.487C482.448 409.962 463.6 421.979 455.033 438.602C452.34 436.977 449.536 435.463 446.577 434.128C434.494 428.721 421.32 426.407 407.969 426.362C375.724 394.874 339.186 368.016 306.719 336.617C273.228 304.239 241.941 269.481 213.346 232.675C184.64 195.779 158.671 156.614 135.728 115.892C123.6 94.3288 113.92 71.542 102.349 49.712C93.4923 33.0002 80.4525 -2.60406 56.731 0.244292C48.8535 1.20116 41.4654 5.1395 35.791 10.5469C21.3489 24.2546 15.185 45.0166 11.7359 63.9982C9.31031 77.4166 8.17513 91.013 6.99574 104.565C2.41167 156.28 4.7932 208.33 12.9155 259.578C25.0877 336.394 53.2151 411.587 91.067 480.348C130.165 551.445 178.164 623.077 245.323 670.586C246.414 671.387 247.548 671.877 248.661 672.099C248.483 681.49 249.306 690.925 251.354 700.138C258.964 734.007 283.131 763.336 313.973 778.891C328.059 810.823 350.156 839.04 360.726 872.352C373.298 911.94 371.785 958.225 375.346 999.371V999.593C369.204 1005.31 363.641 1011.63 358.834 1018.75C326.79 1066.04 341.7 1122.27 373.277 1166.33C367.446 1203.5 371.296 1243.26 372.253 1280.42C373.343 1322.61 374.789 1364.78 376.458 1406.91C378.172 1450.39 380.13 1493.85 382.333 1537.29C383.045 1550.99 381.888 1567.28 390.211 1579.08C398.689 1591.05 413.932 1597.19 427.328 1601.95C461.086 1613.99 497.87 1613.5 533.163 1612.59C574.33 1611.52 615.52 1610.39 656.732 1609.3C684.615 1608.5 720.042 1610.88 736.331 1583.04C752.197 1556.02 744.92 1516.1 744.43 1486.55C742.761 1389.46 741.092 1292.4 739.423 1195.31C739.423 1195.13 739.379 1194.99 739.379 1194.86C750.483 1185.49 760.519 1174.9 768.775 1162.77C792.607 1127.84 796.657 1081.33 785.665 1041.14C779.723 1019.35 767.44 1001.49 751.084 988.512C754.912 979.277 752.486 967.305 752.531 957.113C752.531 937.063 750.906 917.481 758.027 898.388C770.688 864.341 789.358 832.787 806.849 801.032C815.416 801.521 823.628 800.987 830.749 799.474C877.413 789.594 911.371 745.712 922.008 701.051C926.859 680.734 927.415 658.926 923.231 638.231C977.929 574.788 1012.18 498.15 1038.55 419.286C1067.07 333.947 1090.75 244.846 1092.33 154.344C1092.98 116.203 1094.49 64.9333 1073.13 31.3539C1058.15 7.85496 1023.66 -4.80701 1001.03 16.1773ZM27.7131 186.834C26.3779 158.395 27.0015 129.867 29.605 101.516C30.9402 87.386 31.5852 73.055 34.8341 59.1916C37.1484 49.3113 43.0452 27.3703 54.3718 23.9211C64.2966 20.9393 70.8612 33.69 74.3326 40.7886C90.3546 73.3222 105.465 106.524 123.801 137.922C125.915 141.55 128.118 145.199 130.321 148.826C109.114 150.384 87.0613 159.285 69.7487 169.81C58.8893 176.442 41.1091 189.437 28.8478 204.324C28.3805 198.494 27.9578 192.664 27.7131 186.834ZM60.5808 360.294C46.9399 319.46 37.2375 277.335 31.8746 234.61C35.2793 230.226 38.1721 225.175 41.4655 220.813C50.7449 208.508 61.7821 197.893 74.6219 189.37C86.4826 181.448 99.501 175.44 113.253 171.724C122.733 169.143 132.39 168.809 141.892 167.585C160.006 196.068 179.588 223.617 200.461 250.165C201.863 251.945 203.31 253.681 204.712 255.439C193.452 256.952 181.591 262.493 172.734 266.321C153.864 274.51 136.774 286.282 120.685 298.966C102.928 313.052 73.2871 338.219 62.0049 364.233C61.5376 362.92 61.0259 361.629 60.5808 360.294ZM144.184 527.857C142.293 525.098 140.357 522.316 138.51 519.49C111.161 478.344 88.3969 434.218 70.6614 388.155C80.1633 377.785 85.615 363.342 94.4048 352.327C104.775 339.287 117.103 327.671 129.987 317.146C146.432 303.705 164.613 290.932 184.418 283.01C195.255 278.649 208.851 278.515 218.998 273.041C242.63 301.257 267.82 328.117 294.568 353.418C298.73 357.401 303.025 361.384 307.253 365.345C291.342 367.548 274.563 374.825 262.146 380.321C235.22 392.249 210.586 409.984 191.271 432.304C173.358 452.976 159.873 476.965 151.305 502.956C149.102 509.588 146.276 518.444 144.184 527.857ZM162.743 552.736C165.013 540.831 165.436 527.724 168.284 517.51C175.516 491.63 188.289 467.196 205.891 446.901C222.025 428.231 241.874 413.189 264.016 402.307C275.609 396.588 287.759 392.205 300.265 389.022C309.166 386.797 318.49 386.397 326.746 382.97C336.026 391.159 345.528 399.147 355.341 406.691C364.465 414.234 373.677 421.645 382.845 429.011C371.63 431.236 360.748 434.729 350.756 439.247C320.159 452.999 298.641 478.901 286.558 509.855C279.125 528.792 276.522 565.998 296.326 579.261C293.3 581.353 290.452 583.511 287.959 585.692C269.089 602.137 256.561 624.857 251.354 649.135C220.511 617.358 189.936 587.05 162.743 552.736ZM484.941 1591.76C486.075 1571.11 486.031 1544.07 476.485 1526.49C475.016 1523.69 471.411 1524.78 470.387 1527.3C466.382 1537.18 466.293 1549.37 465.492 1559.98C464.78 1569.75 464.468 1579.72 464.424 1589.6C462.443 1589.29 460.44 1589.02 458.482 1588.65C443.907 1586 418.939 1581.21 408.792 1569.24C398.911 1557.58 402.427 1530.72 402.005 1515.15C411.284 1511.7 418.672 1504.51 427.796 1499.66C444.663 1490.76 463.867 1486.6 482.871 1488.6C503.411 1490.71 520.345 1499.66 536.478 1511.94C538.97 1513.83 541.374 1515.55 543.799 1516.84C543.31 1541.8 543.109 1566.77 544.244 1591.54C524.551 1592.27 504.634 1593.01 484.941 1591.76ZM566.386 1398.21C566.074 1377.11 567.142 1355.17 561.112 1334.76C559.599 1329.69 552.278 1329.69 550.809 1334.76C545.135 1353.92 545.847 1374.51 545.535 1394.36C545.224 1417.61 544.956 1440.87 544.734 1464.16C544.667 1472.09 544.511 1480.03 544.356 1488C521.969 1472.91 491.55 1465.23 467.228 1466.79C449.804 1467.88 417.493 1475.54 400.892 1491.45C399.49 1461.98 398.2 1432.45 397.065 1402.99C395.396 1360.82 394.149 1318.68 392.859 1276.51C391.991 1247.33 393.171 1216.65 390.055 1187.07C400.959 1198.98 412.909 1209.46 425.059 1217.92C498.159 1268.65 594.202 1267.32 673.911 1233.49C688.843 1227.17 703.618 1219.74 717.437 1210.91C718.684 1279.2 719.93 1347.47 721.198 1415.76C721.688 1442.36 722.177 1468.9 722.645 1495.5C719.952 1493.49 717.259 1491.6 714.678 1489.84C698.233 1478.45 679.763 1473.71 659.892 1473.56C630.607 1473.29 593.668 1475.02 567.499 1491.47C567.298 1482.34 567.165 1473.24 567.076 1464.16C566.875 1442.2 566.675 1420.19 566.386 1398.21ZM717.594 1572.13C707.491 1588.54 685.082 1586.98 668.348 1587.56C662.562 1587.71 656.754 1587.89 650.991 1588.09C650.991 1587.82 651.036 1587.6 651.036 1587.33C650.012 1570.51 652.882 1540.25 639.597 1527.45C638.685 1526.54 636.949 1526.38 636.037 1527.45C623.954 1541.65 629.561 1570.29 630.162 1587.33C630.207 1587.82 630.273 1588.29 630.362 1588.74C609.423 1589.38 588.46 1590.07 567.521 1590.72C568.7 1565.3 568.433 1539.62 567.944 1514.01C573.596 1511.63 579.092 1507.22 584.455 1505.06C601.657 1498.28 620.415 1496.7 638.707 1495.56C659.625 1494.23 680.253 1493.74 698.745 1505.04C707.846 1510.61 714.656 1519.62 723.223 1525.31V1526C723.468 1540.42 725.605 1559.18 717.594 1572.13ZM766.772 1106.5C760.474 1144.68 735.062 1172.94 703.174 1192.95C640.065 1232.49 557.396 1248.18 485.987 1223.59C423.59 1202.12 359.057 1140.9 364.397 1069.65C367.424 1028.99 401.493 999.838 439.167 990.314C469.053 982.771 499.093 989.335 527.154 1000.51C541.819 1006.34 552.723 1011.34 568.9 1010.76C586.169 1010.16 602.992 1004.73 619.281 999.393C655.308 987.577 696.454 979.655 730.656 1001.4C764.903 1023.18 772.936 1068.8 766.772 1106.5ZM740.002 896.029C734.016 913.609 734.817 931.411 734.951 949.747C735.017 957.936 733.482 968.306 734.238 977.675C723.023 971.889 710.562 967.972 697.343 966.192C670.863 962.631 644.804 967.416 619.614 975.516C597.718 982.57 574.73 992.183 551.232 983.216C527.933 974.314 507.928 965.035 482.359 963.811C452.363 962.453 420.853 969.219 395.04 984.862C392.614 945.853 392.77 903.305 380.419 866.9C375.235 851.635 367.891 836.525 359.168 821.972C355.185 813.071 350.757 804.326 346.551 795.914C345.416 793.555 344.281 791.174 343.146 788.837C370.428 794.067 404.787 790.952 425.838 773.372C428.441 776.666 431.245 779.803 434.36 782.74C470.543 816.898 535.054 814.139 563.982 773.95C564.316 774.595 564.673 775.263 565.006 775.931C579.359 800.965 604.927 812.448 632.743 815.83C673.666 820.837 721.755 804.08 743.696 769.544C751.796 784.476 768.686 793.711 786.844 798.139C768.13 828.714 751.351 862.494 740.002 896.029ZM901.512 695.465C893.101 730.847 868.734 765.516 832.952 777.021C817.241 782.05 799.773 781.605 784.24 775.998C771.289 771.258 761.699 762.401 751.173 754.212C754.088 746.068 755.69 737.211 755.646 727.621C755.601 718.541 742.806 717.094 740.113 725.528C725.382 771.658 686.395 799.519 637.35 795.002C612.916 792.732 590.909 783.898 578.892 761.444C569.724 744.243 568.7 724.505 566.164 705.612C565.785 702.964 561.579 702.63 560.489 704.856C552.723 720.611 552.144 738.902 556.728 755.77C526.375 783.986 484.229 799.252 449.18 767.898C434.182 754.457 426.104 734.875 428.085 714.758C430.132 693.663 443.395 680.177 453.586 662.909C455.033 660.417 452.63 658.102 450.182 658.481C425.682 662.152 412.419 689.768 409.014 712.199C406.7 727.397 409.237 742.663 415.49 756.326C390.789 764.537 368.358 773.906 340.298 766.251C308.543 757.617 282.574 731.559 273.361 700.027C263.704 666.959 273.829 628.551 298.596 604.562C310.034 593.569 324.476 585.692 340.008 582.332C356.342 578.771 371.496 582.443 387.807 582.777C391.857 582.844 393.26 578.081 390.901 575.322C371.763 552.98 337.561 557.831 311.191 570.627C308.855 564.196 305.161 558.321 303.247 551.579C299.041 536.58 303.937 521.604 310.635 508.119C320.738 487.735 335.113 470.734 355.741 460.431C398.355 439.247 463.289 442.852 471.211 500.553C472.079 506.762 481.403 505.849 482.871 500.553C488.368 480.748 482.07 462.857 469.164 449.639C478.399 440.894 486.921 431.614 498.893 425.65C519.388 415.459 543.132 414.858 564.583 422.468C585.278 429.812 604.372 445.233 613.829 465.283C625.645 490.25 614.697 515.507 604.705 539.006C602.881 543.256 607.888 548.374 611.626 544.391C628.939 525.988 641.867 505.871 639.62 481.349C647.119 470.334 655.864 460.81 669.35 453.911C690.801 443.007 715.947 442.139 738.756 448.993C785.776 463.079 805.959 503.69 808.029 548.463C794.054 550.043 780.836 555.362 770.043 565.509C764.858 570.405 770.243 579.684 777.097 577.547C810.699 567.178 844.679 565.998 873.051 590.232C902.647 615.578 910.191 658.948 901.512 695.465ZM914.842 612.061C908.299 597.375 898.82 584.023 886.002 573.387C871.071 560.992 850.843 551.712 830.326 548.886C834.688 493.321 791.807 440.782 738.244 428.321C735.173 427.609 732.102 427.03 729.009 426.54C745.454 417.261 761.209 405.734 776.051 393.161C794.61 394.229 813.903 391.381 832.484 395.475C859.121 401.261 884.2 413.723 904.383 432.148C923.632 449.639 938.252 472.448 946.73 496.993C950.446 507.874 953.05 519.112 954.341 530.55C955.187 537.938 954.875 544.903 955.809 551.734C943.748 572.785 930.241 593.013 914.842 612.061ZM1024.44 387.264C1010.73 430.479 995.197 473.605 975.503 514.439C972.365 501.51 967.693 489.093 963.843 479.902C953.095 454.178 936.539 430.924 915.02 413.033C892.901 394.63 866.109 381.768 837.892 375.982C826.61 373.668 813.013 371.554 799.639 371.621C814.103 357.49 827.411 342.826 839.271 328.962C853.58 312.206 866.842 294.715 879.349 276.69C892.656 276.001 905.985 273.397 919.381 274.265C940.299 275.622 961.195 282.409 978.708 293.914C994.463 304.284 1007.72 318.414 1017.2 334.747C1023.35 345.317 1025.53 358.38 1029.89 369.907C1028.09 375.715 1026.31 381.501 1024.44 387.264ZM1040.73 332.612C1039.06 329.474 1037.39 326.514 1035.83 323.866C1024.46 304.44 1008.44 287.572 989.233 275.8C965.022 260.958 924.01 249.32 892.255 257.42C911.927 227.223 929.64 195.779 946.53 163.935C956.677 163.245 966.646 160.753 976.95 160.308C993.884 159.552 1011.04 162.4 1026.53 169.276C1040.06 175.307 1051.03 184.097 1058.8 196.781C1061.82 201.676 1063.22 205.882 1065.76 209.176C1060.93 250.811 1051.9 292.045 1040.73 332.612ZM1068.76 175.774C1057.5 164.292 1042.44 154.723 1034.21 151.118C1013.82 142.217 982.09 135.964 957.456 143.129C959.014 140.147 960.572 137.099 962.107 134.117C970.964 116.849 979.731 99.4918 988.498 82.1791C996.22 67.025 1008.13 29.0617 1028.09 27.9713C1071.23 25.5457 1069.19 108.882 1069.63 135.741C1069.9 149.115 1069.57 162.489 1068.76 175.774Z" fill="#3D2938"/>
<path d="M481.226 1104.71C476.976 1113.57 489.304 1121.07 494.556 1112.48C509.242 1105.52 516.185 1107.72 515.362 1119C517.342 1124.3 516.541 1129.15 512.87 1133.58C509.109 1139.36 502.9 1143.99 496.581 1146.51C476.887 1154.32 457.861 1139.07 457.861 1118.31C457.861 1087.74 489.349 1069.87 515.318 1063.77C518.344 1063.06 517.966 1058.85 515.318 1057.94C486.79 1048.19 454.3 1074.45 445.466 1100.75C436.075 1128.81 451.942 1164.66 484.408 1165.98C509.932 1167.04 537.437 1141.88 532.964 1115.51C528.603 1089.83 493.621 1078.72 481.226 1104.71Z" fill="#3D2938"/>
<path d="M614.12 1055.38C610.982 1057.09 612.762 1061.3 615.833 1061.59C633.746 1063.48 649.501 1064.73 663.031 1078.1C673.49 1088.45 679.053 1103.22 676.939 1117.89C674.781 1133.15 664.054 1147.62 647.432 1147.46C640.911 1147.4 633.368 1144.88 628.896 1139.92C624.512 1134.36 622.687 1128.06 623.399 1121.05C625.602 1106.65 632.255 1105.45 643.515 1117.49C646.208 1124.03 658.091 1124.28 657.312 1115.6C654.73 1087.8 617.547 1083.66 608.267 1110.14C597.697 1140.25 624.222 1168.22 654.286 1163.93C687.353 1159.19 701.194 1120.4 691.003 1091.7C680.566 1062.32 644.116 1039.07 614.12 1055.38Z" fill="#3D2938"/>
<path d="M521.144 832.007C514.824 829.738 508.082 828.759 501.361 829.293C480.755 830.917 462.085 846.828 457.234 866.9C452.338 886.949 461.662 909.669 479.198 920.529C519.23 945.296 568.854 902.727 550.829 859.512C545.511 846.672 534.207 836.658 521.144 832.007Z" fill="#3D2938"/>
<path d="M657.934 864.542C647.364 857.109 632.699 855.062 618.658 862.762C603.437 871.084 595.359 890.823 600.856 907.267C606.397 923.712 625.133 934.66 642.068 930.899C652.571 928.585 661.606 921.264 667.258 912.073C678.585 893.559 671.842 874.4 657.934 864.542Z" fill="#3D2938"/>
</g>
<defs>
<filter id="filter0_d_403_14839" x="0.6875" y="0.0830078" width="1095.95" height="1620.92" filterUnits="userSpaceOnUse" color-interpolation-filters="sRGB">
<feFlood flood-opacity="0" result="BackgroundImageFix"/>
<feColorMatrix in="SourceAlpha" type="matrix" values="0 0 0 0 0 0 0 0 0 0 0 0 0 0 0 0 0 0 127 0" result="hardAlpha"/>
<feOffset dy="4"/>
<feGaussianBlur stdDeviation="2"/>
<feComposite in2="hardAlpha" operator="out"/>
<feColorMatrix type="matrix" values="0 0 0 0 0 0 0 0 0 0 0 0 0 0 0 0 0 0 0.25 0"/>
<feBlend mode="normal" in2="BackgroundImageFix" result="effect1_dropShadow_403_14839"/>
<feBlend mode="normal" in="SourceGraphic" in2="effect1_dropShadow_403_14839" result="shape"/>
</filter>
</defs>
</svg>
