<svg width="1302" height="1621" viewBox="0 0 1302 1621" fill="none" xmlns="http://www.w3.org/2000/svg">
<g filter="url(#filter0_d_403_14877)">
<path d="M775.838 1310.59C777.529 1308.88 779.265 1307.1 780.734 1304.92C784.027 1300 784.294 1295.77 784.116 1292.28C784.072 1291.32 783.271 1290.54 782.314 1290.54H782.292C760.395 1290.76 736.451 1291.43 709.102 1292.57C708.635 1292.59 708.19 1292.79 707.879 1293.12C706.833 1294.19 705.786 1295.24 704.74 1296.31C702.871 1298.2 700.98 1300.07 699.156 1302.11C688.118 1314.62 690.944 1324.57 698.577 1335.67C706.388 1347.02 708.658 1357.3 706.165 1370.07C705.008 1375.88 702.449 1381.78 699.712 1388.03C694.727 1399.47 689.564 1411.31 693.281 1423.28C696.774 1434.47 708.079 1442.75 719.784 1442.75C720.006 1442.75 720.207 1442.75 720.429 1442.75C729.53 1442.53 737.808 1434.27 740.256 1426.73C740.99 1424.53 740.679 1421.83 740.39 1419.23C740.234 1417.81 740.078 1416.47 740.123 1415.42C740.546 1405.57 744.262 1397.13 751.828 1388.85C754.075 1386.41 757.013 1383.94 760.128 1381.33C768.161 1374.63 777.263 1367.02 777.596 1356.43C777.819 1349.89 775.238 1344.46 772.723 1339.19C769.363 1332.11 766.47 1326.01 770.097 1317.96C771.477 1315.04 773.591 1312.88 775.838 1310.59Z" fill="#402F38"/>
<path d="M589.453 1545.65C586.538 1540.97 584.046 1536.95 583.645 1531.09C583.2 1524.2 585.915 1517.61 588.964 1510.91L590.21 1508.17C595.15 1497.4 598.732 1489.64 589.586 1477.67L588.474 1476.22C579.373 1464.36 572.786 1455.81 578.549 1441.01C579.951 1437.45 582.02 1434.09 584.023 1430.85C588.229 1423.99 592.59 1416.92 591.099 1407.5C589.942 1400.23 586.115 1394.13 580.351 1390.35C574.721 1386.67 567.845 1385.67 560.992 1387.47C542.833 1392.3 540.786 1410.64 538.984 1426.84C538.138 1434.45 537.337 1441.66 535.089 1447.4C531.863 1455.75 524.52 1461.8 517.399 1467.65C508.431 1475.04 499.151 1482.67 498.083 1495.02C497.059 1506.99 500.665 1518.34 504.158 1529.34C507.741 1540.6 511.435 1552.23 509.966 1564.32C509.232 1570.24 506.428 1580.01 500.909 1588.15C500.531 1588.73 500.486 1589.46 500.82 1590.04C501.131 1590.62 501.755 1590.98 502.4 1590.98H502.467C511.078 1590.64 519.668 1590.29 528.258 1589.89C552.535 1588.77 576.39 1587.44 599.155 1585.92C600.067 1585.86 600.802 1585.12 600.847 1584.21C601.559 1572.24 598.621 1561.09 591.567 1549.1C590.877 1547.92 590.165 1546.76 589.453 1545.65Z" fill="#402F38"/>
<path d="M335.437 1434.25C334.903 1445.18 337.328 1460.4 345.94 1467.36C349.011 1469.85 352.616 1471.1 356.688 1471.1C358.624 1471.1 360.671 1470.81 362.807 1470.25C372.532 1467.7 376.36 1458.13 379.742 1449.67C380.654 1447.38 381.544 1445.2 382.479 1443.28C388.465 1431.13 397.633 1423.17 412.253 1417.47C415.702 1416.11 419.552 1415.02 423.602 1413.84C436.932 1410.02 452.041 1405.68 455.913 1390.41L456.937 1386.27C460.742 1370.96 463.256 1360.86 477.276 1350.22C481.214 1347.22 486.199 1344.37 491.495 1341.32C508.007 1331.87 526.699 1321.16 520.936 1301.02C520.713 1300.24 520.001 1299.71 519.2 1299.71C478.9 1299.93 443.14 1298.6 409.805 1295.73C409.582 1295.7 409.36 1295.73 409.16 1295.79C401.727 1297.84 394.184 1300.8 389.221 1308.43C384.482 1315.75 384.749 1324.34 384.993 1332.67C385.127 1337.09 385.261 1341.3 384.66 1345.26C381.967 1363.55 368.927 1372.12 355.264 1378.66L353.105 1379.69C342.579 1384.65 329.473 1390.81 330.163 1405.5C330.319 1408.73 331.676 1411.84 332.989 1414.87C334.057 1417.32 335.058 1419.65 335.414 1421.94C335.993 1425.37 335.793 1428.66 335.592 1432.16L335.437 1434.25Z" fill="#402F38"/>
<path d="M214.23 1552.55C209.958 1544.76 208.4 1537.17 209.469 1529.31C210.136 1524.15 212.473 1519.63 214.965 1514.87C217.124 1510.69 219.371 1506.35 220.372 1501.59C223.221 1487.83 216.278 1483.47 209.535 1479.24C206.331 1477.24 203.015 1475.17 200.479 1471.99C189.197 1457.99 196.851 1439.86 203.594 1427.44C204.039 1426.62 204.818 1425.44 205.708 1424.06C209.847 1417.67 213.207 1412.09 212.362 1408.28C211.649 1405.21 210.225 1403.03 208.111 1401.81C204.195 1399.56 199.188 1401.12 195.16 1402.36C194.426 1402.58 193.736 1402.81 193.091 1402.98C180.562 1406.43 170.281 1410.73 161.692 1416.09C140.73 1429.24 137.793 1446.84 134.41 1467.23C134.054 1469.34 133.698 1471.48 133.32 1473.66C132.051 1480.8 129.804 1489.9 123.617 1496.96C119.523 1501.63 114.672 1503.81 109.531 1506.13C106.839 1507.35 104.035 1508.6 101.231 1510.26C92.9083 1515.16 91.6402 1523.88 90.4386 1532.34C89.9268 1535.88 89.4151 1539.55 88.347 1542.75C85.9882 1549.79 81.8493 1556.57 76.3751 1562.38C70.5226 1568.57 63.1789 1573.46 55.7019 1576.18C54.9676 1576.44 54.4778 1577.18 54.5223 1577.96C54.5446 1578.76 55.101 1579.43 55.8799 1579.63C64.959 1582.05 74.9284 1582.72 83.7182 1583.34L88.347 1583.68C107.529 1585.15 128.046 1586.5 151.1 1587.82C176.668 1589.26 203.772 1590.51 231.632 1591.49H231.699C232.567 1591.49 233.302 1590.89 233.48 1590.04C235.482 1580.18 227.983 1570.77 221.351 1562.47C218.525 1558.89 215.877 1555.55 214.23 1552.55Z" fill="#402F38"/>
<path d="M45.0868 1310.86C55.7014 1310.86 68.0957 1305.27 78.9773 1300.38C85.4751 1297.44 91.6174 1294.68 96.2238 1293.68C105.436 1291.7 113.914 1292.43 122.949 1296.06C126.576 1297.48 130.226 1299.75 134.075 1302.14C140.239 1305.96 146.626 1309.92 153.413 1310.61C162.136 1311.53 169.301 1305.09 176.244 1298.89C179.782 1295.73 183.121 1292.77 186.459 1290.9C195.827 1285.71 205.952 1282.84 216.544 1282.37C221.684 1282.15 227.114 1283 232.366 1283.82C242.847 1285.47 253.684 1287.16 263.431 1280.84C271.864 1275.37 279.431 1267.55 286.73 1259.99C289.645 1256.98 292.515 1254 295.386 1251.27C299.925 1246.9 301.55 1243.3 300.37 1240.23C298.167 1234.51 287.509 1233.71 273.779 1233.24C270.374 1233.13 267.436 1233.04 265.634 1232.77C257.578 1231.59 251.303 1228.75 243.959 1222.94C240.377 1220.13 237.039 1216.71 233.812 1213.39C229.006 1208.45 224.021 1203.36 217.946 1199.86C209.869 1195.21 201.034 1194.88 192.511 1194.54C188.862 1194.41 185.079 1194.25 181.429 1193.76C174.397 1192.83 166.342 1191.07 160.111 1185.24C157.575 1182.86 155.95 1179.95 154.214 1176.87L153.213 1175.09C148.162 1166.17 146.092 1162.48 136.879 1157.27C132.585 1154.84 126.509 1150.86 121.858 1145.56C121.502 1145.16 120.857 1144.92 120.457 1144.94C119.923 1144.96 119.411 1145.21 119.077 1145.63L103.767 1165.13C91.5282 1180.72 79.2895 1196.3 67.0727 1211.9C65.5818 1213.79 64.0902 1215.68 62.5771 1217.6C50.3158 1233.02 37.6542 1248.97 31.1564 1267.89C28.2413 1276.5 26.2611 1286.09 25.1484 1297.4C25.1484 1297.8 25.2818 1298.15 25.5043 1298.46C30.0438 1307.65 37.0536 1310.86 45.0868 1310.86Z" fill="#402F38"/>
<path d="M555.896 1077.81C555.562 1077.18 554.872 1076.78 554.205 1076.85C549.153 1077.14 544.191 1076.83 539.406 1075.94C530.083 1074.18 521.071 1067.64 512.325 1061.29C499.842 1052.21 486.913 1042.85 472.404 1046.76C466.306 1048.41 460.587 1051.1 455.068 1053.73C443.742 1059.11 433.016 1064.19 420.065 1059.78C415.169 1058.09 411.142 1055 406.869 1051.73C402.574 1048.41 398.124 1045 392.761 1043.2C381.501 1039.4 370.241 1044.18 360.294 1048.36C358.848 1048.99 357.423 1049.59 355.999 1050.17C345.807 1054.28 335.661 1058 325.268 1057.84C320.484 1057.8 315.455 1056.73 311.004 1055.78C309.78 1055.51 308.578 1055.17 307.354 1054.86C305.597 1054.4 303.794 1053.91 301.947 1053.59C300.546 1053.35 299.277 1053.1 298.187 1052.86C289.508 1051.12 287.528 1051.68 284.101 1061.94C280.718 1072.17 283.277 1076.09 288.373 1083.88L288.751 1084.48C291.889 1089.33 295.338 1094.38 299.945 1097.92C308.601 1104.62 317.235 1103.13 325.58 1101.68C330.497 1100.81 335.572 1099.95 340.712 1100.73C355.644 1102.97 363.187 1115.88 369.106 1127.83C369.841 1129.34 370.597 1130.99 371.354 1132.68C374.558 1139.82 378.185 1147.92 384.728 1151.93C392.917 1156.96 403.108 1154.78 412.121 1152.84C415.37 1152.15 418.441 1151.48 421.289 1151.17C432.393 1149.93 442.451 1152.93 450.395 1159.87C459.43 1167.77 465.016 1180.37 465.328 1193.59C465.35 1194.37 465.839 1195.03 466.574 1195.28C466.752 1195.34 466.952 1195.37 467.13 1195.37C467.686 1195.37 468.22 1195.12 468.554 1194.65C499.641 1154.38 528.169 1116.79 555.74 1079.76C556.185 1079.19 556.23 1078.43 555.896 1077.81Z" fill="#402F38"/>
<path d="M322.866 888.68C323.2 889.325 323.912 889.747 324.579 889.658C326.582 889.569 328.585 889.57 330.566 889.726C338.999 890.349 346.453 893.175 355.421 899.183C369.797 908.796 378.742 911.734 396.945 904.88C400.016 903.723 403.131 902.41 406.247 901.119C419.821 895.422 433.84 889.547 448.104 894.554C450.53 895.377 452.533 896.757 454.669 898.226C456.071 899.183 457.495 900.162 459.097 901.007C468.176 905.836 474.652 906.082 483.62 906.438L487.292 906.593C496.415 907.038 505.428 909.285 514.128 911.444C517.978 912.401 521.805 913.358 525.7 914.181C530.64 915.205 537.493 916.095 544.57 916.095C554.361 916.095 564.575 914.404 570.672 908.996C575.012 905.169 576.926 899.939 576.392 893.442C575.546 882.671 564.153 877.598 554.117 873.103C550.245 871.367 546.595 869.743 544.036 867.962C536.715 862.911 532.887 856.813 529.416 849.181C524.231 837.698 520.403 830.489 507.653 826.772C501.488 824.97 495.08 824.681 488.894 824.391L486.98 824.302C484.31 824.169 481.439 824.191 478.457 824.213C468.288 824.258 456.716 824.325 448.972 818.762C445.167 816.025 444.232 812.13 443.231 808.035C442.296 804.163 441.317 800.158 437.935 796.999C434.552 793.816 429.234 792.681 424.116 791.591C419.509 790.612 414.747 789.588 411.52 787.162C409.718 785.783 408.205 784.337 407.004 782.89C406.67 782.467 406.135 782.223 405.601 782.223H405.579C405.023 782.223 404.511 782.489 404.177 782.912C379.499 814.711 352.952 848.647 323.044 886.699C322.621 887.3 322.554 888.057 322.866 888.68Z" fill="#402F38"/>
<path d="M810.758 706.383C811.003 705.916 811.025 705.36 810.847 704.87C810.646 704.381 810.246 704.002 809.757 703.824C806.597 702.756 803.348 700.998 799.877 699.151C796.138 697.149 792.266 695.057 788.127 693.632C776.6 689.649 767.076 694.1 757.841 698.417C748.851 702.622 740.372 706.606 730.737 702.089C726.331 700.019 722.882 697.193 719.566 694.434C713.936 689.783 708.128 684.999 698.025 684.465C683.338 683.73 673.814 691.808 666.382 699.819C652.006 715.285 638.365 715.818 619.473 716.53C617.003 716.619 614.466 716.709 611.662 716.864C606.411 717.109 597.599 717.51 593.26 721.404C588.497 725.654 586.428 730.038 587.118 734.399C588.253 741.632 596.642 746.772 603.473 749.82C608.324 751.979 613.465 753.381 618.449 754.761C624.146 756.319 630.021 757.943 635.317 760.658C639.923 763.039 643.973 766.622 647.912 770.093C652.519 774.165 657.281 778.371 663.089 780.841C670.877 784.179 679.266 783.734 687.388 783.311C692.951 783.022 698.715 782.71 704.1 783.689C718.342 786.315 734.742 801.581 739.949 817.024C740.172 817.692 740.751 818.159 741.418 818.248C741.507 818.27 741.574 818.27 741.663 818.27C742.264 818.27 742.82 817.981 743.176 817.469C764.94 785.025 782.942 756.185 798.274 729.282C802.368 721.961 806.574 714.261 810.758 706.383Z" fill="#402F38"/>
<path d="M758.487 950.474C747.761 940.883 734.587 936.855 721.836 932.983C711.912 929.957 702.543 927.086 694.287 921.812C693.486 921.3 692.396 921.501 691.84 922.279L690.416 924.282C689.459 925.617 688.502 926.953 687.568 928.311C670.834 951.965 652.385 977.645 631.179 1006.86C630.644 1007.57 630.734 1008.58 631.357 1009.2C638.434 1016.32 644.486 1024.84 650.339 1033.08C657.638 1043.36 665.204 1053.99 674.995 1062.43C681.07 1067.66 687.568 1070.31 694.355 1070.31C695.534 1070.31 696.735 1070.22 697.937 1070.06C717.096 1067.5 733.853 1045.6 744.802 1029.36L743.289 1028.34L744.979 1029.07C759.288 1007.95 783.187 972.571 758.487 950.474Z" fill="#402F38"/>
<path d="M867.056 780.954C853.904 776.191 839.106 772.32 823.106 769.449C819.768 768.848 816.408 768.536 813.159 768.247C808.219 767.802 803.568 767.379 799.318 765.977C798.517 765.71 797.649 766.044 797.204 766.756C783.007 790.033 767.119 814.466 748.627 841.436C748.159 842.126 748.204 843.061 748.782 843.684C756.904 852.63 763.135 863.689 769.144 874.393C776.509 887.5 784.119 901.052 795.491 911.511C801.677 917.185 809.421 923.037 818.1 923.037C821.037 923.037 824.063 922.37 827.179 920.79C832.92 917.919 837.393 912.089 841.331 906.971C842.066 906.014 842.778 905.102 843.468 904.234C853.17 892.173 862.961 878.933 873.375 863.756C875.222 861.041 877.27 858.237 879.362 855.367C886.905 844.975 895.45 833.181 898.721 821.12C904.908 798.422 881.542 786.205 867.056 780.954Z" fill="#402F38"/>
<path d="M981.058 566.683C969.686 559.54 953.108 561.609 939.778 563.278C938.065 563.5 936.418 563.701 934.86 563.879C922.621 565.214 910.427 567.55 898.656 569.798C894.027 570.688 889.421 571.556 884.77 572.402C884.08 572.535 883.524 573.047 883.323 573.737C874 609.675 860.692 645.502 842.69 683.265C842.333 684.021 842.534 684.934 843.202 685.468C848.164 689.451 852.637 694.68 856.954 699.754C860.247 703.626 863.674 707.632 867.279 711.036C880.475 723.52 893.515 732.933 906.043 739.03C912.274 742.079 918.327 743.592 924.157 743.592C928.919 743.592 933.504 742.568 937.91 740.521C961.119 729.773 973.403 693.545 978.654 672.895C982.793 656.606 986.287 638.626 989.358 617.953C989.558 616.529 989.803 615.038 990.07 613.436C992.473 598.571 996.078 576.096 981.058 566.683Z" fill="#402F38"/>
<path d="M870.506 374.351C869.816 374.195 869.126 374.44 868.681 374.996C865.232 379.313 861.004 382.562 856.086 384.609C852.103 386.301 847.563 386.746 843.179 387.191C835.613 387.947 827.78 388.726 822.15 395.624C819.458 398.873 817.633 402.834 815.875 406.662C814.629 409.354 813.472 411.913 812.026 414.205C804.326 426.466 793.244 432.675 778.09 433.165C773.684 433.321 769.122 433.12 764.738 432.942C748.049 432.252 730.848 431.54 719.677 449.698C715.627 456.285 712.155 463.295 718.208 470.372C722.948 475.935 727.421 474.644 731.76 473.376C733.273 472.931 734.809 472.486 736.544 472.219C744.155 471.017 751.053 471.217 757.595 472.886C764.404 474.577 770.836 477.759 776.221 482.143C779.047 484.435 781.495 487.595 783.831 490.643C786.635 494.293 789.528 498.054 793.267 500.657C801.767 506.599 811.892 504.73 821.661 502.905C830.473 501.259 839.619 499.567 847.63 503.573C856.042 507.779 864.387 516.234 872.197 524.535C872.553 524.891 873.02 525.113 873.51 525.113C873.688 525.113 873.866 525.091 874.044 525.024C874.711 524.824 875.201 524.268 875.312 523.578C883.835 471.684 882.678 421.927 871.886 375.686C871.708 375.041 871.195 374.507 870.506 374.351Z" fill="#402F38"/>
<path d="M1008.69 417.054C1007.54 400.076 1004.64 382.852 1000.04 365.851C999.571 364.093 999.081 362.201 998.591 360.221C994.363 343.397 988.556 320.366 969.463 318.608C954.019 317.251 935.416 328.043 924.334 334.519C912.451 341.484 902.949 350.096 892.868 359.22L888.151 363.469C887.639 363.914 887.439 364.605 887.595 365.272C896.918 401.834 900.412 441.132 897.987 482.121C897.942 482.811 898.298 483.457 898.899 483.79C902.237 485.726 905.575 487.907 908.779 490.021C911.405 491.757 914.053 493.492 916.723 495.095C920.306 497.298 924.178 499.123 927.917 500.903C929.163 501.504 930.409 502.082 931.788 502.749C944.673 507.623 958.091 511.873 971.02 511.873C976.071 511.873 981.056 511.228 985.907 509.715C1014.57 500.814 1010.59 444.114 1008.89 419.903L1008.69 417.054Z" fill="#402F38"/>
<path d="M725.131 206.655C725.376 207.077 725.799 207.367 726.266 207.478C739.951 210.75 756.174 214.421 772.641 216.98C772.73 217.003 772.819 217.002 772.908 217.002C773.576 217.002 774.221 216.624 774.532 216.001C790.488 184.38 816.501 160.392 835.527 145.816C840.334 142.144 845.34 138.606 850.37 135.29C850.815 135.001 851.104 134.511 851.171 133.977C851.238 133.443 851.06 132.909 850.681 132.531C837.152 118.512 821.597 108.386 804.462 102.467C789.33 97.2155 761.536 89.9168 745.225 99.9083C724.597 112.481 724.53 151.001 724.508 169.537C724.508 173.431 724.864 177.504 725.265 181.843C725.999 189.876 726.756 198.177 724.931 205.275C724.82 205.72 724.886 206.232 725.131 206.655Z" fill="#402F38"/>
<path d="M742.151 84.6414C743.954 83.8403 745.912 83.1281 748.538 82.327C749.406 82.06 749.94 81.1703 749.784 80.2802L749.028 75.8742C745.223 53.5547 740.015 23.0235 718.096 17.6828C696.333 12.3199 687.432 31.8356 679.599 49.0593C677.663 53.2873 675.86 57.2929 673.858 60.9646C673.39 61.8102 673.68 62.8785 674.525 63.3903C681.869 67.7741 687.12 74.0273 690.169 82.016C695.932 96.9699 692.395 113.592 688.3 129.325L685.763 139.161C681.246 156.718 676.573 174.899 671.009 192.345C670.854 192.834 670.921 193.369 671.166 193.814C671.433 194.259 671.855 194.57 672.345 194.681C683.604 197.129 695.021 199.911 706.08 202.626L709.351 203.427C709.484 203.471 709.64 203.471 709.774 203.471C710.263 203.471 710.753 203.271 711.087 202.892C711.532 202.425 711.688 201.736 711.487 201.113C705.702 182.621 709.574 153.536 711.042 142.588C715.248 110.833 725.417 91.8958 742.151 84.6414Z" fill="#FFEFE6"/>
<path d="M541.634 154.895C544.015 158.255 546.262 161.437 548.131 164.352C549.578 166.644 551.069 168.892 552.56 171.14C556.743 177.46 560.682 183.401 563.842 189.965C564.153 190.61 564.799 190.989 565.467 190.989C565.622 190.989 565.778 190.966 565.934 190.922C578.863 187.428 591.88 185.849 605.499 185.982C620.008 186.138 635.652 187.74 653.298 190.878C654.299 191.034 655.167 190.433 655.39 189.52C657.793 179.418 660.953 169.114 664.001 159.167C669.275 142.01 674.727 124.253 676.641 106.406C677.82 95.324 675.261 86.7121 668.986 80.7929C655.234 67.7973 626.795 70.535 603.541 74.3625L603.007 74.4514C586.25 77.233 541.767 84.6205 528.015 104.692C524.187 110.278 522.941 116.486 524.343 123.118C526.591 133.621 534.579 144.926 541.634 154.895Z" fill="#402F38"/>
<path d="M329.652 460.469C331.967 456.731 334.37 452.859 336.439 448.876C345.429 431.63 338.643 421.037 330.81 408.754C328.829 405.66 326.804 402.479 324.891 399.007C319.038 388.415 318.237 374.774 322.777 363.403C323.044 362.735 322.888 361.978 322.398 361.466C321.909 360.955 321.152 360.799 320.485 361.022C308.357 365.383 295.539 369.433 283.144 373.349C248.83 384.186 213.382 395.38 184.119 415.43C134.829 449.232 118.874 517.169 120.187 565.079C120.966 592.294 126.084 627.766 146.09 642.274C157.772 650.753 173.371 650.619 188.392 650.463C198.45 650.374 208.82 650.285 217.543 652.844C227.179 655.67 236.347 660.499 245.248 665.195C255.885 670.825 266.9 676.61 278.916 679.125C281.831 679.725 284.613 680.015 287.261 680.015C305.397 680.015 318.081 666.975 330.409 654.29L332.768 651.865C337.508 647.037 343.16 641.451 349.279 636.666C349.724 636.333 349.969 635.799 349.969 635.242C349.969 634.686 349.724 634.152 349.279 633.818C345.363 630.725 341.958 626.453 339.421 621.446C332.545 607.738 335.927 592.295 340.356 576.384L341.246 573.224C344.628 561.408 348.478 547.989 341.469 536.039C338.954 531.7 335.438 528.029 332.056 524.468C329.719 522.02 327.293 519.484 325.313 516.813C317.658 506.488 315.166 495.673 317.925 484.658C320.106 475.868 324.957 468.035 329.652 460.469ZM226.266 540.891C225.287 543.695 221.971 546.009 218.744 546.12C217.12 546.164 214.806 545.675 213.604 542.894C205.371 523.734 201.922 505.865 203.323 489.776C203.346 489.598 203.324 489.398 203.279 489.22C200.186 475.312 198.25 459.824 207.285 450.455C213.649 443.868 223.24 441.399 232.898 441.399C242.244 441.399 251.656 443.691 258.377 446.761C267.5 450.945 274.8 458.645 277.893 467.323C280.452 474.511 280.028 481.921 276.668 488.775C271.661 498.989 262.583 505.308 252.947 511.984C242.199 519.483 231.051 527.228 226.266 540.891Z" fill="#FFA7B4"/>
<path d="M849.918 1331.46C849.518 1323.74 851.543 1307.12 848.005 1299.93C842.953 1289.76 820.033 1290.34 802.854 1291.43C803.388 1299.38 800.606 1308.16 796.022 1314.26C789.613 1322.87 788.011 1325.41 790.97 1338.12C791.994 1342.5 794.242 1346.33 794.843 1350.93C795.888 1359.06 794.598 1367.09 790.526 1374.19C780.222 1392.41 758.927 1397.82 757.859 1420.79C756.991 1440.1 750.96 1453.92 730.532 1458.99C713.687 1463.2 695.551 1457.15 684.781 1443.57C671.162 1426.53 673.81 1406.99 681.554 1388.01C688.474 1370.87 693.993 1359.01 682.199 1342.14C676.613 1334.16 672.942 1326.43 673.876 1316.53C674.633 1308.81 677.86 1301.69 682.622 1295.59C675.724 1295.93 668.803 1296.24 661.905 1296.57C620.781 1298.6 579.681 1300.6 538.58 1301.29C541.406 1315 533.528 1331.09 523.092 1340.25C514.168 1348.09 503.42 1352.96 493.451 1359.23C477.874 1369.03 475.627 1378.22 471.888 1394.91C468.261 1411.17 456.133 1419.74 441.291 1425.28C420.685 1432.98 404.062 1435.16 394.338 1457.19C386.616 1474.79 375.934 1489.01 354.572 1487.03C336.057 1485.3 322.883 1469.79 319.345 1452.3C316.808 1439.77 319.701 1428.15 316.185 1415.65C313.604 1406.61 311.713 1399.13 315.674 1390.1C324.197 1370.72 345.871 1369.6 360.269 1357.3C379.028 1341.23 362.338 1309.95 383.522 1292.3C387.506 1289.01 392.379 1286.33 397.453 1284.87C397.809 1282.97 398.654 1281.06 400.034 1279.3C415.611 1259.63 431.054 1239.94 446.476 1220.16C446.12 1207.4 451.193 1194.45 446.587 1182.06C439.043 1161.56 419.372 1169.64 403.261 1171.49C382.766 1173.8 368.813 1164.46 359.356 1146.81C355.217 1139.11 352.346 1128.41 345.938 1122.24C336.391 1113.1 322.083 1121.8 310.2 1120.51C291.441 1118.48 278.801 1101.93 270.233 1086.62C261.243 1070.51 255.213 1050.14 275.018 1039.51C296.47 1028 319.657 1045.14 342.11 1037.5C361.136 1031.07 380.251 1018.86 400.613 1027.89C412.228 1033.05 421.085 1046.61 434.949 1044.16C444.918 1042.42 453.93 1035.52 463.365 1031.96C482.347 1024.71 497.88 1030.58 513.368 1042.33C532.861 1057.13 552.955 1064.47 573.138 1053.19C610.078 1003.15 646.528 952.744 682.333 901.896C697.62 880.2 712.93 858.481 727.906 836.562C727.15 829.374 726.526 822.342 722.788 815.578C714.799 801.024 702.471 798.843 687.34 799.31C676.302 799.6 665.465 800.69 655.14 795.683C645.238 790.855 638.695 781.531 629.238 776.079C610.59 765.309 585.689 767.334 574.006 745.771C565.728 730.483 572.449 713.949 587.291 706.183C594.902 702.222 603.402 700.998 611.858 700.62C629.994 699.863 641.588 702.222 654.961 688.358C668.714 674.206 684.402 665.527 704.897 668.954C713.509 670.378 721.23 673.783 728.084 679.146C734.538 684.153 738.454 687.935 746.621 684.509C750.293 682.973 753.475 680.258 757.258 678.745C766.693 674.94 777.441 673.872 787.455 676.052C792.395 677.098 813.001 689.583 815.605 687.268C816.74 686.245 818.03 685.644 819.387 685.332C841.351 640.627 859.086 593.295 869.389 544.962C853.011 539.376 847.826 515.321 827.554 517.569C810.13 519.482 795.755 526.18 781.068 512.384C772.501 504.284 767.427 493.513 755.366 489.597C743.817 485.814 734.137 491.488 722.699 491.666C706.187 491.956 697.042 478.604 697.976 463.138C699 446.983 709.414 431.718 722.988 423.284C740.88 412.18 758.415 417.654 778.086 416.541C802.253 415.206 800.762 387.902 817.852 376.397C825.396 371.324 832.761 371.968 841.396 370.945C851.877 369.721 858.418 364.158 865.206 357.772C862.913 349.939 860.31 342.128 857.395 334.339C831.804 342.951 804.166 343.708 780.534 329.867C776.439 327.463 778.354 321.343 782.893 321.165C808.951 320.186 835.12 321.411 859.865 311.441C883.097 302.073 901.745 284.738 917.789 265.934C948.119 230.308 977.16 180.796 977.805 132.574C978.028 116.107 970.795 105.024 952.437 109.386C940.821 112.101 929.205 116.907 918.145 121.291C893.756 130.949 870.302 143.144 849.05 158.52C807.927 188.25 783.583 229.284 766.115 276.17C764.735 279.864 759.438 279.286 759.216 275.236C758.414 259.881 760.996 245.083 766.003 230.997C709.793 227.993 656.23 204.183 599.619 205.384C535.486 206.719 501.017 255.253 455.221 291.97C421.464 319.074 382.743 338.389 342.755 354.389C334.477 365.382 330.049 378.199 337.281 391.662C342.577 401.542 351.545 409.109 355.417 419.835C362.738 440.04 349.898 457.397 340.463 474.242C332.942 487.661 331.207 497.942 341.688 510.359C349.521 519.66 358.065 527.604 361.025 539.866C367.234 565.078 335.19 613.678 369.081 623.803C370.75 623.269 372.463 622.824 374.199 622.468C394.315 618.485 413.141 627.697 429.764 638C477.674 667.73 521.912 675.007 571.558 642.584C614.529 614.501 638.405 564.188 654.961 517.501C657.276 511.048 665.955 513.763 665.02 520.305C656.854 578.474 627.702 635.463 575.452 665.505C551.13 679.479 522.424 687.291 494.341 685.711C490.202 685.444 486.219 684.976 482.302 684.331C461.296 711.946 440.134 739.451 418.86 766.933C418.86 767.267 418.904 767.556 418.86 767.912C417.925 777.058 445.141 780.752 450.837 786.16C454.131 789.275 454.798 792.59 457.09 796.24C464.055 807.41 468.528 807.388 480.322 807.789C502.352 808.546 528.299 809.814 540.337 831.778C544.588 839.477 544.877 847.822 552.265 853.63C556.693 857.123 562.346 859.081 567.33 861.574C574.852 865.379 582.329 869.563 587.291 876.661C599.441 894.018 589.694 917.028 572.671 926.841C545.122 942.73 515.659 924.438 487.309 922.858C475.983 922.213 466.481 924.371 456.111 918.986C450.415 916.004 446.899 910.463 440.178 909.039C433.903 907.704 427.249 910.063 421.419 912.088C402.949 918.541 384.19 930.557 364.163 922.969C350.121 917.673 342.244 904.21 326.177 903.12C320.258 902.719 315.184 903.988 310.355 905.835C255.858 975.085 201.094 1044.11 146.731 1113.39C142.347 1118.97 137.986 1124.53 133.602 1130.08C132.979 1137.98 156.389 1147.86 160.75 1152.73C163.732 1156.07 165.223 1159.85 167.359 1163.68C173.011 1173.87 176.95 1176.03 188.054 1176.85C210.952 1178.52 225.795 1181.92 242.752 1198.3C252.075 1207.27 259.263 1215.62 272.726 1216.71C282.561 1217.46 292.286 1215.04 301.788 1218.55C315.985 1223.83 325.51 1238.8 317.387 1253.13C312.114 1262.35 301.566 1269.6 293.977 1276.77C286.256 1284.07 278.601 1292.85 269.255 1298.22C247.981 1310.48 223.859 1294.64 201.54 1303.11C183.493 1310.01 173.813 1331 152.339 1327.84C131.355 1324.74 117.891 1303.34 95.1491 1310.06C76.2788 1315.62 60.9245 1328.39 40.2072 1324.1C34.466 1322.9 29.57 1320.58 25.7647 1317.27C25.698 1319.87 25.6091 1322.5 25.5868 1325.1C24.8525 1367.02 25.1415 1408.99 25.7423 1450.92C26.0316 1472.08 26.4768 1493.2 27.0109 1514.36C27.4559 1531.34 24.5858 1554.06 36.9583 1567.34C50.0652 1563.14 62.0592 1557.97 69.6251 1545.2C75.7669 1534.79 73.3635 1523.06 77.5692 1512.29C81.2409 1502.9 88.5174 1498.58 97.3962 1494.44C113.841 1486.79 116.489 1478.8 118.626 1461.78C121.14 1441.35 126.058 1424.03 142.213 1410.06C157.879 1396.53 180.065 1387.78 200.338 1384.51C220.009 1381.35 233.227 1393.48 228.243 1413.58C225.172 1425.95 215.715 1435.49 212.377 1447.64C207.704 1464.56 225.15 1466.11 232.96 1476.24C250.896 1499.49 218.118 1521.46 228.999 1543.93C237.166 1560.8 252.343 1572.88 250.741 1590.35C259.441 1590.6 268.12 1590.86 276.843 1591.04C344.848 1592.6 412.896 1592.24 480.856 1590C483.46 1582.12 490.692 1575.73 492.806 1566.81C496.611 1550.74 487.977 1534.61 484.127 1519.39C478.497 1497.29 480.5 1475.59 499.303 1460.93C505.646 1455.97 513.211 1452.25 517.528 1445.15C521.668 1438.25 522.024 1429.55 523.003 1421.81C524.204 1412.08 525.028 1402.18 529.456 1393.21C537.957 1376.06 557.717 1366.4 576.565 1370.43C595.28 1374.39 608.475 1392.06 608.831 1410.93C609.01 1420.81 605.271 1428.89 600.443 1437.16C595.146 1446.27 592.254 1452.45 598.729 1462.13C601.6 1466.38 605.939 1469.56 608.676 1473.99C613.149 1481.25 614.818 1488.77 613.282 1497.25C611.079 1509.33 597.75 1522.15 602.512 1534.7C603.958 1538.57 608.498 1542.24 610.79 1545.91C614.306 1551.61 616.242 1557.86 617.31 1564.43C618.267 1570.01 618.868 1576.56 618.556 1582.9C672.052 1579.11 725.503 1574.2 778.82 1568.05C798.536 1565.81 834.898 1568.9 843.954 1547.74C850.586 1532.27 848.494 1509.44 849.429 1492.93C851.854 1450.87 852.477 1408.7 851.32 1366.6C850.986 1354.83 850.497 1343.15 849.918 1331.46ZM798.002 287.319C800.428 280.888 803.054 274.835 806.103 269.094C809.908 258.057 818.876 248.199 825.729 239.298C835.899 226.057 846.781 213.418 859.598 202.759C873.684 191.032 907.642 165.018 924.665 185.98C942.913 208.456 915.408 247.598 898.674 262.33C874.219 283.892 840.149 299.024 807.393 299.603C801.518 299.736 795.777 293.238 798.002 287.319ZM636.603 381.382C623.029 400.942 592.877 406.416 573.317 392.842C525.406 359.641 577.01 284.693 625.143 318.095C632.442 323.146 637.783 330.468 640.898 338.701C646.15 352.654 645.148 369.076 636.603 381.382Z" fill="#FFEFE6"/>
<path d="M822.199 280.511C822.31 280.511 822.399 280.511 822.511 280.488C840.291 277.351 858.961 269.295 876.496 257.19C889.046 248.578 898.548 238.431 904.712 227.06C905.202 226.192 915.483 207.121 909.964 199.755C908.117 197.263 904.935 196.506 900.507 197.441C880.457 201.847 861.141 223.722 848.346 238.208L847.99 238.586C844.363 242.725 840.891 247.71 837.219 253.006C832.902 259.215 828.452 265.624 823.512 270.92C823.356 271.076 823.245 271.276 823.156 271.476L820.508 277.996C820.263 278.597 820.374 279.309 820.775 279.821C821.153 280.266 821.665 280.511 822.199 280.511Z" fill="#FFA7B4"/>
<path opacity="0.1" d="M1292.7 1211.7C1290.1 1191.85 1287.07 1171.53 1280.75 1152.49C1269.49 1118.37 1245.11 1094.65 1209.35 1087.89C1174.83 1081.34 1142.25 1094.32 1108.67 1095.83C1102.44 1092.43 1095.97 1089.49 1089.34 1087.2C1051.66 1074.2 1008.78 1078.23 972.398 1093.4C931.498 1110.49 898.029 1141.05 870.236 1174.98C841.307 1210.32 821.903 1255.98 776.796 1270.98C758.282 1271.23 739.79 1271.78 721.276 1272.47C623.586 1276.26 525.785 1284.33 428.118 1277.77C484.595 1206.27 539.849 1133.84 593.968 1060.54C594.835 1059.62 595.681 1058.65 596.505 1057.67C597.15 1056.82 597.595 1056 597.951 1055.15C606.407 1043.65 614.93 1032.21 623.364 1020.7C627.503 1031.47 634.535 1041.2 641.589 1050.55C650.779 1062.7 661.416 1077.52 675.346 1084.59C705.944 1100.17 734.85 1072.35 751.985 1050.08C768.964 1028 797.536 987.37 786.254 957.863C780.491 942.798 766.048 931.983 752.318 924.595C745.709 921.035 716.292 908.595 705.21 906.548C717.048 889.881 728.953 873.125 740.703 856.168C744.909 871.3 754.788 886.009 762.866 898.203C772.991 913.491 784.829 929.914 802.098 937.569C841.841 955.126 869.346 902.365 887.771 875.84C908.533 846.021 936.371 808.124 900.544 777.705C886.057 765.399 865.741 759.88 847.716 755.385C837.591 752.848 823.505 748.264 810.665 747.619C819.588 732.264 828.111 716.71 836.1 700.91C842.665 712.548 853.836 722.985 862.692 731.063C877.935 744.926 898.296 760.637 919.414 763.062C962.607 768.069 986.261 717.689 995.763 683.576C1002.73 658.563 1007.27 632.55 1010.25 606.781C1012.19 589.914 1012.39 570.754 1000.06 557.358C988.087 544.362 969.728 542.159 952.994 542.871C932.566 543.784 910.892 546.432 890.508 551.283C893.913 535.283 896.45 519.083 898.163 502.838C909.668 513.253 924.221 519.239 939.798 523.912C957.445 529.253 980.632 534.327 998.189 525.737C1034.82 507.846 1030.63 443.825 1027.59 410.735C1025.23 385.3 1019.86 360.154 1010.83 336.232C1004.38 319.186 996.431 303.387 976.871 299.938C970.195 298.759 963.163 298.959 955.998 300.139C942.535 310.219 928.849 320.01 914.83 329.334C904.527 336.188 894.625 342.018 883.098 346.469C870.725 351.253 856.75 355.214 847.293 365.072C827.644 385.522 827.777 417.811 828.667 444.203C829.557 470.35 830.937 495.718 827.51 521.753C824.172 547.122 818.609 572.134 811.11 596.59C795.555 647.304 772.212 695.436 745.131 740.921C690.678 832.446 622.051 916.028 554.803 998.341C513.702 1048.63 463.589 1091.71 419.862 1139.69C394.026 1168.02 368.792 1197.35 347.83 1229.52C333.009 1252.29 315.719 1280.53 316.965 1308.83C319.257 1360.75 395.407 1362.55 432.702 1365.76C461.141 1368.18 489.714 1369.65 517.975 1373.75C539.627 1376.88 563.259 1381.18 581.506 1394.04C626.768 1425.88 592.277 1490.02 560.834 1518.32C507.939 1565.92 429.854 1575.13 362.762 1587.66C332.943 1593.22 297.138 1599.08 265.762 1611.67C348.586 1613.85 431.478 1613.25 514.258 1609.89C607.319 1606.04 700.203 1598.68 792.685 1587.75C826.064 1583.79 859.977 1583.43 866.72 1543.87C874.019 1501.16 873.262 1455.39 873.44 1412.13C873.507 1388.28 872.995 1364.4 871.927 1340.57C874.53 1328.44 877.268 1316.29 879.471 1304.03C883.098 1284.04 887.526 1264.17 893.979 1244.9C906.196 1208.43 925.89 1174.2 954.329 1148.04C980.52 1123.98 1014.06 1108.05 1049.99 1107.78C1063.68 1107.71 1077.43 1109.67 1090.49 1113.88C1096.19 1123.85 1101.95 1133.57 1104.8 1145.19C1107.98 1158.47 1107.45 1172.18 1107.38 1185.73C1107.23 1208.12 1108.32 1231.42 1123.32 1249.42C1138.52 1267.71 1162.48 1274.16 1185.09 1277.19C1207.48 1280.17 1233.29 1283.22 1256.9 1280.97C1273.01 1283.04 1288.01 1280.13 1294.35 1265.89C1301 1250.69 1294.82 1227.5 1292.7 1211.7Z" fill="#592639"/>
<path opacity="0.15" d="M460.654 836.34C414.257 832 370.887 853.63 332.479 877.485C310.426 891.171 289.22 906.48 269.17 923.148C223.463 981.65 177.866 1040.24 132.048 1098.63C103.164 1135.44 74.1688 1172.16 45.396 1209.07C20.9402 1240.43 7.18761 1269.87 5.25162 1309.97C3.07085 1355.63 4.31736 1401.67 4.91818 1447.36C5.16296 1469.68 5.65231 1492 6.23088 1514.31C6.67594 1532.32 4.91791 1552.9 13.1292 1569.55C27.5045 1598.65 63.5986 1600.83 91.9931 1602.93C119.297 1604.95 146.623 1606.64 173.972 1608.07C149.316 1530.74 136.721 1449.8 148.204 1368.56C160.776 1279.46 203.034 1198.95 257.353 1128.3C289.331 1086.71 324.957 1047.74 362.542 1011.16C382.369 991.865 404.444 974.886 424.716 956.016C448.193 934.141 473.094 910.709 489.16 882.603C493.967 874.192 500.754 861.53 496.348 851.65C490.874 839.5 471.981 837.386 460.654 836.34Z" fill="#FFFCFC"/>
<path opacity="0.15" d="M491.718 231.089C484.374 237.275 477.12 243.795 469.866 250.627C425.85 292.106 375.959 319.587 319.482 340.728C269.435 359.487 210.621 370.458 167.496 403.503C123.591 437.171 103.519 495.83 100.826 549.503C100.47 556.469 100.448 564.034 100.826 571.889C118.495 596.924 146.422 612.278 178.644 597.747C199.049 588.535 217.141 574.181 239.617 570.065C260.468 566.259 280.25 573.18 300.901 573.825C323.398 574.538 345.851 563.968 367.57 558.894C384.326 554.978 401.194 553.108 418.395 554.555C459.696 558.004 498.95 571.912 540.897 570.31C581.019 568.774 616.4 551.929 637.34 516.747C663.353 473.043 675.837 422.618 666.758 372.126C650.536 281.958 574.876 244.329 491.718 231.089Z" fill="#FFFCFC"/>
<path opacity="0.3" d="M285.414 683.018C300.012 680.459 312.452 671.492 324.802 663.837C339.756 654.579 352.328 646.301 363.766 633.239C368.017 632.171 371.933 630.391 375.427 627.676C377.497 626.051 378.298 623.336 378.12 620.644C392.072 620.443 405.936 626.118 418.953 634.285C439.804 647.369 460.165 661.188 483.842 668.865C495.013 672.493 507.364 675.007 520.159 676.276C513.973 679.169 507.809 681.372 501.645 681.283C494.724 681.194 489.116 677.989 481.684 679.903C474.563 681.75 467.865 686.601 463.081 691.942C452.177 704.159 444.967 719.268 435.398 732.375C424.517 747.306 410.409 760.547 397.213 773.409C391.917 778.571 394.853 786.516 400.216 789.298C377.452 807.367 355.378 826.348 334.393 846.821C325.848 855.166 338.509 867.405 347.366 859.794C405.446 809.837 474.251 773.698 536.982 730.105C562.706 712.236 591.257 693.677 611.284 669.244C628.508 648.215 648.513 616.839 645.308 588.355C644.507 581.123 633.514 575.604 629.642 584.105C623.812 596.922 620.563 610.341 612.397 622.046C611.707 623.047 610.972 624.004 610.26 624.961C608.791 624.872 607.301 624.938 605.81 625.317C584.136 630.813 564.754 639.559 541.922 640.315C520.07 641.05 497.528 637.111 477.367 628.477C456.694 619.642 440.093 602.686 419.51 593.184C400.55 584.438 380.189 581.568 359.672 586.241C340.245 590.67 326.004 602.197 311.628 615.237C303.706 622.424 296.162 629.545 284.724 628.21C274.733 627.052 264.608 621.868 255.129 618.775C236.993 612.833 220.993 610.096 202.879 617.84C191.397 622.735 180.826 630.88 167.986 631.659C156.37 632.371 143.397 626.83 134.474 619.665C127.643 614.168 116.694 620.977 121.679 629.545C131.648 646.702 147.981 656.627 167.986 657.628C178.445 658.14 188.415 654.023 198.228 649.862C223.774 663.637 255.039 688.381 285.414 683.018Z" fill="#592642"/>
<path opacity="0.3" d="M714.315 83.1958C710.265 68.2197 701.074 54.6014 684.14 54.3788C676.151 54.2676 672.079 64.4596 677.642 70.045C709.753 102.178 666.583 150.399 667.406 186.493C667.695 198.91 683.406 204.83 691.884 199.044C697.893 204.474 708.663 205.364 712.646 196.618C719.144 182.288 721.057 167.935 721.836 152.291C722.637 136.091 721.569 117.265 732.184 103.824C740.083 93.8326 749.207 88.3813 752.078 75.0296C755.171 60.6321 749.474 49.8394 744.645 36.7548C740.751 26.1848 726.198 30.3906 727.934 41.3612C730.181 55.5807 728.267 68.7982 718.276 78.9677C716.874 80.3696 715.583 81.7716 714.315 83.1958Z" fill="#592642"/>
<path opacity="0.3" d="M938.599 253.918C968.417 221.674 1009.07 165.064 995.077 118.667C992.94 111.59 982.08 106.962 976.762 113.838C963.277 131.217 958.181 151.222 948.902 170.805C939.289 191.121 926.694 210.259 911.695 227.015C896.853 243.571 879.651 260.083 861.404 272.856C848.208 282.091 832.987 287.231 818.657 293.885C813.583 294.842 808.487 295.799 803.413 296.889C787.058 300.45 770.479 305.389 768.721 324.237C768.476 326.796 769.255 328.822 770.568 330.335C770.368 332.404 770.679 334.496 771.792 336.388C805.861 394.957 787.169 460.914 776.577 523.533C764.271 596.345 746.602 668.599 716.271 736.158C663.799 853.008 584.624 954.859 510.567 1058.53C491.541 1083.3 472.426 1107.96 454.201 1133.35C435.353 1159.61 416.504 1185.93 398.124 1212.52C388.955 1225.79 380.254 1239.45 371.62 1253.07C365.011 1263.5 357.646 1274.54 356.956 1287.31C353.84 1344.46 441.561 1332.8 475.297 1331.53C539.763 1329.13 607.389 1321.27 669.296 1302.71C678.108 1300.07 676.817 1285.8 667.048 1286.2C638.676 1287.36 610.549 1290.54 582.154 1291.63C554.895 1292.68 527.523 1294.5 500.264 1295.9C473.004 1297.33 445.433 1298.6 418.129 1297.86C417.64 1297.84 417.039 1297.84 416.46 1297.84C415.592 1295.61 413.834 1293.7 411.141 1292.72C410.696 1292.57 410.229 1292.43 409.762 1292.28C414.035 1291.21 418.062 1288.32 421.066 1283C487.78 1164.86 572.764 1058.49 649.647 947.048C657.213 938.636 664.578 930.113 671.388 921.323C690.592 896.511 709.44 871.433 728.177 846.265C764.693 797.242 796.092 743.925 820.993 688.026C845.426 633.173 865.854 574.114 874.244 514.499C878.494 484.302 880.942 453.971 880.096 423.44C879.206 391.085 877.537 357.105 861.805 328.554C858.912 323.28 854.928 319.987 850.567 318.252C868.169 315.826 884.703 309.417 898.566 297.557C902.127 294.508 902.015 290.013 899.968 286.563C914.032 277.329 926.827 266.647 938.599 253.918Z" fill="#592642"/>
<path opacity="0.3" d="M868.814 1391.32C866.166 1356.12 860.981 1320.47 857.086 1285.27C855.907 1274.63 839.952 1274.01 840.018 1285.27C840.196 1316.93 840.708 1349.33 832.163 1379.95C824.13 1408.77 820.525 1439.44 808.375 1467.03C796.225 1494.58 778.289 1509.53 749.873 1518.92C718.941 1529.16 687.275 1535.72 655.165 1541.04C591.833 1551.5 527.723 1561.25 463.769 1566.74C400.215 1572.22 337.129 1578.11 274.354 1589.89C265.007 1591.64 267.01 1607.6 276.623 1606.64C346.697 1599.81 417.327 1596.43 487.646 1593C523.918 1591.24 560.368 1592.73 596.484 1589.29C623.366 1586.73 650.181 1583.14 676.817 1578.6C688.9 1590.95 712.911 1587.62 728.933 1586.97C755.146 1585.93 787.88 1584.63 812.692 1575.62C859.668 1558.51 864.229 1502.41 859.645 1458.26C866.499 1436.59 870.505 1413.58 868.814 1391.32Z" fill="#592642"/>
<path opacity="0.3" d="M650.54 73.8944C649.205 89.5381 650.762 103.735 648.203 118.489C638.034 152.803 603.898 173.008 568.583 180.263C559.325 182.176 561.239 198.199 570.852 197.019C578.952 196.04 587.542 194.126 596.154 191.411C597 193.236 598.69 194.661 601.45 195.106C614.134 197.22 625.773 194.349 635.964 188.14C638.167 194.616 643.842 199.155 651.497 198.132C657.06 197.375 662.2 192.947 663.802 187.517C665.115 184.758 665.783 181.687 666.072 178.527C666.54 173.454 662.89 168.491 658.64 166.021C678.912 136.981 686.544 93.5213 674.261 67.4633C668.408 54.9572 651.519 62.5677 650.54 73.8944Z" fill="#592642"/>
<path opacity="0.3" d="M1003.29 389.082C996.947 416.364 989.07 445.605 961.165 457.888C937.599 468.258 914.79 463.963 891.714 454.528C883.903 451.324 878.496 461.448 881.656 467.635C889.11 482.299 900.615 490.978 913.833 495.184C926.829 513.832 964.124 520.151 985.131 513.409C1006.32 506.599 1022.29 481.009 1011.63 460.225C1011.61 460.158 1011.54 460.113 1011.52 460.046C1012.52 458.199 1013.44 456.286 1014.19 454.284C1017.13 446.428 1017.04 439.529 1016.57 431.385C1015.79 417.744 1017.37 404.749 1019.07 391.241C1020.16 382.207 1005.31 380.382 1003.29 389.082Z" fill="#592642"/>
<path opacity="0.3" d="M1009.92 606.582C1009.41 598.549 998.884 592.451 992.742 599.461C982.818 610.787 978.078 624.918 970.601 637.825C961.633 653.335 950.151 667.532 934.996 677.368C907.781 695.081 873.356 693.212 845.874 677.145C839.265 673.273 830.23 681.307 834.903 688.116C843.292 700.377 854.686 708.41 867.482 712.928C869.507 724.61 885.173 734.157 894.741 739.32C908.405 746.685 926.184 749.378 941.205 744.771C966.439 737.027 991.007 708.522 987.402 681.373C986.912 677.724 985.265 674.386 982.906 671.938C999.507 652.444 1011.35 628.679 1009.92 606.582Z" fill="#592642"/>
<path opacity="0.3" d="M892.225 813.197C871.53 827.817 854.774 847.822 829.139 854.409C802.569 861.24 780.049 850.425 761.201 832.4C754.214 825.725 742.13 832.334 744.801 841.947C749.54 858.904 760.645 872.255 774.731 881.156C776.333 890.881 781.384 896.778 787.926 904.811C796.471 915.27 802.947 926.174 817.456 928.065C838.796 930.869 867.347 905.991 871.041 885.607C871.508 883.048 871.285 880.622 870.529 878.464C894.651 865.824 915.791 845.863 911.674 821.096C910.361 813.041 898.767 808.568 892.225 813.197Z" fill="#592642"/>
<path opacity="0.3" d="M788.037 965.428C787.614 957.462 780.827 952.299 773.039 954.013C761.067 956.616 755.37 967.052 746.447 974.64C736.589 983.052 725.084 989.728 712.956 994.223C692.395 1001.83 657.458 1010.96 640.613 992.309C634.204 985.211 623.278 992.777 625.281 1001.23C628.084 1013 636.073 1020.48 646.376 1025C651.361 1051.01 676.351 1078.92 704.589 1069.19C731.493 1059.94 766.118 1036.3 769.322 1006.28C769.634 1003.26 768.61 1000.61 766.83 998.518C777.868 989.929 788.771 978.914 788.037 965.428Z" fill="#592642"/>
<path opacity="0.3" d="M842.603 117.998C842.202 118.021 841.802 118.087 841.401 118.109C842.492 106.07 825.179 98.5267 818.77 110.543C808.534 129.747 799.789 148.796 783.655 164.061C767.767 179.104 745.67 189.252 724.352 193.769C714.338 195.905 717.609 209.702 726.621 210.525C734.454 211.237 742.176 210.836 749.72 209.523C750.877 213.618 753.747 217.089 757.508 219.292C765.742 224.099 775.533 222.208 782.253 215.777C787.171 211.081 787.461 202.336 782.81 197.329C803.127 185.624 820.194 167.377 831.098 146.371C832.589 147.639 834.303 148.596 836.216 148.974C838.909 149.486 841.712 149.909 844.405 149.041C846.942 148.217 849.189 146.971 851.125 145.057C853.306 142.899 855.153 140.14 856.021 137.18C858.513 128.613 852.461 117.531 842.603 117.998Z" fill="#592642"/>
<path opacity="0.5" d="M707.462 202.649C658.261 188.474 604.832 190.633 556.41 207.99C509.123 224.946 476.1 255.7 441.786 290.125C403 308.083 366.995 331.827 326.984 347.47C301.082 357.595 274.112 365.851 248.12 376.177C217.745 382.897 188.438 393.222 165.318 414.919C119.677 457.755 111.088 523.779 112.645 583.06C112.69 584.396 113.002 585.575 113.536 586.643C113.358 592.273 113.269 597.925 113.269 603.533C113.291 613.502 129.669 616.484 131.293 605.981C137.035 568.44 141.641 529.698 157.285 494.672C174.197 456.82 200.143 430.362 237.839 412.96C238.93 412.448 240.02 411.981 241.111 411.513C265.433 405.95 291.469 405.06 316.081 402.412C364.547 397.227 405.359 381.739 441.831 348.783C476.701 317.295 505.162 280.4 545.306 254.988C593.595 224.412 648.314 213.42 705.125 219.918C715.183 221.075 716.674 205.297 707.462 202.649Z" fill="#FFF7F7"/>
<path opacity="0.5" d="M777.471 277.284C789.776 259.148 796.653 238.075 810.027 220.295C823.757 202.025 840.046 185.269 859.027 172.429C878.231 159.433 899.193 148.329 920.778 139.851C942.43 131.328 967.91 127.723 987.069 114.439C996.616 107.807 992.343 95.1675 981.484 93.7878C955.537 90.4944 926.875 104.269 903.488 114.683C879.922 125.164 858.07 138.182 838.087 154.516C804.93 181.597 760.603 226.459 761.582 272.989C761.76 281.757 772.798 284.182 777.471 277.284Z" fill="#FFF7F7"/>
<path opacity="0.5" d="M555.406 112.592C575.456 95.8798 602.426 93.2985 624.679 81.0372C632.69 76.6312 630.286 65.0374 622.253 62.4115C591.589 52.42 548.597 71.2017 527.79 94.5004C517.799 105.694 516.286 120.514 521.115 134.355C527.256 151.912 544.413 162.616 548.864 181.063C551.134 190.454 565.152 188.162 565.375 178.838C565.62 168.646 563.016 160.279 558.677 151.133C553.047 139.161 542.477 123.362 555.406 112.592Z" fill="#FFF7F7"/>
<path opacity="0.5" d="M735.832 177.169C737.034 160.435 740.394 142.632 750.92 129.036C764.294 111.745 784.321 116.663 802.257 109.186C811.848 105.181 813.138 91.8737 802.257 88.291C778.847 80.6138 748.027 90.6052 732.806 109.765C717.897 128.502 718.698 154.56 719.788 177.169C720.278 187.539 735.098 187.427 735.832 177.169Z" fill="#FFF7F7"/>
<path opacity="0.5" d="M896.725 378.868C912.324 369.254 924.652 358.039 942.232 351.541C958.521 345.511 975.966 346.668 991.944 341.127C1002.56 337.433 1002.07 323.881 991.944 319.987C958.186 307.08 900.93 336.365 884.018 366.139C879.501 374.061 888.647 383.852 896.725 378.868Z" fill="#FFF7F7"/>
<path opacity="0.5" d="M1001.51 572.201C983.172 558.693 957.626 558.983 935.774 560.941C915.947 562.721 890.356 566.46 875.58 580.857C869.794 586.487 874.156 596.768 882.167 596.724C901.015 596.657 919.663 588.289 938.845 587.332C958.316 586.353 977.475 591.805 996.746 589.758C1006.29 588.734 1009.25 577.897 1001.51 572.201Z" fill="#FFF7F7"/>
<path opacity="0.5" d="M852.418 766.556C832.391 762.862 806.132 758.767 787.64 769.137C780.92 772.898 783.323 781.866 789.621 784.269C807.579 791.145 829.497 788.608 848.457 792.881C868.151 797.287 886.197 806.611 905.98 810.305C915.126 812.018 922.603 801.403 915.393 794.127C898.726 777.215 875.316 770.762 852.418 766.556Z" fill="#FFF7F7"/>
<path opacity="0.5" d="M761.959 961.468C768.991 964.161 776.111 954.659 771.883 948.561C762.181 934.587 748.674 927.51 732.719 922.37C718.522 917.786 699.629 913.291 685.877 920.635C680.313 923.594 679.98 932.94 685.877 935.811C697.559 941.507 711.668 940.618 724.151 944.69C737.281 948.985 749.052 956.528 761.959 961.468Z" fill="#FFF7F7"/>
<path opacity="0.5" d="M299.3 898.091C257.709 947.048 219.702 998.74 183.185 1051.61C179.958 1050.57 176.131 1051.37 173.639 1055.17C125.684 1128.34 52.8507 1189.94 23.8999 1274.41C7.54411 1322.12 10.8372 1375.61 11.5715 1425.26C11.9498 1450.69 12.9734 1476.13 15.9775 1501.39C19.0261 1526.82 21.4516 1553.39 35.8269 1574.98C40.3665 1581.76 49.8019 1581.87 54.564 1576.78C62.5527 1583.79 72.3218 1588.26 83.6485 1588.13C87.387 1588.08 90.1464 1586.48 91.9043 1584.19C99.537 1586.95 107.548 1588.75 115.848 1589.33C120.098 1589.64 123.125 1586.24 123.948 1582.43C129.445 1584.14 134.963 1585.72 140.459 1587.26C140.571 1587.28 140.637 1587.28 140.749 1587.3C105.678 1575.89 75.0812 1545.2 69.6516 1508.06C64.1996 1470.77 69.7628 1427.33 72.2328 1389.77C76.1493 1330.31 84.427 1276.63 116.782 1225.47C183.341 1120.26 256.218 1019.7 312.651 908.417C316.835 900.272 305.909 890.281 299.3 898.091Z" fill="#FFF7F7"/>
<path opacity="0.5" d="M834.835 1278.57C816.699 1272.45 796.448 1278.84 777.845 1280.44C757.551 1282.2 737.256 1281.6 716.895 1282.11C705.057 1282.4 702.787 1299.13 714.114 1302.62C735.743 1309.3 758.619 1311.41 781.228 1311.53C801.789 1311.64 823.575 1311.61 839.953 1297.93C847.118 1291.99 842.4 1281.13 834.835 1278.57Z" fill="#FFF7F7"/>
<path d="M1292.71 1211.7C1290.1 1191.85 1287.08 1171.53 1280.76 1152.49C1269.5 1118.37 1245.11 1094.65 1209.35 1087.89C1174.83 1081.34 1142.26 1094.32 1108.68 1095.83C1102.45 1092.43 1095.97 1089.49 1089.34 1087.2C1051.67 1074.2 1008.78 1078.23 972.401 1093.4C931.501 1110.49 898.032 1141.05 870.239 1174.98C841.31 1210.32 821.906 1255.98 776.799 1270.98C758.285 1271.23 739.793 1271.78 721.279 1272.47C623.589 1276.26 525.788 1284.33 428.121 1277.77C484.598 1206.27 539.852 1133.84 593.971 1060.54C594.838 1059.63 595.684 1058.65 596.508 1057.67C597.153 1056.82 597.598 1056 597.954 1055.15C606.41 1043.65 614.933 1032.21 623.367 1020.71C627.506 1031.48 634.538 1041.2 641.592 1050.55C650.782 1062.7 661.419 1077.52 675.349 1084.59C705.947 1100.17 734.853 1072.35 751.988 1050.08C768.966 1028 797.539 987.37 786.257 957.863C780.494 942.798 766.051 931.983 752.321 924.595C745.712 921.035 716.294 908.596 705.213 906.548C717.051 889.881 728.956 873.125 740.706 856.169C744.911 871.3 754.791 886.009 762.869 898.203C772.994 913.491 784.832 929.914 802.1 937.569C841.844 955.126 869.348 902.365 887.774 875.84C908.536 846.021 936.374 808.125 900.547 777.705C886.06 765.399 865.744 759.88 847.719 755.385C837.594 752.848 823.508 748.264 810.668 747.619C819.591 732.265 828.114 716.71 836.103 700.911C842.668 712.549 853.839 722.986 862.695 731.063C877.938 744.927 898.299 760.637 919.417 763.062C962.61 768.069 986.264 717.689 995.766 683.576C1002.73 658.564 1007.27 632.551 1010.25 606.782C1012.19 589.914 1012.39 570.754 1000.06 557.358C988.09 544.363 969.731 542.16 952.997 542.872C932.569 543.784 910.895 546.432 890.511 551.283C893.916 535.283 896.453 519.083 898.166 502.839C909.671 513.253 924.224 519.239 939.801 523.913C957.447 529.253 980.635 534.327 998.192 525.737C1034.82 507.846 1030.64 443.825 1027.59 410.735C1025.23 385.3 1019.87 360.154 1010.83 336.232C1004.38 319.187 996.434 303.388 976.874 299.938C945.408 294.375 906.11 317.985 882.745 342.152C880.965 336.789 879.073 331.448 877.004 326.108C887.819 320.656 897.877 313.98 906.577 306.703C943.116 276.172 971.756 231.845 987.244 187.05C996.745 159.501 1013.48 93.9002 967.795 87.6917C945.475 84.6876 919.061 98.6397 899.234 107.207C888.086 112.036 877.137 117.377 866.567 123.318C843.669 98.8845 802.991 75.8531 766.408 77.4108C763.915 46.0122 747.359 -0.607502 712.89 0.37162C694.175 0.927939 680.69 15.3252 671.588 30.1678C667.783 36.4209 661.397 46.2788 659.238 55.5804C640.479 51.3969 618.115 54.2677 601.826 56.849C570.316 61.8114 520.781 71.3577 508.164 106.139C501.666 124.141 512.437 139.318 521.516 154.182C529.794 167.712 537.961 182.755 548.842 194.794C519.624 206.632 494.768 227.172 469.867 250.604C425.851 292.083 375.96 319.565 319.483 340.706C269.436 359.465 210.623 370.435 167.497 403.48C123.592 437.149 103.52 495.807 100.828 549.481C98.6468 593.319 108.438 661.501 161.911 667.999C174.907 669.556 188.036 667.887 201.076 669.445C215.452 671.159 227.957 677.857 240.708 684.332C260.09 694.213 280.874 703.826 302.971 697.728C322.531 692.365 335.928 676.366 349.702 662.569C357.179 655.137 365.413 646.903 375.916 644.033C391.515 639.782 406.291 648.573 419.019 656.472C433.528 665.462 447.369 673.562 462.39 678.969C350.503 817.382 241.932 958.598 132.048 1098.59C103.164 1135.4 74.1688 1172.11 45.396 1209.03C20.9402 1240.38 7.18761 1269.82 5.25162 1309.92C3.07085 1355.59 4.31736 1401.63 4.91818 1447.31C5.16296 1469.63 5.65231 1491.95 6.23088 1514.27C6.67594 1532.27 4.91791 1552.86 13.1292 1569.5C27.5045 1598.61 63.5986 1600.79 91.9931 1602.88C138.435 1606.33 184.943 1608.91 231.451 1610.58C325.692 1613.96 420.043 1613.7 514.261 1609.85C607.322 1606 700.206 1598.63 792.688 1587.71C826.067 1583.74 859.98 1583.39 866.723 1543.82C874.022 1501.12 873.265 1455.35 873.443 1412.09C873.51 1388.23 872.998 1364.35 871.93 1340.52C874.533 1328.39 877.271 1316.24 879.474 1303.98C883.101 1284 887.529 1264.13 893.982 1244.86C906.199 1208.38 925.893 1174.16 954.332 1147.99C980.523 1123.94 1014.06 1108 1050 1107.74C1063.68 1107.67 1077.43 1109.63 1090.5 1113.83C1096.19 1123.8 1101.96 1133.53 1104.81 1145.14C1107.99 1158.43 1107.45 1172.14 1107.39 1185.69C1107.23 1208.07 1108.32 1231.37 1123.32 1249.37C1138.52 1267.67 1162.48 1274.12 1185.09 1277.15C1207.48 1280.13 1233.29 1283.18 1256.9 1280.93C1273.01 1283 1288.01 1280.08 1294.35 1265.84C1301.01 1250.69 1294.82 1227.5 1292.71 1211.7ZM700.517 1303.34C703.343 1300.18 706.325 1297.4 709.195 1294.41C733.585 1293.39 757.929 1292.63 782.318 1292.39C782.496 1296.08 782.029 1299.75 779.225 1303.94C775.954 1308.81 770.991 1311.7 768.477 1317.27C761.645 1332.47 776.288 1341.9 775.798 1356.43C775.353 1370.12 758.663 1378.75 750.496 1387.68C743.175 1395.69 738.77 1404.43 738.302 1415.4C738.169 1418.52 739.504 1423.28 738.524 1426.22C736.121 1433.58 728.177 1440.81 720.388 1440.99C709.173 1441.28 698.359 1433.52 695.021 1422.81C689.546 1405.21 704.611 1387.36 707.949 1370.47C710.642 1356.72 707.838 1345.97 700.072 1334.69C692.573 1323.74 690.437 1314.78 700.517 1303.34ZM519.179 1301.53C526.322 1326.44 492.542 1336.29 476.187 1348.78C460.387 1360.75 458.696 1372.08 454.157 1389.97C449.439 1408.55 426.786 1409.82 411.587 1415.78C397.724 1421.19 387.532 1428.91 380.856 1442.48C376.428 1451.52 373.668 1465.54 362.342 1468.5C341.224 1474.08 336.573 1448.47 337.263 1434.34C337.486 1430.07 337.908 1425.95 337.196 1421.61C336.328 1416.16 332.234 1410.73 331.967 1405.39C331.277 1390.95 345.385 1385.36 356.022 1380.27C371.599 1372.83 383.793 1363.46 386.442 1345.51C388.177 1333.76 383.904 1319.96 390.714 1309.39C395.253 1302.43 402.263 1299.55 409.629 1297.53C446.123 1300.69 482.64 1301.71 519.179 1301.53ZM467.13 1193.52C466.552 1169.31 449.061 1146.23 421.067 1149.35C410.029 1150.57 395.965 1156.71 385.64 1150.37C378.052 1145.72 374.469 1134.66 370.686 1127.01C364.3 1114.12 356.355 1101.24 340.934 1098.92C326.67 1096.74 314.009 1106.53 301.013 1096.5C296.63 1093.12 293.202 1088.11 290.243 1083.5C284.947 1075.4 282.588 1072.18 285.77 1062.52C289.464 1051.46 290.532 1053.42 301.592 1055.38C304.641 1055.89 307.578 1056.89 310.582 1057.56C315.344 1058.58 320.35 1059.63 325.202 1059.67C336.194 1059.83 346.587 1055.93 356.623 1051.86C367.794 1047.32 379.966 1040.82 392.116 1044.92C402.286 1048.32 409.072 1057.93 419.398 1061.49C439.603 1068.35 454.446 1053.44 472.805 1048.5C496.437 1042.16 515.908 1073.36 539.006 1077.72C544.058 1078.67 549.176 1078.96 554.249 1078.67C525.61 1117.22 496.504 1155.49 467.13 1193.52ZM757.284 951.833C780.916 972.951 757.506 1007.35 743.309 1028.36C729.49 1048.85 702.586 1083.86 676.172 1061.05C658.682 1046.03 648.579 1024 632.624 1007.93C651.561 981.829 670.409 955.683 689.012 929.358C690.436 927.333 691.883 925.33 693.307 923.327C712.756 935.766 738.814 935.321 757.284 951.833ZM704.366 781.889C691.015 779.463 676.462 784.603 663.756 779.173C653.297 774.701 646.331 764.331 636.095 759.035C625.97 753.85 614.465 752.715 604.162 748.154C594.794 743.97 580.819 734.913 594.438 722.741C598.354 719.225 607.211 718.868 611.885 718.646C635.005 717.489 650.849 719.114 667.672 701.044C675.972 692.121 684.873 685.623 697.891 686.268C713.179 687.07 717.696 697.996 729.935 703.715C750.408 713.328 765.473 687.671 787.503 695.326C795.269 698.018 802.345 703.203 809.133 705.517C805.06 713.216 800.899 720.827 796.604 728.348C779.47 758.434 760.866 787.674 741.595 816.425C736.121 800.114 718.986 784.581 704.366 781.889ZM822.774 771.229C837.549 773.877 852.325 777.549 866.434 782.667C882.5 788.52 902.505 800.336 896.942 820.653C892.87 835.629 880.497 850.116 871.863 862.755C862.383 876.552 852.525 890.081 842.022 903.099C837.661 908.573 832.721 915.984 826.357 919.188C814.852 924.996 804.616 917.453 796.716 910.176C776.221 891.306 768.254 862.422 750.118 842.461C766.919 817.961 783.297 793.06 798.74 767.714C806.084 770.095 814.518 769.738 822.774 771.229ZM925.225 336.099C937.153 329.134 954.799 319.12 969.285 320.433C989.291 322.28 993.919 350.229 998.281 366.34C1002.78 382.963 1005.71 399.986 1006.87 417.188C1008.41 439.619 1013.79 499.212 985.352 508.024C968.663 513.209 950.304 507.868 932.413 501.103C927.451 498.677 922.332 496.452 917.637 493.582C911.651 489.955 905.888 485.771 899.79 482.255C902.105 442.801 899.101 403.191 889.332 364.85C900.925 354.458 911.651 344.043 925.225 336.099ZM885.104 574.159C901.771 571.177 918.193 567.527 935.083 565.658C948.591 564.123 967.861 560.496 980.123 568.195C995.61 577.92 989.78 602.932 987.599 617.663C984.885 636.022 981.503 654.425 976.941 672.427C969.041 703.536 948.168 757.499 906.889 737.361C892.803 730.507 879.852 720.338 868.569 709.678C860.336 701.912 853.327 691.208 844.359 684.021C861.182 648.706 875.223 612.167 885.104 574.159ZM873.51 523.312C865.81 515.145 857.221 506.355 848.431 501.971C830.784 493.159 809.645 509.871 794.29 499.167C787.681 494.561 783.72 485.927 777.334 480.742C771.704 476.18 765.027 472.865 757.996 471.129C750.808 469.304 743.553 469.282 736.21 470.439C729.134 471.529 724.928 475.512 719.543 469.193C714.358 463.14 717.229 457.065 721.167 450.656C734.63 428.781 756.883 435.703 778.113 434.99C793.467 434.479 805.327 428.248 813.539 415.185C817.166 409.422 819.169 402.056 823.53 396.782C831.875 386.59 845.671 390.974 856.776 386.301C862.339 383.987 866.678 380.426 870.105 376.131C881.498 424.91 881.543 474.511 873.51 523.312ZM803.881 104.159C821.527 110.256 836.615 120.536 849.388 133.777C844.269 137.159 839.307 140.675 834.434 144.369C810.267 162.884 787.036 187.183 772.928 215.177C757.44 212.774 742.041 209.369 726.686 205.698C729.579 194.438 726.285 180.663 726.33 169.514C726.374 149.91 726.775 113.26 746.179 101.421C761.422 92.1194 788.282 98.7734 803.881 104.159ZM717.652 19.4421C739.815 24.8495 744.066 58.2068 747.982 80.5931C745.757 81.2829 743.554 82.0389 741.417 82.9957C719.098 92.6757 712.155 120.381 709.262 142.322C707.415 156.185 704.1 183.557 709.774 201.626C697.424 198.622 685.096 195.573 672.723 192.88C679.332 172.163 684.584 150.778 690.036 129.771C694.108 114.195 697.847 96.9265 691.861 81.3496C688.456 72.3817 682.648 66.1061 675.461 61.8336C685.786 42.7185 692.439 13.2336 717.652 19.4421ZM526.144 122.784C519.29 89.9391 583.334 79.5911 603.873 76.1864C630.51 71.8026 679.221 65.6165 674.859 106.228C671.855 134.244 660.172 161.615 653.63 189.119C637.742 186.293 621.72 184.358 605.542 184.18C591.167 184.002 577.926 185.804 565.487 189.186C561.103 180.107 555.14 171.985 549.665 163.395C542.3 151.846 529.015 136.358 526.144 122.784ZM331.455 650.597C316.857 665.507 302.281 682.129 279.272 677.345C257.509 672.806 239.395 657.34 218.054 651.109C196.069 644.656 166.095 654.558 147.135 640.806C126.819 626.075 122.635 587.978 121.99 565.035C120.543 511.896 139.414 448.298 185.143 416.943C224.842 389.728 275.867 379.025 321.085 362.758C316.434 374.396 317.102 388.66 323.288 399.92C332.79 417.232 345.496 427.602 334.837 448.075C328.562 460.091 319.527 470.795 316.189 484.214C313.096 496.564 316.434 507.868 323.889 517.882C328.829 524.491 335.794 529.832 339.933 536.93C347.143 549.236 342.137 563.277 338.621 575.873C334.437 590.938 330.387 607.449 337.819 622.247C340.334 627.209 343.85 631.838 348.167 635.243C342.203 639.894 336.706 645.212 331.455 650.597ZM405.623 784.069C406.959 785.694 408.605 787.23 410.452 788.654C417.707 794.128 430.814 792.837 436.733 798.378C443.164 804.431 439.848 814.467 447.948 820.297C458.474 827.841 474.918 825.637 486.935 826.171C493.722 826.505 500.62 826.639 507.185 828.575C519.424 832.135 522.851 839.056 527.791 849.982C531.574 858.26 535.557 864.358 543.034 869.498C552.291 875.884 573.52 879.957 574.611 893.642C576.613 918.142 540.386 915.427 526.1 912.446C513.216 909.731 500.687 905.48 487.424 904.835C476.498 904.323 469.867 904.724 459.987 899.472C456.115 897.403 453.066 894.399 448.749 892.908C430.457 886.477 413.011 896.98 396.344 903.255C379.61 909.531 371.154 907.572 356.467 897.736C348.456 892.373 340.601 888.702 330.743 887.967C328.785 887.812 326.67 887.79 324.534 887.901C351.616 853.342 378.698 818.761 405.623 784.069ZM32.8448 1268.51C40.0325 1247.57 55.0089 1230.19 68.4718 1213.06C85.7844 1190.96 103.119 1168.89 120.477 1146.79C124.727 1151.62 130.379 1155.71 135.964 1158.87C144.865 1163.92 146.601 1167.15 151.831 1176.41C153.945 1180.1 155.703 1183.66 158.84 1186.6C165.049 1192.41 172.993 1194.5 181.16 1195.59C193.354 1197.21 205.905 1195.08 217.009 1201.46C226.911 1207.16 233.854 1217.35 242.822 1224.41C249.898 1229.99 256.463 1233.31 265.364 1234.6C274.933 1236.02 311.962 1232.82 294.115 1250C284.146 1259.57 274.043 1271.81 262.427 1279.35C248.452 1288.43 231.874 1279.88 216.452 1280.57C205.593 1281.04 195.09 1284.07 185.566 1289.32C175.441 1294.95 165.672 1310.04 153.589 1308.81C143.13 1307.77 133.294 1298.17 123.614 1294.37C114.468 1290.7 105.589 1289.81 95.8647 1291.9C77.7287 1295.82 40.2329 1324.52 27.0147 1297.49C26.9702 1297.49 26.9482 1297.42 26.9482 1297.42C27.9273 1287.63 29.6627 1277.9 32.8448 1268.51ZM231.696 1589.64C204.881 1588.71 178.022 1587.51 151.207 1585.97C130.312 1584.77 109.394 1583.43 88.4991 1581.83C78.5076 1581.07 66.8693 1580.63 56.3437 1577.85C64.4437 1574.91 71.8761 1569.75 77.7286 1563.58C83.1805 1557.82 87.5643 1550.83 90.1011 1543.29C93.6838 1532.47 91.1922 1518.25 102.185 1511.78C110.352 1506.95 118.473 1505.57 125.016 1498.09C131.002 1491.26 133.583 1482.72 135.141 1473.93C139.28 1450.27 140.326 1431.58 162.69 1417.56C172.237 1411.6 182.806 1407.66 193.599 1404.68C198.939 1403.23 208.375 1398.85 210.622 1408.64C211.602 1413.07 203.947 1422.97 202.011 1426.53C194.311 1440.73 187.613 1458.86 199.073 1473.08C207.351 1483.38 222.483 1482.47 218.611 1501.16C216.586 1510.89 209.02 1518.81 207.685 1529.05C206.528 1537.68 208.486 1545.78 212.647 1553.39C218.233 1563.65 234.344 1576.6 231.696 1589.64ZM599.066 1584.12C575.479 1585.68 551.846 1586.99 528.191 1588.08C519.624 1588.48 511.035 1588.84 502.423 1589.17C507.652 1581.47 510.923 1571.64 511.791 1564.54C514.773 1540.26 497.883 1519.03 499.931 1495.2C501.755 1474.08 529.259 1467.58 536.803 1448.09C544.124 1429.33 536.625 1395.86 561.482 1389.26C575.056 1385.67 587.206 1394.22 589.342 1407.79C591.412 1420.85 581.331 1429.13 576.903 1440.35C570.516 1456.75 578.683 1466.36 588.185 1478.78C597.376 1490.8 593.014 1497.65 587.362 1510.18C584.357 1516.79 581.398 1523.8 581.887 1531.23C582.399 1538.99 586.271 1543.64 590.054 1550.05C596.485 1561.05 599.779 1571.88 599.066 1584.12ZM849.432 1492.84C848.476 1509.35 850.589 1532.18 843.958 1547.65C834.879 1568.81 798.518 1565.72 778.824 1567.97C725.507 1574.11 672.056 1579.03 618.56 1582.81C618.894 1576.47 618.271 1569.93 617.314 1564.34C616.224 1557.78 614.31 1551.52 610.794 1545.83C608.502 1542.15 603.962 1538.5 602.516 1534.61C597.754 1522.06 611.083 1509.24 613.286 1497.16C614.822 1488.66 613.13 1481.16 608.68 1473.9C605.965 1469.48 601.604 1466.29 598.733 1462.04C592.235 1452.36 595.15 1446.18 600.446 1437.08C605.275 1428.8 609.013 1420.7 608.835 1410.84C608.479 1391.97 595.306 1374.3 576.569 1370.34C557.743 1366.31 537.961 1375.97 529.46 1393.13C525.032 1402.09 524.208 1412 523.007 1421.72C522.027 1429.44 521.671 1438.17 517.532 1445.07C513.215 1452.19 505.672 1455.88 499.307 1460.84C480.504 1475.51 478.501 1497.2 484.131 1519.3C487.98 1534.54 496.615 1550.65 492.81 1566.72C490.696 1575.64 483.486 1582.03 480.86 1589.91C412.878 1592.16 344.851 1592.51 276.847 1590.95C268.146 1590.78 259.467 1590.51 250.744 1590.26C252.347 1572.8 237.17 1560.71 229.003 1543.85C218.121 1521.39 250.878 1499.43 232.964 1476.15C225.153 1466.03 207.708 1464.47 212.381 1447.56C215.719 1435.41 225.153 1425.86 228.246 1413.49C233.231 1393.39 220.013 1381.27 200.342 1384.43C180.047 1387.7 157.883 1396.44 142.217 1409.97C126.062 1423.95 121.122 1441.26 118.629 1461.69C116.493 1478.71 113.845 1486.7 97.4001 1494.36C88.5435 1498.49 81.2448 1502.81 77.5731 1512.2C73.3673 1522.97 75.7485 1534.7 69.629 1545.11C62.0853 1557.89 50.0691 1563.05 36.9622 1567.26C24.5897 1553.97 27.4598 1531.25 27.0147 1514.27C26.4584 1493.11 26.0355 1471.99 25.7462 1450.83C25.1676 1408.9 24.8786 1366.94 25.5907 1325.01C25.6352 1322.41 25.7018 1319.78 25.7686 1317.18C29.5738 1320.47 34.4698 1322.81 40.211 1324.01C60.9283 1328.28 76.2826 1315.51 95.153 1309.97C117.918 1303.25 131.381 1324.68 152.343 1327.75C173.817 1330.91 183.519 1309.92 201.544 1303.03C223.863 1294.53 247.985 1310.39 269.259 1298.13C278.583 1292.77 286.237 1283.98 293.981 1276.68C301.569 1269.54 312.117 1262.28 317.391 1253.05C325.514 1238.72 315.967 1223.72 301.792 1218.47C292.29 1214.95 282.565 1217.38 272.73 1216.62C259.267 1215.53 252.079 1207.18 242.755 1198.22C225.799 1181.86 210.956 1178.43 188.058 1176.76C176.954 1175.92 173.038 1173.78 167.363 1163.59C165.227 1159.74 163.736 1155.98 160.754 1152.64C156.393 1147.77 132.983 1137.91 133.606 1129.99C137.989 1124.43 142.351 1118.88 146.735 1113.3C201.098 1044.03 255.862 974.998 310.359 905.748C315.188 903.901 320.262 902.632 326.181 903.033C342.247 904.123 350.125 917.586 364.166 922.882C384.194 930.47 402.953 918.454 421.423 912.001C427.275 909.976 433.907 907.616 440.182 908.952C446.902 910.376 450.418 915.917 456.115 918.899C466.485 924.307 476.009 922.125 487.313 922.771C515.663 924.373 545.126 942.665 572.675 926.754C589.698 916.919 599.467 893.909 587.295 876.574C582.333 869.453 574.856 865.292 567.334 861.487C562.372 858.994 556.697 857.014 552.269 853.542C544.859 847.734 544.569 839.39 540.341 831.69C528.303 809.727 502.356 808.458 480.326 807.702C468.532 807.301 464.059 807.346 457.094 796.152C454.802 792.481 454.157 789.187 450.841 786.072C445.145 780.664 417.929 776.971 418.864 767.825C418.908 767.469 418.864 767.18 418.864 766.846C440.137 739.386 461.277 711.859 482.306 684.243C486.223 684.889 490.206 685.379 494.345 685.623C522.428 687.181 551.134 679.37 575.456 665.417C627.706 635.376 656.857 578.387 665.024 520.218C665.959 513.676 657.302 510.961 654.965 517.414C638.409 564.123 614.532 614.414 571.562 642.497C521.916 674.942 477.678 667.643 429.767 637.913C413.145 627.61 394.319 618.398 374.203 622.381C372.467 622.737 370.753 623.182 369.084 623.716C335.193 613.591 367.237 564.991 361.029 539.778C358.047 527.517 349.524 519.573 341.691 510.271C331.21 497.854 332.946 487.596 340.467 474.155C349.902 457.31 362.742 439.975 355.421 419.747C351.527 409.044 342.581 401.455 337.285 391.575C330.053 378.112 334.481 365.295 342.759 354.302C382.747 338.302 421.467 318.987 455.225 291.883C501.021 255.166 535.49 206.632 599.623 205.297C656.234 204.095 709.797 227.906 766.007 230.91C761 244.996 758.418 259.794 759.219 275.149C759.442 279.221 764.739 279.799 766.118 276.083C783.565 229.196 807.931 188.14 849.054 158.433C870.328 143.056 893.76 130.862 918.149 121.204C929.209 116.82 940.824 112.013 952.44 109.299C970.799 104.937 978.031 116.019 977.809 132.487C977.164 180.708 948.123 230.22 917.793 265.847C901.748 284.65 883.101 301.986 859.869 311.354C835.124 321.323 808.955 320.099 782.897 321.078C778.357 321.256 776.443 327.398 780.538 329.779C804.17 343.598 831.808 342.842 857.399 334.252C860.314 342.063 862.917 349.851 865.209 357.684C858.422 364.071 851.903 369.634 841.399 370.858C832.765 371.881 825.399 371.214 817.856 376.309C800.765 387.814 802.257 415.096 778.09 416.454C758.419 417.589 740.883 412.092 722.992 423.197C709.418 431.608 699.004 446.895 697.98 463.051C697.046 478.517 706.191 491.868 722.703 491.579C734.141 491.401 743.821 485.726 755.37 489.509C767.409 493.426 772.505 504.219 781.072 512.297C795.759 526.093 810.134 519.417 827.558 517.481C847.852 515.234 853.037 539.289 869.393 544.874C859.09 593.207 841.332 640.539 819.391 685.245C818.056 685.534 816.743 686.157 815.608 687.18C813.005 689.495 792.376 677.011 787.458 675.965C777.445 673.784 766.697 674.83 757.261 678.658C753.479 680.193 750.296 682.908 746.625 684.421C738.458 687.826 734.541 684.065 728.088 679.058C721.234 673.696 713.513 670.268 704.901 668.867C684.406 665.462 668.717 674.118 654.965 688.271C641.569 702.135 629.998 699.776 611.862 700.532C603.406 700.888 594.905 702.135 587.295 706.096C572.452 713.862 565.732 730.418 574.01 745.684C585.692 767.247 610.594 765.199 629.242 775.992C638.721 781.444 645.241 790.767 655.144 795.596C665.447 800.603 676.306 799.513 687.343 799.223C702.475 798.756 714.803 800.937 722.792 815.49C726.53 822.233 727.154 829.287 727.91 836.475C712.934 858.394 697.602 880.09 682.336 901.809C646.532 952.656 610.081 1003.06 573.142 1053.1C552.959 1064.39 532.865 1057.07 513.371 1042.25C497.884 1030.5 482.351 1024.6 463.369 1031.88C453.934 1035.44 444.944 1042.34 434.952 1044.07C421.089 1046.54 412.232 1032.97 400.616 1027.8C380.255 1018.77 361.14 1030.99 342.114 1037.42C319.661 1045.03 296.452 1027.92 275.022 1039.42C255.195 1050.06 261.225 1070.42 270.237 1086.53C278.805 1101.84 291.422 1118.4 310.204 1120.42C322.109 1121.73 336.395 1113.01 345.941 1122.16C352.372 1128.32 355.221 1139.02 359.36 1146.72C368.839 1164.37 382.77 1173.72 403.265 1171.4C419.376 1169.55 439.047 1161.45 446.591 1181.97C451.197 1194.39 446.123 1207.34 446.479 1220.07C431.058 1239.85 415.592 1259.54 400.038 1279.22C398.658 1280.95 397.813 1282.89 397.457 1284.78C392.383 1286.27 387.509 1288.92 383.526 1292.21C362.342 1309.84 379.031 1341.12 360.272 1357.21C345.875 1369.52 324.201 1370.63 315.678 1390.01C311.717 1399.05 313.608 1406.52 316.189 1415.56C319.705 1428.09 316.812 1439.7 319.349 1452.21C322.91 1469.7 336.083 1485.19 354.575 1486.94C375.938 1488.95 386.62 1474.71 394.341 1457.1C404.066 1435.07 420.688 1432.89 441.294 1425.19C456.137 1419.63 468.265 1411.09 471.892 1394.82C475.63 1378.13 477.878 1368.94 493.455 1359.15C503.424 1352.87 514.172 1348 523.096 1340.17C533.554 1330.98 541.432 1314.91 538.584 1301.2C579.662 1300.51 620.785 1298.51 661.908 1296.48C668.807 1296.15 675.727 1295.84 682.626 1295.5C677.864 1301.6 674.637 1308.72 673.88 1316.44C672.946 1326.35 676.595 1334.09 682.203 1342.06C693.997 1358.92 688.478 1370.81 681.557 1387.92C673.836 1406.9 671.188 1426.42 684.785 1443.48C695.555 1457.06 713.713 1463.11 730.536 1458.91C750.964 1453.83 756.995 1439.99 757.862 1420.7C758.908 1397.73 780.226 1392.33 790.529 1374.1C794.602 1366.98 795.892 1358.97 794.846 1350.85C794.223 1346.24 791.975 1342.44 790.974 1338.03C787.992 1325.32 789.595 1322.79 796.026 1314.17C800.61 1308.08 803.392 1299.29 802.858 1291.34C820.015 1290.25 842.957 1289.67 848.008 1299.84C851.569 1307.03 849.521 1323.65 849.922 1331.38C850.501 1343.06 850.967 1354.74 851.301 1366.42C852.481 1408.62 851.858 1450.78 849.432 1492.84Z" fill="#3D2938"/>
<path d="M807.396 299.627C840.13 299.048 874.2 283.916 898.678 262.354C915.412 247.622 942.916 208.457 924.669 186.004C907.645 165.02 873.687 191.056 859.601 202.783C846.784 213.442 835.902 226.081 825.733 239.322C818.879 248.223 809.911 258.081 806.106 269.118C803.057 274.859 800.454 280.912 798.006 287.343C795.78 293.24 801.522 299.738 807.396 299.627ZM824.865 272.167C834.077 262.286 841.554 248.735 849.387 239.789C862.093 225.414 881.298 203.539 900.925 199.222C916.791 195.773 907.423 218.338 903.128 226.193C896.608 238.254 886.683 248 875.468 255.7C859.691 266.581 841.287 275.327 822.195 278.709C823.062 276.506 823.975 274.325 824.865 272.167Z" fill="#3D2938"/>
<path d="M259.158 445.113C243.87 438.104 218.88 435.856 205.996 449.186C196.561 458.977 198.275 474.887 201.523 489.619C199.921 507.866 204.683 526.714 211.937 543.626C215.209 551.17 225.757 547.832 227.982 541.535C236.66 516.745 267.258 512.183 278.318 489.596C287.107 471.705 275.848 452.768 259.158 445.113Z" fill="#3D2938"/>
<path d="M625.145 318.094C577.035 284.715 525.409 359.641 573.319 392.842C592.879 406.416 623.032 400.942 636.606 381.382C645.129 369.076 646.152 352.631 640.878 338.701C637.785 330.468 632.444 323.146 625.145 318.094Z" fill="#3D2938"/>
</g>
<defs>
<filter id="filter0_d_403_14877" x="0.015625" y="0.356445" width="1301.34" height="1620.6" filterUnits="userSpaceOnUse" color-interpolation-filters="sRGB">
<feFlood flood-opacity="0" result="BackgroundImageFix"/>
<feColorMatrix in="SourceAlpha" type="matrix" values="0 0 0 0 0 0 0 0 0 0 0 0 0 0 0 0 0 0 127 0" result="hardAlpha"/>
<feOffset dy="4"/>
<feGaussianBlur stdDeviation="2"/>
<feComposite in2="hardAlpha" operator="out"/>
<feColorMatrix type="matrix" values="0 0 0 0 0 0 0 0 0 0 0 0 0 0 0 0 0 0 0.25 0"/>
<feBlend mode="normal" in2="BackgroundImageFix" result="effect1_dropShadow_403_14877"/>
<feBlend mode="normal" in="SourceGraphic" in2="effect1_dropShadow_403_14877" result="shape"/>
</filter>
</defs>
</svg>
