<svg width="255" height="347" viewBox="0 0 255 347" fill="none" xmlns="http://www.w3.org/2000/svg">
<path d="M222.581 50.8828C207.664 27.9691 186.142 8.07619 158.487 2.78089C114.736 -5.59656 72.1078 10.9544 42.4318 43.5057C38.3884 47.9404 34.6803 52.6153 31.2851 57.4942C9.19023 89.2604 0.499802 129.642 0.782031 168.083C1.05029 204.497 9.07287 241.332 25.0063 274.135C39.5536 304.084 64.7782 328.627 96.4801 339.492C126.572 349.803 165.269 345.43 192.405 328.672C236.924 301.184 251.234 245.311 254.35 196.415C257.418 148.269 249.39 92.0631 222.581 50.8828ZM174.208 134.467C180.978 162.252 180.772 191.659 174.012 219.446C169.751 236.961 161.175 257.047 141.925 261.881C125.491 266.009 108.026 255.994 98.6597 241.871C89.293 227.751 86.4288 210.376 84.7522 193.515C81.6505 162.268 82.5 128.521 100.174 102.564C107.518 91.7809 120.788 79.8518 134.939 83.0094C157.827 88.1147 168.966 113.317 174.046 133.822C174.102 134.037 174.155 134.252 174.208 134.467Z" fill="#EE1424"/>
<path d="M166.229 13.3157C153.297 11.8375 140.317 12.075 127.74 14.3384C124.594 14.8554 121.495 15.6602 118.393 16.3364C115.35 17.2893 112.248 17.9963 109.278 19.142C106.293 20.229 103.295 21.2517 100.409 22.5762C97.4633 23.747 94.641 25.1861 91.8243 26.6308C80.591 32.4514 70.2659 39.9319 61.1591 48.6586C51.9908 57.3323 43.9291 67.1209 37.5748 78.044C34.2299 83.3952 31.416 89.0677 28.7279 94.7961C26.2129 100.606 23.8433 106.493 21.9236 112.551C17.7992 124.584 15.2926 137.145 13.3394 149.783C9.85483 175.159 10.1175 201.135 13.4707 226.924C6.68324 201.783 4.48409 175.265 6.84252 149.026C9.31552 122.851 16.5752 96.646 30.4045 73.7128C37.2618 62.2615 45.8936 51.8135 55.7772 42.8576C65.7195 33.9744 76.7739 26.206 88.9628 20.7766C101.065 15.241 114.014 11.5078 127.187 10.2866C140.343 9.08787 153.63 10.0184 166.229 13.3157Z" fill="white"/>
<path d="M181.792 144.356C186.875 157.719 189.538 172.054 190.175 186.476C190.575 193.696 190.253 200.939 189.65 208.157C188.957 215.369 187.722 222.528 186.14 229.604C184.427 236.673 182.206 243.757 178.886 250.472C175.496 257.094 171.078 263.58 164.841 268.249C158.688 272.972 150.968 275.607 143.381 275.375C135.8 275.107 128.677 272.304 122.996 267.981C129.585 270.689 136.582 272.114 143.216 271.265C149.839 270.544 155.919 267.489 160.675 263.206C165.386 258.793 169.061 253.216 171.718 247.063C174.485 240.957 176.491 234.416 177.983 227.687C179.649 220.961 180.856 214.126 181.786 207.254C182.806 200.386 183.287 193.45 183.659 186.49C184.245 172.554 183.494 158.532 181.792 144.356Z" fill="white"/>
<mask id="mask0_403_11171" style="mask-type:luminance" maskUnits="userSpaceOnUse" x="0" y="1" width="255" height="346">
<path d="M222.581 51.9924C207.664 29.0788 186.142 9.18577 158.487 3.89048C114.736 -4.48698 72.1078 12.0612 42.4318 44.6153C38.3884 49.05 34.6803 53.7249 31.2851 58.6038C9.19023 90.37 0.499802 130.751 0.782031 169.193C1.05029 205.606 9.07287 242.441 25.0063 275.244C39.5536 305.194 64.7782 329.737 96.4801 340.601C126.572 350.912 165.269 346.539 192.405 329.781C236.924 302.291 251.234 246.42 254.35 197.525C257.418 149.378 249.39 93.1727 222.581 51.9924ZM174.208 135.577C180.978 163.361 180.772 192.769 174.012 220.556C169.751 238.071 161.175 258.157 141.925 262.991C125.491 267.118 108.026 257.103 98.6597 242.981C89.293 228.858 86.4288 211.485 84.7522 194.624C81.6505 163.378 82.5 129.631 100.174 103.674C107.518 92.8877 120.788 80.9614 134.939 84.119C157.827 89.2243 168.966 114.427 174.046 134.931C174.102 135.147 174.155 135.362 174.208 135.577Z" fill="white"/>
</mask>
<g mask="url(#mask0_403_11171)">
<path opacity="0.2" d="M192.316 78.9719C192.316 83.0489 189.01 86.3574 184.93 86.3574C180.853 86.3574 177.545 83.0517 177.545 78.9719C177.545 74.8922 180.851 71.5864 184.93 71.5864C189.01 71.5892 192.316 74.8949 192.316 78.9719Z" fill="black"/>
<path opacity="0.5" d="M57.2533 133.381C57.2533 137.46 53.9476 140.766 49.8679 140.766C45.7881 140.766 42.4824 137.46 42.4824 133.381C42.4824 129.301 45.7881 125.995 49.8679 125.995C53.9476 125.995 57.2533 129.301 57.2533 133.381Z" fill="#FFFDFD"/>
<path d="M35.1009 213.5C37.5253 213.5 39.4908 211.535 39.4908 209.11C39.4908 206.686 37.5253 204.72 35.1009 204.72C32.6764 204.72 30.7109 206.686 30.7109 209.11C30.7109 211.535 32.6764 213.5 35.1009 213.5Z" fill="#FFFDFD"/>
<path d="M100.467 326.925C102.31 326.925 103.804 325.432 103.804 323.589C103.804 321.746 102.31 320.252 100.467 320.252C98.6246 320.252 97.1309 321.746 97.1309 323.589C97.1309 325.432 98.6246 326.925 100.467 326.925Z" fill="#FFFDFD"/>
<path opacity="0.5" d="M94.1378 223.803C94.1378 225.647 92.6428 227.139 90.8013 227.139C88.9598 227.139 87.4648 225.644 87.4648 223.803C87.4648 221.961 88.9598 220.466 90.8013 220.466C92.6456 220.466 94.1378 221.961 94.1378 223.803Z" fill="#FFFDFD"/>
<path d="M138.591 65.9756C138.591 67.8171 137.096 69.3121 135.254 69.3121C133.413 69.3121 131.918 67.8171 131.918 65.9756C131.918 64.1313 133.413 62.6392 135.254 62.6392C137.096 62.6392 138.591 64.1313 138.591 65.9756Z" fill="#FFFDFD"/>
<path opacity="0.5" d="M212.669 48.3907C212.669 50.2321 211.174 51.7271 209.333 51.7271C207.488 51.7271 205.996 50.2321 205.996 48.3907C205.996 46.5464 207.491 45.0542 209.333 45.0542C211.177 45.0542 212.669 46.5464 212.669 48.3907Z" fill="#FFFDFD"/>
<path opacity="0.2" d="M233.264 223.803C235.107 223.803 236.601 222.309 236.601 220.466C236.601 218.624 235.107 217.13 233.264 217.13C231.422 217.13 229.928 218.624 229.928 220.466C229.928 222.309 231.422 223.803 233.264 223.803Z" fill="black"/>
<path d="M94.1372 100.684C95.9799 100.684 97.4737 99.1904 97.4737 97.3477C97.4737 95.505 95.9799 94.0112 94.1372 94.0112C92.2946 94.0112 90.8008 95.505 90.8008 97.3477C90.8008 99.1904 92.2946 100.684 94.1372 100.684Z" fill="#FFFDFD"/>
<path d="M162.288 223.803C162.288 225.647 160.793 227.139 158.952 227.139C157.107 227.139 155.615 225.644 155.615 223.803C155.615 221.961 157.11 220.466 158.952 220.466C160.796 220.466 162.288 221.961 162.288 223.803Z" fill="#FFFDFD"/>
<path d="M77.5577 168.067C77.5577 169.908 76.0627 171.403 74.2212 171.403C72.3797 171.403 70.8848 169.908 70.8848 168.067C70.8848 166.223 72.3797 164.73 74.2212 164.73C76.0655 164.73 77.5577 166.225 77.5577 168.067Z" fill="#FFFDFD"/>
<path d="M240.988 94.9415C243.412 94.9415 245.377 92.976 245.377 90.5515C245.377 88.1271 243.412 86.1616 240.988 86.1616C238.563 86.1616 236.598 88.1271 236.598 90.5515C236.598 92.976 238.563 94.9415 240.988 94.9415Z" fill="#FFFDFD"/>
<path d="M194.567 123.936C194.567 126.361 192.603 128.326 190.177 128.326C187.752 128.326 185.787 126.361 185.787 123.936C185.787 121.51 187.752 119.546 190.177 119.546C192.603 119.549 194.567 121.513 194.567 123.936Z" fill="#FFFDFD"/>
<path d="M165.038 24.7056C167.463 24.7056 169.428 22.7402 169.428 20.3157C169.428 17.8912 167.463 15.9258 165.038 15.9258C162.614 15.9258 160.648 17.8912 160.648 20.3157C160.648 22.7402 162.614 24.7056 165.038 24.7056Z" fill="#FFFDFD"/>
<path d="M45.4817 74.7549C47.9062 74.7549 49.8716 72.7895 49.8716 70.365C49.8716 67.9405 47.9062 65.9751 45.4817 65.9751C43.0572 65.9751 41.0918 67.9405 41.0918 70.365C41.0918 72.7895 43.0572 74.7549 45.4817 74.7549Z" fill="#FFFDFD"/>
<path d="M155.696 116.83C155.696 119.253 153.731 121.22 151.306 121.22C148.88 121.22 146.916 119.255 146.916 116.83C146.916 114.404 148.88 112.44 151.306 112.44C153.731 112.44 155.696 114.407 155.696 116.83Z" fill="#FFFDFD"/>
<path d="M120.488 281.383C122.912 281.383 124.877 279.418 124.877 276.993C124.877 274.569 122.912 272.604 120.488 272.604C118.063 272.604 116.098 274.569 116.098 276.993C116.098 279.418 118.063 281.383 120.488 281.383Z" fill="#FFFDFD"/>
<path opacity="0.5" d="M198.954 209.11C198.954 211.536 196.989 213.5 194.564 213.5C192.138 213.5 190.174 211.536 190.174 209.11C190.174 206.685 192.138 204.72 194.564 204.72C196.989 204.72 198.954 206.685 198.954 209.11Z" fill="#FFFDFD"/>
<path opacity="0.5" d="M177.548 328.538C179.973 328.538 181.938 326.572 181.938 324.148C181.938 321.723 179.973 319.758 177.548 319.758C175.124 319.758 173.158 321.723 173.158 324.148C173.158 326.572 175.124 328.538 177.548 328.538Z" fill="#FFFDFD"/>
<path d="M135.255 162.456C135.255 166.535 131.95 169.841 127.87 169.841C123.793 169.841 120.484 166.535 120.484 162.456C120.484 158.376 123.79 155.07 127.87 155.07C131.947 155.073 135.255 158.379 135.255 162.456Z" fill="#FFFDFD"/>
<path d="M108.906 48.3909C108.906 52.4706 105.6 55.7763 101.52 55.7763C97.4405 55.7763 94.1348 52.4706 94.1348 48.3909C94.1348 44.3111 97.4405 41.0054 101.52 41.0054C105.6 41.0054 108.906 44.3111 108.906 48.3909Z" fill="#FFFDFD"/>
<path opacity="0.2" d="M66.8276 269.608C66.8276 273.685 63.5219 276.994 59.4421 276.994C55.3624 276.994 52.0566 273.688 52.0566 269.608C52.0566 265.528 55.3624 262.223 59.4421 262.223C63.5191 262.225 66.8276 265.531 66.8276 269.608Z" fill="black"/>
<path d="M209.339 281.85C209.339 285.93 206.034 289.235 201.954 289.235C197.874 289.235 194.568 285.93 194.568 281.85C194.568 277.773 197.874 274.464 201.954 274.464C206.031 274.464 209.339 277.77 209.339 281.85Z" fill="#FFFDFD"/>
<path d="M252.761 160.684C252.761 164.764 249.455 168.069 245.376 168.069C241.296 168.069 237.99 164.764 237.99 160.684C237.99 156.607 241.296 153.298 245.376 153.298C249.455 153.298 252.761 156.604 252.761 160.684Z" fill="#FFFDFD"/>
</g>
<g opacity="0.2">
<path d="M86.1926 233.024C90.5574 239.605 96.6938 245.269 103.652 249.053C101.489 246.831 99.5272 244.422 97.8367 241.874C88.47 227.754 85.6058 210.379 83.932 193.518C80.8303 162.271 81.6797 128.524 99.3512 102.567C106.695 91.784 119.965 79.8549 134.116 83.0125C137.136 83.6859 139.942 84.731 142.566 86.0471C137.159 80.3131 130.561 75.9679 122.472 74.1628C108.321 71.0079 95.0507 82.9342 87.7071 93.7176C70.0357 119.674 69.1834 153.422 72.2851 184.668C73.959 201.529 76.826 218.902 86.1926 233.024Z" fill="black"/>
<path d="M221.753 50.8829C212.601 36.8274 200.954 23.9258 186.944 14.8135C195.888 22.6824 203.623 32.0686 210.109 42.0333C236.918 83.2136 244.946 139.419 241.88 187.569C238.768 236.461 224.455 292.334 179.935 319.825C152.799 336.58 114.1 340.956 84.0109 330.645C74.4626 327.373 65.5179 322.84 57.2578 317.313C68.5023 326.959 81.4178 334.616 95.655 339.494C125.747 349.806 164.443 345.432 191.579 328.675C236.099 301.187 250.409 245.314 253.525 196.418C256.59 148.269 248.562 92.0633 221.753 50.8829Z" fill="black"/>
</g>
</svg>
