<svg width="255" height="347" viewBox="0 0 147 347" fill="none" xmlns="http://www.w3.org/2000/svg">
<path d="M63.4393 114.413C83.7374 102.5 104.036 90.5882 124.334 78.6759C103.309 66.6127 82.2872 54.5467 61.2625 42.4835C62.506 129.72 62.777 216.968 62.0812 304.213C61.9052 326.143 81.4852 347.137 103.996 346.129C126.857 345.106 145.725 327.714 145.912 304.213C146.608 216.968 146.334 129.723 145.093 42.4835C144.643 10.8989 109.77 -9.9916 82.0217 6.29107C61.7236 18.2034 41.4254 30.1157 21.1272 42.028C1.61709 53.4765 -5.35201 79.816 6.09085 99.3764C17.5393 118.948 43.8453 125.914 63.4393 114.413Z" fill="#3D56B2"/>
<path d="M106.616 11.335C101.343 12.7657 96.4673 14.8698 92.2087 17.8095C87.9054 20.8106 83.4093 24.0325 78.9244 26.9693C74.4702 30.032 69.8651 32.8347 65.3299 35.7576L51.4979 44.1434C46.8425 46.8623 42.1675 49.5477 37.4367 52.1409L30.3586 55.9691C28.2097 57.1455 26.1811 58.5511 24.2222 60.0796C16.507 66.3697 10.9546 75.591 8.42015 86.1928C7.42536 75.2892 11.5945 63.5949 19.7904 55.2677C21.8274 53.1831 24.0629 51.2467 26.5639 49.6818L33.4184 45.2975C37.9872 42.4305 42.6118 39.6613 47.256 36.9228L61.3228 28.9366C66.0871 26.4049 70.7817 23.7503 75.6243 21.3527C80.4557 18.8602 85.2033 16.5325 90.275 14.2048C95.5117 12.0252 101.151 10.9158 106.616 11.335Z" fill="white"/>
<path d="M69.8791 133.753C71.6088 148.823 72.5113 163.907 73.1233 178.991C73.5061 186.533 73.5899 194.077 73.8163 201.619L74.0427 224.251L73.8163 246.882C73.5816 254.427 73.5033 261.969 73.1121 269.511C72.4946 284.595 71.578 299.676 69.8288 314.746C68.0879 299.648 67.1797 284.564 66.5705 269.483C66.1821 261.941 66.1095 254.402 65.8804 246.863L65.668 224.245L65.9055 201.628C66.1346 194.088 66.224 186.549 66.6125 179.007C67.2272 163.932 68.141 148.848 69.8791 133.753Z" fill="white"/>
<mask id="mask0_403_11209" style="mask-type:luminance" maskUnits="userSpaceOnUse" x="0" y="0" width="147" height="347">
<path d="M63.4393 114.413C83.7374 102.5 104.036 90.5882 124.334 78.6759C103.309 66.6127 82.2872 54.5467 61.2625 42.4835C62.506 129.72 62.777 216.968 62.0812 304.213C61.9052 326.143 81.4852 347.137 103.996 346.129C126.857 345.106 145.725 327.714 145.912 304.213C146.608 216.968 146.334 129.723 145.093 42.4835C144.643 10.8989 109.77 -9.9916 82.0217 6.29107C61.7236 18.2034 41.4254 30.1157 21.1272 42.028C1.61709 53.4765 -5.35201 79.816 6.09085 99.3764C17.5393 118.948 43.8453 125.914 63.4393 114.413Z" fill="white"/>
</mask>
<g mask="url(#mask0_403_11209)">
<path opacity="0.2" d="M141.152 74.4233C141.957 78.422 139.367 82.3145 135.368 83.1193C131.369 83.924 127.477 81.3337 126.672 77.3349C125.867 73.3362 128.458 69.4437 132.456 68.6389C136.455 67.837 140.347 70.4245 141.152 74.4233Z" fill="black"/>
<path opacity="0.5" d="M19.4726 154.392C20.2774 158.391 17.687 162.284 13.6883 163.088C9.68957 163.893 5.79704 161.303 4.99227 157.304C4.18749 153.305 6.77785 149.413 10.7766 148.608C14.7725 147.806 18.6678 150.396 19.4726 154.392Z" fill="#FFFDFD"/>
<path d="M16.9885 232.136C17.4663 234.514 15.9266 236.828 13.5514 237.306C11.1734 237.784 8.85971 236.244 8.38187 233.869C7.90404 231.491 9.44371 229.177 11.8189 228.699C14.1941 228.221 16.5078 229.761 16.9885 232.136Z" fill="#FFFDFD"/>
<path d="M102.614 331.691C102.977 333.496 101.806 335.256 100.001 335.619C98.1957 335.983 96.4352 334.812 96.072 333.007C95.7087 331.202 96.8795 329.441 98.6847 329.078C100.49 328.715 102.25 329.885 102.614 331.691Z" fill="#FFFDFD"/>
<path opacity="0.5" d="M90.2229 224.591C90.5862 226.397 89.4153 228.157 87.6102 228.52C85.805 228.884 84.0446 227.713 83.6813 225.908C83.3181 224.102 84.4889 222.342 86.294 221.979C88.0992 221.615 89.8596 222.786 90.2229 224.591Z" fill="#FFFDFD"/>
<path d="M85.9221 72.2746C86.2853 74.0798 85.1145 75.8402 83.3094 76.2035C81.5042 76.5668 79.7438 75.3959 79.3805 73.5908C79.0173 71.7856 80.1881 70.0252 81.9933 69.6619C83.7984 69.2986 85.5588 70.4667 85.9221 72.2746Z" fill="#FFFDFD"/>
<path opacity="0.2" d="M140.272 301.693C140.635 303.498 139.464 305.258 137.659 305.621C135.854 305.985 134.093 304.814 133.73 303.009C133.367 301.204 134.538 299.443 136.343 299.08C138.151 298.717 139.908 299.885 140.272 301.693Z" fill="black"/>
<path d="M51.7952 111.138C52.1584 112.943 50.9876 114.704 49.1825 115.067C47.3773 115.43 45.6169 114.26 45.2536 112.454C44.8903 110.649 46.0612 108.889 47.8663 108.525C49.6715 108.159 51.4319 109.33 51.7952 111.138Z" fill="#FFFDFD"/>
<path d="M140.272 222.331C140.635 224.136 139.464 225.896 137.659 226.26C135.854 226.623 134.093 225.452 133.73 223.647C133.367 221.842 134.538 220.081 136.343 219.718C138.151 219.355 139.908 220.526 140.272 222.331Z" fill="#FFFDFD"/>
<path d="M46.2131 184.398C46.5764 186.203 45.4056 187.963 43.6004 188.327C41.7953 188.69 40.0348 187.519 39.6716 185.714C39.3083 183.909 40.4791 182.148 42.2843 181.785C44.0894 181.422 45.8499 182.59 46.2131 184.398Z" fill="#FFFDFD"/>
<path d="M141.309 143.203C141.787 145.579 140.247 147.895 137.872 148.373C135.494 148.851 133.18 147.311 132.702 144.936C132.224 142.561 133.764 140.244 136.139 139.766C138.514 139.288 140.831 140.825 141.309 143.203Z" fill="#FFFDFD"/>
<path d="M107.149 21.4312C107.626 23.8092 106.087 26.1229 103.712 26.6007C101.336 27.0785 99.0199 25.5388 98.542 23.1636C98.0642 20.7885 99.6039 18.4719 101.979 17.9941C104.354 17.5135 106.671 19.0532 107.149 21.4312Z" fill="#FFFDFD"/>
<path d="M112.715 118.758C113.193 121.136 111.653 123.45 109.278 123.928C106.9 124.406 104.586 122.866 104.108 120.491C103.631 118.116 105.17 115.799 107.545 115.321C109.923 114.843 112.237 116.383 112.715 118.758Z" fill="#FFFDFD"/>
<path d="M114.08 281.853C114.558 284.231 113.018 286.545 110.643 287.023C108.265 287.5 105.952 285.961 105.474 283.586C104.996 281.208 106.536 278.894 108.911 278.416C111.289 277.938 113.602 279.478 114.08 281.853Z" fill="#FFFDFD"/>
<path d="M101.676 167.519C102.48 171.518 99.8901 175.411 95.8914 176.215C91.8927 177.02 88.0002 174.43 87.1954 170.431C86.3906 166.432 88.981 162.54 92.9797 161.735C96.9784 160.933 100.871 163.521 101.676 167.519Z" fill="#FFFDFD"/>
<path d="M53.3535 60.8874C54.1582 64.8861 51.5679 68.7786 47.5691 69.5834C43.5704 70.3882 39.6779 67.7978 38.8731 63.7991C38.0684 59.8004 40.6587 55.9079 44.6574 55.1031C48.6562 54.2983 52.5515 56.8887 53.3535 60.8874Z" fill="#FFFDFD"/>
<path opacity="0.2" d="M82.5039 268.525C83.3086 272.523 80.7182 276.416 76.7195 277.221C72.7208 278.025 68.8283 275.435 68.0235 271.436C67.2187 267.438 69.8091 263.545 73.8078 262.74C77.8066 261.938 81.6991 264.529 82.5039 268.525Z" fill="black"/>
</g>
<g opacity="0.2">
<path d="M61.9675 102.5C49.5355 109.157 23.0283 112.446 11.0098 106.214C20.8906 117.023 41.661 125.551 61.9703 115.237C61.9368 110.925 62.0011 106.809 61.9675 102.5Z" fill="black"/>
<path d="M144.963 42.4834C144.729 25.9492 135.052 12.3603 121.91 5.4834C128.753 12.7906 133.16 22.5457 133.319 33.6337C134.563 120.87 134.834 208.118 134.138 295.364C133.951 318.864 115.083 336.256 92.2229 337.279C85.6757 337.572 79.3968 335.963 73.7578 333.051C81.4982 341.317 92.2815 346.648 103.867 346.129C126.727 345.103 145.595 327.714 145.782 304.213C146.481 216.968 146.207 129.723 144.963 42.4834Z" fill="black"/>
</g>
</svg>
