<svg width="253" height="355" viewBox="0 0 253 355" fill="none" xmlns="http://www.w3.org/2000/svg">
<path d="M89.5613 94.3468C93.2275 89.7109 97.5308 85.7206 102.843 83.0632C105.609 81.6772 108.49 80.5036 111.472 79.6737C120.344 77.2007 130.742 78.1787 137.457 84.4827C143.668 90.3145 145.588 99.684 144.16 108.084C142.732 116.484 138.404 124.098 133.639 131.162C98.8721 182.71 37.3713 215.518 15.1367 273.579C11.0597 284.226 8.45819 295.836 10.6182 307.03C12.0489 314.438 15.6508 321.379 20.7337 326.94C25.9564 332.654 32.0453 338.053 38.9725 341.834C49.7168 347.696 63.2917 348.937 75.3493 350.318C88.6616 351.843 102.063 352.394 115.454 352.693C132.265 353.067 149.087 353.056 165.897 352.645C182.56 352.24 199.446 352.008 215.983 349.784C224.774 348.602 232.185 346.995 238.791 340.453C244.307 334.993 247.713 327.695 249.664 320.181C254.492 301.595 255.129 279.146 241.918 263.74C234.063 254.583 221.843 249.347 209.794 249.978C197.745 250.61 186.14 257.095 179.285 267.024C171.338 278.539 170.036 293.494 171.841 307.371C182.817 295.9 193.793 284.427 204.77 272.956C155.175 271.581 105.579 270.206 55.9845 268.832C43.4937 268.485 29.0833 268.98 21.2982 278.751C41.8227 290.365 62.3472 301.981 82.8689 313.594C99.417 288.314 120.66 266.515 141.69 244.822C162.72 223.13 183.831 201.178 200.044 175.682C216.257 150.186 227.429 120.6 226.496 90.4011C225.562 60.2026 211.107 29.5542 185.329 13.7941C168.938 3.77076 149.215 0.275022 130.004 0.652259C93.3505 1.37041 57.1357 15.9681 30.2317 40.8713C18.3418 51.8783 8.06139 65.1347 3.12657 80.5678C-1.80825 96.001 -0.835807 113.815 8.19273 127.273C17.2185 140.727 35.0017 148.54 50.4489 143.653C63.0011 139.68 70.1602 128.896 75.883 117.749C79.8343 110.059 83.9503 101.444 89.5613 94.3468Z" fill="#FF7A00"/>
<path d="M155.93 12.0704C139.189 11.8328 122.766 14.0739 107.032 18.4135C99.1906 20.6714 91.467 23.2729 84.0508 26.601C76.6122 29.8536 69.3609 33.5477 62.5399 37.9348C55.6351 42.1795 49.0991 47.0137 42.9571 52.3034C36.6754 57.459 31.0504 63.3131 25.9144 69.525C15.8016 82.0129 8.55026 97.2002 8.07243 114.07C6.55231 105.81 7.16707 97.0772 9.48918 88.7948C11.8448 80.5207 15.7541 72.6826 20.6693 65.6185C30.5278 51.4288 43.7116 40.0558 58.1081 30.826C72.675 21.8171 88.8096 15.3649 105.534 12.0704C122.205 8.75625 139.544 8.36505 155.93 12.0704Z" fill="white"/>
<path d="M151.412 105.854C153.209 110.973 153.449 116.713 152.312 122.159C151.233 127.633 148.975 132.803 146.388 137.668C143.783 142.555 140.606 146.97 137.622 151.581C136.132 153.886 134.38 155.982 132.751 158.181C131.094 160.358 129.462 162.563 127.677 164.622L122.423 170.912C120.632 172.969 118.754 174.939 116.921 176.956C113.277 181.022 109.418 184.828 105.663 188.765C97.9951 196.43 90.143 203.877 82.4753 211.408C74.7321 218.863 67.0672 226.358 59.9025 234.235C56.1777 238.063 52.8161 242.162 49.3399 246.186C47.6465 248.229 46.104 250.378 44.461 252.46L41.9991 255.586L39.7469 258.85C33.4764 267.418 28.5974 276.837 24.1796 286.503C20.0579 296.219 17.2552 306.723 18.3589 317.557C15.3746 307.008 17.1071 295.537 20.3122 285.095C23.9393 274.758 28.2454 264.486 34.2784 255.259C45.7827 236.386 61.2159 220.529 76.6435 205.389C92.2834 190.383 108.248 176.006 122.756 160.344C129.923 152.472 136.864 144.29 142.881 135.547C145.862 131.182 148.405 126.552 150.076 121.567C151.744 116.612 152.345 111.202 151.412 105.854Z" fill="white"/>
<mask id="mask0_403_11271" style="mask-type:luminance" maskUnits="userSpaceOnUse" x="0" y="1" width="253" height="354">
<path d="M89.5613 95.4169C93.2275 90.7811 97.5308 86.7907 102.843 84.1333C105.609 82.7473 108.49 81.5765 111.472 80.7437C120.344 78.2707 130.742 79.2487 137.457 85.5528C143.668 91.3846 145.588 100.754 144.16 109.154C142.732 117.554 138.404 125.168 133.639 132.232C98.8721 183.78 37.3713 216.588 15.1367 274.652C11.0597 285.298 8.45819 296.909 10.6182 308.103C12.0489 315.511 15.6508 322.452 20.7337 328.013C25.9564 333.727 32.0453 339.126 38.9725 342.907C49.7168 348.769 63.2917 350.007 75.3493 351.39C88.6616 352.916 102.063 353.467 115.454 353.766C132.265 354.14 149.087 354.129 165.897 353.721C182.56 353.316 199.446 353.084 215.983 350.859C224.774 349.675 232.185 348.071 238.791 341.529C244.307 336.069 247.713 328.77 249.664 321.256C254.492 302.671 255.129 280.221 241.918 264.816C234.063 255.659 221.843 250.422 209.794 251.054C197.745 251.685 186.14 258.171 179.285 268.099C171.338 279.615 170.036 294.57 171.841 308.447C182.817 296.976 193.793 285.502 204.77 274.032C155.175 272.657 105.579 271.282 55.9845 269.907C43.4937 269.561 29.0833 270.055 21.2982 279.827C41.8227 291.443 62.3472 303.057 82.8689 314.67C99.417 289.389 120.66 267.591 141.69 245.898C162.72 224.206 183.831 202.253 200.044 176.758C216.257 151.262 227.429 121.675 226.496 91.4769C225.562 61.2783 211.107 30.6299 185.329 14.8698C168.938 4.84644 149.215 1.35071 130.004 1.72794C93.3505 2.44609 57.1357 17.0438 30.2317 41.947C18.3418 52.9539 8.06139 66.2104 3.12657 81.6435C-1.80825 97.0767 -0.835807 114.891 8.19273 128.348C17.2185 141.803 35.0017 149.616 50.4489 144.729C63.0011 140.755 70.1602 129.972 75.883 118.825C79.8343 111.13 83.9503 102.515 89.5613 95.4169Z" fill="white"/>
</mask>
<g mask="url(#mask0_403_11271)">
<path opacity="0.2" d="M157.172 78.8747C157.977 82.8734 155.386 86.7659 151.387 87.5707C147.389 88.3755 143.496 85.7851 142.691 81.7864C141.887 77.7877 144.477 73.8952 148.476 73.0904C152.475 72.2856 156.367 74.876 157.172 78.8747Z" fill="black"/>
<path opacity="0.5" d="M50.2597 317.699C51.0645 321.698 48.4741 325.591 44.4754 326.395C40.4767 327.2 36.5841 324.61 35.7794 320.611C34.9746 316.612 37.565 312.72 41.5637 311.915C45.5624 311.11 49.4577 313.701 50.2597 317.699Z" fill="#FFFDFD"/>
<path d="M58.1564 250.56C58.6343 252.938 57.0946 255.251 54.7194 255.729C52.3414 256.207 50.0277 254.667 49.5498 252.292C49.072 249.914 50.6117 247.6 52.9869 247.123C55.3621 246.642 57.6786 248.182 58.1564 250.56Z" fill="#FFFDFD"/>
<path d="M118.633 336.139C118.996 337.944 117.825 339.704 116.02 340.068C114.215 340.431 112.455 339.26 112.091 337.455C111.728 335.65 112.899 333.889 114.704 333.526C116.509 333.163 118.27 334.334 118.633 336.139Z" fill="#FFFDFD"/>
<path opacity="0.5" d="M106.242 229.04C106.606 230.845 105.435 232.606 103.63 232.969C101.825 233.332 100.064 232.161 99.7009 230.356C99.3376 228.551 100.508 226.791 102.314 226.427C104.122 226.064 105.879 227.235 106.242 229.04Z" fill="#FFFDFD"/>
<path d="M101.938 76.7227C102.301 78.5279 101.13 80.2883 99.325 80.6516C97.5199 81.0148 95.7594 79.844 95.3962 78.0389C95.0329 76.2337 96.2037 74.4733 98.0089 74.11C99.814 73.7468 101.574 74.9176 101.938 76.7227Z" fill="#FFFDFD"/>
<path opacity="0.5" d="M171.098 44.8756C171.461 46.6807 170.29 48.4412 168.485 48.8044C166.68 49.1677 164.92 47.9968 164.556 46.1917C164.193 44.3865 165.364 42.6261 167.169 42.2629C168.977 41.8996 170.735 43.0704 171.098 44.8756Z" fill="#FFFDFD"/>
<path opacity="0.2" d="M156.291 306.141C156.655 307.946 155.484 309.707 153.679 310.07C151.873 310.433 150.113 309.262 149.75 307.457C149.386 305.652 150.557 303.892 152.362 303.528C154.17 303.165 155.928 304.336 156.291 306.141Z" fill="black"/>
<path d="M67.8147 115.587C68.1779 117.392 67.0071 119.152 65.202 119.515C63.3968 119.879 61.6364 118.708 61.2731 116.903C60.9099 115.098 62.0807 113.337 63.8858 112.974C65.6938 112.611 67.4514 113.779 67.8147 115.587Z" fill="#FFFDFD"/>
<path d="M156.291 226.782C156.655 228.587 155.484 230.348 153.679 230.711C151.873 231.074 150.113 229.904 149.75 228.098C149.386 226.293 150.557 224.533 152.362 224.17C154.17 223.803 155.928 224.974 156.291 226.782Z" fill="#FFFDFD"/>
<path d="M62.2327 188.846C62.5959 190.652 61.4251 192.412 59.62 192.775C57.8148 193.138 56.0544 191.968 55.6911 190.163C55.3278 188.357 56.4987 186.597 58.3038 186.234C60.109 185.87 61.8694 187.038 62.2327 188.846Z" fill="#FFFDFD"/>
<path d="M211.475 79.7629C211.953 82.1409 210.413 84.4546 208.038 84.9324C205.66 85.4102 203.346 83.8705 202.868 81.4954C202.39 79.1202 203.93 76.8037 206.305 76.3258C208.68 75.848 210.994 77.3849 211.475 79.7629Z" fill="#FFFDFD"/>
<path d="M157.322 147.652C157.8 150.027 156.261 152.344 153.885 152.821C151.51 153.299 149.194 151.76 148.716 149.384C148.238 147.006 149.778 144.693 152.153 144.215C154.531 143.737 156.845 145.277 157.322 147.652Z" fill="#FFFDFD"/>
<path d="M123.168 25.8796C123.646 28.2576 122.106 30.5713 119.731 31.0491C117.353 31.527 115.039 29.9873 114.562 27.6121C114.084 25.2341 115.623 22.9204 117.999 22.4425C120.377 21.9647 122.69 23.5016 123.168 25.8796Z" fill="#FFFDFD"/>
<path d="M15.8264 98.5191C16.3042 100.897 14.7645 103.211 12.3893 103.689C10.0141 104.167 7.6976 102.627 7.21976 100.252C6.74193 97.8764 8.2816 95.5599 10.6568 95.0821C13.032 94.6042 15.3457 96.1439 15.8264 98.5191Z" fill="#FFFDFD"/>
<path d="M128.735 123.207C129.212 125.585 127.673 127.898 125.297 128.376C122.922 128.854 120.606 127.314 120.128 124.939C119.65 122.561 121.19 120.247 123.565 119.77C125.943 119.292 128.257 120.831 128.735 123.207Z" fill="#FFFDFD"/>
<path d="M130.1 286.305C130.578 288.683 129.038 290.996 126.663 291.474C124.288 291.952 121.971 290.412 121.493 288.037C121.015 285.659 122.555 283.345 124.93 282.868C127.308 282.387 129.622 283.927 130.1 286.305Z" fill="#FFFDFD"/>
<path opacity="0.5" d="M189.344 205.145C189.822 207.523 188.282 209.837 185.907 210.315C183.529 210.792 181.215 209.253 180.737 206.877C180.26 204.502 181.799 202.186 184.174 201.708C186.55 201.227 188.866 202.767 189.344 205.145Z" fill="#FFFDFD"/>
<path opacity="0.5" d="M195.336 321.282C195.814 323.66 194.274 325.973 191.899 326.451C189.521 326.929 187.207 325.389 186.73 323.014C186.252 320.636 187.791 318.323 190.167 317.845C192.545 317.367 194.858 318.907 195.336 321.282Z" fill="#FFFDFD"/>
<path d="M117.689 171.968C118.494 175.967 115.904 179.859 111.905 180.664C107.906 181.469 104.014 178.878 103.209 174.88C102.404 170.881 104.995 166.989 108.993 166.184C112.992 165.382 116.885 167.972 117.689 171.968Z" fill="#FFFDFD"/>
<path d="M69.373 65.3361C70.1778 69.3348 67.5874 73.2274 63.5887 74.0322C59.59 74.8369 55.6974 72.2466 54.8927 68.2479C54.0879 64.2491 56.6783 60.3566 60.677 59.5518C64.6757 58.7471 68.5682 61.3374 69.373 65.3361Z" fill="#FFFDFD"/>
<path opacity="0.2" d="M90.1386 278.564C90.9433 282.563 88.353 286.455 84.3543 287.26C80.3556 288.065 76.4631 285.475 75.6583 281.476C74.8535 277.477 77.4438 273.585 81.4426 272.78C85.4413 271.975 89.3366 274.565 90.1386 278.564Z" fill="black"/>
<path d="M213.859 274.412C214.664 278.411 212.074 282.304 208.075 283.108C204.076 283.913 200.184 281.323 199.379 277.324C198.574 273.325 201.165 269.433 205.163 268.628C209.162 267.823 213.054 270.414 213.859 274.412Z" fill="#FFFDFD"/>
<path d="M203.098 127.007C203.902 131.006 201.312 134.898 197.313 135.703C193.315 136.508 189.422 133.918 188.617 129.919C187.812 125.92 190.403 122.028 194.402 121.223C198.4 120.421 202.296 123.011 203.098 127.007Z" fill="#FFFDFD"/>
</g>
<g opacity="0.2">
<path d="M241.917 263.676C238.547 259.748 234.347 256.596 229.731 254.265C229.904 254.461 230.105 254.628 230.273 254.827C243.484 270.232 242.847 292.682 238.019 311.267C236.068 318.778 232.659 326.08 227.143 331.54C220.537 338.079 213.129 339.686 204.338 340.87C187.801 343.097 170.915 343.329 154.253 343.732C137.442 344.14 120.62 344.151 103.809 343.777C90.4184 343.478 77.0167 342.927 63.7044 341.401C51.6496 340.018 38.0747 338.78 27.3276 332.918C26.8051 332.633 26.3188 332.278 25.8047 331.973C29.7922 335.718 34.1681 339.143 38.9716 341.767C49.7159 347.63 63.2909 348.868 75.3485 350.251C88.6608 351.777 102.062 352.327 115.453 352.626C132.264 353.001 149.086 352.99 165.897 352.582C182.559 352.176 199.446 351.944 215.982 349.72C224.774 348.535 232.184 346.931 238.79 340.39C244.306 334.93 247.712 327.631 249.663 320.117C254.491 301.532 255.131 279.079 241.917 263.676Z" fill="black"/>
<path d="M99.8269 70.7577C96.8426 71.5905 93.9644 72.7641 91.198 74.1473C85.8859 76.8047 81.5826 80.7923 77.9164 85.4309C72.3054 92.5285 68.1893 101.144 64.2409 108.834C58.5181 119.983 51.3589 130.764 38.8039 134.737C29.8816 137.559 20.1907 136.129 11.8496 131.839C21.5041 142.369 36.8758 147.882 50.448 143.587C63.0002 139.613 70.1593 128.83 75.8821 117.683C79.8306 109.993 83.9466 101.378 89.5577 94.2806C93.2239 89.6447 97.5272 85.6544 102.839 82.997C105.606 81.6138 108.487 80.4402 111.468 79.6075C117.177 78.0147 123.506 77.8805 129.089 79.6466C128.162 78.1711 127.1 76.7768 125.809 75.5668C119.1 69.26 108.699 68.2819 99.8269 70.7577Z" fill="black"/>
<path d="M214.851 81.4878C215.785 111.686 204.613 141.273 188.4 166.769C172.187 192.264 151.076 214.217 130.046 235.909C121.822 244.39 105.411 261.489 97.416 270.204C103.879 270.383 110.343 270.562 116.806 270.741C122.336 264.895 136.101 250.526 141.69 244.759C162.72 223.066 183.831 201.114 200.044 175.618C216.257 150.123 227.429 120.536 226.495 90.3375C225.562 60.1445 211.11 29.5017 185.34 13.7388C203.78 30.6502 214.069 56.2073 214.851 81.4878Z" fill="black"/>
</g>
</svg>
