<svg width="252" height="368" viewBox="0 0 252 368" fill="none" xmlns="http://www.w3.org/2000/svg">
<path d="M76.558 104.533C78.8829 102.608 81.11 100.565 83.2812 98.4696C91.0355 90.992 100.95 85.0623 111.926 84.129C118.725 83.5506 125.697 83.9446 131.867 87.1022C133.166 87.7673 134.518 88.4184 134.099 90.1676C133.415 93.0235 131.045 95.3931 129.656 97.9164C125.518 105.444 120.977 112.95 116.067 120.081C111.2 127.151 105.569 133.589 100.528 140.513C91.3065 153.175 84.3375 168.381 89.9374 184.069C90.8455 186.609 92.0163 189.051 93.3772 191.379C102.037 206.186 123.704 217.361 140.713 210.64C144.357 209.201 147.66 207.522 151.681 207.983C158.094 208.721 163.077 213.778 165.357 219.582C168 226.311 167.176 233.255 165.427 240.068C161.54 255.227 153.565 270.467 139.476 278.373C135.96 280.345 132.112 281.734 128.156 282.503C122.978 283.509 118.28 282.978 113.136 282.315C110.018 281.913 106.935 281.427 103.906 280.522C94.4586 277.702 87.0983 271.18 84.452 261.503C83.3594 257.513 82.6748 253.486 82.1048 249.392C78.9779 226.951 50.3302 214.678 30.5435 220.116C6.38072 226.755 -1.86817 249.166 1.26709 271.677C11.3407 343.967 89.1857 381.227 155.487 361.764C224.139 341.612 270.788 258.097 243.923 189.415C224.874 140.715 169.445 109.653 118.429 129.805C131.992 153.108 145.576 176.396 159.159 199.687C175.959 182.585 190.165 162.938 201.141 141.626C213.319 117.98 221.579 90.5449 214.699 64.8564C210.494 49.1494 200.778 35.1888 188.385 24.6625C167.944 7.30123 140.431 -0.76886 113.639 0.376823C86.8468 1.52251 60.837 11.4508 38.5884 26.4229C23.1664 36.804 8.53798 51.1334 5.83025 69.5258C3.76802 83.5366 9.52995 98.4529 20.4978 107.414C31.4656 116.376 47.2453 119.05 60.5436 114.177C66.4564 112.008 71.6959 108.557 76.558 104.533Z" fill="#F5D100"/>
<path d="M170.637 19.61C155.64 15.1949 140.316 13.3087 125.193 14.0744C110.089 14.9462 95.1927 18.1877 81.0868 23.6227C73.9919 26.2298 67.0843 29.3762 60.4086 32.9865C53.6938 36.5158 47.1746 40.5257 41.013 44.8709C34.8962 49.2944 29.1315 54.2236 24.3112 60.0247C19.4071 65.7615 15.6962 72.5154 13.5781 80.063C13.838 72.2136 16.7022 64.4034 20.9776 57.6131C25.3144 50.8284 30.8556 44.8625 36.978 39.7237C49.2619 29.4796 63.1862 21.5074 78.1331 15.7845C85.6388 13.0545 93.3428 10.791 101.228 9.38268C109.123 8.06095 117.126 7.29809 125.123 7.56076C141.087 7.9883 156.959 11.9646 170.637 19.61Z" fill="white"/>
<path d="M167.809 222.413C172.398 225.233 175.469 230.45 176.642 235.974C177.78 241.568 177.17 247.322 176.008 252.592C173.837 263.222 169.315 273.689 161.866 282.318C158.051 286.527 153.547 290.229 148.369 292.803C143.113 295.29 137.535 296.908 131.645 296.821C125.788 296.723 120.764 295.443 115.474 294.091C110.235 292.557 105.115 289.939 101.527 285.965C106.261 288.43 111.199 289.695 116.248 290.048C118.757 290.282 121.367 290.383 123.952 290.455C126.517 290.52 128.982 290.576 131.335 290.285C135.926 289.679 140.623 288.17 144.636 285.792C148.727 283.43 152.387 280.312 155.595 276.752C158.809 273.172 161.547 269.093 163.825 264.7C166.222 260.358 168.03 255.669 169.712 250.89C171.319 246.092 172.646 241.317 172.571 236.446C172.585 231.59 171.101 226.607 167.809 222.413Z" fill="white"/>
<path d="M141.843 100.702C141.818 102.778 140.834 104.795 139.982 106.592C139.563 107.511 139.127 108.372 138.828 109.213L137.744 112.047C136.19 115.772 134.55 119.474 132.675 123.056C130.814 126.653 128.788 130.143 126.583 133.577C124.351 137.037 121.897 140.284 119.438 143.433C114.481 149.737 109.418 155.53 105.209 161.881C100.979 168.233 97.4968 175.015 95.6777 182.962C93.9256 174.894 96.0019 166.207 99.4445 158.687C102.949 151.07 107.973 144.436 112.855 138.249C115.322 135.148 117.756 132.102 120.081 129.034L127.095 119.591L134.175 110.04L135.997 107.654C136.668 106.757 137.364 105.977 138.09 105.268C139.501 103.82 140.902 102.524 141.843 100.702Z" fill="white"/>
<mask id="mask0_403_10334" style="mask-type:luminance" maskUnits="userSpaceOnUse" x="0" y="1" width="252" height="367">
<path d="M76.5561 105.604C78.881 103.679 81.108 101.636 83.2792 99.5403C91.0335 92.0626 100.948 86.133 111.924 85.1997C118.723 84.6213 125.695 85.0153 131.865 88.1729C133.164 88.838 134.516 89.489 134.097 91.2355C133.413 94.0913 131.043 96.461 129.654 98.9843C125.516 106.512 120.975 114.018 116.065 121.149C111.198 128.219 105.567 134.657 100.526 141.581C91.3046 154.24 84.3355 169.449 89.9354 185.137C90.8436 187.677 92.0144 190.119 93.3752 192.447C102.035 207.254 123.702 218.429 140.712 211.711C144.355 210.272 147.658 208.593 151.679 209.054C158.092 209.791 163.075 214.849 165.355 220.653C167.998 227.382 167.174 234.326 165.425 241.138C161.538 256.298 153.563 271.538 139.474 279.443C135.958 281.416 132.111 282.805 128.154 283.571C122.976 284.577 118.278 284.046 113.134 283.383C110.016 282.981 106.933 282.495 103.904 281.589C94.4566 278.77 87.0963 272.248 84.4501 262.571C83.3575 258.581 82.6729 254.554 82.1028 250.46C78.9759 228.019 50.3283 215.746 30.5415 221.184C6.37877 227.823 -1.87012 250.231 1.26514 272.745C11.3388 345.035 89.1838 382.295 155.485 362.832C224.137 342.679 270.786 259.165 243.921 190.482C224.872 141.783 169.443 110.721 118.427 130.873C131.99 154.175 145.574 177.464 159.157 200.754C175.957 183.653 190.163 164.006 201.139 142.693C213.317 119.048 221.577 91.6127 214.697 65.9243C210.492 50.2173 200.776 36.2567 188.383 25.7304C167.942 8.3691 140.429 0.299011 113.637 1.44469C86.8448 2.59038 60.835 12.5187 38.5864 27.4908C23.1644 37.8718 8.53602 52.2013 5.8283 70.5937C3.76607 84.6045 9.528 99.5208 20.4958 108.482C31.4636 117.444 47.2433 120.118 60.5416 115.245C66.4545 113.079 71.6939 109.631 76.5561 105.604Z" fill="white"/>
</mask>
<g mask="url(#mask0_403_10334)">
<path opacity="0.2" d="M81.6485 297.338C80.8437 293.339 83.4341 289.447 87.4328 288.642C91.4316 287.837 95.3241 290.428 96.1289 294.426C96.9336 298.425 94.3432 302.318 90.3445 303.123C86.3458 303.924 82.4505 301.334 81.6485 297.338Z" fill="black"/>
<path opacity="0.5" d="M185.775 44.0389C184.971 40.0402 187.561 36.1476 191.56 35.3429C195.559 34.5381 199.451 37.1285 200.256 41.1272C201.061 45.1259 198.47 49.0184 194.471 49.8232C190.473 50.6252 186.58 48.0348 185.775 44.0389Z" fill="#FFFDFD"/>
<path d="M177.88 111.176C177.402 108.798 178.942 106.484 181.317 106.006C183.695 105.529 186.009 107.068 186.487 109.443C186.964 111.821 185.425 114.135 183.049 114.613C180.671 115.094 178.358 113.554 177.88 111.176Z" fill="#FFFDFD"/>
<path d="M117.404 25.596C117.041 23.7909 118.212 22.0304 120.017 21.6672C121.825 21.3039 123.582 22.4747 123.946 24.2799C124.309 26.085 123.138 27.8455 121.333 28.2087C119.525 28.572 117.764 27.4012 117.404 25.596Z" fill="#FFFDFD"/>
<path opacity="0.5" d="M129.787 132.695C129.424 130.89 130.594 129.129 132.4 128.766C134.205 128.403 135.965 129.573 136.328 131.379C136.692 133.184 135.521 134.944 133.716 135.307C131.911 135.671 130.15 134.5 129.787 132.695Z" fill="#FFFDFD"/>
<path d="M134.093 285.012C133.73 283.207 134.901 281.446 136.706 281.083C138.511 280.72 140.272 281.891 140.635 283.696C140.998 285.501 139.827 287.261 138.022 287.625C136.214 287.988 134.457 286.817 134.093 285.012Z" fill="#FFFDFD"/>
<path opacity="0.5" d="M51.0641 331.259C50.7009 329.451 51.8717 327.693 53.6768 327.33C55.4848 326.966 57.2425 328.137 57.6057 329.942C57.969 331.748 56.7982 333.508 54.993 333.871C53.1851 334.235 51.4274 333.064 51.0641 331.259Z" fill="#FFFDFD"/>
<path opacity="0.2" d="M79.7399 55.5936C79.3767 53.7884 80.5475 52.028 82.3526 51.6647C84.1606 51.3015 85.9182 52.4723 86.2815 54.2774C86.6448 56.0826 85.4739 57.843 83.6688 58.2063C81.8636 58.5696 80.1032 57.3987 79.7399 55.5936Z" fill="black"/>
<path d="M177.138 267.399C176.775 265.594 177.946 263.834 179.751 263.47C181.556 263.107 183.317 264.278 183.68 266.083C184.043 267.888 182.872 269.649 181.067 270.012C179.262 270.375 177.502 269.204 177.138 267.399Z" fill="#FFFDFD"/>
<path d="M79.7399 134.953C79.3767 133.148 80.5475 131.387 82.3526 131.024C84.1606 130.661 85.9182 131.832 86.2815 133.637C86.6448 135.442 85.4739 137.202 83.6688 137.566C81.8636 137.932 80.1032 136.761 79.7399 134.953Z" fill="#FFFDFD"/>
<path d="M173.799 172.889C173.435 171.084 174.606 169.323 176.411 168.96C178.216 168.597 179.977 169.768 180.34 171.573C180.703 173.378 179.533 175.138 177.727 175.502C175.919 175.865 174.162 174.697 173.799 172.889Z" fill="#FFFDFD"/>
<path d="M24.5616 281.972C24.0837 279.594 25.6234 277.281 27.9986 276.803C30.3738 276.325 32.6903 277.865 33.1681 280.24C33.646 282.618 32.1062 284.932 29.731 285.409C27.353 285.887 25.0394 284.348 24.5616 281.972Z" fill="#FFFDFD"/>
<path d="M193.45 232.626C192.972 230.248 194.512 227.934 196.887 227.457C199.265 226.979 201.579 228.518 202.057 230.894C202.535 233.272 200.995 235.585 198.62 236.063C196.242 236.541 193.928 235.001 193.45 232.626Z" fill="#FFFDFD"/>
<path d="M112.866 335.856C112.388 333.478 113.928 331.164 116.303 330.686C118.679 330.208 120.995 331.748 121.473 334.123C121.951 336.501 120.411 338.815 118.036 339.293C115.658 339.771 113.344 338.234 112.866 335.856Z" fill="#FFFDFD"/>
<path d="M220.21 263.216C219.732 260.838 221.272 258.524 223.647 258.046C226.025 257.569 228.339 259.108 228.817 261.483C229.294 263.861 227.755 266.175 225.38 266.653C223.002 267.131 220.688 265.591 220.21 263.216Z" fill="#FFFDFD"/>
<path d="M212.89 176.435C212.412 174.057 213.951 171.743 216.327 171.266C218.705 170.788 221.018 172.328 221.496 174.703C221.974 177.081 220.434 179.394 218.059 179.872C215.681 180.35 213.368 178.81 212.89 176.435Z" fill="#FFFDFD"/>
<path d="M108.644 71.0407C108.166 68.6655 109.705 66.349 112.081 65.8711C114.459 65.3933 116.772 66.933 117.25 69.3082C117.728 71.6862 116.188 73.9999 113.813 74.4777C111.435 74.9584 109.121 73.4187 108.644 71.0407Z" fill="#FFFDFD"/>
<path opacity="0.5" d="M46.6924 156.589C46.2146 154.214 47.7543 151.898 50.1295 151.42C52.5047 150.942 54.8211 152.482 55.299 154.857C55.7768 157.235 54.2372 159.549 51.862 160.027C49.484 160.504 47.1703 158.967 46.6924 156.589Z" fill="#FFFDFD"/>
<path opacity="0.5" d="M40.6944 40.4533C40.2165 38.0781 41.7562 35.7616 44.1314 35.2837C46.5094 34.8059 48.8231 36.3456 49.3009 38.7208C49.7788 41.096 48.2391 43.4125 45.8639 43.8903C43.4859 44.3682 41.1722 42.8285 40.6944 40.4533Z" fill="#FFFDFD"/>
<path d="M118.34 189.766C117.535 185.768 120.126 181.875 124.124 181.07C128.123 180.266 132.015 182.856 132.82 186.855C133.625 190.853 131.035 194.746 127.036 195.551C123.037 196.353 119.142 193.762 118.34 189.766Z" fill="#FFFDFD"/>
<path d="M167.553 312.579C166.748 308.58 169.338 304.688 173.337 303.883C177.336 303.078 181.228 305.668 182.033 309.667C182.838 313.666 180.248 317.558 176.249 318.363C172.25 319.165 168.358 316.575 167.553 312.579Z" fill="#FFFDFD"/>
<path opacity="0.2" d="M145.891 83.1707C145.086 79.172 147.676 75.2795 151.675 74.4747C155.674 73.6699 159.566 76.2603 160.371 80.259C161.176 84.2577 158.585 88.1502 154.587 88.955C150.588 89.7598 146.695 87.1694 145.891 83.1707Z" fill="black"/>
<path d="M22.1759 87.323C21.3711 83.3243 23.9614 79.4318 27.9601 78.627C31.9588 77.8223 35.8513 80.4126 36.6561 84.4114C37.4609 88.4101 34.8706 92.3026 30.8719 93.1074C26.8732 93.9121 22.9806 91.3218 22.1759 87.323Z" fill="#FFFDFD"/>
<path d="M29.5001 243.826C28.6953 239.828 31.2857 235.935 35.2844 235.13C39.2831 234.326 43.1756 236.916 43.9804 240.915C44.7852 244.913 42.1948 248.806 38.1961 249.611C34.1974 250.416 30.3049 247.825 29.5001 243.826Z" fill="#FFFDFD"/>
</g>
<g opacity="0.2">
<path d="M83.2856 98.4892C91.0399 91.0115 100.954 85.0819 111.931 84.1486C115.021 83.8859 118.145 83.844 121.216 84.1514C121.747 83.2516 122.222 82.3295 122.46 81.3375C122.879 79.591 121.526 78.9371 120.227 78.2721C114.057 75.1145 107.085 74.7205 100.286 75.2989C89.3103 76.2322 79.3959 82.1618 71.6416 89.6395C69.4676 91.7352 67.2433 93.7779 64.9184 95.7032C60.0562 99.7271 54.8168 103.178 48.904 105.344C38.3441 109.214 26.2279 108.309 16.1934 103.293C17.5263 104.774 18.9569 106.168 20.5022 107.431C31.47 116.393 47.2497 119.067 60.548 114.193C66.4609 112.028 71.7003 108.577 76.5625 104.553C78.8874 102.628 81.1116 100.585 83.2856 98.4892Z" fill="black"/>
<path d="M203.061 56.0233C209.695 80.798 202.237 107.182 190.78 130.238C194.874 132.854 198.789 135.76 202.503 138.932C213.918 115.915 221.328 89.5918 214.708 64.873C210.503 49.166 200.787 35.2054 188.394 24.6791C185.206 21.9686 181.824 19.5152 178.32 17.2573C189.945 27.6076 199.038 40.9981 203.061 56.0233Z" fill="black"/>
<path d="M140.045 199.153C136.024 198.692 132.719 200.371 129.078 201.81C119.443 205.616 108.316 203.674 98.9043 198.588C109.341 209.489 126.621 216.229 140.722 210.66C144.366 209.221 147.668 207.541 151.69 208.003C151.955 208.033 152.204 208.114 152.466 208.159C149.859 203.512 145.475 199.779 140.045 199.153Z" fill="black"/>
<path d="M243.931 189.431C235.897 168.896 221.38 151.518 203.468 139.773C215.993 150.735 226.08 164.713 232.287 180.582C259.151 249.264 212.503 332.779 143.851 352.934C107.206 363.692 67.0567 357.092 36.752 336.858C67.8475 363.891 113.937 373.984 155.498 361.784C224.147 341.631 270.793 258.114 243.931 189.431Z" fill="black"/>
<path d="M72.8114 252.67C75.1363 261.159 81.0855 267.22 88.8901 270.481C86.9173 267.888 85.3831 264.909 84.4554 261.52C83.3628 257.529 82.6782 253.503 82.1082 249.409C80.5433 238.176 72.585 229.494 62.5449 224.302C66.6666 228.826 69.5895 234.275 70.467 240.559C71.0342 244.653 71.7188 248.68 72.8114 252.67Z" fill="black"/>
</g>
</svg>
