<svg width="231" height="378" viewBox="0 0 231 378" fill="none" xmlns="http://www.w3.org/2000/svg">
<path d="M74.9885 21.2784C58.0128 49.0794 42.7837 77.8835 29.6307 107.694C15.8936 138.834 -3.21971 174.786 1.49436 209.875C7.12217 251.762 42.6858 270.828 81.8738 271.37C117.337 271.859 152.85 271.3 188.319 271.255C210.243 271.23 231.249 251.997 230.234 229.34C229.217 206.653 211.817 187.397 188.319 187.425C160.814 187.458 133.312 187.492 105.807 187.525C98.475 187.534 91.1371 187.632 83.8047 187.553C82.17 187.537 66.1248 187.307 75.5585 187.402C70.8025 186.019 70.6712 186.008 75.1562 187.372C79.2583 189.66 82.1252 192.868 83.7516 196.993C84.3244 201.69 84.5564 201.455 84.4418 196.286C83.9248 199.857 83.9751 200.131 84.5926 197.11C89.9718 174.275 99.8973 153.985 109.504 133.597C120.83 109.571 133.533 86.261 147.37 63.5932C159.168 44.2703 151.598 17.5144 132.334 6.24482C112.416 -5.41041 86.817 1.90239 74.9885 21.2784Z" fill="#12D6E0"/>
<path d="M116.242 168.646C116.242 223.857 116.242 279.068 116.242 334.279C116.242 356.203 135.52 377.208 158.157 376.194C180.867 375.177 200.073 357.776 200.073 334.279C200.073 279.068 200.073 223.857 200.073 168.646C200.073 146.722 180.794 125.717 158.157 126.731C135.448 127.748 116.242 145.149 116.242 168.646Z" fill="#12D6E0"/>
<path d="M123.235 11.3643C112.673 11.3726 102.434 14.9997 94.7778 21.5608C90.8769 24.7324 87.7026 28.6808 85.2491 32.9506L77.6289 46.71C72.6661 55.9593 67.6503 65.1666 62.9474 74.5361C58.1551 83.858 53.4913 93.2387 49.0651 102.731C44.4935 112.137 40.3216 121.763 35.8171 131.351C31.2539 140.849 26.8919 150.352 22.7702 159.923C14.7002 179.05 8.32901 199.167 9.226 220.404C6.95419 210.051 7.11913 199.167 8.59734 188.571C10.1398 177.952 13.1018 167.602 16.6674 157.565C20.1492 147.48 24.4468 137.761 28.5853 128.07C32.8243 118.486 36.9767 108.747 41.4923 99.1404C50.6578 80.0298 60.7427 61.358 71.9983 43.421C74.8206 38.9333 77.6121 34.4763 80.6021 30.0557C83.8016 25.4562 87.7109 21.3624 92.3104 18.2831C101.42 12.0349 112.807 9.50882 123.235 11.3643Z" fill="white"/>
<path d="M174.46 137.931C171.252 138.244 168.254 138.566 165.364 139.37C162.447 140.058 159.639 140.919 156.956 141.978C151.574 144.045 146.639 146.82 142.247 150.266C137.874 153.739 134.129 157.925 131.078 162.737C127.99 167.549 125.749 173.02 123.98 179.184C122.22 172.992 122.801 166.115 125.156 159.842C127.537 153.569 131.718 147.89 137.038 143.702C142.364 139.513 148.727 136.721 155.28 135.626C158.549 135.028 161.888 135.042 165.127 135.285C168.393 135.598 171.613 136.425 174.46 137.931Z" fill="white"/>
<path d="M123.98 265.932C125.726 272.504 126.595 279.08 127.263 285.652C127.878 292.224 128.163 298.799 128.169 305.372C128.174 311.944 127.889 318.519 127.274 325.091C126.609 331.664 125.735 338.239 123.98 344.811C122.225 338.239 121.348 331.664 120.685 325.091C120.071 318.519 119.783 311.944 119.791 305.372C119.797 298.799 120.082 292.224 120.696 285.652C121.362 279.08 122.233 272.507 123.98 265.932Z" fill="white"/>
<mask id="mask0_403_11314" style="mask-type:luminance" maskUnits="userSpaceOnUse" x="0" y="1" width="231" height="377">
<path d="M230.23 230.407C229.392 211.707 217.41 195.368 200.071 190.207C200.071 183.378 200.071 176.549 200.071 169.716C200.071 147.792 180.793 126.787 158.156 127.801C135.446 128.818 116.24 146.219 116.24 169.716C116.24 176.004 116.24 182.291 116.24 188.578C112.761 188.584 109.282 188.587 105.803 188.592C99.5888 188.601 93.3714 188.651 87.1568 188.626C92.7958 169.599 101.254 152.162 109.503 134.664C120.829 110.638 133.529 87.3278 147.369 64.66C159.167 45.3371 151.597 18.5812 132.333 7.3116C112.412 -4.34083 86.8159 2.97479 74.9846 22.348C58.0089 50.1518 42.7798 78.9531 29.6267 108.763C15.8897 139.903 -3.22362 175.856 1.49045 210.941C7.11827 252.829 42.6819 271.895 81.8699 272.437C93.3239 272.596 104.781 272.624 116.24 272.615C116.24 293.526 116.24 314.439 116.24 335.349C116.24 357.273 135.519 378.278 158.156 377.264C180.865 376.247 200.071 358.846 200.071 335.349C200.071 313.723 200.071 292.1 200.071 270.475C217.158 265.16 231.06 248.936 230.23 230.407ZM75.1969 188.466C75.2137 188.475 75.2277 188.489 75.2444 188.497C72.4948 188.452 71.1395 188.425 75.1969 188.466Z" fill="white"/>
</mask>
<g mask="url(#mask0_403_11314)">
<path opacity="0.2" d="M123.48 63.6711C124.285 67.6698 121.695 71.5623 117.696 72.3671C113.697 73.1719 109.805 70.5815 109 66.5828C108.195 62.5841 110.786 58.6916 114.784 57.8868C118.783 57.082 122.678 59.6724 123.48 63.6711Z" fill="black"/>
<path opacity="0.5" d="M154.359 346.515C155.164 350.514 152.574 354.406 148.575 355.211C144.576 356.016 140.684 353.425 139.879 349.427C139.074 345.428 141.665 341.536 145.663 340.731C149.662 339.929 153.555 342.516 154.359 346.515Z" fill="#FFFDFD"/>
<path d="M55.2521 257.686C55.7299 260.064 54.1903 262.377 51.8151 262.855C49.4371 263.333 47.1234 261.793 46.6455 259.418C46.1677 257.04 47.7074 254.726 50.0826 254.249C52.4606 253.768 54.7743 255.308 55.2521 257.686Z" fill="#FFFDFD"/>
<path d="M115.729 343.265C116.092 345.07 114.921 346.83 113.116 347.194C111.308 347.557 109.55 346.386 109.187 344.581C108.824 342.776 109.995 341.015 111.8 340.652C113.608 340.289 115.365 341.46 115.729 343.265Z" fill="#FFFDFD"/>
<path opacity="0.5" d="M103.338 236.166C103.701 237.971 102.531 239.732 100.725 240.095C98.9203 240.458 97.1598 239.287 96.7966 237.482C96.4333 235.677 97.6041 233.917 99.4093 233.553C101.217 233.19 102.975 234.361 103.338 236.166Z" fill="#FFFDFD"/>
<path d="M99.0335 83.8487C99.3967 85.6539 98.2259 87.4143 96.4207 87.7776C94.6156 88.1408 92.8551 86.97 92.4919 85.1648C92.1286 83.3597 93.2994 81.5993 95.1046 81.236C96.9125 80.8727 98.6702 82.0436 99.0335 83.8487Z" fill="#FFFDFD"/>
<path opacity="0.5" d="M182.067 37.6022C182.43 39.4073 181.259 41.1677 179.454 41.531C177.649 41.8943 175.888 40.7235 175.525 38.9183C175.162 37.1132 176.333 35.3527 178.138 34.9894C179.946 34.6262 181.703 35.797 182.067 37.6022Z" fill="#FFFDFD"/>
<path opacity="0.2" d="M153.387 313.268C153.75 315.073 152.579 316.834 150.774 317.197C148.969 317.56 147.209 316.389 146.845 314.584C146.482 312.779 147.653 311.019 149.458 310.655C151.263 310.292 153.024 311.463 153.387 313.268Z" fill="black"/>
<path d="M55.9924 101.462C56.3557 103.267 55.1849 105.027 53.3797 105.39C51.5718 105.754 49.8141 104.583 49.4509 102.778C49.0876 100.973 50.2584 99.2121 52.0636 98.8488C53.8687 98.4855 55.6292 99.6564 55.9924 101.462Z" fill="#FFFDFD"/>
<path d="M153.387 233.908C153.75 235.713 152.579 237.474 150.774 237.837C148.969 238.2 147.209 237.03 146.845 235.224C146.482 233.419 147.653 231.659 149.458 231.296C151.263 230.929 153.024 232.1 153.387 233.908Z" fill="#FFFDFD"/>
<path d="M59.3342 195.972C59.6975 197.778 58.5267 199.538 56.7215 199.901C54.9164 200.264 53.1559 199.094 52.7927 197.288C52.4294 195.483 53.6002 193.723 55.4054 193.36C57.2105 192.996 58.971 194.164 59.3342 195.972Z" fill="#FFFDFD"/>
<path d="M158.807 167.912C159.285 170.29 157.745 172.603 155.37 173.081C152.992 173.559 150.678 172.019 150.2 169.644C149.722 167.266 151.262 164.952 153.637 164.475C156.015 163.994 158.329 165.534 158.807 167.912Z" fill="#FFFDFD"/>
<path d="M76.8928 131.845C77.3706 134.223 75.8309 136.537 73.4557 137.014C71.0777 137.492 68.764 135.953 68.2862 133.577C67.8083 131.199 69.3481 128.886 71.7232 128.408C74.0984 127.93 76.415 129.467 76.8928 131.845Z" fill="#FFFDFD"/>
<path d="M120.264 33.0055C120.742 35.3835 119.202 37.6973 116.827 38.1751C114.452 38.6529 112.135 37.1132 111.657 34.738C111.179 32.3601 112.719 30.0463 115.094 29.5685C117.472 29.0907 119.786 30.6276 120.264 33.0055Z" fill="#FFFDFD"/>
<path d="M12.9221 105.645C13.3999 108.023 11.8602 110.337 9.48503 110.815C7.10704 111.292 4.7933 109.753 4.31547 107.378C3.83763 105.002 5.37735 102.686 7.75255 102.208C10.1305 101.73 12.4443 103.27 12.9221 105.645Z" fill="#FFFDFD"/>
<path d="M35.2932 213.666C35.771 216.044 34.2313 218.358 31.8561 218.836C29.4809 219.313 27.1644 217.774 26.6866 215.399C26.2087 213.021 27.7484 210.707 30.1236 210.229C32.5016 209.751 34.8154 211.291 35.2932 213.666Z" fill="#FFFDFD"/>
<path d="M139.317 281.996C139.794 284.374 138.255 286.688 135.88 287.165C133.504 287.643 131.188 286.104 130.71 283.728C130.232 281.35 131.772 279.037 134.147 278.559C136.522 278.081 138.839 279.618 139.317 281.996Z" fill="#FFFDFD"/>
<path opacity="0.5" d="M186.44 212.272C186.918 214.65 185.378 216.963 183.003 217.441C180.627 217.919 178.311 216.379 177.833 214.004C177.355 211.629 178.895 209.312 181.27 208.835C183.648 208.357 185.962 209.894 186.44 212.272Z" fill="#FFFDFD"/>
<path opacity="0.5" d="M192.432 328.408C192.91 330.786 191.37 333.099 188.995 333.577C186.617 334.055 184.303 332.515 183.825 330.14C183.347 327.762 184.887 325.449 187.262 324.971C189.64 324.493 191.954 326.033 192.432 328.408Z" fill="#FFFDFD"/>
<path d="M114.785 179.094C115.59 183.093 112.999 186.985 109.001 187.79C105.002 188.595 101.11 186.004 100.305 182.006C99.5 178.007 102.09 174.114 106.089 173.31C110.088 172.508 113.98 175.098 114.785 179.094Z" fill="#FFFDFD"/>
<path d="M65.5742 56.2825C66.3789 60.2812 63.7886 64.1737 59.7898 64.9785C55.7911 65.7833 51.8986 63.1929 51.0938 59.1942C50.2891 55.1955 52.8794 51.303 56.8782 50.4982C60.8769 49.6962 64.7722 52.2866 65.5742 56.2825Z" fill="#FFFDFD"/>
<path opacity="0.2" d="M130.477 216.071C131.281 220.07 128.691 223.963 124.692 224.767C120.693 225.572 116.801 222.982 115.996 218.983C115.191 214.984 117.782 211.092 121.78 210.287C125.779 209.482 129.672 212.073 130.477 216.071Z" fill="black"/>
<path d="M189.377 277.013C190.182 281.012 187.591 284.905 183.593 285.709C179.594 286.514 175.701 283.924 174.897 279.925C174.092 275.926 176.682 272.034 180.681 271.229C184.68 270.427 188.572 273.018 189.377 277.013Z" fill="#FFFDFD"/>
<path d="M203.627 125.035C204.432 129.034 201.841 132.926 197.843 133.731C193.844 134.536 189.951 131.945 189.147 127.947C188.342 123.948 190.932 120.055 194.931 119.251C198.93 118.446 202.825 121.036 203.627 125.035Z" fill="#FFFDFD"/>
</g>
<g opacity="0.2">
<path d="M135.724 54.7714C121.884 77.4392 109.181 100.75 97.858 124.775C89.6119 142.274 78.2249 168.68 72.5859 187.707C77.4202 187.729 82.2571 187.713 87.0942 187.693C92.3336 168.831 102.553 148.371 109.502 133.628C120.828 109.602 133.528 86.2917 147.368 63.6239C159.166 44.301 151.596 17.5451 132.332 6.2755C131.611 5.85355 130.868 5.50983 130.133 5.13818C142.087 18.3499 145.337 39.028 135.724 54.7714Z" fill="black"/>
<path d="M63.5496 178.578C59.4922 178.539 60.8475 178.567 63.5971 178.609C63.5803 178.6 63.5664 178.589 63.5496 178.578Z" fill="black"/>
<path d="M206.789 191.873C213.758 199.443 218.095 209.57 218.584 220.521C219.212 234.579 211.358 247.31 200.068 254.961C200.068 259.787 200.068 264.613 200.068 269.439C217.153 264.124 231.058 247.9 230.228 229.37C229.504 213.202 220.434 198.817 206.789 191.873Z" fill="black"/>
<path d="M116.241 262.73C104.782 262.738 81.681 262.707 70.227 262.551C52.2593 262.302 35.0657 258.147 21.1582 249.697C36.3706 264.144 58.4739 271.076 81.871 271.4C89.4437 271.507 108.663 271.543 116.241 271.568C116.241 268.62 116.241 265.675 116.241 262.73Z" fill="black"/>
</g>
</svg>
