<svg width="249" height="346" viewBox="0 0 249 346" fill="none" xmlns="http://www.w3.org/2000/svg">
<path d="M192.378 8.53012C157.3 5.94814 122.223 2.91626 87.1172 0.784173C51.2909 -1.39263 22.3582 19.0452 11.1612 52.8345C4.7957 72.04 4.23404 94.026 2.63008 114.193C1.16305 132.633 0.464464 153.412 10.091 169.974C21.7518 190.034 44.6794 191.387 65.4443 192.454C80.8439 193.245 96.2687 194.421 111.464 197.115C119.269 198.498 127.012 200.262 134.599 202.567C142.563 204.987 157.803 209.237 162.302 216.759C168.508 227.132 164.37 237.717 155.615 244.957C146.075 252.848 133.618 256.408 121.706 258.837C116.055 259.988 110.316 260.919 104.551 260.759C94.2568 260.477 85.8877 256.202 79.2344 248.486C73.5171 241.858 68.8114 233.939 60.7637 229.826C53.5403 226.134 44.5956 225.277 36.6373 226.132C33.7815 226.439 30.9508 227.015 28.2096 227.884C26.8571 228.311 25.5242 228.811 24.2248 229.381C23.3083 229.784 21.3969 231.298 20.4608 231.298C-0.298392 243.44 -4.53742 268.228 5.42443 288.647C47.2139 374.294 185.878 355.367 232.105 284.179C252.956 252.069 253.884 205.859 233.133 173.522C214.028 143.749 181.667 126.044 148.392 116.56C130.321 111.41 111.297 108.721 92.583 107.458C85.326 106.969 78.0412 106.81 70.7731 107.059C67.0314 107.187 63.2926 107.416 59.5649 107.783C58.3885 107.897 57.2177 108.026 56.0441 108.16C52.8222 108.529 32.9739 109.912 48.9352 108.937C55.9882 110.845 63.0383 112.751 70.0913 114.659C69.3536 114.332 68.6158 114.003 67.8781 113.676C72.8912 118.689 77.9043 123.702 82.9145 128.712C80.8076 125.53 81.576 127.424 85.2199 134.399C86.0274 142.016 86.2174 143.427 85.7871 138.629C85.7648 135.234 85.5915 131.856 85.6642 128.452C85.8318 120.709 86.5164 112.977 87.2681 105.273C87.7823 99.992 88.2992 94.7134 88.8134 89.4321C89.2661 84.7711 90.5766 80.3589 88.9615 87.3866C89.9116 83.251 90.8784 79.216 91.9989 75.125C89.5399 80.4706 89.3527 81.1413 91.4345 77.137C87.7655 81.3509 86.9971 82.3372 89.1264 80.0962C91.3227 77.9194 90.314 78.6682 86.1057 82.3456C80.4639 84.4022 79.9665 84.7711 84.6163 83.4521C79.1673 84.2178 79.103 84.5392 84.4207 84.419C88.0198 84.6845 91.6189 84.9499 95.218 85.2126C100.617 85.6094 106.013 86.0062 111.411 86.4058C138.402 88.3926 165.393 90.3794 192.383 92.3634C214.299 93.9757 235.26 71.9311 234.298 50.4482C233.214 26.3553 215.856 10.257 192.378 8.53012Z" fill="#04AF53"/>
<path d="M114.952 12.6264C110.632 12.7856 106.318 12.8974 102.012 12.9393L95.5511 12.9812C93.4078 13.0091 91.3204 13.1601 89.2163 13.2383C80.8333 13.7664 72.6374 15.5771 65.0033 18.5922C49.7294 24.6867 37.0989 36.1631 29.2244 50.4143C21.0538 64.5733 17.9269 81.2835 15.6802 98.1222L12.5086 123.685C11.2512 132.197 10.1642 140.652 9.6584 149.284C8.30034 140.733 8.28916 131.981 8.40373 123.366C8.58257 114.791 8.62728 106.167 9.16938 97.4991C9.62765 88.8226 10.6672 80.1071 12.5142 71.425C14.4144 62.7709 17.5664 54.1979 21.9312 46.2927C26.4357 38.4629 32.2116 31.2815 39.1807 25.4552C46.1833 19.7073 54.1891 15.0938 62.8069 12.4587C71.38 9.70069 80.389 8.71148 89.1912 9.1446C93.6286 9.47154 97.8955 9.97729 102.154 10.634C106.429 11.2375 110.694 11.9082 114.952 12.6264Z" fill="white"/>
<path d="M170.047 227.286C173.093 230.678 174.7 235.521 174.572 240.417C174.485 242.867 173.976 245.335 173.091 247.702C172.171 250.116 170.78 252.17 169.38 254.109C163.593 262.039 154.874 267.117 146.083 270.21C141.649 271.733 137.057 272.823 132.545 273.513C127.998 274.198 123.368 274.673 118.693 274.463C114.029 274.349 109.326 273.644 104.858 272.175C100.435 270.593 96.2292 268.221 93.1777 264.834C101.446 268.659 110.014 268.821 118.447 267.927C126.836 266.86 135.423 264.965 143.331 262.297C151.23 259.527 158.677 255.688 164.406 249.906C165.864 248.451 167.147 246.897 168.181 245.31C169.223 243.669 170.006 241.825 170.52 239.872C171.64 235.957 171.464 231.595 170.047 227.286Z" fill="white"/>
<mask id="mask0_403_11365" style="mask-type:luminance" maskUnits="userSpaceOnUse" x="0" y="1" width="249" height="345">
<path d="M192.378 8.98023C157.3 6.39825 122.223 3.36646 87.1172 1.23437C51.2909 -0.94243 22.3582 19.4954 11.1612 53.2847C4.7957 72.4902 4.23404 94.4762 2.63008 114.643C1.16305 133.083 0.464464 153.859 10.091 170.421C21.7518 190.482 44.6794 191.834 65.4443 192.901C80.8439 193.692 96.2687 194.869 111.464 197.56C119.269 198.943 127.012 200.706 134.599 203.011C142.563 205.431 157.803 209.682 162.302 217.204C168.508 227.577 164.37 238.162 155.615 245.402C146.075 253.293 133.618 256.853 121.706 259.281C116.055 260.433 110.316 261.363 104.551 261.204C94.2568 260.922 85.8877 256.646 79.2344 248.931C73.5171 242.303 68.8114 234.384 60.7637 230.27C53.5403 226.579 44.5956 225.721 36.6373 226.576C33.7815 226.884 30.9508 227.459 28.2096 228.328C26.8571 228.756 25.5242 229.256 24.2248 229.826C23.3083 230.228 21.3969 231.743 20.4608 231.743C-0.298392 243.887 -4.53742 268.673 5.42443 289.091C47.2139 374.738 185.878 355.812 232.105 284.623C252.956 252.513 253.884 206.303 233.133 173.967C214.028 144.193 181.667 126.488 148.392 117.004C130.321 111.854 111.297 109.166 92.583 107.903C85.326 107.414 78.0412 107.255 70.7731 107.503C67.0314 107.632 63.2926 107.861 59.5649 108.227C58.3885 108.342 57.2177 108.47 56.0441 108.604C52.8222 108.973 32.9739 110.356 48.9352 109.381C55.9882 111.29 63.0383 113.196 70.0913 115.104C69.3536 114.777 68.6158 114.447 67.8781 114.12C72.8912 119.133 77.9043 124.144 82.9145 129.157C80.8076 125.974 81.576 127.871 85.2199 134.843C86.0274 142.461 86.2174 143.872 85.7871 139.074C85.7648 135.676 85.5915 132.3 85.6642 128.897C85.8318 121.154 86.5164 113.422 87.2681 105.718C87.7823 100.437 88.2992 95.1552 88.8134 89.8767C89.2661 85.2157 90.5766 80.8034 88.9615 87.8312C89.9116 83.6956 90.8784 79.6605 91.9989 75.5696C89.5399 80.9152 89.3527 81.5886 91.4345 77.5815C87.7655 81.7954 86.9971 82.779 89.1264 80.5407C91.3227 78.3639 90.314 79.1128 86.1057 82.7902C80.4639 84.8468 79.9665 85.2157 84.6163 83.8968C79.1673 84.6597 79.103 84.9837 84.4207 84.8636C88.0198 85.129 91.6189 85.3945 95.218 85.6572C100.617 86.054 106.013 86.4508 111.411 86.8504C138.402 88.8371 165.393 90.824 192.383 92.808C214.299 94.4203 235.26 72.3785 234.298 50.8927C233.214 26.8082 215.856 10.7099 192.378 8.98023Z" fill="white"/>
</mask>
<g mask="url(#mask0_403_11365)">
<path opacity="0.2" d="M106.469 41.8698C105.664 45.8686 108.254 49.7611 112.253 50.5659C116.252 51.3706 120.144 48.7803 120.949 44.7815C121.754 40.7828 119.164 36.8903 115.165 36.0855C111.166 35.2808 107.274 37.8711 106.469 41.8698Z" fill="black"/>
<path opacity="0.5" d="M92.088 324.717C91.2832 328.716 93.8736 332.608 97.8723 333.413C101.871 334.218 105.764 331.627 106.568 327.629C107.373 323.63 104.783 319.737 100.784 318.933C96.7853 318.128 92.8927 320.718 92.088 324.717Z" fill="#FFFDFD"/>
<path d="M194.661 238.5C194.183 240.878 195.723 243.191 198.098 243.669C200.476 244.147 202.79 242.607 203.268 240.232C203.746 237.854 202.206 235.54 199.831 235.062C197.453 234.582 195.139 236.122 194.661 238.5Z" fill="#FFFDFD"/>
<path d="M147.568 312.405C147.205 314.211 148.376 315.971 150.181 316.334C151.986 316.698 153.746 315.527 154.11 313.722C154.473 311.914 153.302 310.156 151.497 309.793C149.692 309.429 147.931 310.598 147.568 312.405Z" fill="#FFFDFD"/>
<path opacity="0.5" d="M126.609 214.368C126.246 216.176 127.417 217.934 129.222 218.297C131.027 218.661 132.787 217.49 133.151 215.685C133.514 213.877 132.343 212.119 130.538 211.756C128.733 211.392 126.972 212.56 126.609 214.368Z" fill="#FFFDFD"/>
<path d="M130.916 62.0503C130.552 63.8555 131.723 65.6159 133.528 65.9792C135.334 66.3424 137.094 65.1716 137.457 63.3665C137.821 61.5613 136.65 59.8009 134.845 59.4376C133.037 59.0715 131.279 60.2424 130.916 62.0503Z" fill="#FFFDFD"/>
<path opacity="0.5" d="M58.9606 50.0544C58.5974 51.8595 59.7682 53.62 61.5733 53.9833C63.3785 54.3465 65.1389 53.1757 65.5022 51.3706C65.8655 49.5626 64.6946 47.805 62.8895 47.4417C61.0815 47.0784 59.3239 48.2465 58.9606 50.0544Z" fill="#FFFDFD"/>
<path opacity="0.2" d="M76.5622 291.469C76.1989 293.275 77.3698 295.035 79.1749 295.398C80.9801 295.762 82.7405 294.591 83.1038 292.786C83.467 290.978 82.2962 289.22 80.491 288.857C78.6859 288.493 76.9255 289.661 76.5622 291.469Z" fill="black"/>
<path d="M173.961 79.6638C173.597 81.4717 174.768 83.2294 176.573 83.5926C178.379 83.9559 180.139 82.7851 180.502 80.9799C180.865 79.172 179.695 77.4143 177.889 77.0511C176.084 76.6878 174.324 77.8558 173.961 79.6638Z" fill="#FFFDFD"/>
<path d="M76.5622 212.108C76.1989 213.913 77.3698 215.673 79.1749 216.036C80.9801 216.4 82.7405 215.229 83.1038 213.424C83.467 211.619 82.2962 209.858 80.491 209.495C78.6859 209.132 76.9255 210.3 76.5622 212.108Z" fill="#FFFDFD"/>
<path d="M170.621 174.172C170.258 175.98 171.428 177.737 173.233 178.1C175.039 178.464 176.799 177.293 177.162 175.488C177.526 173.682 176.355 171.922 174.55 171.559C172.744 171.195 170.984 172.366 170.621 174.172Z" fill="#FFFDFD"/>
<path d="M71.1416 146.11C70.6638 148.488 72.2035 150.802 74.5787 151.28C76.9567 151.758 79.2704 150.218 79.7482 147.843C80.2261 145.465 78.6864 143.151 76.3112 142.673C73.9332 142.196 71.6195 143.732 71.1416 146.11Z" fill="#FFFDFD"/>
<path d="M153.062 110.044C152.584 112.422 154.123 114.736 156.499 115.214C158.877 115.691 161.19 114.152 161.668 111.777C162.146 109.399 160.606 107.085 158.231 106.607C155.853 106.129 153.539 107.669 153.062 110.044Z" fill="#FFFDFD"/>
<path d="M109.69 11.2047C109.213 13.5827 110.752 15.8964 113.128 16.3743C115.506 16.8521 117.819 15.3124 118.297 12.9372C118.775 10.5592 117.235 8.24545 114.86 7.76761C112.482 7.28978 110.168 8.8295 109.69 11.2047Z" fill="#FFFDFD"/>
<path d="M208.23 46.5089C207.752 48.8869 209.291 51.2006 211.667 51.6785C214.042 52.1563 216.358 50.6166 216.836 48.2414C217.314 45.8634 215.774 43.5496 213.399 43.0718C211.021 42.594 208.707 44.1337 208.23 46.5089Z" fill="#FFFDFD"/>
<path d="M194.661 191.868C194.183 194.246 195.723 196.559 198.098 197.037C200.476 197.515 202.79 195.975 203.268 193.6C203.746 191.225 202.206 188.908 199.831 188.431C197.453 187.95 195.139 189.49 194.661 191.868Z" fill="#FFFDFD"/>
<path d="M90.6377 276.961C90.1599 279.339 91.6996 281.653 94.0748 282.131C96.45 282.609 98.7665 281.069 99.2443 278.694C99.7222 276.316 98.1825 274.002 95.8073 273.524C93.4321 273.047 91.1156 274.586 90.6377 276.961Z" fill="#FFFDFD"/>
<path opacity="0.5" d="M33.6534 165.688C33.1755 168.063 34.7152 170.379 37.0904 170.857C39.4684 171.335 41.7821 169.795 42.2599 167.42C42.7378 165.045 41.1981 162.728 38.8229 162.251C36.4449 161.773 34.1312 163.31 33.6534 165.688Z" fill="#FFFDFD"/>
<path opacity="0.5" d="M37.5225 306.609C37.0447 308.985 38.5843 311.301 40.9595 311.779C43.3375 312.257 45.6513 310.717 46.1291 308.342C46.6069 305.964 45.0672 303.65 42.692 303.172C40.314 302.692 38.0003 304.231 37.5225 306.609Z" fill="#FFFDFD"/>
<path d="M115.168 157.296C114.363 161.295 116.954 165.187 120.952 165.992C124.951 166.797 128.844 164.207 129.648 160.208C130.453 156.209 127.863 152.317 123.864 151.512C119.865 150.707 115.973 153.297 115.168 157.296Z" fill="#FFFDFD"/>
<path d="M164.375 34.4846C163.57 38.4833 166.161 42.3758 170.159 43.1806C174.158 43.9854 178.051 41.395 178.855 37.3963C179.66 33.3976 177.07 29.505 173.071 28.7003C169.072 27.8955 165.18 30.4859 164.375 34.4846Z" fill="#FFFDFD"/>
<path opacity="0.2" d="M167.377 285.554C166.572 289.553 169.163 293.445 173.161 294.25C177.16 295.055 181.053 292.464 181.857 288.466C182.662 284.467 180.072 280.574 176.073 279.77C172.074 278.965 168.182 281.555 167.377 285.554Z" fill="black"/>
<path d="M40.5782 255.216C39.7734 259.215 42.3638 263.107 46.3625 263.912C50.3612 264.717 54.2537 262.126 55.0585 258.128C55.8633 254.129 53.2729 250.236 49.2742 249.432C45.2755 248.627 41.383 251.217 40.5782 255.216Z" fill="#FFFDFD"/>
<path d="M26.3282 103.234C25.5234 107.233 28.1138 111.126 32.1125 111.93C36.1112 112.735 40.0037 110.145 40.8085 106.146C41.6133 102.147 39.0229 98.2547 35.0242 97.45C31.0227 96.648 27.1302 99.2356 26.3282 103.234Z" fill="#FFFDFD"/>
</g>
<g opacity="0.2">
<path d="M122.953 193.715C115.367 191.406 107.624 189.643 99.8191 188.263C84.6206 185.572 69.1958 184.396 53.7989 183.602C40.4475 182.914 26.2159 182.082 14.6445 176.258C27.1073 190.322 47.1121 191.507 65.443 192.449C80.8427 193.24 96.2674 194.416 111.463 197.11C119.268 198.493 127.011 200.256 134.598 202.561C138.851 203.855 145.174 205.677 150.836 208.234C150.771 208.125 150.724 208.013 150.659 207.904C146.155 200.385 130.915 196.135 122.953 193.715Z" fill="black"/>
<path d="M233.135 173.52C224.363 159.85 212.775 148.751 199.608 139.795C207.977 146.952 215.41 155.195 221.491 164.671C242.239 197.007 241.311 243.217 220.46 275.327C183.27 332.6 86.2862 355.991 28.0156 318.374C84.0367 367.946 192.304 345.468 232.106 284.177C252.955 252.069 253.883 205.857 233.135 173.52Z" fill="black"/>
<path d="M222.65 41.596C223.611 63.079 202.651 85.1236 180.735 83.5113C153.744 81.5245 126.753 79.5376 99.7656 77.5537C94.367 77.1569 88.9711 76.7601 83.5724 76.3633C81.6918 76.2264 79.8112 76.0867 77.9306 75.947C77.83 76.3801 77.7238 76.8104 77.6232 77.2463C77.4583 78.2188 77.2879 79.3896 77.1705 80.58C76.6564 85.8613 76.1394 91.1426 75.6253 96.4211C75.561 97.0694 74.583 105.606 74.5215 106.254C76.3546 106.335 78.1905 106.372 80.0208 106.495C82.3261 106.651 84.6342 106.827 86.9452 107.028C87.2609 103.79 88.5016 92.6655 88.8146 89.4296C88.9291 88.2393 89.1024 87.0684 89.2673 86.096C89.3679 85.6629 89.474 85.2298 89.5746 84.7966C91.4552 84.9336 93.3358 85.0733 95.2164 85.2102C100.615 85.607 106.011 86.0037 111.41 86.4033C138.4 88.3901 165.391 90.377 192.379 92.3609C214.295 93.9733 235.255 71.9287 234.294 50.4457C233.537 33.5678 224.771 20.6356 211.526 13.7979C218.073 20.9067 222.147 30.3683 222.65 41.596ZM89.312 85.8222C89.379 85.4366 89.4433 85.0872 89.502 84.791C89.5132 84.791 89.5243 84.7938 89.5355 84.7938C89.4768 85.0705 89.4014 85.417 89.312 85.8222Z" fill="black"/>
<path d="M79.5806 248.856C79.466 248.727 79.3431 248.615 79.2313 248.484C73.5141 241.856 68.8084 233.937 60.7606 229.823C60.1459 229.508 59.5004 229.242 58.8633 228.968C61.9035 232.397 64.6113 236.186 67.5872 239.634C71.0914 243.703 75.0901 246.782 79.5806 248.856Z" fill="black"/>
<path d="M77.8541 75.9385C77.7954 76.2347 77.7311 76.584 77.6641 76.9696C77.7535 76.5645 77.8289 76.2207 77.8876 75.9413C77.8764 75.9413 77.8653 75.9413 77.8541 75.9385Z" fill="black"/>
</g>
</svg>
