<svg width="238" height="347" viewBox="0 0 238 347" fill="none" xmlns="http://www.w3.org/2000/svg">
<path d="M220.19 170.357C203.751 144.414 176.942 124.845 146.364 119.785C128.617 116.848 111.962 117.918 96.2637 122.45C96.4342 121.975 96.5767 121.489 96.7527 121.014C97.0405 120.24 97.1942 119.768 97.2697 119.474C97.6693 117.918 99.765 113.578 100.595 112.223C104.61 105.673 107.765 101.932 113.628 96.8318C119.197 91.9864 125.685 88.4488 132.786 86.3447C139.68 84.302 147.048 84.0533 153.992 86.0177C162.643 88.4656 171.842 91.4639 180.919 89.8543C196.355 87.113 211.416 74.9353 214.984 59.2674C220.375 35.6049 207.795 15.779 185.708 7.70609C122.086 -15.5457 50.4755 20.9625 23.3284 80.8538C8.94587 112.584 3.34601 146.42 1.49056 181.059C-0.040741 209.665 0.0430958 239.578 10.4828 266.664C21.4031 294.993 40.4298 320.237 68.4124 333.538C97.3144 347.278 132.101 350.413 162.657 340.021C231.275 316.691 258.85 231.369 220.19 170.357ZM151.066 252.648C144.033 259.879 132.464 263.378 122.891 263.437C114.547 263.487 106.226 261.005 99.209 256.507C91.2646 251.418 88.2775 244.105 87.5118 234.822C86.8971 227.364 87.6152 219.657 90.7309 212.856C101.973 188.308 140.713 190.962 152.478 213.538C157.236 222.667 159.813 234.909 156.113 244.807C155.001 247.788 153.254 250.398 151.066 252.648Z" fill="#0A89E8"/>
<path d="M177.584 13.6891C147.081 8.98897 116.041 16.2487 90.3666 31.6651C64.6111 47.0788 44.0139 70.5429 32.6856 98.1874C20.8907 125.944 15.4389 156.1 12.8262 186.422C11.5995 201.637 10.6075 216.891 11.1161 232.101C11.5408 247.305 13.5863 262.517 18.2277 277.199C11.8286 263.169 8.58997 247.766 7.00837 232.372C5.51619 216.922 5.62238 201.413 6.29861 185.994C6.93013 170.536 8.66822 155.072 11.538 139.762C14.5475 124.479 18.9654 109.407 24.9649 94.9375C31.1767 80.5103 39.5625 66.7426 50.1978 55.0902C60.8359 43.4433 73.3015 33.4619 87.1419 26.0038C100.918 18.4591 115.999 13.3509 131.446 11.0959C146.888 8.91629 162.729 9.60372 177.584 13.6891Z" fill="white"/>
<path d="M160.221 224.073C165.363 230.341 168.291 239.012 167.363 247.786C167.028 252.193 165.449 256.46 163.362 260.414C161.151 264.345 158.022 267.687 154.507 270.507C147.199 275.816 138.009 278.141 129.458 277.253C120.888 276.425 112.737 272.84 106.955 267.042C114.595 269.831 122.223 271.152 129.595 270.661C136.992 270.258 143.852 267.802 149.485 263.798C152.179 261.635 154.655 259.187 156.591 256.281C158.413 253.338 160.067 250.167 160.894 246.657C162.834 239.685 162.241 231.956 160.221 224.073Z" fill="white"/>
<mask id="mask0_403_11410" style="mask-type:luminance" maskUnits="userSpaceOnUse" x="0" y="1" width="238" height="346">
<path d="M220.192 170.809C203.753 144.867 176.944 125.298 146.366 120.237C128.619 117.3 111.964 118.371 96.2657 122.903C96.4361 122.428 96.5786 121.942 96.7547 121.467C97.0425 120.693 97.1962 120.221 97.2716 119.927C97.6712 118.373 99.767 114.031 100.597 112.679C104.612 106.129 107.767 102.387 113.63 97.2873C119.199 92.4419 125.687 88.9043 132.788 86.8001C139.681 84.7574 147.05 84.5087 153.994 86.4732C162.645 88.921 171.844 91.9194 180.92 90.307C196.356 87.5658 211.418 75.388 214.986 59.72C220.377 36.0575 207.796 16.2316 185.71 8.15873C122.088 -15.0931 50.4774 21.4151 23.3303 81.3064C8.94782 113.036 3.34796 146.873 1.49252 181.515C-0.0387878 210.12 0.0450489 240.031 10.4847 267.119C21.4051 295.449 40.4318 320.693 68.4144 333.994C97.3163 347.734 132.103 350.869 162.659 340.477C231.277 317.144 258.852 231.821 220.192 170.809ZM151.068 253.1C144.035 260.332 132.466 263.83 122.893 263.889C114.549 263.939 106.228 261.458 99.2109 256.962C91.2666 251.873 88.2794 244.561 87.5138 235.278C86.899 227.82 87.6171 220.113 90.7328 213.311C101.975 188.763 140.715 191.418 152.48 213.993C157.238 223.122 159.815 235.364 156.115 245.262C155.003 248.241 153.256 250.851 151.068 253.1Z" fill="white"/>
</mask>
<g mask="url(#mask0_403_11410)">
<path opacity="0.2" d="M160.545 285.02C161.35 281.022 158.759 277.129 154.761 276.324C150.762 275.52 146.869 278.11 146.065 282.109C145.26 286.107 147.85 290 151.849 290.805C155.848 291.607 159.74 289.019 160.545 285.02Z" fill="black"/>
<path opacity="0.5" d="M56.4179 31.721C57.2227 27.7223 54.6323 23.8298 50.6336 23.025C46.6349 22.2202 42.7424 24.8106 41.9376 28.8093C41.1328 32.808 43.7232 36.7005 47.7219 37.5053C51.7206 38.3073 55.6131 35.7197 56.4179 31.721Z" fill="#FFFDFD"/>
<path d="M64.3146 98.8605C64.7925 96.4825 63.2528 94.1688 60.8776 93.691C58.5024 93.2131 56.1859 94.7528 55.708 97.128C55.2302 99.506 56.7699 101.82 59.1451 102.298C61.5231 102.775 63.8368 101.236 64.3146 98.8605Z" fill="#FFFDFD"/>
<path d="M124.791 13.2782C125.155 11.473 123.984 9.71256 122.179 9.34929C120.373 8.98603 118.613 10.1569 118.25 11.962C117.886 13.7672 119.057 15.5276 120.862 15.8909C122.67 16.2541 124.428 15.0861 124.791 13.2782Z" fill="#FFFDFD"/>
<path opacity="0.5" d="M117.123 137.842C117.487 136.036 116.316 134.276 114.511 133.913C112.705 133.55 110.945 134.72 110.582 136.526C110.218 138.334 111.389 140.091 113.194 140.454C115 140.82 116.76 139.65 117.123 137.842Z" fill="#FFFDFD"/>
<path d="M108.096 272.694C108.459 270.889 107.288 269.129 105.483 268.765C103.678 268.402 101.918 269.573 101.554 271.378C101.191 273.183 102.362 274.944 104.167 275.307C105.975 275.673 107.733 274.502 108.096 272.694Z" fill="#FFFDFD"/>
<path opacity="0.5" d="M191.129 318.941C191.492 317.133 190.322 315.375 188.516 315.012C186.711 314.649 184.951 315.819 184.588 317.625C184.224 319.43 185.395 321.19 187.2 321.553C189.008 321.917 190.766 320.746 191.129 318.941Z" fill="#FFFDFD"/>
<path opacity="0.2" d="M162.449 43.2757C162.813 41.4706 161.642 39.7101 159.837 39.3469C158.032 38.9836 156.271 40.1544 155.908 41.9596C155.545 43.7675 156.715 45.5252 158.521 45.8884C160.326 46.2545 162.086 45.0837 162.449 43.2757Z" fill="black"/>
<path d="M65.0549 255.081C65.4182 253.276 64.2473 251.516 62.4422 251.153C60.6342 250.789 58.8766 251.96 58.5134 253.765C58.1501 255.573 59.3209 257.331 61.1261 257.694C62.9312 258.057 64.6917 256.886 65.0549 255.081Z" fill="#FFFDFD"/>
<path d="M155.229 141.181C155.592 139.376 154.421 137.615 152.616 137.252C150.811 136.889 149.05 138.06 148.687 139.865C148.324 141.67 149.495 143.43 151.3 143.794C153.108 144.157 154.866 142.986 155.229 141.181Z" fill="#FFFDFD"/>
<path d="M68.3909 160.574C68.7541 158.768 67.5833 157.008 65.7781 156.645C63.973 156.281 62.2126 157.452 61.8493 159.257C61.486 161.063 62.6569 162.823 64.462 163.186C66.2699 163.55 68.0276 162.379 68.3909 160.574Z" fill="#FFFDFD"/>
<path d="M217.633 269.654C218.111 267.279 216.571 264.963 214.196 264.485C211.821 264.007 209.504 265.547 209.026 267.922C208.549 270.3 210.088 272.614 212.463 273.091C214.841 273.572 217.155 272.032 217.633 269.654Z" fill="#FFFDFD"/>
<path d="M48.7443 220.308C49.2221 217.93 47.6824 215.617 45.3073 215.139C42.9293 214.661 40.6156 216.201 40.1377 218.576C39.6599 220.954 41.1996 223.267 43.5748 223.745C45.9528 224.226 48.2665 222.686 48.7443 220.308Z" fill="#FFFDFD"/>
<path d="M129.326 323.538C129.804 321.163 128.264 318.846 125.889 318.368C123.511 317.89 121.198 319.43 120.72 321.805C120.242 324.18 121.782 326.497 124.157 326.975C126.535 327.455 128.849 325.916 129.326 323.538Z" fill="#FFFDFD"/>
<path d="M21.9846 250.898C22.4624 248.523 20.9227 246.206 18.5475 245.729C16.1695 245.251 13.8558 246.79 13.378 249.166C12.9001 251.541 14.4398 253.857 16.815 254.335C19.193 254.813 21.5067 253.276 21.9846 250.898Z" fill="#FFFDFD"/>
<path d="M29.3029 164.117C29.7807 161.742 28.2411 159.426 25.8659 158.948C23.4879 158.47 21.1742 160.01 20.6963 162.385C20.2185 164.76 21.7582 167.077 24.1334 167.554C26.5114 168.035 28.8251 166.495 29.3029 164.117Z" fill="#FFFDFD"/>
<path d="M133.551 58.7253C134.029 56.3473 132.489 54.0335 130.114 53.5557C127.739 53.0779 125.422 54.6176 124.944 56.9928C124.467 59.3708 126.006 61.6845 128.381 62.1623C130.759 62.6402 133.073 61.1005 133.551 58.7253Z" fill="#FFFDFD"/>
<path opacity="0.5" d="M195.502 144.272C195.98 141.894 194.44 139.58 192.065 139.102C189.687 138.624 187.373 140.164 186.896 142.539C186.418 144.914 187.957 147.231 190.333 147.709C192.711 148.189 195.024 146.65 195.502 144.272Z" fill="#FFFDFD"/>
<path opacity="0.5" d="M201.494 28.1354C201.972 25.7574 200.432 23.4437 198.057 22.9659C195.682 22.488 193.366 24.0277 192.888 26.4029C192.41 28.7808 193.95 31.0946 196.325 31.5724C198.7 32.053 201.016 30.5134 201.494 28.1354Z" fill="#FFFDFD"/>
<path d="M123.848 177.449C124.652 173.45 122.062 169.557 118.063 168.753C114.065 167.948 110.172 170.538 109.367 174.537C108.562 178.536 111.153 182.428 115.152 183.233C119.15 184.035 123.046 181.447 123.848 177.449Z" fill="#FFFDFD"/>
<path d="M74.6405 300.261C75.4453 296.262 72.855 292.37 68.8562 291.565C64.8575 290.76 60.965 293.351 60.1602 297.349C59.3555 301.348 61.9458 305.241 65.9445 306.045C69.9432 306.847 73.8358 304.26 74.6405 300.261Z" fill="#FFFDFD"/>
<path opacity="0.2" d="M96.2968 70.8553C97.1016 66.8566 94.5112 62.964 90.5125 62.1593C86.5138 61.3545 82.6213 63.9449 81.8165 67.9436C81.0117 71.9423 83.6021 75.8348 87.6008 76.6396C91.5995 77.4416 95.492 74.854 96.2968 70.8553Z" fill="black"/>
<path d="M206.379 69.699C207.184 65.7003 204.593 61.8078 200.595 61.003C196.596 60.1982 192.703 62.7886 191.899 66.7873C191.094 70.786 193.684 74.6786 197.683 75.4833C201.682 76.2881 205.574 73.6977 206.379 69.699Z" fill="#FFFDFD"/>
<path d="M212.689 231.512C213.494 227.513 210.904 223.62 206.905 222.816C202.906 222.011 199.014 224.601 198.209 228.6C197.404 232.599 199.995 236.491 203.993 237.296C207.992 238.098 211.885 235.51 212.689 231.512Z" fill="#FFFDFD"/>
</g>
<g opacity="0.2">
<path d="M87.5662 247.66C89.2121 248.713 90.9334 249.647 92.7078 250.474C89.5139 246.148 88.0189 240.923 87.5159 234.825C86.9012 227.367 87.6193 219.661 90.735 212.859C98.7912 195.266 120.97 191.65 137.219 199.318C122.591 181.87 89.363 181.574 79.0882 204.009C75.9725 210.814 75.2543 218.52 75.8691 225.976C76.6347 235.259 79.6219 242.571 87.5662 247.66Z" fill="black"/>
<path d="M203.34 50.4177C199.772 66.0884 184.71 78.2633 169.274 81.0046C160.198 82.6169 150.999 79.6185 142.348 77.1707C135.133 75.1308 127.468 75.4857 120.348 77.7436C113.191 80.0126 106.653 84.0588 101.1 89.0775C98.06 91.8271 95.3495 94.9204 92.938 98.2317C90.5963 101.442 88.4363 104.893 86.606 108.459C84.6891 112.195 83.1997 116.132 81.3554 119.905C80.6764 121.296 79.9946 122.688 79.3184 124.082C79.201 124.325 78.6533 125.957 78.3906 126.033C84.214 124.351 90.1744 123.149 96.2689 122.45C101.436 102.692 127.711 78.5903 153.997 86.0205C162.649 88.4655 171.845 91.4666 180.924 89.8542C196.36 87.113 211.421 74.9353 214.99 59.2673C219.746 38.388 210.499 20.5097 193.087 11.0425C202.636 21.0323 206.878 34.8867 203.34 50.4177Z" fill="black"/>
<path d="M220.189 170.357C211.527 156.684 199.961 144.811 186.501 135.869C195.032 143.285 202.496 151.958 208.545 161.507C247.202 222.519 219.628 307.838 151.013 331.174C120.456 341.566 85.6695 338.431 56.7675 324.691C52.6487 322.732 48.7478 320.486 45.0117 318.038C51.9752 324.169 59.7631 329.428 68.4116 333.541C97.3135 347.281 132.1 350.416 162.657 340.024C231.275 316.691 258.849 231.368 220.189 170.357Z" fill="black"/>
</g>
</svg>
