<svg width="230" height="346" viewBox="0 0 230 346" fill="none" xmlns="http://www.w3.org/2000/svg">
<path d="M42.7742 85.3809C91.3455 83.0616 139.948 84.7913 188.544 84.9059C176.481 63.8812 164.415 42.8593 152.352 21.8346C130.494 65.4125 94.4584 99.5035 70.5807 141.824C44.0344 188.87 24.1638 240.341 11.1645 292.716C5.89152 313.961 17.9827 339.161 40.4409 344.277C62.125 349.218 86.352 337.766 92.0022 315.001C104.079 266.34 120.303 222.835 145.299 180.045C169 139.468 203.575 106.344 224.739 64.1466C238.747 36.2171 221.839 1.15645 188.547 1.07542C139.95 0.958055 91.3483 -0.771694 42.7769 1.55041C20.9084 2.5955 -0.186181 20.0825 0.8617 43.4656C1.83693 65.2783 19.3184 86.5014 42.7742 85.3809Z" fill="#13AE9C"/>
<path d="M196.287 11.6102C178.663 13.2952 161.016 13.9574 143.401 14.3766C134.593 14.67 125.791 14.6616 116.997 14.86L90.6324 15.1674C81.8498 15.1926 73.0727 15.3295 64.2984 15.5111L51.1371 15.7347C47.035 15.8912 43.039 16.4723 39.0711 17.5929C35.1171 18.7246 31.3783 20.5465 27.8322 22.687C24.2666 24.8163 21.0419 27.5408 18.2979 30.7012C15.5175 33.8253 13.1312 37.3881 11.5188 41.3505C9.90927 45.3073 8.92844 49.5742 8.6015 54.0005C8.03984 49.6134 8.22705 45.0557 9.31126 40.6211C10.3591 36.1641 12.4828 32.0005 15.0564 28.1667C20.3266 20.5102 28.1955 14.7567 36.9725 11.3979C41.3708 9.7436 46.0933 8.72646 50.7906 8.39952L64.0358 7.58069C72.8715 7.15595 81.7073 6.95481 90.543 6.79273C108.214 6.67817 125.861 7.0023 143.476 7.86296C161.089 8.67332 178.674 9.8246 196.287 11.6102Z" fill="white"/>
<path d="M115.967 98.0537C105.748 114.244 94.9282 129.946 85.6314 146.354C76.5665 162.866 68.0633 179.889 60.2615 197.105C56.2823 205.692 52.482 214.368 48.8829 223.126C45.1273 231.825 41.7545 240.68 38.284 249.513C31.4602 267.224 25.2287 285.18 18.9023 303.248C21.842 284.331 26.3744 265.664 32.1028 247.367C37.7363 229.03 44.7361 211.119 52.6413 193.62C56.6736 184.908 60.9573 176.309 65.4534 167.829C67.7923 163.634 70.078 159.415 72.5175 155.282C74.8731 151.121 77.4049 146.98 80.0679 142.956C90.6668 126.802 103.009 112.12 115.967 98.0537Z" fill="white"/>
<mask id="mask0_403_10516" style="mask-type:luminance" maskUnits="userSpaceOnUse" x="0" y="0" width="230" height="346">
<path d="M42.7742 85.8306C91.3455 83.5085 139.948 85.2382 188.544 85.3555C176.481 64.3309 164.415 43.309 152.352 22.2843C130.494 65.8622 94.4584 99.9533 70.5807 142.274C44.0344 189.319 24.1638 240.791 11.1645 293.166C5.89152 314.411 17.9827 339.611 40.4409 344.727C62.125 349.665 86.352 338.216 92.0022 315.451C104.079 266.787 120.303 223.285 145.299 180.495C169 139.918 203.575 106.791 224.739 64.5964C238.747 36.6668 221.839 1.60611 188.547 1.52507C139.95 1.40771 91.3483 -0.321958 42.7769 2.00015C20.9084 3.04523 -0.186181 20.5323 0.8617 43.9154C1.83693 65.7309 19.3184 86.9511 42.7742 85.8306Z" fill="white"/>
</mask>
<g mask="url(#mask0_403_10516)">
<path opacity="0.2" d="M72.418 70.4846C71.6133 74.4833 74.2036 78.3758 78.2023 79.1806C82.201 79.9854 86.0936 77.395 86.8983 73.3963C87.7031 69.3976 85.1128 65.505 81.1141 64.7003C77.1153 63.8955 73.22 66.4859 72.418 70.4846Z" fill="#EE940D"/>
<path opacity="0.5" d="M179.33 309.309C178.525 313.308 181.116 317.201 185.114 318.005C189.113 318.81 193.006 316.22 193.81 312.221C194.615 308.222 192.025 304.33 188.026 303.525C184.027 302.72 180.135 305.311 179.33 309.309Z" fill="#FFFDFD"/>
<path d="M171.433 242.169C170.955 244.547 172.494 246.861 174.87 247.339C177.248 247.816 179.561 246.277 180.039 243.902C180.517 241.524 178.977 239.21 176.602 238.732C174.224 238.254 171.91 239.794 171.433 242.169Z" fill="#FFFDFD"/>
<path d="M110.957 327.752C110.593 329.557 111.764 331.317 113.569 331.681C115.375 332.044 117.135 330.873 117.498 329.068C117.861 327.263 116.691 325.502 114.886 325.139C113.08 324.776 111.32 325.944 110.957 327.752Z" fill="#FFFDFD"/>
<path opacity="0.5" d="M123.345 220.652C122.982 222.46 124.153 224.218 125.958 224.581C127.763 224.944 129.524 223.773 129.887 221.968C130.25 220.16 129.079 218.403 127.274 218.039C125.466 217.676 123.709 218.844 123.345 220.652Z" fill="#FFFDFD"/>
<path d="M127.646 68.335C127.283 70.1401 128.454 71.9006 130.259 72.2639C132.067 72.6271 133.824 71.4563 134.188 69.6511C134.551 67.846 133.38 66.0855 131.575 65.7223C129.77 65.3562 128.009 66.527 127.646 68.335Z" fill="#FFFDFD"/>
<path opacity="0.5" d="M58.486 36.4885C58.1227 38.2936 59.2936 40.0541 61.0987 40.4174C62.9039 40.7806 64.6643 39.6098 65.0276 37.8046C65.3908 35.9995 64.22 34.239 62.4148 33.8758C60.6097 33.5125 58.8493 34.6805 58.486 36.4885Z" fill="#FFFDFD"/>
<path opacity="0.2" d="M73.2927 297.754C72.9294 299.559 74.1002 301.32 75.9054 301.683C77.7133 302.046 79.471 300.875 79.8342 299.07C80.1975 297.262 79.0266 295.504 77.2215 295.141C75.4163 294.775 73.6587 295.946 73.2927 297.754Z" fill="#EE940D"/>
<path d="M161.773 107.196C161.41 109.002 162.581 110.762 164.386 111.125C166.191 111.489 167.951 110.318 168.315 108.513C168.678 106.707 167.507 104.947 165.702 104.584C163.894 104.22 162.136 105.391 161.773 107.196Z" fill="#FFFDFD"/>
<path d="M73.2927 218.392C72.9294 220.197 74.1002 221.957 75.9054 222.321C77.7133 222.684 79.471 221.513 79.8342 219.708C80.1975 217.903 79.0266 216.142 77.2215 215.779C75.4163 215.416 73.6587 216.584 73.2927 218.392Z" fill="#FFFDFD"/>
<path d="M167.351 180.456C166.988 182.264 168.159 184.022 169.964 184.385C171.769 184.748 173.53 183.577 173.893 181.772C174.256 179.967 173.085 178.207 171.28 177.843C169.475 177.48 167.715 178.651 167.351 180.456Z" fill="#FFFDFD"/>
<path d="M16.919 57.5381C16.4411 59.9133 17.9808 62.2298 20.356 62.7077C22.734 63.1855 25.0477 61.6458 25.5256 59.2706C26.0034 56.8954 24.4637 54.5789 22.0885 54.101C19.7106 53.6204 17.3968 55.1601 16.919 57.5381Z" fill="#FFFDFD"/>
<path d="M86.253 144.851C85.7751 147.229 87.3148 149.542 89.69 150.02C92.0652 150.498 94.3817 148.958 94.8596 146.583C95.3374 144.205 93.7977 141.891 91.4225 141.414C89.0445 140.936 86.7308 142.475 86.253 144.851Z" fill="#FFFDFD"/>
<path d="M106.421 17.4894C105.943 19.8674 107.483 22.1811 109.858 22.6589C112.236 23.1368 114.55 21.597 115.028 19.2218C115.505 16.8439 113.966 14.5301 111.59 14.0523C109.213 13.5744 106.899 15.1142 106.421 17.4894Z" fill="#FFFDFD"/>
<path d="M213.763 90.1309C213.285 92.5089 214.825 94.8226 217.2 95.3005C219.575 95.7783 221.892 94.2386 222.369 91.8634C222.847 89.4854 221.307 87.1716 218.932 86.6938C216.557 86.2132 214.241 87.7529 213.763 90.1309Z" fill="#FFFDFD"/>
<path d="M121.712 110.326C121.234 112.701 122.774 115.018 125.149 115.495C127.527 115.973 129.841 114.433 130.319 112.058C130.796 109.683 129.257 107.367 126.882 106.889C124.504 106.411 122.19 107.951 121.712 110.326Z" fill="#FFFDFD"/>
<path d="M79.5791 256.501C79.1013 258.879 80.641 261.193 83.0162 261.671C85.3942 262.148 87.7079 260.609 88.1857 258.234C88.6636 255.856 87.1239 253.542 84.7487 253.064C82.3735 252.586 80.0598 254.126 79.5791 256.501Z" fill="#FFFDFD"/>
<path opacity="0.5" d="M191.985 26.0126C191.508 28.3906 193.047 30.7044 195.422 31.1822C197.8 31.66 200.114 30.1203 200.592 27.7451C201.07 25.3671 199.53 23.0535 197.155 22.5757C194.777 22.095 192.463 23.6347 191.985 26.0126Z" fill="#FFFDFD"/>
<path opacity="0.5" d="M34.253 312.894C33.7751 315.269 35.3148 317.585 37.69 318.063C40.068 318.541 42.3817 317.001 42.8596 314.626C43.3374 312.248 41.7977 309.934 39.4225 309.457C37.0445 308.976 34.7308 310.516 34.253 312.894Z" fill="#FFFDFD"/>
<path d="M111.895 163.581C111.09 167.58 113.68 171.472 117.679 172.277C121.678 173.082 125.57 170.491 126.375 166.492C127.18 162.494 124.589 158.601 120.591 157.796C116.592 156.992 112.699 159.582 111.895 163.581Z" fill="#FFFDFD"/>
<path d="M160.217 56.9457C159.412 60.9444 162.002 64.837 166.001 65.6417C170 66.4465 173.892 63.8561 174.697 59.8574C175.502 55.8587 172.912 51.9662 168.913 51.1614C164.914 50.3594 161.022 52.947 160.217 56.9457Z" fill="#FFFDFD"/>
<path opacity="0.2" d="M100.629 220.932C99.8242 224.931 102.415 228.823 106.413 229.628C110.412 230.433 114.305 227.842 115.109 223.844C115.914 219.845 113.324 215.952 109.325 215.148C105.326 214.343 101.431 216.933 100.629 220.932Z" fill="#EE940D"/>
<path d="M38.0841 266.022C37.2793 270.021 39.8696 273.913 43.8683 274.718C47.8671 275.523 51.7596 272.932 52.5644 268.934C53.3691 264.935 50.7788 261.042 46.7801 260.238C42.7814 259.436 38.8888 262.023 38.0841 266.022Z" fill="#FFFDFD"/>
<path d="M26.4864 118.619C25.6816 122.618 28.272 126.511 32.2707 127.315C36.2694 128.12 40.162 125.53 40.9667 121.531C41.7715 117.532 39.1811 113.64 35.1824 112.835C31.1837 112.03 27.2912 114.621 26.4864 118.619Z" fill="#FFFDFD"/>
</g>
<g opacity="0.2">
<path d="M31.1299 76.5315C24.5437 76.8473 18.4548 75.3523 13.0449 72.625C20.4975 80.737 30.8561 85.9513 42.774 85.3812C59.297 84.5932 94.3633 84.2132 110.892 84.1377C113.144 81.1869 115.399 78.2361 117.657 75.288C94.992 75.1818 53.7865 75.4473 31.1299 76.5315Z" fill="#EE940D"/>
<path d="M207.087 5.32031C218.594 18.0905 221.746 38.0477 213.095 55.2945C191.93 97.4891 157.356 130.616 133.654 171.193C108.659 213.986 92.4347 257.488 80.3575 306.149C74.7073 328.914 50.4803 340.363 28.7962 335.425C26.1164 334.816 23.5959 333.902 21.2207 332.759C26.2142 338.32 32.6915 342.509 40.4402 344.275C62.1244 349.212 86.3513 337.764 92.0015 314.998C104.079 266.338 120.303 222.832 145.298 180.043C169 139.466 203.574 106.342 224.739 64.1441C235.827 42.038 227.533 15.4778 207.087 5.32031Z" fill="#EE940D"/>
</g>
</svg>
