<svg width="237" height="347" viewBox="0 0 237 347" fill="none" xmlns="http://www.w3.org/2000/svg">
<path d="M233.716 211.52C227.026 185.41 208.293 165.819 186.335 151.453C191.387 145.811 196.026 139.823 200.03 133.387C209.715 117.817 215.678 99.5953 214.879 81.2784C213.661 53.4383 196.269 27.4285 172.131 13.5042C147.994 -0.420003 117.996 -2.70854 91.2096 4.97034C73.1553 10.1455 56.1322 19.8586 43.9656 34.1657C28.9404 51.8344 22.1724 75.6366 22.7816 98.8213C22.9884 106.718 24.1118 114.799 26.6686 122.258C26.9983 123.222 27.4007 124.155 27.7807 125.097C27.9316 125.697 28.0686 126.301 28.2362 126.893C31.3799 138.224 36.9769 148.614 44.1388 157.941C30.6784 170.72 19.2887 185.334 11.4925 203.092C-4.55825 239.654 -4.03016 282.041 25.481 312.036C50.7335 337.702 89.2536 348.544 124.585 345.727C155.058 343.296 186.153 332.507 207.376 309.526C231.282 283.626 242.574 246.1 233.716 211.52ZM120.76 76.1871C133.849 81.8596 138.258 105.676 123.577 112.164C114.168 116.322 101.764 108.775 98.9109 99.5506C95.1721 87.4707 106.964 70.5174 120.494 76.0781C120.584 76.1116 120.673 76.148 120.76 76.1871ZM132.653 269.467C121.171 273.485 105.964 271.887 95.8399 264.929C74.7174 250.409 89.6196 216.508 110.189 209.718C119.997 206.479 131.082 210.771 138.473 217.514C147.289 225.556 151.962 238.737 149.542 250.504C147.474 260.575 140.876 266.591 132.653 269.467Z" fill="#A343F7"/>
<path d="M51.8707 168.473C44.298 178.075 37.1668 187.707 31.3211 197.995C25.4613 208.245 20.8618 219.11 17.5533 230.357C14.2951 241.59 12.1965 253.167 12.0708 264.895C11.8137 276.64 13.6887 288.384 17.2767 300.076C10.5088 289.885 6.49886 277.618 5.53201 265.144C4.40868 252.647 5.97911 239.967 9.51955 227.979C11.3582 221.996 13.6328 216.175 16.2875 210.531C19.0678 204.937 22.1472 199.488 25.8385 194.477C33.0424 184.342 41.9089 175.557 51.8707 168.473Z" fill="white"/>
<path d="M160.804 15.748C143.375 12.2299 125.673 12.554 108.91 16.4689C100.56 18.4948 92.3728 21.1942 84.733 24.9917C77.0653 28.6943 69.8251 33.2434 63.4875 38.8042C50.5637 49.6463 41.7196 64.7441 36.8937 81.1665C34.5101 89.3931 33.0152 97.9577 32.5541 106.643C31.9617 115.33 32.4452 124.11 34.3984 132.789C30.6596 124.68 28.9857 115.635 28.438 106.648C27.9294 97.6336 28.5722 88.4821 30.5534 79.5514C32.4228 70.5899 35.8207 61.9246 40.3391 53.8405C44.9694 45.818 51.0052 38.522 58.0218 32.4554C72.1975 20.4174 89.6762 12.9173 107.658 10.0727C125.612 7.14418 144.353 8.8711 160.804 15.748Z" fill="white"/>
<path d="M135.604 92.5029C139.871 95.3951 142.81 100.344 143.713 105.782C144.166 108.506 144.177 111.41 143.439 114.285C142.715 117.152 141.243 119.969 139.094 122.243C138.032 123.403 136.755 124.303 135.47 125.166C134.106 125.856 132.759 126.566 131.217 126.982C128.179 127.77 125.044 127.673 122.283 126.879C116.764 125.269 112.405 121.377 110.443 116.601C114.953 118.985 119.341 120.318 123.376 120.379C125.376 120.388 127.201 120.058 128.783 119.413C130.328 118.717 131.924 117.716 133.027 116.462C135.386 114.036 136.805 110.353 137.152 106.145C137.579 101.912 137.018 97.4182 135.604 92.5029Z" fill="white"/>
<path d="M152.005 234.939C157.622 240.495 161.031 248.584 161.112 257.085C161.157 261.329 160.305 265.686 158.402 269.754C156.482 273.812 153.389 277.369 149.725 279.934C146.048 282.513 141.862 284.059 137.721 284.9C133.557 285.746 129.346 285.889 125.244 285.419C117.104 284.506 109.037 281.272 103.582 275.46C110.928 278.26 118.28 279.219 125.467 278.83C132.587 278.459 139.643 276.701 144.933 273.057C150.25 269.444 153.523 263.57 154.559 256.643C155.68 249.763 154.632 242.331 152.005 234.939Z" fill="white"/>
<mask id="mask0_403_11487" style="mask-type:luminance" maskUnits="userSpaceOnUse" x="0" y="1" width="237" height="346">
<path d="M233.716 211.972C227.026 185.862 208.293 166.268 186.335 151.902C191.387 146.263 196.026 140.272 200.03 133.837C209.715 118.267 215.678 100.045 214.879 81.7276C213.661 53.8875 196.269 27.8778 172.131 13.9535C147.994 0.029274 117.996 -2.25934 91.2096 5.41953C73.1553 10.5947 56.1322 20.3079 43.9656 34.615C28.9404 52.2836 22.1724 76.0858 22.7816 99.2705C22.9884 107.167 24.1118 115.249 26.6686 122.707C26.9983 123.671 27.4007 124.604 27.7807 125.546C27.9316 126.147 28.0686 126.75 28.2362 127.343C31.3799 138.674 36.9769 149.063 44.1388 158.391C30.6784 171.169 19.2887 185.784 11.4925 203.542C-4.55825 240.103 -4.03016 282.49 25.481 312.485C50.7335 338.151 89.2536 348.993 124.585 346.176C155.058 343.745 186.153 332.956 207.376 309.976C231.282 284.078 242.574 246.549 233.716 211.972ZM120.76 76.6364C133.849 82.3089 138.258 106.125 123.577 112.614C114.168 116.772 101.764 109.224 98.9109 99.9999C95.1721 87.9199 106.964 70.9666 120.494 76.5274C120.584 76.5609 120.673 76.6 120.76 76.6364ZM132.653 269.919C121.171 273.937 105.964 272.339 95.8399 265.381C74.7174 250.861 89.6196 216.96 110.189 210.17C119.997 206.931 131.082 211.223 138.473 217.966C147.289 226.008 151.962 239.189 149.542 250.956C147.474 261.027 140.876 267.043 132.653 269.919Z" fill="white"/>
</mask>
<g mask="url(#mask0_403_11487)">
<path opacity="0.2" d="M66.83 104.491C66.6232 108.565 69.7557 112.033 73.8298 112.239C77.904 112.446 81.3717 109.314 81.5785 105.24C81.7853 101.165 78.6528 97.6977 74.5787 97.4909C70.5073 97.2813 67.0368 100.417 66.83 104.491Z" fill="black"/>
<path opacity="0.5" d="M207.34 143.33C207.133 147.404 210.265 150.872 214.34 151.079C218.414 151.285 221.882 148.15 222.088 144.079C222.295 140.005 219.163 136.537 215.089 136.33C211.014 136.123 207.547 139.256 207.34 143.33Z" fill="#FFFDFD"/>
<path d="M221.23 219.864C221.107 222.284 222.971 224.349 225.391 224.472C227.814 224.595 229.876 222.731 229.999 220.311C230.122 217.888 228.258 215.826 225.838 215.703C223.418 215.58 221.353 217.441 221.23 219.864Z" fill="#FFFDFD"/>
<path d="M142.807 322.548C142.712 324.39 144.129 325.957 145.97 326.05C147.812 326.145 149.38 324.728 149.472 322.886C149.564 321.045 148.15 319.477 146.309 319.385C144.467 319.293 142.899 320.707 142.807 322.548Z" fill="#FFFDFD"/>
<path opacity="0.5" d="M147.68 223.175C147.585 225.017 149.002 226.584 150.843 226.677C152.685 226.769 154.253 225.355 154.345 223.513C154.437 221.672 153.023 220.104 151.182 220.012C149.34 219.92 147.773 221.334 147.68 223.175Z" fill="#FFFDFD"/>
<path d="M129.528 71.8809C129.433 73.7196 130.85 75.29 132.691 75.3822C134.533 75.4744 136.1 74.0604 136.192 72.2189C136.285 70.3775 134.871 68.8099 133.029 68.7176C131.191 68.6254 129.623 70.0422 129.528 71.8809Z" fill="#FFFDFD"/>
<path opacity="0.5" d="M56.4342 50.5566C56.3392 52.3981 57.7559 53.9657 59.5974 54.0579C61.4388 54.1501 63.0065 52.7362 63.0987 50.8947C63.1909 49.0532 61.777 47.4856 59.9355 47.3934C58.0968 47.3012 56.5292 48.7179 56.4342 50.5566Z" fill="#FFFDFD"/>
<path opacity="0.2" d="M109.52 306.801C109.425 308.643 110.842 310.211 112.683 310.303C114.525 310.398 116.092 308.981 116.185 307.14C116.277 305.298 114.863 303.731 113.021 303.638C111.183 303.543 109.615 304.96 109.52 306.801Z" fill="black"/>
<path d="M168.998 105.301C168.906 107.143 170.32 108.71 172.162 108.803C174.003 108.898 175.571 107.481 175.663 105.639C175.755 103.798 174.341 102.23 172.5 102.138C170.658 102.046 169.093 103.46 168.998 105.301Z" fill="#FFFDFD"/>
<path d="M97.8461 228.303C97.7538 230.144 99.1678 231.712 101.009 231.804C102.851 231.899 104.418 230.482 104.511 228.641C104.603 226.799 103.189 225.232 101.347 225.14C99.506 225.047 97.9383 226.464 97.8461 228.303Z" fill="#FFFDFD"/>
<path d="M185.301 176.942C185.206 178.784 186.623 180.352 188.465 180.444C190.306 180.539 191.874 179.122 191.966 177.281C192.058 175.439 190.644 173.871 188.803 173.779C186.961 173.687 185.394 175.101 185.301 176.942Z" fill="#FFFDFD"/>
<path d="M21.6307 91.005C21.5078 93.4249 23.3717 95.4899 25.7916 95.6128C28.2115 95.7358 30.2765 93.872 30.3994 91.4521C30.5224 89.0322 28.6586 86.9671 26.2387 86.8441C23.816 86.7212 21.7537 88.5823 21.6307 91.005Z" fill="#FFFDFD"/>
<path d="M85.1796 150.187C85.0566 152.61 86.9204 154.672 89.3403 154.795C91.7602 154.918 93.8253 153.054 93.9482 150.634C94.0712 148.214 92.2073 146.149 89.7874 146.026C87.3647 145.903 85.3025 147.767 85.1796 150.187Z" fill="#FFFDFD"/>
<path d="M101.051 24.7148C100.928 27.1347 102.792 29.1998 105.211 29.3228C107.631 29.4457 109.696 27.5818 109.819 25.1619C109.942 22.742 108.078 20.677 105.659 20.5541C103.236 20.4311 101.174 22.2921 101.051 24.7148Z" fill="#FFFDFD"/>
<path d="M217.912 80.7696C217.789 83.1895 219.653 85.2545 222.073 85.3774C224.493 85.5004 226.558 83.6365 226.681 81.2166C226.804 78.7967 224.94 76.7317 222.52 76.6088C220.097 76.4858 218.035 78.3497 217.912 80.7696Z" fill="#FFFDFD"/>
<path d="M27.787 253.122C27.664 255.542 29.5279 257.607 31.9478 257.73C34.3705 257.853 36.4327 255.989 36.5557 253.569C36.6786 251.149 34.8148 249.084 32.3949 248.961C29.9722 248.838 27.91 250.699 27.787 253.122Z" fill="#FFFDFD"/>
<path d="M174.545 303.41C174.422 305.832 176.286 307.895 178.706 308.018C181.128 308.141 183.191 306.277 183.313 303.857C183.436 301.437 181.573 299.372 179.153 299.249C176.73 299.126 174.668 300.99 174.545 303.41Z" fill="#FFFDFD"/>
<path opacity="0.5" d="M43.5155 199.996C43.3926 202.419 45.2564 204.481 47.6763 204.604C50.099 204.727 52.1612 202.863 52.2842 200.443C52.4071 198.021 50.5433 195.958 48.1234 195.835C45.7007 195.712 43.6385 197.573 43.5155 199.996Z" fill="#FFFDFD"/>
<path opacity="0.5" d="M73.1288 327.522C73.0058 329.945 74.8696 332.007 77.2895 332.13C79.7094 332.253 81.7744 330.389 81.8974 327.969C82.0203 325.549 80.1565 323.484 77.7366 323.361C75.3139 323.236 73.2517 325.1 73.1288 327.522Z" fill="#FFFDFD"/>
<path d="M127.963 168.408C127.756 172.483 130.891 175.95 134.963 176.157C139.037 176.364 142.505 173.231 142.711 169.157C142.918 165.083 139.783 161.615 135.712 161.409C131.637 161.202 128.17 164.337 127.963 168.408Z" fill="#FFFDFD"/>
<path d="M160.064 55.8271C159.858 59.9012 162.99 63.3691 167.064 63.5758C171.138 63.7826 174.606 60.6501 174.813 56.576C175.02 52.5018 171.884 49.0341 167.813 48.8273C163.742 48.6177 160.271 51.7529 160.064 55.8271Z" fill="#FFFDFD"/>
<path opacity="0.2" d="M161.783 265.496C161.576 269.57 164.709 273.038 168.783 273.245C172.857 273.452 176.325 270.319 176.532 266.245C176.739 262.171 173.606 258.703 169.532 258.496C165.461 258.287 161.99 261.422 161.783 265.496Z" fill="black"/>
<path d="M47.914 283.886C47.7072 287.96 50.8397 291.427 54.9138 291.634C58.988 291.841 62.4558 288.709 62.6626 284.634C62.8694 280.56 59.7369 277.092 55.6627 276.886C51.5886 276.679 48.1208 279.814 47.914 283.886Z" fill="#FFFDFD"/>
<path d="M210.525 267.874C210.319 271.948 213.454 275.416 217.525 275.622C221.599 275.829 225.067 272.697 225.274 268.622C225.481 264.548 222.348 261.08 218.274 260.874C214.203 260.664 210.735 263.799 210.525 267.874Z" fill="#FFFDFD"/>
</g>
<g opacity="0.2">
<path d="M109.116 67.3369C109.029 67.2978 108.94 67.2615 108.85 67.2251C95.3202 61.6644 83.5308 78.6205 87.2669 90.6976C89.0636 96.5015 94.6356 101.632 100.864 103.613C100.029 102.317 99.3468 100.956 98.9109 99.5474C95.4431 88.3421 105.346 72.9703 117.597 75.2421C115.532 71.7547 112.656 68.871 109.116 67.3369Z" fill="black"/>
<path d="M203.23 72.4254C204.032 90.7452 198.066 108.964 188.381 124.534C184.379 130.97 179.741 136.961 174.686 142.6C178.776 145.274 182.753 148.133 186.562 151.181C191.521 145.618 196.085 139.719 200.025 133.384C209.71 117.814 215.673 99.5921 214.874 81.2752C213.709 54.6171 197.691 29.6664 175.144 15.3677C191.393 29.9989 202.277 50.6379 203.23 72.4254Z" fill="black"/>
<path d="M84.1919 256.078C85.9468 257.286 87.8944 258.269 89.9091 259.152C78.2679 242.895 92.0048 215.717 110.185 209.717C116.601 207.599 123.559 208.717 129.675 211.62C128.781 210.575 127.834 209.583 126.825 208.664C119.434 201.924 108.349 197.632 98.5408 200.868C77.9744 207.658 63.0694 241.559 84.1919 256.078Z" fill="black"/>
<path d="M233.715 211.52C227.336 186.617 209.988 167.651 189.344 153.487C204.688 166.433 216.935 182.626 222.071 202.67C230.929 237.247 219.637 274.776 195.726 300.671C174.503 323.651 143.407 334.441 112.935 336.872C84.7316 339.121 54.5164 332.635 30.6191 316.884C55.7767 339.051 91.5639 348.354 124.579 345.721C155.051 343.29 186.147 332.501 207.37 309.521C231.281 283.625 242.573 246.1 233.715 211.52Z" fill="black"/>
</g>
</svg>
