<svg width="240" height="353" viewBox="0 0 240 353" fill="none" xmlns="http://www.w3.org/2000/svg">
<path d="M239.077 140.578C238.407 110.463 238.013 78.7164 222.512 51.8236C202.924 17.8387 165.74 3.03139 128.047 0.385137C90.8119 -2.22758 49.8859 9.63729 28.9143 42.4653C11.5334 69.6711 5.55072 114.364 16.0491 145.012C30.1047 186.045 74.6382 213.44 117.33 212.328C129.421 212.012 141.398 209.592 152.707 205.387C150.96 214.245 148.677 222.916 145.659 231.436C142.035 241.669 135.063 250.627 126.451 257.166C122.117 260.458 117.322 263.16 112.222 265.069C107.748 266.742 102.939 267.885 98.1331 268.338C95.6629 268.57 93.1787 268.626 90.7029 268.497C88.7301 268.394 85.5306 268.556 83.8372 267.422C81.6856 265.977 81.7973 261.785 80.9339 259.589C80.0956 257.454 79.0253 255.411 77.7623 253.494C75.2278 249.649 71.9333 246.333 68.2168 243.625C60.6916 238.148 51.3696 235.015 42.0645 234.839C38.3536 234.77 34.6259 235.18 31.0436 236.164C7.6297 242.599 -2.33771 265.382 1.76719 287.725C9.65843 330.666 54.3065 353.25 94.7491 352.107C130.883 351.084 166.645 336.249 192.138 310.424C236.397 265.577 240.399 200.008 239.077 140.578ZM120.781 129.956C109.917 129.926 99.1418 125.382 93.8801 115.387C87.8722 103.975 91.9269 89.4439 100.668 80.5942C117.288 63.7666 153.537 65.9881 159.075 92.2243C160.863 100.7 158.572 110.105 153.196 116.893C145.645 126.424 132.875 129.917 121.17 129.956C121.038 129.956 120.91 129.956 120.781 129.956Z" fill="#D32C72"/>
<path d="M49.7997 245.369C46.6002 246.235 43.5683 247.082 40.7572 248.309C37.9517 249.508 35.2579 250.952 32.757 252.486C27.7132 255.549 23.5776 259.584 20.2327 264.189C16.8683 268.797 14.3814 274.095 12.7271 279.832C10.9974 285.569 10.1116 291.674 9.50526 298.255C6.64384 292.281 5.65462 285.426 6.24982 278.619C6.84501 271.806 9.25653 264.983 13.4397 259.282C17.5613 253.573 23.3568 248.971 29.8705 246.585C33.1203 245.352 36.4707 244.679 39.849 244.316C43.2553 244.126 46.6225 244.386 49.7997 245.369Z" fill="white"/>
<path d="M160.444 215.919C160.457 224.831 159.088 233.68 156.733 242.292C154.405 251.296 149.21 259.598 142.504 266.064C135.803 272.544 127.42 277.451 118.352 279.614C113.859 280.712 109.231 281.282 104.652 280.95C102.374 280.687 100.072 280.525 97.9199 280.167C95.8465 279.731 93.2925 279.519 91.5684 277.948C92.619 278.331 93.6865 278.312 94.7511 278.222C95.8186 278.152 96.872 277.985 97.9981 277.845L104.372 276.842C108.53 276.235 112.523 274.861 116.36 273.382C123.98 270.272 130.818 265.69 136.678 260.037C142.543 254.384 147.302 247.727 150.577 240.146C153.986 232.258 157.051 224.157 160.444 215.919Z" fill="white"/>
<path d="M135.786 10.9202C117.472 11.412 99.4348 14.4634 82.9593 21.1307C66.5677 27.7952 51.8191 38.3411 42.0053 52.6789C36.9531 59.7151 33.1612 67.7292 30.121 76.0256C26.9885 84.3109 24.8816 93.0014 23.2581 101.787C20.2905 119.391 19.7344 137.641 23.789 155.55C19.9831 147.17 17.9069 138.01 16.792 128.794C15.7776 119.55 15.772 110.173 16.778 100.884C18.8039 82.3633 24.2305 63.8032 35.1369 47.8838C40.6893 40.0484 47.5633 33.1548 55.3568 27.6416C63.1893 22.1954 71.7512 17.8921 80.7154 15.0167C98.6049 9.13178 117.682 7.94696 135.786 10.9202Z" fill="white"/>
<path d="M164.923 96.9331C167.301 99.9426 168.735 103.693 169.439 107.633C170.017 111.578 169.869 115.717 168.813 119.687C166.846 127.649 161.017 134.953 153.67 138.818C146.372 142.841 138.17 144.144 130.368 143.758C122.505 143.462 114.276 140.517 109.24 134.676C116.304 137.527 123.318 138.066 130.198 137.166C137.15 136.356 143.907 134.634 149.624 131.48C155.378 128.383 159.854 123.661 162.607 117.547C165.376 111.464 166.373 104.405 164.923 96.9331Z" fill="white"/>
<mask id="mask0_403_11529" style="mask-type:luminance" maskUnits="userSpaceOnUse" x="0" y="0" width="240" height="353">
<path d="M239.075 141.03C238.405 110.916 238.011 79.1689 222.51 52.2761C202.922 18.2913 165.738 3.48402 128.045 0.837776C90.81 -1.77494 49.8839 10.0898 28.9123 42.9179C11.5315 70.1236 5.54876 114.816 16.0471 145.465C30.1027 186.497 74.6362 213.893 117.328 212.781C129.419 212.465 141.396 210.042 152.705 205.84C150.958 214.698 148.675 223.369 145.657 231.889C142.033 242.121 135.061 251.08 126.449 257.619C122.115 260.911 117.32 263.613 112.22 265.521C107.746 267.195 102.937 268.338 98.1311 268.791C95.6609 269.023 93.1768 269.079 90.701 268.95C88.7282 268.847 85.5286 269.009 83.8353 267.874C81.6836 266.429 81.7954 262.238 80.9319 260.042C80.0936 257.907 79.0233 255.864 77.7603 253.947C75.2258 250.099 71.9313 246.785 68.2149 244.077C60.6897 238.601 51.3677 235.468 42.0625 235.292C38.3516 235.222 34.624 235.633 31.0416 236.617C7.62775 243.049 -2.33966 265.834 1.76524 288.178C9.65648 331.119 54.3046 353.703 94.7472 352.56C130.881 351.537 166.643 336.702 192.136 310.876C236.396 266.03 240.397 200.46 239.075 141.03ZM120.779 130.409C109.915 130.378 99.1399 125.835 93.8781 115.839C87.8703 104.427 91.9249 89.8965 100.666 81.0468C117.286 64.2164 153.535 66.4407 159.073 92.6768C160.861 101.152 158.57 110.561 153.194 117.345C145.643 126.877 132.873 130.37 121.168 130.409C121.036 130.409 120.908 130.409 120.779 130.409Z" fill="white"/>
</mask>
<g mask="url(#mask0_403_11529)">
<path opacity="0.2" d="M60.3223 87.2781C60.3223 91.3578 63.628 94.6635 67.7077 94.6635C71.7875 94.6635 75.0932 91.3578 75.0932 87.2781C75.0932 83.1983 71.7875 79.8926 67.7077 79.8926C63.628 79.8926 60.3223 83.1983 60.3223 87.2781Z" fill="black"/>
<path opacity="0.5" d="M206.555 141.684C206.555 145.764 209.86 149.07 213.94 149.07C218.02 149.07 221.326 145.764 221.326 141.684C221.326 137.605 218.02 134.299 213.94 134.299C209.86 134.302 206.555 137.607 206.555 141.684Z" fill="#FFFDFD"/>
<path d="M211.945 221.804C214.369 221.804 216.335 219.838 216.335 217.414C216.335 214.989 214.369 213.024 211.945 213.024C209.52 213.024 207.555 214.989 207.555 217.414C207.555 219.838 209.52 221.804 211.945 221.804Z" fill="#FFFDFD"/>
<path d="M160.006 309.541C160.006 311.382 161.501 312.877 163.342 312.877C165.184 312.877 166.679 311.382 166.679 309.541C166.679 307.696 165.184 306.204 163.342 306.204C161.498 306.204 160.006 307.696 160.006 309.541Z" fill="#FFFDFD"/>
<path opacity="0.5" d="M173.008 235.446C174.851 235.446 176.345 233.952 176.345 232.109C176.345 230.267 174.851 228.773 173.008 228.773C171.166 228.773 169.672 230.267 169.672 232.109C169.672 233.952 171.166 235.446 173.008 235.446Z" fill="#FFFDFD"/>
<path d="M125.219 74.2793C125.219 76.1208 126.714 77.6158 128.555 77.6158C130.397 77.6158 131.892 76.1208 131.892 74.2793C131.892 72.4378 130.397 70.9429 128.555 70.9429C126.714 70.9429 125.219 72.4378 125.219 74.2793Z" fill="#FFFDFD"/>
<path opacity="0.5" d="M51.1367 56.6944C51.1367 58.5386 52.6317 60.0308 54.4732 60.0308C56.3146 60.0308 57.8096 58.5358 57.8096 56.6944C57.8096 54.8529 56.3146 53.3579 54.4732 53.3579C52.6317 53.3579 51.1367 54.8529 51.1367 56.6944Z" fill="#FFFDFD"/>
<path opacity="0.2" d="M27.2148 283.269C27.2148 285.11 28.7098 286.605 30.5513 286.605C32.3928 286.605 33.8878 285.11 33.8878 283.269C33.8878 281.424 32.3928 279.932 30.5513 279.932C28.7098 279.932 27.2148 281.424 27.2148 283.269Z" fill="black"/>
<path d="M189.235 108.988C191.077 108.988 192.571 107.494 192.571 105.651C192.571 103.809 191.077 102.315 189.235 102.315C187.392 102.315 185.898 103.809 185.898 105.651C185.898 107.494 187.392 108.988 189.235 108.988Z" fill="#FFFDFD"/>
<path d="M101.521 232.109C101.521 233.951 103.016 235.446 104.858 235.446C106.699 235.446 108.194 233.951 108.194 232.109C108.194 230.268 106.699 228.773 104.858 228.773C103.016 228.773 101.521 230.265 101.521 232.109Z" fill="#FFFDFD"/>
<path d="M186.252 176.373C186.252 178.217 187.747 179.71 189.588 179.71C191.43 179.71 192.925 178.215 192.925 176.373C192.925 174.532 191.43 173.037 189.588 173.037C187.747 173.037 186.252 174.529 186.252 176.373Z" fill="#FFFDFD"/>
<path d="M22.8236 103.248C25.248 103.248 27.2134 101.283 27.2134 98.8582C27.2134 96.4337 25.248 94.4683 22.8236 94.4683C20.3991 94.4683 18.4336 96.4337 18.4336 98.8582C18.4336 101.283 20.3991 103.248 22.8236 103.248Z" fill="#FFFDFD"/>
<path d="M73.6341 136.632C76.0586 136.632 78.024 134.667 78.024 132.242C78.024 129.818 76.0586 127.853 73.6341 127.853C71.2096 127.853 69.2441 129.818 69.2441 132.242C69.2441 134.667 71.2096 136.632 73.6341 136.632Z" fill="#FFFDFD"/>
<path d="M98.7728 33.0093C101.197 33.0093 103.163 31.0439 103.163 28.6194C103.163 26.1949 101.197 24.2295 98.7728 24.2295C96.3483 24.2295 94.3828 26.1949 94.3828 28.6194C94.3828 31.0439 96.3483 33.0093 98.7728 33.0093Z" fill="#FFFDFD"/>
<path d="M218.329 83.0587C220.754 83.0587 222.719 81.0933 222.719 78.6688C222.719 76.2443 220.754 74.2788 218.329 74.2788C215.905 74.2788 213.939 76.2443 213.939 78.6688C213.939 81.0933 215.905 83.0587 218.329 83.0587Z" fill="#FFFDFD"/>
<path d="M112.505 129.526C114.93 129.526 116.895 127.561 116.895 125.136C116.895 122.712 114.93 120.747 112.505 120.747C110.081 120.747 108.115 122.712 108.115 125.136C108.115 127.561 110.081 129.526 112.505 129.526Z" fill="#FFFDFD"/>
<path d="M138.934 285.297C138.934 287.723 140.898 289.687 143.324 289.687C145.749 289.687 147.713 287.723 147.713 285.297C147.713 282.872 145.749 280.907 143.324 280.907C140.898 280.91 138.934 282.874 138.934 285.297Z" fill="#FFFDFD"/>
<path opacity="0.5" d="M69.2473 221.804C71.6718 221.804 73.6373 219.838 73.6373 217.414C73.6373 214.989 71.6718 213.024 69.2473 213.024C66.8228 213.024 64.8574 214.989 64.8574 217.414C64.8574 219.838 66.8228 221.804 69.2473 221.804Z" fill="#FFFDFD"/>
<path opacity="0.5" d="M81.875 332.451C81.875 334.877 83.8394 336.841 86.2649 336.841C88.6904 336.841 90.6548 334.877 90.6548 332.451C90.6548 330.026 88.6904 328.062 86.2649 328.062C83.8394 328.064 81.875 330.029 81.875 332.451Z" fill="#FFFDFD"/>
<path d="M128.555 170.762C128.555 174.842 131.86 178.147 135.94 178.147C140.017 178.147 143.326 174.842 143.326 170.762C143.326 166.682 140.02 163.376 135.94 163.376C131.86 163.376 128.555 166.682 128.555 170.762Z" fill="#FFFDFD"/>
<path d="M154.904 56.6945C154.904 60.7742 158.21 64.08 162.29 64.08C166.367 64.08 169.675 60.7742 169.675 56.6945C169.675 52.6175 166.369 49.3091 162.29 49.3091C158.21 49.3091 154.904 52.6175 154.904 56.6945Z" fill="#FFFDFD"/>
<path opacity="0.2" d="M183.016 261.149C183.016 265.228 186.321 268.534 190.401 268.534C194.481 268.534 197.786 265.228 197.786 261.149C197.786 257.069 194.481 253.763 190.401 253.763C186.324 253.763 183.016 257.069 183.016 261.149Z" fill="black"/>
<path d="M54.4766 290.154C54.4766 294.233 57.7823 297.539 61.862 297.539C65.9418 297.539 69.2474 294.233 69.2474 290.154C69.2474 286.074 65.9418 282.768 61.862 282.768C57.7851 282.768 54.4766 286.077 54.4766 290.154Z" fill="#FFFDFD"/>
<path d="M47.375 168.988C47.375 173.067 50.6807 176.373 54.7605 176.373C58.8402 176.373 62.146 173.067 62.146 168.988C62.146 164.908 58.8402 161.602 54.7605 161.602C50.6807 161.602 47.375 164.908 47.375 168.988Z" fill="#FFFDFD"/>
</g>
<g opacity="0.2">
<path d="M239.074 140.578C238.404 110.463 238.01 78.7164 222.51 51.8236C214.828 38.4973 204.416 28.1583 192.353 20.3062C199.504 26.6633 205.785 34.1605 210.866 42.9739C226.366 69.8667 226.76 101.613 227.43 131.728C228.752 191.158 224.751 256.728 180.488 301.569C154.998 327.391 119.233 342.229 83.0995 343.252C62.8153 343.825 41.4749 338.426 24.2422 327.489C42.7939 344.336 69.5804 352.814 94.7436 352.102C130.877 351.079 166.639 336.244 192.132 310.418C236.395 265.58 240.396 200.008 239.074 140.578Z" fill="black"/>
<path d="M89.0221 71.7445C80.2814 80.597 76.2268 95.1247 82.2347 106.537C85.2805 112.321 90.1986 116.225 95.8823 118.541C95.1557 117.552 94.4711 116.516 93.8787 115.387C87.8708 103.975 91.9255 89.4438 100.666 80.5941C111.072 70.0567 129.169 66.9912 142.607 72.6079C130.778 56.9232 102.98 57.6106 89.0221 71.7445Z" fill="black"/>
<path d="M43.6543 185.189C63.8211 202.791 90.9319 213.398 117.322 212.328C135.865 211.576 145.913 206.904 152.698 205.387C153.869 201.033 154.881 196.64 155.755 192.197C144.449 196.403 117.769 203.162 105.678 203.478C84.0773 204.04 62.0132 197.297 43.6543 185.189Z" fill="black"/>
<path d="M69.2799 250.733C70.1433 252.93 71.7668 263.775 73.9185 265.222C75.6119 266.359 78.8086 266.195 80.7814 266.301C81.4157 266.334 82.05 266.32 82.6843 266.329C82.6732 266.301 80.9323 259.611 80.9212 259.583C80.0829 257.448 79.0126 255.406 77.7495 253.489C75.2151 249.644 71.9206 246.327 68.2041 243.619C66.4045 242.309 64.496 241.143 62.5176 240.109C63.8225 241.529 65.0437 243.027 66.1055 244.639C67.3714 246.553 68.4388 248.596 69.2799 250.733Z" fill="black"/>
</g>
</svg>
