<svg width="109" height="139" viewBox="0 0 109 139" fill="none" xmlns="http://www.w3.org/2000/svg">
<path d="M102.815 77.049C103.226 94.6739 94.2912 121.022 71.4886 131.768C65.7578 134.469 62.573 131.848 55.6611 132.182C49.4853 132.479 47.5775 134.657 41.6957 132.552C17.2706 123.806 6.42529 98.1906 5.9842 79.3113C5.40753 54.6291 25.5974 41.5902 53.9209 57.6967C79.6208 41.2596 102.238 52.3668 102.815 77.049Z" fill="#FF542F"/>
<path fill-rule="evenodd" clip-rule="evenodd" d="M53.801 52.8582C39.7897 45.4911 26.9394 44.5302 17.2165 49.4759C6.88269 54.7323 1.48306 65.9357 1.79785 79.4091C2.26394 99.3581 13.6821 126.969 40.2841 136.494C43.9599 137.81 46.6285 137.82 49.2318 137.403C50.1259 137.259 50.8558 137.108 51.5424 136.966C52.8584 136.693 54.015 136.453 55.8627 136.364C58.0588 136.259 59.6401 136.485 61.4377 136.743C62.0944 136.837 62.7799 136.935 63.5348 137.022C66.3872 137.354 69.4709 137.348 73.2738 135.556C98.0922 123.86 107.436 95.573 107.001 76.9512C106.682 63.2893 100.156 52.6691 89.4299 48.1006C79.3945 43.8261 66.6956 45.2795 53.801 52.8582ZM71.4886 131.768C94.2912 121.022 103.226 94.674 102.815 77.049C102.238 52.3669 79.6208 41.2596 53.9209 57.6968C25.5974 41.5902 5.40755 54.6292 5.98421 79.3113C6.4253 98.1907 17.2706 123.806 41.6957 132.552C45.5146 133.919 47.6582 133.48 50.3824 132.923C51.854 132.622 53.495 132.286 55.6611 132.182C58.2894 132.055 60.3788 132.355 62.2742 132.628C65.3632 133.072 67.937 133.442 71.4886 131.768Z" fill="#734125"/>
<path fill-rule="evenodd" clip-rule="evenodd" d="M62.1755 120.593C84.978 109.847 92.0506 83.4981 91.6388 65.8731C91.5183 60.7116 90.4338 56.1438 88.5589 52.2973C97.0596 56.2825 102.535 65.0658 102.815 77.0489C103.226 94.6739 94.2912 121.022 71.4886 131.768C67.937 133.442 65.3632 133.072 62.2742 132.628C60.3788 132.355 58.2894 132.055 55.6611 132.182C53.495 132.286 51.854 132.622 50.3824 132.923C47.6582 133.48 45.5145 133.919 41.6957 132.551C32.7621 129.353 25.6451 123.897 20.1895 117.34C22.7786 118.919 25.5967 120.28 28.6572 121.376C32.5962 122.786 35.5882 122.275 38.9898 121.694C40.6677 121.408 42.4453 121.104 44.4853 121.006C47.0466 120.882 49.3518 121.165 51.5307 121.431C55.2318 121.884 58.5682 122.292 62.1755 120.593Z" fill="#ED4A27"/>
<path d="M88.9172 72.4156C88.633 74.4533 86.7507 75.8747 84.713 75.5904C82.6753 75.3062 81.2539 73.4239 81.5382 71.3862C81.8224 69.3485 83.7047 67.9271 85.7424 68.2114C87.7801 68.4956 89.2015 70.3779 88.9172 72.4156Z" fill="#C53622"/>
<path d="M99 83.2007C98.7157 85.2384 96.8334 86.6598 94.7958 86.3756C92.7581 86.0913 91.3367 84.209 91.6209 82.1713C91.9052 80.1337 93.7875 78.7122 95.8252 78.9965C97.8628 79.2808 99.2843 81.1631 99 83.2007Z" fill="#C53622"/>
<path d="M98.7845 69.0903C98.5713 70.6186 97.1595 71.6847 95.6313 71.4715C94.103 71.2583 93.037 69.8466 93.2501 68.3183C93.4633 66.79 94.8751 65.724 96.4033 65.9372C97.9316 66.1504 98.9976 67.5621 98.7845 69.0903Z" fill="#C53622"/>
<path d="M95.3364 96.1576C95.0522 98.1953 93.1699 99.6167 91.1322 99.3325C89.0945 99.0482 87.6731 97.1659 87.9574 95.1283C88.2416 93.0906 90.1239 91.6692 92.1616 91.9534C94.1993 92.2377 95.6207 94.12 95.3364 96.1576Z" fill="#C53622"/>
<path d="M85.2537 85.3724C84.9694 87.41 83.0871 88.8315 81.0494 88.5472C79.0118 88.263 77.5903 86.3807 77.8746 84.343C78.1588 82.3053 80.0411 80.8839 82.0788 81.1681C84.1165 81.4524 85.5379 83.3347 85.2537 85.3724Z" fill="#C53622"/>
<path d="M89.1884 110.281C88.9041 112.318 87.0218 113.74 84.9841 113.455C82.9464 113.171 81.525 111.289 81.8093 109.251C82.0935 107.214 83.9758 105.792 86.0135 106.076C88.0512 106.361 89.4726 108.243 89.1884 110.281Z" fill="#C53622"/>
<path d="M81.7031 98.988C81.4189 101.026 79.5366 102.447 77.4989 102.163C75.4612 101.879 74.0398 99.9963 74.324 97.9586C74.6083 95.9209 76.4906 94.4995 78.5283 94.7837C80.566 95.068 81.9874 96.9503 81.7031 98.988Z" fill="#C53622"/>
<path d="M81.8031 118.549C81.5899 120.077 80.1781 121.143 78.6499 120.93C77.1216 120.717 76.0556 119.305 76.2688 117.777C76.482 116.249 77.8937 115.183 79.4219 115.396C80.9502 115.609 82.0163 117.021 81.8031 118.549Z" fill="#C53622"/>
<path d="M74.8188 19.5644C74.8188 19.5644 78.9573 36.6289 74.5995 45.9195C69.3472 57.1171 53.4857 57.8241 53.4857 57.8241C53.4857 57.8241 48.6833 44.7341 55.0297 33.3522C59.9116 24.5967 74.8188 19.5644 74.8188 19.5644Z" fill="#7CD623"/>
<path fill-rule="evenodd" clip-rule="evenodd" d="M78.8883 18.5774L74.8187 19.5644L73.4794 15.5968C74.592 15.2212 75.8112 15.3301 76.8397 15.8968C77.8682 16.4636 78.6115 17.4362 78.8883 18.5774ZM70.8829 21.1443C73.213 20.1064 74.8187 19.5644 74.8187 19.5644C74.8187 19.5644 75.2141 21.1944 75.6317 23.7213C76.5653 29.37 77.6104 39.5003 74.5995 45.9194C69.3472 57.117 53.4857 57.824 53.4857 57.824C53.4857 57.824 48.6832 44.7341 55.0297 33.3521C58.3093 27.4702 66.1135 23.2686 70.8829 21.1443ZM53.4857 57.824C49.5544 59.2663 49.5539 59.2649 49.5534 59.2635L49.5496 59.253L49.543 59.2348L49.5248 59.1839C49.5105 59.1435 49.492 59.0905 49.4697 59.0252C49.4252 58.8946 49.3657 58.7148 49.2952 58.4895C49.1544 58.0393 48.969 57.4048 48.7719 56.616C48.3789 55.043 47.9325 52.8293 47.706 50.2182C47.2571 45.044 47.647 37.9939 51.3723 31.3128C54.4236 25.8405 60.2837 21.9212 64.7583 19.4941C67.0872 18.2308 69.2421 17.2664 70.815 16.617C71.604 16.2912 72.2531 16.0419 72.7126 15.8715C72.9425 15.7862 73.1254 15.7205 73.2552 15.6747C73.3201 15.6518 73.3717 15.6338 73.4093 15.6208L73.4551 15.6051L73.4754 15.5982L73.4794 15.5968C73.4803 15.5965 73.4794 15.5968 74.8187 19.5644C78.8883 18.5774 78.888 18.5765 78.8883 18.5774L78.8904 18.5864L78.8941 18.6016L78.9057 18.6505L78.9452 18.8203C78.9784 18.9646 79.0248 19.1706 79.0812 19.4321C79.1941 19.9546 79.3475 20.7006 79.5161 21.6207C79.8526 23.4559 80.2546 26.0096 80.5138 28.8814C81.011 34.3895 81.0801 41.964 78.3906 47.6977C75.0644 54.789 68.5162 58.2975 63.4248 60.0341C60.8238 60.9213 58.4267 61.4093 56.6825 61.6774C55.8058 61.8122 55.0819 61.8933 54.5645 61.9413C54.3055 61.9654 54.0973 61.9812 53.9466 61.9914C53.8712 61.9964 53.8101 62.0001 53.7641 62.0027L53.7065 62.0057L53.6864 62.0067L53.6786 62.0071L53.6752 62.0072C53.6737 62.0073 53.6722 62.0074 53.4857 57.824ZM49.5544 59.2663L53.4857 57.824L53.6722 62.0074C51.8489 62.0886 50.1831 60.9797 49.5544 59.2663Z" fill="#156319"/>
<path d="M71.7941 45.9828C75.7052 38.9685 73.4037 24.7027 73.4037 24.7027C61.7784 36.7804 58.852 50.1995 58.188 55.0452C58.188 55.0452 67.8831 52.997 71.7941 45.9828Z" fill="#6FC21C"/>
<path d="M31.6348 39.2803C35.6605 40.2422 49.0071 51.5986 52.7488 58.6699C53.0609 59.2598 54.6711 58.3365 54.4062 57.8199C52.2725 51.0846 45.4667 35.1866 39.9939 30.3953C32.7849 30.2435 31.4082 37.7654 31.6348 39.2803Z" fill="#943D31"/>
<path fill-rule="evenodd" clip-rule="evenodd" d="M30.6617 43.3532C29.0001 42.9561 27.7462 41.5895 27.4934 39.8999C27.3247 38.7719 27.4904 37.4286 27.7498 36.2964C28.0378 35.0396 28.5556 33.5407 29.4248 32.0758C31.2452 29.0081 34.6672 26.0947 40.0821 26.2087C41.0662 26.2295 42.0116 26.5962 42.7522 27.2446C44.5719 28.8377 46.2778 31.1289 47.7897 33.5099C49.3388 35.9496 50.8439 38.7414 52.2129 41.5367C54.8932 47.0092 57.1768 52.7521 58.3363 56.3614C59.1965 58.5666 57.9659 60.3723 57.5879 60.8504C57.0234 61.5645 56.3396 62.0427 55.7914 62.3402C55.2539 62.6319 54.4289 62.9772 53.4327 63.0383C52.4773 63.0968 50.2343 62.8712 49.0475 60.6284C47.5442 57.7873 43.75 53.5912 39.5105 49.8087C37.4527 47.9727 35.4205 46.3505 33.7079 45.1541C32.8503 44.555 32.115 44.0923 31.5273 43.7692C30.996 43.4772 30.7245 43.3772 30.6686 43.3566C30.6568 43.3523 30.6546 43.3515 30.6617 43.3532ZM54.4062 57.8199C54.4037 57.8122 54.4013 57.8045 54.3989 57.7968C54.1152 56.903 53.7499 55.8492 53.3168 54.6825C52.7668 53.2007 52.1076 51.5366 51.3675 49.7864C48.2906 42.5092 43.817 33.7423 39.9939 30.3953C32.7849 30.2435 31.4082 37.7654 31.6349 39.2803C34.5371 39.9738 42.2839 46.0698 47.7836 52.0678C48.9475 53.3371 50.0107 54.602 50.9061 55.8104C51.5723 56.7095 52.1457 57.5774 52.5984 58.3925C52.6501 58.4857 52.7003 58.5782 52.7488 58.6699C53.061 59.2598 54.6711 58.3364 54.4062 57.8199ZM50.3776 58.9696C50.4476 59.2157 50.5464 59.4701 50.6802 59.7309C50.5736 59.5232 50.4847 59.307 50.4142 59.0844C50.4022 59.0465 50.39 59.0082 50.3776 58.9696Z" fill="#633526"/>
<path d="M41.3875 30.535C42.7028 31.9382 41.7865 34.9341 39.3409 37.2266C36.8952 39.5192 33.8464 40.2402 32.5311 38.8371C31.2158 37.434 32.1321 34.438 34.5777 32.1455C37.0233 29.8529 40.0722 29.1319 41.3875 30.535Z" fill="#C26649"/>
<path d="M34.056 57.8329C39.5938 60.5584 40.7689 69.5018 36.6807 77.8086C32.5924 86.1154 24.7888 90.6399 19.251 87.9144C13.7131 85.1888 12.538 76.2454 16.6263 67.9386C20.7146 59.6318 28.5181 55.1073 34.056 57.8329Z" fill="#FF896F"/>
<path fill-rule="evenodd" clip-rule="evenodd" d="M27.6447 64.5003C29.4206 65.9816 29.6595 68.6222 28.1781 70.3982C27.2134 71.5548 26.5821 72.7753 26.2307 74.0819C25.6299 76.3152 23.3324 77.6386 21.0991 77.0378C18.8658 76.437 17.5424 74.1395 18.1432 71.9062C18.8245 69.3736 20.0436 67.0755 21.7467 65.0337C23.2281 63.2577 25.8687 63.0189 27.6447 64.5003Z" fill="white"/>
</svg>
