<svg width="46" height="38" viewBox="0 0 46 38" fill="none" xmlns="http://www.w3.org/2000/svg">
<path d="M0.776486 32.4194C2.36272 38.6314 40.9319 40.3837 44.2095 33.9177C47.1979 28.0386 45.9622 7.01076 43.4295 2.82271C39.924 -2.88986 5.68413 1.1142 2.87098 5.61767C0.250622 9.80572 -0.879858 25.9709 0.776486 32.4194Z" fill="url(#paint0_radial_104_3282)"/>
<path d="M0.8991 31.3155C2.48533 37.3085 40.8178 37.7378 44.0955 31.5083C47.0664 25.8483 45.8482 7.11597 43.3505 3.0681C39.845 -2.43419 5.75422 1.42968 2.94983 5.76668C0.329482 9.80578 -0.739714 25.1036 0.8991 31.3155Z" fill="url(#paint1_linear_104_3282)"/>
<path d="M1.38067 30.7548C2.93185 36.5725 40.4318 36.9843 43.6394 30.9388C46.5402 25.4365 45.3921 7.2824 42.912 3.33967C39.5204 -2.00491 6.1043 1.74506 3.37877 5.96816C0.819763 9.91088 -0.231857 24.7531 1.38067 30.7548Z" fill="url(#paint2_linear_104_3282)"/>
<path style="mix-blend-mode:screen" d="M42.8767 31.079C42.8767 31.079 25.3493 36.8617 3.35233 31.7624C3.35233 31.7624 17.6634 34.0843 24.0259 31.7624C34.8403 27.8109 40.0285 26.6456 42.8767 31.079Z" fill="url(#paint3_linear_104_3282)"/>
<path style="mix-blend-mode:screen" d="M13.6403 11.0497C13.8598 11.0363 14.0784 11.0882 14.2684 11.1989C14.4585 11.3096 14.6114 11.4742 14.708 11.6717C14.8046 11.8693 14.8405 12.091 14.8111 12.3089C14.7817 12.5268 14.6884 12.7312 14.543 12.8961C14.3976 13.0611 14.2065 13.1793 13.9939 13.2357C13.7814 13.2922 13.5568 13.2845 13.3487 13.2135C13.1405 13.1424 12.958 13.0114 12.8243 12.8368C12.6906 12.6622 12.6117 12.4519 12.5974 12.2325C12.5867 12.0861 12.6053 11.9389 12.6522 11.7998C12.6991 11.6606 12.7733 11.5322 12.8704 11.4221C12.9675 11.3119 13.0856 11.2223 13.2178 11.1583C13.35 11.0944 13.4936 11.0574 13.6403 11.0497Z" fill="url(#paint4_radial_104_3282)"/>
<path d="M13.7817 11.8472C13.822 11.8448 13.8624 11.8504 13.9005 11.8637C13.9387 11.877 13.9738 11.8976 14.0039 11.9245C14.0341 11.9513 14.0586 11.9839 14.0761 12.0202C14.0936 12.0566 14.1038 12.096 14.106 12.1363C14.1108 12.2186 14.0833 12.2995 14.0293 12.3617C13.9752 12.4239 13.899 12.4625 13.8168 12.4693C13.7758 12.4716 13.7347 12.4657 13.696 12.4519C13.6574 12.4381 13.6219 12.4167 13.5916 12.3889C13.5614 12.3611 13.537 12.3276 13.52 12.2902C13.503 12.2528 13.4936 12.2124 13.4925 12.1714C13.4889 12.1308 13.4937 12.09 13.5065 12.0513C13.5193 12.0127 13.5399 11.9771 13.567 11.9467C13.5941 11.9163 13.6271 11.8918 13.664 11.8747C13.701 11.8576 13.741 11.8482 13.7817 11.8472Z" fill="#FFFFAB"/>
<path style="mix-blend-mode:screen" d="M15.1649 6.22217C15.3866 6.20865 15.6072 6.26121 15.799 6.37319C15.9907 6.48517 16.1449 6.65153 16.242 6.8512C16.3391 7.05087 16.3747 7.27486 16.3444 7.49479C16.3141 7.71473 16.2191 7.92071 16.0716 8.08665C15.924 8.25259 15.7306 8.37101 15.5157 8.42692C15.3008 8.48283 15.0741 8.4737 14.8644 8.4007C14.6547 8.3277 14.4713 8.19411 14.3376 8.01686C14.2039 7.8396 14.1258 7.62665 14.1133 7.40499C14.0965 7.10887 14.1978 6.81818 14.3948 6.5965C14.5919 6.37483 14.8688 6.24024 15.1649 6.22217Z" fill="url(#paint5_radial_104_3282)"/>
<path d="M15.2979 7.09831C15.3793 7.09831 15.4573 7.13062 15.5149 7.18813C15.5724 7.24564 15.6047 7.32363 15.6047 7.40496C15.6047 7.48629 15.5724 7.56429 15.5149 7.6218C15.4573 7.67931 15.3793 7.71162 15.2979 7.71162C15.2577 7.71399 15.2173 7.70838 15.1792 7.69512C15.1411 7.68186 15.1059 7.66121 15.0758 7.63435C15.0457 7.60748 15.0212 7.57494 15.0036 7.53859C14.9861 7.50223 14.9759 7.46278 14.9737 7.42249C14.9711 7.37925 14.9778 7.33596 14.9932 7.29548C15.0086 7.25499 15.0324 7.21822 15.063 7.1876C15.0937 7.15697 15.1304 7.13318 15.1709 7.11779C15.2114 7.1024 15.2547 7.09576 15.2979 7.09831Z" fill="#FFFFAB"/>
<path style="mix-blend-mode:screen" d="M14.228 20.013C14.4499 19.9978 14.6714 20.0488 14.8642 20.1596C15.057 20.2704 15.2126 20.4361 15.311 20.6355C15.4095 20.8349 15.4464 21.059 15.4171 21.2795C15.3879 21.4999 15.2937 21.7066 15.1466 21.8735C14.9995 22.0403 14.8062 22.1596 14.5911 22.2163C14.376 22.273 14.1489 22.2645 13.9387 22.1919C13.7285 22.1192 13.5446 21.9858 13.4104 21.8084C13.2763 21.6311 13.1978 21.4178 13.1851 21.1958C13.1756 21.0497 13.1951 20.903 13.2424 20.7644C13.2897 20.6257 13.364 20.4978 13.4609 20.3879C13.5578 20.278 13.6754 20.1883 13.8071 20.124C13.9387 20.0597 14.0818 20.0219 14.228 20.013Z" fill="url(#paint6_radial_104_3282)"/>
<path d="M14.4041 20.8189C14.4446 20.8153 14.4854 20.8201 14.5241 20.8329C14.5627 20.8456 14.5984 20.8662 14.6288 20.8933C14.6592 20.9204 14.6836 20.9534 14.7008 20.9904C14.7179 21.0273 14.7273 21.0674 14.7283 21.1081C14.7283 21.1894 14.696 21.2674 14.6385 21.3249C14.5809 21.3824 14.5029 21.4147 14.4215 21.4147C14.3402 21.4147 14.2622 21.3824 14.2047 21.3249C14.1472 21.2674 14.1148 21.1894 14.1148 21.1081C14.117 21.0321 14.1482 20.9598 14.202 20.906C14.2557 20.8523 14.3281 20.8211 14.4041 20.8189Z" fill="#FFFFAB"/>
<path style="mix-blend-mode:screen" d="M8.96923 3.79503C9.58813 3.75092 10.2061 3.89178 10.7448 4.1997C11.2834 4.50763 11.7183 4.96871 11.9942 5.52435C12.27 6.07998 12.3744 6.70508 12.294 7.32017C12.2137 7.93526 11.9521 8.51257 11.5428 8.97871C11.1334 9.44486 10.5947 9.77878 9.995 9.93805C9.39533 10.0973 8.76186 10.0747 8.17507 9.87315C7.58828 9.67157 7.07467 9.30012 6.69956 8.806C6.32445 8.31188 6.10477 7.71741 6.06844 7.09816C6.02025 6.27682 6.29771 5.46957 6.84067 4.8513C7.38363 4.23304 8.14836 3.85354 8.96923 3.79503Z" fill="url(#paint7_radial_104_3282)"/>
<path d="M9.38153 6.03828C9.55696 6.02598 9.73206 6.06672 9.88401 6.15521C10.036 6.2437 10.1578 6.37584 10.2336 6.53447C10.3095 6.69309 10.3358 6.87086 10.3092 7.04465C10.2826 7.21845 10.2044 7.38023 10.0847 7.50897C9.96489 7.63771 9.80915 7.72746 9.63769 7.76654C9.46624 7.80562 9.28703 7.79222 9.12329 7.7281C8.95955 7.66397 8.81889 7.55209 8.7196 7.40698C8.62032 7.26187 8.56695 7.09026 8.56652 6.91444C8.56597 6.69232 8.64987 6.47827 8.80117 6.31562C8.95248 6.15296 9.1599 6.05383 9.38153 6.03828Z" fill="#FFFFAB"/>
<path style="mix-blend-mode:screen" d="M17.9256 27.6616C18.2216 27.6431 18.5164 27.7128 18.7727 27.8618C19.0291 28.0108 19.2354 28.2326 19.3656 28.4989C19.4958 28.7652 19.5441 29.0642 19.5044 29.358C19.4646 29.6517 19.3385 29.9271 19.1421 30.1492C18.9457 30.3713 18.6878 30.5302 18.4011 30.6057C18.1143 30.6812 17.8117 30.67 17.5313 30.5735C17.2509 30.4769 17.0055 30.2994 16.8261 30.0634C16.6467 29.8273 16.5414 29.5434 16.5234 29.2475C16.5018 28.8519 16.6368 28.4638 16.8992 28.167C17.1616 27.8702 17.5303 27.6887 17.9256 27.6616Z" fill="url(#paint8_radial_104_3282)"/>
<path d="M18.1106 28.7394C18.1647 28.7359 18.219 28.743 18.2704 28.7605C18.3217 28.7779 18.3691 28.8054 18.4098 28.8412C18.4505 28.877 18.4838 28.9205 18.5076 28.9692C18.5315 29.0179 18.5455 29.0708 18.5488 29.1249C18.5514 29.2345 18.512 29.3409 18.4387 29.4223C18.3654 29.5037 18.2636 29.5541 18.1544 29.563C18.1003 29.5666 18.046 29.5594 17.9946 29.5419C17.9433 29.5245 17.8959 29.4971 17.8552 29.4612C17.8144 29.4254 17.7812 29.3819 17.7574 29.3332C17.7335 29.2845 17.7195 29.2316 17.7161 29.1775C17.7113 29.0674 17.75 28.9598 17.8238 28.8778C17.8975 28.7959 18.0005 28.7462 18.1106 28.7394Z" fill="#FFFFAB"/>
<path style="mix-blend-mode:screen" d="M4.66668 31.6306C4.81367 31.6222 4.95984 31.6576 5.08675 31.7322C5.21366 31.8068 5.31561 31.9173 5.37973 32.0498C5.44385 32.1823 5.46723 32.3308 5.44697 32.4766C5.42671 32.6224 5.36371 32.7589 5.2659 32.8689C5.16809 32.9789 5.03984 33.0575 4.89739 33.0947C4.75494 33.1319 4.60469 33.1261 4.46555 33.0779C4.32641 33.0298 4.20465 32.9416 4.11566 32.8243C4.02666 32.7071 3.9744 32.5661 3.9655 32.4192C3.95958 32.3213 3.97303 32.2233 4.00509 32.1306C4.03714 32.038 4.08721 31.9526 4.15235 31.8794C4.21749 31.8061 4.29641 31.7464 4.38467 31.7037C4.47293 31.661 4.56879 31.6362 4.66668 31.6306Z" fill="url(#paint9_radial_104_3282)"/>
<path d="M4.75437 32.1478C4.79616 32.1444 4.83804 32.1535 4.87461 32.174C4.91118 32.1945 4.94077 32.2255 4.9596 32.2629C4.97843 32.3004 4.98565 32.3426 4.9803 32.3842C4.97495 32.4258 4.95729 32.4648 4.92959 32.4963C4.90189 32.5278 4.86538 32.5502 4.82481 32.5608C4.78424 32.5714 4.74145 32.5696 4.7019 32.5557C4.66234 32.5418 4.62784 32.5164 4.60284 32.4827C4.57784 32.4491 4.56344 32.4087 4.56155 32.3668C4.55915 32.3397 4.56235 32.3123 4.57085 32.2864C4.57936 32.2604 4.593 32.2365 4.61102 32.216C4.62905 32.1956 4.65105 32.179 4.67569 32.1672C4.70033 32.1555 4.7271 32.1489 4.75437 32.1478Z" fill="#FFFFAB"/>
<path style="mix-blend-mode:screen" d="M25.6205 18.7862C25.7694 18.776 25.918 18.8103 26.0475 18.8848C26.1769 18.9592 26.2813 19.0704 26.3474 19.2042C26.4135 19.338 26.4384 19.4885 26.4188 19.6365C26.3993 19.7845 26.3363 19.9233 26.2377 20.0354C26.1391 20.1475 26.0095 20.2278 25.8652 20.2662C25.7209 20.3045 25.5684 20.2991 25.4272 20.2507C25.286 20.2023 25.1623 20.113 25.0719 19.9942C24.9814 19.8754 24.9284 19.7325 24.9194 19.5835C24.9073 19.385 24.9743 19.1898 25.1056 19.0404C25.2369 18.8911 25.422 18.7997 25.6205 18.7862Z" fill="url(#paint10_radial_104_3282)"/>
<path d="M25.7444 19.3645C25.775 19.3581 25.8066 19.3587 25.8369 19.3661C25.8673 19.3735 25.8956 19.3876 25.9198 19.4073C25.9441 19.427 25.9636 19.4519 25.977 19.4801C25.9904 19.5083 25.9974 19.5392 25.9974 19.5704C25.9974 19.6016 25.9904 19.6325 25.977 19.6607C25.9636 19.6889 25.9441 19.7138 25.9198 19.7335C25.8956 19.7532 25.8673 19.7673 25.8369 19.7747C25.8066 19.7821 25.775 19.7826 25.7444 19.7763C25.6892 19.7765 25.636 19.7558 25.5954 19.7184C25.5547 19.6811 25.5298 19.6298 25.5254 19.5748C25.5224 19.5457 25.5261 19.5163 25.5362 19.4888C25.5463 19.4613 25.5625 19.4365 25.5836 19.4163C25.6048 19.396 25.6302 19.3808 25.658 19.3718C25.6859 19.3629 25.7154 19.3603 25.7444 19.3645Z" fill="#FFFFAB"/>
<path style="mix-blend-mode:screen" d="M15.2884 30.5092C15.4358 30.502 15.58 30.5532 15.6899 30.6516C15.7998 30.75 15.8666 30.8877 15.8756 31.0349C15.8816 31.1077 15.8728 31.1809 15.8498 31.2502C15.8268 31.3195 15.7901 31.3835 15.7418 31.4383C15.6936 31.4931 15.6347 31.5376 15.5689 31.5691C15.503 31.6007 15.4315 31.6186 15.3585 31.6219C15.2112 31.6291 15.0669 31.578 14.957 31.4796C14.8471 31.3812 14.7804 31.2435 14.7714 31.0962C14.7666 31.0237 14.7762 30.951 14.7997 30.8822C14.8231 30.8134 14.8599 30.7499 14.9079 30.6954C14.956 30.6408 15.0143 30.5963 15.0796 30.5644C15.1449 30.5324 15.2159 30.5137 15.2884 30.5092Z" fill="url(#paint11_radial_104_3282)"/>
<path d="M15.3592 30.9123C15.3794 30.9099 15.4 30.9116 15.4196 30.9175C15.4391 30.9233 15.4573 30.9331 15.4729 30.9463C15.4885 30.9594 15.5012 30.9756 15.5103 30.9939C15.5194 31.0122 15.5246 31.0321 15.5257 31.0525C15.5257 31.0943 15.5091 31.1344 15.4795 31.164C15.4499 31.1936 15.4098 31.2102 15.3679 31.2102C15.3261 31.2102 15.286 31.1936 15.2564 31.164C15.2268 31.1344 15.2102 31.0943 15.2102 31.0525C15.2143 31.0152 15.2316 30.9807 15.2589 30.955C15.2862 30.9293 15.3217 30.9142 15.3592 30.9123Z" fill="#FFFFAB"/>
<path style="mix-blend-mode:screen" d="M23.947 30.0535C24.0997 30.044 24.2527 30.0649 24.3972 30.115C24.5418 30.165 24.6749 30.2432 24.789 30.3451C24.9031 30.447 24.9959 30.5704 25.062 30.7084C25.128 30.8463 25.1661 30.996 25.1739 31.1487C25.1874 31.379 25.1323 31.6081 25.0154 31.8071C24.8986 32.006 24.7254 32.1658 24.5177 32.2662C24.31 32.3666 24.0771 32.4031 23.8486 32.3711C23.6201 32.3391 23.4062 32.24 23.2341 32.0863C23.062 31.9327 22.9393 31.7314 22.8817 31.508C22.8241 31.2846 22.8341 31.0492 22.9105 30.8315C22.9868 30.6138 23.1261 30.4237 23.3106 30.2852C23.4951 30.1467 23.7166 30.066 23.947 30.0535Z" fill="url(#paint12_radial_104_3282)"/>
<path d="M24.0879 30.8859C24.1733 30.8834 24.2564 30.9138 24.3201 30.9709C24.3837 31.028 24.423 31.1073 24.4297 31.1925C24.4322 31.278 24.4017 31.3611 24.3446 31.4247C24.2875 31.4883 24.2081 31.5275 24.1229 31.5342C24.0803 31.5366 24.0377 31.5305 23.9974 31.5164C23.9572 31.5023 23.9201 31.4803 23.8884 31.4518C23.8566 31.4233 23.8308 31.3889 23.8124 31.3504C23.794 31.3119 23.7834 31.2702 23.7812 31.2276C23.7787 31.1422 23.8091 31.059 23.8662 30.9954C23.9233 30.9318 24.0027 30.8926 24.0879 30.8859Z" fill="#FFFFAB"/>
<path d="M41.8435 32.2005C41.6507 31.5346 43.4122 28.5031 43.8591 28.5119C44.3061 28.5206 43.903 30.5095 43.64 30.9739C43.3771 31.4382 41.9487 32.5072 41.8435 32.2005Z" fill="white"/>
<path d="M27.9438 7.74194C27.9438 7.74194 22.7906 9.73961 15.4816 18.4137C18.7285 22.7931 23.0101 26.3001 27.9438 28.6212L29.5826 25.9927C26.5473 23.7816 23.8364 21.1568 21.5287 18.1947C23.2493 14.9787 25.8199 12.2965 28.9604 10.4406L27.9438 7.74194Z" fill="black"/>
<path style="mix-blend-mode:screen" d="M5 6.10491C5 6.10491 29.5882 -3.50178 42.352 3.64188C43.1866 5.88561 43.7404 8.22916 44 10.6163C40.9002 13.8398 36.7376 15.7542 32.3321 15.9825C25.7401 16.4395 19.3623 7.82312 13.825 6.75665C10.9274 6.11725 7.95688 5.89788 5 6.10491Z" fill="url(#paint13_linear_104_3282)"/>
<path d="M3.61481 7.09832C4.3898 5.68701 5.58406 4.55118 7.03263 3.84776C9.41637 2.71752 16.6144 2.23721 17 2.50006C17.3856 2.76291 13.29 3.46225 11.3357 4.16318C9.38134 4.86411 4.58758 7.62402 3.61481 7.09832Z" fill="white"/>
<path d="M3.40573 7.65015C2.91497 7.729 1.65302 11.5315 1.75818 12.1624C1.86334 12.7932 3.30933 10.8043 3.51089 9.75293C3.64733 9.05388 3.61124 8.33211 3.40573 7.65015Z" fill="white"/>
<defs>
<radialGradient id="paint0_radial_104_3282" cx="0" cy="0" r="1" gradientUnits="userSpaceOnUse" gradientTransform="translate(22838.9 3237.6) scale(925.571 1444)">
<stop stop-color="#FFBD00"/>
<stop offset="1" stop-color="#FF772C"/>
</radialGradient>
<linearGradient id="paint1_linear_104_3282" x1="34699.8" y1="3065.64" x2="34699.8" y2="1615.16" gradientUnits="userSpaceOnUse">
<stop stop-color="#FFF300"/>
<stop offset="1" stop-color="#FF9700"/>
</linearGradient>
<linearGradient id="paint2_linear_104_3282" x1="33958" y1="2949.14" x2="33958" y2="1583.21" gradientUnits="userSpaceOnUse">
<stop stop-color="#FFCC00"/>
<stop offset="1" stop-color="#FF9700"/>
</linearGradient>
<linearGradient id="paint3_linear_104_3282" x1="1831.35" y1="480.197" x2="3613.9" y2="480.197" gradientUnits="userSpaceOnUse">
<stop stop-color="#FF6140"/>
<stop offset="0.1" stop-color="#EF5B3C"/>
<stop offset="0.29" stop-color="#C54B31"/>
<stop offset="0.55" stop-color="#813120"/>
<stop offset="0.88" stop-color="#240E09"/>
<stop offset="1"/>
</linearGradient>
<radialGradient id="paint4_radial_104_3282" cx="0" cy="0" r="1" gradientUnits="userSpaceOnUse" gradientTransform="translate(2107.97 201.235) scale(2.85001 2.84858)">
<stop stop-color="#00B359"/>
<stop offset="0.13" stop-color="#009148"/>
<stop offset="0.34" stop-color="#005E2F"/>
<stop offset="0.54" stop-color="#00351A"/>
<stop offset="0.73" stop-color="#00180C"/>
<stop offset="0.89" stop-color="#000603"/>
<stop offset="1"/>
</radialGradient>
<radialGradient id="paint5_radial_104_3282" cx="0" cy="0" r="1" gradientUnits="userSpaceOnUse" gradientTransform="translate(2137.4 202.502) scale(2.87162 2.871)">
<stop stop-color="#00B359"/>
<stop offset="0.13" stop-color="#009148"/>
<stop offset="0.34" stop-color="#005E2F"/>
<stop offset="0.54" stop-color="#00351A"/>
<stop offset="0.73" stop-color="#00180C"/>
<stop offset="0.89" stop-color="#000603"/>
<stop offset="1"/>
</radialGradient>
<radialGradient id="paint6_radial_104_3282" cx="0" cy="0" r="1" gradientUnits="userSpaceOnUse" gradientTransform="translate(2102.05 211.919) scale(2.87247 2.87101)">
<stop stop-color="#00B359"/>
<stop offset="0.13" stop-color="#009148"/>
<stop offset="0.34" stop-color="#005E2F"/>
<stop offset="0.54" stop-color="#00351A"/>
<stop offset="0.73" stop-color="#00180C"/>
<stop offset="0.89" stop-color="#000603"/>
<stop offset="1"/>
</radialGradient>
<radialGradient id="paint7_radial_104_3282" cx="0" cy="0" r="1" gradientUnits="userSpaceOnUse" gradientTransform="translate(5934.01 508.442) scale(22.3387 22.3332)">
<stop stop-color="#00B359"/>
<stop offset="0.13" stop-color="#009148"/>
<stop offset="0.34" stop-color="#005E2F"/>
<stop offset="0.54" stop-color="#00351A"/>
<stop offset="0.73" stop-color="#00180C"/>
<stop offset="0.89" stop-color="#000603"/>
<stop offset="1"/>
</radialGradient>
<radialGradient id="paint8_radial_104_3282" cx="0" cy="0" r="1" gradientUnits="userSpaceOnUse" gradientTransform="translate(2777.76 294.973) scale(5.09442 5.09399)">
<stop stop-color="#00B359"/>
<stop offset="0.13" stop-color="#009148"/>
<stop offset="0.34" stop-color="#005E2F"/>
<stop offset="0.54" stop-color="#00351A"/>
<stop offset="0.73" stop-color="#00180C"/>
<stop offset="0.89" stop-color="#000603"/>
<stop offset="1"/>
</radialGradient>
<radialGradient id="paint9_radial_104_3282" cx="0" cy="0" r="1" gradientUnits="userSpaceOnUse" gradientTransform="translate(1372.72 141.597) scale(1.26643 1.26605)">
<stop stop-color="#00B359"/>
<stop offset="0.13" stop-color="#009148"/>
<stop offset="0.34" stop-color="#005E2F"/>
<stop offset="0.54" stop-color="#00351A"/>
<stop offset="0.73" stop-color="#00180C"/>
<stop offset="0.89" stop-color="#000603"/>
<stop offset="1"/>
</radialGradient>
<radialGradient id="paint10_radial_104_3282" cx="0" cy="0" r="1" gradientUnits="userSpaceOnUse" gradientTransform="translate(1429.54 167.389) scale(1.28123 1.28094)">
<stop stop-color="#00B359"/>
<stop offset="0.13" stop-color="#009148"/>
<stop offset="0.34" stop-color="#005E2F"/>
<stop offset="0.54" stop-color="#00351A"/>
<stop offset="0.73" stop-color="#00180C"/>
<stop offset="0.89" stop-color="#000603"/>
<stop offset="1"/>
</radialGradient>
<radialGradient id="paint11_radial_104_3282" cx="0" cy="0" r="1" gradientUnits="userSpaceOnUse" gradientTransform="translate(1032.81 126.328) scale(0.708637 0.712993)">
<stop stop-color="#00B359"/>
<stop offset="0.13" stop-color="#009148"/>
<stop offset="0.34" stop-color="#005E2F"/>
<stop offset="0.54" stop-color="#00351A"/>
<stop offset="0.73" stop-color="#00180C"/>
<stop offset="0.89" stop-color="#000603"/>
<stop offset="1"/>
</radialGradient>
<radialGradient id="paint12_radial_104_3282" cx="0" cy="0" r="1" gradientUnits="userSpaceOnUse" gradientTransform="translate(2164.32 253.603) scale(3.10031 3.10036)">
<stop stop-color="#00B359"/>
<stop offset="0.13" stop-color="#009148"/>
<stop offset="0.34" stop-color="#005E2F"/>
<stop offset="0.54" stop-color="#00351A"/>
<stop offset="0.73" stop-color="#00180C"/>
<stop offset="0.89" stop-color="#000603"/>
<stop offset="1"/>
</radialGradient>
<linearGradient id="paint13_linear_104_3282" x1="28728.9" y1="820" x2="30574" y2="820" gradientUnits="userSpaceOnUse">
<stop stop-color="#FF9840"/>
<stop offset="0.1" stop-color="#EF8E3C"/>
<stop offset="0.29" stop-color="#C57531"/>
<stop offset="0.55" stop-color="#814D20"/>
<stop offset="0.88" stop-color="#241609"/>
<stop offset="1"/>
</linearGradient>
</defs>
</svg>
