<svg width="150" height="56" viewBox="0 0 150 56" fill="none" xmlns="http://www.w3.org/2000/svg">
<path opacity="0.3" d="M149.765 33.1224L149.224 33.4122C149.015 32.8797 148.758 32.3567 148.417 31.8525C143.143 24.0954 137.522 16.5302 132.565 8.5963C131.144 6.32355 128.654 4.93884 125.968 4.93884H8.33635C4.08852 4.93884 0.627254 8.33667 0.559349 12.5717C0.372611 24.1951 0.185879 35.8185 0.00102728 47.4419C-0.0725363 52.0156 3.81501 55.6637 8.38538 55.3006C52.6254 51.788 98.2745 47.4927 142.603 43.9312C146.753 43.5982 149.567 40.2266 149.746 36.5504L149.756 36.556L149.765 33.1243V33.1224Z" fill="black"/>
<path d="M149.765 31.1658L149.224 31.4555C149.015 30.9231 148.758 30.4 148.417 29.8958C143.143 22.1387 137.522 14.5736 132.565 6.63964C131.144 4.36689 128.654 2.98218 125.968 2.98218H8.33635C4.08852 2.98218 0.627254 6.38 0.559349 10.6151C0.372611 22.2385 0.185879 33.8619 0.00102728 45.4852C-0.0725363 50.059 3.81501 53.707 8.38538 53.3439C52.6254 49.8313 98.2745 45.536 142.603 41.9745C146.753 41.6415 149.567 38.27 149.746 34.5937L149.756 34.5993L149.765 31.1676V31.1658Z" fill="#2B1E38"/>
<path d="M8.33648 0.00012207H125.968C128.654 0.00012207 131.144 1.38483 132.565 3.65758C137.522 11.5896 143.143 19.1567 148.417 26.9138C149.328 28.2533 149.75 29.7246 149.765 31.1639C149.803 35.0114 146.923 38.6444 142.605 38.9925C98.2765 42.554 52.6255 46.8492 8.3874 50.3618C3.81702 50.7249 -0.0705222 47.075 0.00304144 42.5032C0.18978 30.8798 0.376511 19.2564 0.561363 7.63301C0.629268 3.39795 4.09053 0.00012207 8.33835 0.00012207H8.33648Z" fill="url(#paint0_radial_97_2871)"/>
<path opacity="0.1" d="M53.0762 46.6366C82.9695 44.061 113.076 41.3668 142.603 38.9943C146.921 38.6482 149.803 35.0132 149.763 31.1657C149.748 29.7246 149.326 28.2533 148.415 26.9138C143.141 19.1567 137.52 11.5915 132.563 3.65758C131.142 1.38483 128.652 0.00012207 125.966 0.00012207H93.7022L53.0743 46.6348L53.0762 46.6366Z" fill="url(#paint1_linear_97_2871)"/>
<path d="M125.968 2.99909C127.623 2.99909 129.135 3.83821 130.014 5.24551C133.315 10.5285 136.944 15.7024 140.453 20.707C142.264 23.2883 144.135 25.958 145.929 28.5976C146.47 29.3954 146.749 30.2683 146.759 31.1959C146.779 33.3858 145.142 35.7828 142.362 36.0066C120.913 37.73 98.797 39.6566 77.4108 41.5192C54.5834 43.5078 30.9808 45.5623 8.14589 47.376C8.01574 47.3854 7.88559 47.3911 7.75732 47.3911C6.48033 47.3911 5.2788 46.8869 4.37528 45.9706C3.47177 45.0544 2.98512 43.8409 3.00587 42.5521L3.28503 25.117L3.56419 7.68193C3.60569 5.09875 5.74659 2.9972 8.3364 2.9972H125.968M125.968 0.00012207H8.3364C4.08857 0.00012207 0.627304 3.39795 0.559399 7.63301C0.372661 19.2564 0.18593 30.8798 0.00107761 42.5032C-0.0687135 46.8662 3.46423 50.3882 7.75921 50.3882C7.9667 50.3882 8.17606 50.3807 8.38544 50.3637C52.6255 46.8511 98.2745 42.5559 142.603 38.9943C146.921 38.6482 149.803 35.0132 149.763 31.1658C149.75 29.7246 149.326 28.2533 148.415 26.9156C143.139 19.1586 137.52 11.5934 132.563 3.65947C131.142 1.38672 128.653 0.00200532 125.966 0.00200532L125.968 0.00012207Z" fill="#422C54"/>
<path opacity="0.4" d="M121.183 2.98218H12.2446V4.48166H121.183V2.98218Z" fill="url(#paint2_linear_97_2871)"/>
<defs>
<radialGradient id="paint0_radial_97_2871" cx="0" cy="0" r="1" gradientUnits="userSpaceOnUse" gradientTransform="translate(74.8833 25.1941) scale(55.8819 55.7388)">
<stop stop-color="#81519B"/>
<stop offset="0.85" stop-color="#5C3B72"/>
</radialGradient>
<linearGradient id="paint1_linear_97_2871" x1="101.421" y1="46.6366" x2="101.421" y2="0.00012207" gradientUnits="userSpaceOnUse">
<stop stop-color="white"/>
<stop offset="1" stop-color="white"/>
</linearGradient>
<linearGradient id="paint2_linear_97_2871" x1="12.2446" y1="3.73098" x2="121.183" y2="3.73098" gradientUnits="userSpaceOnUse">
<stop stop-color="white"/>
<stop offset="0.43" stop-color="white"/>
<stop offset="0.5" stop-color="white"/>
<stop offset="0.55" stop-color="white"/>
<stop offset="1" stop-color="white"/>
</linearGradient>
</defs>
</svg>
