<svg width="150" height="56" viewBox="0 0 150 56" fill="none" xmlns="http://www.w3.org/2000/svg">
<path opacity="0.3" d="M149.765 33.797L149.224 34.0867C149.015 33.5543 148.758 33.0313 148.417 32.527C143.143 24.77 137.522 17.2048 132.565 9.27086C131.144 6.99811 128.654 5.6134 125.968 5.6134H8.33635C4.08852 5.6134 0.627254 9.01123 0.559349 13.2463C0.372611 24.8697 0.185879 36.4931 0.00102728 48.1164C-0.0725363 52.6902 3.81501 56.3382 8.38538 55.9751C52.6254 52.4625 98.2745 48.1673 142.603 44.6057C146.753 44.2727 149.567 40.9012 149.746 37.2249L149.756 37.2306L149.765 33.7989V33.797Z" fill="black"/>
<path d="M149.765 31.8403L149.224 32.1301C149.015 31.5976 148.758 31.0746 148.417 30.5704C143.143 22.8133 137.522 15.2481 132.565 7.3142C131.144 5.04145 128.654 3.65674 125.968 3.65674H8.33635C4.08852 3.65674 0.627254 7.05456 0.559349 11.2896C0.372611 22.913 0.185879 34.5364 0.00102728 46.1598C-0.0725363 50.7335 3.81501 54.3816 8.38538 54.0184C52.6254 50.5058 98.2745 46.2106 142.603 42.6491C146.753 42.3161 149.567 38.9446 149.746 35.2683L149.756 35.2739L149.765 31.8422V31.8403Z" fill="#2B1E38"/>
<path d="M8.33642 0.674683H125.968C128.654 0.674683 131.144 2.05939 132.565 4.33214C137.522 12.2642 143.143 19.8312 148.417 27.5883C149.328 28.9279 149.75 30.3991 149.765 31.8384C149.803 35.6859 146.923 39.319 142.605 39.667C98.2764 43.2285 52.6255 47.5238 8.38734 51.0364C3.81696 51.3995 -0.0705832 47.7496 0.0029804 43.1777C0.189719 31.5543 0.37645 19.931 0.561302 8.30757C0.629207 4.07251 4.09047 0.674683 8.33829 0.674683H8.33642Z" fill="url(#paint0_radial_97_2783)"/>
<path opacity="0.1" d="M53.0762 47.3112C82.9695 44.7355 113.076 42.0414 142.603 39.6689C146.921 39.3227 149.803 35.6878 149.763 31.8403C149.748 30.3991 149.326 28.9279 148.415 27.5883C143.141 19.8312 137.52 12.2661 132.563 4.33214C131.142 2.05939 128.652 0.674683 125.966 0.674683H93.7022L53.0743 47.3093L53.0762 47.3112Z" fill="url(#paint1_linear_97_2783)"/>
<path d="M125.968 3.67365C127.623 3.67365 129.135 4.51277 130.014 5.92007C133.315 11.2031 136.944 16.377 140.453 21.3815C142.264 23.9628 144.135 26.6326 145.929 29.2722C146.47 30.0699 146.749 30.9429 146.759 31.8704C146.779 34.0604 145.142 36.4573 142.362 36.6812C120.913 38.4046 98.797 40.3311 77.4107 42.1937C54.5833 44.1824 30.9807 46.2369 8.14583 48.0506C8.01568 48.06 7.88553 48.0656 7.75726 48.0656C6.48027 48.0656 5.27874 47.5614 4.37522 46.6452C3.47171 45.7289 2.98506 44.5154 3.00581 43.2266L3.28497 25.7916L3.56413 8.35649C3.60563 5.77331 5.74652 3.67176 8.33634 3.67176H125.968M125.968 0.674683H8.33634C4.08851 0.674683 0.627243 4.07251 0.559338 8.30757C0.3726 19.931 0.185869 31.5543 0.00101658 43.1777C-0.0687746 47.5407 3.46417 51.0627 7.75915 51.0627C7.96664 51.0627 8.176 51.0552 8.38537 51.0383C52.6254 47.5257 98.2745 43.2304 142.603 39.6689C146.921 39.3227 149.803 35.6878 149.763 31.8403C149.75 30.3991 149.326 28.9279 148.415 27.5902C143.139 19.8331 137.52 12.268 132.563 4.33403C131.142 2.06128 128.652 0.676566 125.966 0.676566L125.968 0.674683Z" fill="#422C54"/>
<path opacity="0.4" d="M121.183 3.65674H12.2446V5.15622H121.183V3.65674Z" fill="url(#paint2_linear_97_2783)"/>
<defs>
<radialGradient id="paint0_radial_97_2783" cx="0" cy="0" r="1" gradientUnits="userSpaceOnUse" gradientTransform="translate(74.8832 25.8687) scale(55.8819 55.7388)">
<stop stop-color="#81519B"/>
<stop offset="0.85" stop-color="#5C3B72"/>
</radialGradient>
<linearGradient id="paint1_linear_97_2783" x1="101.421" y1="47.3112" x2="101.421" y2="0.674683" gradientUnits="userSpaceOnUse">
<stop stop-color="white"/>
<stop offset="1" stop-color="white"/>
</linearGradient>
<linearGradient id="paint2_linear_97_2783" x1="12.2446" y1="4.40554" x2="121.183" y2="4.40554" gradientUnits="userSpaceOnUse">
<stop stop-color="white"/>
<stop offset="0.43" stop-color="white"/>
<stop offset="0.5" stop-color="white"/>
<stop offset="0.55" stop-color="white"/>
<stop offset="1" stop-color="white"/>
</linearGradient>
</defs>
</svg>
