<svg width="153" height="54" viewBox="0 0 153 54" fill="none" xmlns="http://www.w3.org/2000/svg">
<path d="M144.732 3.17273H7.49783C3.35689 3.17273 0 6.52102 0 10.6514V45.5874C0 49.7177 3.35689 53.066 7.49783 53.066H144.732C148.873 53.066 152.23 49.7177 152.23 45.5874V10.6514C152.23 6.52102 148.873 3.17273 144.732 3.17273Z" fill="#223038"/>
<path d="M144.732 0.851196H7.49783C3.35689 0.851196 0 4.19949 0 8.32982V43.2658C0 47.3961 3.35689 50.7444 7.49783 50.7444H144.732C148.873 50.7444 152.23 47.3961 152.23 43.2658V8.32982C152.23 4.19949 148.873 0.851196 144.732 0.851196Z" fill="url(#paint0_radial_97_2914)"/>
<path opacity="0.1" d="M87.635 0.851004H7.49783C3.35563 0.851004 0 4.19992 0 8.32963V43.2638C0 47.3953 3.35752 50.7424 7.49783 50.7424H36.5819L87.6331 0.849121L87.635 0.851004Z" fill="url(#paint1_linear_97_2914)"/>
<path d="M140.457 49.2448H11.7702V50.7442H140.457V49.2448Z" fill="url(#paint2_linear_97_2914)"/>
<defs>
<radialGradient id="paint0_radial_97_2914" cx="0" cy="0" r="1" gradientUnits="userSpaceOnUse" gradientTransform="translate(77.0381 25.7988) scale(56.842 56.6964)">
<stop stop-color="#004878"/>
<stop offset="1" stop-color="#00355A"/>
</radialGradient>
<linearGradient id="paint1_linear_97_2914" x1="43.8175" y1="50.7443" x2="43.8175" y2="0.851001" gradientUnits="userSpaceOnUse">
<stop stop-color="white"/>
<stop offset="1" stop-color="white"/>
</linearGradient>
<linearGradient id="paint2_linear_97_2914" x1="11.7702" y1="49.9954" x2="140.457" y2="49.9954" gradientUnits="userSpaceOnUse">
<stop stop-color="white"/>
<stop offset="0.43" stop-color="white"/>
<stop offset="0.5" stop-color="white"/>
<stop offset="0.55" stop-color="white"/>
<stop offset="1" stop-color="white"/>
</linearGradient>
</defs>
</svg>
