<svg width="153" height="64" viewBox="0 0 153 64" fill="none" xmlns="http://www.w3.org/2000/svg">
<path opacity="0.3" d="M123.428 5.41467H29.3726C13.1506 5.41467 0 18.5316 0 34.7121C0 50.8926 13.1506 64.0095 29.3726 64.0095H123.428C139.65 64.0095 152.801 50.8926 152.801 34.7121C152.801 18.5316 139.65 5.41467 123.428 5.41467Z" fill="black"/>
<path d="M123.428 2.99707H29.3726C13.1506 2.99707 0 16.114 0 32.2945C0 48.475 13.1506 61.5919 29.3726 61.5919H123.428C139.65 61.5919 152.801 48.475 152.801 32.2945C152.801 16.114 139.65 2.99707 123.428 2.99707Z" fill="url(#paint0_linear_97_2853)"/>
<path d="M123.428 0H29.3726C13.1506 0 0 13.1169 0 29.2974C0 45.4779 13.1506 58.5948 29.3726 58.5948H123.428C139.65 58.5948 152.801 45.4779 152.801 29.2974C152.801 13.1169 139.65 0 123.428 0Z" fill="url(#paint1_linear_97_2853)"/>
<path opacity="0.1" d="M123.428 0H29.3726C13.1509 0 0 13.1172 0 29.2974C0 32.9774 0.6866 36.4957 1.92775 39.7393C6.1454 28.716 16.8385 20.8837 29.3726 20.8837H123.428C135.961 20.8837 146.654 28.716 150.873 39.7393C152.114 36.4938 152.801 32.9774 152.801 29.2974C152.801 13.1172 139.65 0 123.428 0Z" fill="white"/>
<path opacity="0.1" d="M29.3726 20.8856H123.428C134.64 20.8856 144.375 27.1564 149.325 36.3697C144.373 25.8883 134.635 18.7596 123.428 18.7596H29.3726C18.1664 18.7596 8.42772 25.8883 3.47632 36.3716C8.42583 27.1583 18.1607 20.8875 29.3726 20.8875V20.8856Z" fill="white"/>
<path d="M123.428 2.99709C137.968 2.99709 149.796 14.7954 149.796 29.2974C149.796 43.7993 137.968 55.5977 123.428 55.5977H29.3726C14.8334 55.5977 3.0048 43.7993 3.0048 29.2974C3.0048 14.7954 14.8334 2.99709 29.3726 2.99709H123.428ZM123.428 0H29.3726C13.1509 0 0 13.1172 0 29.2974C0 45.4776 13.1509 58.5948 29.3726 58.5948H123.428C139.65 58.5948 152.801 45.4776 152.801 29.2974C152.801 13.1172 139.65 0 123.428 0Z" fill="url(#paint2_linear_97_2853)"/>
<path d="M110.809 0H41.9916V2.99709H110.809V0Z" fill="url(#paint3_linear_97_2853)"/>
<path d="M121.527 55.5977H31.2759V58.5947H121.527V55.5977Z" fill="url(#paint4_linear_97_2853)"/>
<path opacity="0.5" d="M26.1943 6.24442C26.4716 7.16443 24.8136 8.47577 22.4916 9.1719C20.1696 9.86802 18.0627 9.68552 17.7854 8.76551C17.5081 7.8455 19.1661 6.53415 21.4881 5.83803C23.8101 5.14191 25.917 5.3244 26.1943 6.24442Z" fill="white"/>
<path opacity="0.5" d="M15.4427 12.28C16.3928 12.28 17.1629 11.5118 17.1629 10.5641C17.1629 9.61648 16.3928 8.84827 15.4427 8.84827C14.4926 8.84827 13.7224 9.61648 13.7224 10.5641C13.7224 11.5118 14.4926 12.28 15.4427 12.28Z" fill="white"/>
<path opacity="0.5" d="M130.459 9.22076C131.409 9.22076 132.179 8.45255 132.179 7.50491C132.179 6.55727 131.409 5.78906 130.459 5.78906C129.508 5.78906 128.738 6.55727 128.738 7.50491C128.738 8.45255 129.508 9.22076 130.459 9.22076Z" fill="white"/>
<path opacity="0.5" d="M136.496 9.22087C136.496 9.88125 135.959 10.4175 135.297 10.4175C134.635 10.4175 134.097 9.88125 134.097 9.22087C134.097 8.56049 134.635 8.02429 135.297 8.02429C135.959 8.02429 136.496 8.56049 136.496 9.22087Z" fill="white"/>
<defs>
<linearGradient id="paint0_linear_97_2853" x1="0" y1="32.2945" x2="152.801" y2="32.2945" gradientUnits="userSpaceOnUse">
<stop stop-color="#2E8100"/>
<stop offset="0.5" stop-color="#7BB61A"/>
<stop offset="1" stop-color="#2E8100"/>
</linearGradient>
<linearGradient id="paint1_linear_97_2853" x1="76.4005" y1="58.5948" x2="76.4005" y2="0" gradientUnits="userSpaceOnUse">
<stop stop-color="#6EAF19"/>
<stop offset="1" stop-color="#BCFF32"/>
</linearGradient>
<linearGradient id="paint2_linear_97_2853" x1="76.4005" y1="58.5948" x2="76.4005" y2="0" gradientUnits="userSpaceOnUse">
<stop stop-color="#5C9900"/>
<stop offset="0.21" stop-color="#70AE0A"/>
<stop offset="1" stop-color="#BCFF32"/>
</linearGradient>
<linearGradient id="paint3_linear_97_2853" x1="41.9916" y1="1.49949" x2="110.809" y2="1.49949" gradientUnits="userSpaceOnUse">
<stop stop-color="#D9FFBE"/>
<stop offset="0.5" stop-color="#D9FFBE"/>
<stop offset="1" stop-color="#D9FFBE"/>
</linearGradient>
<linearGradient id="paint4_linear_97_2853" x1="31.2759" y1="57.0953" x2="121.525" y2="57.0953" gradientUnits="userSpaceOnUse">
<stop stop-color="#D9FFBE"/>
<stop offset="0.5" stop-color="#D9FFBE"/>
<stop offset="1" stop-color="#D9FFBE"/>
</linearGradient>
</defs>
</svg>
