<svg width="151" height="56" viewBox="0 0 151 56" fill="none" xmlns="http://www.w3.org/2000/svg">
<path opacity="0.3" d="M150.121 28.4994H149.636C149.491 28.1118 149.325 27.7298 149.113 27.3649L138.392 8.84233C137.051 6.52442 134.57 5.09644 131.886 5.09644H18.2343C15.5502 5.09644 13.0698 6.52442 11.7287 8.84233L1.00726 27.3649C0.795996 27.7298 0.630006 28.1118 0.484765 28.4994H0V31.1108C0 32.4052 0.335752 33.6996 1.00726 34.8585L10.7139 51.6276C12.2795 54.3331 15.1749 56 18.306 56H131.817C134.95 56 137.843 54.3331 139.409 51.6276L149.115 34.8585C149.787 33.6996 150.123 32.4052 150.123 31.1108V28.4994H150.121Z" fill="black"/>
<path d="M150.121 26.4448H149.636C149.491 26.0572 149.325 25.6753 149.113 25.3103L138.392 6.78777C137.051 4.46987 134.57 3.04187 131.886 3.04187H18.2343C15.5502 3.04187 13.0698 4.46987 11.7287 6.78777L1.00726 25.3103C0.795996 25.6753 0.630006 26.0572 0.484765 26.4448H0V29.0562C0 30.3506 0.335752 31.645 1.00726 32.804L10.7139 49.573C12.2795 52.2785 15.1749 53.9454 18.306 53.9454H131.817C134.95 53.9454 137.843 52.2785 139.409 49.573L149.115 32.804C149.787 31.645 150.123 30.3506 150.123 29.0562V26.4448H150.121Z" fill="#AD5E28"/>
<path d="M131.887 0.428589H18.2348C15.5506 0.428589 13.0702 1.85658 11.7291 4.17448L1.00767 22.697C-0.333449 25.0149 -0.333449 27.8728 1.00767 30.1907L11.7291 48.7132C13.0702 51.0311 15.5506 52.4591 18.2348 52.4591H131.887C134.571 52.4591 137.051 51.0311 138.392 48.7132L149.114 30.1907C150.455 27.8728 150.455 25.0149 149.114 22.697L138.392 4.17448C137.051 1.85658 134.571 0.428589 131.887 0.428589Z" fill="url(#paint0_linear_97_2774)"/>
<path opacity="0.1" d="M11.7287 48.7151C13.0698 51.033 15.5502 52.461 18.2343 52.461H131.886C134.57 52.461 137.051 51.033 138.392 48.7151L149.113 30.1926C149.785 29.0336 150.121 27.7392 150.121 26.4467H0C0 27.7411 0.335752 29.0336 1.00726 30.1926L11.7287 48.7151Z" fill="url(#paint1_linear_97_2774)"/>
<defs>
<linearGradient id="paint0_linear_97_2774" x1="75.0617" y1="52.461" x2="75.0617" y2="0.428589" gradientUnits="userSpaceOnUse">
<stop stop-color="#FFAB25"/>
<stop offset="1" stop-color="#D87830"/>
</linearGradient>
<linearGradient id="paint1_linear_97_2774" x1="75.0613" y1="-167.234" x2="75.0613" y2="-167.234" gradientUnits="userSpaceOnUse">
<stop stop-color="white"/>
<stop offset="0.14" stop-color="white"/>
<stop offset="1" stop-color="white"/>
</linearGradient>
</defs>
</svg>
