<svg width="153" height="55" viewBox="0 0 153 55" fill="none" xmlns="http://www.w3.org/2000/svg">
<path opacity="0.3" d="M144.732 4.25769H7.49783C3.35689 4.25769 0 7.60599 0 11.7363V46.6723C0 50.8027 3.35689 54.151 7.49783 54.151H144.732C148.873 54.151 152.23 50.8027 152.23 46.6723V11.7363C152.23 7.60599 148.873 4.25769 144.732 4.25769Z" fill="black"/>
<path d="M144.732 2.32361H7.49783C3.35689 2.32361 0 5.6719 0 9.80223V44.7382C0 48.8686 3.35689 52.2169 7.49783 52.2169H144.732C148.873 52.2169 152.23 48.8686 152.23 44.7382V9.80223C152.23 5.6719 148.873 2.32361 144.732 2.32361Z" fill="#223038"/>
<path d="M144.732 0.0020752H7.49783C3.35689 0.0020752 0 3.35037 0 7.4807V42.4167C0 46.547 3.35689 49.8953 7.49783 49.8953H144.732C148.873 49.8953 152.23 46.547 152.23 42.4167V7.4807C152.23 3.35037 148.873 0.0020752 144.732 0.0020752Z" fill="url(#paint0_radial_97_2838)"/>
<path opacity="0.1" d="M87.635 0.00188325H7.49783C3.35563 0.00188325 0 3.3508 0 7.48051V42.4146C0 46.5462 3.35752 49.8933 7.49783 49.8933H36.5819L87.6331 0L87.635 0.00188325Z" fill="url(#paint1_linear_97_2838)"/>
<path d="M140.457 48.3956H11.7702V49.8951H140.457V48.3956Z" fill="url(#paint2_linear_97_2838)"/>
<path opacity="0.5" d="M140.457 0.00183105H11.7702V1.50132H140.457V0.00183105Z" fill="url(#paint3_linear_97_2838)"/>
<defs>
<radialGradient id="paint0_radial_97_2838" cx="0" cy="0" r="1" gradientUnits="userSpaceOnUse" gradientTransform="translate(76.3949 24.9496) scale(56.842 56.6964)">
<stop stop-color="#3E586D"/>
<stop offset="1" stop-color="#2E424F"/>
</radialGradient>
<linearGradient id="paint1_linear_97_2838" x1="43.8175" y1="49.8951" x2="43.8175" y2="0.00187949" gradientUnits="userSpaceOnUse">
<stop stop-color="white"/>
<stop offset="1" stop-color="white"/>
</linearGradient>
<linearGradient id="paint2_linear_97_2838" x1="11.7702" y1="49.1463" x2="140.457" y2="49.1463" gradientUnits="userSpaceOnUse">
<stop stop-color="white"/>
<stop offset="0.43" stop-color="white"/>
<stop offset="0.5" stop-color="white"/>
<stop offset="0.55" stop-color="white"/>
<stop offset="1" stop-color="white"/>
</linearGradient>
<linearGradient id="paint3_linear_97_2838" x1="-0.286685" y1="0.752516" x2="-0.0980606" y2="0.752516" gradientUnits="userSpaceOnUse">
<stop stop-color="white"/>
<stop offset="0.43" stop-color="white"/>
<stop offset="0.5" stop-color="white"/>
<stop offset="0.55" stop-color="white"/>
<stop offset="1" stop-color="white"/>
</linearGradient>
</defs>
</svg>
