<svg width="151" height="56" viewBox="0 0 151 56" fill="none" xmlns="http://www.w3.org/2000/svg">
<path opacity="0.3" d="M150.123 28.0708H149.638C149.493 27.6832 149.327 27.3013 149.115 26.9363L138.394 8.41374C137.053 6.09584 134.572 4.66785 131.888 4.66785H18.2362C15.552 4.66785 13.0716 6.09584 11.7305 8.41374L1.00908 26.9363C0.797821 27.3013 0.631839 27.6832 0.486598 28.0708H0.00183105V30.6822C0.00183105 31.9766 0.337577 33.271 1.00908 34.43L10.7157 51.199C12.2813 53.9045 15.1767 55.5714 18.3079 55.5714H131.818C134.951 55.5714 137.845 53.9045 139.411 51.199L149.117 34.43C149.789 33.271 150.124 31.9766 150.124 30.6822V28.0708H150.123Z" fill="black"/>
<path d="M150.123 26.0162H149.638C149.493 25.6286 149.327 25.2467 149.115 24.8817L138.394 6.35919C137.053 4.04128 134.572 2.61328 131.888 2.61328H18.2362C15.552 2.61328 13.0716 4.04128 11.7305 6.35919L1.00908 24.8817C0.797821 25.2467 0.631839 25.6286 0.486598 26.0162H0.00183105V28.6276C0.00183105 29.922 0.337577 31.2164 1.00908 32.3754L10.7157 49.1444C12.2813 51.8499 15.1767 53.5169 18.3079 53.5169H131.818C134.951 53.5169 137.845 51.8499 139.411 49.1444L149.117 32.3754C149.789 31.2164 150.124 29.922 150.124 28.6276V26.0162H150.123Z" fill="#D18313"/>
<path d="M131.889 0H18.2366C15.5525 0 13.0721 1.42799 11.7309 3.74589L1.0095 22.2684C-0.331618 24.5863 -0.331618 27.4442 1.0095 29.7621L11.7309 48.2846C13.0721 50.6026 15.5525 52.0305 18.2366 52.0305H131.889C134.573 52.0305 137.053 50.6026 138.394 48.2846L149.116 29.7621C150.457 27.4442 150.457 24.5863 149.116 22.2684L138.394 3.74589C137.053 1.42799 134.573 0 131.889 0Z" fill="url(#paint0_linear_97_2795)"/>
<path opacity="0.1" d="M11.7287 48.2865C13.0698 50.6044 15.5502 52.0324 18.2343 52.0324H131.886C134.57 52.0324 137.051 50.6044 138.392 48.2865L149.113 29.764C149.785 28.605 150.121 27.3106 150.121 26.0181H0C0 27.3125 0.335745 28.605 1.00725 29.764L11.7287 48.2865Z" fill="url(#paint1_linear_97_2795)"/>
<path d="M131.889 2.99709C133.494 2.99709 134.99 3.85878 135.793 5.24539L146.515 23.7679C147.318 25.1545 147.318 26.8779 146.515 28.2645L135.793 46.787C134.99 48.1736 133.494 49.0353 131.889 49.0353H18.2366C16.6314 49.0353 15.1356 48.1736 14.3321 46.787L3.61064 28.2645C2.8071 26.8779 2.8071 25.1545 3.61064 23.7679L14.3321 5.24539C15.1356 3.85878 16.6314 2.99709 18.2366 2.99709H131.889ZM131.889 0H18.2366C15.5525 0 13.0721 1.42799 11.7309 3.74589L1.0095 22.2684C-0.331618 24.5863 -0.331618 27.4442 1.0095 29.7621L11.7309 48.2846C13.0721 50.6026 15.5525 52.0305 18.2366 52.0305H131.889C134.573 52.0305 137.053 50.6026 138.394 48.2846L149.116 29.7621C150.457 27.4442 150.457 24.5863 149.116 22.2684L138.394 3.74589C137.053 1.42799 134.573 0 131.889 0Z" fill="url(#paint2_linear_97_2795)"/>
<defs>
<linearGradient id="paint0_linear_97_2795" x1="75.0617" y1="52.0324" x2="75.0617" y2="0" gradientUnits="userSpaceOnUse">
<stop stop-color="#F1C40F"/>
<stop offset="0.34" stop-color="#F1BA0F"/>
<stop offset="0.92" stop-color="#F29F11"/>
<stop offset="1" stop-color="#F39C12"/>
</linearGradient>
<linearGradient id="paint1_linear_97_2795" x1="75.0613" y1="52.0324" x2="75.0613" y2="26.0162" gradientUnits="userSpaceOnUse">
<stop stop-color="white"/>
<stop offset="0.14" stop-color="white"/>
<stop offset="1" stop-color="white"/>
</linearGradient>
<linearGradient id="paint2_linear_97_2795" x1="75.0617" y1="52.0324" x2="75.0617" y2="0" gradientUnits="userSpaceOnUse">
<stop stop-color="#F39C12"/>
<stop offset="0.08" stop-color="#F29F11"/>
<stop offset="0.66" stop-color="#F1BA0F"/>
<stop offset="1" stop-color="#F1C40F"/>
</linearGradient>
</defs>
</svg>
