<svg width="150" height="56" viewBox="0 0 150 56" fill="none" xmlns="http://www.w3.org/2000/svg">
<path opacity="0.3" d="M149.765 33.1223L149.224 33.4121C149.015 32.8796 148.758 32.3566 148.417 31.8524C143.143 24.0953 137.522 16.5301 132.565 8.59618C131.144 6.32343 128.654 4.93872 125.968 4.93872H8.33635C4.08852 4.93872 0.627261 8.33655 0.559356 12.5716C0.372618 24.195 0.185879 35.8184 0.00102728 47.4418C-0.0725363 52.0155 3.81502 55.6635 8.38539 55.3004C52.6254 51.7878 98.2745 47.4926 142.603 43.9311C146.753 43.598 149.567 40.2265 149.746 36.5502L149.756 36.5559L149.765 33.1242V33.1223Z" fill="black"/>
<path d="M149.765 31.1656L149.224 31.4554C149.015 30.9229 148.758 30.3999 148.417 29.8957C143.143 22.1386 137.522 14.5734 132.565 6.63952C131.144 4.36677 128.654 2.98206 125.968 2.98206H8.33635C4.08852 2.98206 0.627261 6.37988 0.559356 10.6149C0.372618 22.2383 0.185879 33.8617 0.00102728 45.4851C-0.0725363 50.0588 3.81502 53.7069 8.38539 53.3438C52.6254 49.8312 98.2745 45.5359 142.603 41.9744C146.753 41.6414 149.567 38.2699 149.746 34.5936L149.756 34.5992L149.765 31.1675V31.1656Z" fill="#49312C"/>
<path d="M8.33654 0H125.969C128.655 0 131.144 1.38471 132.565 3.65746C137.524 11.5895 143.143 19.1566 148.417 26.9136C149.328 28.2532 149.75 29.7245 149.765 31.1637C149.803 35.0112 146.923 38.6443 142.605 38.9923C98.2765 42.5539 52.6256 46.8491 8.38747 50.3617C3.81709 50.7248 -0.0704611 47.0749 0.00310247 42.503C0.189841 30.8797 0.376579 19.2563 0.561431 7.63289C0.629336 3.39783 4.0906 0 8.33843 0H8.33654Z" fill="url(#paint0_radial_97_2815)"/>
<path opacity="0.1" d="M53.0762 46.6365C82.9695 44.0609 113.076 41.3667 142.603 38.9942C146.921 38.648 149.803 35.0131 149.763 31.1656C149.748 29.7245 149.326 28.2532 148.415 26.9136C143.141 19.1566 137.52 11.5914 132.563 3.65746C131.142 1.38471 128.652 0 125.966 0H93.7022L53.0743 46.6346L53.0762 46.6365Z" fill="url(#paint1_linear_97_2815)"/>
<path opacity="0.4" d="M121.183 0H12.2446V1.49948H121.183V0Z" fill="url(#paint2_linear_97_2815)"/>
<defs>
<radialGradient id="paint0_radial_97_2815" cx="0" cy="0" r="1" gradientUnits="userSpaceOnUse" gradientTransform="translate(74.8833 25.194) scale(55.8819 55.7388)">
<stop stop-color="#A36841"/>
<stop offset="0.27" stop-color="#96603F"/>
<stop offset="0.75" stop-color="#764E3C"/>
<stop offset="1" stop-color="#63433B"/>
</radialGradient>
<linearGradient id="paint1_linear_97_2815" x1="101.421" y1="46.6365" x2="101.421" y2="0" gradientUnits="userSpaceOnUse">
<stop stop-color="white"/>
<stop offset="1" stop-color="white"/>
</linearGradient>
<linearGradient id="paint2_linear_97_2815" x1="12.2446" y1="0.750683" x2="121.181" y2="0.750683" gradientUnits="userSpaceOnUse">
<stop stop-color="white"/>
<stop offset="0.43" stop-color="white"/>
<stop offset="0.5" stop-color="white"/>
<stop offset="0.55" stop-color="white"/>
<stop offset="1" stop-color="white"/>
</linearGradient>
</defs>
</svg>
