<svg width="125" height="47" viewBox="0 0 125 47" fill="none" xmlns="http://www.w3.org/2000/svg">
<g filter="url(#filter0_d_120_1798)">
<path d="M5.39615 33.2698C8.27959 39.6541 111.26 41.4435 117.201 34.8074C122.588 28.7828 120.37 7.20194 115.791 2.89477C109.454 -2.96803 14.2842 1.15032 9.19853 5.76322C4.4456 10.0704 2.41765 26.6517 5.39615 33.2698Z" fill="url(#paint0_radial_120_1798)"/>
<path d="M5.63254 32.1459C8.50014 38.2964 111.068 38.737 116.978 32.3347C122.349 26.5259 120.241 7.30093 115.647 3.15562C109.389 -2.50036 14.3937 1.46513 9.32391 5.91617C4.60267 10.0705 2.65404 25.7615 5.63254 32.1459Z" fill="url(#paint1_linear_120_1798)"/>
<path d="M6.49068 31.5973C9.29491 37.568 110.374 37.9907 116.157 31.7862C121.416 26.1482 119.325 7.50773 114.858 3.47032C108.726 -2.0238 15.0459 1.83377 10.1187 6.16792C5.49253 10.1784 3.5914 25.4108 6.49068 31.5973Z" fill="url(#paint2_linear_120_1798)"/>
<path style="mix-blend-mode:screen" d="M114.779 32.9031C114.779 32.9031 49.8223 38.8288 10.0562 33.5955C10.0562 33.5955 35.9279 35.9874 47.4458 33.5955C66.9803 29.5491 109.662 28.3441 114.779 32.9031Z" fill="url(#paint3_linear_120_1798)"/>
<path style="mix-blend-mode:screen" d="M28.671 11.3383C29.0717 11.3244 29.4707 11.3784 29.8174 11.4933C30.164 11.6082 30.4428 11.779 30.6183 11.9839C30.7939 12.1888 30.8583 12.4187 30.8034 12.6444C30.7486 12.8701 30.5769 13.0815 30.3102 13.2518C30.0434 13.4221 29.6937 13.5437 29.3052 13.6011C28.9167 13.6584 28.5069 13.6491 28.1278 13.5742C27.7486 13.4992 27.4171 13.3621 27.1754 13.1802C26.9337 12.9983 26.7925 12.7797 26.7698 12.5523C26.7395 12.2483 26.9226 11.95 27.2789 11.7225C27.6352 11.495 28.1357 11.3569 28.671 11.3383Z" fill="url(#paint4_radial_120_1798)"/>
<path d="M28.8602 12.1656C28.9343 12.1619 29.0089 12.1668 29.0796 12.1798C29.1504 12.1929 29.2159 12.2138 29.272 12.2415C29.3282 12.2692 29.374 12.303 29.4066 12.341C29.4393 12.3789 29.4582 12.4202 29.4621 12.4624C29.4397 12.5378 29.3709 12.6063 29.268 12.6558C29.165 12.7052 29.0346 12.7323 28.8998 12.7323C28.765 12.7323 28.6345 12.7052 28.5315 12.6558C28.4286 12.6063 28.3598 12.5378 28.3374 12.4624C28.345 12.3851 28.4025 12.3121 28.499 12.2573C28.5954 12.2026 28.724 12.1699 28.8602 12.1656Z" fill="#FFFFAB"/>
<path style="mix-blend-mode:screen" d="M31.4119 6.41971C31.6761 6.41086 31.9409 6.43163 32.191 6.48084C32.4411 6.53005 32.6716 6.60672 32.8695 6.7065C33.0673 6.80628 33.2287 6.92721 33.3442 7.06237C33.4598 7.19754 33.5273 7.34429 33.5429 7.49426C33.5585 7.64423 33.5218 7.79447 33.4351 7.93641C33.3484 8.07835 33.2133 8.2092 33.0375 8.3215C32.8617 8.43381 32.6487 8.52536 32.4105 8.59094C32.1724 8.65651 31.9138 8.69482 31.6496 8.70368C31.116 8.72156 30.5917 8.61839 30.1921 8.41688C29.7924 8.21536 29.5502 7.932 29.5186 7.62913C29.4871 7.32626 29.6689 7.02868 30.024 6.80187C30.379 6.57506 30.8783 6.4376 31.4119 6.41971Z" fill="url(#paint5_radial_120_1798)"/>
<path d="M31.6483 7.23799C31.7971 7.23301 31.9434 7.26126 32.0559 7.31672C32.1685 7.37218 32.2383 7.45044 32.2504 7.53474C32.2592 7.61917 32.2094 7.7022 32.1116 7.76606C32.0139 7.82993 31.8761 7.86954 31.7275 7.87644C31.6526 7.87887 31.5776 7.87288 31.5068 7.85882C31.4359 7.84476 31.3706 7.8229 31.3147 7.79449C31.2588 7.76609 31.2132 7.7317 31.1808 7.6933C31.1483 7.6549 31.1295 7.61324 31.1255 7.5707C31.1212 7.52936 31.1314 7.48793 31.1553 7.44882C31.1793 7.4097 31.2166 7.37366 31.2652 7.34275C31.3138 7.31184 31.3727 7.28667 31.4384 7.2687C31.5041 7.25072 31.5755 7.24028 31.6483 7.23799Z" fill="#FFFFAB"/>
<path style="mix-blend-mode:screen" d="M29.7965 20.5551C30.1972 20.5412 30.5961 20.5952 30.9428 20.7101C31.2894 20.825 31.5682 20.9958 31.7437 21.2007C31.9193 21.4056 31.9838 21.6355 31.9289 21.8612C31.8741 22.0869 31.7024 22.2983 31.4357 22.4686C31.1689 22.6389 30.8192 22.7605 30.4307 22.8178C30.0422 22.8752 29.6323 22.8658 29.2532 22.7909C28.874 22.716 28.5426 22.5789 28.3009 22.397C28.0592 22.2151 27.918 21.9965 27.8953 21.769C27.865 21.4651 28.048 21.1668 28.4043 20.9393C28.7606 20.7118 29.2612 20.5737 29.7965 20.5551Z" fill="url(#paint6_radial_120_1798)"/>
<path d="M30.0331 21.3645C30.1818 21.3595 30.3282 21.3877 30.4407 21.4432C30.5532 21.4987 30.623 21.5769 30.6351 21.6612C30.6394 21.7033 30.6288 21.7454 30.6038 21.7851C30.5788 21.8248 30.5401 21.8612 30.4899 21.8922C30.4397 21.9233 30.3789 21.9483 30.3113 21.9657C30.2437 21.9832 30.1707 21.9928 30.0965 21.9939C30.0232 21.9976 29.9493 21.9927 29.8794 21.9796C29.8096 21.9665 29.7451 21.9453 29.6902 21.9175C29.6353 21.8897 29.591 21.8558 29.56 21.8179C29.5291 21.78 29.5121 21.7389 29.5102 21.6972C29.5059 21.6558 29.5161 21.6144 29.5401 21.5753C29.5641 21.5362 29.6014 21.5001 29.65 21.4692C29.6985 21.4383 29.7574 21.4131 29.8231 21.3952C29.8889 21.3772 29.9602 21.3667 30.0331 21.3645Z" fill="#FFFFAB"/>
<path style="mix-blend-mode:screen" d="M20.2892 3.89295C21.4056 3.855 22.5168 4.00577 23.4823 4.3262C24.4478 4.64663 25.2243 5.12234 25.7135 5.69318C26.2028 6.26402 26.3828 6.90437 26.231 7.53328C26.0791 8.16219 25.6021 8.75144 24.8603 9.22651C24.1184 9.70159 23.145 10.0412 22.0632 10.2023C20.9814 10.3635 19.8397 10.339 18.7824 10.1319C17.7251 9.92489 16.7998 9.54457 16.1233 9.03906C15.4468 8.53356 15.0495 7.92556 14.9817 7.29193C14.895 6.44224 15.4047 5.60763 16.3993 4.97066C17.3939 4.33369 18.7925 3.94621 20.2892 3.89295Z" fill="url(#paint7_radial_120_1798)"/>
<path d="M20.9389 6.16801C21.2526 6.15577 21.5656 6.19678 21.8381 6.28584C22.1106 6.37489 22.3303 6.50794 22.4691 6.66807C22.6079 6.8282 22.6597 7.00817 22.6177 7.18505C22.5758 7.36193 22.442 7.52771 22.2336 7.66131C22.0251 7.79492 21.7513 7.89029 21.447 7.93528C21.1428 7.98027 20.8218 7.97286 20.5249 7.91397C20.2281 7.85509 19.9689 7.74739 19.7802 7.60461C19.5915 7.46182 19.482 7.29042 19.4656 7.11219C19.4438 6.87657 19.5861 6.64553 19.8617 6.4689C20.1373 6.29227 20.5242 6.18421 20.9389 6.16801Z" fill="#FFFFAB"/>
<path style="mix-blend-mode:screen" d="M36.4187 28.3962C36.9502 28.3789 37.4786 28.4515 37.9375 28.6046C38.3963 28.7578 38.7649 28.9846 38.9967 29.2566C39.2285 29.5286 39.3131 29.8334 39.2399 30.1326C39.1666 30.4319 38.9389 30.7121 38.5852 30.9379C38.2316 31.1637 37.768 31.325 37.253 31.4013C36.738 31.4777 36.1947 31.4657 35.6917 31.367C35.1886 31.2682 34.7484 31.087 34.4267 30.8463C34.1049 30.6057 33.916 30.3163 33.8838 30.0147C33.8624 29.8139 33.911 29.6127 34.0269 29.4225C34.1428 29.2324 34.3238 29.0571 34.5593 28.9067C34.7948 28.7564 35.0802 28.6339 35.3993 28.5463C35.7184 28.4586 36.0649 28.4076 36.4187 28.3962Z" fill="url(#paint8_radial_120_1798)"/>
<path d="M36.7811 29.4932C36.8789 29.4896 36.977 29.4969 37.0698 29.5148C37.1626 29.5328 37.2483 29.5609 37.3219 29.5977C37.3955 29.6344 37.4556 29.6791 37.4987 29.729C37.5419 29.779 37.5671 29.8333 37.5732 29.8889C37.5818 29.9447 37.5705 30.0009 37.5397 30.0541C37.509 30.1073 37.4595 30.1564 37.3943 30.1984C37.3291 30.2405 37.2496 30.2745 37.1605 30.2986C37.0714 30.3227 36.9747 30.3363 36.8761 30.3385C36.6787 30.3456 36.4843 30.308 36.3357 30.2338C36.1872 30.1596 36.0966 30.0549 36.084 29.9428C36.0714 29.8307 36.1378 29.7204 36.2685 29.6361C36.3992 29.5518 36.5836 29.5004 36.7811 29.4932Z" fill="#FFFFAB"/>
<path style="mix-blend-mode:screen" d="M12.4316 32.4426C12.6973 32.434 12.9616 32.4703 13.191 32.5469C13.4204 32.6235 13.6047 32.7369 13.7206 32.8729C13.8365 33.0088 13.8789 33.1613 13.8423 33.3109C13.8057 33.4605 13.6917 33.6006 13.5149 33.7135C13.338 33.8264 13.1063 33.9071 12.8488 33.9452C12.5913 33.9834 12.3195 33.9774 12.068 33.928C11.8165 33.8787 11.5965 33.7881 11.4356 33.6677C11.2747 33.5474 11.1802 33.4027 11.1641 33.2519C11.1513 33.1513 11.174 33.0501 11.2312 32.9545C11.2883 32.859 11.3786 32.7708 11.4968 32.6954C11.615 32.62 11.7585 32.5587 11.9191 32.5153C12.0797 32.4719 12.2539 32.4472 12.4316 32.4426Z" fill="url(#paint9_radial_120_1798)"/>
<path d="M12.5898 32.9912C12.639 32.9887 12.6885 32.9919 12.7354 33.0006C12.7822 33.0094 12.8255 33.0234 12.8625 33.0419C12.8995 33.0604 12.9296 33.083 12.9508 33.1083C12.972 33.1335 12.9839 33.161 12.9859 33.189C12.9974 33.2204 12.9964 33.2528 12.983 33.2839C12.9696 33.3151 12.9442 33.3442 12.9085 33.369C12.8729 33.3939 12.8279 33.4139 12.7769 33.4277C12.7259 33.4414 12.6701 33.4486 12.6136 33.4486C12.5571 33.4486 12.5014 33.4414 12.4504 33.4277C12.3994 33.4139 12.3543 33.3939 12.3187 33.369C12.283 33.3442 12.2576 33.3151 12.2442 33.2839C12.2308 33.2528 12.2299 33.2204 12.2413 33.189C12.2486 33.1379 12.2876 33.0899 12.3515 33.0537C12.4153 33.0174 12.4998 32.9953 12.5898 32.9912Z" fill="#FFFFAB"/>
<path style="mix-blend-mode:screen" d="M50.3768 19.2873C50.6425 19.2786 50.9068 19.3149 51.1362 19.3915C51.3656 19.4681 51.5499 19.5815 51.6658 19.7175C51.7817 19.8535 51.824 20.0059 51.7874 20.1555C51.7507 20.3051 51.6369 20.4452 51.46 20.5581C51.2832 20.671 51.0515 20.7517 50.794 20.7899C50.5365 20.828 50.2648 20.8221 50.0132 20.7727C49.7617 20.7233 49.5416 20.6327 49.3807 20.5124C49.2199 20.392 49.1255 20.2473 49.1094 20.0966C49.0987 19.9961 49.1229 19.8955 49.1809 19.8004C49.2388 19.7054 49.3293 19.6177 49.4471 19.5426C49.5648 19.4674 49.7076 19.4061 49.8671 19.3623C50.0267 19.3185 50.1999 19.293 50.3768 19.2873Z" fill="url(#paint10_radial_120_1798)"/>
<path d="M50.5355 19.8359C50.5846 19.8334 50.6342 19.8367 50.681 19.8454C50.7279 19.8541 50.7712 19.8681 50.8082 19.8866C50.8453 19.9051 50.8753 19.9277 50.8965 19.953C50.9177 19.9783 50.9297 20.0057 50.9316 20.0337C50.9379 20.0766 50.9214 20.1195 50.8843 20.1571C50.8472 20.1946 50.7911 20.225 50.7234 20.2443C50.6557 20.2636 50.5794 20.271 50.5042 20.2655C50.429 20.26 50.3584 20.2419 50.3014 20.2135C50.2445 20.1851 50.2039 20.1476 50.1847 20.106C50.1656 20.0644 50.1687 20.0204 50.1939 19.9799C50.2191 19.9393 50.265 19.9039 50.3259 19.8782C50.3868 19.8526 50.4597 19.8378 50.5355 19.8359Z" fill="#FFFFAB"/>
<path style="mix-blend-mode:screen" d="M31.6482 31.3454C31.789 31.3319 31.9332 31.3355 32.0714 31.3558C32.2096 31.3761 32.3386 31.4127 32.4501 31.4633C32.5617 31.5139 32.6531 31.5772 32.7185 31.6493C32.7839 31.7213 32.8217 31.8003 32.8296 31.8812C32.8375 31.9621 32.8152 32.0431 32.7641 32.1187C32.7131 32.1944 32.6345 32.2631 32.5334 32.3203C32.4324 32.3775 32.3111 32.422 32.1776 32.4508C32.0442 32.4796 31.9016 32.4921 31.7591 32.4874C31.628 32.4923 31.4964 32.4824 31.372 32.4584C31.2476 32.4344 31.1328 32.3966 31.0341 32.3473C30.9355 32.298 30.8551 32.2381 30.7973 32.1712C30.7396 32.1042 30.7056 32.0313 30.6975 31.9569C30.6844 31.8048 30.7764 31.6558 30.954 31.5415C31.1315 31.4273 31.3806 31.357 31.6482 31.3454Z" fill="url(#paint11_radial_120_1798)"/>
<path d="M31.7604 31.7233C31.7979 31.7221 31.8353 31.7251 31.8708 31.7321C31.9062 31.7391 31.9388 31.7501 31.9668 31.7643C31.9948 31.7785 32.0176 31.7957 32.0338 31.8149C32.0501 31.8341 32.0595 31.8549 32.0615 31.8762C32.0465 31.9115 32.011 31.9429 31.9607 31.9654C31.9104 31.9879 31.8481 32.0001 31.7841 32.0001C31.7201 32.0001 31.6579 31.9879 31.6076 31.9654C31.5573 31.9429 31.5218 31.9115 31.5068 31.8762C31.5102 31.8377 31.5376 31.8012 31.584 31.7732C31.6305 31.7452 31.693 31.7275 31.7604 31.7233Z" fill="#FFFFAB"/>
<path style="mix-blend-mode:screen" d="M47.4132 33.2339C48.577 33.2339 49.5204 32.6985 49.5204 32.038C49.5204 31.3775 48.577 30.842 47.4132 30.842C46.2495 30.842 45.3062 31.3775 45.3062 32.038C45.3062 32.6985 46.2495 33.2339 47.4132 33.2339Z" fill="url(#paint12_radial_120_1798)"/>
<path d="M47.5388 31.7053C47.6918 31.7003 47.8422 31.7295 47.9577 31.7867C48.0731 31.8438 48.1446 31.9244 48.1568 32.011C48.1633 32.055 48.1538 32.0993 48.1291 32.1411C48.1044 32.183 48.0648 32.2215 48.0129 32.2543C47.9609 32.2872 47.8977 32.3136 47.8271 32.3321C47.7565 32.3506 47.68 32.3607 47.6023 32.3617C47.5183 32.3696 47.4323 32.3671 47.3503 32.3542C47.2682 32.3414 47.1921 32.3186 47.1272 32.2873C47.0622 32.2561 47.01 32.2172 46.9743 32.1734C46.9385 32.1295 46.9199 32.0818 46.9199 32.0335C46.9199 31.9852 46.9385 31.9375 46.9743 31.8937C47.01 31.8498 47.0622 31.811 47.1272 31.7797C47.1921 31.7485 47.2682 31.7256 47.3503 31.7128C47.4323 31.6999 47.5183 31.6974 47.6023 31.7053H47.5388Z" fill="#FFFFAB"/>
<path d="M25.711 12.757C26.015 12.9977 26.1987 13.2067 26.262 13.384C26.338 13.5613 26.376 13.707 26.376 13.821C26.376 14.0743 26.3 14.3467 26.148 14.638C26.0087 14.9167 25.8313 15.1573 25.616 15.36C25.4007 15.55 25.1853 15.645 24.97 15.645C24.818 15.645 24.666 15.6007 24.514 15.512C24.3747 15.4233 24.1783 15.284 23.925 15.094C23.811 14.9927 23.6463 14.885 23.431 14.771C23.2157 14.6443 22.9497 14.5367 22.633 14.448C22.329 14.3593 21.9553 14.315 21.512 14.315C21.0813 14.315 20.6253 14.41 20.144 14.6C19.6753 14.79 19.232 15.0877 18.814 15.493C18.396 15.8983 18.054 16.4113 17.788 17.032C17.5347 17.64 17.408 18.3747 17.408 19.236C17.408 19.9833 17.4967 20.6103 17.674 21.117C17.864 21.611 18.111 22.0037 18.415 22.295C18.719 22.5863 19.0547 22.7953 19.422 22.922C19.802 23.036 20.1883 23.093 20.581 23.093C21.037 23.093 21.4613 23.0297 21.854 22.903C22.2467 22.7763 22.6267 22.5927 22.994 22.352C23.3613 22.0987 23.7223 21.7947 24.077 21.44C24.1783 21.3387 24.2797 21.2753 24.381 21.25C24.495 21.212 24.5963 21.193 24.685 21.193C24.951 21.193 25.2107 21.3007 25.464 21.516C25.7173 21.7313 25.9263 21.9783 26.091 22.257C26.2557 22.5357 26.338 22.7827 26.338 22.998C26.338 23.2767 26.2873 23.5047 26.186 23.682C26.0847 23.8593 25.9453 24.0177 25.768 24.157C24.9193 24.8917 24.0517 25.43 23.165 25.772C22.291 26.114 21.3473 26.285 20.334 26.285C19.2447 26.285 18.2883 26.095 17.465 25.715C16.6417 25.3223 15.9513 24.7967 15.394 24.138C14.8493 23.4793 14.4377 22.7383 14.159 21.915C13.8803 21.0917 13.741 20.2367 13.741 19.35C13.741 18.3113 13.9247 17.3107 14.292 16.348C14.672 15.3853 15.1977 14.5303 15.869 13.783C16.5403 13.023 17.332 12.4213 18.244 11.978C19.1687 11.5347 20.1693 11.313 21.246 11.313C21.8033 11.313 22.348 11.37 22.88 11.484C23.412 11.598 23.9187 11.7627 24.4 11.978C24.8813 12.1933 25.3183 12.453 25.711 12.757ZM28.3763 12.32C28.4017 11.8767 28.5853 11.579 28.9273 11.427C29.282 11.275 29.6747 11.199 30.1053 11.199C30.4347 11.199 30.745 11.2307 31.0363 11.294C31.3403 11.3573 31.581 11.4713 31.7583 11.636C31.9483 11.8007 32.0307 12.0287 32.0053 12.32C31.942 13.2953 31.8913 14.277 31.8533 15.265C31.8153 16.2403 31.79 17.241 31.7773 18.267C31.7647 19.293 31.752 20.3697 31.7393 21.497C31.7393 22.6117 31.7393 23.796 31.7393 25.05C31.7393 25.4807 31.543 25.7783 31.1503 25.943C30.7577 26.1077 30.3143 26.19 29.8203 26.19C29.3897 26.19 28.997 26.1077 28.6423 25.943C28.2877 25.7783 28.104 25.4807 28.0913 25.05C28.0787 24.2647 28.0723 23.378 28.0723 22.39C28.085 21.3893 28.104 20.3253 28.1293 19.198C28.1547 18.0707 28.1863 16.9243 28.2243 15.759C28.275 14.581 28.3257 13.4347 28.3763 12.32ZM29.7633 19.806C29.3327 19.8187 29.035 19.673 28.8703 19.369C28.7057 19.065 28.6233 18.7103 28.6233 18.305C28.6233 17.9123 28.7057 17.5703 28.8703 17.279C29.035 16.975 29.3327 16.8167 29.7633 16.804L38.4843 16.576C38.9277 16.5633 39.2253 16.6963 39.3773 16.975C39.5293 17.2537 39.6053 17.5957 39.6053 18.001C39.6053 18.3937 39.5293 18.7547 39.3773 19.084C39.2253 19.4007 38.9277 19.5653 38.4843 19.578L29.7633 19.806ZM36.9833 12.187C37.0467 11.731 37.2747 11.427 37.6673 11.275C38.06 11.123 38.497 11.047 38.9783 11.047C39.1937 11.047 39.3963 11.0787 39.5863 11.142C39.7763 11.1927 39.941 11.2687 40.0803 11.37C40.473 11.636 40.6503 11.978 40.6123 12.396C40.4603 13.8653 40.3337 15.3093 40.2323 16.728C40.131 18.134 40.0613 19.5337 40.0233 20.927C39.9853 22.3077 39.979 23.7137 40.0043 25.145C40.017 25.5757 39.846 25.867 39.4913 26.019C39.1367 26.1837 38.7377 26.266 38.2943 26.266C37.9903 26.266 37.6863 26.2343 37.3823 26.171C37.091 26.1077 36.8503 25.9937 36.6603 25.829C36.4703 25.6643 36.369 25.4363 36.3563 25.145C36.3183 23.055 36.3437 20.9397 36.4323 18.799C36.5337 16.6457 36.7173 14.4417 36.9833 12.187ZM45.5434 25.259C45.2774 25.8417 44.9354 26.1963 44.5174 26.323C44.1121 26.4623 43.6118 26.532 43.0164 26.532C42.5984 26.532 42.2881 26.4623 42.0854 26.323C41.8828 26.1837 41.7498 26.0253 41.6864 25.848C41.6231 25.6707 41.5914 25.5313 41.5914 25.43C41.5914 25.3033 41.6041 25.202 41.6294 25.126C41.6548 25.05 41.6801 24.9803 41.7054 24.917C41.9588 24.3597 42.2564 23.682 42.5984 22.884C42.9404 22.086 43.3014 21.231 43.6814 20.319C44.0614 19.407 44.4351 18.5013 44.8024 17.602C45.1824 16.7027 45.5308 15.873 45.8474 15.113C46.1641 14.353 46.4238 13.7197 46.6264 13.213C46.8418 12.6937 46.9748 12.377 47.0254 12.263C47.2408 11.769 47.4878 11.4523 47.7664 11.313C48.0578 11.161 48.4568 11.085 48.9634 11.085C49.6474 11.085 50.1794 11.2307 50.5594 11.522C50.9394 11.8133 51.2244 12.244 51.4144 12.814C51.8198 13.9793 52.2758 15.2397 52.7824 16.595C53.2891 17.9377 53.8591 19.3183 54.4924 20.737C55.1384 22.143 55.8604 23.53 56.6584 24.898C56.6838 24.9487 56.7028 25.012 56.7154 25.088C56.7408 25.1513 56.7534 25.2147 56.7534 25.278C56.7534 25.6833 56.5698 25.9683 56.2024 26.133C55.8351 26.2977 55.4424 26.38 55.0244 26.38C54.5304 26.38 54.0934 26.323 53.7134 26.209C53.3334 26.095 53.0358 25.8417 52.8204 25.449C52.5418 24.9423 52.2441 24.29 51.9274 23.492C51.6108 22.694 51.2878 21.8327 50.9584 20.908C50.6291 19.9707 50.2998 19.027 49.9704 18.077C49.6411 17.127 49.3181 16.2467 49.0014 15.436C48.6974 16.1707 48.3934 16.9877 48.0894 17.887C47.7981 18.7737 47.5068 19.673 47.2154 20.585C46.9241 21.4843 46.6391 22.3457 46.3604 23.169C46.0818 23.9797 45.8094 24.6763 45.5434 25.259ZM47.7284 22.618C47.5258 22.618 47.3041 22.5673 47.0634 22.466C46.8228 22.3647 46.6138 22.2 46.4364 21.972C46.2591 21.7313 46.1704 21.4147 46.1704 21.022C46.1704 20.5913 46.2591 20.2557 46.4364 20.015C46.6138 19.7743 46.8671 19.6097 47.1964 19.521C47.5258 19.4197 47.9121 19.369 48.3554 19.369C48.8874 19.369 49.3878 19.388 49.8564 19.426C50.3251 19.4513 50.7431 19.4893 51.1104 19.54C51.4904 19.578 51.8008 19.616 52.0414 19.654C52.4341 19.7047 52.7254 19.8567 52.9154 20.11C53.1054 20.3633 53.2004 20.7497 53.2004 21.269C53.1878 21.8263 53.0548 22.2253 52.8014 22.466C52.5481 22.7067 52.2948 22.8143 52.0414 22.789C51.3828 22.713 50.8634 22.656 50.4834 22.618C50.1161 22.58 49.7614 22.561 49.4194 22.561C49.1028 22.561 48.7924 22.5737 48.4884 22.599C48.1971 22.6117 47.9438 22.618 47.7284 22.618ZM61.0491 25.088C61.0111 25.5187 60.8401 25.8163 60.5361 25.981C60.2321 26.133 59.8204 26.209 59.3011 26.209C59.0731 26.209 58.8197 26.1773 58.5411 26.114C58.2751 26.0507 58.0471 25.9367 57.8571 25.772C57.6671 25.6073 57.5847 25.3793 57.6101 25.088C57.6861 24.1887 57.7557 23.2133 57.8191 22.162C57.8951 21.1107 57.9584 20.0403 58.0091 18.951C58.0597 17.849 58.0977 16.7787 58.1231 15.74C58.1484 14.7013 58.1611 13.745 58.1611 12.871C58.1611 12.3897 58.2941 11.9653 58.5601 11.598C58.8387 11.218 59.2884 11.028 59.9091 11.028C60.3144 11.028 60.6564 11.0977 60.9351 11.237C61.2264 11.3763 61.4734 11.6423 61.6761 12.035C62.0181 12.681 62.3917 13.3397 62.7971 14.011C63.2024 14.6823 63.6267 15.3537 64.0701 16.025C64.5134 16.6963 64.9631 17.3803 65.4191 18.077C65.8751 18.761 66.3311 19.445 66.7871 20.129C66.8124 19.445 66.8377 18.7737 66.8631 18.115C66.8884 17.4437 66.9137 16.785 66.9391 16.139C66.9644 15.4803 66.9897 14.8343 67.0151 14.201C67.0404 13.5677 67.0594 12.947 67.0721 12.339C67.0847 11.8577 67.2431 11.5347 67.5471 11.37C67.8637 11.1927 68.2564 11.104 68.7251 11.104C68.9784 11.104 69.2444 11.142 69.5231 11.218C69.8144 11.2813 70.0551 11.4017 70.2451 11.579C70.4351 11.7563 70.5237 12.0097 70.5111 12.339C70.4984 12.7443 70.4794 13.308 70.4541 14.03C70.4287 14.752 70.3971 15.569 70.3591 16.481C70.3211 17.3803 70.2831 18.2987 70.2451 19.236C70.2197 20.1733 70.1881 21.0663 70.1501 21.915C70.1247 22.7637 70.0994 23.4983 70.0741 24.119C70.0487 24.727 70.0297 25.1513 70.0171 25.392C70.0044 25.658 69.9031 25.8733 69.7131 26.038C69.5357 26.2027 69.3141 26.323 69.0481 26.399C68.7947 26.4877 68.5414 26.532 68.2881 26.532C67.8954 26.532 67.5344 26.4877 67.2051 26.399C66.8884 26.3103 66.6287 26.0887 66.4261 25.734C66.1474 25.2527 65.8244 24.7333 65.4571 24.176C65.1024 23.6187 64.7097 23.0297 64.2791 22.409C63.8484 21.7757 63.3924 21.1043 62.9111 20.395C62.4424 19.6857 61.9547 18.9447 61.4481 18.172C61.4227 18.9827 61.3911 19.7807 61.3531 20.566C61.3151 21.3513 61.2707 22.124 61.2201 22.884C61.1694 23.6313 61.1124 24.366 61.0491 25.088ZM85.3933 13.08C85.4693 13.1433 85.5453 13.2637 85.6213 13.441C85.6973 13.6183 85.7353 13.8083 85.7353 14.011C85.7353 14.2897 85.6529 14.5557 85.4883 14.809C85.3236 15.0623 85.1336 15.2713 84.9183 15.436C84.7029 15.6007 84.5193 15.683 84.3673 15.683C84.1646 15.683 83.9936 15.6323 83.8543 15.531C83.7276 15.417 83.6073 15.322 83.4933 15.246C82.9233 14.8787 82.3976 14.6127 81.9163 14.448C81.4349 14.2833 80.8966 14.201 80.3013 14.201C79.6426 14.201 79.0663 14.315 78.5723 14.543C78.0783 14.771 77.6539 15.075 77.2993 15.455C76.9573 15.835 76.6723 16.253 76.4443 16.709C76.2289 17.165 76.0706 17.6337 75.9693 18.115C75.8679 18.5837 75.8173 19.0207 75.8173 19.426C75.8173 19.8947 75.8933 20.3633 76.0453 20.832C76.1973 21.288 76.4189 21.706 76.7103 22.086C77.0016 22.4533 77.3563 22.751 77.7743 22.979C78.1923 23.207 78.6673 23.321 79.1993 23.321C79.6806 23.321 80.0923 23.245 80.4343 23.093C80.7889 22.941 81.0929 22.7383 81.3463 22.485C81.6123 22.2317 81.8339 21.9593 82.0113 21.668C82.1886 21.3767 82.3343 21.0917 82.4483 20.813C82.2709 20.813 82.0873 20.813 81.8973 20.813C81.7199 20.8003 81.5236 20.794 81.3083 20.794C81.1056 20.794 80.8839 20.794 80.6433 20.794C80.2886 20.794 79.9973 20.6863 79.7693 20.471C79.5539 20.243 79.4463 19.8567 79.4463 19.312C79.4463 18.8687 79.5603 18.5077 79.7883 18.229C80.0289 17.9377 80.3456 17.792 80.7383 17.792C81.3589 17.792 82.0429 17.7983 82.7903 17.811C83.5503 17.8237 84.2469 17.83 84.8803 17.83C85.3236 17.83 85.6213 17.963 85.7733 18.229C85.9253 18.495 86.0013 18.799 86.0013 19.141C86.0013 20.0023 85.8366 20.8573 85.5073 21.706C85.1906 22.5547 84.7283 23.3337 84.1203 24.043C83.5123 24.7397 82.7776 25.3033 81.9163 25.734C81.0676 26.152 80.1113 26.361 79.0473 26.361C78.0466 26.361 77.1283 26.1773 76.2923 25.81C75.4689 25.4427 74.7533 24.936 74.1453 24.29C73.5499 23.644 73.0876 22.903 72.7583 22.067C72.4289 21.2183 72.2643 20.3253 72.2643 19.388C72.2643 18.286 72.4669 17.2473 72.8723 16.272C73.2776 15.284 73.8413 14.41 74.5633 13.65C75.2979 12.8773 76.1529 12.2757 77.1283 11.845C78.1036 11.4017 79.1613 11.18 80.3013 11.18C81.1626 11.18 82.0366 11.3193 82.9233 11.598C83.8099 11.8767 84.6333 12.3707 85.3933 13.08ZM89.0101 12.149C89.0608 11.7057 89.1938 11.4017 89.4091 11.237C89.6244 11.0597 89.9538 10.971 90.3971 10.971C90.7264 10.971 91.0368 11.009 91.3281 11.085C91.6321 11.1483 91.8348 11.2117 91.9361 11.275C92.2021 11.1863 92.5441 11.1293 92.9621 11.104C93.3801 11.066 93.7728 11.047 94.1401 11.047C94.8748 11.047 95.5208 11.066 96.0781 11.104C96.6481 11.1293 97.0661 11.161 97.3321 11.199C97.8514 11.2623 98.1934 11.4397 98.3581 11.731C98.5228 12.0097 98.6051 12.3327 98.6051 12.7C98.6051 13.1687 98.4911 13.555 98.2631 13.859C98.0478 14.1503 97.6994 14.2707 97.2181 14.22C97.0028 14.1947 96.7241 14.1693 96.3821 14.144C96.0528 14.1187 95.7171 14.0997 95.3751 14.087C95.0458 14.0617 94.7671 14.049 94.5391 14.049C94.1591 14.049 93.7791 14.0617 93.3991 14.087C93.0191 14.1123 92.6391 14.1567 92.2591 14.22L92.0121 16.785C92.2781 16.7597 92.6011 16.747 92.9811 16.747C93.3611 16.7343 93.7601 16.728 94.1781 16.728C94.6088 16.728 95.0141 16.7407 95.3941 16.766C95.7741 16.7787 96.0908 16.8103 96.3441 16.861C96.7368 16.9243 97.0218 17.0953 97.1991 17.374C97.3891 17.6527 97.4841 17.9757 97.4841 18.343C97.4841 18.7357 97.3764 19.103 97.1611 19.445C96.9584 19.7743 96.6671 19.9137 96.2871 19.863C95.5651 19.787 94.8051 19.7363 94.0071 19.711C93.2218 19.6857 92.4934 19.7047 91.8221 19.768C91.7714 20.338 91.7208 20.9143 91.6701 21.497C91.6321 22.067 91.5878 22.637 91.5371 23.207C92.0691 23.1437 92.6581 23.0993 93.3041 23.074C93.9628 23.036 94.5898 23.0107 95.1851 22.998C95.7931 22.9853 96.2871 22.9853 96.6671 22.998C97.1358 23.0107 97.4524 23.169 97.6171 23.473C97.7944 23.777 97.8831 24.1317 97.8831 24.537C97.8831 24.917 97.7881 25.2653 97.5981 25.582C97.4208 25.8987 97.0788 26.0507 96.5721 26.038C95.6094 26 94.7544 25.9873 94.0071 26C93.2598 26.0127 92.5758 26.038 91.9551 26.076C91.3471 26.1267 90.7518 26.19 90.1691 26.266C89.7764 26.304 89.4091 26.2977 89.0671 26.247C88.7251 26.1963 88.4528 26.0697 88.2501 25.867C88.0474 25.6643 87.9588 25.354 87.9841 24.936C88.1234 22.8587 88.2754 20.7243 88.4401 18.533C88.6174 16.3417 88.8074 14.2137 89.0101 12.149ZM109.468 12.32C109.595 12.3833 109.703 12.491 109.791 12.643C109.893 12.7823 109.943 12.9913 109.943 13.27C109.943 13.6247 109.874 13.9603 109.734 14.277C109.595 14.581 109.418 14.828 109.202 15.018C108.987 15.1953 108.759 15.284 108.518 15.284C108.392 15.284 108.271 15.265 108.157 15.227C108.043 15.189 107.866 15.1193 107.625 15.018C107.245 14.8407 106.853 14.695 106.447 14.581C106.055 14.4543 105.573 14.391 105.003 14.391C104.725 14.391 104.465 14.429 104.224 14.505C103.996 14.5683 103.806 14.6697 103.654 14.809C103.515 14.9483 103.445 15.1193 103.445 15.322C103.445 15.5753 103.534 15.797 103.711 15.987C103.889 16.1643 104.155 16.3417 104.509 16.519C104.877 16.6963 105.326 16.918 105.858 17.184C106.846 17.6527 107.67 18.096 108.328 18.514C109 18.9193 109.5 19.3817 109.829 19.901C110.171 20.4077 110.342 21.0473 110.342 21.82C110.342 22.3647 110.209 22.9093 109.943 23.454C109.69 23.986 109.316 24.4737 108.822 24.917C108.341 25.3477 107.758 25.696 107.074 25.962C106.39 26.228 105.618 26.361 104.756 26.361C104.072 26.361 103.445 26.304 102.875 26.19C102.318 26.0887 101.824 25.9493 101.393 25.772C100.975 25.5947 100.627 25.411 100.348 25.221C99.9429 24.9297 99.7402 24.594 99.7402 24.214C99.7402 23.9353 99.8225 23.6503 99.9872 23.359C100.152 23.055 100.342 22.7953 100.557 22.58C100.785 22.3647 100.988 22.257 101.165 22.257C101.267 22.257 101.381 22.2823 101.507 22.333C101.647 22.371 101.799 22.4407 101.963 22.542C102.356 22.7447 102.768 22.9093 103.198 23.036C103.642 23.1627 104.155 23.226 104.737 23.226C105.181 23.226 105.548 23.1753 105.839 23.074C106.131 22.9727 106.346 22.846 106.485 22.694C106.637 22.5293 106.713 22.352 106.713 22.162C106.713 21.8833 106.606 21.6427 106.39 21.44C106.175 21.2373 105.846 21.0347 105.402 20.832C104.959 20.6167 104.383 20.376 103.673 20.11C103.141 19.8947 102.635 19.6603 102.153 19.407C101.685 19.141 101.267 18.8307 100.899 18.476C100.545 18.1213 100.26 17.716 100.044 17.26C99.8415 16.7913 99.7402 16.253 99.7402 15.645C99.7402 14.7837 99.9619 14.03 100.405 13.384C100.861 12.7253 101.495 12.2123 102.305 11.845C103.116 11.4777 104.06 11.294 105.136 11.294C105.922 11.294 106.701 11.3953 107.473 11.598C108.259 11.788 108.924 12.0287 109.468 12.32Z" fill="black"/>
<path d="M112.925 33.045C112.561 32.3616 115.745 29.2503 116.553 29.2593C117.361 29.2683 116.648 31.3095 116.157 31.7861C115.666 32.2627 113.1 33.3867 112.925 33.045Z" fill="white"/>
<path style="mix-blend-mode:screen" opacity="0.5" d="M14 6.44244C14 6.44244 91.3911 -3.79773 114.955 3.81467C116.498 6.21138 117.521 8.71473 118 11.2645C112.277 14.6997 104.592 16.739 96.4602 16.9806C84.2822 17.4773 40.5328 8.28458 30.3033 7.14679C24.9501 6.46534 19.4632 6.22829 14 6.44244Z" fill="url(#paint13_linear_120_1798)"/>
<path d="M10 8.08819C11.3961 6.64301 13.5501 5.48024 16.163 4.76115C19.8784 3.92415 23.9641 3.77313 27.8393 4.32953C28.5364 4.62627 26.6986 5.39959 23.2448 6.12794C19.791 6.85629 11.7586 8.6457 10 8.08819Z" fill="white"/>
<path d="M9.98982 9C9.08675 9.07194 6.82115 12.9835 7.01127 13.6219C7.20139 14.2603 9.81554 12.2371 10.1799 11.1581C10.4228 10.4405 10.3576 9.70026 9.98982 9Z" fill="white"/>
</g>
<defs>
<filter id="filter0_d_120_1798" x="0" y="0" width="124.353" height="47" filterUnits="userSpaceOnUse" color-interpolation-filters="sRGB">
<feFlood flood-opacity="0" result="BackgroundImageFix"/>
<feColorMatrix in="SourceAlpha" type="matrix" values="0 0 0 0 0 0 0 0 0 0 0 0 0 0 0 0 0 0 127 0" result="hardAlpha"/>
<feOffset dy="4"/>
<feGaussianBlur stdDeviation="2"/>
<feComposite in2="hardAlpha" operator="out"/>
<feColorMatrix type="matrix" values="0 0 0 0 0 0 0 0 0 0 0 0 0 0 0 0 0 0 0.25 0"/>
<feBlend mode="normal" in2="BackgroundImageFix" result="effect1_dropShadow_120_1798"/>
<feBlend mode="normal" in="SourceGraphic" in2="effect1_dropShadow_120_1798" result="shape"/>
</filter>
<radialGradient id="paint0_radial_120_1798" cx="0" cy="0" r="1" gradientUnits="userSpaceOnUse" gradientTransform="translate(45066.8 8675.16) scale(3278.22 2073.24)">
<stop stop-color="#FFBD00"/>
<stop offset="1" stop-color="#FF772C"/>
</radialGradient>
<linearGradient id="paint1_linear_120_1798" x1="75023.1" y1="8168.28" x2="75023.1" y2="6679.45" gradientUnits="userSpaceOnUse">
<stop stop-color="#FFF300"/>
<stop offset="1" stop-color="#FF9700"/>
</linearGradient>
<linearGradient id="paint2_linear_120_1798" x1="73864" y1="7899.06" x2="73864" y2="6497.05" gradientUnits="userSpaceOnUse">
<stop stop-color="#FFCC00"/>
<stop offset="1" stop-color="#FF9700"/>
</linearGradient>
<linearGradient id="paint3_linear_120_1798" x1="15477.6" y1="1285.64" x2="22399.8" y2="1285.64" gradientUnits="userSpaceOnUse">
<stop stop-color="#FF6140"/>
<stop offset="0.1" stop-color="#EF5B3C"/>
<stop offset="0.29" stop-color="#C54B31"/>
<stop offset="0.55" stop-color="#813120"/>
<stop offset="0.88" stop-color="#240E09"/>
<stop offset="1"/>
</linearGradient>
<radialGradient id="paint4_radial_120_1798" cx="0" cy="0" r="1" gradientUnits="userSpaceOnUse" gradientTransform="translate(3317.55 -92.1602) scale(5.19148 2.94652)">
<stop stop-color="#00B359"/>
<stop offset="0.13" stop-color="#009148"/>
<stop offset="0.34" stop-color="#005E2F"/>
<stop offset="0.54" stop-color="#00351A"/>
<stop offset="0.73" stop-color="#00180C"/>
<stop offset="0.89" stop-color="#000603"/>
<stop offset="1"/>
</radialGradient>
<radialGradient id="paint5_radial_120_1798" cx="0" cy="0" r="1" gradientUnits="userSpaceOnUse" gradientTransform="translate(3321.98 -91.758) scale(5.15998 2.92857)">
<stop stop-color="#00B359"/>
<stop offset="0.13" stop-color="#009148"/>
<stop offset="0.34" stop-color="#005E2F"/>
<stop offset="0.54" stop-color="#00351A"/>
<stop offset="0.73" stop-color="#00180C"/>
<stop offset="0.89" stop-color="#000603"/>
<stop offset="1"/>
</radialGradient>
<radialGradient id="paint6_radial_120_1798" cx="0" cy="0" r="1" gradientUnits="userSpaceOnUse" gradientTransform="translate(3277.07 -82.7124) scale(5.19148 2.94649)">
<stop stop-color="#00B359"/>
<stop offset="0.13" stop-color="#009148"/>
<stop offset="0.34" stop-color="#005E2F"/>
<stop offset="0.54" stop-color="#00351A"/>
<stop offset="0.73" stop-color="#00180C"/>
<stop offset="0.89" stop-color="#000603"/>
<stop offset="1"/>
</radialGradient>
<radialGradient id="paint7_radial_120_1798" cx="0" cy="0" r="1" gradientUnits="userSpaceOnUse" gradientTransform="translate(9263.68 -315.523) scale(40.3809 22.9205)">
<stop stop-color="#00B359"/>
<stop offset="0.13" stop-color="#009148"/>
<stop offset="0.34" stop-color="#005E2F"/>
<stop offset="0.54" stop-color="#00351A"/>
<stop offset="0.73" stop-color="#00180C"/>
<stop offset="0.89" stop-color="#000603"/>
<stop offset="1"/>
</radialGradient>
<radialGradient id="paint8_radial_120_1798" cx="0" cy="0" r="1" gradientUnits="userSpaceOnUse" gradientTransform="translate(4298.56 -97.5971) scale(9.15721 5.19739)">
<stop stop-color="#00B359"/>
<stop offset="0.13" stop-color="#009148"/>
<stop offset="0.34" stop-color="#005E2F"/>
<stop offset="0.54" stop-color="#00351A"/>
<stop offset="0.73" stop-color="#00180C"/>
<stop offset="0.89" stop-color="#000603"/>
<stop offset="1"/>
</radialGradient>
<radialGradient id="paint9_radial_120_1798" cx="0" cy="0" r="1" gradientUnits="userSpaceOnUse" gradientTransform="translate(2137.02 -54.065) scale(2.29028 1.29935)">
<stop stop-color="#00B359"/>
<stop offset="0.13" stop-color="#009148"/>
<stop offset="0.34" stop-color="#005E2F"/>
<stop offset="0.54" stop-color="#00351A"/>
<stop offset="0.73" stop-color="#00180C"/>
<stop offset="0.89" stop-color="#000603"/>
<stop offset="1"/>
</radialGradient>
<radialGradient id="paint10_radial_120_1798" cx="0" cy="0" r="1" gradientUnits="userSpaceOnUse" gradientTransform="translate(2209.51 -29.3409) scale(2.28925 1.29937)">
<stop stop-color="#00B359"/>
<stop offset="0.13" stop-color="#009148"/>
<stop offset="0.34" stop-color="#005E2F"/>
<stop offset="0.54" stop-color="#00351A"/>
<stop offset="0.73" stop-color="#00180C"/>
<stop offset="0.89" stop-color="#000603"/>
<stop offset="1"/>
</radialGradient>
<radialGradient id="paint11_radial_120_1798" cx="0" cy="0" r="1" gradientUnits="userSpaceOnUse" gradientTransform="translate(1716.66 -19.7899) scale(1.36631 0.736804)">
<stop stop-color="#00B359"/>
<stop offset="0.13" stop-color="#009148"/>
<stop offset="0.34" stop-color="#005E2F"/>
<stop offset="0.54" stop-color="#00351A"/>
<stop offset="0.73" stop-color="#00180C"/>
<stop offset="0.89" stop-color="#000603"/>
<stop offset="1"/>
</radialGradient>
<radialGradient id="paint12_radial_120_1798" cx="0" cy="0" r="1" gradientUnits="userSpaceOnUse" gradientTransform="translate(188.402 -1857.1) rotate(-96.0346) scale(3.1989 5.59392)">
<stop stop-color="#00B359"/>
<stop offset="0.13" stop-color="#009148"/>
<stop offset="0.34" stop-color="#005E2F"/>
<stop offset="0.54" stop-color="#00351A"/>
<stop offset="0.73" stop-color="#00180C"/>
<stop offset="0.89" stop-color="#000603"/>
<stop offset="1"/>
</radialGradient>
<linearGradient id="paint13_linear_120_1798" x1="63876.2" y1="3070.44" x2="70979.4" y2="3070.44" gradientUnits="userSpaceOnUse">
<stop stop-color="#FF9840"/>
<stop offset="0.1" stop-color="#EF8E3C"/>
<stop offset="0.29" stop-color="#C57531"/>
<stop offset="0.55" stop-color="#814D20"/>
<stop offset="0.88" stop-color="#241609"/>
<stop offset="1"/>
</linearGradient>
</defs>
</svg>
