<svg width="201" height="221" viewBox="0 0 201 221" fill="none" xmlns="http://www.w3.org/2000/svg">
<g style="mix-blend-mode:multiply">
<path d="M198.437 86.4053C195.487 70.0191 180.499 58.62 162.008 58.62H38.2476C18.6996 58.62 4.02347 69.8552 1.78883 86.5834C-2.96228 121.864 2.79543 173.501 6.94258 193.286C10.6166 210.898 23.1386 221 41.3076 221H158.948C176.432 221 189.931 210.114 193.323 193.257C194.642 186.689 205.966 128.133 198.437 86.4053Z" fill="#3E2A00"/>
</g>
<path d="M188.291 192.539C185.613 205.861 175.155 216.762 158.949 216.762H41.3085C25.1125 216.762 15.1372 207.5 11.9563 192.539C7.45686 170.98 2.35344 120.475 6.89317 87.0186C8.90635 71.7011 22.0726 62.7955 38.2787 62.7955H162.089C178.296 62.7955 190.958 73.0547 193.475 87.0186C199.827 122.719 192.348 172.384 188.291 192.539Z" fill="#3E2A00"/>
<path style="mix-blend-mode:screen" opacity="0.5" d="M11.9257 130.285C18.5088 129.723 25.0818 129.238 31.6951 128.91C44.1064 128.291 56.5177 127.806 68.939 127.571C93.2885 127.122 117.769 127.179 141.947 129.708C159.834 131.596 177.58 134.218 195.397 136.519C196.343 119.706 196.112 102.115 193.384 87.0044C190.867 73.0406 178.205 62.7814 161.998 62.7814H38.248C22.0419 62.7814 8.92603 71.6869 6.86252 87.0044C5.12112 100.007 4.84934 115.588 5.3627 131.041C7.67786 130.763 9.91249 130.449 11.9257 130.285Z" fill="#3E2A00"/>
<path style="mix-blend-mode:multiply" d="M137.447 131.809C111.558 129.394 85.3161 129.565 59.3158 130.327C46.9348 130.698 34.4732 131.04 22.1323 131.987C16.5659 132.415 11.0598 132.914 5.45312 133.355C6.45972 156.866 9.29831 179.778 11.9557 192.538C15.0963 207.535 25.1119 216.761 41.3079 216.761H158.948C175.154 216.761 185.613 205.853 188.29 192.538C190.545 181.331 193.857 161.019 195.246 139.055C176 136.554 156.814 133.619 137.447 131.809Z" fill="#3E2A00"/>
<g style="mix-blend-mode:multiply" opacity="0.7">
<path d="M34.6958 199.342C37.927 195.865 40.8562 192.218 43.7551 188.556C36.9103 193.229 29.7937 197.611 22.8482 202.192C21.0666 203.367 19.3151 204.557 17.4932 205.69C19.2041 208.138 21.5225 210.348 24.338 212.216C25.1305 210.781 26.0276 209.375 27.0256 208.005C29.3609 204.97 32.0585 202.192 34.6958 199.342Z" fill="#3E2A00"/>
</g>
<g style="mix-blend-mode:multiply" opacity="0.7">
<path d="M172.981 209.95C170.324 208.319 167.304 207.044 164.828 205.27C163.353 204.2 161.968 203.07 160.681 201.886C162.16 203.752 163.65 205.612 165.18 207.443C166.942 209.58 168.713 211.646 170.374 213.791L170.887 214.503C172.841 213.689 174.641 212.703 176.243 211.568C175.106 211.08 174.017 210.54 172.981 209.95Z" fill="#3E2A00"/>
</g>
<g style="mix-blend-mode:screen" opacity="0.4">
<path d="M23.5197 85.1158C26.0563 88.4073 26.0865 91.884 25.8248 95.7241C25.1302 106.026 25.9959 116.385 26.3482 126.715C26.4187 128.931 26.5193 131.14 26.63 133.341H165.54C166.355 125.839 167.442 118.344 168.741 110.892C169.616 105.841 169.335 100.569 171.529 95.7099C172.264 94.0712 173.26 92.6677 173.542 90.9151C173.985 88.5854 173.542 86.2344 175.263 84.1968C177.196 81.9739 180.578 79.3023 184.162 79.4092C188.893 79.5516 192.023 83.6838 193.493 88.0511C193.442 87.7234 193.392 87.3814 193.332 87.0465C191.399 76.3599 183.487 67.8106 172.596 64.4122C177.045 65.8371 180.176 70.5677 179.239 74.3152C178.062 78.9674 172.807 79.8437 167.825 79.8224C157.547 79.7796 147.411 82.5012 137.164 83.1922C126.303 83.9047 115.371 83.5912 104.51 82.95C93.8704 82.3088 83.2609 81.2829 72.6413 80.4707C62.203 79.6728 51.6942 80.2213 41.2458 79.9934C34.4714 79.8366 29.0257 77.856 25.3718 72.9117C24.0934 71.1662 22.7144 67.7607 24.3652 65.7872C24.6521 65.4579 24.9897 65.152 25.3718 64.8753C16.4836 68.0172 9.78977 74.5717 7.47461 83.8762C8.30153 82.584 9.39001 81.384 10.7058 80.314C15.5877 76.4881 20.9831 81.7246 23.5197 85.1158Z" fill="#3E2A00"/>
</g>
<path d="M39.0138 88.7997C35.7323 84.0263 30.8403 80.2503 26.1999 76.225C23.6917 74.1924 21.3653 72.0509 19.2343 69.8131C18.9424 69.4782 18.6404 69.1006 18.3283 68.723C16.7036 69.8689 15.2529 71.132 14 72.4918C16.909 74.0735 19.7778 75.7833 22.5258 77.4219C28.3439 80.9058 34.4338 84.1973 39.0138 88.7997Z" fill="#FED200"/>
<path d="M164 84C167.562 82.7097 170.917 81.1864 174.013 79.4533C176.98 77.7662 179.602 75.6305 182.642 74.069C183.398 73.6802 184.19 73.3212 185 72.9563C184.363 72.2803 183.698 71.6162 182.988 71C180.458 73.0041 177.718 74.8587 175.078 76.827C171.701 79.2977 167.295 81.3916 164 84Z" fill="#FED200"/>
<g style="mix-blend-mode:multiply" opacity="0.4">
<path d="M184.474 197.682C180.448 199.719 175.354 197.518 173.18 194.49C171.469 192.118 172.445 189.054 172.405 186.475C172.355 184.017 172.405 181.488 172.234 178.959C171.358 182.093 170.845 185.314 170.07 188.47C169.758 189.681 167.563 189.895 167.11 188.641C164.352 181.132 164.232 173.444 164.02 165.672C163.809 157.899 164.151 150.233 164.725 142.56C164.886 140.313 165.084 138.074 165.319 135.842H26.7513C27.2244 144.498 27.9592 153.118 29.0363 161.775C29.8315 168.187 29.7711 174.599 29.912 181.103C30.0429 187.009 30.3952 195.302 22.5941 198.344C18.3865 199.99 15.1352 198.252 12.5986 195.167C16.313 208.603 26.0668 216.775 41.3066 216.775H158.947C173.935 216.775 183.991 207.449 187.544 195.523C186.674 196.344 185.64 197.071 184.474 197.682Z" fill="#3E2A00"/>
</g>
<path opacity="0.5" d="M29.3771 206.521C31.273 203.097 32.818 199.581 34 196C32.7341 197.268 31.365 198.489 29.9397 199.684C26.4514 202.631 23.3758 205.851 20 208.891C21.8093 210.52 24.0089 211.91 26.4983 213C27.2798 210.803 28.241 208.64 29.3771 206.521Z" fill="#FED200"/>
<path opacity="0.5" d="M167.696 200.944C165.456 199.459 162.944 198.194 160.227 197.183C159.714 196.99 159.09 196.72 158.436 196.47C158.989 197.055 159.543 197.632 160.117 198.216C161.938 200.054 164.032 201.65 165.925 203.445C168.864 206.238 170.696 209.579 173.454 212.465C173.625 212.65 173.806 212.828 173.997 213.013C176.252 211.721 178.24 210.213 179.906 208.532C175.809 206.017 171.712 203.516 167.696 200.944Z" fill="#FED200"/>
<path d="M57.4131 7.01538L94.8208 2.28387L96.0607 96.8743L72.1932 99.8932L57.4131 7.01538Z" fill="url(#paint0_linear_203_877)"/>
<path d="M144.368 7.55371L107.105 1.9377L103.227 96.4675L127.002 100.051L144.368 7.55371Z" fill="url(#paint1_linear_203_877)"/>
<path d="M52.498 21.5704L21.4049 32.2779L44.8557 108.237L64.6943 101.405L52.498 21.5704Z" fill="url(#paint2_linear_203_877)"/>
<path d="M148.875 22.2202L179.66 33.6606L154.098 109.039L134.457 101.739L148.875 22.2202Z" fill="url(#paint3_linear_203_877)"/>
<path d="M22.6558 56.5388L1.95733 68.937L26.7031 118.521L39.9095 110.61L22.6558 56.5388Z" fill="url(#paint4_linear_203_877)"/>
<path d="M177.733 57.8834L198.079 70.7678L171.958 119.749L158.977 111.528L177.733 57.8834Z" fill="url(#paint5_linear_203_877)"/>
<path d="M172.488 183.041C170.303 193.963 161.707 202.911 148.42 202.911H51.9685C38.6714 202.911 30.4677 195.331 27.9009 183.041C24.2168 165.359 20.0394 123.951 23.7235 96.5152C25.4247 83.9477 36.1751 76.6451 49.4621 76.6451H150.937C164.234 76.6451 174.602 85.0662 176.665 96.5152C181.95 125.789 175.82 166.506 172.488 183.041Z" fill="#FEA900"/>
<g style="mix-blend-mode:multiply" opacity="0.15">
<g style="mix-blend-mode:multiply" opacity="0.15">
<path d="M176.665 96.5146C174.652 85.2723 164.586 76.9509 151.631 76.6588C154.379 78.4613 165.854 83.7832 167.203 86.519C171.592 95.5528 168.683 124.179 161.767 131.403C148.289 145.495 117.618 140.928 96.4799 140.394C76.6601 139.888 32.3499 147.867 35.6415 114.86C36.1246 109.98 31.9171 97.1202 30.2059 92.4181C28.857 88.6777 34.6449 83.7547 37.091 80.0785C37.4255 79.585 37.809 79.1089 38.2385 78.6537C30.4877 81.6174 24.9213 87.8014 23.7436 96.536C20.0594 123.965 24.2368 165.372 27.9209 183.055C30.4877 195.345 38.6914 202.925 51.9885 202.925H148.42C161.707 202.925 170.303 193.977 172.488 183.055C175.819 166.505 181.95 125.789 176.665 96.5146Z" fill="#3E2A00"/>
</g>
</g>
<g style="mix-blend-mode:multiply" opacity="0.15">
<g style="mix-blend-mode:multiply" opacity="0.15">
<path d="M176.665 96.5148C175.598 90.5588 172.276 85.4363 167.465 81.8812C169.605 84.9764 171.217 88.241 172.266 91.6061C174.491 99.4928 173.414 107.323 170.958 115.067C164.516 135.229 183.037 153.881 160.056 164.225C141.293 172.689 62.1552 174.976 43.4829 164.225C22.3445 152.028 33.6687 134.474 28.5854 114.155C26.8238 107.144 25.0724 99.906 24.8711 92.7816C24.8711 92.4753 24.8711 92.1618 24.8711 91.8412C24.3165 93.3754 23.9328 94.9381 23.7235 96.5148C20.0394 123.944 24.2168 165.351 27.9009 183.034C30.4677 195.324 38.6714 202.904 51.9685 202.904H148.42C161.707 202.904 170.303 193.956 172.488 183.034C175.82 166.505 181.95 125.789 176.665 96.5148Z" fill="#3E2A00"/>
</g>
</g>
<path d="M23.7217 96.5156C24.2753 90.9158 26.2482 85.7007 31.0597 81.5543C36.7369 76.6741 44.1454 75.3276 52.0572 75.0782C70.2665 74.6935 88.4757 74.5011 106.695 74.5724C121.633 74.6365 136.661 74.4655 151.579 75.1779C165.772 76.0542 175.043 85.2234 176.663 96.5512C173.452 86.3847 164.353 78.1275 150.965 78.1916C136.873 78.2557 122.146 78.6974 107.812 78.7544C90.2674 78.8043 72.7125 78.7045 55.2079 78.2842C47.1551 78.1132 39.505 78.1702 32.9924 82.6301C27.7581 86.1994 25.1611 91.1937 23.7217 96.5156Z" fill="#362500"/>
<path opacity="0.5" d="M176.663 96.5155C181.756 122.876 179.944 149.949 175.757 176.366C174.016 187.352 170.724 199.599 156.35 203.767C150.19 205.555 143.194 204.921 136.802 204.928L109.06 204.985C91.1127 204.985 73.1652 204.985 55.2278 204.907C49.762 204.907 44.4572 204.586 39.5652 202.292C32.358 198.915 28.231 192.489 26.4795 185.991C24.577 179.159 23.9127 171.885 23.2181 164.91C22.5035 157.622 21.8894 150.319 21.6177 143.017C21.1144 129.587 21.0942 116.072 22.886 102.707C23.1779 100.655 23.4396 98.5958 23.7214 96.544C22.2518 123.054 23.5604 150.134 28.7544 176.338C30.0428 182.906 31.0494 189.874 36.3743 195.175C38.1473 196.987 40.5313 198.457 43.3103 199.453C46.0893 200.448 49.1753 200.937 52.2885 200.874C68.243 200.76 84.1975 200.81 100.152 200.767L128.004 200.824C135.896 200.824 144.351 201.587 152.163 200.625C164.836 199.072 169.335 188.292 171.157 179.294C176.623 152.314 179.874 124.322 176.754 96.9928L176.663 96.5155Z" fill="#3E2A00"/>
<path d="M63.2604 88.0799C58.7911 75.8544 38.4277 88.8707 35.6194 95.4252C34.6631 97.6765 33.0324 102.165 34.9248 104.352C39.072 109.154 50.8994 102.215 54.503 100.077C58.7609 97.5696 65.0521 93.0029 63.2604 88.0799Z" fill="#3E2A00" fill-opacity="0.2"/>
<g filter="url(#filter0_d_203_877)">
<g filter="url(#filter1_d_203_877)">
<path d="M92.7584 26.6798C93.7988 23.4779 94.3189 21.877 94.7819 21.1522C97.4276 17.01 103.477 17.01 106.123 21.1522C106.586 21.877 107.106 23.4779 108.146 26.6798C108.438 27.5784 108.584 28.0278 108.767 28.415C109.748 30.4915 111.72 31.9244 113.998 32.2155C114.423 32.2698 114.896 32.2698 115.84 32.2698C119.207 32.2698 120.89 32.2698 121.723 32.4861C126.48 33.7224 128.349 39.4759 125.227 43.2722C124.681 43.9364 123.319 44.9259 120.596 46.9047C119.831 47.4601 119.449 47.7378 119.137 48.0315C117.465 49.606 116.712 51.9243 117.139 54.1808C117.219 54.6016 117.365 55.0509 117.657 55.9496C118.697 59.1515 119.217 60.7524 119.269 61.6109C119.563 66.5171 114.669 70.073 110.094 68.277C109.293 67.9627 107.931 66.9733 105.208 64.9945C104.443 64.439 104.061 64.1613 103.685 63.9556C101.671 62.8522 99.2336 62.8522 97.2196 63.9556C96.844 64.1613 96.4617 64.439 95.6973 64.9945C92.9736 66.9733 91.6118 67.9627 90.8112 68.277C86.2361 70.073 81.3418 66.5171 81.6361 61.6109C81.6876 60.7524 82.2077 59.1515 83.2481 55.9496C83.5401 55.0509 83.6861 54.6016 83.7657 54.1808C84.1927 51.9243 83.4394 49.606 81.7677 48.0315C81.4559 47.7378 81.0737 47.4601 80.3092 46.9047C77.5856 44.9259 76.2237 43.9364 75.6775 43.2722C72.5556 39.4759 74.4251 33.7224 79.182 32.4861C80.0144 32.2698 81.6978 32.2698 85.0644 32.2698C86.0093 32.2698 86.4818 32.2698 86.9066 32.2155C89.1845 31.9244 91.1567 30.4915 92.1375 28.415C92.3204 28.0278 92.4664 27.5784 92.7584 26.6798Z" fill="url(#paint6_linear_203_877)"/>
</g>
<g filter="url(#filter2_d_203_877)">
<path d="M155.573 43.7689C156.216 42.5583 156.538 41.953 156.746 41.6726C159.027 38.6009 163.836 39.4488 164.929 43.1154C165.028 43.4501 165.124 44.129 165.315 45.4867C165.368 45.8679 165.395 46.0585 165.432 46.2289C165.807 47.9473 167.12 49.3069 168.824 49.7413C168.993 49.7843 169.183 49.8177 169.562 49.8846C170.912 50.1227 171.587 50.2417 171.918 50.3531C175.544 51.5733 176.224 56.4083 173.074 58.5808C172.787 58.7791 172.171 59.0796 170.938 59.6806C170.592 59.8494 170.419 59.9338 170.269 60.0217C168.75 60.9091 167.863 62.5778 167.977 64.333C167.988 64.507 168.015 64.6976 168.068 65.0788C168.259 66.4365 168.354 67.1154 168.351 67.4646C168.311 71.2905 163.922 73.4308 160.883 71.1069C160.606 70.8947 160.129 70.4016 159.177 69.4153C158.91 69.1384 158.776 68.9999 158.646 68.8839C157.333 67.7139 155.471 67.3857 153.837 68.0361C153.675 68.1005 153.502 68.1849 153.156 68.3537C151.924 68.9547 151.308 69.2552 150.974 69.3597C147.323 70.504 143.932 66.9918 145.203 63.383C145.319 63.0536 145.641 62.4483 146.284 61.2377C146.465 60.8978 146.555 60.7279 146.625 60.5682C147.332 58.9578 147.069 57.0861 145.946 55.733C145.835 55.5988 145.701 55.4603 145.433 55.1834C144.481 54.1971 144.005 53.704 143.802 53.4193C141.586 50.3007 143.878 45.9897 147.703 46.0834C148.052 46.0919 148.727 46.2109 150.078 46.449C150.457 46.5159 150.646 46.5493 150.82 46.5666C152.57 46.7413 154.269 45.9128 155.208 44.4262C155.302 44.2788 155.392 44.1088 155.573 43.7689Z" fill="url(#paint7_linear_203_877)"/>
</g>
<g filter="url(#filter3_d_203_877)">
<path d="M45.3326 43.7689C44.689 42.5583 44.3671 41.953 44.1589 41.6726C41.8779 38.6009 37.0695 39.4488 35.9766 43.1154C35.8768 43.4501 35.7814 44.129 35.5906 45.4867C35.537 45.8679 35.5102 46.0585 35.4731 46.2289C35.0985 47.9473 33.7856 49.3069 32.0812 49.7413C31.9123 49.7843 31.7227 49.8177 31.3436 49.8846C29.9933 50.1227 29.3182 50.2417 28.9872 50.3531C25.361 51.5733 24.6815 56.4083 27.8309 58.5808C28.1184 58.7791 28.7345 59.0796 29.9669 59.6806C30.3129 59.8494 30.4859 59.9338 30.6364 60.0217C32.155 60.9091 33.0423 62.5778 32.9287 64.333C32.9175 64.507 32.8907 64.6976 32.8371 65.0788C32.6463 66.4365 32.5509 67.1154 32.5545 67.4646C32.5944 71.2905 36.9828 73.4308 40.0222 71.1069C40.2996 70.8947 40.7758 70.4016 41.7283 69.4153C41.9957 69.1384 42.1294 68.9999 42.2596 68.8839C43.5727 67.7139 45.434 67.3857 47.0682 68.0361C47.2302 68.1005 47.4032 68.1849 47.7492 68.3537C48.9815 68.9547 49.5977 69.2552 49.9309 69.3597C53.5818 70.504 56.9735 66.9918 55.7025 63.383C55.5865 63.0536 55.2647 62.4483 54.621 61.2377C54.4402 60.8978 54.3499 60.7279 54.2798 60.5682C53.5728 58.9578 53.8358 57.0861 54.9593 55.733C55.0707 55.5988 55.2044 55.4603 55.4718 55.1834C56.4243 54.1971 56.9005 53.704 57.1028 53.4193C59.3193 50.3007 57.0271 45.9897 53.2022 46.0834C52.8531 46.0919 52.1779 46.2109 50.8277 46.449C50.4486 46.5159 50.259 46.5493 50.0855 46.5666C48.3354 46.7413 46.6367 45.9128 45.6969 44.4262C45.6037 44.2788 45.5134 44.1088 45.3326 43.7689Z" fill="url(#paint8_linear_203_877)"/>
</g>
</g>
<defs>
<filter id="filter0_d_203_877" x="21.8218" y="18.0455" width="157.262" height="62.0248" filterUnits="userSpaceOnUse" color-interpolation-filters="sRGB">
<feFlood flood-opacity="0" result="BackgroundImageFix"/>
<feColorMatrix in="SourceAlpha" type="matrix" values="0 0 0 0 0 0 0 0 0 0 0 0 0 0 0 0 0 0 127 0" result="hardAlpha"/>
<feOffset dy="4"/>
<feGaussianBlur stdDeviation="2"/>
<feComposite in2="hardAlpha" operator="out"/>
<feColorMatrix type="matrix" values="0 0 0 0 0 0 0 0 0 0 0 0 0 0 0 0 0 0 0.25 0"/>
<feBlend mode="normal" in2="BackgroundImageFix" result="effect1_dropShadow_203_877"/>
<feBlend mode="normal" in="SourceGraphic" in2="effect1_dropShadow_203_877" result="shape"/>
</filter>
<filter id="filter1_d_203_877" x="74.1411" y="18.0455" width="52.6226" height="55.8937" filterUnits="userSpaceOnUse" color-interpolation-filters="sRGB">
<feFlood flood-opacity="0" result="BackgroundImageFix"/>
<feColorMatrix in="SourceAlpha" type="matrix" values="0 0 0 0 0 0 0 0 0 0 0 0 0 0 0 0 0 0 127 0" result="hardAlpha"/>
<feOffset dy="5.18927"/>
<feComposite in2="hardAlpha" operator="out"/>
<feColorMatrix type="matrix" values="0 0 0 0 1 0 0 0 0 0.720277 0 0 0 0 0.000989556 0 0 0 1 0"/>
<feBlend mode="normal" in2="BackgroundImageFix" result="effect1_dropShadow_203_877"/>
<feBlend mode="normal" in="SourceGraphic" in2="effect1_dropShadow_203_877" result="shape"/>
</filter>
<filter id="filter2_d_203_877" x="142.935" y="39.7948" width="32.1489" height="37.4648" filterUnits="userSpaceOnUse" color-interpolation-filters="sRGB">
<feFlood flood-opacity="0" result="BackgroundImageFix"/>
<feColorMatrix in="SourceAlpha" type="matrix" values="0 0 0 0 0 0 0 0 0 0 0 0 0 0 0 0 0 0 127 0" result="hardAlpha"/>
<feOffset dy="5.18927"/>
<feComposite in2="hardAlpha" operator="out"/>
<feColorMatrix type="matrix" values="0 0 0 0 1 0 0 0 0 0.720277 0 0 0 0 0.000989556 0 0 0 1 0"/>
<feBlend mode="normal" in2="BackgroundImageFix" result="effect1_dropShadow_203_877"/>
<feBlend mode="normal" in="SourceGraphic" in2="effect1_dropShadow_203_877" result="shape"/>
</filter>
<filter id="filter3_d_203_877" x="25.8218" y="39.7948" width="32.1489" height="37.4648" filterUnits="userSpaceOnUse" color-interpolation-filters="sRGB">
<feFlood flood-opacity="0" result="BackgroundImageFix"/>
<feColorMatrix in="SourceAlpha" type="matrix" values="0 0 0 0 0 0 0 0 0 0 0 0 0 0 0 0 0 0 127 0" result="hardAlpha"/>
<feOffset dy="5.18927"/>
<feComposite in2="hardAlpha" operator="out"/>
<feColorMatrix type="matrix" values="0 0 0 0 1 0 0 0 0 0.720277 0 0 0 0 0.000989556 0 0 0 1 0"/>
<feBlend mode="normal" in2="BackgroundImageFix" result="effect1_dropShadow_203_877"/>
<feBlend mode="normal" in="SourceGraphic" in2="effect1_dropShadow_203_877" result="shape"/>
</filter>
<linearGradient id="paint0_linear_203_877" x1="76.117" y1="4.64963" x2="87.9123" y2="97.9049" gradientUnits="userSpaceOnUse">
<stop stop-color="#FFDF6E" stop-opacity="0"/>
<stop offset="1" stop-color="#FFCD1B" stop-opacity="0.5"/>
</linearGradient>
<linearGradient id="paint1_linear_203_877" x1="125.736" y1="4.7457" x2="111.72" y2="97.7475" gradientUnits="userSpaceOnUse">
<stop stop-color="#FFDF6E" stop-opacity="0"/>
<stop offset="1" stop-color="#FFCD1B" stop-opacity="0.5"/>
</linearGradient>
<linearGradient id="paint2_linear_203_877" x1="36.9515" y1="26.9242" x2="62.8222" y2="102.049" gradientUnits="userSpaceOnUse">
<stop stop-color="#FFDF6E" stop-opacity="0"/>
<stop offset="1" stop-color="#FFCD1B" stop-opacity="0.5"/>
</linearGradient>
<linearGradient id="paint3_linear_203_877" x1="164.268" y1="27.9404" x2="136.552" y2="102.518" gradientUnits="userSpaceOnUse">
<stop stop-color="#FFDF6E" stop-opacity="0"/>
<stop offset="1" stop-color="#FFCD1B" stop-opacity="0.5"/>
</linearGradient>
<linearGradient id="paint4_linear_203_877" x1="12.3065" y1="62.7379" x2="40.6985" y2="110.138" gradientUnits="userSpaceOnUse">
<stop stop-color="#FFDF6E" stop-opacity="0"/>
<stop offset="1" stop-color="#FFCD1B" stop-opacity="0.5"/>
</linearGradient>
<linearGradient id="paint5_linear_203_877" x1="187.906" y1="64.3256" x2="158.289" y2="111.093" gradientUnits="userSpaceOnUse">
<stop stop-color="#FFDF6E" stop-opacity="0"/>
<stop offset="1" stop-color="#FFCD1B" stop-opacity="0.5"/>
</linearGradient>
<linearGradient id="paint6_linear_203_877" x1="100.452" y1="15.0166" x2="100.452" y2="63.0829" gradientUnits="userSpaceOnUse">
<stop stop-color="#FFF2C2"/>
<stop offset="0.715" stop-color="#FFD130"/>
<stop offset="1" stop-color="#FFCF25"/>
</linearGradient>
<linearGradient id="paint7_linear_203_877" x1="161.746" y1="37.244" x2="156.38" y2="67.6743" gradientUnits="userSpaceOnUse">
<stop stop-color="#FFF2C2"/>
<stop offset="0.715" stop-color="#FFD130"/>
<stop offset="1" stop-color="#FFCF25"/>
</linearGradient>
<linearGradient id="paint8_linear_203_877" x1="39.1597" y1="37.244" x2="44.5253" y2="67.6743" gradientUnits="userSpaceOnUse">
<stop stop-color="#FFF2C2"/>
<stop offset="0.715" stop-color="#FFD130"/>
<stop offset="1" stop-color="#FFCF25"/>
</linearGradient>
</defs>
</svg>
