<svg width="100" height="100" viewBox="0 0 100 100" fill="none" xmlns="http://www.w3.org/2000/svg">
<g filter="url(#filter0_d_68_1556)">
<path d="M64.5833 54.1667C64.5833 71.4256 59.4379 77.0834 50.5208 77.0834C41.6037 77.0834 36.4583 71.4256 36.4583 54.1667C36.4583 36.9078 43.7499 14.5834 50.5208 14.5834C57.2916 14.5834 64.5833 36.9078 64.5833 54.1667Z" fill="#FFD12F"/>
<path fill-rule="evenodd" clip-rule="evenodd" d="M62.625 73.2593C59.7412 77.5494 55.4818 79.1667 50.5208 79.1667C45.5599 79.1667 41.3004 77.5494 38.4167 73.2593C35.6621 69.1615 34.375 62.9154 34.375 54.1667C34.375 45.2872 36.2428 35.1621 38.9811 27.2236C40.3481 23.2604 41.9685 19.7345 43.7543 17.1553C44.6471 15.8658 45.6315 14.739 46.7119 13.9178C47.7948 13.0945 49.0819 12.5 50.5208 12.5C51.9597 12.5 53.2469 13.0945 54.3298 13.9178C55.4101 14.739 56.3946 15.8658 57.2874 17.1553C59.0731 19.7345 60.6936 23.2604 62.0606 27.2236C64.7989 35.1621 66.6667 45.2872 66.6667 54.1667C66.6667 62.9154 65.3796 69.1615 62.625 73.2593ZM50.5208 77.0833C59.4379 77.0833 64.5833 71.4256 64.5833 54.1667C64.5833 36.9078 57.2917 14.5833 50.5208 14.5833C43.75 14.5833 36.4583 36.9078 36.4583 54.1667C36.4583 71.4256 41.6037 77.0833 50.5208 77.0833Z" fill="#EC9616"/>
<path d="M45.0499 43.8081C47.6236 43.8541 49.7598 41.1057 49.8212 37.6693C49.8827 34.233 51.1309 17.8709 48.5572 17.8249C45.9835 17.7789 40.5624 34.0663 40.501 37.5027C40.4396 40.9391 42.4762 43.7621 45.0499 43.8081Z" fill="#FFE071"/>
<path fill-rule="evenodd" clip-rule="evenodd" d="M43.7676 75.5221C49.4303 74.1413 53.4502 68.3228 55.6753 55.3886C58.3786 39.6745 55.6813 18.6442 49.993 14.628C50.1693 14.5984 50.3453 14.5834 50.5209 14.5834C57.2917 14.5834 64.5834 36.9078 64.5834 54.1667C64.5834 71.4256 59.438 77.0834 50.5209 77.0834C47.9437 77.0834 45.6815 76.6108 43.7676 75.5221Z" fill="#F1B826"/>
<path d="M44.7984 34.5165C44.7984 35.4879 44.0109 36.2753 43.0396 36.2753C42.0682 36.2753 41.2808 35.4879 41.2808 34.5165C41.2808 33.5452 42.0682 32.7577 43.0396 32.7577C44.0109 32.7577 44.7984 33.5452 44.7984 34.5165Z" fill="#FFF730"/>
<path d="M50.0746 34.5165C50.0746 35.4879 49.2872 36.2753 48.3158 36.2753C47.3445 36.2753 46.5571 35.4879 46.5571 34.5165C46.5571 33.5452 47.3445 32.7577 48.3158 32.7577C49.2872 32.7577 50.0746 33.5452 50.0746 34.5165Z" fill="#FFF730"/>
<path d="M55.2673 34.5165C55.2673 35.4879 54.4798 36.2753 53.5085 36.2753C52.5371 36.2753 51.7497 35.4879 51.7497 34.5165C51.7497 33.5452 52.5371 32.7577 53.5085 32.7577C54.4798 32.7577 55.2673 33.5452 55.2673 34.5165Z" fill="#FFF730"/>
<path d="M60.4597 34.5165C60.4597 35.4879 59.6723 36.2753 58.7009 36.2753C57.7296 36.2753 56.9421 35.4879 56.9421 34.5165C56.9421 33.5452 57.7296 32.7577 58.7009 32.7577C59.6723 32.7577 60.4597 33.5452 60.4597 34.5165Z" fill="#FFF730"/>
<path d="M58.7848 29.2403C58.7848 30.2116 57.9973 30.9991 57.026 30.9991C56.0546 30.9991 55.2672 30.2116 55.2672 29.2403C55.2672 28.2689 56.0546 27.4815 57.026 27.4815C57.9973 27.4815 58.7848 28.2689 58.7848 29.2403Z" fill="#FFF730"/>
<path d="M52.629 29.2403C52.629 30.2116 51.8416 30.9991 50.8703 30.9991C49.8989 30.9991 49.1115 30.2116 49.1115 29.2403C49.1115 28.2689 49.8989 27.4815 50.8703 27.4815C51.8416 27.4815 52.629 28.2689 52.629 29.2403Z" fill="#FFF730"/>
<path d="M46.4733 29.2403C46.4733 30.2116 45.6859 30.9991 44.7145 30.9991C43.7432 30.9991 42.9557 30.2116 42.9557 29.2403C42.9557 28.2689 43.7432 27.4815 44.7145 27.4815C45.6859 27.4815 46.4733 28.2689 46.4733 29.2403Z" fill="#FFF730"/>
<path d="M49.1115 24.8432C49.1115 25.8145 48.3241 26.6019 47.3528 26.6019C46.3814 26.6019 45.594 25.8145 45.594 24.8432C45.594 23.8718 46.3814 23.0844 47.3528 23.0844C48.3241 23.0844 49.1115 23.8718 49.1115 24.8432Z" fill="#FFF730"/>
<path d="M56.1465 24.8432C56.1465 25.8145 55.3591 26.6019 54.3877 26.6019C53.4164 26.6019 52.629 25.8145 52.629 24.8432C52.629 23.8718 53.4164 23.0844 54.3877 23.0844C55.3591 23.0844 56.1465 23.8718 56.1465 24.8432Z" fill="#FFF730"/>
<path d="M52.629 20.4463C52.629 21.4176 51.8416 22.2051 50.8703 22.2051C49.8989 22.2051 49.1115 21.4176 49.1115 20.4463C49.1115 19.4749 49.8989 18.6875 50.8703 18.6875C51.8416 18.6875 52.629 19.4749 52.629 20.4463Z" fill="#FFF730"/>
<path d="M47.4364 39.8767C47.4364 40.8481 46.6489 41.6355 45.6776 41.6355C44.7062 41.6355 43.9188 40.8481 43.9188 39.8767C43.9188 38.9054 44.7062 38.1179 45.6776 38.1179C46.6489 38.1179 47.4364 38.9054 47.4364 39.8767Z" fill="#FFF730"/>
<path d="M52.629 39.7929C52.629 40.7642 51.8416 41.5517 50.8703 41.5517C49.8989 41.5517 49.1115 40.7642 49.1115 39.7929C49.1115 38.8215 49.8989 38.0341 50.8703 38.0341C51.8416 38.0341 52.629 38.8215 52.629 39.7929Z" fill="#FFF730"/>
<path d="M59.6643 39.7929C59.6643 40.7642 58.8768 41.5517 57.9055 41.5517C56.9341 41.5517 56.1467 40.7642 56.1467 39.7929C56.1467 38.8215 56.9341 38.0341 57.9055 38.0341C58.8768 38.0341 59.6643 38.8215 59.6643 39.7929Z" fill="#FFF730"/>
<path d="M63.0982 45.0692C63.0982 46.0406 62.3107 46.828 61.3394 46.828C60.368 46.828 59.5806 46.0406 59.5806 45.0692C59.5806 44.0979 60.368 43.3105 61.3394 43.3105C62.3107 43.3105 63.0982 44.0979 63.0982 45.0692Z" fill="#FFF730"/>
<path d="M56.1465 45.0692C56.1465 46.0406 55.3591 46.828 54.3877 46.828C53.4164 46.828 52.629 46.0406 52.629 45.0692C52.629 44.0979 53.4164 43.3105 54.3877 43.3105C55.3591 43.3105 56.1465 44.0979 56.1465 45.0692Z" fill="#FFF730"/>
<path d="M48.232 45.0692C48.232 46.0406 47.4446 46.828 46.4733 46.828C45.5019 46.828 44.7145 46.0406 44.7145 45.0692C44.7145 44.0979 45.5019 43.3105 46.4733 43.3105C47.4446 43.3105 48.232 44.0979 48.232 45.0692Z" fill="#FFF730"/>
<path d="M42.9558 42.431C42.9558 43.4024 42.1684 44.1898 41.197 44.1898C40.2257 44.1898 39.4382 43.4024 39.4382 42.431C39.4382 41.4597 40.2257 40.6722 41.197 40.6722C42.1684 40.6722 42.9558 41.4597 42.9558 42.431Z" fill="#FFF730"/>
<path d="M43.7515 49.3824C43.7515 50.3538 42.964 51.1412 41.9927 51.1412C41.0213 51.1412 40.2339 50.3538 40.2339 49.3824C40.2339 48.4111 41.0213 47.6236 41.9927 47.6236C42.964 47.6236 43.7515 48.4111 43.7515 49.3824Z" fill="#FFF730"/>
<path d="M49.7395 50.2619C49.7395 51.2333 48.9521 52.0207 47.9808 52.0207C47.0094 52.0207 46.222 51.2333 46.222 50.2619C46.222 49.2906 47.0094 48.5031 47.9808 48.5031C48.9521 48.5031 49.7395 49.2906 49.7395 50.2619Z" fill="#FFF730"/>
<path d="M56.6912 50.3456C56.6912 51.317 55.9038 52.1044 54.9324 52.1044C53.9611 52.1044 53.1736 51.317 53.1736 50.3456C53.1736 49.3743 53.9611 48.5868 54.9324 48.5868C55.9038 48.5868 56.6912 49.3743 56.6912 50.3456Z" fill="#FFF730"/>
<path d="M62.7631 52.23C62.7631 53.2013 61.9757 53.9888 61.0043 53.9888C60.033 53.9888 59.2455 53.2013 59.2455 52.23C59.2455 51.2586 60.033 50.4712 61.0043 50.4712C61.9757 50.4712 62.7631 51.2586 62.7631 52.23Z" fill="#FFF730"/>
<path d="M52.1685 57.0458C52.1685 58.0171 51.381 58.8046 50.4097 58.8046C49.4383 58.8046 48.6509 58.0171 48.6509 57.0458C48.6509 56.0744 49.4383 55.287 50.4097 55.287C51.381 55.287 52.1685 56.0744 52.1685 57.0458Z" fill="#FFF730"/>
<path d="M53.1315 62.8246C53.1315 63.796 52.3441 64.5834 51.3728 64.5834C50.4014 64.5834 49.614 63.796 49.614 62.8246C49.614 61.8533 50.4014 61.0659 51.3728 61.0659C52.3441 61.0659 53.1315 61.8533 53.1315 62.8246Z" fill="#FFF730"/>
<path d="M57.7381 56.4175C57.7381 57.3889 56.9507 58.1763 55.9793 58.1763C55.008 58.1763 54.2205 57.3889 54.2205 56.4175C54.2205 55.4462 55.008 54.6587 55.9793 54.6587C56.9507 54.6587 57.7381 55.4462 57.7381 56.4175Z" fill="#FFF730"/>
<path d="M47.269 56.5014C47.269 57.4727 46.4815 58.2601 45.5102 58.2601C44.5388 58.2601 43.7514 57.4727 43.7514 56.5014C43.7514 55.53 44.5388 54.7426 45.5102 54.7426C46.4815 54.7426 47.269 55.53 47.269 56.5014Z" fill="#FFF730"/>
<path fill-rule="evenodd" clip-rule="evenodd" d="M48.8675 18.801C49.8508 19.3984 50.1637 20.6799 49.5663 21.6632C49.1105 22.4135 48.85 23.1766 48.7598 23.9673C48.6295 25.1105 47.5971 25.9316 46.4539 25.8012C45.3107 25.6709 44.4897 24.6385 44.62 23.4953C44.7817 22.077 45.2517 20.7403 46.0053 19.4999C46.6027 18.5165 47.8841 18.2036 48.8675 18.801Z" fill="white"/>
<path d="M53.1249 67.7083C53.1249 68.8589 52.1922 69.7917 51.0416 69.7917C49.891 69.7917 48.9583 68.8589 48.9583 67.7083C48.9583 66.5577 49.891 65.625 51.0416 65.625C52.1922 65.625 53.1249 66.5577 53.1249 67.7083Z" fill="#F3D157"/>
<path d="M67.1053 72.6341C63.5965 82.5406 54.2398 85.2835 50 85.4167C50.4386 81.1558 49.3922 70.83 55.3571 61.5627C61.3221 52.2953 72.076 52.3951 75 53.8597C71.9298 55.857 71.4912 60.251 67.1053 72.6341Z" fill="#76C611"/>
<path fill-rule="evenodd" clip-rule="evenodd" d="M48.4755 86.8364C48.0658 86.3965 47.8662 85.8012 47.9277 85.2033C47.9962 84.5383 48.0196 83.6342 48.0479 82.5417C48.1782 77.5163 48.4119 68.504 53.6054 60.4351C56.9222 55.282 61.5922 52.7215 65.8135 51.6656C67.9158 51.1397 69.9239 50.9814 71.6332 51.0611C73.2938 51.1385 74.8387 51.4488 75.9332 51.997C76.6006 52.3313 77.0382 52.9973 77.0801 53.7427C77.1221 54.4881 76.7619 55.1989 76.1361 55.606C75.2256 56.1983 74.536 57.195 73.5065 60.0573C73.0761 61.2539 72.6158 62.6817 72.0486 64.4409C71.9492 64.7495 71.8464 65.0683 71.7399 65.3979C71.0318 67.5894 70.1751 70.207 69.0691 73.3296C65.1695 84.3396 54.8019 87.3502 50.0655 87.4989C49.4647 87.5178 48.8851 87.2763 48.4755 86.8364ZM50.1191 83.3268C50.1292 83.0207 50.1383 82.7005 50.1479 82.3672C50.2946 77.2565 50.5297 69.0629 55.3572 61.5626C60.1704 54.0847 68.1017 52.7057 72.5214 53.2215C73.579 53.3449 74.4355 53.5769 75.0001 53.8597C74.3573 54.2779 73.8298 54.8011 73.3574 55.4807C72.2214 57.1147 71.4033 59.6527 70.0638 63.8079C69.2994 66.1791 68.3652 69.077 67.1054 72.6341C64.101 81.1165 56.809 84.3469 52.1131 85.1839C51.3247 85.3244 50.6095 85.3975 50.0001 85.4166C50.0606 84.8291 50.0928 84.1263 50.1191 83.3268Z" fill="#548F09"/>
<path fill-rule="evenodd" clip-rule="evenodd" d="M50.2775 79.0472C54.6064 78.2619 59.649 75.9354 63.1203 70.4462C65.1372 67.2568 66.6904 64.638 67.9613 62.4952C71.0919 57.2168 72.5097 54.8263 74.9266 53.9083C72.7924 55.3432 71.939 57.9906 70.0637 63.808C69.2993 66.1792 68.3651 69.077 67.1053 72.6341C63.5965 82.5406 54.2398 85.2835 50 85.4167C50.0836 84.6043 50.1133 83.5713 50.1478 82.3673C50.1765 81.3688 50.2085 80.2528 50.2775 79.0472ZM74.9692 53.8799C74.9795 53.8732 74.9897 53.8665 75 53.8598C74.9542 53.8368 74.9065 53.8142 74.8569 53.792C74.8959 53.8214 74.9334 53.8507 74.9692 53.8799Z" fill="#67AE0E"/>
<path d="M34.5958 50.7632C30.004 47.6443 28.5617 43.3993 28.4146 41.6666C27.2372 41.6666 25.7654 45.825 29.2976 62.4587C32.8298 79.0924 44.3093 84.6947 49.6076 85.4166C55.7888 63.325 40.3356 54.6617 34.5958 50.7632Z" fill="#8DEA17"/>
<path fill-rule="evenodd" clip-rule="evenodd" d="M28.4146 39.5834C29.4969 39.5834 30.3989 40.412 30.4905 41.4904C30.5872 42.6292 31.7201 46.2915 35.7665 49.0398C36.0752 49.2495 36.421 49.4781 36.7973 49.727C39.772 51.6937 44.6575 54.9238 48.2762 60.0691C52.4502 66.0039 54.8701 74.3403 51.6139 85.9781C51.3336 86.9799 50.3571 87.6214 49.3263 87.481C43.2133 86.648 30.9861 80.4395 27.2598 62.8915C25.4806 54.5132 24.9281 49.1323 25.0073 45.776C25.0465 44.1159 25.2419 42.8038 25.6132 41.8325C25.9213 41.0263 26.7245 39.5834 28.4146 39.5834ZM28.3301 41.6739C27.8282 41.7595 27.2962 42.6222 27.1335 44.8889C26.9201 47.8609 27.3415 53.2466 29.2977 62.4588C32.8298 79.0924 44.3094 84.6948 49.6076 85.4167C55.4378 64.5799 42.0213 55.6892 35.6622 51.4752C35.2792 51.2215 34.9219 50.9847 34.5959 50.7632C31.76 48.8371 30.1255 46.4814 29.2553 44.5532C29.1189 44.2508 29.0013 43.959 28.9007 43.681C28.6043 42.8612 28.4566 42.1615 28.4146 41.6667C28.3866 41.6667 28.3584 41.6691 28.3301 41.6739ZM29.5705 43.1753C29.5709 43.1768 29.5636 43.1924 29.5477 43.2177C29.5622 43.1864 29.5701 43.1738 29.5705 43.1753Z" fill="#548F09"/>
<path d="M34.4545 54.9814C31.8592 53.2735 30.7291 52.6042 30.2083 51.5625C30.7291 56.25 30.2952 54.9536 32.2916 64.0625C33.2048 68.2292 37.8614 75.6463 40.8561 76.0417C44.3498 63.9439 37.6987 57.1163 34.4545 54.9814Z" fill="#A4FC34"/>
</g>
<defs>
<filter id="filter0_d_68_1556" x="0" y="0" width="104" height="104" filterUnits="userSpaceOnUse" color-interpolation-filters="sRGB">
<feFlood flood-opacity="0" result="BackgroundImageFix"/>
<feColorMatrix in="SourceAlpha" type="matrix" values="0 0 0 0 0 0 0 0 0 0 0 0 0 0 0 0 0 0 127 0" result="hardAlpha"/>
<feOffset dx="4" dy="4"/>
<feColorMatrix type="matrix" values="0 0 0 0 0 0 0 0 0 0 0 0 0 0 0 0 0 0 0.2 0"/>
<feBlend mode="normal" in2="BackgroundImageFix" result="effect1_dropShadow_68_1556"/>
<feBlend mode="normal" in="SourceGraphic" in2="effect1_dropShadow_68_1556" result="shape"/>
</filter>
</defs>
</svg>
