<svg width="238" height="252" viewBox="0 0 238 252" fill="none" xmlns="http://www.w3.org/2000/svg">
<path d="M40 0.5H198C219.815 0.5 237.5 18.1848 237.5 40V212C237.5 233.815 219.815 251.5 198 251.5H40C18.1848 251.5 0.5 233.815 0.5 212V40C0.5 18.1848 18.1848 0.5 40 0.5Z" fill="black" fill-opacity="0.5" stroke="#5BB354"/>
<g filter="url(#filter0_d_131_4801)">
<path d="M73.2075 123.203V214.561H164.114V122.919L73.2075 123.203Z" fill="#F2F2F2" stroke="black" stroke-width="0.5"/>
<path d="M164.114 214.561L167.519 212.383V124.438L164.114 122.919V214.561Z" fill="#505B75" stroke="black" stroke-width="0.5"/>
<path d="M162.327 125.324C162.327 125.971 161.802 126.497 161.154 126.497C160.506 126.497 159.981 125.971 159.981 125.324C159.981 124.676 160.506 124.151 161.154 124.151C161.802 124.151 162.327 124.676 162.327 125.324Z" fill="#C6C6C6" stroke="black" stroke-width="0.5"/>
<path d="M76.6335 125.324C76.6335 125.971 76.1085 126.497 75.4607 126.497C74.8123 126.497 74.2874 125.971 74.2874 125.324C74.2874 124.676 74.8123 124.151 75.4607 124.151C76.1085 124.151 76.6335 124.676 76.6335 125.324Z" fill="#C6C6C6" stroke="black" stroke-width="0.5"/>
<path d="M162.327 211.288C162.327 211.935 161.802 212.46 161.154 212.46C160.506 212.46 159.981 211.935 159.981 211.288C159.981 210.64 160.506 210.114 161.154 210.114C161.802 210.114 162.327 210.64 162.327 211.288Z" fill="#C6C6C6" stroke="black" stroke-width="0.5"/>
<path d="M76.6335 211.288C76.6335 211.935 76.1085 212.46 75.4607 212.46C74.8123 212.46 74.2874 211.935 74.2874 211.288C74.2874 210.64 74.8123 210.114 75.4607 210.114C76.1085 210.114 76.6335 210.64 76.6335 211.288Z" fill="#C6C6C6" stroke="black" stroke-width="0.5"/>
<path d="M129.115 109.345C129.053 109.346 128.989 109.348 128.935 109.346C126.254 109.234 103.801 109.265 102.579 109.346C102.579 109.346 100.217 109.447 96.847 109.94C99.4294 116.877 94.6918 118.877 92.4165 119.424V123.128H134.746L133.856 118.559C129.926 117.082 129.118 112.692 129.115 109.345Z" fill="#006AB0" stroke="black" stroke-width="0.5"/>
<path d="M129.151 110.28C129.135 109.965 129.115 109.646 129.115 109.345C129.053 109.346 128.989 109.349 128.935 109.346C126.254 109.235 103.801 109.266 102.579 109.346C102.579 109.346 100.216 109.447 96.8469 109.941C96.8751 110.017 96.8923 110.084 96.9183 110.159C107.66 110.195 118.406 110.267 129.151 110.28Z" fill="white" stroke="black" stroke-width="0.5"/>
<path d="M97.5878 113.557C97.5889 113.865 97.5728 114.16 97.5369 114.438C108.347 114.496 119.16 114.544 129.971 114.541C129.825 114.17 129.706 113.787 129.602 113.401C118.93 113.417 108.256 113.524 97.5878 113.557Z" fill="white" stroke="black" stroke-width="0.5"/>
<path d="M132.604 117.921C120.226 117.906 107.846 117.942 95.4689 118.025C95.0137 118.376 94.5268 118.655 94.0505 118.869C107.342 118.906 120.633 118.918 133.925 118.912L133.856 118.559C133.395 118.386 132.982 118.169 132.604 117.921Z" fill="white" stroke="black" stroke-width="0.5"/>
<path d="M92 122.224V122.224H135H134.848C120.564 122.224 106.279 122.224 92 122.224Z" fill="white" stroke="black" stroke-width="0.5"/>
<path d="M96.7039 164.138L88 169.248C88 169.248 97.1921 188.554 99.0627 198.224C99.0627 198.224 107.85 177.5 150 136.935L148.334 135.224C148.334 135.224 114.598 159.874 102.922 180.107L96.7039 164.138Z" fill="#5BB354" stroke="black" stroke-width="0.5"/>
<path d="M106.839 130.565C109.743 129.895 111.753 127.549 108.403 127.661C105.052 127.773 103.378 130.007 102.93 129.895C102.666 129.829 96.6078 126.146 91.6854 123.137C88.7773 123.147 85.8686 123.155 82.9604 123.167C88.9776 126.911 99.9148 133.357 99.9148 133.357C99.9148 133.357 99.3566 134.697 100.362 136.372C100.362 136.372 100.139 144.302 101.591 143.966C103.042 143.632 102.037 136.149 102.707 137.489C103.378 138.829 106.17 144.524 107.063 143.072C107.956 141.621 103.377 134.696 105.499 136.372C107.621 138.047 110.972 141.286 111.642 139.723C112.312 138.159 104.942 134.138 108.069 134.697C111.196 135.256 115.886 135.703 113.764 133.581C111.641 131.459 103.935 131.236 106.839 130.565Z" fill="#C6C6C6" stroke="black" stroke-width="0.5"/>
<path d="M151 65.2241C151 65.2241 169.818 67.8592 174 91.4648L170.399 96.0751L167.379 89.7075L169.47 97.722L164.359 100.687L161.92 93.3308L163.081 100.687L155.415 102.224C155.415 102.224 155.764 86.8527 151.466 81.0339L151 65.2241Z" fill="#E08804" stroke="black" stroke-width="0.5"/>
<path opacity="0.3" d="M154.362 86.2241C157.535 79.9709 157.689 72.9412 155.658 66.3428C152.885 65.4501 151 65.2241 151 65.2241L151.538 80.5707C152.79 81.995 153.7 84.009 154.362 86.2241Z" fill="#E08804" stroke="black" stroke-width="0.5"/>
<path d="M109.353 107.224C109.353 107.224 107.567 117.509 112.032 118.188C116.496 118.866 118.183 109.824 117.984 107.224H109.353Z" fill="#EFCAA6" stroke="black" stroke-width="0.5"/>
<path d="M96.846 109.94C93.0826 110.491 88.0618 111.534 83.6645 113.478C75.3289 117.163 76.3341 119.173 78.2332 120.737C80.1318 122.3 98.8939 133.356 98.8939 133.356C98.8939 133.356 98.3352 134.697 99.3403 136.372C99.3403 136.372 99.1174 144.301 100.569 143.966C102.021 143.631 101.016 136.148 101.685 137.489C102.356 138.828 105.148 144.523 106.041 143.072C106.935 141.621 102.355 134.696 104.477 136.372C106.599 138.047 109.95 141.285 110.62 139.722C111.29 138.159 103.92 134.138 107.046 134.697C110.173 135.256 114.864 135.702 112.742 133.58C110.62 131.458 102.913 131.235 105.818 130.565C108.721 129.895 110.732 127.549 107.381 127.661C104.03 127.773 102.356 130.007 101.909 129.895C101.462 129.783 84.3753 119.285 84.3753 119.285C84.3753 119.285 89.7363 116.828 92.416 116.158V119.423C94.6907 118.877 99.4283 116.877 96.846 109.94Z" fill="#EFCAA6" stroke="black" stroke-width="0.5"/>
<path d="M96.3244 114.818C96.3244 114.818 96.1053 114.975 95.7601 115.164C95.4144 115.35 94.9398 115.557 94.4518 115.726C93.9623 115.892 93.46 116.021 93.0733 116.085C92.6855 116.149 92.4155 116.159 92.4155 116.159C92.4155 116.159 92.6346 116.001 92.9798 115.813C93.325 115.627 93.8002 115.42 94.2886 115.251C94.7782 115.085 95.2805 114.957 95.6672 114.892C96.0556 114.828 96.3244 114.818 96.3244 114.818Z" fill="#C39368" stroke="black" stroke-width="0.5"/>
<path d="M180.307 73.6094C180.642 72.6048 184.997 66.9085 183.881 66.0146C182.764 65.1217 179.748 71.5985 178.855 71.0403C177.962 70.4822 179.86 61.3246 177.627 62.5532C175.393 63.7813 176.621 71.3125 175.505 70.5629C174.388 69.8122 173.606 60.8748 171.931 62.4393C170.256 64.0042 174.388 71.9343 172.713 71.5991C171.037 71.2644 168.718 70.2421 167.017 71.2644C165.316 72.2861 171.484 72.8272 172.043 74.391C172.601 75.9549 172.489 76.6248 172.489 76.6248C172.489 76.6248 165.566 89.579 154.9 97.3968C144.449 105.057 132.128 109.283 129.115 109.345C129.118 112.693 129.926 117.082 133.856 118.56L132.956 113.937C132.956 113.937 158.194 112.139 177.627 76.2902C177.627 76.2902 178.632 76.6315 179.526 75.6224C179.526 75.6224 186.226 74.9498 186.226 73.6094C186.226 72.2695 179.972 74.6145 180.307 73.6094Z" fill="#EFCAA6" stroke="black" stroke-width="0.5"/>
<path d="M132.062 110.463C132.062 110.463 132.204 110.717 132.368 111.109C132.53 111.502 132.704 112.037 132.839 112.581C132.97 113.125 133.063 113.679 133.102 114.103C133.137 114.528 133.128 114.818 133.128 114.818C133.128 114.818 132.986 114.564 132.821 114.171C132.659 113.779 132.485 113.244 132.351 112.7C132.22 112.155 132.128 111.601 132.089 111.177C132.053 110.753 132.062 110.463 132.062 110.463Z" fill="#C39368" stroke="black" stroke-width="0.5"/>
<path d="M106.682 117.856C110.872 118.402 115.146 118.353 119.313 117.625C127.594 116.178 135.423 112.291 141 106.224C135.623 108.528 131.216 109.755 129.563 109.787C129.5 109.788 129.435 109.791 129.38 109.788C128.267 109.744 123.809 109.723 118.834 109.718C118.93 108.985 118.957 108.356 118.918 107.917H109.024C109.024 107.917 108.875 108.652 108.758 109.731C105.426 109.744 102.931 109.764 102.542 109.788C102.542 109.788 100.136 109.888 96.7052 110.374C95.2818 110.576 93.6797 110.846 92 111.202C95.4322 115.341 101.397 117.167 106.682 117.856Z" fill="#D4D4D4" stroke="black" stroke-width="0.5"/>
<path d="M78 66.6221C78 66.6221 72.3688 64.2366 63.8404 71.1464C55.3119 78.0558 52 92.2041 52 92.2041L54.4844 93.602C54.4844 93.602 59.0377 84.2246 63.1775 80.2767C63.1775 80.2767 57.2987 88.9961 56.1398 95.3296C56.1398 95.3296 61.2733 97.3038 63.3438 97.4679C63.3438 97.4679 65.4968 87.2685 67.0696 85.2123C67.0696 85.2123 64.7509 93.8486 64.9997 98.291C64.9997 98.291 69.471 99.6068 73.0311 99.1135C73.0311 99.1135 72.1206 86.4466 77.5849 78.549L78 66.6221Z" fill="#E08804" stroke="black" stroke-width="0.5"/>
<path opacity="0.3" d="M74.6025 66.3295C73.9629 68.5743 73.5831 71.0851 73.3729 72.9466C72.9735 76.4792 72.8456 80.0665 73.2356 83.6126C73.4852 85.8816 73.877 88.0853 74.3963 90.2241C74.8905 86.4774 75.8459 82.3344 77.661 79.0075L78 66.6344C78 66.6344 76.7619 65.9733 74.6025 66.3295Z" fill="#E08804" stroke="black" stroke-width="0.5"/>
<path d="M154.621 71.8779C151.94 47.3641 125.305 25.9522 95.8222 43.3037C95.8222 43.3037 77.8981 51.7925 74.8827 73.1425C71.8672 94.493 83.2586 102.701 88.9538 104.125C88.9538 104.125 79.685 93.6063 82.477 75.6225C82.477 75.6225 89.2973 76.252 99.1619 76.5491C99.808 72.6734 101.478 65.8951 105.594 61.6399C105.594 61.6399 101.733 68.307 101.501 76.6121C105.234 76.6984 109.327 76.7316 113.602 76.6658C113.693 73.3549 114.239 67.7477 116.65 63.0002C116.65 63.0002 115.45 69.7713 115.453 76.632C121.711 76.4948 128.296 76.1364 134.668 75.4189C134.733 72.6745 134.654 68.4591 133.849 64.5646C133.849 64.5646 135.732 69.5063 136.846 75.1572C140.084 74.7456 143.25 74.2373 146.27 73.6099C146.27 73.6099 147.808 86.2289 142.346 99.5703C142.488 99.3263 142.559 99.1841 142.559 99.1841C142.559 99.1841 157.075 94.3265 154.621 71.8779Z" fill="#F39F00" stroke="black" stroke-width="0.5"/>
<path d="M146.27 73.6094C143.25 74.2367 140.084 74.7451 136.846 75.1567C135.732 69.5052 133.849 64.5641 133.849 64.5641C134.654 68.4558 134.733 72.6695 134.667 75.4134C128.295 76.132 121.712 76.4943 115.453 76.6315C115.45 69.7713 116.65 62.9997 116.65 62.9997C114.24 67.7461 113.692 73.3533 113.602 76.6647C109.326 76.73 105.235 76.6968 101.501 76.6099C101.733 68.3054 105.594 61.6388 105.594 61.6388C101.477 65.894 99.8078 72.6723 99.1617 76.548C89.2971 76.2509 82.4768 75.6214 82.4768 75.6214C82.0547 78.3398 81.9125 80.8833 81.9673 83.2488C82.0624 87.3148 82.7506 90.8458 83.6645 93.7899C85.7367 100.469 88.9536 104.125 88.9536 104.125C88.9536 104.125 98.8375 116.102 117.767 113.589C134.678 111.344 141.156 101.618 142.346 99.5686C143.249 97.3647 143.957 95.1812 144.515 93.0708C145.36 89.8811 145.857 86.8612 146.138 84.192C146.795 77.9343 146.27 73.6094 146.27 73.6094Z" fill="#F4D9BF" stroke="black" stroke-width="0.5"/>
<path d="M88.9538 54.8478C88.3259 55.5348 87.7268 56.2424 87.1598 56.9765C86.5966 57.7128 86.0379 58.4496 85.5168 59.2136L84.7556 60.3714L84.0293 61.5503C83.5718 62.3502 83.1076 63.1474 82.7005 63.9738C82.4897 64.3832 82.274 64.7909 82.0947 65.2147L81.5238 66.4721L81.0204 67.7577C80.8428 68.1831 80.7029 68.6212 80.5579 69.0583C80.4174 69.4964 80.2565 69.929 80.132 70.3721L79.773 71.707C79.6374 72.1495 79.5489 72.6015 79.4626 73.0551L79.1927 74.4148L79.1158 74.2434C79.3597 74.4043 79.6197 74.5731 79.8875 74.7147C80.1525 74.8651 80.4307 74.9924 80.7106 75.1124C80.9933 75.2303 81.2804 75.3354 81.5769 75.415C81.8674 75.5207 82.1749 75.5511 82.4775 75.623C82.1722 75.5882 81.8546 75.5998 81.5515 75.5251C81.2428 75.4726 80.9413 75.3929 80.642 75.2994C80.345 75.2031 80.0479 75.0997 79.7613 74.9697C79.4698 74.8497 79.1932 74.7064 78.915 74.5393L78.822 74.4829L78.8375 74.3678L79.0333 72.9776C79.0947 72.513 79.16 72.0483 79.2707 71.593L79.5733 70.2183C79.6872 69.7641 79.8377 69.3188 79.9677 68.8674C80.0988 68.4171 80.2338 67.9668 80.4136 67.5325L80.9137 66.2165L81.4928 64.9336C81.6793 64.5027 81.9028 64.0895 82.1218 63.6746C82.3431 63.2613 82.5456 62.837 82.7973 62.4409C83.0401 62.0404 83.2752 61.6349 83.5264 61.2394L84.3086 60.0722L85.145 58.9442C85.7209 58.2073 86.3056 57.4771 86.944 56.7939C87.5841 56.1129 88.2363 55.443 88.9538 54.8478Z" fill="#CC6809" stroke="black" stroke-width="0.5"/>
<path d="M143.229 54.8478C143.531 55.0978 143.768 55.443 143.998 55.7594C144.228 56.0858 144.448 56.4177 144.659 56.7558C145.088 57.4301 145.452 58.1393 145.822 58.8468L146.342 59.9245C146.51 60.2862 146.655 60.6585 146.813 61.0259C146.971 61.3926 147.1 61.771 147.244 62.1439C147.389 62.5167 147.509 62.8973 147.629 63.2785C147.747 63.6602 147.883 64.0375 147.981 64.4247L148.286 65.5842L148.539 66.757C148.631 67.147 148.694 67.5414 148.748 67.938L148.92 69.1246L149.016 70.3201C149.094 71.1156 149.064 71.9177 149.093 72.7121L149.098 72.8427L148.979 72.8753C148.076 73.1187 147.18 73.3859 146.27 73.6094C147.13 73.2376 148.005 72.9079 148.871 72.5561L148.757 72.7199C148.675 71.9349 148.651 71.1466 148.521 70.3693L148.353 69.2026L148.144 68.0437C148.079 67.6565 147.997 67.272 147.906 66.8903L147.645 65.7424L147.337 64.6056C147.246 64.2239 147.117 63.8521 147.005 63.4765C146.892 63.0992 146.775 62.7253 146.641 62.3557C146.512 61.9846 146.399 61.6073 146.256 61.2416C145.98 60.5059 145.698 59.7712 145.398 59.0421C145.088 58.318 144.753 57.6049 144.406 56.8957C144.234 56.5411 144.055 56.1893 143.864 55.8435C143.661 55.5017 143.497 55.1487 143.229 54.8478Z" fill="#CC6809" stroke="black" stroke-width="0.5"/>
<path d="M121.788 81.6777C121.788 81.6777 123.211 79.2487 124.887 79.6674C126.561 80.0867 127.148 81.6362 127.399 82.3272C127.65 83.0181 125.389 79.9186 121.788 81.6777Z" fill="#CC6809" stroke="black" stroke-width="0.5"/>
<path d="M96.6172 82.5374C96.6172 82.5374 98.0411 80.1083 99.7162 80.527C101.392 80.9458 101.978 82.4964 102.229 83.1863C102.481 83.8778 100.218 80.7788 96.6172 82.5374Z" fill="#CC6809" stroke="black" stroke-width="0.5"/>
<path d="M102.057 101.24C102.057 101.24 112.406 108.229 125.167 100.717C125.167 100.717 122.794 110.368 113.525 110.574C104.256 110.78 102.057 101.24 102.057 101.24Z" fill="white" stroke="black" stroke-width="0.5"/>
<path d="M112.295 94.2695C112.295 94.2695 112.186 94.2518 112 94.243C111.817 94.2358 111.55 94.2314 111.277 94.3061C111.141 94.3409 111.015 94.4117 110.902 94.4925C110.793 94.5799 110.717 94.706 110.646 94.8404C110.625 94.9041 110.577 95.0208 110.581 95.044C110.57 95.1392 110.537 95.2725 110.562 95.3068C110.556 95.4008 110.631 95.5878 110.71 95.7255C110.794 95.8755 110.908 96.0226 111.038 96.157C111.174 96.2881 111.308 96.4226 111.454 96.5376C111.603 96.6494 111.747 96.7611 111.892 96.8585C112.04 96.9498 112.178 97.0427 112.313 97.1163C112.581 97.2656 112.817 97.3796 112.991 97.4327C113.164 97.4963 113.275 97.5074 113.275 97.5074C113.275 97.4996 113.172 97.5533 112.976 97.5649C112.779 97.5843 112.495 97.5594 112.171 97.4731C111.846 97.3896 111.477 97.2468 111.116 97.0206C110.938 96.9027 110.752 96.7783 110.585 96.6173C110.418 96.4563 110.259 96.2743 110.129 96.0569C110.016 95.8201 109.908 95.6033 109.918 95.273C109.909 95.0966 109.949 95.0296 109.972 94.9223C110.021 94.7458 110.073 94.6811 110.128 94.5627C110.256 94.3531 110.435 94.1766 110.638 94.0704C110.841 93.9664 111.049 93.9232 111.23 93.9249C111.593 93.921 111.859 94.0339 112.035 94.1141C112.208 94.2009 112.295 94.2695 112.295 94.2695Z" fill="#C39368" stroke="black" stroke-width="0.5"/>
<path d="M78.6799 83.381C74.8844 84.8647 76.4096 93.5603 83.6653 93.7905C82.7514 90.8469 82.0632 87.3159 81.9681 83.2493C81.187 82.9091 80.1198 82.8184 78.6799 83.381Z" fill="#EFCAA6" stroke="black" stroke-width="0.5"/>
<path d="M149.707 83.3809C148.201 83.085 147.017 83.5469 146.138 84.193C145.857 86.8622 145.36 89.8821 144.515 93.0718C145.544 93.0453 146.761 92.887 148.144 92.4832C152.722 91.1423 153.392 84.1067 149.707 83.3809Z" fill="#EFCAA6" stroke="black" stroke-width="0.5"/>
<path d="M78.2332 87.3458C78.2332 87.3458 78.6198 87.2467 79.209 87.2943C79.5016 87.3197 79.8457 87.369 80.2009 87.4846C80.5593 87.588 80.9239 87.7629 81.2685 87.9742C81.6005 88.2043 81.9241 88.461 82.1514 88.7708C82.2798 88.913 82.3771 89.0701 82.4568 89.2266C82.547 89.3749 82.6178 89.522 82.6593 89.6686C82.7705 89.9491 82.807 90.1947 82.818 90.3684C82.8357 90.5405 82.8385 90.6362 82.8385 90.6362C82.8385 90.6362 82.7848 90.5537 82.6914 90.4104C82.6504 90.3396 82.5995 90.2539 82.5414 90.1549C82.4756 90.0642 82.4009 89.9613 82.3196 89.8495C82.2466 89.735 82.1476 89.6271 82.0463 89.5121C81.9512 89.3926 81.8383 89.2803 81.715 89.1691C81.6043 89.0474 81.4655 88.9489 81.3327 88.8399C81.206 88.7227 81.0495 88.6369 80.9062 88.5373C80.7624 88.4361 80.6047 88.3537 80.4548 88.2657C80.2938 88.196 80.15 88.0948 79.9912 88.0345C79.6864 87.8862 79.386 87.7734 79.1277 87.6677C78.5905 87.4746 78.2332 87.3458 78.2332 87.3458Z" fill="#C39368" stroke="black" stroke-width="0.5"/>
<path d="M149.595 88.1806C149.595 88.1806 149.239 88.0683 148.748 88.0611C148.626 88.0694 148.496 88.0661 148.362 88.091C148.227 88.1026 148.092 88.1491 147.951 88.1789C147.679 88.2779 147.39 88.388 147.134 88.5783C146.996 88.6558 146.869 88.7526 146.749 88.8588C146.624 88.9556 146.499 89.0552 146.391 89.1675C146.281 89.2776 146.157 89.3683 146.063 89.4806C145.965 89.5879 145.866 89.6847 145.772 89.7754C145.591 89.9613 145.447 90.1289 145.333 90.2363C145.221 90.3469 145.15 90.4089 145.15 90.4089C145.15 90.4089 145.171 90.3198 145.218 90.1693C145.243 90.093 145.272 90.0006 145.311 89.8983C145.352 89.7965 145.386 89.6726 145.456 89.5569C145.584 89.3174 145.73 89.0286 145.959 88.7659C146.066 88.6298 146.178 88.4859 146.325 88.3698C146.46 88.2414 146.605 88.1197 146.77 88.0174C146.927 87.9079 147.106 87.8276 147.283 87.7519C147.457 87.6711 147.652 87.6423 147.828 87.6042C148.013 87.5804 148.19 87.5715 148.357 87.5931C148.524 87.5959 148.677 87.6479 148.814 87.6844C149.366 87.8686 149.595 88.1806 149.595 88.1806Z" fill="#C39368" stroke="black" stroke-width="0.5"/>
<path d="M103.434 91.1208C103.518 93.1643 102.862 94.8488 101.967 94.8864C101.073 94.9235 100.278 93.2982 100.196 91.2542C100.111 89.2112 100.77 87.5256 101.664 87.4897C102.558 87.452 103.351 89.079 103.434 91.1208Z" fill="#673121" stroke="black" stroke-width="0.5"/>
<path d="M101.519 89.6482C101.492 90.2666 101.253 90.7607 100.982 90.7485C100.71 90.7369 100.512 90.2263 100.537 89.6067C100.562 88.9888 100.802 88.4948 101.074 88.5069C101.346 88.5186 101.544 89.0292 101.519 89.6482Z" fill="white" stroke="black" stroke-width="0.5"/>
<path d="M126.354 89.5618C126.437 91.6042 125.781 93.2892 124.886 93.3269C123.992 93.3634 123.198 91.7381 123.115 89.694C123.031 87.6516 123.689 85.9666 124.583 85.9301C125.478 85.8925 126.271 87.5189 126.354 89.5618Z" fill="#673121" stroke="black" stroke-width="0.5"/>
<path d="M124.438 88.0882C124.411 88.7072 124.172 89.2007 123.901 89.189C123.628 89.1774 123.431 88.6668 123.455 88.0472C123.481 87.4282 123.721 86.9353 123.993 86.9475C124.265 86.9586 124.463 87.4691 124.438 88.0882Z" fill="white" stroke="black" stroke-width="0.5"/>
<path d="M99.4977 97.5793C99.495 98.7576 97.1987 99.7085 94.3674 99.7041C91.5351 99.6991 89.241 98.7421 89.2432 97.5644C89.2448 96.3855 91.5411 95.4346 94.373 95.439C97.2053 95.4429 99.4989 96.401 99.4977 97.5793Z" fill="#F9CBC0" stroke="black" stroke-width="0.5"/>
<path d="M138.255 95.4468C138.253 96.6245 135.957 97.5755 133.125 97.5716C130.293 97.5661 127.999 96.6091 128 95.4319C128.002 94.2524 130.299 93.302 133.13 93.307C135.963 93.3109 138.257 94.269 138.255 95.4468Z" fill="#F9CBC0" stroke="black" stroke-width="0.5"/>
<path d="M97.1133 76.4805C97.7804 76.5054 98.4625 76.5281 99.1618 76.5486C99.8079 72.6729 101.477 65.8946 105.594 61.6394C100.698 64.4994 98.1107 72.5689 97.1133 76.4805Z" fill="#CC6809" stroke="black" stroke-width="0.5"/>
<path d="M113.602 76.6653C113.692 73.3545 114.239 67.7473 116.65 62.9998C112.813 66.8788 111.682 73.6493 111.358 76.6875C112.103 76.6819 112.845 76.6775 113.602 76.6653Z" fill="#CC6809" stroke="black" stroke-width="0.5"/>
<path d="M129.983 75.8786C131.552 75.7442 133.117 75.5921 134.668 75.4178C134.732 72.7099 134.654 68.5715 133.877 64.7207C132.235 60.2442 130.164 57.4711 130.164 57.4711C132.302 64.0165 130.781 72.4118 129.983 75.8786Z" fill="#CC6809" stroke="black" stroke-width="0.5"/>
<path d="M92 122.224V122.224H135H134.729C120.485 122.224 106.235 122.224 92 122.224Z" fill="#D4D4D4" stroke="black" stroke-width="0.5"/>
</g>
<defs>
<filter id="filter0_d_131_4801" x="47.7139" y="36.75" width="142.762" height="186.267" filterUnits="userSpaceOnUse" color-interpolation-filters="sRGB">
<feFlood flood-opacity="0" result="BackgroundImageFix"/>
<feColorMatrix in="SourceAlpha" type="matrix" values="0 0 0 0 0 0 0 0 0 0 0 0 0 0 0 0 0 0 127 0" result="hardAlpha"/>
<feOffset dy="4"/>
<feGaussianBlur stdDeviation="2"/>
<feComposite in2="hardAlpha" operator="out"/>
<feColorMatrix type="matrix" values="0 0 0 0 0 0 0 0 0 0 0 0 0 0 0 0 0 0 0.25 0"/>
<feBlend mode="normal" in2="BackgroundImageFix" result="effect1_dropShadow_131_4801"/>
<feBlend mode="normal" in="SourceGraphic" in2="effect1_dropShadow_131_4801" result="shape"/>
</filter>
</defs>
</svg>
