<svg width="238" height="252" viewBox="0 0 238 252" fill="none" xmlns="http://www.w3.org/2000/svg">
<path d="M0.5 40C0.5 18.1847 18.1848 0.5 40 0.5H198C219.815 0.5 237.5 18.1848 237.5 40V212C237.5 233.815 219.815 251.5 198 251.5H40C18.1847 251.5 0.5 233.815 0.5 212V40Z" fill="black" fill-opacity="0.5" stroke="#E30613"/>
<g filter="url(#filter0_d_128_3916)">
<path d="M165.75 211.541L163.25 213.363V122.262L165.75 123.532V211.541Z" fill="#505B75" stroke="black" stroke-width="0.5"/>
<path d="M162.75 213.604H72.25V122.389L162.75 122.105V213.604Z" fill="#F2F2F2" stroke="black" stroke-width="0.5"/>
<path d="M88.7299 198.331L113.343 170.307L113.496 170.132L113.333 169.966L88.3741 144.591L96.4954 138.202L118.153 164.392L118.34 164.618L118.534 164.397L138.01 142.222L145.63 149.32L122.977 169.85L122.8 170.01L122.952 170.195L144.302 196.013L141.56 198.664L117.986 174.697L117.818 174.526L117.64 174.687L90.2342 199.526L88.7299 198.331Z" fill="#E30613" stroke="black" stroke-width="0.5"/>
<path d="M161.377 125.578C161.377 126.087 160.964 126.5 160.455 126.5C159.945 126.5 159.532 126.087 159.532 125.578C159.532 125.068 159.945 124.654 160.455 124.654C160.964 124.654 161.377 125.068 161.377 125.578Z" fill="#C6C6C6" stroke="black" stroke-width="0.5"/>
<path d="M75.685 125.578C75.685 126.087 75.2718 126.5 74.7622 126.5C74.2524 126.5 73.8389 126.087 73.8389 125.578C73.8389 125.068 74.2525 124.654 74.7622 124.654C75.2718 124.654 75.685 125.068 75.685 125.578Z" fill="#C6C6C6" stroke="black" stroke-width="0.5"/>
<path d="M161.377 211.542C161.377 212.051 160.964 212.464 160.455 212.464C159.945 212.464 159.532 212.051 159.532 211.542C159.532 211.032 159.945 210.619 160.455 210.619C160.964 210.619 161.377 211.032 161.377 211.542Z" fill="#C6C6C6" stroke="black" stroke-width="0.5"/>
<path d="M75.685 211.542C75.685 212.051 75.2719 212.464 74.7622 212.464C74.2523 212.464 73.8389 212.05 73.8389 211.542C73.8389 211.032 74.2524 210.619 74.7622 210.619C75.2718 210.619 75.685 211.032 75.685 211.542Z" fill="#C6C6C6" stroke="black" stroke-width="0.5"/>
<path d="M93.2853 115.012L87.3947 110.676C92.2724 105.649 96.2096 104.122 98.9166 103.842C100.847 103.641 102.172 104.074 102.788 104.348C99.4678 106.226 97.0908 108.895 95.5315 111.123C94.7192 112.283 94.127 113.326 93.7375 114.08C93.5426 114.457 93.3984 114.762 93.3025 114.974C93.2966 114.987 93.2909 114.999 93.2853 115.012Z" fill="#11B1C8" stroke="black" stroke-width="0.5"/>
<path d="M93.2991 114.981C93.2944 114.992 93.2898 115.002 93.2854 115.012L91.3551 113.592C93.9021 110.734 96.7156 108.216 99.9107 106.337C98.0083 107.907 96.5427 109.67 95.4722 111.211C94.6807 112.35 94.1033 113.372 93.7234 114.109C93.5334 114.477 93.3926 114.775 93.2991 114.981Z" fill="#149DB1" stroke="black" stroke-width="0.5"/>
<path d="M134.11 112.661C134.641 114.485 135.321 116.566 136.017 117.959V117.969V122.705H93.6401V115.449C93.6443 115.439 93.6493 115.427 93.6549 115.414C93.6775 115.361 93.7118 115.282 93.7581 115.18C93.8507 114.976 93.9913 114.679 94.1818 114.31C94.5631 113.572 95.144 112.548 95.9413 111.41C97.5264 109.145 99.9591 106.435 103.367 104.599L103.521 104.614C103.669 104.629 103.886 104.651 104.167 104.68C104.727 104.738 105.54 104.823 106.547 104.933C108.561 105.151 111.352 105.467 114.461 105.853C120.62 106.619 128.015 107.662 133.084 108.786C133.205 109.292 133.59 110.872 134.11 112.661Z" fill="#F9CA29" stroke="black" stroke-width="0.5"/>
<path d="M136.017 122.705H93.6401V122.143C99.5166 122.133 105.393 122.115 111.271 122.098C119.519 122.073 127.768 122.048 136.017 122.043V122.705Z" fill="#F6B92B" stroke="black" stroke-width="0.5"/>
<path d="M138.903 121.571C138.88 121.578 138.858 121.584 138.838 121.589L136.84 118.412L136.84 118.412L136.824 118.386C136.043 117.144 135.222 114.693 134.59 112.521C134.133 110.949 133.784 109.551 133.628 108.909C134.945 109.213 136.081 109.52 136.966 109.828L136.966 109.828C140.779 111.154 143.259 113.058 144.784 114.624C145.547 115.408 146.071 116.107 146.404 116.609C146.57 116.86 146.688 117.061 146.764 117.198C146.777 117.22 146.788 117.241 146.799 117.26C145.441 118.77 143.453 119.856 141.766 120.571C140.903 120.937 140.126 121.203 139.565 121.378C139.285 121.465 139.059 121.529 138.903 121.571Z" fill="#11B1C8" stroke="black" stroke-width="0.5"/>
<path d="M139.281 121.462C139.093 121.518 138.943 121.56 138.837 121.588L136.84 118.412L136.84 118.412L136.824 118.386C136.284 117.527 135.721 116.082 135.213 114.54C134.83 113.377 134.483 112.172 134.205 111.148C136.361 113.47 137.922 116.273 139.5 119.102C139.858 119.746 140.218 120.391 140.585 121.032C140.064 121.221 139.614 121.363 139.281 121.462Z" fill="#149DB1" stroke="black" stroke-width="0.5"/>
<path d="M94.3932 105.263C99.9348 102.453 103.16 104.536 103.181 104.55L103.181 104.55L103.194 104.558L103.208 104.565L103.211 104.567L103.252 104.587L103.298 104.592L103.323 104.343C103.298 104.592 103.298 104.592 103.298 104.592L103.299 104.592L103.302 104.592L103.312 104.593L103.355 104.598L103.522 104.614C103.67 104.629 103.887 104.651 104.168 104.68C104.728 104.738 105.541 104.823 106.548 104.933C108.562 105.151 111.354 105.467 114.462 105.853C120.683 106.627 128.165 107.684 133.238 108.82L94.3932 105.263ZM94.3932 105.263C95.3299 106.617 96.3863 107.862 97.5363 109.009C106.931 118.371 122.827 120.701 135.373 115.781C137.705 114.866 139.915 113.702 141.948 112.287C140.622 111.396 138.987 110.531 136.967 109.828L136.967 109.828C135.996 109.49 134.722 109.153 133.238 108.82L94.3932 105.263Z" fill="#D4D4D4" stroke="black" stroke-width="0.5"/>
<path d="M111.603 129.763L111.526 129.525L111.578 130.012L111.603 129.763ZM111.603 129.763L111.526 129.525L111.526 129.525L111.527 129.525L111.53 129.524L111.54 129.521L111.581 129.507C111.618 129.495 111.671 129.477 111.74 129.454C111.877 129.409 112.073 129.342 112.31 129.259C112.784 129.093 113.421 128.863 114.071 128.603C114.722 128.343 115.381 128.057 115.903 127.779C116.165 127.64 116.386 127.507 116.553 127.383C116.727 127.254 116.815 127.155 116.845 127.094M111.603 129.763L111.578 130.012L111.578 130.012L111.578 130.012L111.58 130.012L111.587 130.013L111.615 130.016L111.723 130.027C111.818 130.037 111.954 130.051 112.123 130.069C112.462 130.105 112.931 130.155 113.456 130.214C114.507 130.331 115.775 130.48 116.654 130.607C117.459 130.724 117.732 131.147 117.749 131.441C117.758 131.595 117.703 131.735 117.6 131.834C117.498 131.931 117.331 132.004 117.088 131.987C117.087 131.987 117.087 131.987 117.087 131.987L117.07 132.237M116.845 127.094L111.604 132.066C111.666 131.824 111.666 131.824 111.666 131.824L111.666 131.824L111.667 131.824L111.67 131.825L111.68 131.827L111.717 131.837C111.75 131.846 111.798 131.859 111.859 131.876C111.981 131.91 112.155 131.961 112.367 132.027C112.426 132.046 112.489 132.066 112.554 132.087C113.879 132.117 116.217 132.177 117.07 132.237M116.845 127.094L117.069 127.204M116.845 127.094L112.173 129.571C113.498 129.115 116.704 127.946 117.069 127.204M116.845 127.094C116.845 127.094 116.845 127.094 116.845 127.094L117.069 127.204M116.845 127.094L111.142 128.021C111.96 127.784 113.779 127.25 114.924 126.86C116.437 126.345 117.531 126.267 117.069 127.204M117.07 132.237C118.287 132.321 118.456 130.616 116.689 130.36C115.387 130.171 113.239 129.936 112.202 129.826L117.07 132.237ZM105.419 127.632C105.999 127.534 106.718 127.717 107.272 127.859C107.683 127.963 108.003 128.045 108.111 127.973C108.159 127.94 108.325 127.779 108.564 127.547C109.583 126.556 111.927 124.276 112.064 125.244C112.186 126.11 111.423 127.245 110.994 127.803L90.1147 121.857C94.5271 124.198 105.419 127.632 105.419 127.632ZM105.419 127.632C105.344 127.87 105.344 127.87 105.344 127.87L105.344 127.87L105.342 127.87L105.336 127.868L105.313 127.86L105.22 127.831C105.139 127.805 105.02 127.767 104.866 127.718C104.559 127.619 104.116 127.476 103.57 127.296C102.479 126.937 100.978 126.434 99.3388 125.858C96.0927 124.717 92.2851 123.282 90.052 122.106M105.419 127.632L105.344 127.87L105.402 127.888L105.461 127.878C105.907 127.803 106.469 127.916 106.989 128.045C107.061 128.063 107.133 128.081 107.203 128.099C107.376 128.143 107.54 128.185 107.677 128.212C107.774 128.232 107.87 128.247 107.957 128.25C108.032 128.252 108.151 128.247 108.251 128.18C108.285 128.157 108.327 128.118 108.364 128.085C108.406 128.046 108.459 127.996 108.52 127.937C108.582 127.877 108.656 127.805 108.739 127.725C108.815 127.651 108.898 127.571 108.985 127.486C109.354 127.13 109.82 126.686 110.282 126.285C110.75 125.881 111.196 125.536 111.526 125.364C111.676 125.286 111.768 125.263 111.813 125.26C111.814 125.265 111.815 125.271 111.816 125.279C111.85 125.521 111.801 125.807 111.689 126.115C111.579 126.421 111.415 126.73 111.242 127.009C111.069 127.287 110.891 127.53 110.755 127.704C110.688 127.79 110.631 127.859 110.592 127.906C110.572 127.93 110.556 127.948 110.546 127.96L110.535 127.973L110.532 127.976L110.531 127.977L110.531 127.977L110.531 127.977L110.531 127.977L109.962 128.618L110.787 128.383L110.718 128.143L110.787 128.383L110.787 128.383L110.787 128.383L110.789 128.382L110.795 128.381L110.818 128.374L110.906 128.349C110.983 128.327 111.094 128.295 111.232 128.255C111.509 128.175 111.893 128.063 112.325 127.934C113.187 127.678 114.242 127.356 115.004 127.097M90.052 122.106L115.004 127.097M90.052 122.106C88.2454 122.096 86.2279 122.128 84.2675 122.158C83.348 122.173 82.441 122.187 81.5743 122.197C81.9083 122.497 82.37 122.818 82.9454 123.156C83.777 123.644 84.8221 124.151 86.0064 124.663C88.3747 125.686 91.2804 126.718 94.1059 127.641C96.9304 128.564 99.6699 129.375 101.704 129.956C102.72 130.246 103.56 130.479 104.146 130.639C104.439 130.719 104.668 130.781 104.824 130.822L105.002 130.87L105.047 130.882L105.059 130.885L105.062 130.886L105.062 130.886C105.063 130.886 105.063 130.886 104.999 131.128L105.063 130.886L105.206 130.924L105.241 131.067L105.242 131.067L105.242 131.067L105.242 131.068L105.242 131.068L105.242 131.07L105.246 131.083C105.249 131.095 105.255 131.114 105.263 131.14C105.28 131.191 105.307 131.267 105.346 131.361C105.426 131.549 105.556 131.809 105.759 132.09C106.162 132.649 106.853 133.293 108.01 133.616L108.068 133.633L108.112 133.674L107.942 133.857L108.112 133.674L108.113 133.674L108.113 133.674L108.114 133.675L108.119 133.679L108.135 133.695C108.15 133.709 108.172 133.729 108.199 133.755C108.254 133.808 108.333 133.884 108.429 133.979C108.622 134.169 108.885 134.436 109.167 134.743C109.725 135.351 110.38 136.144 110.693 136.822L90.052 122.106ZM115.004 127.097C115.004 127.097 115.004 127.097 115.004 127.097L114.924 126.86L115.004 127.097Z" fill="#C6C6C6" stroke="black" stroke-width="0.5"/>
<path d="M126.783 133.785L126.783 133.785L126.783 133.785L126.787 133.784L126.804 133.781C126.819 133.779 126.842 133.774 126.872 133.769C126.931 133.757 127.018 133.739 127.124 133.712C127.337 133.659 127.626 133.574 127.927 133.446C128.544 133.184 129.156 132.768 129.374 132.137L129.421 132.001L129.562 131.974L129.611 132.219C129.562 131.974 129.562 131.974 129.562 131.974L129.563 131.973L129.565 131.973L129.574 131.971L129.612 131.963L129.76 131.933C129.89 131.907 130.081 131.867 130.324 131.816C130.81 131.713 131.506 131.561 132.342 131.369C134.015 130.983 136.25 130.432 138.5 129.771C140.753 129.11 143.011 128.34 144.736 127.519C145.599 127.108 146.318 126.688 146.834 126.27C147.357 125.845 147.633 125.453 147.685 125.103L147.929 125.139L147.685 125.103C147.838 124.093 147.705 123.083 147.458 122.115C147.139 122.114 146.822 122.113 146.505 122.111C145.285 122.104 144.073 122.098 142.855 122.118L143.541 123.746L143.649 124.002L143.382 124.082L129.007 128.401L128.913 128.429L128.824 128.386L126.71 127.347L126.622 127.303L126.587 127.211L126.587 127.211L126.587 127.211L126.587 127.211L126.587 127.21L126.585 127.206L126.578 127.189C126.572 127.174 126.563 127.151 126.551 127.122C126.527 127.063 126.491 126.979 126.443 126.878C126.349 126.674 126.211 126.405 126.039 126.137C125.866 125.867 125.665 125.609 125.445 125.421C125.224 125.233 125.005 125.131 124.791 125.131C124.664 125.131 124.594 125.15 124.558 125.167C124.53 125.181 124.525 125.192 124.521 125.203C124.513 125.223 124.506 125.265 124.518 125.344C124.53 125.422 124.558 125.518 124.602 125.633C124.691 125.866 124.831 126.138 124.989 126.441C124.994 126.45 124.999 126.46 125.004 126.47C125.155 126.758 125.317 127.07 125.444 127.374L125.444 127.374C125.701 127.985 125.914 128.573 126.063 129.008C126.138 129.226 126.197 129.406 126.237 129.532C126.257 129.594 126.272 129.644 126.283 129.677L126.295 129.716L126.298 129.726L126.299 129.729L126.299 129.729L126.299 129.73L126.299 129.73L126.059 129.802M126.783 133.785L123.07 137.604C123.069 137.587 123.071 137.56 123.079 137.519C123.126 137.275 123.327 136.874 123.62 136.383C123.868 135.969 124.164 135.52 124.448 135.089C124.494 135.02 124.539 134.952 124.583 134.884C124.901 134.4 125.197 133.943 125.354 133.624L125.354 133.623C125.398 133.532 125.438 133.417 125.42 133.296C125.398 133.149 125.3 133.053 125.187 133.008C125.09 132.969 124.983 132.965 124.891 132.97C124.793 132.975 124.684 132.993 124.569 133.018C124.133 133.114 123.502 133.34 122.843 133.576C122.819 133.585 122.795 133.593 122.772 133.602C122.076 133.851 121.346 134.111 120.727 134.266C120.418 134.344 120.147 134.393 119.929 134.404C119.706 134.415 119.582 134.383 119.523 134.345C119.523 134.344 119.524 134.343 119.524 134.342C119.564 134.268 119.676 134.151 119.88 133.999C120.277 133.704 120.902 133.365 121.553 133.035C121.848 132.886 122.151 132.737 122.437 132.597C122.767 132.435 123.072 132.286 123.311 132.161C123.532 132.046 123.724 131.939 123.836 131.852C123.865 131.829 123.897 131.802 123.924 131.77C123.946 131.746 123.995 131.686 124.005 131.598C124.011 131.548 124.004 131.49 123.975 131.436C123.948 131.385 123.909 131.351 123.876 131.33C123.817 131.293 123.755 131.283 123.72 131.279L123.72 131.279C123.602 131.266 123.412 131.25 123.174 131.229C122.594 131.179 121.728 131.104 120.926 130.989C120.362 130.909 119.857 130.811 119.528 130.697C119.423 130.66 119.349 130.627 119.302 130.599C119.338 130.58 119.393 130.558 119.476 130.536C119.631 130.495 119.839 130.466 120.089 130.451C120.588 130.419 121.215 130.44 121.835 130.483C122.453 130.526 123.056 130.59 123.506 130.644C123.73 130.67 123.916 130.694 124.046 130.712C124.11 130.721 124.161 130.728 124.195 130.732L124.234 130.738L124.244 130.739L124.247 130.74L124.247 130.74L124.247 130.74L124.283 130.492M126.783 133.785L126.783 133.785L126.783 133.785L126.665 133.802L126.605 133.905L126.605 133.905L126.605 133.905L126.604 133.906L126.603 133.907L126.599 133.914L126.583 133.942C126.568 133.967 126.546 134.003 126.517 134.05C126.46 134.143 126.375 134.278 126.27 134.44C126.058 134.766 125.761 135.202 125.417 135.649C125.073 136.096 124.686 136.548 124.297 136.907C123.901 137.271 123.528 137.515 123.213 137.586L126.783 133.785ZM126.059 129.802L125.919 130.009L125.919 130.009L125.918 130.008L125.916 130.007L125.907 130L125.871 129.976C125.839 129.955 125.792 129.923 125.732 129.883C125.612 129.802 125.439 129.687 125.227 129.547C124.803 129.267 124.223 128.89 123.602 128.503C122.98 128.116 122.319 127.72 121.73 127.399C121.134 127.075 120.636 126.841 120.332 126.764C120.012 126.682 119.868 126.718 119.82 126.747C119.8 126.759 119.768 126.783 119.785 126.894C119.802 127.01 119.874 127.17 120.007 127.337C120.137 127.502 120.313 127.658 120.515 127.771C120.99 128.035 121.971 128.666 122.824 129.226C123.253 129.507 123.653 129.771 123.945 129.966C124.091 130.063 124.21 130.143 124.293 130.198L124.389 130.262L124.414 130.279L124.421 130.283L124.422 130.284L124.423 130.285L124.423 130.285L124.283 130.492M126.059 129.802L126.299 129.73L126.503 130.406L125.919 130.009L126.059 129.802ZM124.283 130.492L124.423 130.285L124.247 130.74L124.283 130.492ZM123.514 131.51C123.586 131.517 123.645 131.523 123.691 131.528L123.514 131.51ZM123.514 131.51C123.52 131.489 123.528 131.473 123.533 131.464C123.54 131.451 123.547 131.443 123.548 131.441C123.548 131.441 123.549 131.441 123.549 131.441C123.549 131.441 123.544 131.446 123.53 131.457C123.512 131.471 123.488 131.487 123.46 131.505L123.514 131.51ZM123.663 131.776C123.667 131.777 123.667 131.777 123.663 131.776C123.655 131.775 123.635 131.769 123.61 131.754C123.6 131.747 123.588 131.739 123.576 131.727C123.616 131.702 123.649 131.68 123.676 131.659L123.663 131.776Z" fill="#C6C6C6" stroke="black" stroke-width="0.5"/>
<path d="M111.539 110.258C111.551 110.208 111.561 110.163 111.571 110.123L122.734 111.188C122.733 111.201 122.732 111.214 122.73 111.229C122.713 111.407 122.681 111.664 122.62 111.974C122.5 112.593 122.27 113.418 121.833 114.244C120.965 115.883 119.276 117.543 115.932 117.603C114.26 117.633 113.185 117.164 112.493 116.478C111.796 115.786 111.456 114.842 111.322 113.866C111.188 112.89 111.262 111.904 111.372 111.158C111.427 110.785 111.49 110.475 111.539 110.258Z" fill="#EFCAA6" stroke="black" stroke-width="0.5"/>
<path d="M142.631 64.1391L142.557 63.9003L142.557 63.9004L142.556 63.9008L142.551 63.9023L142.531 63.9085L142.453 63.9325C142.384 63.9535 142.282 63.9843 142.152 64.0234C141.891 64.1015 141.516 64.2126 141.058 64.3443C140.142 64.6078 138.895 64.9535 137.573 65.2829C136.25 65.6126 134.854 65.9248 133.639 66.1223C132.41 66.322 131.407 66.3966 130.845 66.2777L130.845 66.2777C130.582 66.2222 130.432 66.1187 130.346 66.002C130.257 65.8827 130.211 65.7184 130.216 65.4998C130.225 65.0516 130.445 64.4644 130.763 63.8556C131.077 63.2555 131.467 62.6676 131.781 62.2277C131.938 62.0082 132.075 61.8268 132.172 61.7005C132.221 61.6373 132.26 61.588 132.286 61.5546L132.317 61.5168L132.324 61.5074L132.326 61.5052L132.327 61.5047L132.327 61.5046L132.745 60.9918L132.092 61.1C122.648 62.6648 116.834 64.0346 113.17 64.9764C112.322 65.1943 111.594 65.3881 110.963 65.5561C110.225 65.7525 109.62 65.9135 109.115 66.0357C108.168 66.2645 107.633 66.3399 107.273 66.2762L107.273 66.2761C107.211 66.2651 107.181 66.2445 107.164 66.2273C107.146 66.2089 107.126 66.1762 107.114 66.1141C107.088 65.9798 107.11 65.7649 107.199 65.4682C107.373 64.884 107.761 64.1143 108.213 63.335C108.663 62.5602 109.165 61.793 109.556 61.2185C109.751 60.9315 109.918 60.6931 110.036 60.5267C110.095 60.4435 110.142 60.3783 110.174 60.334L110.211 60.2835L110.22 60.2708L110.222 60.2676L110.223 60.2669L110.223 60.2667L110.021 60.1191L110.223 60.2667L109.864 59.9246C104.306 64.4156 100.268 69.9134 97.6207 74.2838C96.2965 76.4698 95.3188 78.3758 94.6719 79.7362C94.3703 80.3706 94.1404 80.8865 93.9809 81.2569C93.9638 81.1944 93.9459 81.1278 93.9272 81.0571C93.7764 80.4873 93.5756 79.6549 93.3766 78.6077C92.9785 76.5131 92.5882 73.5616 92.6194 70.1369C92.682 63.2869 94.4306 54.558 101.163 46.9948C107.876 39.4521 119.845 36.2777 131.039 37.5076C142.233 38.7375 152.547 44.358 156.021 54.2819L156.272 54.9997L156.496 54.2729L156.257 54.1993L156.496 54.2729L156.496 54.2727L156.496 54.2719L156.497 54.2686L156.501 54.2551L156.518 54.2021C156.532 54.1557 156.554 54.0876 156.582 54.0019C156.638 53.8304 156.719 53.5884 156.819 53.3067C157.02 52.7421 157.294 52.0236 157.592 51.3963C157.741 51.0824 157.894 50.7962 158.045 50.5652C158.199 50.3291 158.336 50.1719 158.448 50.0941C158.502 50.0567 158.537 50.0473 158.554 50.0456C158.565 50.0446 158.578 50.0453 158.599 50.0601C158.659 50.1022 158.763 50.2381 158.865 50.5845C159.272 51.9681 159.272 53.2736 159.17 54.2355C159.119 54.7159 159.042 55.1087 158.979 55.3804C158.947 55.5161 158.919 55.6214 158.898 55.6921C158.888 55.7274 158.88 55.754 158.875 55.7714L158.869 55.7905L158.867 55.7947L158.867 55.7954L158.867 55.7956L158.765 56.1012L159.087 56.1238L159.104 55.8744L159.087 56.1238L159.087 56.1238L159.088 56.1239L159.093 56.1243L159.114 56.1257L159.192 56.1316C159.261 56.1368 159.361 56.1447 159.489 56.1553C159.743 56.1765 160.104 56.2084 160.529 56.2514C161.38 56.3375 162.483 56.4677 163.501 56.6442C164.53 56.8228 165.435 57.043 165.913 57.2967C166.03 57.3588 166.107 57.4157 166.153 57.4636C166.197 57.5104 166.197 57.5327 166.197 57.5328C166.197 57.5341 166.197 57.5397 166.192 57.5518C166.186 57.5648 166.174 57.5857 166.149 57.6141C166.098 57.6726 166.005 57.7473 165.85 57.8345C164.543 58.5697 163.19 58.9253 162.162 59.0966C161.648 59.1821 161.217 59.2213 160.915 59.2391C160.765 59.248 160.646 59.2515 160.567 59.2529C160.555 59.2531 160.544 59.2532 160.534 59.2533C160.51 59.2536 160.491 59.2537 160.476 59.2536L160.454 59.2535L160.449 59.2534L160.448 59.2534L160.448 59.2534L159.644 59.2375L160.297 59.7064L160.297 59.7065L160.298 59.7066L160.299 59.7079L160.307 59.7138C160.315 59.7194 160.326 59.7279 160.342 59.7395C160.372 59.7628 160.418 59.7983 160.478 59.8459C160.596 59.9412 160.768 60.0851 160.979 60.2773C161.4 60.662 161.974 61.2395 162.582 62.0075C163.798 63.5436 165.148 65.8376 165.683 68.8724C166.736 74.8371 164.658 83.7661 151.966 95.537C153.399 88.2934 152.849 81.8233 151.92 77.1167C151.439 74.6809 150.856 72.716 150.392 71.3589C150.161 70.6802 149.959 70.1534 149.815 69.7954C149.742 69.6164 149.685 69.4796 149.645 69.3871C149.631 69.3554 149.62 69.3288 149.61 69.3076C149.606 69.298 149.602 69.2894 149.599 69.282L149.587 69.2548L149.583 69.2477L149.583 69.2458L149.582 69.2452C149.582 69.245 149.582 69.2449 149.355 69.3491L149.582 69.2449L149.346 68.7309L149.125 69.251L149.125 69.2511L149.125 69.2513L149.125 69.2518L149.123 69.2565L149.113 69.2782C149.108 69.288 149.102 69.3004 149.095 69.3152C149.088 69.3303 149.08 69.3479 149.07 69.3679C149.03 69.4474 148.969 69.5648 148.882 69.7124C148.71 70.0077 148.439 70.4236 148.047 70.8985C147.265 71.8481 146.003 73.0338 144.085 73.9653C143.637 74.1832 143.329 74.1789 143.111 74.0769C142.885 73.9711 142.689 73.7295 142.535 73.3305C142.225 72.529 142.148 71.2587 142.197 69.8855C142.246 68.5233 142.415 67.0989 142.573 66.0126C142.652 65.4701 142.728 65.0131 142.785 64.692C142.813 64.5314 142.836 64.4049 142.852 64.3187L142.87 64.2204L142.875 64.1954L142.876 64.1892L142.877 64.1877L142.877 64.1874L142.631 64.1391ZM142.631 64.1391L142.557 63.9003L142.957 63.7766L142.877 64.1873L142.631 64.1391Z" fill="#EC7B23" stroke="black" stroke-width="0.5"/>
<path d="M142.297 64.5023C142.303 64.5007 142.308 64.4991 142.313 64.4975C142.307 64.5317 142.301 64.5678 142.294 64.6058C142.237 64.9307 142.16 65.3925 142.081 65.9405C141.921 67.0355 141.749 68.4798 141.7 69.8677C141.651 71.2445 141.721 72.6057 142.07 73.5107C142.246 73.965 142.508 74.3455 142.901 74.5297C143.303 74.7179 143.777 74.6717 144.306 74.415L144.306 74.415C146.297 73.4474 147.615 72.2125 148.435 71.2164C148.846 70.7185 149.132 70.2802 149.316 69.9645C149.322 69.9544 149.328 69.9444 149.334 69.9345C149.34 69.95 149.346 69.9659 149.353 69.9822C149.494 70.3324 149.692 70.8507 149.921 71.5203C150.378 72.8594 150.955 74.8025 151.431 77.2134C152.382 82.0288 152.931 88.7049 151.33 96.1606L151.319 96.1823C151.301 96.2165 151.273 96.2675 151.237 96.3343C151.164 96.4679 151.054 96.6646 150.909 96.9153C150.619 97.4168 150.185 98.1344 149.613 98.996C148.47 100.72 146.778 103.017 144.582 105.314C140.184 109.913 133.796 114.478 125.77 114.479C113.226 114.48 100.125 111.411 94.0138 99.6051C91.6009 94.944 91.6379 90.5762 92.2782 87.3705C92.5985 85.7669 93.0697 84.4551 93.4603 83.5452C93.6556 83.0904 93.8305 82.7364 93.956 82.4971C94.0188 82.3774 94.0692 82.2865 94.1036 82.226C94.1208 82.1957 94.134 82.173 94.1427 82.1582L94.1524 82.1419L94.1547 82.1381L94.1551 82.1374L94.1551 82.1374L94.1552 82.1373L94.1667 82.1184L94.1747 82.0977L93.9417 82.0073L94.1747 82.0977L94.1749 82.0974L94.1755 82.0958L94.178 82.0892L94.1887 82.0622C94.1983 82.038 94.2129 82.0017 94.2323 81.9539C94.2713 81.8581 94.3301 81.716 94.409 81.5315C94.5669 81.1627 94.805 80.6247 95.1254 79.9509C95.7664 78.6031 96.7362 76.7121 98.0503 74.5428C100.448 70.5848 103.988 65.7072 108.762 61.5098C108.448 61.9865 108.103 62.5326 107.783 63.084C107.328 63.8684 106.914 64.681 106.722 65.3252C106.627 65.6427 106.575 65.9535 106.625 66.2099C106.651 66.3432 106.707 66.472 106.808 66.5757C106.909 66.6805 107.041 66.7423 107.188 66.7684C107.666 66.8534 108.303 66.747 109.234 66.5219C109.743 66.3989 110.358 66.2352 111.104 66.0367C111.736 65.8686 112.462 65.6754 113.296 65.4608C116.865 64.5433 122.489 63.2163 131.55 61.6974C131.496 61.771 131.438 61.8512 131.376 61.937C131.056 62.3864 130.65 62.9952 130.322 63.6241C129.998 64.2443 129.729 64.9187 129.718 65.4895C129.712 65.7805 129.772 66.0651 129.946 66.2999C130.122 66.5371 130.392 66.6926 130.743 66.7669C131.409 66.9076 132.5 66.8142 133.721 66.6158C134.956 66.4151 136.367 66.0992 137.696 65.768C139.026 65.4367 140.278 65.0893 141.198 64.8248C141.658 64.6925 142.035 64.5808 142.297 64.5023Z" fill="#F4D9BF" stroke="black" stroke-width="0.5"/>
<path d="M151.446 96.2973L151.457 96.2815L151.465 96.2645L151.465 96.2644L151.465 96.2643L151.466 96.2626L151.47 96.2545C151.474 96.247 151.479 96.2353 151.487 96.2197C151.503 96.1887 151.528 96.1424 151.561 96.0835C151.627 95.9657 151.727 95.7977 151.861 95.6007C152.13 95.2059 152.533 94.6992 153.072 94.2456C154.142 93.3453 155.745 92.6509 157.935 93.4664C159.014 93.8681 159.545 94.5329 159.7 95.3025C159.859 96.0896 159.634 97.0355 159.089 97.9967C157.999 99.9192 155.696 101.783 153.11 102.336L153.11 102.336C150.479 102.899 149.289 102.473 148.752 101.999C148.482 101.76 148.358 101.494 148.3 101.287C148.27 101.184 148.258 101.095 148.253 101.035C148.253 101.027 148.252 101.02 148.252 101.013L151.446 96.2973Z" fill="#EFCAA6" stroke="black" stroke-width="0.5"/>
<path d="M116.75 104.95C116.735 105.617 116.475 106.889 116.054 107.954C115.842 108.49 115.598 108.952 115.339 109.253C115.076 109.56 114.854 109.641 114.665 109.589L114.665 109.589C114.495 109.543 114.336 109.338 114.275 108.857C114.216 108.399 114.264 107.793 114.394 107.158C114.524 106.526 114.732 105.883 114.981 105.354C115.235 104.814 115.513 104.434 115.761 104.277C116.042 104.101 116.213 104.09 116.311 104.114C116.408 104.137 116.493 104.209 116.567 104.335C116.641 104.461 116.689 104.615 116.717 104.746C116.731 104.81 116.739 104.865 116.744 104.904C116.747 104.923 116.749 104.938 116.75 104.947L116.75 104.95Z" fill="white" stroke="black" stroke-width="0.5"/>
<path d="M110.973 71.4066L110.973 71.4067L110.979 71.3995C111.468 70.745 112.22 70.2112 113.016 70.116C113.402 70.0731 113.808 70.1482 114.18 70.3304C114.552 70.5284 114.886 70.8448 115.134 71.2109C115.259 71.3991 115.363 71.5988 115.451 71.7779L115.451 71.778L115.455 71.7868C115.492 71.8537 115.523 71.9362 115.553 72.0283C115.563 72.0602 115.575 72.101 115.588 72.1428C115.604 72.1964 115.621 72.2515 115.634 72.2913C115.648 72.339 115.661 72.3836 115.672 72.4249C115.576 72.4049 115.474 72.3961 115.382 72.3895C115.354 72.3874 115.327 72.3856 115.299 72.3837C115.202 72.3771 115.108 72.3707 115.012 72.3577L114.988 72.3545L114.963 72.3559C114.838 72.3634 114.71 72.3689 114.575 72.3747C114.561 72.3753 114.548 72.3759 114.534 72.3765C114.385 72.3829 114.229 72.3899 114.069 72.4002L114.069 72.3999L114.057 72.4013C113.945 72.414 113.825 72.4257 113.702 72.4378C113.495 72.4583 113.276 72.4798 113.059 72.5089C112.367 72.5796 111.662 72.6403 111.09 72.5791L111.083 72.5783L111.076 72.578C110.797 72.5645 110.545 72.5209 110.363 72.4803C110.354 72.4783 110.345 72.4762 110.336 72.4742C110.359 72.4226 110.385 72.3645 110.415 72.3016C110.538 72.0466 110.724 71.7163 110.973 71.4066Z" fill="#A95A16" stroke="black" stroke-width="0.5"/>
<path d="M134.369 75.3367L134.369 75.3367L134.374 75.3356C135.168 75.1486 136.305 75.037 137.462 75.149L137.465 75.1492C137.749 75.1737 138.035 75.2162 138.312 75.2743L138.312 75.2747L138.325 75.2767C138.527 75.3076 138.718 75.3661 138.921 75.4282C138.984 75.4476 139.049 75.4673 139.115 75.4867C139.296 75.5444 139.458 75.6204 139.626 75.6994C139.679 75.7241 139.732 75.7491 139.787 75.7739C139.945 75.8644 140.08 75.9628 140.213 76.06C140.236 76.0765 140.258 76.0928 140.281 76.1091C140.361 76.1808 140.426 76.2534 140.487 76.3273C140.46 76.3167 140.431 76.3063 140.401 76.2965C140.29 76.2584 140.18 76.2158 140.059 76.1696C140.026 76.1567 139.992 76.1436 139.957 76.1303L139.942 76.1246L139.926 76.1208C139.801 76.0906 139.679 76.057 139.549 76.0213C139.494 76.0063 139.438 75.9908 139.38 75.9752L139.367 75.9718L139.355 75.9697C139.261 75.9547 139.171 75.9351 139.072 75.9136L139.059 75.9108C138.956 75.8886 138.845 75.8647 138.725 75.8463L138.725 75.8462L138.717 75.8453C138.628 75.8344 138.542 75.8199 138.449 75.8043C138.43 75.8011 138.41 75.7978 138.39 75.7945C138.277 75.7758 138.155 75.7568 138.023 75.7453C137.97 75.739 137.916 75.7322 137.862 75.7254C137.679 75.7025 137.486 75.6782 137.288 75.6653C136.965 75.6293 136.629 75.6037 136.303 75.5788C136.128 75.5655 135.956 75.5524 135.79 75.538L135.79 75.538L135.786 75.5377C135.298 75.5039 134.834 75.466 134.427 75.4265L134.427 75.4265L134.424 75.4262C134.314 75.417 134.209 75.4073 134.108 75.3975C134.191 75.3767 134.278 75.3563 134.369 75.3367Z" fill="#A95A16" stroke="black" stroke-width="0.5"/>
<path d="M116.645 94.0258C116.629 94.2591 116.64 94.5212 116.692 94.8109L116.692 94.8109C116.749 95.133 116.937 95.3628 117.175 95.5237C116.984 95.4887 116.796 95.4406 116.614 95.3767C116.454 95.3206 116.367 95.2513 116.32 95.188C116.273 95.1264 116.25 95.051 116.25 94.9533C116.251 94.7425 116.365 94.4648 116.555 94.1626C116.584 94.1167 116.614 94.071 116.645 94.0258Z" fill="#C39368" stroke="black" stroke-width="0.5"/>
<path d="M155.24 97.9345C155.307 97.9738 155.374 98.0039 155.45 98.0375C155.416 97.9709 155.379 97.9007 155.338 97.8261C155.251 97.7109 155.157 97.5915 155.057 97.4794L155.048 97.4701L155.041 97.4599C154.971 97.3653 154.898 97.3268 154.763 97.2561L155.24 97.9345ZM155.24 97.9345C155.146 97.865 155.049 97.8426 154.98 97.8315C154.939 97.8249 154.915 97.822 154.896 97.8199C154.873 97.8172 154.861 97.8158 154.839 97.8096L154.819 97.8037L154.798 97.8014C154.774 97.7988 154.755 97.7939 154.723 97.7855C154.706 97.781 154.685 97.7754 154.657 97.7687C154.591 97.7528 154.493 97.733 154.383 97.7499L154.383 97.7499C154.301 97.7625 154.219 97.774 154.136 97.7858C154.105 97.7901 154.075 97.7944 154.044 97.7988C153.897 97.7918 153.728 97.8118 153.56 97.9192C153.519 97.9404 153.475 97.9577 153.422 97.976C153.408 97.9811 153.391 97.9867 153.373 97.9927C153.33 98.0074 153.28 98.0244 153.235 98.0421L153.223 98.0468L153.211 98.0526C153.192 98.0625 153.176 98.0663 153.129 98.0773C153.118 98.0798 153.106 98.0826 153.092 98.0859C153.028 98.1012 152.929 98.1274 152.834 98.2018C152.751 98.2583 152.668 98.3049 152.583 98.3506C152.635 98.2716 152.692 98.188 152.754 98.1018L152.754 98.1018L152.756 98.0983C152.841 97.9754 152.933 97.8492 153.031 97.7312L153.037 97.7232L153.043 97.7146C153.074 97.6707 153.11 97.6372 153.157 97.6016C153.182 97.583 153.207 97.5654 153.239 97.5437L153.24 97.5427C153.269 97.5231 153.302 97.5003 153.336 97.4748C153.382 97.4444 153.431 97.4103 153.476 97.3789C153.494 97.3661 153.512 97.3538 153.528 97.3423C153.592 97.2981 153.649 97.2608 153.704 97.2318L153.72 97.2232L153.735 97.2123C153.82 97.1498 153.913 97.1232 154.021 97.1197L154.021 97.1197L154.458 97.105L154.458 97.1053L154.47 97.1043C154.47 97.1046 154.489 97.1072 154.542 97.1364C154.562 97.1472 154.578 97.1569 154.598 97.1683C154.61 97.1758 154.624 97.1842 154.642 97.1941C154.675 97.2134 154.717 97.2366 154.763 97.256L155.24 97.9345Z" fill="#C39368" stroke="black" stroke-width="0.5"/>
<path d="M134.303 87.1132L134.303 87.1134C133.992 87.9409 133.568 88.6231 133.144 89.0592C132.931 89.2775 132.727 89.4254 132.546 89.5037C132.367 89.5814 132.226 89.585 132.116 89.544C132.007 89.5032 131.904 89.4079 131.82 89.2315C131.735 89.0536 131.679 88.808 131.663 88.5037C131.63 87.8961 131.759 87.1034 132.07 86.2764L132.071 86.2762C132.381 85.4488 132.805 84.7669 133.23 84.3311C133.442 84.1129 133.646 83.9652 133.827 83.8869C134.007 83.8093 134.148 83.8058 134.257 83.8468C134.366 83.8877 134.47 83.9831 134.553 84.1596C134.638 84.3376 134.694 84.5833 134.711 84.8874C134.743 85.495 134.613 86.2873 134.303 87.1132Z" fill="#3D1A0B" stroke="black" stroke-width="0.5"/>
<path d="M133.251 85.2242C133.144 85.4495 133.012 85.6241 132.895 85.7262C132.84 85.7745 132.796 85.7994 132.768 85.8102C132.758 85.7813 132.749 85.7313 132.751 85.6571C132.756 85.5018 132.807 85.2892 132.913 85.0631C133.02 84.8381 133.152 84.6639 133.268 84.5619C133.324 84.5136 133.368 84.4886 133.396 84.4779C133.406 84.5067 133.415 84.5568 133.413 84.6311C133.408 84.7861 133.357 84.9984 133.251 85.2242Z" fill="white" stroke="black" stroke-width="0.5"/>
<path d="M112.832 81.1301L112.832 81.1301C112.521 81.9576 112.097 82.6397 111.673 83.0756C111.46 83.2939 111.256 83.4416 111.075 83.5199C110.896 83.5975 110.755 83.6012 110.645 83.5601C110.537 83.5193 110.433 83.4241 110.349 83.2477C110.265 83.0697 110.208 82.8241 110.192 82.5198C110.159 81.9121 110.289 81.1193 110.6 80.292L110.6 80.2919C110.91 79.465 111.335 78.783 111.759 78.3471C111.972 78.1288 112.176 77.981 112.357 77.9026C112.536 77.825 112.677 77.8214 112.786 77.8624C112.895 77.9033 112.999 77.9987 113.083 78.1751C113.167 78.3531 113.223 78.5987 113.24 78.9029C113.272 79.5106 113.142 80.3032 112.832 81.1301Z" fill="#3D1A0B" stroke="black" stroke-width="0.5"/>
<path d="M111.78 79.2396L111.78 79.2397C111.674 79.4652 111.542 79.6395 111.425 79.7416C111.369 79.7898 111.326 79.8148 111.297 79.8257C111.287 79.7968 111.278 79.747 111.281 79.6734C111.285 79.5181 111.336 79.3053 111.442 79.0786C111.549 78.8537 111.681 78.6797 111.798 78.5779C111.853 78.5295 111.897 78.5047 111.925 78.494C111.935 78.5229 111.944 78.5729 111.942 78.6471C111.938 78.8021 111.887 79.0144 111.78 79.2396Z" fill="white" stroke="black" stroke-width="0.5"/>
<path d="M131.263 95.3333L131.263 95.3334C131.221 95.5673 131.281 95.8316 131.462 96.1197C131.643 96.4089 131.939 96.7084 132.336 96.9971C133.13 97.5743 134.297 98.0818 135.646 98.3708L131.263 95.3333ZM131.263 95.3333C131.346 94.8689 131.861 94.458 132.818 94.2458C133.75 94.0392 135.004 94.0494 136.354 94.3384L136.354 94.3384M131.263 95.3333L136.354 94.3384M136.354 94.3384C137.704 94.6268 138.869 95.1342 139.664 95.7115C140.061 96.0003 140.356 96.2999 140.538 96.5893C140.719 96.8776 140.779 97.1422 140.737 97.3766C140.653 97.8401 140.138 98.2505 139.182 98.4625M136.354 94.3384L139.182 98.4625M139.182 98.4625C138.249 98.6691 136.996 98.6592 135.646 98.3708L139.182 98.4625Z" fill="#F9CBC0" stroke="black" stroke-width="0.5"/>
<path d="M99.2629 86.3331L99.2629 86.3331C99.3463 85.8688 99.8609 85.4579 100.818 85.2458C101.75 85.0392 103.004 85.0494 104.354 85.3385L104.354 85.3385C105.704 85.6269 106.869 86.1343 107.664 86.7115C108.061 87.0003 108.356 87.2999 108.538 87.5892C108.719 87.8774 108.779 88.1419 108.737 88.3762C108.653 88.8399 108.139 89.2504 107.182 89.4625C106.25 89.6691 104.996 89.6592 103.646 89.3707C102.297 89.0817 101.13 88.574 100.336 87.9968C99.9386 87.708 99.6435 87.4085 99.462 87.1193C99.2811 86.8312 99.2208 86.567 99.2629 86.3331Z" fill="#F9CBC0" stroke="black" stroke-width="0.5"/>
<path d="M80.5473 122.177L80.5473 122.177C80.7777 122.575 81.3009 123.039 82.0876 123.548C82.8656 124.052 83.8705 124.581 85.026 125.118C87.3364 126.191 90.2263 127.287 93.0568 128.273C95.8861 129.258 98.6506 130.13 100.708 130.756C101.737 131.069 102.589 131.32 103.183 131.493C103.48 131.58 103.713 131.647 103.872 131.692L104.052 131.743L104.099 131.757L104.11 131.76L104.113 131.761L104.114 131.761C104.114 131.761 104.114 131.761 104.046 132.002L104.114 131.761L104.255 131.801L104.289 131.942L104.289 131.942L104.289 131.943L104.289 131.943L104.289 131.943L104.29 131.945L104.293 131.958C104.297 131.971 104.303 131.991 104.311 132.017C104.328 132.069 104.354 132.147 104.394 132.243C104.473 132.435 104.604 132.701 104.806 132.987C105.209 133.557 105.897 134.212 107.048 134.542L107.107 134.559L107.151 134.601L106.98 134.782L107.151 134.601L107.152 134.601L107.152 134.601L107.153 134.602L107.158 134.606L107.174 134.622C107.189 134.637 107.211 134.657 107.238 134.684C107.293 134.737 107.371 134.815 107.467 134.911C107.659 135.105 107.922 135.377 108.203 135.69C108.758 136.31 109.411 137.117 109.721 137.807C109.975 138.37 110.472 138.612 110.839 138.604C111.022 138.6 111.15 138.536 111.219 138.449L80.5473 122.177ZM80.5473 122.177C80.0827 121.375 80.1879 120.24 80.6881 118.92C81.1836 117.612 82.0415 116.189 82.9737 114.866C83.9044 113.545 84.9012 112.335 85.6661 111.454C86.0484 111.014 86.3722 110.657 86.6003 110.41C86.6819 110.322 86.7512 110.248 86.8065 110.189L90.8665 113.286C90.8517 113.305 90.8361 113.324 90.8195 113.345C90.6875 113.512 90.5001 113.752 90.2784 114.046C89.8351 114.633 89.2527 115.439 88.6986 116.309C88.1457 117.177 87.6152 118.118 87.2809 118.974C87.1138 119.403 86.9923 119.818 86.9443 120.198C86.8964 120.576 86.9188 120.939 87.0608 121.247C87.1402 121.42 87.2887 121.585 87.4679 121.742C87.6509 121.902 87.8846 122.07 88.1571 122.242C88.7024 122.586 89.4236 122.962 90.2543 123.352C91.917 124.134 94.0428 124.987 96.1345 125.775C98.2273 126.564 100.291 127.289 101.831 127.818C102.601 128.082 103.24 128.297 103.687 128.446C103.91 128.521 104.086 128.579 104.205 128.618L104.342 128.663L104.377 128.674L104.386 128.677L104.388 128.678L104.389 128.678C104.389 128.678 104.389 128.678 104.466 128.441L104.389 128.678L104.448 128.698L104.509 128.687C104.952 128.61 105.51 128.725 106.028 128.857C106.1 128.875 106.172 128.893 106.242 128.912C106.414 128.957 106.577 128.999 106.714 129.027C106.811 129.047 106.907 129.063 106.994 129.066C107.07 129.068 107.189 129.063 107.29 128.993C107.324 128.97 107.366 128.931 107.403 128.897C107.445 128.857 107.497 128.806 107.558 128.747C107.62 128.685 107.694 128.612 107.776 128.53C107.852 128.455 107.934 128.373 108.021 128.287C108.389 127.924 108.853 127.472 109.314 127.064C109.78 126.651 110.224 126.3 110.553 126.125C110.7 126.047 110.79 126.023 110.835 126.019C110.836 126.025 110.837 126.032 110.839 126.041L80.5473 122.177ZM110.627 132.957L110.632 132.708L110.564 133.199L110.564 133.199L110.564 133.199L110.564 133.199L110.564 133.199L110.567 133.2L110.575 133.202L110.61 133.212C110.641 133.22 110.687 133.233 110.745 133.25C110.863 133.283 111.032 133.334 111.237 133.399C111.648 133.531 112.203 133.723 112.78 133.969C113.358 134.216 113.952 134.512 114.443 134.849C114.94 135.19 115.304 135.554 115.465 135.924L115.465 135.924C115.644 136.336 115.697 136.65 115.675 136.868C115.654 137.077 115.569 137.187 115.462 137.243C115.344 137.306 115.15 137.33 114.875 137.257C114.604 137.184 114.276 137.022 113.917 136.754C113.14 136.172 112.094 135.642 111.252 135.26C110.829 135.068 110.453 134.912 110.184 134.804C110.049 134.749 109.94 134.707 109.865 134.678C109.827 134.664 109.798 134.653 109.778 134.646L109.756 134.637L109.75 134.635L109.748 134.634L109.748 134.634L109.747 134.634L109.661 134.869L109.747 134.634L108.878 134.315L109.468 135.028L109.468 135.028L109.469 135.028L109.469 135.029L109.472 135.033L109.484 135.047C109.495 135.061 109.511 135.08 109.531 135.106C109.573 135.157 109.632 135.232 109.704 135.326C109.849 135.513 110.045 135.775 110.251 136.075C110.67 136.683 111.108 137.412 111.264 137.976L110.627 132.957ZM110.627 132.957L110.633 132.708L110.633 132.708L110.633 132.708L110.636 132.708L110.645 132.708L110.68 132.709L110.817 132.711C110.935 132.714 111.105 132.718 111.313 132.722C111.729 132.732 112.296 132.745 112.902 132.762C114.109 132.794 115.477 132.838 116.091 132.882C116.332 132.899 116.497 132.826 116.599 132.727C116.702 132.626 116.758 132.481 116.749 132.32C116.731 132.015 116.456 131.586 115.658 131.467C114.782 131.338 113.519 131.186 112.472 131.067C111.95 131.007 111.482 130.955 111.145 130.919C110.976 130.9 110.84 130.886 110.746 130.876L110.639 130.864L110.611 130.861L110.604 130.861L110.602 130.861L110.601 130.86L110.601 130.86L110.627 130.612M110.627 132.957L110.712 126.899C110.601 127.211 110.438 127.526 110.265 127.811C110.093 128.094 109.915 128.342 109.78 128.519C109.712 128.607 109.656 128.678 109.616 128.725C109.597 128.749 109.581 128.768 109.571 128.78L109.56 128.793L109.557 128.797L109.556 128.797L109.556 128.797L109.556 128.797L109.556 128.797L108.999 129.439L109.815 129.201L109.745 128.961L109.815 129.201L109.815 129.201L109.816 129.201L109.817 129.201L109.823 129.199L109.846 129.192L109.934 129.166C110.01 129.144 110.121 129.111 110.259 129.07C110.534 128.989 110.917 128.874 111.347 128.744C112.206 128.483 113.258 128.155 114.017 127.891C114.772 127.628 115.376 127.495 115.721 127.524C115.897 127.539 115.922 127.587 115.923 127.588C115.927 127.597 115.954 127.675 115.847 127.897L115.847 127.897C115.817 127.96 115.729 128.061 115.556 128.192C115.39 128.318 115.169 128.455 114.909 128.596C114.389 128.879 113.732 129.171 113.083 129.436C112.436 129.7 111.802 129.935 111.329 130.104C111.093 130.188 110.898 130.256 110.761 130.303C110.693 130.326 110.64 130.344 110.604 130.356L110.563 130.37L110.552 130.373L110.55 130.374L110.549 130.374L110.549 130.375L110.627 130.612M110.627 130.612L110.601 130.86L110.549 130.375L110.627 130.612Z" fill="#F4D9BF" stroke="black" stroke-width="0.5"/>
<path d="M142.81 124.734L142.54 124.814L128.661 128.908L128.569 128.935L128.482 128.893L126.441 127.908L126.352 127.865L126.317 127.772L126.316 127.772L126.316 127.772L126.316 127.772L126.316 127.772L126.315 127.768L126.308 127.752C126.303 127.738 126.294 127.716 126.282 127.689C126.259 127.633 126.224 127.554 126.179 127.458C126.087 127.265 125.955 127.01 125.789 126.757C125.623 126.503 125.429 126.259 125.218 126.082C125.006 125.904 124.796 125.808 124.59 125.808C124.468 125.808 124.401 125.826 124.368 125.842C124.343 125.854 124.34 125.863 124.337 125.869L124.337 125.87C124.331 125.885 124.324 125.922 124.336 125.995C124.347 126.067 124.373 126.156 124.415 126.265C124.501 126.484 124.636 126.742 124.789 127.029L124.804 127.057C124.949 127.331 125.106 127.627 125.229 127.914L125.229 127.915C125.477 128.494 125.683 129.052 125.827 129.465C125.899 129.671 125.956 129.842 125.995 129.961C126.014 130.021 126.029 130.067 126.039 130.099L126.05 130.136L126.053 130.146L126.054 130.148L126.054 130.149L126.054 130.149L126.054 130.149L125.815 130.223M142.81 124.734L125.14 133.852C125.184 133.765 125.225 133.652 125.206 133.532C125.184 133.385 125.084 133.292 124.975 133.248C124.88 133.211 124.776 133.207 124.687 133.212C124.592 133.218 124.487 133.235 124.376 133.258C123.954 133.349 123.345 133.563 122.71 133.787C122.686 133.795 122.663 133.803 122.64 133.812C121.969 134.048 121.264 134.294 120.667 134.441C120.368 134.515 120.107 134.561 119.897 134.571C119.696 134.581 119.579 134.555 119.52 134.523C119.561 134.455 119.666 134.349 119.854 134.212C120.236 133.933 120.838 133.612 121.467 133.299C121.752 133.158 122.045 133.016 122.321 132.884C122.64 132.73 122.934 132.589 123.165 132.471C123.378 132.362 123.563 132.26 123.672 132.177C123.701 132.155 123.732 132.129 123.759 132.099C123.78 132.075 123.83 132.015 123.841 131.927C123.847 131.876 123.84 131.818 123.81 131.764C123.782 131.712 123.743 131.679 123.71 131.659C123.652 131.623 123.591 131.614 123.557 131.61L123.557 131.61C123.443 131.597 123.26 131.582 123.03 131.562C122.47 131.515 121.634 131.444 120.86 131.335C120.315 131.258 119.828 131.166 119.512 131.058C119.426 131.029 119.363 131.002 119.318 130.979C119.354 130.963 119.401 130.946 119.46 130.931C119.61 130.892 119.811 130.865 120.052 130.85C120.534 130.821 121.138 130.84 121.737 130.881C122.334 130.921 122.916 130.982 123.35 131.033C123.567 131.059 123.746 131.081 123.871 131.098C123.933 131.106 123.982 131.113 124.015 131.117L124.053 131.123L124.062 131.124L124.065 131.124L124.065 131.124L124.065 131.124L124.101 130.877M142.81 124.734L142.699 124.476L141.217 121.024M142.81 124.734L141.217 121.024M125.815 130.223L125.677 130.43L125.676 130.43L125.676 130.43L125.674 130.428L125.665 130.423L125.63 130.399C125.6 130.379 125.554 130.349 125.496 130.311C125.381 130.235 125.213 130.125 125.009 129.993C124.599 129.727 124.04 129.371 123.44 129.004C122.84 128.637 122.202 128.261 121.634 127.958C121.058 127.65 120.578 127.429 120.285 127.356C119.977 127.279 119.839 127.313 119.794 127.339L119.794 127.339C119.78 127.348 119.751 127.365 119.766 127.463C119.783 127.569 119.851 127.719 119.978 127.877C120.103 128.031 120.271 128.178 120.466 128.285C120.924 128.535 121.872 129.134 122.695 129.664C123.109 129.931 123.495 130.182 123.777 130.366C123.918 130.458 124.034 130.534 124.114 130.586L124.206 130.647L124.23 130.663L124.236 130.667L124.238 130.668L124.238 130.668L124.238 130.668L124.101 130.877M125.815 130.223L126.054 130.149L126.261 130.821L125.677 130.43L125.815 130.223ZM124.101 130.877L124.238 130.668L124.065 131.124L124.101 130.877ZM141.217 121.024C141.997 120.735 142.894 120.278 143.615 119.883C144.017 119.662 144.369 119.458 144.62 119.31C144.695 119.265 144.761 119.226 144.817 119.192C144.882 119.292 144.968 119.427 145.068 119.595C145.295 119.976 145.593 120.52 145.876 121.167C146.443 122.466 146.932 124.152 146.684 125.766C146.634 126.091 146.371 126.461 145.867 126.863C145.37 127.259 144.676 127.656 143.843 128.046C142.179 128.824 139.999 129.554 137.824 130.181C135.652 130.807 133.494 131.329 131.879 131.694C131.072 131.877 130.401 132.021 129.931 132.118C129.697 132.167 129.513 132.205 129.387 132.23L129.244 132.258L129.208 132.265L129.199 132.267L129.196 132.268L129.196 132.268C129.196 132.268 129.196 132.268 129.244 132.513L129.196 132.268L129.055 132.295L129.008 132.43C128.8 133.022 128.212 133.415 127.616 133.663C127.325 133.785 127.048 133.866 126.842 133.916C126.74 133.941 126.656 133.958 126.598 133.969C126.569 133.975 126.547 133.979 126.533 133.981L126.517 133.984L126.513 133.984L126.513 133.984L126.512 133.984L126.512 133.984L126.512 133.984L126.396 134.002L126.335 134.103L126.335 134.103L126.335 134.103L126.335 134.104L126.334 134.105L126.33 134.112L126.314 134.138C126.299 134.161 126.278 134.196 126.25 134.24C126.195 134.329 126.114 134.456 126.012 134.61C125.808 134.918 125.521 135.332 125.189 135.755C124.857 136.178 124.485 136.606 124.109 136.945C123.728 137.29 123.369 137.52 123.067 137.587L123.067 137.587C123.003 137.601 122.962 137.605 122.938 137.604C122.939 137.589 122.941 137.568 122.947 137.54C122.991 137.312 123.183 136.934 123.467 136.469C123.706 136.077 123.992 135.651 124.266 135.243C124.31 135.177 124.353 135.112 124.396 135.048C124.703 134.59 124.989 134.156 125.14 133.852L141.217 121.024ZM122.94 137.637C122.94 137.637 122.939 137.636 122.939 137.636L122.94 137.637ZM123.502 132.107C123.506 132.107 123.505 132.107 123.501 132.107L123.502 132.107Z" fill="#F4D9BF" stroke="black" stroke-width="0.5"/>
<g opacity="0.4">
<path d="M100.602 68.8417C102.943 65.1537 106.599 60.8887 112.035 58.0246L109.861 59.9271C104.633 64.1526 100.751 69.2677 98.1058 73.4978C98.6712 72.2226 99.4865 70.5987 100.602 68.8417Z" fill="#D7711F" stroke="black" stroke-width="0.5"/>
<path d="M117.464 62.8023C123.016 60.8738 130.006 58.827 136.248 58.1336C136.021 58.2722 135.763 58.4335 135.482 58.6152C134.522 59.2354 133.286 60.0948 132.101 61.0979L132.093 61.0993C122.649 62.6642 116.834 64.0339 113.17 64.9758C112.323 65.1936 111.595 65.3875 110.964 65.5555C110.226 65.7519 109.621 65.9128 109.115 66.0351C109.022 66.0576 108.933 66.0787 108.847 66.0982C109.231 65.9371 109.681 65.7505 110.19 65.5433C111.988 64.8116 114.522 63.8244 117.464 62.8023Z" fill="#D7711F" stroke="black" stroke-width="0.5"/>
<path d="M130.843 66.2765C132.73 65.9951 138.225 64.8526 144.667 60.5689C144.57 60.7223 144.465 60.8891 144.353 61.0667C143.85 61.8653 143.216 62.8831 142.609 63.8843L142.559 63.8997L142.573 63.9441C142.573 63.9441 142.573 63.9442 142.573 63.9442L142.559 63.8998L142.559 63.8998L142.557 63.9002L142.552 63.9018L142.532 63.9079L142.454 63.9319C142.385 63.9529 142.283 63.9837 142.153 64.0228C141.893 64.1009 141.517 64.212 141.059 64.3437C140.143 64.6072 138.897 64.9529 137.574 65.2824C136.251 65.612 134.856 65.9243 133.64 66.1217C132.412 66.3214 131.409 66.3961 130.846 66.2771L130.843 66.2765ZM130.843 66.2765C130.844 66.2767 130.845 66.2769 130.846 66.2771L130.843 66.2765Z" fill="#D7711F" stroke="black" stroke-width="0.5"/>
<path d="M149.356 69.349L149.584 69.2449L149.348 68.7304L149.126 69.2509L149.126 69.251L149.126 69.2511L149.126 69.2517L149.124 69.2564L149.114 69.2781C149.105 69.2978 149.091 69.3281 149.071 69.3678C149.031 69.4472 148.97 69.5646 148.884 69.7123C148.711 70.0076 148.44 70.4234 148.049 70.8984C147.352 71.7437 146.275 72.7762 144.695 73.6499C146.242 72.2927 148.648 69.4613 148.536 65.0433C148.813 65.5242 149.18 66.1906 149.594 67.0147C150.503 68.8234 151.636 71.389 152.533 74.4162C154.184 79.982 155.03 87.0808 152.255 93.905C153.321 87.2565 152.765 81.3476 151.892 76.9841C151.412 74.5875 150.836 72.6558 150.38 71.3219C150.152 70.6549 149.954 70.1373 149.812 69.7856C149.741 69.6098 149.684 69.4754 149.645 69.3846C149.626 69.3392 149.61 69.3047 149.6 69.2813L149.588 69.2546L149.585 69.2476L149.584 69.2457L149.584 69.2452C149.584 69.245 149.584 69.2449 149.356 69.349Z" fill="#D7711F" stroke="black" stroke-width="0.5"/>
</g>
</g>
<defs>
<filter id="filter0_d_128_3916" x="68" y="37" width="102.447" height="184.854" filterUnits="userSpaceOnUse" color-interpolation-filters="sRGB">
<feFlood flood-opacity="0" result="BackgroundImageFix"/>
<feColorMatrix in="SourceAlpha" type="matrix" values="0 0 0 0 0 0 0 0 0 0 0 0 0 0 0 0 0 0 127 0" result="hardAlpha"/>
<feOffset dy="4"/>
<feGaussianBlur stdDeviation="2"/>
<feComposite in2="hardAlpha" operator="out"/>
<feColorMatrix type="matrix" values="0 0 0 0 0 0 0 0 0 0 0 0 0 0 0 0 0 0 0.25 0"/>
<feBlend mode="normal" in2="BackgroundImageFix" result="effect1_dropShadow_128_3916"/>
<feBlend mode="normal" in="SourceGraphic" in2="effect1_dropShadow_128_3916" result="shape"/>
</filter>
</defs>
</svg>
