<svg width="114" height="114" viewBox="0 0 114 114" fill="none" xmlns="http://www.w3.org/2000/svg">
<g filter="url(#filter0_d_77_22030)">
<path fill-rule="evenodd" clip-rule="evenodd" d="M85.7989 62.2247C86.3321 73.2176 76.8684 84.2469 62.9065 88.0094C48.9942 91.7585 35.3181 87.0251 30.2122 77.3231C27.8523 77.9319 25.4946 76.7401 24.9293 74.6425C24.3641 72.5449 25.8038 70.3298 28.15 69.6704C27.6897 58.7166 37.1356 47.7525 51.0477 44.0034C65.0097 40.241 78.7337 45.0216 83.7964 54.7938C85.7853 54.6994 87.5842 55.8314 88.0683 57.6279C88.5524 59.4243 87.5659 61.3069 85.7989 62.2247Z" fill="#FFD12F"/>
<path fill-rule="evenodd" clip-rule="evenodd" d="M88.193 63.4624C88.0018 75.4125 77.6537 86.4951 63.5245 90.3026C49.5598 94.0658 35.2225 89.8296 28.9313 79.8511C26.1348 79.8264 23.4283 78.1999 22.6362 75.2605C21.8441 72.3212 23.3668 69.5549 25.7724 68.1284C26.1979 56.34 36.4653 45.4734 50.4298 41.7103C64.559 37.9028 79.0745 42.2851 85.2444 52.5208C87.5734 52.9296 89.684 54.4959 90.3615 57.0099C91.039 59.524 90.0012 61.9387 88.193 63.4624ZM85.7989 62.2247C86.3322 73.2176 76.8685 84.247 62.9065 88.0094C48.9942 91.7585 35.3181 87.0252 30.2122 77.3231C27.8523 77.9319 25.4946 76.7402 24.9294 74.6426C24.3641 72.545 25.8038 70.3299 28.15 69.6705C27.6897 58.7166 37.1356 47.7525 51.0478 44.0035C65.0097 40.241 78.7337 45.0216 83.7964 54.7938C85.7853 54.6994 87.5842 55.8315 88.0683 57.6279C88.5524 59.4244 87.566 61.307 85.7989 62.2247Z" fill="#755F13"/>
<path d="M54.5598 53.117C56.254 56.8309 53.1114 61.9017 47.5406 64.443C41.9698 66.9843 36.0804 66.0337 34.3862 62.3199C32.692 58.606 35.8346 53.5352 41.4054 50.9939C46.9762 48.4526 52.8656 49.4032 54.5598 53.117Z" fill="#FFEA2F"/>
<path d="M28.9981 71.5737C29.3788 72.4084 28.9328 73.4293 28.0019 73.8539C27.071 74.2786 26.0077 73.9463 25.6269 73.1116C25.2462 72.277 25.6922 71.2561 26.6231 70.8314C27.554 70.4067 28.6173 70.7391 28.9981 71.5737Z" fill="#FFEA2F"/>
<path fill-rule="evenodd" clip-rule="evenodd" d="M54.4268 81.3585C70.2764 77.0873 80.6606 64.4798 77.6206 53.1989C76.7221 49.8644 74.7512 47.019 72.0111 44.7753C77.2415 46.8062 81.4496 50.2637 83.7965 54.7938C85.7854 54.6994 87.5842 55.8315 88.0683 57.6279C88.5524 59.4243 87.566 61.3069 85.799 62.2247C86.3322 73.2176 76.8685 84.2468 62.9065 88.0093C50.83 91.2637 38.9313 88.1265 32.6619 80.8959C38.8286 83.1464 46.5616 83.478 54.4268 81.3585Z" fill="#DEB523"/>
<path d="M77.0379 67.3971C76.24 68.27 74.8856 68.3308 74.0127 67.5329C73.1398 66.735 73.0789 65.3806 73.8768 64.5077C74.6747 63.6348 76.0292 63.5739 76.9021 64.3718C77.775 65.1697 77.8358 66.5242 77.0379 67.3971Z" fill="#C89616"/>
<path d="M78.8899 73.7047C78.092 74.5776 76.7376 74.6384 75.8647 73.8405C74.9918 73.0426 74.931 71.6882 75.7289 70.8153C76.5268 69.9424 77.8812 69.8816 78.7541 70.6794C79.627 71.4773 79.6878 72.8318 78.8899 73.7047Z" fill="#C89616"/>
<path d="M82.7951 67.8456C82.1967 68.5003 81.1808 68.5459 80.5262 67.9475C79.8715 67.3491 79.8259 66.3332 80.4243 65.6786C81.0227 65.0239 82.0385 64.9783 82.6932 65.5767C83.3479 66.1751 83.3935 67.1909 82.7951 67.8456Z" fill="#C89616"/>
<path d="M73.8335 79.2367C73.0357 80.1096 71.6812 80.1704 70.8083 79.3725C69.9354 78.5746 69.8746 77.2202 70.6725 76.3473C71.4704 75.4743 72.8248 75.4135 73.6977 76.2114C74.5706 77.0093 74.6314 78.3638 73.8335 79.2367Z" fill="#C89616"/>
<path d="M71.9815 71.7414C71.1836 72.6143 69.8292 72.6751 68.9563 71.8772C68.0834 71.0794 68.0225 69.7249 68.8204 68.852C69.6183 67.9791 70.9728 67.9183 71.8457 68.7162C72.7186 69.5141 72.7794 70.8685 71.9815 71.7414Z" fill="#C89616"/>
<path d="M66.8046 82.5505C65.7588 83.6946 63.9835 83.7743 62.8394 82.7285C61.6953 81.6828 61.6156 79.9075 62.6614 78.7634C63.7071 77.6193 65.4824 77.5396 66.6265 78.5853C67.7706 79.6311 67.8504 81.4064 66.8046 82.5505Z" fill="#C89616"/>
<path d="M58.0433 85.4166C57.2454 86.2895 55.8909 86.3503 55.018 85.5524C54.1451 84.7545 54.0843 83.4001 54.8822 82.5272C55.6801 81.6543 57.0345 81.5935 57.9074 82.3914C58.7803 83.1892 58.8411 84.5437 58.0433 85.4166Z" fill="#C89616"/>
<path d="M64.4571 74.7546C63.8464 75.4228 62.8096 75.4693 62.1414 74.8586C61.4732 74.2478 61.4267 73.211 62.0374 72.5429C62.6482 71.8747 63.685 71.8281 64.3532 72.4389C65.0213 73.0496 65.0679 74.0864 64.4571 74.7546Z" fill="#C89616"/>
<path d="M60.4086 80.1019C59.9164 80.6404 59.0809 80.6779 58.5425 80.1857C58.0041 79.6936 57.9665 78.8581 58.4587 78.3197C58.9509 77.7812 59.7863 77.7437 60.3248 78.2359C60.8632 78.728 60.9007 79.5635 60.4086 80.1019Z" fill="#C89616"/>
<path d="M49.7668 86.6741C49.1683 87.3288 48.1525 87.3744 47.4978 86.776C46.8432 86.1776 46.7975 85.1617 47.396 84.5071C47.9944 83.8524 49.0102 83.8068 49.6649 84.4052C50.3196 85.0036 50.3652 86.0194 49.7668 86.6741Z" fill="#C89616"/>
<path fill-rule="evenodd" clip-rule="evenodd" d="M43.9137 55.1853C44.5003 56.3585 44.0248 57.7851 42.8516 58.3717C41.9121 58.8415 41.1607 59.4494 40.5644 60.1948C39.745 61.2191 38.2504 61.3852 37.2262 60.5658C36.2019 59.7464 36.0358 58.2518 36.8552 57.2275C37.9014 55.9198 39.2031 54.8853 40.7273 54.1232C41.9005 53.5366 43.3271 54.0121 43.9137 55.1853Z" fill="white"/>
<path fill-rule="evenodd" clip-rule="evenodd" d="M83.6601 61.136C85.6488 61.136 87.261 59.5238 87.261 57.5351C87.261 56.9111 87.1023 56.3242 86.8231 55.8125C87.9422 56.4233 88.7014 57.6107 88.7014 58.9755C88.7014 60.9642 87.0892 62.5764 85.1005 62.5764C83.7357 62.5764 82.5483 61.8172 81.9375 60.6981C82.4492 60.9773 83.0361 61.136 83.6601 61.136Z" fill="#AE8C14"/>
</g>
<defs>
<filter id="filter0_d_77_22030" x="0" y="0" width="118" height="118" filterUnits="userSpaceOnUse" color-interpolation-filters="sRGB">
<feFlood flood-opacity="0" result="BackgroundImageFix"/>
<feColorMatrix in="SourceAlpha" type="matrix" values="0 0 0 0 0 0 0 0 0 0 0 0 0 0 0 0 0 0 127 0" result="hardAlpha"/>
<feOffset dx="4" dy="4"/>
<feColorMatrix type="matrix" values="0 0 0 0 0 0 0 0 0 0 0 0 0 0 0 0 0 0 0.2 0"/>
<feBlend mode="normal" in2="BackgroundImageFix" result="effect1_dropShadow_77_22030"/>
<feBlend mode="normal" in="SourceGraphic" in2="effect1_dropShadow_77_22030" result="shape"/>
</filter>
</defs>
</svg>
