<svg width="203" height="298" viewBox="0 0 203 298" fill="none" xmlns="http://www.w3.org/2000/svg">
<g style="mix-blend-mode:multiply">
<path d="M200.097 68.8353C197.147 45.6838 182.159 29.5784 163.668 29.5784H39.9078C20.3598 29.5784 5.68369 45.4523 3.44905 69.0869C-1.30206 118.933 4.45564 191.891 8.6028 219.844C12.2769 244.726 24.7989 259 42.9678 259H160.608C178.093 259 191.591 243.619 194.983 219.803C196.302 210.523 207.626 127.791 200.097 68.8353Z" fill="#3E2A00"/>
</g>
<path d="M189.952 218.788C187.274 237.611 176.816 253.012 160.609 253.012H42.9691C26.773 253.012 16.7977 239.926 13.6168 218.788C9.11738 188.328 4.01396 116.971 8.55369 69.702C10.5669 48.0604 23.7331 35.478 39.9392 35.478H163.75C179.956 35.478 192.619 49.9729 195.135 69.702C201.487 120.142 194.008 190.311 189.952 218.788Z" fill="#3E2A00"/>
<path style="mix-blend-mode:screen" opacity="0.5" d="M13.5861 130.832C20.1692 130.037 26.7422 129.353 33.3555 128.89C45.7668 128.014 58.1781 127.33 70.5994 126.997C94.9489 126.363 119.429 126.444 143.607 130.017C161.495 132.685 179.241 136.389 197.058 139.64C198.004 115.885 197.772 91.032 195.044 69.6822C192.528 49.9531 179.865 35.4583 163.659 35.4583H39.9084C23.7023 35.4583 10.5864 48.0406 8.52292 69.6822C6.78152 88.0525 6.50974 110.067 7.0231 131.899C9.33826 131.507 11.5729 131.064 13.5861 130.832Z" fill="#3E2A00"/>
<path style="mix-blend-mode:multiply" d="M139.108 132.985C113.218 129.573 86.9766 129.815 60.9763 130.892C48.5953 131.415 36.1337 131.898 23.7928 133.237C18.2264 133.841 12.7203 134.546 7.11362 135.17C8.12021 168.387 10.9588 200.759 13.6162 218.787C16.7568 239.976 26.7723 253.011 42.9684 253.011H160.609C176.815 253.011 187.273 237.6 189.951 218.787C192.206 202.953 195.517 174.255 196.906 143.222C177.66 139.689 158.475 135.542 139.108 132.985Z" fill="#3E2A00"/>
<g style="mix-blend-mode:multiply" opacity="0.7">
<path d="M36.3558 228.4C39.587 223.488 42.5162 218.334 45.4151 213.161C38.5703 219.764 31.4537 225.954 24.5082 232.427C22.7266 234.087 20.9751 235.768 19.1532 237.369C20.8641 240.828 23.1825 243.951 25.998 246.589C26.7905 244.561 27.6876 242.576 28.6856 240.64C31.0209 236.352 33.7185 232.427 36.3558 228.4Z" fill="#3E2A00"/>
</g>
<g style="mix-blend-mode:multiply" opacity="0.7">
<path d="M174.641 243.389C171.984 241.084 168.964 239.282 166.488 236.776C165.013 235.265 163.628 233.668 162.341 231.995C163.821 234.632 165.31 237.259 166.84 239.846C168.602 242.866 170.373 245.785 172.034 248.815L172.548 249.821C174.501 248.672 176.301 247.278 177.903 245.674C176.767 244.985 175.677 244.222 174.641 243.389Z" fill="#3E2A00"/>
</g>
<g style="mix-blend-mode:screen" opacity="0.4">
<path d="M25.1804 67.014C27.7171 71.6645 27.7473 76.5766 27.4855 82.0021C26.791 96.5574 27.6567 111.193 28.009 125.789C28.0794 128.919 28.1801 132.04 28.2908 135.15H167.2C168.016 124.551 169.103 113.961 170.401 103.432C171.277 96.2957 170.995 88.8469 173.19 81.982C173.924 79.6668 174.921 77.6838 175.203 75.2076C175.646 71.9161 175.203 68.5944 176.924 65.7155C178.857 62.575 182.239 58.8003 185.822 58.9512C190.553 59.1526 193.684 64.9908 195.154 71.1612C195.103 70.6981 195.053 70.215 194.992 69.7419C193.06 54.6431 185.148 42.564 174.257 37.7626C178.706 39.7757 181.836 46.4595 180.9 51.7541C179.722 58.3272 174.468 59.5653 169.485 59.5351C159.208 59.4747 149.072 63.3198 138.825 64.2962C127.964 65.3028 117.032 64.8599 106.171 63.954C95.5311 63.0481 84.9217 61.5986 74.3021 60.4511C63.8638 59.3237 53.3549 60.0988 42.9065 59.7766C36.1322 59.5552 30.6865 56.7569 27.0326 49.7712C25.7542 47.305 24.3752 42.4935 26.026 39.7053C26.3129 39.2399 26.6505 38.8078 27.0326 38.4169C18.1444 42.8559 11.4505 52.1165 9.13538 65.2626C9.9623 63.4369 11.0508 61.7414 12.3665 60.2296C17.2485 54.8242 22.6438 62.2227 25.1804 67.014Z" fill="#3E2A00"/>
</g>
<path d="M40.674 72.2188C37.3925 65.4747 32.5005 60.1397 27.8601 54.4525C25.3519 51.5807 23.0256 48.555 20.8945 45.3932C20.6026 44.9201 20.3006 44.3866 19.9886 43.8531C18.3638 45.4721 16.9131 47.2568 15.6602 49.178C18.5693 51.4126 21.4381 53.8284 24.186 56.1436C30.0041 61.0658 36.094 65.7162 40.674 72.2188Z" fill="#FED200"/>
<path d="M165 65.515C168.732 63.6292 172.246 61.4028 175.49 58.8698C178.599 56.4041 181.345 53.2826 184.53 51.0005C185.322 50.4322 186.151 49.9076 187 49.3742C186.332 48.3862 185.636 47.4156 184.893 46.515C182.241 49.4441 179.371 52.1547 176.606 55.0314C173.068 58.6425 168.452 61.7028 165 65.515Z" fill="#FED200"/>
<g style="mix-blend-mode:multiply" opacity="0.4">
<path d="M186.134 226.055C182.108 228.934 177.014 225.823 174.84 221.545C173.129 218.193 174.105 213.865 174.065 210.221C174.015 206.748 174.065 203.175 173.894 199.602C173.018 204.031 172.505 208.58 171.73 213.04C171.418 214.751 169.223 215.053 168.77 213.281C166.012 202.672 165.892 191.811 165.68 180.829C165.469 169.847 165.811 159.016 166.385 148.175C166.546 145.001 166.744 141.837 166.979 138.683H28.4113C28.8844 150.913 29.6192 163.093 30.6963 175.323C31.4915 184.382 31.4311 193.441 31.572 202.631C31.7029 210.976 32.0552 222.693 24.2541 226.991C20.0465 229.316 16.7952 226.86 14.2586 222.501C17.973 241.486 27.7268 253.031 42.9666 253.031H160.607C175.595 253.031 185.651 239.855 189.204 223.005C188.334 224.165 187.3 225.192 186.134 226.055Z" fill="#3E2A00"/>
</g>
<path opacity="0.5" d="M31.3771 237.369C33.273 232.535 34.818 227.571 36 222.515C34.7341 224.305 33.3651 226.029 31.9397 227.716C28.4515 231.877 25.3758 236.422 22 240.714C23.8094 243.013 26.0089 244.977 28.4984 246.515C29.2799 243.413 30.2411 240.359 31.3771 237.369Z" fill="#FED200"/>
<path opacity="0.5" d="M169.357 230.665C167.117 228.566 164.604 226.778 161.888 225.35C161.374 225.078 160.75 224.696 160.096 224.343C160.65 225.169 161.203 225.984 161.777 226.809C163.599 229.406 165.693 231.661 167.585 234.198C170.524 238.144 172.356 242.864 175.114 246.941C175.285 247.203 175.467 247.454 175.658 247.716C177.912 245.891 179.901 243.76 181.567 241.385C177.47 237.832 173.373 234.298 169.357 230.665Z" fill="#FED200"/>
<path d="M57.0961 5.99072L94.3289 0.573912L97.3266 94.9216L73.5707 98.3777L57.0961 5.99072Z" fill="url(#paint0_linear_203_662)"/>
<path d="M143.859 4.90942L106.578 5.42982e-05L104.468 94.3825L128.255 97.5149L143.859 4.90942Z" fill="url(#paint1_linear_203_662)"/>
<path d="M52.4629 20.6036L21.6413 31.865L46.4515 107.211L66.1168 100.026L52.4629 20.6036Z" fill="url(#paint2_linear_203_662)"/>
<path d="M148.629 19.4578L179.555 30.2986L155.455 105.977L135.724 99.0606L148.629 19.4578Z" fill="url(#paint3_linear_203_662)"/>
<path d="M23.3414 56.0465L2.92181 68.8012L28.5331 117.809L41.5615 109.671L23.3414 56.0465Z" fill="url(#paint4_linear_203_662)"/>
<path d="M178.083 54.5011L198.621 66.9768L173.473 116.33L160.368 108.37L178.083 54.5011Z" fill="url(#paint5_linear_203_662)"/>
<path d="M141.601 290.682L104.288 295.519L102.759 201.136L126.566 198.05L141.601 290.682Z" fill="url(#paint6_linear_203_662)"/>
<path d="M54.8317 290.413L92.0322 295.902L95.6098 201.564L71.8745 198.062L54.8317 290.413Z" fill="url(#paint7_linear_203_662)"/>
<path d="M146.461 276.143L177.454 265.363L153.819 189.64L134.045 196.518L146.461 276.143Z" fill="url(#paint8_linear_203_662)"/>
<path d="M50.2886 275.792L19.5354 264.472L44.8094 189.177L64.431 196.4L50.2886 275.792Z" fill="url(#paint9_linear_203_662)"/>
<path d="M176.13 241.158L196.746 228.722L171.9 179.322L158.747 187.256L176.13 241.158Z" fill="url(#paint10_linear_203_662)"/>
<path d="M21.3839 240.295L1.04214 227.501L26.9553 178.545L39.9341 186.708L21.3839 240.295Z" fill="url(#paint11_linear_203_662)"/>
<path d="M174.148 205.37C171.964 220.801 163.367 233.443 150.08 233.443H53.6287C40.3316 233.443 32.1279 222.733 29.561 205.37C25.8769 180.386 21.6996 121.883 25.3837 83.1195C27.0848 65.3633 37.8352 55.0458 51.1222 55.0458H152.597C165.894 55.0458 176.262 66.9436 178.325 83.1195C183.61 124.48 177.48 182.007 174.148 205.37Z" fill="#FEA900"/>
<g style="mix-blend-mode:multiply" opacity="0.15">
<g style="mix-blend-mode:multiply" opacity="0.15">
<path d="M178.325 83.119C176.312 67.2351 166.246 55.4781 153.291 55.0654C156.039 57.6121 167.514 65.1313 168.863 68.9966C173.252 81.7601 170.343 122.205 163.427 132.412C149.949 152.322 119.278 145.87 98.1399 145.115C78.3201 144.4 34.0099 155.674 37.3015 109.039C37.7846 102.144 33.5771 83.9746 31.8659 77.3312C30.517 72.0466 36.3049 65.091 38.751 59.8971C39.0855 59.1998 39.469 58.5271 39.8985 57.8839C32.1477 62.0713 26.5813 70.8085 25.4036 83.1492C21.7194 121.903 25.8968 180.406 29.5809 205.389C32.1477 222.753 40.3514 233.463 53.6485 233.463H150.08C163.367 233.463 171.963 220.82 174.148 205.389C177.479 182.006 183.61 124.48 178.325 83.119Z" fill="#3E2A00"/>
</g>
</g>
<g style="mix-blend-mode:multiply" opacity="0.15">
<g style="mix-blend-mode:multiply" opacity="0.15">
<path d="M178.325 83.1192C177.258 74.7041 173.936 67.4667 169.125 62.4438C171.266 66.8169 172.877 71.4293 173.926 76.1838C176.151 87.3267 175.074 98.3891 172.618 109.331C166.176 137.817 184.697 164.17 161.716 178.785C142.954 190.743 63.8154 193.975 45.1431 178.785C24.0047 161.552 35.3288 136.75 30.2455 108.042C28.484 98.1374 26.7325 87.9105 26.5312 77.8446C26.5312 77.4118 26.5312 76.9689 26.5312 76.5159C25.9766 78.6836 25.5929 80.8915 25.3837 83.1192C21.6996 121.873 25.8769 180.376 29.561 205.359C32.1279 222.723 40.3316 233.433 53.6287 233.433H150.08C163.367 233.433 171.964 220.79 174.148 205.359C177.48 182.006 183.61 124.48 178.325 83.1192Z" fill="#3E2A00"/>
</g>
</g>
<path d="M25.382 83.1201C25.9357 75.2083 27.9086 67.8401 32.7201 61.9818C38.3973 55.0867 45.8058 53.1842 53.7176 52.8319C71.9268 52.2883 90.1361 52.0166 108.355 52.1172C123.293 52.2078 138.322 51.9662 153.239 52.9728C167.432 54.2109 176.703 67.1657 178.324 83.1705C175.113 68.8064 166.013 57.1401 152.625 57.2307C138.533 57.3213 123.807 57.9454 109.473 58.0259C91.9278 58.0963 74.3729 57.9554 56.8682 57.3615C48.8155 57.12 41.1654 57.2005 34.6528 63.5017C29.4185 68.5447 26.8215 75.6009 25.382 83.1201Z" fill="#362500"/>
<path opacity="0.5" d="M178.323 83.1199C183.417 120.364 181.605 158.614 177.417 195.938C175.676 211.46 172.384 228.763 158.01 234.652C151.85 237.178 144.854 236.282 138.462 236.292L110.721 236.373C92.773 236.373 74.8255 236.373 56.888 236.262C51.4222 236.262 46.1175 235.809 41.2255 232.568C34.0183 227.797 29.8913 218.717 28.1398 209.537C26.2373 199.884 25.573 189.607 24.8784 179.752C24.1637 169.455 23.5497 159.137 23.2779 148.82C22.7746 129.846 22.7545 110.751 24.5462 91.8671C24.8382 88.9682 25.0999 86.0591 25.3817 83.1601C23.9121 120.615 25.2207 158.876 30.4147 195.898C31.7031 205.179 32.7097 215.023 38.0346 222.512C39.8075 225.073 42.1916 227.15 44.9706 228.557C47.7495 229.963 50.8355 230.653 53.9488 230.565C69.9033 230.404 85.8577 230.474 101.812 230.414L129.665 230.494C137.556 230.494 146.012 231.571 153.823 230.213C166.496 228.018 170.995 212.789 172.817 200.075C178.283 161.956 181.534 122.407 178.414 83.7943L178.323 83.1199Z" fill="#3E2A00"/>
<path d="M64.9206 71.2018C60.4513 53.9287 40.088 72.3191 37.2796 81.5797C36.3233 84.7605 34.6926 91.102 36.585 94.1922C40.7322 100.977 52.5596 91.1725 56.1632 88.1527C60.4211 84.6095 66.7123 78.1573 64.9206 71.2018Z" fill="#3E2A00" fill-opacity="0.2"/>
<path d="M80.273 66.5107C77.1022 65.5645 71.2136 68.8661 71.4149 74.654C71.7572 84.1662 79.1556 77.2812 81.2393 72.8824C83.0411 69.0775 82.115 67.0643 80.273 66.5107Z" fill="#3E2A00" fill-opacity="0.2"/>
<defs>
<linearGradient id="paint0_linear_203_662" x1="75.7125" y1="3.28232" x2="89.2163" y2="96.1015" gradientUnits="userSpaceOnUse">
<stop stop-color="#FFDF6E" stop-opacity="0"/>
<stop offset="1" stop-color="#FFCD1B" stop-opacity="0.5"/>
</linearGradient>
<linearGradient id="paint1_linear_203_662" x1="125.218" y1="2.45474" x2="112.966" y2="95.5015" gradientUnits="userSpaceOnUse">
<stop stop-color="#FFDF6E" stop-opacity="0"/>
<stop offset="1" stop-color="#FFCD1B" stop-opacity="0.5"/>
</linearGradient>
<linearGradient id="paint2_linear_203_662" x1="37.0521" y1="26.2343" x2="64.2611" y2="100.704" gradientUnits="userSpaceOnUse">
<stop stop-color="#FFDF6E" stop-opacity="0"/>
<stop offset="1" stop-color="#FFCD1B" stop-opacity="0.5"/>
</linearGradient>
<linearGradient id="paint3_linear_203_662" x1="164.092" y1="24.8782" x2="137.829" y2="99.7986" gradientUnits="userSpaceOnUse">
<stop stop-color="#FFDF6E" stop-opacity="0"/>
<stop offset="1" stop-color="#FFCD1B" stop-opacity="0.5"/>
</linearGradient>
<linearGradient id="paint4_linear_203_662" x1="13.1316" y1="62.4238" x2="42.3399" y2="109.185" gradientUnits="userSpaceOnUse">
<stop stop-color="#FFDF6E" stop-opacity="0"/>
<stop offset="1" stop-color="#FFCD1B" stop-opacity="0.5"/>
</linearGradient>
<linearGradient id="paint5_linear_203_662" x1="188.352" y1="60.739" x2="159.675" y2="107.949" gradientUnits="userSpaceOnUse">
<stop stop-color="#FFDF6E" stop-opacity="0"/>
<stop offset="1" stop-color="#FFCD1B" stop-opacity="0.5"/>
</linearGradient>
<linearGradient id="paint6_linear_203_662" x1="122.945" y1="293.101" x2="110.887" y2="200.082" gradientUnits="userSpaceOnUse">
<stop stop-color="#FFDF6E" stop-opacity="0"/>
<stop offset="1" stop-color="#FFCD1B" stop-opacity="0.5"/>
</linearGradient>
<linearGradient id="paint7_linear_203_662" x1="73.432" y1="293.158" x2="87.131" y2="200.313" gradientUnits="userSpaceOnUse">
<stop stop-color="#FFDF6E" stop-opacity="0"/>
<stop offset="1" stop-color="#FFCD1B" stop-opacity="0.5"/>
</linearGradient>
<linearGradient id="paint8_linear_203_662" x1="161.958" y1="270.753" x2="135.911" y2="195.869" gradientUnits="userSpaceOnUse">
<stop stop-color="#FFDF6E" stop-opacity="0"/>
<stop offset="1" stop-color="#FFCD1B" stop-opacity="0.5"/>
</linearGradient>
<linearGradient id="paint9_linear_203_662" x1="34.912" y1="270.132" x2="62.3376" y2="195.629" gradientUnits="userSpaceOnUse">
<stop stop-color="#FFDF6E" stop-opacity="0"/>
<stop offset="1" stop-color="#FFCD1B" stop-opacity="0.5"/>
</linearGradient>
<linearGradient id="paint10_linear_203_662" x1="186.438" y1="234.94" x2="157.961" y2="187.73" gradientUnits="userSpaceOnUse">
<stop stop-color="#FFDF6E" stop-opacity="0"/>
<stop offset="1" stop-color="#FFCD1B" stop-opacity="0.5"/>
</linearGradient>
<linearGradient id="paint11_linear_203_662" x1="11.213" y1="233.898" x2="40.6212" y2="187.14" gradientUnits="userSpaceOnUse">
<stop stop-color="#FFDF6E" stop-opacity="0"/>
<stop offset="1" stop-color="#FFCD1B" stop-opacity="0.5"/>
</linearGradient>
</defs>
</svg>
