<svg width="61" height="63" viewBox="0 0 61 63" fill="none" xmlns="http://www.w3.org/2000/svg">
<path d="M31.0056 60.9999C24.0647 61.0012 17.3381 58.5957 11.972 54.1933C6.60592 49.791 2.93236 43.6641 1.57731 36.8568C0.222254 30.0494 1.26956 22.9828 4.54077 16.8611C7.81197 10.7394 13.1047 5.94143 19.517 3.28468C25.9293 0.627923 33.0644 0.276817 39.7066 2.2912C46.3487 4.30559 52.0869 8.56082 55.9433 14.3318C59.7997 20.1028 61.5357 27.0324 60.8555 33.9399C60.1753 40.8474 57.121 47.3053 52.2131 52.2132C49.4345 55.007 46.1295 57.2221 42.4893 58.7303C38.8491 60.2385 34.9459 61.0099 31.0056 60.9999Z" fill="#362500"/>
<path style="mix-blend-mode:screen" opacity="0.8" d="M2.38114 33.2156C2.38114 25.3866 5.50902 18.0254 11.1899 12.4899C16.8709 6.95448 24.4229 3.90456 32.4556 3.90456C38.8812 3.90456 44.9985 5.85715 50.0964 9.47143C45.9482 5.79298 40.8257 3.3912 35.3448 2.55494C29.864 1.71869 24.2583 2.48355 19.2019 4.75758C14.1454 7.0316 9.85357 10.7179 6.84246 15.3733C3.83135 20.0286 2.22921 25.4546 2.2287 30.9989C2.22922 32.0418 2.28555 33.084 2.39743 34.1209C2.38812 33.8219 2.38114 33.5193 2.38114 33.2156Z" fill="url(#paint0_radial_114_891)"/>
<path style="mix-blend-mode:multiply" opacity="0.5" d="M52.2131 9.79025C47.3057 4.88331 40.8488 1.82972 33.9424 1.14975C27.036 0.469787 20.1075 2.20553 14.3374 6.06123C8.56735 9.91692 4.31266 15.654 2.29829 22.295C0.283931 28.936 0.634526 36.0699 3.29035 42.4814C5.94617 48.8929 10.7429 54.1852 16.8632 57.4565C22.9836 60.7278 30.0489 61.7758 36.8553 60.422C43.6617 59.0681 49.7881 55.3961 54.1907 50.0316C58.5933 44.6671 60.9996 37.9421 60.9998 31.0023C61.0106 27.0613 60.2396 23.1572 58.7313 19.5161C57.2231 15.875 55.0076 12.5693 52.2131 9.79025ZM51.196 50.1234C45.7094 55.4145 38.4157 58.3282 30.6589 58.3282C22.902 58.3282 15.6071 55.4191 10.1217 50.1234C4.63626 44.8276 1.61776 37.7969 1.61776 30.3146C1.61776 22.8324 4.64323 15.797 10.1252 10.5059C15.6071 5.21479 22.9043 2.30568 30.6623 2.30568C38.4204 2.30568 45.7129 5.2148 51.1995 10.5106C56.6861 15.8063 59.7058 22.837 59.7058 30.3193C59.7058 37.8015 56.685 44.8323 51.1995 50.1234H51.196Z" fill="white"/>
<path style="mix-blend-mode:multiply" d="M51.4625 50.619C45.9759 55.9101 38.4576 58.9391 30.6996 58.9391C23.1673 58.9391 15.3569 55.9625 10.6011 51.3055C10.6011 51.8781 10.6162 52.4506 10.6383 53.0243C14.7796 56.8535 19.9166 59.4378 25.4598 60.4804C31.003 61.523 36.7279 60.9818 41.9775 58.9189C47.2271 56.856 51.7888 53.3549 55.1392 48.8174C58.4896 44.2799 60.493 38.8898 60.9194 33.2656C60.6239 32.8133 60.3202 32.3672 60.0083 31.9274C59.2729 40.4918 56.6652 45.6002 51.4625 50.619Z" fill="url(#paint1_radial_114_891)"/>
<path style="mix-blend-mode:multiply" opacity="0.3" d="M31.0906 55.3516C25.028 55.3516 19.3273 52.8893 15.0393 48.4186C10.7512 43.9479 8.3902 38.004 8.3902 31.6807C8.3902 25.3575 10.7512 19.4147 15.0393 14.944C19.3273 10.4733 24.8604 8.48462 30.923 8.48462C36.9856 8.48462 42.8551 10.4733 47.1431 14.944C51.4311 19.4147 53.7921 25.3586 53.7921 31.6807C53.7921 38.0028 51.9385 44.0957 47.6504 48.5664C43.3624 53.0371 37.1543 55.3516 31.0906 55.3516Z" fill="url(#paint2_linear_114_891)"/>
<path style="mix-blend-mode:multiply" opacity="0.5" d="M31.0906 54.5882C25.2246 54.5882 19.7101 52.2062 15.5617 47.881C11.4133 43.5557 9.12909 37.8049 9.12909 31.6888C9.12909 25.5727 11.4145 19.8196 15.5617 15.4967C19.709 11.1738 25.0629 9.24792 30.9288 9.24792C36.7948 9.24792 42.4722 11.1714 46.6206 15.4967C50.769 19.822 53.0521 25.5727 53.0521 31.6888C53.0521 37.8049 51.2589 43.6988 47.1175 48.0241C42.976 52.3494 36.9577 54.5882 31.0906 54.5882Z" fill="url(#paint3_linear_114_891)"/>
<path d="M31.0056 52.1457C26.1139 52.1457 21.3736 50.4497 17.5923 47.3465C13.8109 44.2433 11.2225 39.925 10.2682 35.1274C9.31379 30.3297 10.0525 25.3496 12.3583 21.0355C14.6642 16.7214 18.3945 13.3403 22.9138 11.4683C27.4331 9.59631 32.4616 9.34921 37.1427 10.7691C41.8237 12.189 45.8676 15.1881 48.5853 19.2554C51.303 23.3226 52.5263 28.2063 52.0469 33.0744C51.5675 37.9425 49.415 42.4938 45.9561 45.9527C43.9975 47.9224 41.6676 49.484 39.1013 50.547C36.535 51.61 33.7833 52.1534 31.0056 52.1457Z" fill="url(#paint4_linear_114_891)"/>
<path style="mix-blend-mode:screen" opacity="0.6" d="M29.0973 40.3138C24.6754 40.5384 20.5131 39.2491 17.3852 36.6821C14.2573 34.1151 12.5328 30.5822 12.5328 26.7271C12.5328 22.8719 14.2561 19.1634 17.3852 16.2799C20.5142 13.3964 24.6731 11.6858 29.0973 11.4612C33.5214 11.2366 37.6815 12.5271 40.8094 15.093C43.9372 17.6588 45.6606 21.1951 45.6606 25.0479C45.6606 28.9008 43.9384 32.6116 40.8094 35.4951C37.6803 38.3787 33.5214 40.0904 29.0973 40.3138Z" fill="url(#paint5_linear_114_891)"/>
<path style="mix-blend-mode:multiply" opacity="0.3" d="M28.7697 41.4811C22.6202 41.6191 16.7928 39.7712 12.3462 36.2779C13.0795 39.8592 14.9838 43.1313 17.8756 45.6981C21.5501 48.9608 26.3657 51.0013 31.4565 50.8871C36.5474 50.7728 41.305 48.5174 44.8282 45.0932C48.3514 41.6689 50.2373 37.1734 50.1313 32.449C50.109 31.4246 49.9922 30.4044 49.7824 29.4015C47.3715 38.7718 34.9564 41.3422 28.7697 41.4811Z" fill="url(#paint6_linear_114_891)"/>
<g style="mix-blend-mode:multiply" opacity="0.4" filter="url(#filter0_d_114_891)">
<path d="M45.9562 16.0506C42.4971 12.5915 37.9456 10.4387 33.0773 9.95918C28.2089 9.47962 23.3249 10.7029 19.2574 13.4207C15.1899 16.1384 12.1906 20.1824 10.7704 24.8637C9.35032 29.5449 9.5973 34.5738 11.4693 39.0933C13.3413 43.6129 16.7224 47.3435 21.0367 49.6496C25.3509 51.9557 30.3313 52.6946 35.1292 51.7403C39.9272 50.786 44.2458 48.1977 47.3492 44.4162C50.4527 40.6348 52.149 35.8942 52.1491 31.0023C52.1568 28.2244 51.6134 25.4726 50.5504 22.9061C49.4874 20.3396 47.9258 18.0095 45.9562 16.0506ZM43.9058 42.2187C40.2799 45.6933 35.4589 47.6075 30.3307 47.6075C25.2025 47.6075 20.3827 45.6968 16.7568 42.2187C13.1309 38.7406 11.0072 34.3059 11.0072 29.3953C11.0072 24.4847 13.004 19.8616 16.63 16.3881C20.2559 12.9146 25.0757 10.9992 30.2039 10.9992C35.3321 10.9992 40.1519 12.9134 43.7778 16.3881C47.4037 19.8627 49.4005 24.4812 49.4005 29.3953C49.4005 34.3094 47.5317 38.7475 43.9058 42.2187Z" fill="white" style="mix-blend-mode:multiply" shape-rendering="crispEdges"/>
</g>
<path style="mix-blend-mode:multiply" d="M44.7064 43.2147C41.0804 46.6893 36.2339 48.9398 30.5099 48.8246C25.384 48.7222 16.7323 46.3949 11.3889 38.7626C11.5459 40.003 14.2887 44.6646 16.5671 46.4426C19.5772 49.2576 23.3445 51.1314 27.4056 51.8337C31.4666 52.5359 35.6444 52.0359 39.425 50.3951C43.2056 48.7544 46.4243 46.0444 48.6851 42.5985C50.9459 39.1527 52.1503 35.1212 52.1502 30.9999C52.1502 30.3335 52.1196 29.6718 52.0583 29.0147C52.0478 27.5648 51.0808 23.8493 50.4443 22.603C52.1479 33.9276 48.3323 39.74 44.7064 43.2147Z" fill="url(#paint7_radial_114_891)"/>
<path d="M25.4329 13.2171C24.0179 12.868 21.3881 14.5902 21.3113 15.5828C21.2112 16.8861 22.9904 16.651 24.8988 15.6596C26.4209 14.873 26.3487 13.4452 25.4329 13.2171Z" fill="#FFAA00"/>
<path d="M18.7734 17.3166C17.7518 17.3923 16.9977 18.1929 17.1653 18.8713C17.3852 19.7615 18.344 19.6207 19.0748 18.898C19.9313 18.0532 19.4344 17.2689 18.7734 17.3166Z" fill="#FFAA00"/>
<path style="mix-blend-mode:multiply" opacity="0.2" d="M31.2139 19.9931C30.4215 20.0792 29.9141 21.7281 29.6535 24.0519C26.4732 21.6583 22.4517 19.7895 20.577 19.9931C17.8274 20.2922 18.5081 39.426 21.0146 40.3115C22.4331 40.8142 26.6618 38.4229 29.9397 35.6244C30.3203 38.1553 30.9056 40.0462 31.6538 40.3115C34.1044 41.1796 44.9356 33.4158 44.7797 29.8271C44.6028 25.7729 34.5396 19.6277 31.2139 19.9931Z" fill="url(#paint8_linear_114_891)"/>
<path d="M39.2774 3.37885C32.9396 1.34325 26.11 1.62957 19.9525 4.18899C13.795 6.74841 8.69044 11.4226 5.50875 17.415C2.32705 23.4074 1.26506 30.3473 2.50373 37.0522C3.7424 43.757 7.20509 49.8118 12.3017 54.185C17.3984 58.5582 23.8137 60.979 30.4544 61.0351C34.2242 61.0775 37.9651 60.3512 41.4607 58.8982C44.9562 57.4453 48.1371 55.2945 50.8192 52.5703" stroke="white" stroke-width="2.5" stroke-linecap="round"/>
<path d="M30.1137 21.425C30.3862 21.1528 30.7555 21 31.1406 21C31.5257 21 31.895 21.1528 32.1675 21.425L40.4019 29.6593C40.674 29.9318 40.8268 30.3011 40.8268 30.6862C40.8268 31.0713 40.674 31.4406 40.4019 31.7131L32.1675 39.9475C31.8919 40.204 31.5275 40.3437 31.151 40.3372C30.7745 40.3307 30.4152 40.1785 30.1486 39.9126C29.8827 39.646 29.7305 39.2867 29.724 38.9102C29.7175 38.5337 29.8572 38.1694 30.1137 37.8937L35.8681 32.1393H21.4531C21.0677 32.1393 20.6981 31.9862 20.4256 31.7137C20.1531 31.4412 20 31.0716 20 30.6862C20 30.3008 20.1531 29.9312 20.4256 29.6587C20.6981 29.3862 21.0677 29.2331 21.4531 29.2331H35.8681L30.1137 23.4787C29.8416 23.2063 29.6888 22.8369 29.6888 22.4518C29.6888 22.0668 29.8416 21.6974 30.1137 21.425Z" fill="#362500"/>
<defs>
<filter id="filter0_d_114_891" x="5.85986" y="9.8573" width="50.2893" height="50.2893" filterUnits="userSpaceOnUse" color-interpolation-filters="sRGB">
<feFlood flood-opacity="0" result="BackgroundImageFix"/>
<feColorMatrix in="SourceAlpha" type="matrix" values="0 0 0 0 0 0 0 0 0 0 0 0 0 0 0 0 0 0 127 0" result="hardAlpha"/>
<feOffset dy="4"/>
<feGaussianBlur stdDeviation="2"/>
<feComposite in2="hardAlpha" operator="out"/>
<feColorMatrix type="matrix" values="0 0 0 0 0 0 0 0 0 0 0 0 0 0 0 0 0 0 0.25 0"/>
<feBlend mode="normal" in2="BackgroundImageFix" result="effect1_dropShadow_114_891"/>
<feBlend mode="normal" in="SourceGraphic" in2="effect1_dropShadow_114_891" result="shape"/>
</filter>
<radialGradient id="paint0_radial_114_891" cx="0" cy="0" r="1" gradientUnits="userSpaceOnUse" gradientTransform="translate(38680.3 45653.6) scale(11688.8 7788.5)">
<stop stop-color="white"/>
<stop offset="1"/>
</radialGradient>
<radialGradient id="paint1_radial_114_891" cx="0" cy="0" r="1" gradientUnits="userSpaceOnUse" gradientTransform="translate(51494.8 54911.5) scale(12458.8 7197.74)">
<stop stop-color="#FFAF00"/>
<stop offset="1" stop-color="white"/>
</radialGradient>
<linearGradient id="paint2_linear_114_891" x1="45416.7" y1="81372.9" x2="51826.2" y2="89374.6" gradientUnits="userSpaceOnUse">
<stop stop-color="#8B4519"/>
<stop offset="1" stop-color="white"/>
</linearGradient>
<linearGradient id="paint3_linear_114_891" x1="43120.4" y1="78203.1" x2="49382.1" y2="87418.6" gradientUnits="userSpaceOnUse">
<stop/>
<stop offset="1" stop-color="white"/>
</linearGradient>
<linearGradient id="paint4_linear_114_891" x1="38884.7" y1="67375.5" x2="40577.4" y2="77289.3" gradientUnits="userSpaceOnUse">
<stop stop-color="#FFC701"/>
<stop offset="0.0001" stop-color="#553C00"/>
<stop offset="1" stop-color="#F6A300"/>
</linearGradient>
<linearGradient id="paint5_linear_114_891" x1="29433" y1="43235.8" x2="30169.5" y2="46920" gradientUnits="userSpaceOnUse">
<stop stop-color="#F6A300"/>
<stop offset="1"/>
</linearGradient>
<linearGradient id="paint6_linear_114_891" x1="36334.9" y1="36045.9" x2="36115" y2="33892.1" gradientUnits="userSpaceOnUse">
<stop stop-color="white"/>
<stop offset="1" stop-color="#FF9700"/>
</linearGradient>
<radialGradient id="paint7_radial_114_891" cx="0" cy="0" r="1" gradientUnits="userSpaceOnUse" gradientTransform="translate(40385.1 52547.3) scale(10547 7643.42)">
<stop stop-color="#A45100"/>
<stop offset="1" stop-color="white"/>
</radialGradient>
<linearGradient id="paint8_linear_114_891" x1="23067.9" y1="29971" x2="23353" y2="31357.1" gradientUnits="userSpaceOnUse">
<stop stop-color="white"/>
<stop offset="0.755" stop-color="white"/>
<stop offset="1" stop-color="#A45100"/>
</linearGradient>
</defs>
</svg>
