<svg width="125" height="47" viewBox="0 0 125 47" fill="none" xmlns="http://www.w3.org/2000/svg">
<g filter="url(#filter0_d_114_1544)">
<path d="M5.39615 33.2698C8.27959 39.6541 111.26 41.4435 117.201 34.8074C122.588 28.7828 120.37 7.20194 115.791 2.89477C109.454 -2.96803 14.2842 1.15032 9.19853 5.76322C4.4456 10.0704 2.41765 26.6517 5.39615 33.2698Z" fill="url(#paint0_radial_114_1544)"/>
<path d="M5.63254 32.1459C8.50014 38.2964 111.068 38.737 116.978 32.3347C122.349 26.5259 120.241 7.30093 115.647 3.15562C109.389 -2.50036 14.3937 1.46513 9.32391 5.91617C4.60267 10.0705 2.65404 25.7615 5.63254 32.1459Z" fill="url(#paint1_linear_114_1544)"/>
<path d="M6.49068 31.5973C9.29491 37.568 110.374 37.9907 116.157 31.7862C121.416 26.1482 119.325 7.50773 114.858 3.47032C108.726 -2.0238 15.0459 1.83377 10.1187 6.16792C5.49253 10.1784 3.5914 25.4108 6.49068 31.5973Z" fill="url(#paint2_linear_114_1544)"/>
<path style="mix-blend-mode:screen" d="M114.779 32.9031C114.779 32.9031 49.8223 38.8288 10.0562 33.5955C10.0562 33.5955 35.9279 35.9874 47.4458 33.5955C66.9803 29.5491 109.662 28.3441 114.779 32.9031Z" fill="url(#paint3_linear_114_1544)"/>
<path style="mix-blend-mode:screen" d="M28.671 11.3383C29.0717 11.3244 29.4707 11.3784 29.8174 11.4933C30.164 11.6082 30.4428 11.779 30.6183 11.9839C30.7939 12.1888 30.8583 12.4187 30.8034 12.6444C30.7486 12.8701 30.5769 13.0815 30.3102 13.2518C30.0434 13.4221 29.6937 13.5437 29.3052 13.6011C28.9167 13.6584 28.5069 13.6491 28.1278 13.5742C27.7486 13.4992 27.4171 13.3621 27.1754 13.1802C26.9337 12.9983 26.7925 12.7797 26.7698 12.5523C26.7395 12.2483 26.9226 11.95 27.2789 11.7225C27.6352 11.495 28.1357 11.3569 28.671 11.3383Z" fill="url(#paint4_radial_114_1544)"/>
<path d="M28.8602 12.1656C28.9343 12.1619 29.0089 12.1668 29.0796 12.1798C29.1504 12.1929 29.2159 12.2138 29.272 12.2415C29.3282 12.2692 29.374 12.303 29.4066 12.341C29.4393 12.3789 29.4582 12.4202 29.4621 12.4624C29.4397 12.5378 29.3709 12.6063 29.268 12.6558C29.165 12.7052 29.0346 12.7323 28.8998 12.7323C28.765 12.7323 28.6345 12.7052 28.5315 12.6558C28.4286 12.6063 28.3598 12.5378 28.3374 12.4624C28.345 12.3851 28.4025 12.3121 28.499 12.2573C28.5954 12.2026 28.724 12.1699 28.8602 12.1656V12.1656Z" fill="#FFFFAB"/>
<path style="mix-blend-mode:screen" d="M31.4119 6.41971C31.6761 6.41086 31.9409 6.43163 32.191 6.48084C32.4411 6.53005 32.6716 6.60672 32.8695 6.7065C33.0673 6.80628 33.2287 6.92721 33.3442 7.06237C33.4598 7.19754 33.5273 7.34429 33.5429 7.49426C33.5585 7.64423 33.5218 7.79447 33.4351 7.93641C33.3484 8.07835 33.2133 8.2092 33.0375 8.3215C32.8617 8.43381 32.6487 8.52536 32.4105 8.59094C32.1724 8.65651 31.9138 8.69482 31.6496 8.70368C31.116 8.72156 30.5917 8.61839 30.1921 8.41688C29.7924 8.21536 29.5502 7.932 29.5186 7.62913C29.4871 7.32626 29.6689 7.02868 30.024 6.80187C30.379 6.57506 30.8783 6.4376 31.4119 6.41971V6.41971Z" fill="url(#paint5_radial_114_1544)"/>
<path d="M31.6483 7.23799C31.7971 7.23301 31.9434 7.26126 32.0559 7.31672C32.1685 7.37218 32.2383 7.45044 32.2504 7.53474C32.2592 7.61917 32.2094 7.7022 32.1116 7.76606C32.0139 7.82993 31.8761 7.86954 31.7275 7.87644C31.6526 7.87887 31.5776 7.87288 31.5068 7.85882C31.4359 7.84476 31.3706 7.8229 31.3147 7.79449C31.2588 7.76609 31.2132 7.7317 31.1808 7.6933C31.1483 7.6549 31.1295 7.61324 31.1255 7.5707C31.1212 7.52936 31.1314 7.48793 31.1553 7.44882C31.1793 7.4097 31.2166 7.37366 31.2652 7.34275C31.3138 7.31184 31.3727 7.28667 31.4384 7.2687C31.5041 7.25072 31.5755 7.24028 31.6483 7.23799V7.23799Z" fill="#FFFFAB"/>
<path style="mix-blend-mode:screen" d="M29.7965 20.5551C30.1972 20.5412 30.5961 20.5952 30.9428 20.7101C31.2894 20.825 31.5682 20.9958 31.7437 21.2007C31.9193 21.4056 31.9838 21.6355 31.9289 21.8612C31.8741 22.0869 31.7024 22.2983 31.4357 22.4686C31.1689 22.6389 30.8192 22.7605 30.4307 22.8178C30.0422 22.8752 29.6323 22.8658 29.2532 22.7909C28.874 22.716 28.5426 22.5789 28.3009 22.397C28.0592 22.2151 27.918 21.9965 27.8953 21.769C27.865 21.4651 28.048 21.1668 28.4043 20.9393C28.7606 20.7118 29.2612 20.5737 29.7965 20.5551Z" fill="url(#paint6_radial_114_1544)"/>
<path d="M30.0331 21.3645C30.1818 21.3595 30.3282 21.3877 30.4407 21.4432C30.5532 21.4987 30.623 21.5769 30.6351 21.6612C30.6394 21.7033 30.6288 21.7454 30.6038 21.7851C30.5788 21.8248 30.5401 21.8612 30.4899 21.8922C30.4397 21.9233 30.3789 21.9483 30.3113 21.9657C30.2437 21.9832 30.1707 21.9928 30.0965 21.9939C30.0232 21.9976 29.9493 21.9927 29.8794 21.9796C29.8096 21.9665 29.7451 21.9453 29.6902 21.9175C29.6353 21.8897 29.591 21.8558 29.56 21.8179C29.5291 21.78 29.5121 21.7389 29.5102 21.6972C29.5059 21.6558 29.5161 21.6144 29.5401 21.5753C29.5641 21.5362 29.6014 21.5001 29.65 21.4692C29.6985 21.4383 29.7574 21.4131 29.8231 21.3952C29.8889 21.3772 29.9602 21.3667 30.0331 21.3645V21.3645Z" fill="#FFFFAB"/>
<path style="mix-blend-mode:screen" d="M20.2892 3.89295C21.4056 3.855 22.5168 4.00577 23.4823 4.3262C24.4478 4.64663 25.2243 5.12234 25.7135 5.69318C26.2028 6.26402 26.3828 6.90437 26.231 7.53328C26.0791 8.16219 25.6021 8.75144 24.8603 9.22651C24.1184 9.70159 23.145 10.0412 22.0632 10.2023C20.9814 10.3635 19.8397 10.339 18.7824 10.1319C17.7251 9.92489 16.7998 9.54457 16.1233 9.03906C15.4468 8.53356 15.0495 7.92556 14.9817 7.29193C14.895 6.44224 15.4047 5.60763 16.3993 4.97066C17.3939 4.33369 18.7925 3.94621 20.2892 3.89295Z" fill="url(#paint7_radial_114_1544)"/>
<path d="M20.9389 6.16801C21.2526 6.15577 21.5656 6.19678 21.8381 6.28584C22.1106 6.37489 22.3303 6.50794 22.4691 6.66807C22.6079 6.82821 22.6597 7.00817 22.6177 7.18505C22.5758 7.36193 22.442 7.52771 22.2336 7.66131C22.0251 7.79492 21.7513 7.89029 21.447 7.93528C21.1428 7.98027 20.8218 7.97286 20.5249 7.91397C20.2281 7.85509 19.9689 7.74739 19.7802 7.60461C19.5915 7.46182 19.482 7.29042 19.4656 7.11219C19.4438 6.87657 19.5861 6.64553 19.8617 6.4689C20.1373 6.29227 20.5242 6.18421 20.9389 6.16801Z" fill="#FFFFAB"/>
<path style="mix-blend-mode:screen" d="M36.4187 28.3962C36.9502 28.3789 37.4786 28.4515 37.9375 28.6046C38.3963 28.7578 38.7649 28.9846 38.9967 29.2566C39.2285 29.5286 39.3131 29.8334 39.2399 30.1326C39.1666 30.4319 38.9389 30.7121 38.5852 30.9379C38.2316 31.1637 37.768 31.325 37.253 31.4013C36.738 31.4777 36.1947 31.4657 35.6917 31.367C35.1886 31.2682 34.7484 31.087 34.4267 30.8463C34.1049 30.6057 33.916 30.3163 33.8838 30.0147C33.8624 29.8139 33.911 29.6127 34.0269 29.4225C34.1428 29.2324 34.3238 29.0571 34.5593 28.9067C34.7948 28.7564 35.0802 28.6339 35.3993 28.5463C35.7184 28.4586 36.0649 28.4076 36.4187 28.3962Z" fill="url(#paint8_radial_114_1544)"/>
<path d="M36.7811 29.4932C36.8789 29.4896 36.977 29.4969 37.0698 29.5148C37.1626 29.5328 37.2483 29.5609 37.3219 29.5977C37.3955 29.6344 37.4556 29.6791 37.4987 29.729C37.5419 29.779 37.5671 29.8333 37.5732 29.8889C37.5818 29.9447 37.5705 30.0009 37.5397 30.0541C37.509 30.1073 37.4595 30.1564 37.3943 30.1984C37.3291 30.2405 37.2496 30.2745 37.1605 30.2986C37.0714 30.3227 36.9747 30.3363 36.8761 30.3385C36.6787 30.3456 36.4843 30.308 36.3357 30.2338C36.1872 30.1596 36.0966 30.0549 36.084 29.9428C36.0714 29.8307 36.1378 29.7204 36.2685 29.6361C36.3992 29.5518 36.5836 29.5004 36.7811 29.4932V29.4932Z" fill="#FFFFAB"/>
<path style="mix-blend-mode:screen" d="M12.4316 32.4426C12.6973 32.434 12.9616 32.4703 13.191 32.5469C13.4204 32.6235 13.6047 32.7369 13.7206 32.8729C13.8365 33.0088 13.8789 33.1613 13.8423 33.3109C13.8057 33.4605 13.6917 33.6006 13.5149 33.7135C13.338 33.8264 13.1063 33.9071 12.8488 33.9452C12.5913 33.9834 12.3195 33.9774 12.068 33.928C11.8165 33.8787 11.5965 33.7881 11.4356 33.6677C11.2747 33.5474 11.1802 33.4027 11.1641 33.2519C11.1513 33.1513 11.174 33.0501 11.2312 32.9545C11.2883 32.859 11.3786 32.7708 11.4968 32.6954C11.615 32.62 11.7585 32.5587 11.9191 32.5153C12.0797 32.4719 12.2539 32.4472 12.4316 32.4426V32.4426Z" fill="url(#paint9_radial_114_1544)"/>
<path d="M12.5898 32.9912C12.639 32.9887 12.6885 32.9919 12.7354 33.0006C12.7822 33.0094 12.8255 33.0234 12.8625 33.0419C12.8995 33.0604 12.9296 33.083 12.9508 33.1083C12.972 33.1335 12.9839 33.161 12.9859 33.189C12.9974 33.2204 12.9964 33.2528 12.983 33.2839C12.9696 33.3151 12.9442 33.3442 12.9085 33.369C12.8729 33.3939 12.8279 33.4139 12.7769 33.4277C12.7259 33.4414 12.6701 33.4486 12.6136 33.4486C12.5571 33.4486 12.5014 33.4414 12.4504 33.4277C12.3994 33.4139 12.3543 33.3939 12.3187 33.369C12.283 33.3442 12.2576 33.3151 12.2442 33.2839C12.2308 33.2528 12.2299 33.2204 12.2413 33.189C12.2486 33.1379 12.2876 33.0899 12.3515 33.0537C12.4153 33.0174 12.4998 32.9953 12.5898 32.9912V32.9912Z" fill="#FFFFAB"/>
<path style="mix-blend-mode:screen" d="M50.3768 19.2873C50.6425 19.2786 50.9068 19.3149 51.1362 19.3915C51.3656 19.4681 51.5499 19.5815 51.6658 19.7175C51.7817 19.8535 51.824 20.0059 51.7874 20.1555C51.7507 20.3051 51.6369 20.4452 51.46 20.5581C51.2832 20.671 51.0515 20.7517 50.794 20.7899C50.5365 20.828 50.2648 20.8221 50.0132 20.7727C49.7617 20.7233 49.5416 20.6327 49.3807 20.5124C49.2199 20.392 49.1255 20.2473 49.1094 20.0966C49.0987 19.9961 49.1229 19.8955 49.1809 19.8004C49.2388 19.7054 49.3293 19.6177 49.4471 19.5426C49.5648 19.4674 49.7076 19.4061 49.8671 19.3623C50.0267 19.3185 50.1999 19.293 50.3768 19.2873Z" fill="url(#paint10_radial_114_1544)"/>
<path d="M50.5355 19.8359C50.5846 19.8334 50.6342 19.8367 50.681 19.8454C50.7279 19.8541 50.7712 19.8681 50.8082 19.8866C50.8453 19.9051 50.8753 19.9277 50.8965 19.953C50.9177 19.9783 50.9297 20.0057 50.9316 20.0337C50.9379 20.0766 50.9214 20.1195 50.8843 20.1571C50.8472 20.1946 50.7911 20.225 50.7234 20.2443C50.6557 20.2636 50.5794 20.271 50.5042 20.2655C50.429 20.26 50.3584 20.2419 50.3014 20.2135C50.2445 20.1851 50.2039 20.1476 50.1847 20.106C50.1656 20.0644 50.1687 20.0204 50.1939 19.9799C50.2191 19.9393 50.265 19.9039 50.3259 19.8782C50.3868 19.8526 50.4597 19.8378 50.5355 19.8359V19.8359Z" fill="#FFFFAB"/>
<path style="mix-blend-mode:screen" d="M31.6482 31.3454C31.789 31.3319 31.9332 31.3355 32.0714 31.3558C32.2096 31.3761 32.3386 31.4127 32.4501 31.4633C32.5617 31.5139 32.6531 31.5772 32.7185 31.6493C32.7839 31.7213 32.8217 31.8003 32.8296 31.8812C32.8375 31.9621 32.8152 32.0431 32.7641 32.1187C32.7131 32.1944 32.6345 32.2631 32.5334 32.3203C32.4324 32.3775 32.3111 32.422 32.1776 32.4508C32.0442 32.4796 31.9016 32.4921 31.7591 32.4874C31.628 32.4923 31.4964 32.4824 31.372 32.4584C31.2476 32.4344 31.1328 32.3966 31.0341 32.3473C30.9355 32.298 30.8551 32.2381 30.7973 32.1712C30.7396 32.1042 30.7056 32.0313 30.6975 31.9569C30.6844 31.8048 30.7764 31.6558 30.954 31.5415C31.1315 31.4273 31.3806 31.357 31.6482 31.3454V31.3454Z" fill="url(#paint11_radial_114_1544)"/>
<path d="M31.7604 31.7233C31.7979 31.7221 31.8353 31.7251 31.8708 31.7321C31.9062 31.7391 31.9388 31.7501 31.9668 31.7643C31.9948 31.7785 32.0176 31.7957 32.0338 31.8149C32.0501 31.8341 32.0595 31.8549 32.0615 31.8762C32.0465 31.9115 32.011 31.9429 31.9607 31.9654C31.9104 31.9879 31.8481 32.0001 31.7841 32.0001C31.7201 32.0001 31.6579 31.9879 31.6076 31.9654C31.5573 31.9429 31.5218 31.9115 31.5068 31.8762C31.5102 31.8377 31.5376 31.8012 31.584 31.7732C31.6305 31.7452 31.693 31.7275 31.7604 31.7233V31.7233Z" fill="#FFFFAB"/>
<path style="mix-blend-mode:screen" d="M47.4132 33.2339C48.577 33.2339 49.5204 32.6985 49.5204 32.038C49.5204 31.3775 48.577 30.842 47.4132 30.842C46.2495 30.842 45.3062 31.3775 45.3062 32.038C45.3062 32.6985 46.2495 33.2339 47.4132 33.2339Z" fill="url(#paint12_radial_114_1544)"/>
<path d="M47.5388 31.7053C47.6918 31.7003 47.8422 31.7295 47.9577 31.7867C48.0731 31.8438 48.1446 31.9244 48.1568 32.011C48.1633 32.055 48.1538 32.0993 48.1291 32.1411C48.1044 32.183 48.0648 32.2215 48.0129 32.2543C47.9609 32.2872 47.8977 32.3136 47.8271 32.3321C47.7565 32.3506 47.68 32.3607 47.6023 32.3617C47.5183 32.3696 47.4323 32.3671 47.3503 32.3542C47.2682 32.3414 47.1921 32.3186 47.1272 32.2873C47.0622 32.2561 47.01 32.2172 46.9743 32.1734C46.9385 32.1295 46.9199 32.0818 46.9199 32.0335C46.9199 31.9852 46.9385 31.9375 46.9743 31.8937C47.01 31.8498 47.0622 31.811 47.1272 31.7797C47.1921 31.7485 47.2682 31.7256 47.3503 31.7128C47.4323 31.6999 47.5183 31.6974 47.6023 31.7053H47.5388Z" fill="#FFFFAB"/>
<path d="M44.621 12.092C45.381 12.5733 45.761 13.1813 45.761 13.916C45.761 14.22 45.6723 14.4923 45.495 14.733C45.3303 14.9737 45.1277 15.1637 44.887 15.303C44.6463 15.4423 44.4247 15.512 44.222 15.512C43.9307 15.512 43.6837 15.4487 43.481 15.322C43.291 15.1953 43.082 15.056 42.854 14.904C42.6133 14.7393 42.2903 14.5873 41.885 14.448C41.4797 14.3087 41.0363 14.239 40.555 14.239C40.0103 14.239 39.5923 14.3277 39.301 14.505C39.0097 14.6697 38.864 14.9167 38.864 15.246C38.864 15.4107 38.9273 15.569 39.054 15.721C39.1933 15.873 39.453 16.0567 39.833 16.272C40.2257 16.4873 40.8083 16.7723 41.581 17.127C42.7717 17.659 43.6963 18.172 44.355 18.666C45.0137 19.16 45.476 19.6857 45.742 20.243C46.008 20.7877 46.141 21.4147 46.141 22.124C46.141 22.9473 45.9003 23.6883 45.419 24.347C44.9503 25.0057 44.2663 25.525 43.367 25.905C42.4803 26.285 41.4163 26.475 40.175 26.475C39.6177 26.475 39.0667 26.418 38.522 26.304C37.9773 26.2027 37.4643 26.057 36.983 25.867C36.5017 25.6643 36.0837 25.4427 35.729 25.202C35.387 24.9613 35.121 24.6953 34.931 24.404C34.7537 24.1127 34.665 23.8213 34.665 23.53C34.665 23.226 34.741 22.9537 34.893 22.713C35.0577 22.4723 35.254 22.2823 35.482 22.143C35.71 22.0037 35.9127 21.934 36.09 21.934C36.3053 21.934 36.5207 21.991 36.736 22.105C36.964 22.219 37.2047 22.3457 37.458 22.485C37.8127 22.6877 38.2307 22.8903 38.712 23.093C39.1933 23.283 39.7823 23.378 40.479 23.378C40.897 23.378 41.2517 23.34 41.543 23.264C41.8343 23.1753 42.056 23.055 42.208 22.903C42.36 22.7383 42.436 22.5357 42.436 22.295C42.436 22.0417 42.3473 21.8137 42.17 21.611C42.0053 21.4083 41.7077 21.193 41.277 20.965C40.8463 20.7243 40.232 20.433 39.434 20.091C38.522 19.6857 37.743 19.255 37.097 18.799C36.4637 18.3303 35.9823 17.811 35.653 17.241C35.3237 16.671 35.159 16.0313 35.159 15.322C35.159 14.4353 35.3933 13.6817 35.862 13.061C36.3307 12.4277 36.9703 11.9463 37.781 11.617C38.5917 11.2877 39.51 11.123 40.536 11.123C41.334 11.123 42.0877 11.2117 42.797 11.389C43.519 11.5537 44.127 11.788 44.621 12.092ZM58.9835 26.361C58.4515 26.361 58.0145 26.285 57.6725 26.133C57.3432 25.9937 57.0835 25.6707 56.8935 25.164C56.8048 24.9107 56.6845 24.5497 56.5325 24.081C56.3932 23.5997 56.2348 23.0487 56.0575 22.428C55.8802 21.8073 55.6965 21.1613 55.5065 20.49C55.3165 19.8187 55.1328 19.16 54.9555 18.514C54.7782 17.8553 54.6072 17.2473 54.4425 16.69C54.2905 16.1327 54.1638 15.6767 54.0625 15.322C53.6445 16.2087 53.2898 17.07 52.9985 17.906C52.7198 18.742 52.4538 19.5653 52.2005 20.376C51.9598 21.174 51.6938 21.9847 51.4025 22.808C51.1112 23.6187 50.7502 24.4547 50.3195 25.316C50.1168 25.7087 49.8318 25.9557 49.4645 26.057C49.1098 26.171 48.6538 26.228 48.0965 26.228C47.7672 26.228 47.4758 26.1647 47.2225 26.038C46.9692 25.9113 46.8045 25.734 46.7285 25.506C46.6398 25.2653 46.6778 24.993 46.8425 24.689C46.9058 24.5623 47.0515 24.252 47.2795 23.758C47.5202 23.2513 47.8178 22.58 48.1725 21.744C48.5145 20.908 48.8628 20.0467 49.2175 19.16C49.5848 18.2607 49.9458 17.374 50.3005 16.5C50.6552 15.626 50.9972 14.809 51.3265 14.049C51.6685 13.289 51.9978 12.6367 52.3145 12.092C52.5932 11.6107 52.8718 11.3067 53.1505 11.18C53.4292 11.0533 53.7648 10.99 54.1575 10.99C54.6642 10.99 55.1012 11.0723 55.4685 11.237C55.8485 11.389 56.1082 11.7437 56.2475 12.301C56.2728 12.4277 56.3488 12.719 56.4755 13.175C56.6022 13.6183 56.7478 14.0997 56.9125 14.619C57.1025 15.2143 57.3368 15.9047 57.6155 16.69C57.9068 17.4627 58.2108 18.267 58.5275 19.103C58.8568 19.939 59.1735 20.7497 59.4775 21.535C59.7942 22.3203 60.0728 23.0233 60.3135 23.644C60.5542 24.2647 60.7378 24.7397 60.8645 25.069C60.8772 25.107 60.8835 25.145 60.8835 25.183C60.8962 25.221 60.9025 25.259 60.9025 25.297C60.9025 25.4237 60.8455 25.5757 60.7315 25.753C60.6302 25.9177 60.4402 26.057 60.1615 26.171C59.8955 26.2977 59.5028 26.361 58.9835 26.361ZM50.6805 22.675C50.2245 22.7257 49.9268 22.5673 49.7875 22.2C49.6608 21.82 49.5975 21.2817 49.5975 20.585C49.5975 20.4457 49.6418 20.2557 49.7305 20.015C49.8192 19.7617 49.9648 19.6223 50.1675 19.597C50.7882 19.5083 51.5038 19.4513 52.3145 19.426C53.1252 19.4007 53.9548 19.3943 54.8035 19.407C55.6648 19.407 56.4818 19.4133 57.2545 19.426C58.0398 19.426 58.7048 19.4133 59.2495 19.388C59.6042 19.3627 59.8638 19.4893 60.0285 19.768C60.2058 20.0467 60.2945 20.4077 60.2945 20.851C60.2945 21.383 60.1932 21.8073 59.9905 22.124C59.7878 22.428 59.5535 22.5737 59.2875 22.561C58.6668 22.5483 57.9638 22.542 57.1785 22.542C56.4058 22.5293 55.6142 22.5293 54.8035 22.542C53.9928 22.542 53.2265 22.5547 52.5045 22.58C51.7952 22.5927 51.1872 22.6243 50.6805 22.675ZM60.9548 13.08C60.8154 12.7127 60.8218 12.4023 60.9738 12.149C61.1258 11.8957 61.3728 11.7057 61.7148 11.579C62.0568 11.4397 62.4368 11.37 62.8548 11.37C63.2981 11.37 63.6274 11.4333 63.8428 11.56C64.0708 11.6867 64.2481 11.9083 64.3748 12.225C64.6788 12.9977 64.9511 13.7133 65.1918 14.372C65.4324 15.018 65.6478 15.6577 65.8378 16.291C66.0404 16.9117 66.2368 17.5767 66.4268 18.286C66.6294 18.9953 66.8448 19.7997 67.0728 20.699C67.4654 19.4703 67.8454 18.381 68.2128 17.431C68.5801 16.4683 68.9601 15.5563 69.3528 14.695C69.7581 13.8337 70.1951 12.9407 70.6638 12.016C70.8411 11.674 71.0438 11.427 71.2718 11.275C71.5124 11.1103 71.8291 11.028 72.2218 11.028C72.6018 11.028 72.9501 11.104 73.2668 11.256C73.5834 11.408 73.8178 11.6043 73.9698 11.845C74.1218 12.073 74.1281 12.3263 73.9888 12.605C73.4061 13.745 72.8298 14.9167 72.2598 16.12C71.7024 17.3107 71.1704 18.4697 70.6638 19.597C70.1571 20.7243 69.7011 21.7757 69.2958 22.751C68.8904 23.7137 68.5548 24.537 68.2888 25.221C68.1748 25.5123 67.9531 25.7783 67.6238 26.019C67.3071 26.2723 66.9208 26.399 66.4648 26.399C65.9201 26.399 65.5021 26.2787 65.2108 26.038C64.9321 25.7973 64.7421 25.4617 64.6408 25.031C64.3874 23.9417 64.1341 22.9093 63.8808 21.934C63.6274 20.9587 63.3551 20.0023 63.0638 19.065C62.7851 18.115 62.4684 17.1523 62.1138 16.177C61.7718 15.189 61.3854 14.1567 60.9548 13.08ZM75.9473 26.285C75.8079 26.285 75.6369 26.266 75.4343 26.228C75.2443 26.2027 75.0796 26.114 74.9403 25.962C74.8009 25.81 74.7439 25.5693 74.7693 25.24C74.8706 23.91 74.9719 22.5357 75.0733 21.117C75.1746 19.6857 75.2696 18.2543 75.3583 16.823C75.4469 15.3917 75.5229 13.9983 75.5863 12.643C75.6116 12.2377 75.7003 11.9463 75.8523 11.769C76.0043 11.579 76.2956 11.4713 76.7263 11.446C77.3089 11.3953 77.9993 11.3573 78.7972 11.332C79.5953 11.3067 80.4313 11.2877 81.3053 11.275C82.1793 11.2497 83.0216 11.237 83.8323 11.237C84.2376 11.237 84.5353 11.3257 84.7253 11.503C84.9279 11.6803 85.0293 11.9907 85.0293 12.434C85.0293 13.1687 84.9343 13.6563 84.7443 13.897C84.5669 14.125 84.2946 14.239 83.9273 14.239C83.3446 14.239 82.8443 14.2453 82.4263 14.258C82.0209 14.258 81.6473 14.2707 81.3053 14.296C80.9633 14.3087 80.6213 14.3277 80.2793 14.353C79.9373 14.3657 79.5383 14.391 79.0823 14.429C79.0569 14.8343 79.0316 15.17 79.0063 15.436C78.9936 15.702 78.9809 15.9617 78.9683 16.215C78.9556 16.4683 78.9303 16.7977 78.8923 17.203C79.4496 17.127 79.9626 17.07 80.4313 17.032C80.8999 16.994 81.3433 16.9687 81.7613 16.956C82.1919 16.9433 82.6036 16.9497 82.9963 16.975C83.2116 16.975 83.4206 17.07 83.6233 17.26C83.8259 17.45 83.9273 17.792 83.9273 18.286C83.9273 18.97 83.8196 19.426 83.6043 19.654C83.3889 19.8693 83.1799 19.977 82.9773 19.977C82.6606 19.9517 82.2933 19.9453 81.8753 19.958C81.4699 19.958 81.0076 19.9833 80.4883 20.034C79.9816 20.072 79.3989 20.1353 78.7403 20.224C78.6896 20.794 78.6453 21.307 78.6073 21.763C78.5819 22.219 78.5439 22.7003 78.4933 23.207C78.9366 23.1817 79.3736 23.15 79.8043 23.112C80.2476 23.074 80.6846 23.0423 81.1153 23.017C81.5459 22.979 81.9703 22.9473 82.3883 22.922C82.8189 22.8967 83.2369 22.884 83.6423 22.884C83.9589 22.884 84.2059 22.9853 84.3833 23.188C84.5606 23.378 84.6366 23.7263 84.6113 24.233C84.5859 24.879 84.4909 25.316 84.3263 25.544C84.1616 25.772 83.9526 25.886 83.6993 25.886C83.4459 25.886 83.1863 25.886 82.9203 25.886C82.6669 25.886 82.4136 25.8923 82.1603 25.905C81.5649 25.9177 80.8936 25.943 80.1463 25.981C79.4116 26.019 78.6769 26.0633 77.9423 26.114C77.2076 26.1647 76.5426 26.2217 75.9473 26.285Z" fill="black"/>
<path d="M112.925 33.045C112.561 32.3616 115.745 29.2503 116.553 29.2593C117.361 29.2683 116.648 31.3095 116.157 31.7861C115.666 32.2627 113.1 33.3867 112.925 33.045Z" fill="white"/>
<path style="mix-blend-mode:screen" opacity="0.5" d="M14 6.44244C14 6.44244 91.3911 -3.79773 114.956 3.81467C116.498 6.21138 117.521 8.71473 118 11.2645C112.277 14.6997 104.592 16.739 96.4601 16.9806C84.2822 17.4773 40.5328 8.28458 30.3033 7.14679C24.9501 6.46534 19.4632 6.22829 14 6.44244V6.44244Z" fill="url(#paint13_linear_114_1544)"/>
<path d="M10 8.08819C11.3961 6.64301 13.5501 5.48024 16.163 4.76115C19.8784 3.92415 23.9641 3.77313 27.8393 4.32953C28.5364 4.62627 26.6986 5.39958 23.2448 6.12794C19.791 6.85629 11.7586 8.6457 10 8.08819Z" fill="white"/>
<path d="M9.98982 9C9.08675 9.07194 6.82115 12.9835 7.01127 13.6219C7.20139 14.2603 9.81554 12.2371 10.1799 11.1581C10.4228 10.4405 10.3576 9.70026 9.98982 9V9Z" fill="white"/>
</g>
<defs>
<filter id="filter0_d_114_1544" x="0" y="0" width="124.353" height="47" filterUnits="userSpaceOnUse" color-interpolation-filters="sRGB">
<feFlood flood-opacity="0" result="BackgroundImageFix"/>
<feColorMatrix in="SourceAlpha" type="matrix" values="0 0 0 0 0 0 0 0 0 0 0 0 0 0 0 0 0 0 127 0" result="hardAlpha"/>
<feOffset dy="4"/>
<feGaussianBlur stdDeviation="2"/>
<feComposite in2="hardAlpha" operator="out"/>
<feColorMatrix type="matrix" values="0 0 0 0 0 0 0 0 0 0 0 0 0 0 0 0 0 0 0.25 0"/>
<feBlend mode="normal" in2="BackgroundImageFix" result="effect1_dropShadow_114_1544"/>
<feBlend mode="normal" in="SourceGraphic" in2="effect1_dropShadow_114_1544" result="shape"/>
</filter>
<radialGradient id="paint0_radial_114_1544" cx="0" cy="0" r="1" gradientUnits="userSpaceOnUse" gradientTransform="translate(45066.8 8675.16) scale(3278.22 2073.24)">
<stop stop-color="#FFBD00"/>
<stop offset="1" stop-color="#FF772C"/>
</radialGradient>
<linearGradient id="paint1_linear_114_1544" x1="75023.1" y1="8168.28" x2="75023.1" y2="6679.45" gradientUnits="userSpaceOnUse">
<stop stop-color="#FFF300"/>
<stop offset="1" stop-color="#FF9700"/>
</linearGradient>
<linearGradient id="paint2_linear_114_1544" x1="73864" y1="7899.06" x2="73864" y2="6497.05" gradientUnits="userSpaceOnUse">
<stop stop-color="#FFCC00"/>
<stop offset="1" stop-color="#FF9700"/>
</linearGradient>
<linearGradient id="paint3_linear_114_1544" x1="15477.6" y1="1285.64" x2="22399.8" y2="1285.64" gradientUnits="userSpaceOnUse">
<stop stop-color="#FF6140"/>
<stop offset="0.1" stop-color="#EF5B3C"/>
<stop offset="0.29" stop-color="#C54B31"/>
<stop offset="0.55" stop-color="#813120"/>
<stop offset="0.88" stop-color="#240E09"/>
<stop offset="1"/>
</linearGradient>
<radialGradient id="paint4_radial_114_1544" cx="0" cy="0" r="1" gradientUnits="userSpaceOnUse" gradientTransform="translate(3317.55 -92.1602) scale(5.19148 2.94652)">
<stop stop-color="#00B359"/>
<stop offset="0.13" stop-color="#009148"/>
<stop offset="0.34" stop-color="#005E2F"/>
<stop offset="0.54" stop-color="#00351A"/>
<stop offset="0.73" stop-color="#00180C"/>
<stop offset="0.89" stop-color="#000603"/>
<stop offset="1"/>
</radialGradient>
<radialGradient id="paint5_radial_114_1544" cx="0" cy="0" r="1" gradientUnits="userSpaceOnUse" gradientTransform="translate(3321.98 -91.758) scale(5.15998 2.92857)">
<stop stop-color="#00B359"/>
<stop offset="0.13" stop-color="#009148"/>
<stop offset="0.34" stop-color="#005E2F"/>
<stop offset="0.54" stop-color="#00351A"/>
<stop offset="0.73" stop-color="#00180C"/>
<stop offset="0.89" stop-color="#000603"/>
<stop offset="1"/>
</radialGradient>
<radialGradient id="paint6_radial_114_1544" cx="0" cy="0" r="1" gradientUnits="userSpaceOnUse" gradientTransform="translate(3277.07 -82.7124) scale(5.19148 2.94649)">
<stop stop-color="#00B359"/>
<stop offset="0.13" stop-color="#009148"/>
<stop offset="0.34" stop-color="#005E2F"/>
<stop offset="0.54" stop-color="#00351A"/>
<stop offset="0.73" stop-color="#00180C"/>
<stop offset="0.89" stop-color="#000603"/>
<stop offset="1"/>
</radialGradient>
<radialGradient id="paint7_radial_114_1544" cx="0" cy="0" r="1" gradientUnits="userSpaceOnUse" gradientTransform="translate(9263.68 -315.523) scale(40.3809 22.9205)">
<stop stop-color="#00B359"/>
<stop offset="0.13" stop-color="#009148"/>
<stop offset="0.34" stop-color="#005E2F"/>
<stop offset="0.54" stop-color="#00351A"/>
<stop offset="0.73" stop-color="#00180C"/>
<stop offset="0.89" stop-color="#000603"/>
<stop offset="1"/>
</radialGradient>
<radialGradient id="paint8_radial_114_1544" cx="0" cy="0" r="1" gradientUnits="userSpaceOnUse" gradientTransform="translate(4298.56 -97.5971) scale(9.15721 5.19739)">
<stop stop-color="#00B359"/>
<stop offset="0.13" stop-color="#009148"/>
<stop offset="0.34" stop-color="#005E2F"/>
<stop offset="0.54" stop-color="#00351A"/>
<stop offset="0.73" stop-color="#00180C"/>
<stop offset="0.89" stop-color="#000603"/>
<stop offset="1"/>
</radialGradient>
<radialGradient id="paint9_radial_114_1544" cx="0" cy="0" r="1" gradientUnits="userSpaceOnUse" gradientTransform="translate(2137.02 -54.065) scale(2.29028 1.29935)">
<stop stop-color="#00B359"/>
<stop offset="0.13" stop-color="#009148"/>
<stop offset="0.34" stop-color="#005E2F"/>
<stop offset="0.54" stop-color="#00351A"/>
<stop offset="0.73" stop-color="#00180C"/>
<stop offset="0.89" stop-color="#000603"/>
<stop offset="1"/>
</radialGradient>
<radialGradient id="paint10_radial_114_1544" cx="0" cy="0" r="1" gradientUnits="userSpaceOnUse" gradientTransform="translate(2209.51 -29.3409) scale(2.28925 1.29937)">
<stop stop-color="#00B359"/>
<stop offset="0.13" stop-color="#009148"/>
<stop offset="0.34" stop-color="#005E2F"/>
<stop offset="0.54" stop-color="#00351A"/>
<stop offset="0.73" stop-color="#00180C"/>
<stop offset="0.89" stop-color="#000603"/>
<stop offset="1"/>
</radialGradient>
<radialGradient id="paint11_radial_114_1544" cx="0" cy="0" r="1" gradientUnits="userSpaceOnUse" gradientTransform="translate(1716.66 -19.7899) scale(1.36631 0.736804)">
<stop stop-color="#00B359"/>
<stop offset="0.13" stop-color="#009148"/>
<stop offset="0.34" stop-color="#005E2F"/>
<stop offset="0.54" stop-color="#00351A"/>
<stop offset="0.73" stop-color="#00180C"/>
<stop offset="0.89" stop-color="#000603"/>
<stop offset="1"/>
</radialGradient>
<radialGradient id="paint12_radial_114_1544" cx="0" cy="0" r="1" gradientUnits="userSpaceOnUse" gradientTransform="translate(188.402 -1857.1) rotate(-96.0346) scale(3.1989 5.59392)">
<stop stop-color="#00B359"/>
<stop offset="0.13" stop-color="#009148"/>
<stop offset="0.34" stop-color="#005E2F"/>
<stop offset="0.54" stop-color="#00351A"/>
<stop offset="0.73" stop-color="#00180C"/>
<stop offset="0.89" stop-color="#000603"/>
<stop offset="1"/>
</radialGradient>
<linearGradient id="paint13_linear_114_1544" x1="63876.2" y1="3070.44" x2="70979.4" y2="3070.44" gradientUnits="userSpaceOnUse">
<stop stop-color="#FF9840"/>
<stop offset="0.1" stop-color="#EF8E3C"/>
<stop offset="0.29" stop-color="#C57531"/>
<stop offset="0.55" stop-color="#814D20"/>
<stop offset="0.88" stop-color="#241609"/>
<stop offset="1"/>
</linearGradient>
</defs>
</svg>
